<?xml version="1.0" encoding="UTF-8" standalone="no"?>
<!-- Created with Inkscape (http://www.inkscape.org/) -->

<svg
   xmlns:dc="http://purl.org/dc/elements/1.1/"
   xmlns:cc="http://creativecommons.org/ns#"
   xmlns:rdf="http://www.w3.org/1999/02/22-rdf-syntax-ns#"
   xmlns:svg="http://www.w3.org/2000/svg"
   xmlns="http://www.w3.org/2000/svg"
   xmlns:xlink="http://www.w3.org/1999/xlink"
   xmlns:sodipodi="http://sodipodi.sourceforge.net/DTD/sodipodi-0.dtd"
   xmlns:inkscape="http://www.inkscape.org/namespaces/inkscape"
   width="64px"
   height="64px"
   id="svg5356"
   version="1.1"
   inkscape:version="0.91 r13725"
   sodipodi:docname="folder2.svg">
  <defs
     id="defs5358">
    <clipPath
       clipPathUnits="userSpaceOnUse"
       id="clipPath12225">
      <path
         id="path12227"
         d="m 310.5,158 c -1.50002,0 -1.5,1.46875 -1.5,1.46875 L 309,172 l -1.5,0 c -1.5,0 -1.5,1.28125 -1.5,1.28125 l 1.34375,35.4375 c 0.0382,0.40456 0.24888,0.69804 0.46875,0.90625 0.21986,0.2082 0.48146,0.37682 0.90625,0.375 l 54.5625,0 c 0.42451,0.001 0.65511,-0.16676 0.875,-0.375 0.2199,-0.20825 0.43064,-0.50187 0.46875,-0.90625 l 1.375,-35.5 c 0,0 -0.009,-1.21877 -1.375,-1.21875 l -1.625,0 0,-7.5 c 0,0 0,-1.5064 -1.5,-1.5 l -21.03125,0.0937 C 335.46875,163.09375 336,158 331,158 l -20.5,0 z"
         style="font-size:medium;font-style:normal;font-variant:normal;font-weight:normal;font-stretch:normal;text-indent:0;text-align:start;text-decoration:none;line-height:normal;letter-spacing:normal;word-spacing:normal;text-transform:none;direction:ltr;block-progression:tb;writing-mode:lr-tb;text-anchor:start;baseline-shift:baseline;color:#000000;fill:#000000;fill-opacity:1;stroke:none;stroke-width:2;marker:none;visibility:visible;display:inline;overflow:visible;enable-background:accumulate;font-family:Sans;-inkscape-font-specification:Sans"
         inkscape:connector-curvature="0" />
    </clipPath>
    <linearGradient
       id="linearGradient11342">
      <stop
         style="stop-color:#ffffff;stop-opacity:1;"
         offset="0"
         id="stop11344" />
      <stop
         style="stop-color:#ffffff;stop-opacity:0;"
         offset="1"
         id="stop11346" />
    </linearGradient>
    <clipPath
       clipPathUnits="userSpaceOnUse"
       id="clipPath12267">
      <path
         style="font-size:medium;font-style:normal;font-variant:normal;font-weight:normal;font-stretch:normal;text-indent:0;text-align:start;text-decoration:none;line-height:normal;letter-spacing:normal;word-spacing:normal;text-transform:none;direction:ltr;block-progression:tb;writing-mode:lr-tb;text-anchor:start;baseline-shift:baseline;color:#000000;fill:#000000;fill-opacity:1;stroke:none;stroke-width:1;marker:none;visibility:visible;display:inline;overflow:visible;enable-background:accumulate;font-family:Sans;-inkscape-font-specification:Sans"
         d="m 307.5,167.99972 c -0.35457,0 -0.64506,0.0626 -0.875,0.1875 -0.22994,0.12486 -0.36622,0.31678 -0.4375,0.4375 -0.082,0.13891 -0.12908,0.27141 -0.15625,0.375 -0.0272,0.10359 -0.0274,0.12696 -0.0312,0.21875 l 0,0.0312 0,0.0312 0,0.0312 1.34375,35.34375 0,0.0312 0,0.0312 0,0.0312 c 0.0473,0.36803 0.25881,0.67618 0.46875,0.875 0.0967,0.0916 0.21058,0.16825 0.375,0.25 0.16442,0.0817 0.34434,0.12566 0.53125,0.125 l 54.5625,0 c 0.1872,4.4e-4 0.3698,-0.0362 0.53125,-0.125 0.16145,-0.0888 0.25774,-0.16855 0.34375,-0.25 0.21008,-0.19895 0.42151,-0.50693 0.46875,-0.875 0.0108,-0.10912 0.008,-0.11455 0,-0.0312 l 0,-0.0312 1.375,-35.4375 c 0,0 0.0152,-0.32086 -0.15625,-0.625 -0.0644,-0.11425 -0.19054,-0.30572 -0.40625,-0.4375 -0.21571,-0.13178 -0.48648,-0.18751 -0.8125,-0.1875 l -57.125,0 z"
         id="path12269"
         inkscape:connector-curvature="0"
         sodipodi:nodetypes="ccccccccccccccccsccccccsccc" />
    </clipPath>
    <linearGradient
       id="linearGradient4968">
      <stop
         id="stop4970"
         offset="0"
         style="stop-color:#f1e6f4;stop-opacity:1;" />
      <stop
         style="stop-color:#c9bcce;stop-opacity:1;"
         offset="1"
         id="stop4972" />
    </linearGradient>
    <linearGradient
       id="linearGradient11359">
      <stop
         style="stop-color:#d5cbd7;stop-opacity:1;"
         offset="0"
         id="stop11361" />
      <stop
         style="stop-color:#d9bfdf;stop-opacity:1;"
         offset="1"
         id="stop11363" />
    </linearGradient>
    <linearGradient
       gradientUnits="userSpaceOnUse"
       xlink:href="#linearGradient11342"
       id="linearGradient2399"
       y2="36.569065"
       x2="22.683298"
       y1="-3.7612398"
       x1="46.810242" />
    <linearGradient
       gradientUnits="userSpaceOnUse"
       xlink:href="#linearGradient11342"
       id="linearGradient2397"
       y2="40.394432"
       x2="20.825262"
       y1="-14.909454"
       x1="54.570274" />
    <linearGradient
       gradientUnits="userSpaceOnUse"
       xlink:href="#linearGradient5106"
       id="linearGradient2395"
       y2="12.500461"
       x2="33.747887"
       y1="27.630672"
       x1="33.747887" />
    <linearGradient
       id="linearGradient5106">
      <stop
         offset="0"
         style="stop-color:#555555;stop-opacity:1;"
         id="stop5108" />
      <stop
         offset="1"
         style="stop-color:#222222;stop-opacity:1;"
         id="stop5110" />
    </linearGradient>
    <linearGradient
       gradientUnits="userSpaceOnUse"
       xlink:href="#linearGradient5106"
       id="linearGradient2393"
       y2="12.500461"
       x2="15.747885"
       y1="27.193487"
       x1="15.747885" />
    <linearGradient
       gradientTransform="matrix(1,0,0,-1,-0.98483573,48.000461)"
       y2="12.500461"
       x2="33.747887"
       y1="27.630672"
       x1="33.747887"
       gradientUnits="userSpaceOnUse"
       id="linearGradient3786"
       xlink:href="#linearGradient5106"
       inkscape:collect="always" />
    <linearGradient
       gradientTransform="matrix(1,0,0,-1,-0.99999973,48.000461)"
       y2="12.500461"
       x2="15.747885"
       y1="27.193487"
       x1="15.747885"
       gradientUnits="userSpaceOnUse"
       id="linearGradient3789"
       xlink:href="#linearGradient5106"
       inkscape:collect="always" />
    <clipPath
       id="clipPath3985"
       clipPathUnits="userSpaceOnUse">
      <path
         style="font-size:medium;font-style:normal;font-variant:normal;font-weight:normal;font-stretch:normal;text-indent:0;text-align:start;text-decoration:none;line-height:normal;letter-spacing:normal;word-spacing:normal;text-transform:none;direction:ltr;block-progression:tb;writing-mode:lr-tb;text-anchor:start;baseline-shift:baseline;color:#000000;fill:#3465a4;fill-opacity:1;fill-rule:nonzero;stroke:none;stroke-width:1;marker:none;visibility:visible;display:inline;overflow:visible;enable-background:accumulate;font-family:Sans;-inkscape-font-specification:Sans"
         d="m 309,232.99972 c -0.53578,0 -1,0.46422 -1,1 l -5e-5,8 -1,0 c -0.3277,0 -0.58618,0.18225 -0.75,0.375 -0.1489,0.17519 -0.22283,0.39373 -0.21875,0.65625 l -0.0312,0 0,0.0312 c 7.3e-4,0.0115 -10e-4,0.0195 0,0.0312 l 1.00005,26.96875 0,0.0312 c 0.0279,0.29662 0.18255,0.47236 0.34375,0.625 0.1612,0.15264 0.34482,0.28259 0.65625,0.28125 l 40,0 c 0.31123,10e-4 0.49504,-0.12858 0.65625,-0.28125 0.16121,-0.15267 0.31581,-0.32853 0.34375,-0.625 l 0,-0.0312 0.99995,-26.96875 0,-0.0312 c 10e-4,-0.013 -6.9e-4,-0.0186 0,-0.0312 0.0177,-0.32247 -0.12059,-0.51812 -0.28125,-0.6875 -0.16696,-0.17602 -0.38333,-0.34519 -0.71875,-0.34375 l -1,0 5e-5,-4 c 1e-5,-0.53578 -0.46422,-1 -1,-1 l -15,0 c -1.98879,0 -3.00245,-1.00245 -4,-2 -0.99755,-0.99755 -2.01326,-2 -4,-2 l -15,0 z"
         id="path3987"
         inkscape:connector-curvature="0"
         sodipodi:nodetypes="sscscccccccsccscccccsccssssscs" />
    </clipPath>
    <linearGradient
       y2="254.99973"
       x2="328"
       y1="242.99973"
       x1="328"
       gradientUnits="userSpaceOnUse"
       id="linearGradient3991"
       xlink:href="#linearGradient11342"
       inkscape:collect="always" />
    <clipPath
       id="clipPath3995"
       clipPathUnits="userSpaceOnUse">
      <path
         sodipodi:nodetypes="ccccccccc"
         inkscape:connector-curvature="0"
         id="path3997"
         d="m 306,242.09347 1,27 c 0.0463,0.49158 0.50624,0.90838 1,0.90625 l 40,0 c 0.49376,0.002 0.95367,-0.41467 1,-0.90625 l 1,-27 c 0.0521,-0.5539 -0.44366,-1.09614 -1,-1.09375 l -42,0 c -0.60937,0 -1.0514,0.56975 -1,1.09375 z"
         style="font-size:medium;font-style:normal;font-variant:normal;font-weight:normal;font-stretch:normal;text-indent:0;text-align:start;text-decoration:none;line-height:normal;letter-spacing:normal;word-spacing:normal;text-transform:none;direction:ltr;block-progression:tb;writing-mode:lr-tb;text-anchor:start;baseline-shift:baseline;color:#000000;fill:url(#linearGradient3999);fill-opacity:1;fill-rule:nonzero;stroke:none;stroke-width:2;marker:none;visibility:visible;display:inline;overflow:visible;enable-background:accumulate;font-family:Sans;-inkscape-font-specification:Sans" />
    </clipPath>
    <linearGradient
       y2="275.99973"
       x2="352"
       y1="227.99973"
       x1="352"
       gradientTransform="matrix(1.363391,0,0,1.363391,-350.07095,-310.30662)"
       gradientUnits="userSpaceOnUse"
       id="linearGradient5271"
       xlink:href="#linearGradient4968"
       inkscape:collect="always" />
    <linearGradient
       y2="260"
       x2="328"
       y1="240"
       x1="328"
       gradientTransform="matrix(1.363391,0,0,1.363391,-350.07095,-321.90555)"
       gradientUnits="userSpaceOnUse"
       id="linearGradient5274"
       xlink:href="#linearGradient11359"
       inkscape:collect="always" />
    <linearGradient
       id="linearGradient3952"
       inkscape:collect="always">
      <stop
         id="stop3954"
         offset="0"
         style="stop-color:#000000;stop-opacity:1;" />
      <stop
         id="stop3956"
         offset="1"
         style="stop-color:#000000;stop-opacity:0;" />
    </linearGradient>
    <linearGradient
       id="linearGradient3960">
      <stop
         id="stop3962"
         offset="0"
         style="stop-color:#000000;stop-opacity:0;" />
      <stop
         style="stop-color:#000000;stop-opacity:1;"
         offset="0.5"
         id="stop3970" />
      <stop
         id="stop3964"
         offset="1"
         style="stop-color:#000000;stop-opacity:0;" />
    </linearGradient>
    <linearGradient
       inkscape:collect="always"
       xlink:href="#linearGradient3960"
       id="linearGradient3196"
       gradientUnits="userSpaceOnUse"
       gradientTransform="translate(-4.0000003,0)"
       x1="25"
       y1="45"
       x2="25"
       y2="42" />
    <radialGradient
       r="2"
       fy="43.5"
       fx="40"
       cy="43.5"
       cx="40"
       gradientTransform="matrix(1.0571429,0,0,1.25,0.0986097,-36.875008)"
       gradientUnits="userSpaceOnUse"
       id="radialGradient3938"
       xlink:href="#linearGradient3952"
       inkscape:collect="always" />
    <radialGradient
       r="2"
       fy="43.5"
       fx="40"
       cy="43.5"
       cx="40"
       gradientTransform="matrix(1,0,0,0.75,1.4986097,-15.125008)"
       gradientUnits="userSpaceOnUse"
       id="radialGradient3940"
       xlink:href="#linearGradient3952"
       inkscape:collect="always" />
    <radialGradient
       r="2"
       fy="43.5"
       fx="9"
       cy="43.5"
       cx="9"
       gradientTransform="matrix(1.0571429,0,0,1.25,-4.9013906,-36.875008)"
       gradientUnits="userSpaceOnUse"
       id="radialGradient3942"
       xlink:href="#linearGradient3952"
       inkscape:collect="always" />
    <radialGradient
       r="2"
       fy="43.5"
       fx="9"
       cy="43.5"
       cx="9"
       gradientTransform="matrix(1,0,0,0.75,-3.5013906,-15.125008)"
       gradientUnits="userSpaceOnUse"
       id="radialGradient3944"
       xlink:href="#linearGradient3952"
       inkscape:collect="always" />
    <linearGradient
       y2="42"
       x2="25"
       y1="45"
       x1="25"
       gradientTransform="matrix(1.0571429,0,0,1.6666667,-5.9013906,-55.000008)"
       gradientUnits="userSpaceOnUse"
       id="linearGradient3946"
       xlink:href="#linearGradient3960"
       inkscape:collect="always" />
    <linearGradient
       y2="42"
       x2="25"
       y1="45"
       x1="25"
       gradientTransform="translate(-4.5013906,-26.000008)"
       gradientUnits="userSpaceOnUse"
       id="linearGradient3948"
       xlink:href="#linearGradient3960"
       inkscape:collect="always" />
  </defs>
  <sodipodi:namedview
     id="base"
     pagecolor="#ffffff"
     bordercolor="#666666"
     borderopacity="1.0"
     inkscape:pageopacity="0.0"
     inkscape:pageshadow="2"
     inkscape:zoom="1"
     inkscape:cx="23.243314"
     inkscape:cy="24.003699"
     inkscape:current-layer="layer1"
     showgrid="false"
     showborder="false"
     inkscape:document-units="px"
     inkscape:grid-bbox="true"
     inkscape:window-width="1364"
     inkscape:window-height="700"
     inkscape:window-x="0"
     inkscape:window-y="28"
     inkscape:window-maximized="1">
    <inkscape:grid
       type="xygrid"
       id="grid5415"
       empspacing="4"
       visible="true"
       enabled="true"
       snapvisiblegridlinesonly="true" />
  </sodipodi:namedview>
  <metadata
     id="metadata5361">
    <rdf:RDF>
      <cc:Work
         rdf:about="">
        <dc:format>image/svg+xml</dc:format>
        <dc:type
           rdf:resource="http://purl.org/dc/dcmitype/StillImage" />
        <dc:title></dc:title>
      </cc:Work>
    </rdf:RDF>
  </metadata>
  <g
     id="layer1"
     inkscape:label="Background"
     inkscape:groupmode="layer" />
  <g
     inkscape:groupmode="layer"
     id="layer2"
     inkscape:label="Symbol">
    <g
       id="g4192"
       transform="translate(-65,-0.25016009)">
      <g
         transform="translate(-0.12104096,0.50972075)"
         id="g4176">
        <path
           id="path13868"
           d="m 68.490089,33.949304 c -0.405895,0 -0.710013,0.435562 -0.681695,0.724301 l 0,0.04254 1.36339,23.135041 c 0.027,0.286408 0.393952,0.64033 0.681696,0.63909 l 54.53564,0 c 0.28798,0.0012 0.6547,-0.352628 0.6817,-0.63909 l 1.36339,-23.135041 0,-0.04254 c 0.0295,-0.312462 -0.36786,-0.725651 -0.6817,-0.724301 z"
           style="color:#000000;font-style:normal;font-variant:normal;font-weight:normal;font-stretch:normal;font-size:medium;line-height:normal;font-family:Sans;-inkscape-font-specification:Sans;text-indent:0;text-align:start;text-decoration:none;text-decoration-line:none;letter-spacing:normal;word-spacing:normal;text-transform:none;direction:ltr;block-progression:tb;writing-mode:lr-tb;baseline-shift:baseline;text-anchor:start;display:inline;overflow:visible;visibility:visible;opacity:0.2;fill:#000000;fill-opacity:1;fill-rule:nonzero;stroke:none;stroke-width:1;stroke-miterlimit:4;stroke-dasharray:none;marker:none;enable-background:accumulate"
           inkscape:connector-curvature="0"
           sodipodi:nodetypes="scccccccccs" />
        <path
           inkscape:connector-curvature="0"
           style="color:#000000;display:inline;overflow:visible;visibility:visible;fill:url(#linearGradient5274);fill-opacity:1;stroke:none;stroke-width:2;stroke-miterlimit:4;stroke-dasharray:none;marker:none;enable-background:accumulate"
           d="m 71.216871,5.9899995 c -0.389453,0 -0.681695,0.2922429 -0.681695,0.6816955 l 0,29.994602 c 0,0.389453 0.292242,0.681696 0.681695,0.681696 l 51.808859,0 c 0.38945,0 0.68169,-0.292243 0.68169,-0.681696 l 0,-24.83517 c 0,-0.389453 -0.29224,-0.681695 -0.68169,-0.681695 l -20.45087,0 c -2.954014,0 -4.558835,-1.282289 -5.922226,-2.6456803 -1.363391,-1.363391 -2.485352,-2.5137522 -4.984898,-2.5137522 z"
           id="rect11352"
           sodipodi:nodetypes="ssssssssssss" />
        <g
           id="g3930"
           style="opacity:0.1;stroke-width:1.46693063;stroke-miterlimit:4;stroke-dasharray:none"
           transform="matrix(1.363391,0,0,1.363391,64.399916,6.6814319)">
          <path
             style="fill:url(#radialGradient3938);fill-opacity:1;stroke:none;stroke-width:1.46693063;stroke-miterlimit:4;stroke-dasharray:none"
             d="m 42.384326,14.999993 0,5 0.528571,0 c 0.878486,0 1.585715,-1.115 1.585715,-2.5 0,-1.385 -0.707229,-2.5 -1.585715,-2.5 l -0.528571,0 z"
             id="path3987-4"
             inkscape:connector-curvature="0" />
          <path
             inkscape:connector-curvature="0"
             id="rect3940"
             d="m 41.49861,15.999992 0,3 0.5,0 c 0.831,0 1.5,-0.669 1.5,-1.5 0,-0.831 -0.669,-1.5 -1.5,-1.5 l -0.5,0 z"
             style="fill:url(#radialGradient3940);fill-opacity:1;stroke:none;stroke-width:1.46693063;stroke-miterlimit:4;stroke-dasharray:none" />
          <path
             style="fill:url(#radialGradient3942);fill-opacity:1;stroke:none;stroke-width:1.46693063;stroke-miterlimit:4;stroke-dasharray:none"
             d="m 3.9852169,14.999993 c -0.8235804,0 -1.4866072,1.045312 -1.4866072,2.34375 l 0,0.3125 c 0,1.298439 0.6630268,2.34375 1.4866072,2.34375 l 0.6276786,0 0,-5 -0.6276786,0 z"
             id="path3989"
             inkscape:connector-curvature="0" />
          <path
             inkscape:connector-curvature="0"
             id="rect3942"
             d="m 4.9048594,15.999992 c -0.7790625,0 -1.40625,0.627187 -1.40625,1.40625 l 0,0.1875 c 0,0.779063 0.6271875,1.40625 1.40625,1.40625 l 0.59375,0 0,-3 -0.59375,0 z"
             style="fill:url(#radialGradient3944);fill-opacity:1;stroke:none;stroke-width:1.46693063;stroke-miterlimit:4;stroke-dasharray:none" />
          <path
             sodipodi:nodetypes="ccccc"
             inkscape:connector-curvature="0"
             id="rect3985"
             d="m 4.6127529,14.999992 37.7717151,0 0,5 -37.7717151,0 z"
             style="fill:url(#linearGradient3946);fill-opacity:1;stroke:none;stroke-width:1.46693063;stroke-miterlimit:4;stroke-dasharray:none" />
          <path
             sodipodi:nodetypes="ccccc"
             inkscape:connector-curvature="0"
             id="rect3938"
             d="m 5.4984665,15.999992 36.0002845,0 0,3 -36.0002845,0 z"
             style="fill:url(#linearGradient3948);fill-opacity:1;stroke:none;stroke-width:1.46693063;stroke-miterlimit:4;stroke-dasharray:none" />
        </g>
        <path
           id="path3787"
           d="m 71.216871,5.9899992 c -0.389453,0 -0.681695,0.2922429 -0.681695,0.6816955 l 0,29.9946023 c 0,0.389453 0.292242,0.681696 0.681695,0.681696 l 51.808859,0 c 0.38945,0 0.68201,-0.292243 0.68169,-0.681696 l -0.0201,-24.83517 c -3.2e-4,-0.389453 -0.29224,-0.681695 -0.68169,-0.681695 l -20.45087,0 c -2.954013,0 -4.538735,-1.2822892 -5.902126,-2.6456805 -1.363391,-1.363391 -2.485352,-2.5137522 -4.984898,-2.5137522 z"
           style="color:#000000;display:inline;overflow:visible;visibility:visible;opacity:0.41000001;fill:none;stroke:#000000;stroke-width:1;stroke-miterlimit:4;stroke-dasharray:none;stroke-opacity:1;marker:none;enable-background:accumulate"
           inkscape:connector-curvature="0"
           sodipodi:nodetypes="ssssssssssss" />
        <path
           sodipodi:nodetypes="scccccccccs"
           inkscape:connector-curvature="0"
           style="color:#000000;font-style:normal;font-variant:normal;font-weight:normal;font-stretch:normal;font-size:medium;line-height:normal;font-family:Sans;-inkscape-font-specification:Sans;text-indent:0;text-align:start;text-decoration:none;text-decoration-line:none;letter-spacing:normal;word-spacing:normal;text-transform:none;direction:ltr;block-progression:tb;writing-mode:lr-tb;baseline-shift:baseline;text-anchor:start;display:inline;overflow:visible;visibility:visible;fill:url(#linearGradient5271);fill-opacity:1;fill-rule:nonzero;stroke:none;stroke-width:2;stroke-miterlimit:4;stroke-dasharray:none;marker:none;enable-background:accumulate"
           d="m 68.490021,29.859063 c -0.405895,0 -0.710013,0.435562 -0.681696,0.724301 l 0,0.04254 1.363459,25.861823 c 0.027,0.286407 0.393952,0.64033 0.681696,0.639089 l 54.53564,0 c 0.28798,0.0012 0.6547,-0.352627 0.6817,-0.639089 l 1.36332,-25.861823 0,-0.04254 c 0.0294,-0.312462 -0.36786,-0.725651 -0.6817,-0.724301 z"
           id="path10548" />
        <path
           sodipodi:nodetypes="ccccccccccc"
           inkscape:connector-curvature="0"
           id="path11392"
           d="m 68.362271,31.904149 c -0.714989,0.06394 -1.305651,0.776792 -1.235573,1.491209 l 1.363391,21.686438 c 0.06312,0.670216 0.690203,1.238477 1.363391,1.235573 l 54.53564,0 c 0.67319,0.0027 1.30023,-0.565357 1.36339,-1.235573 l 1.36339,-21.686438 c 0.071,-0.755182 -0.60488,-1.494468 -1.36339,-1.491209 l -57.262421,0 c -0.04254,-0.0014 -0.08521,-0.0014 -0.12775,0 z"
           style="color:#000000;font-style:normal;font-variant:normal;font-weight:normal;font-stretch:normal;font-size:medium;line-height:normal;font-family:Sans;-inkscape-font-specification:Sans;text-indent:0;text-align:start;text-decoration:none;text-decoration-line:none;letter-spacing:normal;word-spacing:normal;text-transform:none;direction:ltr;block-progression:tb;writing-mode:lr-tb;baseline-shift:baseline;text-anchor:start;display:inline;overflow:visible;visibility:visible;fill:none;stroke:none;stroke-width:2;stroke-miterlimit:4;stroke-dasharray:none;marker:none;enable-background:accumulate" />
        <path
           id="path3789"
           d="m 68.490021,29.859063 c -0.405895,0 -0.710013,0.435562 -0.681696,0.724301 l 0,0.04254 1.363459,25.861823 c 0.027,0.286407 0.393952,0.64033 0.681696,0.639089 l 54.53564,0 c 0.28798,0.0012 0.6547,-0.352627 0.6817,-0.639089 l 1.36332,-25.861823 0,-0.04254 c 0.0294,-0.312462 -0.36786,-0.725651 -0.6817,-0.724301 z"
           style="color:#000000;font-style:normal;font-variant:normal;font-weight:normal;font-stretch:normal;font-size:medium;line-height:normal;font-family:Sans;-inkscape-font-specification:Sans;text-indent:0;text-align:start;text-decoration:none;text-decoration-line:none;letter-spacing:normal;word-spacing:normal;text-transform:none;direction:ltr;block-progression:tb;writing-mode:lr-tb;baseline-shift:baseline;text-anchor:start;display:inline;overflow:visible;visibility:visible;opacity:0.41000001;fill:none;stroke:#000000;stroke-width:1;stroke-miterlimit:4;stroke-dasharray:none;stroke-opacity:1;marker:none;enable-background:accumulate"
           inkscape:connector-curvature="0"
           sodipodi:nodetypes="scccccccccs" />
        <path
           style="color:#000000;font-style:normal;font-variant:normal;font-weight:normal;font-stretch:normal;font-size:medium;line-height:normal;font-family:Sans;-inkscape-font-specification:Sans;text-indent:0;text-align:start;text-decoration:none;text-decoration-line:none;letter-spacing:normal;word-spacing:normal;text-transform:none;direction:ltr;block-progression:tb;writing-mode:lr-tb;baseline-shift:baseline;text-anchor:start;display:inline;overflow:visible;visibility:visible;opacity:0.2;fill:#ffffff;fill-opacity:1;fill-rule:nonzero;stroke:none;stroke-width:2;stroke-miterlimit:4;stroke-dasharray:none;marker:none;enable-background:accumulate"
           d="m 68.490089,30.540765 0,0.04261 0,0.04261 0.04261,1.278179 57.177211,0 0.0426,-1.278179 0,-0.04261 c 0.007,0.01643 7.2e-4,-0.03429 0,-0.04261 z"
           id="path3017"
           inkscape:connector-curvature="0"
           sodipodi:nodetypes="ccccccccc" />
      </g>
    </g>
  </g>
</svg>
