<?xml version="1.0" encoding="UTF-8" standalone="no"?>
<!-- Created with Inkscape (http://www.inkscape.org/) -->

<svg
   xmlns:dc="http://purl.org/dc/elements/1.1/"
   xmlns:cc="http://creativecommons.org/ns#"
   xmlns:rdf="http://www.w3.org/1999/02/22-rdf-syntax-ns#"
   xmlns:svg="http://www.w3.org/2000/svg"
   xmlns="http://www.w3.org/2000/svg"
   xmlns:xlink="http://www.w3.org/1999/xlink"
   xmlns:sodipodi="http://sodipodi.sourceforge.net/DTD/sodipodi-0.dtd"
   xmlns:inkscape="http://www.inkscape.org/namespaces/inkscape"
   inkscape:export-ydpi="90.000000"
   inkscape:export-xdpi="90.000000"
   width="480"
   height="300"
   id="svg11300"
   sodipodi:version="0.32"
   inkscape:version="0.48.4 r9939"
   sodipodi:docname="preferences-user.svg"
   inkscape:output_extension="org.inkscape.output.svg.inkscape"
   version="1.0"
   style="display:inline;enable-background:new"
   inkscape:export-filename="/home/sam/moka2-template.png">
  <sodipodi:namedview
     stroke="#ef2929"
     fill="#f57900"
     id="base"
     pagecolor="#ffffff"
     bordercolor="#666666"
     borderopacity="0.25490196"
     inkscape:pageopacity="0"
     inkscape:pageshadow="2"
     inkscape:zoom="1"
     inkscape:cx="233.89971"
     inkscape:cy="203.05567"
     inkscape:current-layer="layer6"
     showgrid="false"
     inkscape:grid-bbox="true"
     inkscape:document-units="px"
     inkscape:showpageshadow="false"
     inkscape:window-width="1680"
     inkscape:window-height="987"
     inkscape:window-x="0"
     inkscape:window-y="27"
     width="400px"
     height="300px"
     inkscape:snap-nodes="true"
     inkscape:snap-bbox="true"
     gridtolerance="10000"
     inkscape:object-nodes="true"
     inkscape:snap-grids="true"
     showguides="true"
     inkscape:guide-bbox="true"
     inkscape:window-maximized="1"
     inkscape:bbox-nodes="true"
     inkscape:bbox-paths="true"
     inkscape:snap-bbox-edge-midpoints="true"
     inkscape:snap-bbox-midpoints="true">
    <inkscape:grid
       spacingy="1px"
       spacingx="1px"
       id="grid5883"
       type="xygrid"
       enabled="true"
       visible="true"
       empspacing="4"
       snapvisiblegridlinesonly="true"
       dotted="false"
       color="#000000"
       opacity="0.1254902"
       empcolor="#203ef3"
       empopacity="0.36470588" />
    <inkscape:grid
       type="xygrid"
       id="grid11592"
       empspacing="8"
       visible="true"
       enabled="false"
       spacingx="0.5px"
       spacingy="0.5px"
       color="#ff0000"
       opacity="0.1254902"
       empcolor="#ff0000"
       empopacity="0.25098039"
       snapvisiblegridlinesonly="true"
       dotted="true" />
  </sodipodi:namedview>
  <defs
     id="defs3">
    <linearGradient
       id="outerBackgroundGradient">
      <stop
         style="stop-color:#207487;stop-opacity:1"
         offset="0"
         id="stop3864-8-6" />
      <stop
         style="stop-color:#3495a4;stop-opacity:1"
         offset="1"
         id="stop3866-9-1" />
    </linearGradient>
    <linearGradient
       inkscape:collect="always"
       xlink:href="#outerBackgroundGradient"
       id="linearGradient4097"
       gradientUnits="userSpaceOnUse"
       x1="264"
       y1="280.00003"
       x2="264"
       y2="40.00005"
       gradientTransform="matrix(0.06666667,0,0,0.06666667,414.4,137.33333)" />
    <linearGradient
       inkscape:collect="always"
       xlink:href="#outerBackgroundGradient"
       id="linearGradient4101"
       gradientUnits="userSpaceOnUse"
       gradientTransform="matrix(0.0875,0,0,0.0875,414.9,97.5)"
       x1="286.85715"
       y1="302.85715"
       x2="286.85715"
       y2="28.571428" />
    <linearGradient
       inkscape:collect="always"
       xlink:href="#outerBackgroundGradient"
       id="linearGradient4153"
       gradientUnits="userSpaceOnUse"
       gradientTransform="matrix(0.11931818,0,0,0.11931818,414.13636,48.22727)"
       x1="283.80957"
       y1="299.80954"
       x2="283.80957"
       y2="31.61907" />
    <linearGradient
       inkscape:collect="always"
       xlink:href="#outerBackgroundGradient"
       id="linearGradient4869"
       gradientUnits="userSpaceOnUse"
       gradientTransform="matrix(0.175,0,0,-0.175,286.79999,-215.99997)"
       x1="281.14291"
       y1="297.14304"
       x2="281.14291"
       y2="22.857315" />
    <clipPath
       clipPathUnits="userSpaceOnUse"
       id="clipPath4891">
      <rect
         ry="9"
         y="223"
         x="307"
         height="42"
         width="42"
         id="rect4893"
         style="color:#bebebe;fill:url(#linearGradient4895);fill-opacity:1;fill-rule:nonzero;stroke:none;stroke-width:0;marker:none;visibility:visible;display:inline;overflow:visible;enable-background:accumulate"
         transform="matrix(0,1,-1,0,0,0)" />
    </clipPath>
    <linearGradient
       inkscape:collect="always"
       xlink:href="#outerBackgroundGradient"
       id="linearGradient4895"
       gradientUnits="userSpaceOnUse"
       gradientTransform="matrix(0.175,0,0,0.175,302.79999,215.99997)"
       x1="144.00006"
       y1="280.00018"
       x2="144.00006"
       y2="40.000172" />
    <clipPath
       clipPathUnits="userSpaceOnUse"
       id="clipPath4044">
      <rect
         ry="4"
         y="85"
         x="433"
         height="22"
         width="22"
         id="rect4046"
         style="color:#bebebe;fill:url(#linearGradient4048);fill-opacity:1;fill-rule:nonzero;stroke:none;stroke-width:0;marker:none;visibility:visible;display:inline;overflow:visible;enable-background:accumulate" />
    </clipPath>
    <linearGradient
       inkscape:collect="always"
       xlink:href="#outerBackgroundGradient"
       id="linearGradient4048"
       gradientUnits="userSpaceOnUse"
       gradientTransform="matrix(0.0875,0,0,0.0875,430.9,81.499996)"
       x1="149.71428"
       y1="291.42862"
       x2="149.71428"
       y2="40.000046" />
    <clipPath
       clipPathUnits="userSpaceOnUse"
       id="clipPath4089">
      <rect
         style="color:#bebebe;fill:url(#linearGradient4093);fill-opacity:1;fill-rule:nonzero;stroke:none;stroke-width:0;marker:none;visibility:visible;display:inline;overflow:visible;enable-background:accumulate"
         id="rect4091"
         width="30"
         height="30"
         x="433"
         y="37"
         ry="6" />
    </clipPath>
    <linearGradient
       inkscape:collect="always"
       xlink:href="#outerBackgroundGradient"
       id="linearGradient4093"
       gradientUnits="userSpaceOnUse"
       gradientTransform="matrix(0.11931818,0,0,0.11931818,430.13636,32.227267)"
       x1="149.71432"
       y1="291.42862"
       x2="149.71432"
       y2="40.00005" />
    <clipPath
       clipPathUnits="userSpaceOnUse"
       id="clipPath3855">
      <rect
         style="color:#bebebe;fill:url(#linearGradient3859);fill-opacity:1;fill-rule:nonzero;stroke:none;stroke-width:0;marker:none;visibility:visible;display:inline;overflow:visible;enable-background:accumulate"
         id="rect3857"
         width="16"
         height="16"
         x="304"
         y="212"
         ry="3"
         transform="matrix(0,1,-1,0,0,0)" />
    </clipPath>
    <linearGradient
       inkscape:collect="always"
       xlink:href="#outerBackgroundGradient"
       id="linearGradient3859"
       gradientUnits="userSpaceOnUse"
       gradientTransform="matrix(0.06666667,0,0,0.06666667,302.4,209.33333)"
       x1="144"
       y1="280.00003"
       x2="144"
       y2="40.00005" />
    <clipPath
       clipPathUnits="userSpaceOnUse"
       id="clipPath3862">
      <rect
         ry="50"
         y="46"
         x="34"
         height="220"
         width="220"
         id="rect3864"
         style="color:#bebebe;fill:url(#linearGradient3866);fill-opacity:1;fill-rule:nonzero;stroke:none;stroke-width:0;marker:none;visibility:visible;display:inline;overflow:visible;enable-background:accumulate" />
    </clipPath>
    <linearGradient
       inkscape:collect="always"
       xlink:href="#outerBackgroundGradient"
       id="linearGradient3866"
       gradientUnits="userSpaceOnUse"
       gradientTransform="translate(0,-4)"
       x1="144"
       y1="280"
       x2="144"
       y2="40" />
    <linearGradient
       inkscape:collect="always"
       xlink:href="#outerBackgroundGradient"
       id="linearGradient3876"
       gradientUnits="userSpaceOnUse"
       gradientTransform="translate(0,-4)"
       x1="272"
       y1="288"
       x2="272"
       y2="32" />
    <clipPath
       clipPathUnits="userSpaceOnUse"
       id="clipPath4187">
      <rect
         ry="12.5"
         y="142"
         x="290"
         height="60"
         width="60"
         id="rect4189"
         style="color:#bebebe;fill:url(#linearGradient4191);fill-opacity:1;fill-rule:nonzero;stroke:none;stroke-width:0;marker:none;visibility:visible;display:inline;overflow:visible;enable-background:accumulate" />
    </clipPath>
    <linearGradient
       inkscape:collect="always"
       xlink:href="#outerBackgroundGradient"
       id="linearGradient4191"
       gradientUnits="userSpaceOnUse"
       x1="352"
       y1="204"
       x2="352"
       y2="140" />
    <linearGradient
       inkscape:collect="always"
       xlink:href="#outerBackgroundGradient"
       id="linearGradient4197"
       gradientUnits="userSpaceOnUse"
       x1="384"
       y1="124"
       x2="384"
       y2="28" />
    <linearGradient
       inkscape:collect="always"
       xlink:href="#outerBackgroundGradient"
       id="linearGradient4199"
       gradientUnits="userSpaceOnUse"
       x1="352"
       y1="204"
       x2="352"
       y2="140" />
    <clipPath
       clipPathUnits="userSpaceOnUse"
       id="clipPath4346">
      <rect
         style="color:#bebebe;fill:url(#linearGradient4350);fill-opacity:1;fill-rule:nonzero;stroke:none;stroke-width:0;marker:none;visibility:visible;display:inline;overflow:visible;enable-background:accumulate"
         id="rect4348"
         width="88"
         height="88"
         x="292"
         y="32"
         ry="18" />
    </clipPath>
    <linearGradient
       inkscape:collect="always"
       xlink:href="#outerBackgroundGradient"
       id="linearGradient4350"
       gradientUnits="userSpaceOnUse"
       x1="384"
       y1="124"
       x2="384"
       y2="28" />
    <clipPath
       clipPathUnits="userSpaceOnUse"
       id="clipPath3871">
      <rect
         ry="5"
         y="101"
         x="417"
         height="22"
         width="22"
         id="rect3873"
         style="color:#bebebe;fill:url(#linearGradient3875);fill-opacity:1;fill-rule:nonzero;stroke:none;stroke-width:0;marker:none;visibility:visible;display:inline;overflow:visible;enable-background:accumulate" />
    </clipPath>
    <linearGradient
       inkscape:collect="always"
       xlink:href="#outerBackgroundGradient"
       id="linearGradient3875"
       gradientUnits="userSpaceOnUse"
       gradientTransform="matrix(0.0875,0,0,0.0875,414.9,97.5)"
       x1="286.85715"
       y1="302.85715"
       x2="286.85715"
       y2="28.571428" />
    <clipPath
       clipPathUnits="userSpaceOnUse"
       id="clipPath3881">
      <rect
         style="color:#bebebe;fill:url(#linearGradient3885);fill-opacity:1;fill-rule:nonzero;stroke:none;stroke-width:0;marker:none;visibility:visible;display:inline;overflow:visible;enable-background:accumulate"
         id="rect3883"
         width="30"
         height="30"
         x="417"
         y="53"
         ry="7" />
    </clipPath>
    <linearGradient
       inkscape:collect="always"
       xlink:href="#outerBackgroundGradient"
       id="linearGradient3885"
       gradientUnits="userSpaceOnUse"
       gradientTransform="matrix(0.11931818,0,0,0.11931818,414.13636,48.22727)"
       x1="283.80957"
       y1="299.80954"
       x2="283.80957"
       y2="31.61907" />
    <linearGradient
       y2="31.61907"
       x2="283.80957"
       y1="299.80954"
       x1="283.80957"
       gradientTransform="matrix(0.11931818,0,0,0.11931818,414.13636,48.22727)"
       gradientUnits="userSpaceOnUse"
       id="linearGradient3885-8"
       xlink:href="#outerBackgroundGradient-0"
       inkscape:collect="always" />
    <clipPath
       id="clipPath3881-6"
       clipPathUnits="userSpaceOnUse">
      <rect
         ry="7"
         y="53"
         x="417"
         height="30"
         width="30"
         id="rect3883-6"
         style="color:#bebebe;fill:url(#linearGradient3885-8);fill-opacity:1;fill-rule:nonzero;stroke:none;stroke-width:0;marker:none;visibility:visible;display:inline;overflow:visible;enable-background:accumulate" />
    </clipPath>
    <linearGradient
       y2="28.571428"
       x2="286.85715"
       y1="302.85715"
       x1="286.85715"
       gradientTransform="matrix(0.0875,0,0,0.0875,414.9,97.5)"
       gradientUnits="userSpaceOnUse"
       id="linearGradient3875-2"
       xlink:href="#outerBackgroundGradient-0"
       inkscape:collect="always" />
    <clipPath
       id="clipPath3871-4"
       clipPathUnits="userSpaceOnUse">
      <rect
         style="color:#bebebe;fill:url(#linearGradient3875-2);fill-opacity:1;fill-rule:nonzero;stroke:none;stroke-width:0;marker:none;visibility:visible;display:inline;overflow:visible;enable-background:accumulate"
         id="rect3873-6"
         width="22"
         height="22"
         x="417"
         y="101"
         ry="5" />
    </clipPath>
    <linearGradient
       y2="28"
       x2="384"
       y1="124"
       x1="384"
       gradientUnits="userSpaceOnUse"
       id="linearGradient4350-8"
       xlink:href="#outerBackgroundGradient-0"
       inkscape:collect="always" />
    <clipPath
       id="clipPath4346-4"
       clipPathUnits="userSpaceOnUse">
      <rect
         ry="18"
         y="32"
         x="292"
         height="88"
         width="88"
         id="rect4348-6"
         style="color:#bebebe;fill:url(#linearGradient4350-8);fill-opacity:1;fill-rule:nonzero;stroke:none;stroke-width:0;marker:none;visibility:visible;display:inline;overflow:visible;enable-background:accumulate" />
    </clipPath>
    <linearGradient
       y2="140"
       x2="352"
       y1="204"
       x1="352"
       gradientUnits="userSpaceOnUse"
       id="linearGradient4191-2"
       xlink:href="#outerBackgroundGradient-0"
       inkscape:collect="always" />
    <clipPath
       id="clipPath4187-7"
       clipPathUnits="userSpaceOnUse">
      <rect
         style="color:#bebebe;fill:url(#linearGradient4191-2);fill-opacity:1;fill-rule:nonzero;stroke:none;stroke-width:0;marker:none;visibility:visible;display:inline;overflow:visible;enable-background:accumulate"
         id="rect4189-2"
         width="60"
         height="60"
         x="290"
         y="142"
         ry="12.5" />
    </clipPath>
    <linearGradient
       y2="40"
       x2="144"
       y1="280"
       x1="144"
       gradientTransform="translate(0,-4)"
       gradientUnits="userSpaceOnUse"
       id="linearGradient3866-1"
       xlink:href="#outerBackgroundGradient-0"
       inkscape:collect="always" />
    <clipPath
       id="clipPath3862-6"
       clipPathUnits="userSpaceOnUse">
      <rect
         style="color:#bebebe;fill:url(#linearGradient3866-1);fill-opacity:1;fill-rule:nonzero;stroke:none;stroke-width:0;marker:none;visibility:visible;display:inline;overflow:visible;enable-background:accumulate"
         id="rect3864-9"
         width="220"
         height="220"
         x="34"
         y="46"
         ry="50" />
    </clipPath>
    <linearGradient
       y2="40.00005"
       x2="144"
       y1="280.00003"
       x1="144"
       gradientTransform="matrix(0.06666667,0,0,0.06666667,302.4,209.33333)"
       gradientUnits="userSpaceOnUse"
       id="linearGradient3859-4"
       xlink:href="#outerBackgroundGradient-0"
       inkscape:collect="always" />
    <clipPath
       id="clipPath3855-6"
       clipPathUnits="userSpaceOnUse">
      <rect
         transform="matrix(0,1,-1,0,0,0)"
         ry="3"
         y="212"
         x="304"
         height="16"
         width="16"
         id="rect3857-0"
         style="color:#bebebe;fill:url(#linearGradient3859-4);fill-opacity:1;fill-rule:nonzero;stroke:none;stroke-width:0;marker:none;visibility:visible;display:inline;overflow:visible;enable-background:accumulate" />
    </clipPath>
    <linearGradient
       y2="40.00005"
       x2="149.71432"
       y1="291.42862"
       x1="149.71432"
       gradientTransform="matrix(0.11931818,0,0,0.11931818,430.13636,32.227267)"
       gradientUnits="userSpaceOnUse"
       id="linearGradient4093-1"
       xlink:href="#outerBackgroundGradient-0"
       inkscape:collect="always" />
    <clipPath
       id="clipPath4089-8"
       clipPathUnits="userSpaceOnUse">
      <rect
         ry="6"
         y="37"
         x="433"
         height="30"
         width="30"
         id="rect4091-4"
         style="color:#bebebe;fill:url(#linearGradient4093-1);fill-opacity:1;fill-rule:nonzero;stroke:none;stroke-width:0;marker:none;visibility:visible;display:inline;overflow:visible;enable-background:accumulate" />
    </clipPath>
    <linearGradient
       y2="40.000046"
       x2="149.71428"
       y1="291.42862"
       x1="149.71428"
       gradientTransform="matrix(0.0875,0,0,0.0875,430.9,81.499996)"
       gradientUnits="userSpaceOnUse"
       id="linearGradient4048-4"
       xlink:href="#outerBackgroundGradient-0"
       inkscape:collect="always" />
    <clipPath
       id="clipPath4044-9"
       clipPathUnits="userSpaceOnUse">
      <rect
         style="color:#bebebe;fill:url(#linearGradient4048-4);fill-opacity:1;fill-rule:nonzero;stroke:none;stroke-width:0;marker:none;visibility:visible;display:inline;overflow:visible;enable-background:accumulate"
         id="rect4046-6"
         width="22"
         height="22"
         x="433"
         y="85"
         ry="4" />
    </clipPath>
    <linearGradient
       y2="40.000172"
       x2="144.00006"
       y1="280.00018"
       x1="144.00006"
       gradientTransform="matrix(0.175,0,0,0.175,302.79999,215.99997)"
       gradientUnits="userSpaceOnUse"
       id="linearGradient4895-9"
       xlink:href="#outerBackgroundGradient-0"
       inkscape:collect="always" />
    <clipPath
       id="clipPath4891-6"
       clipPathUnits="userSpaceOnUse">
      <rect
         transform="matrix(0,1,-1,0,0,0)"
         style="color:#bebebe;fill:url(#linearGradient4895-9);fill-opacity:1;fill-rule:nonzero;stroke:none;stroke-width:0;marker:none;visibility:visible;display:inline;overflow:visible;enable-background:accumulate"
         id="rect4893-7"
         width="42"
         height="42"
         x="307"
         y="223"
         ry="9" />
    </clipPath>
    <linearGradient
       id="outerBackgroundGradient-0">
      <stop
         id="stop3864-8-6-0"
         offset="0"
         style="stop-color:#6742b9;stop-opacity:1;" />
      <stop
         id="stop3866-9-1-4"
         offset="1"
         style="stop-color:#7b58c6;stop-opacity:1;" />
    </linearGradient>
    <linearGradient
       y2="31.61907"
       x2="283.80957"
       y1="299.80954"
       x1="283.80957"
       gradientTransform="matrix(0.11931818,0,0,0.11931818,414.13636,48.22727)"
       gradientUnits="userSpaceOnUse"
       id="linearGradient3885-4"
       xlink:href="#outerBackgroundGradient-05"
       inkscape:collect="always" />
    <clipPath
       id="clipPath3881-0"
       clipPathUnits="userSpaceOnUse">
      <rect
         ry="7"
         y="53"
         x="417"
         height="30"
         width="30"
         id="rect3883-2"
         style="color:#bebebe;fill:url(#linearGradient3885-4);fill-opacity:1;fill-rule:nonzero;stroke:none;stroke-width:0;marker:none;visibility:visible;display:inline;overflow:visible;enable-background:accumulate" />
    </clipPath>
    <linearGradient
       y2="28.571428"
       x2="286.85715"
       y1="302.85715"
       x1="286.85715"
       gradientTransform="matrix(0.0875,0,0,0.0875,414.9,97.5)"
       gradientUnits="userSpaceOnUse"
       id="linearGradient3875-7"
       xlink:href="#outerBackgroundGradient-05"
       inkscape:collect="always" />
    <clipPath
       id="clipPath3871-48"
       clipPathUnits="userSpaceOnUse">
      <rect
         style="color:#bebebe;fill:url(#linearGradient3875-7);fill-opacity:1;fill-rule:nonzero;stroke:none;stroke-width:0;marker:none;visibility:visible;display:inline;overflow:visible;enable-background:accumulate"
         id="rect3873-1"
         width="22"
         height="22"
         x="417"
         y="101"
         ry="5" />
    </clipPath>
    <linearGradient
       y2="28"
       x2="384"
       y1="124"
       x1="384"
       gradientUnits="userSpaceOnUse"
       id="linearGradient4350-5"
       xlink:href="#outerBackgroundGradient-05"
       inkscape:collect="always" />
    <clipPath
       id="clipPath4346-1"
       clipPathUnits="userSpaceOnUse">
      <rect
         ry="18"
         y="32"
         x="292"
         height="88"
         width="88"
         id="rect4348-7"
         style="color:#bebebe;fill:url(#linearGradient4350-5);fill-opacity:1;fill-rule:nonzero;stroke:none;stroke-width:0;marker:none;visibility:visible;display:inline;overflow:visible;enable-background:accumulate" />
    </clipPath>
    <linearGradient
       y2="140"
       x2="352"
       y1="204"
       x1="352"
       gradientUnits="userSpaceOnUse"
       id="linearGradient4191-8"
       xlink:href="#outerBackgroundGradient-05"
       inkscape:collect="always" />
    <clipPath
       id="clipPath4187-4"
       clipPathUnits="userSpaceOnUse">
      <rect
         style="color:#bebebe;fill:url(#linearGradient4191-8);fill-opacity:1;fill-rule:nonzero;stroke:none;stroke-width:0;marker:none;visibility:visible;display:inline;overflow:visible;enable-background:accumulate"
         id="rect4189-1"
         width="60"
         height="60"
         x="290"
         y="142"
         ry="12.5" />
    </clipPath>
    <linearGradient
       y2="40"
       x2="144"
       y1="280"
       x1="144"
       gradientTransform="translate(0,-4)"
       gradientUnits="userSpaceOnUse"
       id="linearGradient3866-0"
       xlink:href="#outerBackgroundGradient-05"
       inkscape:collect="always" />
    <clipPath
       id="clipPath3862-0"
       clipPathUnits="userSpaceOnUse">
      <rect
         style="color:#bebebe;fill:url(#linearGradient3866-0);fill-opacity:1;fill-rule:nonzero;stroke:none;stroke-width:0;marker:none;visibility:visible;display:inline;overflow:visible;enable-background:accumulate"
         id="rect3864-8"
         width="220"
         height="220"
         x="34"
         y="46"
         ry="50" />
    </clipPath>
    <linearGradient
       y2="40.00005"
       x2="144"
       y1="280.00003"
       x1="144"
       gradientTransform="matrix(0.06666667,0,0,0.06666667,302.4,209.33333)"
       gradientUnits="userSpaceOnUse"
       id="linearGradient3859-6"
       xlink:href="#outerBackgroundGradient-05"
       inkscape:collect="always" />
    <clipPath
       id="clipPath3855-7"
       clipPathUnits="userSpaceOnUse">
      <rect
         transform="matrix(0,1,-1,0,0,0)"
         ry="3"
         y="212"
         x="304"
         height="16"
         width="16"
         id="rect3857-6"
         style="color:#bebebe;fill:url(#linearGradient3859-6);fill-opacity:1;fill-rule:nonzero;stroke:none;stroke-width:0;marker:none;visibility:visible;display:inline;overflow:visible;enable-background:accumulate" />
    </clipPath>
    <linearGradient
       y2="40.00005"
       x2="149.71432"
       y1="291.42862"
       x1="149.71432"
       gradientTransform="matrix(0.11931818,0,0,0.11931818,430.13636,32.227267)"
       gradientUnits="userSpaceOnUse"
       id="linearGradient4093-8"
       xlink:href="#outerBackgroundGradient-05"
       inkscape:collect="always" />
    <clipPath
       id="clipPath4089-5"
       clipPathUnits="userSpaceOnUse">
      <rect
         ry="6"
         y="37"
         x="433"
         height="30"
         width="30"
         id="rect4091-3"
         style="color:#bebebe;fill:url(#linearGradient4093-8);fill-opacity:1;fill-rule:nonzero;stroke:none;stroke-width:0;marker:none;visibility:visible;display:inline;overflow:visible;enable-background:accumulate" />
    </clipPath>
    <linearGradient
       y2="40.000046"
       x2="149.71428"
       y1="291.42862"
       x1="149.71428"
       gradientTransform="matrix(0.0875,0,0,0.0875,430.9,81.499996)"
       gradientUnits="userSpaceOnUse"
       id="linearGradient4048-9"
       xlink:href="#outerBackgroundGradient-05"
       inkscape:collect="always" />
    <clipPath
       id="clipPath4044-91"
       clipPathUnits="userSpaceOnUse">
      <rect
         style="color:#bebebe;fill:url(#linearGradient4048-9);fill-opacity:1;fill-rule:nonzero;stroke:none;stroke-width:0;marker:none;visibility:visible;display:inline;overflow:visible;enable-background:accumulate"
         id="rect4046-0"
         width="22"
         height="22"
         x="433"
         y="85"
         ry="4" />
    </clipPath>
    <linearGradient
       y2="40.000172"
       x2="144.00006"
       y1="280.00018"
       x1="144.00006"
       gradientTransform="matrix(0.175,0,0,0.175,302.79999,215.99997)"
       gradientUnits="userSpaceOnUse"
       id="linearGradient4895-3"
       xlink:href="#outerBackgroundGradient-05"
       inkscape:collect="always" />
    <clipPath
       id="clipPath4891-1"
       clipPathUnits="userSpaceOnUse">
      <rect
         transform="matrix(0,1,-1,0,0,0)"
         style="color:#bebebe;fill:url(#linearGradient4895-3);fill-opacity:1;fill-rule:nonzero;stroke:none;stroke-width:0;marker:none;visibility:visible;display:inline;overflow:visible;enable-background:accumulate"
         id="rect4893-75"
         width="42"
         height="42"
         x="307"
         y="223"
         ry="9" />
    </clipPath>
    <linearGradient
       id="outerBackgroundGradient-05">
      <stop
         id="stop3864-8-6-2"
         offset="0"
         style="stop-color:#2a66b5;stop-opacity:1;" />
      <stop
         id="stop3866-9-1-3"
         offset="1"
         style="stop-color:#2f75d1;stop-opacity:1;" />
    </linearGradient>
    <linearGradient
       inkscape:collect="always"
       xlink:href="#outerBackgroundGradient-8"
       id="linearGradient3876-5"
       gradientUnits="userSpaceOnUse"
       gradientTransform="translate(0,-4)"
       x1="272"
       y1="288"
       x2="272"
       y2="32" />
    <linearGradient
       id="outerBackgroundGradient-8">
      <stop
         style="stop-color:#207487;stop-opacity:1"
         offset="0"
         id="stop3864-8-6-1" />
      <stop
         style="stop-color:#3495a4;stop-opacity:1"
         offset="1"
         id="stop3866-9-1-49" />
    </linearGradient>
    <linearGradient
       inkscape:collect="always"
       xlink:href="#outerBackgroundGradient-8"
       id="linearGradient4583"
       gradientUnits="userSpaceOnUse"
       gradientTransform="matrix(2.7173818,0,0,0.53177899,-68.738887,-169.48401)"
       x1="272"
       y1="288"
       x2="272"
       y2="32" />
  </defs>
  <metadata
     id="metadata4">
    <rdf:RDF>
      <cc:Work
         rdf:about="">
        <dc:format>image/svg+xml</dc:format>
        <dc:type
           rdf:resource="http://purl.org/dc/dcmitype/StillImage" />
        <dc:creator>
          <cc:Agent>
            <dc:title>Sam Hewitt</dc:title>
          </cc:Agent>
        </dc:creator>
        <dc:source />
        <cc:license
           rdf:resource="" />
        <dc:title></dc:title>
        <dc:subject>
          <rdf:Bag />
        </dc:subject>
        <dc:date />
        <dc:rights>
          <cc:Agent>
            <dc:title />
          </cc:Agent>
        </dc:rights>
        <dc:publisher>
          <cc:Agent>
            <dc:title />
          </cc:Agent>
        </dc:publisher>
        <dc:identifier />
        <dc:relation />
        <dc:language />
        <dc:coverage />
        <dc:description />
        <dc:contributor>
          <cc:Agent>
            <dc:title />
          </cc:Agent>
        </dc:contributor>
      </cc:Work>
      <cc:Work
         rdf:about="">
        <dc:format>image/svg+xml</dc:format>
        <dc:type
           rdf:resource="http://purl.org/dc/dcmitype/StillImage" />
      </cc:Work>
    </rdf:RDF>
  </metadata>
  <g
     style="display:inline"
     inkscape:groupmode="layer"
     inkscape:label="Icon"
     id="layer1">
    <g
       style="display:none"
       inkscape:label="Baseplate"
       id="layer7"
       inkscape:groupmode="layer">
      <text
         y="19.745117"
         xml:space="preserve"
         x="15.006836"
         style="font-size:18px;font-style:normal;font-variant:normal;font-weight:normal;font-stretch:normal;fill:#000000;fill-opacity:1;stroke:none;display:inline;enable-background:new;font-family:DejaVu Sans;-inkscape-font-specification:DejaVu Sans"
         inkscape:label="context"
         id="context"><tspan
           style="font-style:normal;font-variant:normal;font-weight:normal;font-stretch:normal;font-family:DejaVu Sans;-inkscape-font-specification:DejaVu Sans"
           y="19.745117"
           x="15.006836"
           sodipodi:role="line"
           id="tspan3933">apps</tspan></text>
      <text
         y="19.745117"
         xml:space="preserve"
         x="122.48828"
         style="font-size:18px;font-style:normal;font-variant:normal;font-weight:bold;font-stretch:normal;text-align:start;line-height:125%;writing-mode:lr-tb;text-anchor:start;fill:#000000;fill-opacity:1;stroke:none;display:inline;enable-background:new;font-family:DejaVu Sans;-inkscape-font-specification:DejaVu Sans Bold"
         sodipodi:linespacing="125%"
         inkscape:label="icon-name"
         id="icon-name"><tspan
           style="font-size:18px;font-style:normal;font-variant:normal;font-weight:bold;font-stretch:normal;font-family:DejaVu Sans;-inkscape-font-specification:DejaVu Sans Bold"
           y="19.745117"
           x="122.48828"
           sodipodi:role="line"
           id="tspan3937">clinica</tspan></text>
      <rect
         style="fill:#eeeeec;fill-opacity:1;fill-rule:nonzero;stroke:none;stroke-width:2;marker:none;visibility:visible;display:inline;overflow:visible;enable-background:accumulate"
         id="rect16x16"
         width="16"
         height="16"
         x="416"
         y="140"
         inkscape:label="16x16" />
      <rect
         style="fill:#d4d4d4;fill-opacity:1;fill-rule:nonzero;stroke:none;stroke-width:2;marker:none;visibility:visible;display:inline;overflow:visible;enable-background:accumulate"
         id="rect24x24"
         width="24"
         height="24"
         x="416"
         y="100"
         inkscape:label="24x24" />
      <rect
         style="fill:#eeeeec;fill-opacity:1;fill-rule:nonzero;stroke:none;stroke-width:2;marker:none;visibility:visible;display:inline;overflow:visible;enable-background:accumulate"
         id="rect32x32"
         width="32"
         height="32"
         x="416"
         y="52"
         inkscape:label="32x32" />
      <rect
         inkscape:label="22x22"
         y="101"
         x="417"
         height="22"
         width="22"
         id="rect22x22"
         style="fill:#eeeeec;fill-opacity:1;fill-rule:nonzero;stroke:none;stroke-width:2;marker:none;visibility:visible;display:inline;overflow:visible;enable-background:accumulate" />
      <rect
         inkscape:label="48x48"
         y="220"
         x="288"
         height="48"
         width="48"
         id="rect48x48"
         style="fill:#eeeeec;fill-opacity:1;fill-rule:nonzero;stroke:none;stroke-width:2;marker:none;visibility:visible;display:inline;overflow:visible;enable-background:accumulate" />
      <rect
         style="fill:#eeeeec;fill-opacity:1;fill-rule:nonzero;stroke:none;stroke-width:2;marker:none;visibility:visible;display:inline;overflow:visible;enable-background:accumulate"
         id="rect256x256"
         width="256"
         height="256"
         x="16"
         y="28"
         inkscape:label="256x256" />
      <rect
         style="fill:#eeeeec;fill-opacity:1;fill-rule:nonzero;stroke:none;stroke-width:2;marker:none;visibility:visible;display:inline;overflow:visible;enable-background:accumulate"
         id="rect64x64"
         width="64"
         height="64"
         x="288"
         y="140"
         inkscape:label="64x64" />
      <rect
         style="fill:#eeeeec;fill-opacity:1;fill-rule:nonzero;stroke:none;stroke-width:2;marker:none;visibility:visible;display:inline;overflow:visible;enable-background:accumulate"
         id="rect96x96"
         width="96"
         height="96"
         x="288"
         y="28"
         inkscape:label="96x96" />
    </g>
    <g
       inkscape:groupmode="layer"
       id="layer4"
       inkscape:label="Shadow"
       style="display:inline"
       sodipodi:insensitive="true">
      <rect
         style="opacity:0.0;color:#bebebe;fill:#000000;fill-opacity:1;stroke:#000000;stroke-width:1;stroke-miterlimit:4;stroke-opacity:1;stroke-dasharray:none;marker:none;visibility:visible;display:inline;overflow:visible;enable-background:accumulate"
         id="rect4156"
         width="42"
         height="42"
         x="-266.5"
         y="291"
         ry="9"
         transform="matrix(0,-1,1,0,0,0)" />
      <rect
         transform="matrix(0,-1,1,0,0,0)"
         ry="9"
         y="291"
         x="-266.5"
         height="42"
         width="40"
         id="rect4183"
         style="opacity:0.1;color:#bebebe;fill:#000000;fill-opacity:1;stroke:none;stroke-width:1;marker:none;visibility:visible;display:inline;overflow:visible;enable-background:accumulate" />
      <rect
         ry="9"
         y="237"
         x="291"
         height="29"
         width="42"
         id="rect4144"
         style="opacity:0.1;color:#bebebe;fill:#000000;fill-opacity:1;fill-rule:nonzero;stroke:none;stroke-width:0;marker:none;visibility:visible;display:inline;overflow:visible;enable-background:accumulate" />
      <rect
         style="opacity:0.0;color:#bebebe;fill:#000000;fill-opacity:1;fill-rule:nonzero;stroke:#000000;stroke-width:1;stroke-miterlimit:4;stroke-opacity:1;stroke-dasharray:none;marker:none;visibility:visible;display:inline;overflow:visible;enable-background:accumulate"
         id="rect4340"
         width="88"
         height="88"
         x="292"
         y="33.5"
         ry="18" />
      <rect
         ry="18"
         y="52.5"
         x="292"
         height="69"
         width="88"
         id="rect4338"
         style="opacity:0.1;color:#bebebe;fill:#000000;fill-opacity:1;fill-rule:nonzero;stroke:none;stroke-width:0;marker:none;visibility:visible;display:inline;overflow:visible;enable-background:accumulate" />
      <rect
         style="opacity:0.1;color:#bebebe;fill:#000000;fill-opacity:1;fill-rule:nonzero;stroke:none;stroke-width:0;marker:none;visibility:visible;display:inline;overflow:visible;enable-background:accumulate"
         id="rect4335"
         width="88"
         height="76.5"
         x="292"
         y="44.5"
         ry="18" />
      <rect
         style="opacity:0.0;color:#bebebe;fill:#000000;fill-opacity:1;fill-rule:nonzero;stroke:#000000;stroke-width:1;stroke-miterlimit:4;stroke-opacity:1;stroke-dasharray:none;marker:none;visibility:visible;display:inline;overflow:visible;enable-background:accumulate"
         id="rect4214"
         width="60"
         height="60"
         x="290"
         y="143.5"
         ry="12.5" />
      <rect
         ry="12.5"
         y="151.5"
         x="290"
         height="52"
         width="60"
         id="rect4206"
         style="opacity:0.1;color:#bebebe;fill:#000000;fill-opacity:1;fill-rule:nonzero;stroke:none;stroke-width:0;marker:none;visibility:visible;display:inline;overflow:visible;enable-background:accumulate" />
      <rect
         style="opacity:0.1;color:#bebebe;fill:#000000;fill-opacity:1;fill-rule:nonzero;stroke:none;stroke-width:0;marker:none;visibility:visible;display:inline;overflow:visible;enable-background:accumulate"
         id="rect4212"
         width="60"
         height="54.5"
         x="290"
         y="148.5"
         ry="12.5" />
      <rect
         style="opacity:0.2;color:#bebebe;fill:#000000;fill-opacity:1;fill-rule:nonzero;stroke:none;stroke-width:0;marker:none;visibility:visible;display:inline;overflow:visible;enable-background:accumulate"
         id="rect4058"
         width="30"
         height="30"
         x="417"
         y="54"
         ry="7" />
      <rect
         ry="50"
         y="48"
         x="34"
         height="220"
         width="220"
         id="rect3872"
         style="opacity:0.0;color:#bebebe;fill:#000000;fill-opacity:1;fill-rule:nonzero;stroke:#000000;stroke-width:2;stroke-miterlimit:4;stroke-opacity:1;stroke-dasharray:none;marker:none;visibility:visible;display:inline;overflow:visible;enable-background:accumulate" />
      <rect
         style="opacity:0.1;color:#bebebe;fill:#000000;fill-opacity:1;fill-rule:nonzero;stroke:none;stroke-width:0;marker:none;visibility:visible;display:inline;overflow:visible;enable-background:accumulate"
         id="rect3870"
         width="220"
         height="220"
         x="34"
         y="48"
         ry="50" />
      <rect
         ry="50"
         y="47"
         x="34"
         height="220"
         width="220"
         id="rect3868"
         style="opacity:0.1;color:#bebebe;fill:#000000;fill-opacity:1;fill-rule:nonzero;stroke:none;stroke-width:0;marker:none;visibility:visible;display:inline;overflow:visible;enable-background:accumulate" />
    </g>
    <g
       inkscape:groupmode="layer"
       id="layer2"
       inkscape:label="Background"
       style="display:inline">
      <rect
         style="color:#bebebe;fill:url(#linearGradient3876);fill-opacity:1;fill-rule:nonzero;stroke:none;stroke-width:0;marker:none;visibility:visible;display:inline;overflow:visible;enable-background:accumulate"
         id="rect4040"
         width="220"
         height="220"
         x="34"
         y="46"
         ry="50" />
      <rect
         ry="3"
         y="140"
         x="416"
         height="16"
         width="16"
         id="rect4095"
         style="color:#bebebe;fill:url(#linearGradient4097);fill-opacity:1;fill-rule:nonzero;stroke:none;stroke-width:0;marker:none;visibility:visible;display:inline;overflow:visible;enable-background:accumulate" />
      <rect
         style="color:#bebebe;fill:url(#linearGradient4101);fill-opacity:1;fill-rule:nonzero;stroke:none;stroke-width:0;marker:none;visibility:visible;display:inline;overflow:visible;enable-background:accumulate"
         id="rect4099"
         width="22"
         height="22"
         x="417"
         y="101"
         ry="5" />
      <rect
         ry="7"
         y="53"
         x="417"
         height="30"
         width="30"
         id="rect4151"
         style="color:#bebebe;fill:url(#linearGradient4153);fill-opacity:1;fill-rule:nonzero;stroke:none;stroke-width:0;marker:none;visibility:visible;display:inline;overflow:visible;enable-background:accumulate" />
      <rect
         style="color:#bebebe;fill:url(#linearGradient4869);fill-opacity:1;fill-rule:nonzero;stroke:none;stroke-width:0;marker:none;visibility:visible;display:inline;overflow:visible;enable-background:accumulate"
         id="rect4783"
         width="42"
         height="42"
         x="291"
         y="-265"
         ry="9"
         transform="scale(1,-1)" />
      <rect
         ry="18"
         y="32"
         x="292"
         height="88"
         width="88"
         id="rect4511"
         style="color:#bebebe;fill:url(#linearGradient4197);fill-opacity:1;fill-rule:nonzero;stroke:none;stroke-width:0;marker:none;visibility:visible;display:inline;overflow:visible;enable-background:accumulate" />
      <rect
         style="color:#bebebe;fill:url(#linearGradient4199);fill-opacity:1;fill-rule:nonzero;stroke:none;stroke-width:0;marker:none;visibility:visible;display:inline;overflow:visible;enable-background:accumulate"
         id="rect4515"
         width="60"
         height="60"
         x="290"
         y="142"
         ry="12.5" />
      <rect
         ry="5"
         y="101"
         x="417"
         height="22"
         width="22"
         id="rect3866"
         style="color:#bebebe;fill:none;fill-opacity:1;fill-rule:nonzero;stroke:#000000;stroke-width:2;marker:none;visibility:visible;display:inline;overflow:visible;enable-background:accumulate;stroke-opacity:1;stroke-miterlimit:4;stroke-dasharray:none;opacity:0.1"
         clip-path="url(#clipPath3871)" />
      <rect
         style="color:#bebebe;fill:none;fill-opacity:1;fill-rule:nonzero;stroke:#000000;stroke-width:2;marker:none;visibility:visible;display:inline;overflow:visible;enable-background:accumulate;stroke-opacity:1;stroke-miterlimit:4;stroke-dasharray:none;opacity:0.1"
         id="rect3877"
         width="30"
         height="30"
         x="417"
         y="53"
         ry="7"
         clip-path="url(#clipPath3881)" />
    </g>
    <g
       inkscape:groupmode="layer"
       id="layer6"
       inkscape:label="Symbols"
       style="display:inline">
      <path
         style="fill:#000000;fill-opacity:1;display:inline;enable-background:new;opacity:0.2"
         inkscape:connector-curvature="0"
         d="m 186.16286,111.44126 c 0,-7.12145 -1.46293,-13.85647 -3.97476,-19.90142 l -1.0489,-2.53943 h -22.30284 v 8.22555 h 16.75473 c 1.51814,4.3888 2.40142,9.19164 2.40142,14.2153 0,6.34858 -1.32493,12.31073 -3.67113,17.58281 -2.59465,0.0552 -5.13408,1.32492 -6.65222,3.67113 -5.68612,8.47398 -14.2153,13.52524 -23.60016,13.52524 -9.38486,0 -17.91404,-5.05126 -23.60016,-13.52524 -1.54574,-2.31861 -4.08517,-3.61593 -6.67981,-3.67113 -2.34621,-5.27208 -3.67113,-11.23423 -3.67113,-17.58281 0,-5.02366 0.85568,-9.79889 2.40142,-14.2153 h 14.65694 V 89.00041 H 106.8884 l -1.04889,2.53943 c -2.53944,6.04495 -4.00237,12.77997 -4.00237,19.90142 0,7.75631 1.68375,15.09858 4.69243,21.58518 -1.57333,2.62223 -1.62855,6.04495 0.19322,8.7776 l 0,0 c 6.40378,9.68848 16.09227,16.97555 27.40931,19.6806 0,0.35883 0,0.71766 0,1.0765 -0.0276,3.78154 0.30363,8.05993 2.04259,12.47634 1.73896,4.4164 4.58202,8.58438 8.83281,13.49763 1.62855,1.87697 3.91956,2.84306 6.21056,2.84306 0.60726,0 1.21451,-0.0828 1.79417,-0.22082 0.93848,0.99369 1.95978,2.01498 3.03627,3.11909 5.27209,5.24447 7.7011,11.15141 7.6735,15.65063 -0.0276,3.20189 -1.0489,5.65851 -3.14668,7.53549 -2.09779,1.87697 -5.60332,3.3123 -11.06861,3.3123 -4.74764,0.0276 -8.7224,-2.62224 -11.67587,-5.65852 -0.35883,-0.35883 -0.69006,-0.74527 -1.02129,-1.1317 2.59463,-3.11909 4.16798,-7.14906 4.16798,-11.53786 0,-9.96451 -8.11514,-18.10725 -18.10726,-18.10725 -9.99211,0 -18.07965,8.11514 -18.07965,18.10725 0,9.99212 8.11514,18.07966 18.07965,18.07966 2.62224,0 5.13407,-0.55206 7.39748,-1.57335 0.52445,0.60726 1.0489,1.21451 1.65615,1.84937 3.75394,3.89196 9.66088,8.17035 17.58281,8.19795 h 0.0552 c 6.87303,0 12.53155,-1.87697 16.50631,-5.41009 3.97477,-3.50553 5.93455,-8.55679 5.90694,-13.69086 -0.0276,-7.31467 -3.61593,-14.96056 -10.07492,-21.47476 -0.99369,-0.99369 -1.93218,-1.93218 -2.81546,-2.84306 0.82808,-2.62224 0.30363,-5.60331 -1.62854,-7.83912 -3.61594,-4.16798 -5.21688,-6.84542 -5.93455,-8.72239 -0.71766,-1.87698 -0.91088,-3.36751 -0.91088,-6.4866 0,-0.13801 0,-0.27602 0,-0.41403 12.72476,-2.01499 23.68296,-9.71609 30.72161,-20.34306 1.82176,-2.73265 1.76656,-6.15537 0.19322,-8.77761 2.98107,-6.48659 4.63722,-13.80126 4.63722,-21.55757 z m -73.11909,91.03312 c 0,-5.46529 4.41641,-9.8817 9.88171,-9.8817 5.4377,0 9.8817,4.41641 9.8817,9.8817 0,5.4653 -4.4164,9.88171 -9.8817,9.88171 -5.4653,-0.0276 -9.88171,-4.44401 -9.88171,-9.88171 z"
         id="path4613" />
      <path
         id="path3683"
         d="m 186.16286,110.44085 c 0,-7.12145 -1.46293,-13.85647 -3.97476,-19.90142 L 181.1392,88 h -22.30284 v 8.22555 h 16.75473 c 1.51814,4.3888 2.40142,9.19164 2.40142,14.2153 0,6.34858 -1.32493,12.31073 -3.67113,17.58281 -2.59465,0.0552 -5.13408,1.32492 -6.65222,3.67113 -5.68612,8.47398 -14.2153,13.52524 -23.60016,13.52524 -9.38486,0 -17.91404,-5.05126 -23.60016,-13.52524 -1.54574,-2.31861 -4.08517,-3.61593 -6.67981,-3.67113 -2.34621,-5.27208 -3.67113,-11.23423 -3.67113,-17.58281 0,-5.02366 0.85568,-9.79889 2.40142,-14.2153 h 14.65694 V 88 H 106.8884 l -1.04889,2.53943 c -2.53944,6.04495 -4.00237,12.77997 -4.00237,19.90142 0,7.75631 1.68375,15.09858 4.69243,21.58518 -1.57333,2.62223 -1.62855,6.04495 0.19322,8.7776 l 0,0 c 6.40378,9.68848 16.09227,16.97555 27.40931,19.6806 0,0.35883 0,0.71766 0,1.0765 -0.0276,3.78154 0.30363,8.05993 2.04259,12.47634 1.73896,4.4164 4.58202,8.58438 8.83281,13.49763 1.62855,1.87697 3.91956,2.84306 6.21056,2.84306 0.60726,0 1.21451,-0.0828 1.79417,-0.22082 0.93848,0.99369 1.95978,2.01498 3.03627,3.11909 5.27209,5.24447 7.7011,11.15141 7.6735,15.65063 -0.0276,3.20189 -1.0489,5.65851 -3.14668,7.53549 -2.09779,1.87697 -5.60332,3.3123 -11.06861,3.3123 -4.74764,0.0276 -8.7224,-2.62224 -11.67587,-5.65852 -0.35883,-0.35883 -0.69006,-0.74527 -1.02129,-1.1317 2.59463,-3.11909 4.16798,-7.14906 4.16798,-11.53786 0,-9.96451 -8.11514,-18.10725 -18.10726,-18.10725 -9.99211,0 -18.07965,8.11514 -18.07965,18.10725 0,9.99212 8.11514,18.07966 18.07965,18.07966 2.62224,0 5.13407,-0.55206 7.39748,-1.57335 0.52445,0.60726 1.0489,1.21451 1.65615,1.84937 3.75394,3.89196 9.66088,8.17035 17.58281,8.19795 h 0.0552 c 6.87303,0 12.53155,-1.87697 16.50631,-5.41009 3.97477,-3.50553 5.93455,-8.55679 5.90694,-13.69086 -0.0276,-7.31467 -3.61593,-14.96056 -10.07492,-21.47476 -0.99369,-0.99369 -1.93218,-1.93218 -2.81546,-2.84306 0.82808,-2.62224 0.30363,-5.60331 -1.62854,-7.83912 -3.61594,-4.16798 -5.21688,-6.84542 -5.93455,-8.72239 -0.71766,-1.87698 -0.91088,-3.36751 -0.91088,-6.4866 0,-0.13801 0,-0.27602 0,-0.41403 12.72476,-2.01499 23.68296,-9.71609 30.72161,-20.34306 1.82176,-2.73265 1.76656,-6.15537 0.19322,-8.77761 2.98107,-6.48659 4.63722,-13.80126 4.63722,-21.55757 z m -73.11909,91.03312 c 0,-5.46529 4.41641,-9.8817 9.88171,-9.8817 5.4377,0 9.8817,4.41641 9.8817,9.8817 0,5.4653 -4.4164,9.88171 -9.8817,9.88171 -5.4653,-0.0276 -9.88171,-4.44401 -9.88171,-9.88171 z"
         inkscape:connector-curvature="0"
         style="fill:#ffffff;fill-opacity:1;display:inline;enable-background:new" />
      <path
         style="fill:#000000;fill-opacity:1;display:inline;enable-background:new;opacity:0.2"
         inkscape:connector-curvature="0"
         d="m 320.04928,235.92094 c 0,-1.35955 -0.27929,-2.64533 -0.75883,-3.79937 l -0.20024,-0.4848 h -4.25781 v 1.57034 h 3.19862 c 0.28983,0.83786 0.45846,1.75476 0.45846,2.71383 0,1.212 -0.25295,2.35023 -0.70085,3.35671 -0.49534,0.0105 -0.98014,0.25294 -1.26997,0.70086 -1.08553,1.61776 -2.71383,2.58209 -4.50548,2.58209 -1.79166,0 -3.41996,-0.96433 -4.50549,-2.58209 -0.29509,-0.44265 -0.7799,-0.69032 -1.27524,-0.70086 -0.44791,-1.00648 -0.70085,-2.14471 -0.70085,-3.35671 0,-0.95907 0.16336,-1.8707 0.45846,-2.71383 h 2.79814 v -1.57034 h -3.87314 l -0.20024,0.4848 c -0.4848,1.15404 -0.76409,2.43982 -0.76409,3.79937 0,1.48075 0.32144,2.88245 0.89583,4.1208 -0.30037,0.50061 -0.31091,1.15404 0.0369,1.67573 l 0,0 c 1.22253,1.84962 3.07217,3.24078 5.23269,3.7572 0,0.0685 0,0.13701 0,0.20552 -0.005,0.72193 0.058,1.53871 0.38995,2.38184 0.33197,0.84313 0.87475,1.63884 1.68626,2.57682 0.3109,0.35833 0.74828,0.54277 1.18565,0.54277 0.11593,0 0.23186,-0.0158 0.34252,-0.0422 0.17916,0.1897 0.37414,0.38468 0.57965,0.59546 1.00649,1.00122 1.47021,2.12891 1.46494,2.98785 -0.005,0.61127 -0.20024,1.08026 -0.60072,1.43859 -0.40049,0.35833 -1.06973,0.63235 -2.1131,0.63235 -0.90636,0.005 -1.66518,-0.50061 -2.22903,-1.08026 -0.0685,-0.0685 -0.13174,-0.14228 -0.19498,-0.21605 0.49534,-0.59546 0.79571,-1.36482 0.79571,-2.20268 0,-1.90232 -1.54926,-3.45684 -3.45684,-3.45684 -1.90759,0 -3.45157,1.54925 -3.45157,3.45684 0,1.90758 1.54925,3.45157 3.45157,3.45157 0.50061,0 0.98014,-0.1054 1.41224,-0.30037 0.10012,0.11593 0.20025,0.23186 0.31618,0.35306 0.71666,0.74301 1.84435,1.5598 3.35671,1.56506 h 0.0105 c 1.31213,0 2.39239,-0.35832 3.15121,-1.03283 0.75882,-0.66924 1.13296,-1.63357 1.12769,-2.61371 -0.005,-1.39644 -0.69032,-2.85611 -1.9234,-4.09973 -0.1897,-0.1897 -0.36887,-0.36887 -0.5375,-0.54276 0.15809,-0.50061 0.058,-1.06973 -0.3109,-1.49656 -0.69031,-0.79571 -0.99595,-1.30686 -1.13296,-1.66519 -0.13701,-0.35833 -0.17389,-0.64288 -0.17389,-1.23835 0,-0.0264 0,-0.0527 0,-0.079 2.42927,-0.38468 4.52129,-1.85489 5.86503,-3.88367 0.34779,-0.52169 0.33725,-1.17512 0.0369,-1.67573 0.56911,-1.23835 0.88529,-2.63478 0.88529,-4.11553 z m -13.9591,17.37905 c 0,-1.04338 0.84313,-1.88651 1.88651,-1.88651 1.0381,0 1.8865,0.84313 1.8865,1.88651 0,1.04337 -0.84313,1.88651 -1.8865,1.88651 -1.04338,-0.005 -1.88651,-0.84841 -1.88651,-1.88651 z"
         id="path4615" />
      <path
         id="path3683-9"
         d="m 320.04928,234.92053 c 0,-1.35955 -0.27929,-2.64533 -0.75883,-3.79937 l -0.20024,-0.4848 h -4.25781 v 1.57034 h 3.19862 c 0.28983,0.83786 0.45846,1.75476 0.45846,2.71383 0,1.212 -0.25295,2.35023 -0.70085,3.35671 -0.49534,0.0105 -0.98014,0.25294 -1.26997,0.70086 -1.08553,1.61776 -2.71383,2.58209 -4.50548,2.58209 -1.79166,0 -3.41996,-0.96433 -4.50549,-2.58209 -0.29509,-0.44265 -0.7799,-0.69032 -1.27524,-0.70086 -0.44791,-1.00648 -0.70085,-2.14471 -0.70085,-3.35671 0,-0.95907 0.16336,-1.8707 0.45846,-2.71383 h 2.79814 v -1.57034 h -3.87314 l -0.20024,0.4848 c -0.4848,1.15404 -0.76409,2.43982 -0.76409,3.79937 0,1.48075 0.32144,2.88245 0.89583,4.1208 -0.30037,0.50061 -0.31091,1.15404 0.0369,1.67573 l 0,0 c 1.22253,1.84962 3.07217,3.24078 5.23269,3.7572 0,0.0685 0,0.13701 0,0.20552 -0.005,0.72193 0.058,1.53871 0.38995,2.38184 0.33197,0.84313 0.87475,1.63884 1.68626,2.57682 0.3109,0.35833 0.74828,0.54277 1.18565,0.54277 0.11593,0 0.23186,-0.0158 0.34252,-0.0422 0.17916,0.1897 0.37414,0.38468 0.57965,0.59546 1.00649,1.00122 1.47021,2.12891 1.46494,2.98785 -0.005,0.61127 -0.20024,1.08026 -0.60072,1.43859 -0.40049,0.35833 -1.06973,0.63235 -2.1131,0.63235 -0.90636,0.005 -1.66518,-0.50061 -2.22903,-1.08026 -0.0685,-0.0685 -0.13174,-0.14228 -0.19498,-0.21605 0.49534,-0.59546 0.79571,-1.36482 0.79571,-2.20268 0,-1.90232 -1.54926,-3.45684 -3.45684,-3.45684 -1.90759,0 -3.45157,1.54925 -3.45157,3.45684 0,1.90758 1.54925,3.45157 3.45157,3.45157 0.50061,0 0.98014,-0.1054 1.41224,-0.30037 0.10012,0.11593 0.20025,0.23186 0.31618,0.35306 0.71666,0.74301 1.84435,1.5598 3.35671,1.56506 h 0.0105 c 1.31213,0 2.39239,-0.35832 3.15121,-1.03283 0.75882,-0.66924 1.13296,-1.63357 1.12769,-2.61371 -0.005,-1.39644 -0.69032,-2.85611 -1.9234,-4.09973 -0.1897,-0.1897 -0.36887,-0.36887 -0.5375,-0.54276 0.15809,-0.50061 0.058,-1.06973 -0.3109,-1.49656 -0.69031,-0.79571 -0.99595,-1.30686 -1.13296,-1.66519 -0.13701,-0.35833 -0.17389,-0.64288 -0.17389,-1.23835 0,-0.0264 0,-0.0527 0,-0.079 2.42927,-0.38468 4.52129,-1.85489 5.86503,-3.88367 0.34779,-0.52169 0.33725,-1.17512 0.0369,-1.67573 0.56911,-1.23835 0.88529,-2.63478 0.88529,-4.11553 z m -13.9591,17.37905 c 0,-1.04338 0.84313,-1.88651 1.88651,-1.88651 1.0381,0 1.8865,0.84313 1.8865,1.88651 0,1.04337 -0.84313,1.88651 -1.8865,1.88651 -1.04338,-0.005 -1.88651,-0.84841 -1.88651,-1.88651 z"
         inkscape:connector-curvature="0"
         style="fill:#ffffff;fill-opacity:1;display:inline;enable-background:new" />
      <path
         id="path4617"
         d="m 437.74924,62.51507 c 0,-0.971107 -0.19949,-1.889519 -0.54201,-2.71383 l -0.14303,-0.346286 h -3.0413 v 1.121666 h 2.28474 c 0.20702,0.598473 0.32746,1.253405 0.32746,1.93845 0,0.865715 -0.18067,1.678736 -0.5006,2.397656 -0.35382,0.0075 -0.70011,0.180671 -0.90712,0.500608 -0.77538,1.155543 -1.93845,1.844351 -3.21821,1.844351 -1.27975,0 -2.44282,-0.688808 -3.2182,-1.844351 -0.21078,-0.316174 -0.55707,-0.493081 -0.91089,-0.500608 -0.31993,-0.71892 -0.5006,-1.531941 -0.5006,-2.397656 0,-0.685045 0.11668,-1.336212 0.32746,-1.93845 h 1.99868 v -1.121666 h -2.76653 l -0.14303,0.346286 c -0.34629,0.824311 -0.54578,1.742723 -0.54578,2.71383 0,1.057678 0.2296,2.058897 0.63988,2.943434 -0.21455,0.357576 -0.22208,0.824311 0.0263,1.196945 l 0,0 c 0.87324,1.321156 2.1944,2.314848 3.73763,2.683718 0,0.04893 0,0.09786 0,0.146796 -0.004,0.515665 0.0414,1.099082 0.27853,1.701319 0.23714,0.602237 0.62483,1.170598 1.20448,1.840586 0.22207,0.255951 0.53448,0.38769 0.84689,0.38769 0.0828,0 0.16562,-0.01129 0.24466,-0.03011 0.12798,0.135503 0.26725,0.27477 0.41404,0.42533 0.71892,0.715155 1.05015,1.520647 1.04639,2.134178 -0.004,0.436621 -0.14304,0.771614 -0.4291,1.027566 -0.28606,0.25595 -0.76409,0.451677 -1.50935,0.451677 -0.64741,0.0038 -1.18942,-0.357578 -1.59217,-0.771616 -0.0489,-0.04893 -0.0941,-0.101628 -0.13926,-0.154323 0.35381,-0.425331 0.56836,-0.974872 0.56836,-1.573345 0,-1.358797 -1.10661,-2.46917 -2.46917,-2.46917 -1.36256,0 -2.46541,1.10661 -2.46541,2.46917 0,1.362562 1.10661,2.465409 2.46541,2.465409 0.35757,0 0.7001,-0.07528 1.00874,-0.214548 0.0715,0.08281 0.14303,0.165615 0.22584,0.252187 0.5119,0.530722 1.31739,1.114138 2.39766,1.117902 h 0.008 c 0.93724,0 1.70885,-0.25595 2.25087,-0.73774 0.54201,-0.478026 0.80925,-1.166835 0.80549,-1.866935 -0.004,-0.997455 -0.49308,-2.040077 -1.37386,-2.928377 -0.1355,-0.135503 -0.26347,-0.263479 -0.38392,-0.38769 0.11292,-0.357578 0.0414,-0.764087 -0.22208,-1.06897 -0.49308,-0.568361 -0.71139,-0.933467 -0.80925,-1.189417 -0.0979,-0.255952 -0.12421,-0.459206 -0.12421,-0.884537 0,-0.01882 0,-0.03764 0,-0.05646 1.73519,-0.274771 3.22949,-1.324921 4.18931,-2.774054 0.24842,-0.372634 0.24089,-0.839368 0.0264,-1.196946 0.40651,-0.884535 0.63234,-1.881991 0.63234,-2.939669 z m -9.97078,12.413608 c 0,-0.745267 0.60224,-1.347505 1.3475,-1.347505 0.74151,0 1.34751,0.602238 1.34751,1.347505 0,0.745268 -0.60224,1.347506 -1.34751,1.347506 -0.74526,-0.0038 -1.3475,-0.606001 -1.3475,-1.347506 z"
         inkscape:connector-curvature="0"
         style="fill:#000000;fill-opacity:1;display:inline;enable-background:new;opacity:0.2" />
      <path
         style="fill:#ffffff;fill-opacity:1;display:inline;enable-background:new"
         inkscape:connector-curvature="0"
         d="m 437.74924,61.51466 c 0,-0.971107 -0.19949,-1.889519 -0.54201,-2.71383 l -0.14303,-0.346286 h -3.0413 v 1.121666 h 2.28474 c 0.20702,0.598473 0.32746,1.253405 0.32746,1.93845 0,0.865715 -0.18067,1.678736 -0.5006,2.397656 -0.35382,0.0075 -0.70011,0.180671 -0.90712,0.500608 -0.77538,1.155543 -1.93845,1.844351 -3.21821,1.844351 -1.27975,0 -2.44282,-0.688808 -3.2182,-1.844351 -0.21078,-0.316174 -0.55707,-0.493081 -0.91089,-0.500608 -0.31993,-0.71892 -0.5006,-1.531941 -0.5006,-2.397656 0,-0.685045 0.11668,-1.336212 0.32746,-1.93845 h 1.99868 v -1.121666 h -2.76653 l -0.14303,0.346286 c -0.34629,0.824311 -0.54578,1.742723 -0.54578,2.71383 0,1.057678 0.2296,2.058897 0.63988,2.943434 -0.21455,0.357576 -0.22208,0.824311 0.0263,1.196945 l 0,0 c 0.87324,1.321156 2.1944,2.314848 3.73763,2.683718 0,0.04893 0,0.09786 0,0.146796 -0.004,0.515665 0.0414,1.099082 0.27853,1.701319 0.23714,0.602237 0.62483,1.170598 1.20448,1.840586 0.22207,0.255951 0.53448,0.38769 0.84689,0.38769 0.0828,0 0.16562,-0.01129 0.24466,-0.03011 0.12798,0.135503 0.26725,0.27477 0.41404,0.42533 0.71892,0.715155 1.05015,1.520647 1.04639,2.134178 -0.004,0.436621 -0.14304,0.771614 -0.4291,1.027566 -0.28606,0.25595 -0.76409,0.451677 -1.50935,0.451677 -0.64741,0.0038 -1.18942,-0.357578 -1.59217,-0.771616 -0.0489,-0.04893 -0.0941,-0.101628 -0.13926,-0.154323 0.35381,-0.425331 0.56836,-0.974872 0.56836,-1.573345 0,-1.358797 -1.10661,-2.46917 -2.46917,-2.46917 -1.36256,0 -2.46541,1.10661 -2.46541,2.46917 0,1.362562 1.10661,2.465409 2.46541,2.465409 0.35757,0 0.7001,-0.07528 1.00874,-0.214548 0.0715,0.08281 0.14303,0.165615 0.22584,0.252187 0.5119,0.530722 1.31739,1.114138 2.39766,1.117902 h 0.008 c 0.93724,0 1.70885,-0.25595 2.25087,-0.73774 0.54201,-0.478026 0.80925,-1.166835 0.80549,-1.866935 -0.004,-0.997455 -0.49308,-2.040077 -1.37386,-2.928377 -0.1355,-0.135503 -0.26347,-0.263479 -0.38392,-0.38769 0.11292,-0.357578 0.0414,-0.764087 -0.22208,-1.06897 -0.49308,-0.568361 -0.71139,-0.933467 -0.80925,-1.189417 -0.0979,-0.255952 -0.12421,-0.459206 -0.12421,-0.884537 0,-0.01882 0,-0.03764 0,-0.05646 1.73519,-0.274771 3.22949,-1.324921 4.18931,-2.774054 0.24842,-0.372634 0.24089,-0.839368 0.0264,-1.196946 0.40651,-0.884535 0.63234,-1.881991 0.63234,-2.939669 z m -9.97078,12.413608 c 0,-0.745267 0.60224,-1.347505 1.3475,-1.347505 0.74151,0 1.34751,0.602238 1.34751,1.347505 0,0.745268 -0.60224,1.347506 -1.34751,1.347506 -0.74526,-0.0038 -1.3475,-0.606001 -1.3475,-1.347506 z"
         id="path4541" />
      <path
         id="path4619"
         d="m 432.21607,108.2445 c 0,-0.71215 -0.1463,-1.38565 -0.39747,-1.99014 l -0.1049,-0.25395 h -2.23028 v 0.82256 h 1.67548 c 0.15181,0.43888 0.24014,0.91916 0.24014,1.42153 0,0.63486 -0.1325,1.23107 -0.36712,1.75828 -0.25947,0.005 -0.51341,0.13249 -0.66521,0.36711 -0.56861,0.8474 -1.42154,1.35253 -2.36003,1.35253 -0.93848,0 -1.7914,-0.50513 -2.36,-1.35253 -0.15459,-0.23186 -0.40853,-0.36159 -0.668,-0.36711 -0.23462,-0.52721 -0.36711,-1.12342 -0.36711,-1.75828 0,-0.50237 0.0856,-0.97989 0.24014,-1.42153 h 1.4657 v -0.82256 h -2.02879 l -0.10489,0.25395 c -0.25394,0.60449 -0.40023,1.27799 -0.40023,1.99014 0,0.77563 0.16837,1.50986 0.46924,2.15852 -0.15733,0.26222 -0.16286,0.60449 0.0193,0.87776 l 0,0 c 0.64038,0.96884 1.60923,1.69755 2.74093,1.96806 0,0.0359 0,0.0718 0,0.10765 -0.003,0.37815 0.0304,0.80599 0.20426,1.24763 0.1739,0.44164 0.4582,0.85844 0.88328,1.34976 0.16286,0.1877 0.39196,0.28431 0.62106,0.28431 0.0607,0 0.12145,-0.008 0.17941,-0.0221 0.0938,0.0994 0.19598,0.2015 0.30363,0.31191 0.52721,0.52445 0.77011,1.11514 0.76735,1.56506 -0.003,0.32019 -0.10489,0.56585 -0.31467,0.75355 -0.20978,0.1877 -0.56033,0.33123 -1.10686,0.33123 -0.47476,0.003 -0.87223,-0.26222 -1.16758,-0.56585 -0.0359,-0.0359 -0.069,-0.0745 -0.10212,-0.11317 0.25945,-0.31191 0.41678,-0.71491 0.41678,-1.15379 0,-0.99645 -0.81151,-1.81072 -1.81072,-1.81072 -0.99921,0 -1.80797,0.81151 -1.80797,1.81072 0,0.99921 0.81152,1.80797 1.80797,1.80797 0.26223,0 0.51342,-0.0552 0.73976,-0.15734 0.0524,0.0607 0.10489,0.12145 0.16561,0.18494 0.3754,0.3892 0.96609,0.81704 1.75828,0.8198 h 0.006 c 0.68731,0 1.25315,-0.1877 1.65062,-0.54101 0.39748,-0.35056 0.59346,-0.85568 0.59071,-1.36909 -0.003,-0.73147 -0.3616,-1.49606 -1.0075,-2.14748 -0.0994,-0.0994 -0.19322,-0.19321 -0.28154,-0.2843 0.0828,-0.26223 0.0304,-0.56033 -0.16285,-0.78391 -0.3616,-0.4168 -0.52169,-0.68455 -0.59346,-0.87224 -0.0718,-0.1877 -0.0911,-0.33675 -0.0911,-0.64866 0,-0.0138 0,-0.0276 0,-0.0414 1.27248,-0.2015 2.3683,-0.97161 3.07216,-2.03431 0.18218,-0.27326 0.17666,-0.61554 0.0193,-0.87776 0.2981,-0.64866 0.46372,-1.38013 0.46372,-2.15576 z m -7.31191,9.10331 c 0,-0.54653 0.44164,-0.98817 0.98817,-0.98817 0.54377,0 0.98818,0.44164 0.98818,0.98817 0,0.54653 -0.44164,0.98817 -0.98818,0.98817 -0.54653,-0.003 -0.98817,-0.4444 -0.98817,-0.98817 z"
         inkscape:connector-curvature="0"
         style="fill:#000000;fill-opacity:1;display:inline;enable-background:new;opacity:0.2" />
      <path
         style="fill:#ffffff;fill-opacity:1;display:inline;enable-background:new"
         inkscape:connector-curvature="0"
         d="m 432.21607,107.24409 c 0,-0.71215 -0.1463,-1.38565 -0.39747,-1.99014 L 431.7137,105 h -2.23028 v 0.82256 h 1.67548 c 0.15181,0.43888 0.24014,0.91916 0.24014,1.42153 0,0.63486 -0.1325,1.23107 -0.36712,1.75828 -0.25947,0.005 -0.51341,0.13249 -0.66521,0.36711 -0.56861,0.8474 -1.42154,1.35253 -2.36003,1.35253 -0.93848,0 -1.7914,-0.50513 -2.36,-1.35253 -0.15459,-0.23186 -0.40853,-0.36159 -0.668,-0.36711 -0.23462,-0.52721 -0.36711,-1.12342 -0.36711,-1.75828 0,-0.50237 0.0856,-0.97989 0.24014,-1.42153 h 1.4657 V 105 h -2.02879 l -0.10489,0.25395 c -0.25394,0.60449 -0.40023,1.27799 -0.40023,1.99014 0,0.77563 0.16837,1.50986 0.46924,2.15852 -0.15733,0.26222 -0.16286,0.60449 0.0193,0.87776 l 0,0 c 0.64038,0.96884 1.60923,1.69755 2.74093,1.96806 0,0.0359 0,0.0718 0,0.10765 -0.003,0.37815 0.0304,0.80599 0.20426,1.24763 0.1739,0.44164 0.4582,0.85844 0.88328,1.34976 0.16286,0.1877 0.39196,0.28431 0.62106,0.28431 0.0607,0 0.12145,-0.008 0.17941,-0.0221 0.0938,0.0994 0.19598,0.2015 0.30363,0.31191 0.52721,0.52445 0.77011,1.11514 0.76735,1.56506 -0.003,0.32019 -0.10489,0.56585 -0.31467,0.75355 -0.20978,0.1877 -0.56033,0.33123 -1.10686,0.33123 -0.47476,0.003 -0.87223,-0.26222 -1.16758,-0.56585 -0.0359,-0.0359 -0.069,-0.0745 -0.10212,-0.11317 0.25945,-0.31191 0.41678,-0.71491 0.41678,-1.15379 0,-0.99645 -0.81151,-1.81072 -1.81072,-1.81072 -0.99921,0 -1.80797,0.81151 -1.80797,1.81072 0,0.99921 0.81152,1.80797 1.80797,1.80797 0.26223,0 0.51342,-0.0552 0.73976,-0.15734 0.0524,0.0607 0.10489,0.12145 0.16561,0.18494 0.3754,0.3892 0.96609,0.81704 1.75828,0.8198 h 0.006 c 0.68731,0 1.25315,-0.1877 1.65062,-0.54101 0.39748,-0.35056 0.59346,-0.85568 0.59071,-1.36909 -0.003,-0.73147 -0.3616,-1.49606 -1.0075,-2.14748 -0.0994,-0.0994 -0.19322,-0.19321 -0.28154,-0.2843 0.0828,-0.26223 0.0304,-0.56033 -0.16285,-0.78391 -0.3616,-0.4168 -0.52169,-0.68455 -0.59346,-0.87224 -0.0718,-0.1877 -0.0911,-0.33675 -0.0911,-0.64866 0,-0.0138 0,-0.0276 0,-0.0414 1.27248,-0.2015 2.3683,-0.97161 3.07216,-2.03431 0.18218,-0.27326 0.17666,-0.61554 0.0193,-0.87776 0.2981,-0.64866 0.46372,-1.38013 0.46372,-2.15576 z m -7.31191,9.10331 c 0,-0.54653 0.44164,-0.98817 0.98817,-0.98817 0.54377,0 0.98818,0.44164 0.98818,0.98817 0,0.54653 -0.44164,0.98817 -0.98818,0.98817 -0.54653,-0.003 -0.98817,-0.4444 -0.98817,-0.98817 z"
         id="path4549" />
      <path
         style="fill:#000000;fill-opacity:1;display:inline;enable-background:new;opacity:0.2"
         inkscape:connector-curvature="0"
         d="m 427.0664,145.54156 c 0,-0.51792 -0.10639,-1.00774 -0.28907,-1.44738 l -0.0763,-0.18468 h -1.62202 v 0.59822 h 1.21852 c 0.11041,0.31919 0.17465,0.66848 0.17465,1.03384 0,0.46172 -0.0964,0.89533 -0.26699,1.27875 -0.1887,0.004 -0.37339,0.0964 -0.4838,0.26699 -0.41353,0.61629 -1.03384,0.98366 -1.71637,0.98366 -0.68254,0 -1.30284,-0.36737 -1.71638,-0.98366 -0.11241,-0.16862 -0.2971,-0.26298 -0.4858,-0.26699 -0.17063,-0.38342 -0.26699,-0.81703 -0.26699,-1.27875 0,-0.36536 0.0622,-0.71265 0.17465,-1.03384 h 1.06596 v -0.59822 h -1.47548 l -0.0763,0.18468 c -0.18468,0.43964 -0.29108,0.92946 -0.29108,1.44738 0,0.5641 0.12246,1.09808 0.34127,1.56983 -0.11443,0.19071 -0.11844,0.43963 0.014,0.63837 l 0,0 c 0.46573,0.70462 1.17035,1.23459 1.99341,1.43132 0,0.0261 0,0.0522 0,0.0783 -0.002,0.27502 0.0221,0.58618 0.14855,0.90737 0.12647,0.32119 0.33324,0.62432 0.64238,0.98165 0.11844,0.1365 0.28506,0.20676 0.45168,0.20676 0.0442,0 0.0883,-0.006 0.13049,-0.0161 0.0683,0.0723 0.14253,0.14655 0.22082,0.22685 0.38342,0.38141 0.56008,0.81101 0.55807,1.13822 -0.002,0.23287 -0.0763,0.41153 -0.22885,0.54804 -0.15257,0.13651 -0.40752,0.24089 -0.80499,0.24089 -0.34528,0.002 -0.63436,-0.1907 -0.84916,-0.41152 -0.0261,-0.0261 -0.0502,-0.0542 -0.0743,-0.0823 0.1887,-0.22685 0.30313,-0.51994 0.30313,-0.83912 0,-0.72469 -0.5902,-1.31689 -1.3169,-1.31689 -0.7267,0 -1.31488,0.59019 -1.31488,1.31689 0,0.7267 0.59019,1.31488 1.31488,1.31488 0.19071,0 0.37339,-0.0401 0.538,-0.11442 0.0381,0.0442 0.0763,0.0883 0.12045,0.1345 0.27301,0.28305 0.70261,0.5942 1.27875,0.59621 h 0.004 c 0.49986,0 0.91139,-0.13651 1.20046,-0.39346 0.28908,-0.25495 0.43161,-0.62231 0.4296,-0.9957 -0.002,-0.53197 -0.26298,-1.08804 -0.73272,-1.5618 -0.0723,-0.0723 -0.14053,-0.14052 -0.20476,-0.20677 0.0602,-0.19071 0.0221,-0.40751 -0.11844,-0.57012 -0.26298,-0.30312 -0.37941,-0.49784 -0.43161,-0.63435 -0.0522,-0.13651 -0.0662,-0.24491 -0.0662,-0.47175 0,-0.01 0,-0.0201 0,-0.0301 0.92543,-0.14655 1.72239,-0.70663 2.2343,-1.4795 0.13249,-0.19874 0.12847,-0.44766 0.014,-0.63837 0.2168,-0.47175 0.33725,-1.00373 0.33725,-1.56782 z m -5.31775,6.62059 c 0,-0.39747 0.32119,-0.71867 0.71867,-0.71867 0.39547,0 0.71867,0.3212 0.71867,0.71867 0,0.39748 -0.32119,0.71867 -0.71867,0.71867 -0.39748,-0.002 -0.71867,-0.3232 -0.71867,-0.71867 z"
         id="path4621" />
      <path
         id="path4555"
         d="m 427.0664,144.54115 c 0,-0.51792 -0.10639,-1.00774 -0.28907,-1.44738 l -0.0763,-0.18468 h -1.62202 v 0.59822 h 1.21852 c 0.11041,0.31919 0.17465,0.66848 0.17465,1.03384 0,0.46172 -0.0964,0.89533 -0.26699,1.27875 -0.1887,0.004 -0.37339,0.0964 -0.4838,0.26699 -0.41353,0.61629 -1.03384,0.98366 -1.71637,0.98366 -0.68254,0 -1.30284,-0.36737 -1.71638,-0.98366 -0.11241,-0.16862 -0.2971,-0.26298 -0.4858,-0.26699 -0.17063,-0.38342 -0.26699,-0.81703 -0.26699,-1.27875 0,-0.36536 0.0622,-0.71265 0.17465,-1.03384 h 1.06596 v -0.59822 h -1.47548 l -0.0763,0.18468 c -0.18468,0.43964 -0.29108,0.92946 -0.29108,1.44738 0,0.5641 0.12246,1.09808 0.34127,1.56983 -0.11443,0.19071 -0.11844,0.43963 0.014,0.63837 l 0,0 c 0.46573,0.70462 1.17035,1.23459 1.99341,1.43132 0,0.0261 0,0.0522 0,0.0783 -0.002,0.27502 0.0221,0.58618 0.14855,0.90737 0.12647,0.32119 0.33324,0.62432 0.64238,0.98165 0.11844,0.1365 0.28506,0.20676 0.45168,0.20676 0.0442,0 0.0883,-0.006 0.13049,-0.0161 0.0683,0.0723 0.14253,0.14655 0.22082,0.22685 0.38342,0.38141 0.56008,0.81101 0.55807,1.13822 -0.002,0.23287 -0.0763,0.41153 -0.22885,0.54804 -0.15257,0.13651 -0.40752,0.24089 -0.80499,0.24089 -0.34528,0.002 -0.63436,-0.1907 -0.84916,-0.41152 -0.0261,-0.0261 -0.0502,-0.0542 -0.0743,-0.0823 0.1887,-0.22685 0.30313,-0.51994 0.30313,-0.83912 0,-0.72469 -0.5902,-1.31689 -1.3169,-1.31689 -0.7267,0 -1.31488,0.59019 -1.31488,1.31689 0,0.7267 0.59019,1.31488 1.31488,1.31488 0.19071,0 0.37339,-0.0401 0.538,-0.11442 0.0381,0.0442 0.0763,0.0883 0.12045,0.1345 0.27301,0.28305 0.70261,0.5942 1.27875,0.59621 h 0.004 c 0.49986,0 0.91139,-0.13651 1.20046,-0.39346 0.28908,-0.25495 0.43161,-0.62231 0.4296,-0.9957 -0.002,-0.53197 -0.26298,-1.08804 -0.73272,-1.5618 -0.0723,-0.0723 -0.14053,-0.14052 -0.20476,-0.20677 0.0602,-0.19071 0.0221,-0.40751 -0.11844,-0.57012 -0.26298,-0.30312 -0.37941,-0.49784 -0.43161,-0.63435 -0.0522,-0.13651 -0.0662,-0.24491 -0.0662,-0.47175 0,-0.01 0,-0.0201 0,-0.0301 0.92543,-0.14655 1.72239,-0.70663 2.2343,-1.4795 0.13249,-0.19874 0.12847,-0.44766 0.014,-0.63837 0.2168,-0.47175 0.33725,-1.00373 0.33725,-1.56782 z m -5.31775,6.62059 c 0,-0.39747 0.32119,-0.71867 0.71867,-0.71867 0.39547,0 0.71867,0.3212 0.71867,0.71867 0,0.39748 -0.32119,0.71867 -0.71867,0.71867 -0.39748,-0.002 -0.71867,-0.3232 -0.71867,-0.71867 z"
         inkscape:connector-curvature="0"
         style="fill:#ffffff;fill-opacity:1;display:inline;enable-background:new" />
      <path
         style="fill:#000000;fill-opacity:1;display:inline;enable-background:new;opacity:0.2"
         inkscape:connector-curvature="0"
         d="m 352.86514,57.976748 c 0,-2.84858 -0.58517,-5.54258 -1.5899,-7.96056 l -0.41956,-1.01578 h -8.92114 v 3.29022 h 6.70189 c 0.60726,1.75552 0.96057,3.67666 0.96057,5.68612 0,2.53944 -0.52997,4.9243 -1.46845,7.03313 -1.03786,0.0221 -2.05363,0.52997 -2.66089,1.46845 -2.27445,3.38959 -5.68612,5.4101 -9.44006,5.4101 -3.75395,0 -7.16562,-2.02051 -9.44007,-5.4101 -0.61829,-0.92744 -1.63406,-1.44637 -2.67192,-1.46845 -0.93848,-2.10883 -1.46845,-4.49369 -1.46845,-7.03313 0,-2.00946 0.34227,-3.91955 0.96057,-5.68612 h 5.86277 v -3.29022 h -8.11514 l -0.41956,1.01578 c -1.01577,2.41798 -1.60095,5.11198 -1.60095,7.96056 0,3.10253 0.6735,6.03944 1.87698,8.63408 -0.62934,1.04889 -0.65142,2.41798 0.0773,3.51104 l 0,0 c 2.56151,3.87539 6.4369,6.790216 10.96372,7.872236 0,0.143532 0,0.287066 0,0.430602 -0.011,1.512616 0.12145,3.223972 0.81704,4.990536 0.69558,1.76656 1.8328,3.433752 3.53312,5.399052 0.65142,0.750788 1.56782,1.137224 2.48422,1.137224 0.24291,0 0.48581,-0.03312 0.71767,-0.08833 0.37539,0.397476 0.78391,0.805992 1.21451,1.247636 2.10884,2.097788 3.08044,4.460564 3.0694,6.260252 -0.011,1.280756 -0.41956,2.263404 -1.25867,3.014194 -0.83912,0.75079 -2.24133,1.32492 -4.42745,1.32492 -1.89905,0.011 -3.48896,-1.04889 -4.67034,-2.26341 -0.14354,-0.14353 -0.27603,-0.2981 -0.40852,-0.452676 1.03785,-1.247636 1.66719,-2.859624 1.66719,-4.615144 0,-3.985804 -3.24605,-7.2429 -7.2429,-7.2429 -3.99685,0 -7.23186,3.246056 -7.23186,7.2429 0,3.996848 3.24605,7.23186 7.23186,7.23186 1.04889,0 2.05363,-0.22082 2.95899,-0.62934 0.20978,0.24291 0.41956,0.48581 0.66246,0.73975 1.50158,1.55679 3.86435,3.26814 7.03312,3.27918 h 0.0221 c 2.74922,0 5.01262,-0.75079 6.60253,-2.16403 1.58991,-1.40222 2.37382,-3.42272 2.36277,-5.476348 -0.011,-2.925868 -1.44637,-5.984224 -4.02996,-8.589904 -0.39748,-0.397476 -0.77288,-0.772872 -1.12619,-1.137224 0.33123,-1.048896 0.12145,-2.241324 -0.65141,-3.135648 -1.44638,-1.667192 -2.08676,-2.738168 -2.37382,-3.488956 -0.28707,-0.750792 -0.36436,-1.347004 -0.36436,-2.59464 0,-0.0552 0,-0.110408 0,-0.165614 5.08991,-0.805996 9.47319,-3.88644 12.28865,-8.13722 0.7287,-1.09306 0.70662,-2.46215 0.0773,-3.51105 1.19243,-2.59463 1.85489,-5.5205 1.85489,-8.62303 z m -29.24763,36.413254 c 0,-2.186116 1.76656,-3.95268 3.95268,-3.95268 2.17508,0 3.95268,1.766564 3.95268,3.95268 0,2.18612 -1.76656,3.952684 -3.95268,3.952684 -2.18612,-0.01104 -3.95268,-1.777604 -3.95268,-3.952684 z"
         id="path4623" />
      <path
         id="path4565"
         d="m 352.86514,56.976338 c 0,-2.84858 -0.58517,-5.54258 -1.5899,-7.96056 l -0.41956,-1.01578 h -8.92114 v 3.29022 h 6.70189 c 0.60726,1.75552 0.96057,3.67666 0.96057,5.68612 0,2.53944 -0.52997,4.9243 -1.46845,7.03313 -1.03786,0.0221 -2.05363,0.52997 -2.66089,1.46845 -2.27445,3.38959 -5.68612,5.4101 -9.44006,5.4101 -3.75395,0 -7.16562,-2.02051 -9.44007,-5.4101 -0.61829,-0.92744 -1.63406,-1.44637 -2.67192,-1.46845 -0.93848,-2.10883 -1.46845,-4.49369 -1.46845,-7.03313 0,-2.00946 0.34227,-3.91955 0.96057,-5.68612 h 5.86277 v -3.29022 h -8.11514 l -0.41956,1.01578 c -1.01577,2.41798 -1.60095,5.11198 -1.60095,7.96056 0,3.10253 0.6735,6.03944 1.87698,8.63408 -0.62934,1.04889 -0.65142,2.41798 0.0773,3.51104 l 0,0 c 2.56151,3.87539 6.4369,6.790216 10.96372,7.872236 0,0.143532 0,0.287066 0,0.430602 -0.011,1.512616 0.12145,3.223972 0.81704,4.990536 0.69558,1.76656 1.8328,3.433752 3.53312,5.399052 0.65142,0.750788 1.56782,1.137224 2.48422,1.137224 0.24291,0 0.48581,-0.03312 0.71767,-0.08833 0.37539,0.397476 0.78391,0.805992 1.21451,1.247636 2.10884,2.097788 3.08044,4.460564 3.0694,6.260252 -0.011,1.280756 -0.41956,2.263404 -1.25867,3.014196 -0.83912,0.750788 -2.24133,1.324918 -4.42745,1.324918 -1.89905,0.011 -3.48896,-1.048894 -4.67034,-2.263406 -0.14354,-0.143532 -0.27603,-0.298108 -0.40852,-0.45268 1.03785,-1.247636 1.66719,-2.859624 1.66719,-4.615144 0,-3.985804 -3.24605,-7.2429 -7.2429,-7.2429 -3.99685,0 -7.23186,3.246056 -7.23186,7.2429 0,3.996848 3.24605,7.23186 7.23186,7.23186 1.04889,0 2.05363,-0.22082 2.95899,-0.629336 0.20978,0.242906 0.41956,0.485806 0.66246,0.739746 1.50158,1.55679 3.86435,3.26814 7.03312,3.27918 h 0.0221 c 2.74922,0 5.01262,-0.75079 6.60253,-2.16403 1.58991,-1.40222 2.37382,-3.42272 2.36277,-5.476348 -0.011,-2.925868 -1.44637,-5.984224 -4.02996,-8.589904 -0.39748,-0.397476 -0.77288,-0.772872 -1.12619,-1.137224 0.33123,-1.048896 0.12145,-2.241324 -0.65141,-3.135648 -1.44638,-1.667192 -2.08676,-2.738168 -2.37382,-3.488956 -0.28707,-0.750792 -0.36436,-1.347004 -0.36436,-2.59464 0,-0.0552 0,-0.110408 0,-0.165614 5.08991,-0.805996 9.47319,-3.88644 12.28865,-8.13722 0.7287,-1.09306 0.70662,-2.46215 0.0773,-3.51105 1.19243,-2.59463 1.85489,-5.5205 1.85489,-8.62303 z m -29.24763,36.413254 c 0,-2.186116 1.76656,-3.95268 3.95268,-3.95268 2.17508,0 3.95268,1.766564 3.95268,3.95268 0,2.18612 -1.76656,3.952684 -3.95268,3.952684 -2.18612,-0.01104 -3.95268,-1.777604 -3.95268,-3.952684 z"
         inkscape:connector-curvature="0"
         style="fill:#ffffff;fill-opacity:1;display:inline;enable-background:new" />
      <path
         id="path4625"
         d="m 331.49894,161.52973 c 0,-1.94221 -0.39898,-3.77903 -1.08403,-5.42766 l -0.28606,-0.69257 h -6.0826 v 2.24333 h 4.56948 c 0.41403,1.19695 0.65493,2.50681 0.65493,3.8769 0,1.73143 -0.36135,3.35747 -1.00122,4.79531 -0.70763,0.015 -1.4002,0.36135 -1.81424,1.00122 -1.55076,2.31109 -3.8769,3.6887 -6.43641,3.6887 -2.5595,0 -4.88564,-1.37761 -6.4364,-3.6887 -0.42157,-0.63235 -1.11414,-0.98616 -1.82177,-1.00122 -0.63988,-1.43784 -1.00122,-3.06388 -1.00122,-4.79531 0,-1.37009 0.23337,-2.67242 0.65493,-3.8769 h 3.99735 v -2.24333 h -5.53305 l -0.28606,0.69257 c -0.69258,1.64863 -1.09156,3.48545 -1.09156,5.42766 0,2.11536 0.45921,4.1178 1.27976,5.88687 -0.42909,0.71515 -0.44415,1.64862 0.0527,2.39389 l 0,0 c 1.74649,2.64231 4.3888,4.6297 7.47527,5.36744 0,0.0979 0,0.19572 0,0.29359 -0.008,1.03133 0.0828,2.19816 0.55707,3.40264 0.47426,1.20447 1.24964,2.34119 2.40895,3.68117 0.44415,0.5119 1.06897,0.77538 1.69379,0.77538 0.16561,0 0.33123,-0.0226 0.48932,-0.0602 0.25594,0.271 0.53448,0.54954 0.82807,0.85066 1.43784,1.43031 2.1003,3.04129 2.09277,4.26835 -0.008,0.87324 -0.28606,1.54323 -0.85818,2.05514 -0.57213,0.5119 -1.52818,0.90335 -3.01872,0.90335 -1.29481,0.007 -2.37883,-0.71516 -3.18432,-1.54323 -0.0979,-0.0979 -0.1882,-0.20326 -0.27854,-0.30865 0.70763,-0.85066 1.13672,-1.94974 1.13672,-3.14669 0,-2.71759 -2.21322,-4.93834 -4.93834,-4.93834 -2.72512,0 -4.93081,2.21322 -4.93081,4.93834 0,2.72513 2.21322,4.93082 4.93081,4.93082 0.71516,0 1.4002,-0.15056 2.0175,-0.4291 0.14303,0.16562 0.28606,0.33123 0.45167,0.50438 1.0238,1.06144 2.63479,2.22827 4.79531,2.2358 h 0.0151 c 1.87446,0 3.41769,-0.5119 4.50172,-1.47548 1.08403,-0.95605 1.61851,-2.33367 1.61098,-3.73387 -0.008,-1.99491 -0.98616,-4.08015 -2.7477,-5.85675 -0.27101,-0.27101 -0.52696,-0.52696 -0.76785,-0.77538 0.22584,-0.71516 0.0828,-1.52818 -0.44415,-2.13794 -0.98617,-1.13672 -1.42279,-1.86694 -1.61852,-2.37884 -0.19572,-0.5119 -0.24842,-0.91841 -0.24842,-1.76907 0,-0.0376 0,-0.0753 0,-0.11292 3.47039,-0.54954 6.45899,-2.64984 8.37862,-5.5481 0.49685,-0.74527 0.48179,-1.67874 0.0527,-2.3939 0.81302,-1.76907 1.2647,-3.76398 1.2647,-5.87934 z m -19.94157,24.82722 c 0,-1.49054 1.20447,-2.69501 2.69501,-2.69501 1.48301,0 2.69501,1.20447 2.69501,2.69501 0,1.49053 -1.20448,2.69501 -2.69501,2.69501 -1.49054,-0.007 -2.69501,-1.212 -2.69501,-2.69501 z"
         inkscape:connector-curvature="0"
         style="fill:#000000;fill-opacity:1;display:inline;enable-background:new;opacity:0.2" />
      <path
         style="fill:#ffffff;fill-opacity:1;display:inline;enable-background:new"
         inkscape:connector-curvature="0"
         d="m 331.49894,160.52932 c 0,-1.94221 -0.39898,-3.77903 -1.08403,-5.42766 l -0.28606,-0.69257 h -6.0826 v 2.24333 h 4.56948 c 0.41403,1.19695 0.65493,2.50681 0.65493,3.8769 0,1.73143 -0.36135,3.35747 -1.00122,4.79531 -0.70763,0.015 -1.4002,0.36135 -1.81424,1.00122 -1.55076,2.31109 -3.8769,3.6887 -6.43641,3.6887 -2.5595,0 -4.88564,-1.37761 -6.4364,-3.6887 -0.42157,-0.63235 -1.11414,-0.98616 -1.82177,-1.00122 -0.63988,-1.43784 -1.00122,-3.06388 -1.00122,-4.79531 0,-1.37009 0.23337,-2.67242 0.65493,-3.8769 h 3.99735 v -2.24333 h -5.53305 l -0.28606,0.69257 c -0.69258,1.64863 -1.09156,3.48545 -1.09156,5.42766 0,2.11536 0.45921,4.1178 1.27976,5.88687 -0.42909,0.71515 -0.44415,1.64862 0.0527,2.39389 l 0,0 c 1.74649,2.64231 4.3888,4.6297 7.47527,5.36744 0,0.0979 0,0.19572 0,0.29359 -0.008,1.03133 0.0828,2.19816 0.55707,3.40264 0.47426,1.20447 1.24964,2.34119 2.40895,3.68117 0.44415,0.5119 1.06897,0.77538 1.69379,0.77538 0.16561,0 0.33123,-0.0226 0.48932,-0.0602 0.25594,0.271 0.53448,0.54954 0.82807,0.85066 1.43784,1.43031 2.1003,3.04129 2.09277,4.26835 -0.008,0.87324 -0.28606,1.54323 -0.85818,2.05514 -0.57213,0.5119 -1.52818,0.90335 -3.01872,0.90335 -1.29481,0.007 -2.37883,-0.71516 -3.18432,-1.54323 -0.0979,-0.0979 -0.1882,-0.20326 -0.27854,-0.30865 0.70763,-0.85066 1.13672,-1.94974 1.13672,-3.14669 0,-2.71759 -2.21322,-4.93834 -4.93834,-4.93834 -2.72512,0 -4.93081,2.21322 -4.93081,4.93834 0,2.72513 2.21322,4.93082 4.93081,4.93082 0.71516,0 1.4002,-0.15056 2.0175,-0.4291 0.14303,0.16562 0.28606,0.33123 0.45167,0.50438 1.0238,1.06144 2.63479,2.22827 4.79531,2.2358 h 0.0151 c 1.87446,0 3.41769,-0.5119 4.50172,-1.47548 1.08403,-0.95605 1.61851,-2.33367 1.61098,-3.73387 -0.008,-1.99491 -0.98616,-4.08015 -2.7477,-5.85675 -0.27101,-0.27101 -0.52696,-0.52696 -0.76785,-0.77538 0.22584,-0.71516 0.0828,-1.52818 -0.44415,-2.13794 -0.98617,-1.13672 -1.42279,-1.86694 -1.61852,-2.37884 -0.19572,-0.5119 -0.24842,-0.91841 -0.24842,-1.76907 0,-0.0376 0,-0.0753 0,-0.11292 3.47039,-0.54954 6.45899,-2.64984 8.37862,-5.5481 0.49685,-0.74527 0.48179,-1.67874 0.0527,-2.3939 0.81302,-1.76907 1.2647,-3.76398 1.2647,-5.87934 z m -19.94157,24.82722 c 0,-1.49054 1.20447,-2.69501 2.69501,-2.69501 1.48301,0 2.69501,1.20447 2.69501,2.69501 0,1.49053 -1.20448,2.69501 -2.69501,2.69501 -1.49054,-0.007 -2.69501,-1.212 -2.69501,-2.69501 z"
         id="path4571" />
    </g>
    <g
       inkscape:groupmode="layer"
       id="layer5"
       inkscape:label="Highlights"
       style="display:inline">
      <rect
         ry="9"
         y="307"
         x="-265"
         height="42"
         width="42"
         id="rect4884"
         style="opacity:0.20;color:#bebebe;fill:none;stroke:#000000;stroke-width:2;stroke-miterlimit:4;stroke-opacity:1;stroke-dasharray:none;marker:none;visibility:visible;display:inline;overflow:visible;enable-background:accumulate"
         transform="matrix(0,1,1,0,-16,488)"
         clip-path="url(#clipPath4891)" />
      <rect
         style="opacity:0.20;color:#bebebe;fill:none;stroke:#000000;stroke-width:2;stroke-miterlimit:4;stroke-opacity:1;stroke-dasharray:none;marker:none;visibility:visible;display:inline;overflow:visible;enable-background:accumulate"
         id="rect5311"
         width="16"
         height="16"
         x="-228"
         y="304"
         ry="3"
         clip-path="url(#clipPath3855)"
         transform="matrix(0,-1,1,0,112,-72)" />
      <rect
         ry="50"
         y="46"
         x="34"
         height="220"
         width="220"
         id="rect3858"
         style="opacity:0.20;color:#bebebe;fill:none;stroke:#000000;stroke-width:2;stroke-miterlimit:4;stroke-opacity:1;stroke-dasharray:none;marker:none;visibility:visible;display:inline;overflow:visible;enable-background:accumulate"
         clip-path="url(#clipPath3862)" />
      <rect
         ry="12.5"
         y="142"
         x="290"
         height="60"
         width="60"
         id="rect4175"
         style="opacity:0.20;color:#bebebe;fill:none;stroke:#000000;stroke-width:2;stroke-miterlimit:4;stroke-opacity:1;stroke-dasharray:none;marker:none;visibility:visible;display:inline;overflow:visible;enable-background:accumulate"
         clip-path="url(#clipPath4187)" />
      <rect
         style="opacity:0.20;color:#bebebe;fill:none;stroke:#000000;stroke-width:2;stroke-miterlimit:4;stroke-opacity:1;stroke-dasharray:none;marker:none;visibility:visible;display:inline;overflow:visible;enable-background:accumulate"
         id="rect4342"
         width="88"
         height="88"
         x="292"
         y="32"
         ry="18"
         clip-path="url(#clipPath4346)" />
    </g>
  </g>
</svg>
