<?xml version="1.0" encoding="UTF-8" standalone="no"?>
<!-- Created with Inkscape (http://www.inkscape.org/) -->

<svg
   xmlns:dc="http://purl.org/dc/elements/1.1/"
   xmlns:cc="http://creativecommons.org/ns#"
   xmlns:rdf="http://www.w3.org/1999/02/22-rdf-syntax-ns#"
   xmlns:svg="http://www.w3.org/2000/svg"
   xmlns="http://www.w3.org/2000/svg"
   xmlns:sodipodi="http://sodipodi.sourceforge.net/DTD/sodipodi-0.dtd"
   xmlns:inkscape="http://www.inkscape.org/namespaces/inkscape"
   version="1.1"
   width="24"
   height="24"
   id="svg2940"
   style="display:inline"
   inkscape:version="0.48.1 r9760"
   sodipodi:docname="wiican-discover1.svg">
  <sodipodi:namedview
     pagecolor="#ffffff"
     bordercolor="#666666"
     borderopacity="1"
     objecttolerance="10"
     gridtolerance="10"
     guidetolerance="10"
     inkscape:pageopacity="0"
     inkscape:pageshadow="2"
     inkscape:window-width="1854"
     inkscape:window-height="1056"
     id="namedview62"
     showgrid="true"
     inkscape:zoom="10.375"
     inkscape:cx="37.372982"
     inkscape:cy="14.908778"
     inkscape:window-x="66"
     inkscape:window-y="24"
     inkscape:window-maximized="1"
     inkscape:current-layer="svg2940">
    <inkscape:grid
       type="xygrid"
       id="grid3060" />
  </sodipodi:namedview>
  <defs
     id="defs2942" />
  <metadata
     id="metadata2945">
    <rdf:RDF>
      <cc:Work
         rdf:about="">
        <dc:format>image/svg+xml</dc:format>
        <dc:type
           rdf:resource="http://purl.org/dc/dcmitype/StillImage" />
        <dc:title />
      </cc:Work>
    </rdf:RDF>
  </metadata>
  <g
     transform="translate(568.60164,-1206.5)"
     id="g13524"
     style="display:inline" />
  <g
     transform="translate(588.60139,-1177.5)"
     id="g13526" />
  <g
     transform="translate(568.60164,-1206.5)"
     id="g13528"
     style="display:inline" />
  <g
     transform="translate(903.0002,-1012.5)"
     id="g4053"
     style="fill:#bebebe;fill-opacity:1" />
  <g
     transform="translate(742,-973.5)"
     id="layer10-6" />
  <g
     transform="translate(742,-973.5)"
     id="layer11-2" />
  <g
     transform="translate(742,-973.5)"
     id="layer12-5" />
  <g
     transform="translate(742,-973.5)"
     id="layer13-9" />
  <g
     transform="translate(742,-973.5)"
     id="layer14-1" />
  <g
     transform="translate(742,-973.5)"
     id="layer15-7" />
  <g
     transform="translate(568.60164,-1206.5)"
     id="layer2-8-8"
     style="display:inline" />
  <g
     transform="translate(588.60139,-1177.5)"
     id="layer4-1-0"
     style="display:inline" />
  <g
     transform="translate(568.60164,-1206.5)"
     id="layer1-15-0"
     style="display:inline" />
  <g
     id="g3113">
    <path
       sodipodi:nodetypes="ssssssssssssssssscsssscsssscsssscsssssss"
       inkscape:connector-curvature="0"
       style="opacity:0.75;fill:#ffffff;fill-opacity:1;stroke:none;display:inline"
       id="rect5235-8"
       d="M 6.96875,2 C 6.4323332,2 6,2.4323332 6,2.96875 l 0,19.0625 C 6,22.567667 6.4323332,23 6.96875,23 l 10.0625,0 C 17.567667,23 18,22.567667 18,22.03125 L 18,2.96875 C 18,2.4323332 17.567667,2 17.03125,2 z M 8,3 C 8.5522847,3 9,3.4477153 9,4 9,4.5522847 8.5522847,5 8,5 7.4477153,5 7,4.5522847 7,4 7,3.4477153 7.4477153,3 8,3 z m 3,3 1.96875,0 c 0.548732,0 1,0.451268 1,1 l 0,1.03125 1.03125,0 c 0.548732,0 1,0.451268 1,1 L 16,11 c 0,0.548732 -0.451268,1 -1,1 l -1.03125,0 0,0.96875 c 0,0.548732 -0.451268,1 -1,1 l -1.96875,0 c -0.548732,0 -1,-0.451268 -1,-1 L 10,12 9.03125,12 c -0.548732,0 -1,-0.451268 -1,-1 l 0,-1.96875 c 0,-0.548732 0.451268,-1 1,-1 L 10,8.03125 10,7 c 0,-0.548732 0.451268,-1 1,-1 z m 1.03125,10 C 13.670845,16 15,17.329155 15,18.96875 15,20.608345 13.670845,21.9375 12.03125,21.9375 10.391655,21.9375 9.0625,20.608345 9.0625,18.96875 9.0625,17.329155 10.391655,16 12.03125,16 z" />
    <path
       inkscape:connector-curvature="0"
       style="opacity:0.75;fill:#ffffff;fill-opacity:0.94117647;stroke:none;display:inline"
       id="rect6079-4"
       d="m 11,7 0,2 -2,0 0,2 2,0 0,2 2,0 0,-2 2,0 0,-2 -2,0 0,-2 -2,0 z" />
    <path
       inkscape:connector-curvature="0"
       style="opacity:0.75;fill:#ffffff;fill-opacity:1;stroke:none"
       id="path6150"
       d="M 14,19 A 2.0000001,2.0000001 0 0 1 9.9999998,19 2.0000001,2.0000001 0 1 1 14,19 z" />
    <path
       inkscape:connector-curvature="0"
       style="opacity:0.75;fill:#ffffff;fill-opacity:0.94117647;stroke:none"
       id="path12562"
       d="m 19.0625,8.03125 0,8 c 0.673581,-1.175079 1.0625,-2.548452 1.0625,-4 0,-1.451548 -0.388919,-2.8249213 -1.0625,-4 z M 5,8.25 c -0.5981145,1.1237151 -0.9375,2.419455 -0.9375,3.78125 0,1.361795 0.3393855,2.657535 0.9375,3.78125 L 5,8.25 z" />
  </g>
</svg>
