<?xml version="1.0" encoding="UTF-8" standalone="no"?>
<!-- Created with Inkscape (http://www.inkscape.org/) -->

<svg
   xmlns:osb="http://www.openswatchbook.org/uri/2009/osb"
   xmlns:dc="http://purl.org/dc/elements/1.1/"
   xmlns:cc="http://creativecommons.org/ns#"
   xmlns:rdf="http://www.w3.org/1999/02/22-rdf-syntax-ns#"
   xmlns:svg="http://www.w3.org/2000/svg"
   xmlns="http://www.w3.org/2000/svg"
   xmlns:xlink="http://www.w3.org/1999/xlink"
   xmlns:sodipodi="http://sodipodi.sourceforge.net/DTD/sodipodi-0.dtd"
   xmlns:inkscape="http://www.inkscape.org/namespaces/inkscape"
   version="1.1"
   width="48"
   height="48"
   id="svg3759"
   inkscape:version="0.91 r13725"
   sodipodi:docname="application-vnd.android.package-archive.svg"
   inkscape:export-filename="/home/sam/faba-internet-mail.png"
   inkscape:export-xdpi="90"
   inkscape:export-ydpi="90">
  <sodipodi:namedview
     pagecolor="#ffffff"
     bordercolor="#666666"
     borderopacity="1"
     objecttolerance="10"
     gridtolerance="10"
     guidetolerance="10"
     inkscape:pageopacity="0"
     inkscape:pageshadow="2"
     inkscape:window-width="1920"
     inkscape:window-height="1014"
     id="namedview36"
     showgrid="false"
     showborder="false"
     inkscape:zoom="1"
     inkscape:cx="-53.91898"
     inkscape:cy="17.572127"
     inkscape:window-x="0"
     inkscape:window-y="28"
     inkscape:window-maximized="1"
     inkscape:current-layer="layer1"
     inkscape:snap-bbox="true"
     inkscape:bbox-paths="true"
     inkscape:bbox-nodes="true"
     inkscape:snap-bbox-edge-midpoints="true"
     inkscape:snap-bbox-midpoints="true"
     showguides="true"
     inkscape:guide-bbox="true"
     inkscape:showpageshadow="true">
    <inkscape:grid
       type="xygrid"
       id="grid3818"
       empspacing="4"
       visible="true"
       enabled="true"
       snapvisiblegridlinesonly="true" />
  </sodipodi:namedview>
  <metadata
     id="metadata37">
    <rdf:RDF>
      <cc:Work
         rdf:about="">
        <dc:format>image/svg+xml</dc:format>
        <dc:type
           rdf:resource="http://purl.org/dc/dcmitype/StillImage" />
        <dc:title />
      </cc:Work>
    </rdf:RDF>
  </metadata>
  <defs
     id="defs3761">
    <linearGradient
       inkscape:collect="always"
       id="linearGradient3914">
      <stop
         style="stop-color:#ffffff;stop-opacity:1;"
         offset="0"
         id="stop3916" />
      <stop
         style="stop-color:#ffffff;stop-opacity:0;"
         offset="1"
         id="stop3918" />
    </linearGradient>
    <linearGradient
       id="linearGradient3960">
      <stop
         style="stop-color:#000000;stop-opacity:0;"
         offset="0"
         id="stop3962" />
      <stop
         id="stop3970"
         offset="0.5"
         style="stop-color:#000000;stop-opacity:1;" />
      <stop
         style="stop-color:#000000;stop-opacity:0;"
         offset="1"
         id="stop3964" />
    </linearGradient>
    <linearGradient
       inkscape:collect="always"
       id="linearGradient3952">
      <stop
         style="stop-color:#000000;stop-opacity:1;"
         offset="0"
         id="stop3954" />
      <stop
         style="stop-color:#000000;stop-opacity:0;"
         offset="1"
         id="stop3956" />
    </linearGradient>
    <linearGradient
       inkscape:collect="always"
       id="linearGradient3944">
      <stop
         style="stop-color:#000000;stop-opacity:1;"
         offset="0"
         id="stop3946" />
      <stop
         style="stop-color:#000000;stop-opacity:0;"
         offset="1"
         id="stop3948" />
    </linearGradient>
    <linearGradient
       inkscape:collect="always"
       xlink:href="#outerBackgroundGradient-0"
       id="linearGradient3142"
       gradientUnits="userSpaceOnUse"
       gradientTransform="matrix(-0.18046875,0,0,0.17948718,49.987521,-5.7308027)"
       x1="144.00006"
       y1="280.00018"
       x2="144.00006"
       y2="40.000172" />
    <linearGradient
       inkscape:collect="always"
       xlink:href="#linearGradient3914"
       id="linearGradient3920"
       x1="24"
       y1="0"
       x2="24"
       y2="48"
       gradientUnits="userSpaceOnUse" />
    <radialGradient
       inkscape:collect="always"
       xlink:href="#linearGradient3944"
       id="radialGradient3925"
       gradientUnits="userSpaceOnUse"
       gradientTransform="matrix(1,0,0,0.75,-1.0000003,10.875)"
       cx="9"
       cy="43.5"
       fx="9"
       fy="43.5"
       r="2" />
    <radialGradient
       inkscape:collect="always"
       xlink:href="#linearGradient3952"
       id="radialGradient3928"
       gradientUnits="userSpaceOnUse"
       gradientTransform="matrix(1,0,0,0.75,-3e-7,10.875)"
       cx="40"
       cy="43.5"
       fx="40"
       fy="43.5"
       r="2" />
    <linearGradient
       inkscape:collect="always"
       xlink:href="#linearGradient3960"
       id="linearGradient3931"
       gradientUnits="userSpaceOnUse"
       x1="25"
       y1="45"
       x2="25"
       y2="42"
       gradientTransform="matrix(1.0305144,0,0,1,-1.2476025,0)" />
    <radialGradient
       inkscape:collect="always"
       xlink:href="#linearGradient3944"
       id="radialGradient3934"
       gradientUnits="userSpaceOnUse"
       gradientTransform="matrix(1.0571429,0,0,1.25,-2.4000003,-10.875)"
       cx="9"
       cy="43.5"
       fx="9"
       fy="43.5"
       r="2" />
    <radialGradient
       inkscape:collect="always"
       xlink:href="#linearGradient3952"
       id="radialGradient3937"
       gradientUnits="userSpaceOnUse"
       gradientTransform="matrix(1.0571429,0,0,1.25,-1.4000003,-10.875)"
       cx="40"
       cy="43.5"
       fx="40"
       fy="43.5"
       r="2" />
    <linearGradient
       inkscape:collect="always"
       xlink:href="#linearGradient3960"
       id="linearGradient3940"
       gradientUnits="userSpaceOnUse"
       x1="25"
       y1="45"
       x2="25"
       y2="42"
       gradientTransform="matrix(1.0894009,0,0,1.6666667,-2.6903226,-29)" />
    <linearGradient
       id="outerBackgroundGradient-0">
      <stop
         id="stop3864-8-6-3"
         offset="0"
         style="stop-color:#a4c639;stop-opacity:1" />
      <stop
         id="stop3866-9-1-3"
         offset="1"
         style="stop-color:#aacd3b;stop-opacity:1" />
    </linearGradient>
    <linearGradient
       id="linearGradient5606-8"
       osb:paint="solid">
      <stop
         id="stop5608-2" />
    </linearGradient>
    <linearGradient
       id="linearGradient5606-0"
       osb:paint="solid">
      <stop
         id="stop5608-8"
         offset="0"
         style="stop-color:#000000;stop-opacity:1;" />
    </linearGradient>
    <linearGradient
       id="linearGradient5606"
       osb:paint="solid">
      <stop
         id="stop5608"
         offset="0"
         style="stop-color:#000000;stop-opacity:1;" />
    </linearGradient>
  </defs>
  <g
     inkscape:groupmode="layer"
     id="layer1"
     inkscape:label="Background">
    <g
       id="g3942">
      <rect
         style="opacity:0.12000002;fill:url(#linearGradient3940);fill-opacity:1;stroke:none"
         id="rect3985"
         width="33.771431"
         height="5"
         x="7.1142859"
         y="41" />
      <path
         style="opacity:0.12000002;fill:url(#radialGradient3937);fill-opacity:1;stroke:none"
         d="m 40.885716,41.000001 0,5 0.528571,0 c 0.878486,0 1.585715,-1.115 1.585715,-2.5 0,-1.385 -0.707229,-2.5 -1.585715,-2.5 l -0.528571,0 z"
         id="path3987"
         inkscape:connector-curvature="0" />
      <path
         style="opacity:0.12000002;fill:url(#radialGradient3934);fill-opacity:1;stroke:none"
         d="M 6.4866072,41.000001 C 5.6630268,41.000001 5,42.045313 5,43.343751 l 0,0.3125 c 0,1.298439 0.6630268,2.34375 1.4866072,2.34375 l 0.6276786,0 0,-5 -0.6276786,0 z"
         id="path3989"
         inkscape:connector-curvature="0" />
      <rect
         y="42"
         x="8.0270262"
         height="3"
         width="31.945946"
         id="rect3938"
         style="opacity:0.12000002;fill:url(#linearGradient3931);fill-opacity:1;stroke:none" />
      <path
         id="rect3940"
         d="m 40,42 0,3 0.5,0 C 41.331,45 42,44.331 42,43.5 42,42.669 41.331,42 40.5,42 L 40,42 z"
         style="opacity:0.12000002;fill:url(#radialGradient3928);fill-opacity:1;stroke:none"
         inkscape:connector-curvature="0" />
      <path
         id="rect3942"
         d="m 7.4062497,42 c -0.7790625,0 -1.40625,0.627187 -1.40625,1.40625 l 0,0.1875 c 0,0.779063 0.6271875,1.40625 1.40625,1.40625 l 0.59375,0 0,-3 -0.59375,0 z"
         style="opacity:0.12000002;fill:url(#radialGradient3925);fill-opacity:1;stroke:none"
         inkscape:connector-curvature="0" />
    </g>
    <path
       style="color:#bebebe;fill:url(#linearGradient3142);fill-opacity:1.0;fill-rule:nonzero;stroke:none;stroke-width:0;marker:none;visibility:visible;display:inline;overflow:visible;enable-background:accumulate"
       d="m 40.5,3.5 -33,0 0,40 33,0 z"
       id="rect3882"
       inkscape:connector-curvature="0"
       sodipodi:nodetypes="ccccc" />
    <path
       id="path3893"
       d="M 40,4 8,4 8,43 40,43 z M 39,5 39,42 9,42 9,5 z"
       style="opacity:0.2;fill:url(#linearGradient3920);fill-opacity:1;stroke:none"
       inkscape:connector-curvature="0"
       sodipodi:nodetypes="cccccccccc" />
    <rect
       style="opacity:0.2;fill:#ffffff;fill-opacity:1;stroke:none;stroke-width:1;stroke-linecap:square;stroke-miterlimit:4;stroke-opacity:1;stroke-dasharray:none"
       id="rect3144"
       width="32"
       height="1"
       x="8"
       y="4" />
    <rect
       y="42"
       x="8"
       height="1"
       width="32"
       id="rect3922"
       style="opacity:0.1;fill:#ffffff;fill-opacity:1;stroke:none" />
    <path
       sodipodi:nodetypes="ccccc"
       inkscape:connector-curvature="0"
       id="path4870"
       d="m 40.5,3.5 -33,0 0,40 33,0 z"
       style="color:#bebebe;fill:none;fill-opacity:1;fill-rule:nonzero;stroke:#49622c;stroke-width:1;marker:none;visibility:visible;display:inline;overflow:visible;enable-background:accumulate;stroke-opacity:1;stroke-miterlimit:4;stroke-dasharray:none;opacity:0.60999999999999999" />
  </g>
  <g
     inkscape:groupmode="layer"
     id="layer2"
     inkscape:label="Symbol">
    <text
       y="-111.75488"
       xml:space="preserve"
       x="73.506836"
       style="font-size:18px;font-style:normal;font-variant:normal;font-weight:normal;font-stretch:normal;fill:#000000;fill-opacity:1;stroke:none;display:none;enable-background:new;font-family:DejaVu Sans;-inkscape-font-specification:DejaVu Sans"
       inkscape:label="context"
       id="context"><tspan
         style="font-style:normal;font-variant:normal;font-weight:normal;font-stretch:normal;font-family:DejaVu Sans;-inkscape-font-specification:DejaVu Sans"
         y="-111.75488"
         x="73.506836"
         sodipodi:role="line"
         id="tspan3933">places</tspan></text>
    <text
       y="-111.75488"
       xml:space="preserve"
       x="180.98828"
       style="font-size:18px;font-style:normal;font-variant:normal;font-weight:bold;font-stretch:normal;text-align:start;line-height:125%;writing-mode:lr-tb;text-anchor:start;fill:#000000;fill-opacity:1;stroke:none;display:none;enable-background:new;font-family:DejaVu Sans;-inkscape-font-specification:DejaVu Sans Bold"
       sodipodi:linespacing="125%"
       inkscape:label="icon-name"
       id="icon-name"><tspan
         style="font-size:18px;font-style:normal;font-variant:normal;font-weight:bold;font-stretch:normal;font-family:DejaVu Sans;-inkscape-font-specification:DejaVu Sans Bold"
         y="-111.75488"
         x="180.98828"
         sodipodi:role="line"
         id="tspan3937">distributor-logo-android</tspan></text>
    <rect
       style="fill:#eeeeec;fill-opacity:1;fill-rule:nonzero;stroke:none;stroke-width:2;marker:none;visibility:visible;display:none;overflow:visible;enable-background:accumulate"
       id="rect16x16"
       width="16"
       height="16"
       x="474.5"
       y="8.5"
       inkscape:label="16x16" />
    <rect
       style="fill:#d4d4d4;fill-opacity:1;fill-rule:nonzero;stroke:none;stroke-width:2;marker:none;visibility:visible;display:none;overflow:visible;enable-background:accumulate"
       id="rect24x24"
       width="24"
       height="24"
       x="474.5"
       y="-31.5"
       inkscape:label="24x24" />
    <rect
       style="fill:#eeeeec;fill-opacity:1;fill-rule:nonzero;stroke:none;stroke-width:2;marker:none;visibility:visible;display:none;overflow:visible;enable-background:accumulate"
       id="rect32x32"
       width="32"
       height="32"
       x="474.5"
       y="-79.5"
       inkscape:label="32x32" />
    <rect
       inkscape:label="22x22"
       y="-30.5"
       x="475.5"
       height="22"
       width="22"
       id="rect22x22"
       style="fill:#eeeeec;fill-opacity:1;fill-rule:nonzero;stroke:none;stroke-width:2;marker:none;visibility:visible;display:none;overflow:visible;enable-background:accumulate" />
    <rect
       inkscape:label="48x48"
       y="88.5"
       x="346.5"
       height="48"
       width="48"
       id="rect48x48"
       style="fill:#eeeeec;fill-opacity:1;fill-rule:nonzero;stroke:none;stroke-width:2;marker:none;visibility:visible;display:none;overflow:visible;enable-background:accumulate" />
    <rect
       style="fill:#eeeeec;fill-opacity:1;fill-rule:nonzero;stroke:none;stroke-width:2;marker:none;visibility:visible;display:none;overflow:visible;enable-background:accumulate"
       id="rect256x256"
       width="256"
       height="256"
       x="74.5"
       y="-103.5"
       inkscape:label="256x256" />
    <rect
       style="fill:#eeeeec;fill-opacity:1;fill-rule:nonzero;stroke:none;stroke-width:2;marker:none;visibility:visible;display:none;overflow:visible;enable-background:accumulate"
       id="rect64x64"
       width="64"
       height="64"
       x="346.5"
       y="8.5"
       inkscape:label="64x64" />
    <rect
       style="fill:#eeeeec;fill-opacity:1;fill-rule:nonzero;stroke:none;stroke-width:2;marker:none;visibility:visible;display:none;overflow:visible;enable-background:accumulate"
       id="rect96x96"
       width="96"
       height="96"
       x="346.5"
       y="-103.5"
       inkscape:label="96x96" />
    <g
       id="g6768"
       transform="translate(34.404437,5.17408)">
      <path
         id="path3857"
         d="m -14.216937,7.95092 c -0.096,0.0532 -0.1157,0.21646 -0.0625,0.3125 l 0.9375,1.6875 c -1.82172,0.9479 -3.06004,2.74512 -3.0625,4.8125 l 12,0 c -0.002,-2.06738 -1.2408,-3.8646 -3.0625,-4.8125 l 0.9375,-1.6875 c 0.0532,-0.0962 0.0337,-0.2592 -0.0625,-0.3125 -0.036,-0.02 -0.0886,-0.003 -0.125,0 -0.0606,0.006 -0.0918,0.065 -0.125,0.125 l -1,1.6875 c -0.78466,-0.34806 -1.63372,-0.5625 -2.5625,-0.5625 -0.92876,0 -1.84032,0.2144 -2.625,0.5625 l -0.9375,-1.6875 c -0.0334,-0.06 -0.0642,-0.1204 -0.125,-0.125 -0.01,-6.4e-4 -0.0535,-6.4e-4 -0.0625,0 0.028,0 -0.0355,-0.0156 -0.0625,0 z m 1.125,3.625 c 0.26118,0 0.5,0.2388 0.5,0.5 0,0.26118 -0.23882,0.5 -0.5,0.5 -0.2612,0 -0.5,-0.23882 -0.5,-0.5 0,-0.2612 0.2388,-0.5 0.5,-0.5 z m 5.375,0 c 0.26118,0 0.4375,0.2388 0.4375,0.5 0,0.26118 -0.17632,0.5 -0.4375,0.5 -0.2612,0 -0.5,-0.23882 -0.5,-0.5 0,-0.2612 0.2388,-0.5 0.5,-0.5 z m -10.6875,3.8125 c -0.554,0 -1,0.446 -1,1 l 0,6 c 0,0.554 0.446,1 1,1 0.554,0 1,-0.446 1,-1 l 0,-6 c 0,-0.554 -0.446,-1 -1,-1 z m 2,0 0,8.8125 c 0,0 -0.0111,1.25 1.25,1.25 l 0.75,-0.0625 0,3.1875 c 0,0.74852 0.50148,1.25 1.25,1.25 0.74854,0 1.33059,-0.5017 1.3125,-1.25 l 0,-3.1875 2.9375,0 0,3.1875 c 0,0.74852 0.50148,1.25 1.25,1.25 0.74852,0 1.34224,-0.50718 1.25,-1.25 l 0,-3.1875 0.75,0.0625 c 1.2568,0.10474 1.25,-1.25 1.25,-1.25 l 0,-8.8125 z m 14,0 c -0.554,0 -1,0.446 -1,1 l 0,6 c 0,0.554 0.446,1 1,1 0.554,0 1,-0.446 1,-1 l 0,-6 c 0,-0.554 -0.446,-1 -1,-1 z"
         style="opacity:0.2;fill:#000000;fill-opacity:1;stroke:none;display:inline;enable-background:new"
         inkscape:connector-curvature="0"
         sodipodi:nodetypes="cccccccccccscccccsssssssssssssssssccscsssccssscscccsssssss" />
      <path
         sodipodi:nodetypes="cccccccccccscccccsssssssssssssssssccscsssccssscscccsssssss"
         inkscape:connector-curvature="0"
         style="fill:#ffffff;fill-opacity:1;stroke:none;display:inline;enable-background:new"
         d="m -14.216937,6.95092 c -0.096,0.0532 -0.1157,0.21646 -0.0625,0.3125 l 0.9375,1.6875 c -1.82172,0.9479 -3.06004,2.74512 -3.0625,4.8125 l 12,0 c -0.002,-2.06738 -1.2408,-3.8646 -3.0625,-4.8125 l 0.9375,-1.6875 c 0.0532,-0.0962 0.0337,-0.2592 -0.0625,-0.3125 -0.036,-0.02 -0.0886,-0.003 -0.125,0 -0.0606,0.006 -0.0918,0.065 -0.125,0.125 l -1,1.6875 c -0.78466,-0.34806 -1.63372,-0.5625 -2.5625,-0.5625 -0.92876,0 -1.84032,0.2144 -2.625,0.5625 l -0.9375,-1.6875 c -0.0334,-0.06 -0.0642,-0.1204 -0.125,-0.125 -0.01,-6.4e-4 -0.0535,-6.4e-4 -0.0625,0 0.028,0 -0.0355,-0.0156 -0.0625,0 z m 1.125,3.625 c 0.26118,0 0.5,0.2388 0.5,0.5 0,0.26118 -0.23882,0.5 -0.5,0.5 -0.2612,0 -0.5,-0.23882 -0.5,-0.5 0,-0.2612 0.2388,-0.5 0.5,-0.5 z m 5.375,0 c 0.26118,0 0.4375,0.2388 0.4375,0.5 0,0.26118 -0.17632,0.5 -0.4375,0.5 -0.2612,0 -0.5,-0.23882 -0.5,-0.5 0,-0.2612 0.2388,-0.5 0.5,-0.5 z m -10.6875,3.8125 c -0.554,0 -1,0.446 -1,1 l 0,6 c 0,0.554 0.446,1 1,1 0.554,0 1,-0.446 1,-1 l 0,-6 c 0,-0.554 -0.446,-1 -1,-1 z m 2,0 0,8.8125 c 0,0 -0.0111,1.25 1.25,1.25 l 0.75,-0.0625 0,3.1875 c 0,0.74852 0.50148,1.25 1.25,1.25 0.74854,0 1.33059,-0.5017 1.3125,-1.25 l 0,-3.1875 2.9375,0 0,3.1875 c 0,0.74852 0.50148,1.25 1.25,1.25 0.74852,0 1.34224,-0.50718 1.25,-1.25 l 0,-3.1875 0.75,0.0625 c 1.2568,0.10474 1.25,-1.25 1.25,-1.25 l 0,-8.8125 z m 14,0 c -0.554,0 -1,0.446 -1,1 l 0,6 c 0,0.554 0.446,1 1,1 0.554,0 1,-0.446 1,-1 l 0,-6 c 0,-0.554 -0.446,-1 -1,-1 z"
         id="path3884" />
    </g>
  </g>
</svg>
