<?xml version="1.0" encoding="UTF-8" standalone="no"?>
<!-- Created with Inkscape (http://www.inkscape.org/) -->

<svg
   xmlns:dc="http://purl.org/dc/elements/1.1/"
   xmlns:cc="http://creativecommons.org/ns#"
   xmlns:rdf="http://www.w3.org/1999/02/22-rdf-syntax-ns#"
   xmlns:svg="http://www.w3.org/2000/svg"
   xmlns="http://www.w3.org/2000/svg"
   xmlns:xlink="http://www.w3.org/1999/xlink"
   xmlns:sodipodi="http://sodipodi.sourceforge.net/DTD/sodipodi-0.dtd"
   xmlns:inkscape="http://www.inkscape.org/namespaces/inkscape"
   version="1.1"
   width="48"
   height="48"
   id="svg3759"
   inkscape:version="0.91 r13725"
   sodipodi:docname="application-x-gba-rom.svg">
  <sodipodi:namedview
     pagecolor="#ffffff"
     bordercolor="#666666"
     borderopacity="1"
     objecttolerance="10"
     gridtolerance="10"
     guidetolerance="10"
     inkscape:pageopacity="0"
     inkscape:pageshadow="2"
     inkscape:window-width="1920"
     inkscape:window-height="1014"
     id="namedview36"
     showgrid="false"
     showborder="false"
     inkscape:zoom="1"
     inkscape:cx="-1.6624677"
     inkscape:cy="24"
     inkscape:window-x="0"
     inkscape:window-y="28"
     inkscape:window-maximized="1"
     inkscape:current-layer="layer2"
     inkscape:snap-bbox="true"
     inkscape:bbox-paths="true"
     inkscape:bbox-nodes="true"
     inkscape:snap-bbox-edge-midpoints="true"
     inkscape:snap-bbox-midpoints="true">
    <inkscape:grid
       type="xygrid"
       id="grid3818"
       empspacing="4"
       visible="true"
       enabled="true"
       snapvisiblegridlinesonly="true" />
  </sodipodi:namedview>
  <metadata
     id="metadata37">
    <rdf:RDF>
      <cc:Work
         rdf:about="">
        <dc:format>image/svg+xml</dc:format>
        <dc:type
           rdf:resource="http://purl.org/dc/dcmitype/StillImage" />
        <dc:title />
      </cc:Work>
    </rdf:RDF>
  </metadata>
  <defs
     id="defs3761">
    <linearGradient
       inkscape:collect="always"
       xlink:href="#linearGradient4134"
       id="linearGradient4140"
       x1="789"
       y1="256"
       x2="827"
       y2="256"
       gradientUnits="userSpaceOnUse" />
    <linearGradient
       inkscape:collect="always"
       id="linearGradient4134">
      <stop
         style="stop-color:#ffffff;stop-opacity:1;"
         offset="0"
         id="stop4136" />
      <stop
         style="stop-color:#ffffff;stop-opacity:0;"
         offset="1"
         id="stop4138" />
    </linearGradient>
    <clipPath
       clipPathUnits="userSpaceOnUse"
       id="clipPath4130">
      <path
         id="path4132"
         d="M 790.4375,237 C 789.62555,237 789,237.62555 789,238.4375 l 0,35.09375 c 0,0.812 0.62555,1.46875 1.4375,1.46875 l 35.125,0 c 0.81195,0 1.4375,-0.65675 1.4375,-1.46875 l 0,-35.09375 C 827,237.62555 826.37445,237 825.5625,237 l -35.125,0 z"
         style="fill:#ba2222;fill-opacity:1;stroke:none"
         inkscape:connector-curvature="0" />
    </clipPath>
    <linearGradient
       inkscape:collect="always"
       xlink:href="#linearGradient3988-5"
       id="linearGradient3877"
       gradientUnits="userSpaceOnUse"
       gradientTransform="matrix(0,-1,-1,0,-784,-980.3622)"
       x1="-1023.8622"
       y1="-808"
       x2="-984.86218"
       y2="-808" />
    <linearGradient
       id="linearGradient3988-5">
      <stop
         style="stop-color:#ededed;stop-opacity:1;"
         offset="0"
         id="stop3990-5" />
      <stop
         style="stop-color:#fafafa;stop-opacity:1;"
         offset="1"
         id="stop3992-0" />
    </linearGradient>
    <linearGradient
       id="linearGradient3960">
      <stop
         style="stop-color:#000000;stop-opacity:0;"
         offset="0"
         id="stop3962" />
      <stop
         id="stop3970"
         offset="0.5"
         style="stop-color:#000000;stop-opacity:1;" />
      <stop
         style="stop-color:#000000;stop-opacity:0;"
         offset="1"
         id="stop3964" />
    </linearGradient>
    <linearGradient
       inkscape:collect="always"
       id="linearGradient3952">
      <stop
         style="stop-color:#000000;stop-opacity:1;"
         offset="0"
         id="stop3954" />
      <stop
         style="stop-color:#000000;stop-opacity:0;"
         offset="1"
         id="stop3956" />
    </linearGradient>
    <linearGradient
       inkscape:collect="always"
       id="linearGradient3944">
      <stop
         style="stop-color:#000000;stop-opacity:1;"
         offset="0"
         id="stop3946" />
      <stop
         style="stop-color:#000000;stop-opacity:0;"
         offset="1"
         id="stop3948" />
    </linearGradient>
    <radialGradient
       inkscape:collect="always"
       xlink:href="#linearGradient3944"
       id="radialGradient4202"
       gradientUnits="userSpaceOnUse"
       gradientTransform="matrix(1.0571429,0,0,1.25,-4.4000003,-10.875)"
       cx="9"
       cy="43.5"
       fx="9"
       fy="43.5"
       r="2" />
    <radialGradient
       inkscape:collect="always"
       xlink:href="#linearGradient3952"
       id="radialGradient4205"
       gradientUnits="userSpaceOnUse"
       gradientTransform="matrix(1.0571429,0,0,1.25,0.6,-10.875)"
       cx="40"
       cy="43.5"
       fx="40"
       fy="43.5"
       r="2" />
    <linearGradient
       inkscape:collect="always"
       xlink:href="#linearGradient3960"
       id="linearGradient4208"
       gradientUnits="userSpaceOnUse"
       x1="25"
       y1="45"
       x2="25"
       y2="42"
       gradientTransform="matrix(1.0571429,0,0,1.6666667,-5.4000003,-29)" />
    <radialGradient
       inkscape:collect="always"
       xlink:href="#linearGradient3944"
       id="radialGradient4211"
       gradientUnits="userSpaceOnUse"
       gradientTransform="matrix(1,0,0,0.75,-3.0000003,10.875)"
       cx="9"
       cy="43.5"
       fx="9"
       fy="43.5"
       r="2" />
    <radialGradient
       inkscape:collect="always"
       xlink:href="#linearGradient3952"
       id="radialGradient4214"
       gradientUnits="userSpaceOnUse"
       gradientTransform="matrix(1,0,0,0.75,2,10.875)"
       cx="40"
       cy="43.5"
       fx="40"
       fy="43.5"
       r="2" />
    <linearGradient
       inkscape:collect="always"
       xlink:href="#linearGradient3960"
       id="linearGradient4217"
       gradientUnits="userSpaceOnUse"
       x1="25"
       y1="45"
       x2="25"
       y2="42"
       gradientTransform="translate(-4.0000003,0)" />
  </defs>
  <g
     inkscape:groupmode="layer"
     id="layer1"
     inkscape:label="Background">
    <path
       inkscape:connector-curvature="0"
       id="path3987"
       d="m 42.885716,41.000001 0,5 0.528571,0 c 0.878486,0 1.585715,-1.115 1.585715,-2.5 0,-1.385 -0.707229,-2.5 -1.585715,-2.5 l -0.528571,0 z"
       style="opacity:0.12000002;fill:url(#radialGradient4205);fill-opacity:1;stroke:none" />
    <path
       style="opacity:0.12000002;fill:url(#radialGradient4214);fill-opacity:1;stroke:none"
       d="m 42,42 0,3 0.5,0 C 43.331,45 44,44.331 44,43.5 44,42.669 43.331,42 42.5,42 L 42,42 z"
       id="rect3940"
       inkscape:connector-curvature="0" />
    <path
       inkscape:connector-curvature="0"
       id="path3989"
       d="M 4.4866072,41.000001 C 3.6630268,41.000001 3,42.045313 3,43.343751 l 0,0.3125 c 0,1.298439 0.6630268,2.34375 1.4866072,2.34375 l 0.6276786,0 0,-5 -0.6276786,0 z"
       style="opacity:0.12000002;fill:url(#radialGradient4202);fill-opacity:1;stroke:none" />
    <path
       style="opacity:0.12000002;fill:url(#radialGradient4211);fill-opacity:1;stroke:none"
       d="m 5.4062497,42 c -0.7790625,0 -1.40625,0.627187 -1.40625,1.40625 l 0,0.1875 c 0,0.779063 0.6271875,1.40625 1.40625,1.40625 l 0.59375,0 0,-3 -0.59375,0 z"
       id="rect3942"
       inkscape:connector-curvature="0" />
    <path
       style="opacity:0.12000002;fill:url(#linearGradient4208);fill-opacity:1;stroke:none"
       d="m 5.1141432,41 37.7717148,0 0,5 -37.7717148,0 z"
       id="rect3985"
       inkscape:connector-curvature="0"
       sodipodi:nodetypes="ccccc" />
    <path
       style="opacity:0.12000002;fill:url(#linearGradient4217);fill-opacity:1;stroke:none"
       d="m 5.9998568,42 36.0002842,0 0,3 -36.0002842,0 z"
       id="rect3938"
       inkscape:connector-curvature="0"
       sodipodi:nodetypes="ccccc" />
    <path
       style="fill:url(#linearGradient3877);fill-opacity:1.0;stroke:none;display:inline"
       d="M 6.4375 5 C 5.625551 5 5 5.6255532 5 6.4375 L 5 41.5625 C 5 42.374447 5.625551 43 6.4375 43 L 41.5625 43 C 42.374449 43 43 42.374447 43 41.5625 L 43 6.4375 C 43 5.6255532 42.374449 5 41.5625 5 L 6.4375 5 z "
       id="rect4073" />
    <rect
       style="opacity:0.41;fill:none;stroke:#000000;stroke-opacity:1;display:inline"
       id="rect4085"
       width="39"
       height="39"
       x="-43.5"
       y="-43.5"
       transform="matrix(0,-1,-1,0,0,0)"
       ry="1.95"
       rx="1.9499974" />
    <path
       inkscape:connector-curvature="0"
       style="opacity:0.14999999999999999;fill:#ffffff;fill-opacity:1;stroke:none;display:inline"
       d="M 6.4375,5.00002 C 5.62555,5.00002 5,5.62557 5,6.43752 l 0,1 C 5,6.62557 5.62555,6.00002 6.4375,6.00002 l 35.125,0 c 0.81195,0 1.4375,0.62555 1.4375,1.4375 l 0,-1 c 0,-0.81195 -0.62555,-1.4375 -1.4375,-1.4375 l -35.125,0 z"
       id="rect4089-4" />
    <path
       transform="matrix(0,1,-1,0,280,-784)"
       style="opacity:0.10000000000000001;fill:none;stroke:url(#linearGradient4140);stroke-width:2;stroke-miterlimit:4;stroke-opacity:1;stroke-dasharray:none;display:inline"
       d="M 790.4375,237 C 789.62555,237 789,237.62555 789,238.4375 l 0,35.09375 c 0,0.812 0.62555,1.46875 1.4375,1.46875 l 35.125,0 c 0.81195,0 1.4375,-0.65675 1.4375,-1.46875 l 0,-35.09375 C 827,237.62555 826.37445,237 825.5625,237 l -35.125,0 z"
       id="path4128"
       clip-path="url(#clipPath4130)"
       inkscape:connector-curvature="0" />
    <path
       id="path4105"
       d="M 6.4375,43.000017 C 5.62555,43.000017 5,42.374417 5,41.562517 L 5,40.56252 c 0,0.811897 0.62555,1.437497 1.4375,1.437497 l 35.125,0 c 0.81195,0 1.4375,-0.6256 1.4375,-1.437497 l 0,0.999997 c 0,0.8119 -0.62555,1.4375 -1.4375,1.4375 l -35.125,0 z"
       style="opacity:0.10000000000000001;fill:#ffffff;fill-opacity:1;stroke:none;display:inline"
       inkscape:connector-curvature="0" />
  </g>
  <g
     inkscape:groupmode="layer"
     id="layer2"
     inkscape:label="Symbol">
    <text
       y="-85.754883"
       xml:space="preserve"
       x="-756.49316"
       style="font-size:18px;font-style:normal;font-variant:normal;font-weight:normal;font-stretch:normal;fill:#000000;fill-opacity:1;stroke:none;display:none;enable-background:new;font-family:DejaVu Sans;-inkscape-font-specification:DejaVu Sans"
       inkscape:label="context"
       id="context"><tspan
         style="font-style:normal;font-variant:normal;font-weight:normal;font-stretch:normal;font-family:DejaVu Sans;-inkscape-font-specification:DejaVu Sans"
         y="-85.754883"
         x="-756.49316"
         sodipodi:role="line"
         id="tspan3933">apps</tspan></text>
    <text
       y="-85.754883"
       xml:space="preserve"
       x="-649.01172"
       style="font-size:18px;font-style:normal;font-variant:normal;font-weight:bold;font-stretch:normal;text-align:start;line-height:125%;writing-mode:lr-tb;text-anchor:start;fill:#000000;fill-opacity:1;stroke:none;display:none;enable-background:new;font-family:DejaVu Sans;-inkscape-font-specification:DejaVu Sans Bold"
       sodipodi:linespacing="125%"
       inkscape:label="icon-name"
       id="icon-name"><tspan
         style="font-size:18px;font-style:normal;font-variant:normal;font-weight:bold;font-stretch:normal;font-family:DejaVu Sans;-inkscape-font-specification:DejaVu Sans Bold"
         y="-85.754883"
         x="-649.01172"
         sodipodi:role="line"
         id="tspan3937">gba</tspan></text>
    <rect
       style="fill:#eeeeec;fill-opacity:1;fill-rule:nonzero;stroke:none;stroke-width:2;marker:none;visibility:visible;display:none;overflow:visible;enable-background:accumulate"
       id="rect16x16"
       width="16"
       height="16"
       x="-355.5"
       y="34.5"
       inkscape:label="16x16" />
    <rect
       style="fill:#d4d4d4;fill-opacity:1;fill-rule:nonzero;stroke:none;stroke-width:2;marker:none;visibility:visible;display:none;overflow:visible;enable-background:accumulate"
       id="rect24x24"
       width="24"
       height="24"
       x="-355.5"
       y="-5.5"
       inkscape:label="24x24" />
    <rect
       style="fill:#eeeeec;fill-opacity:1;fill-rule:nonzero;stroke:none;stroke-width:2;marker:none;visibility:visible;display:none;overflow:visible;enable-background:accumulate"
       id="rect32x32"
       width="32"
       height="32"
       x="-355.5"
       y="-53.5"
       inkscape:label="32x32" />
    <rect
       inkscape:label="22x22"
       y="-4.5"
       x="-354.5"
       height="22"
       width="22"
       id="rect22x22"
       style="fill:#eeeeec;fill-opacity:1;fill-rule:nonzero;stroke:none;stroke-width:2;marker:none;visibility:visible;display:none;overflow:visible;enable-background:accumulate" />
    <rect
       inkscape:label="48x48"
       y="114.5"
       x="-483.5"
       height="48"
       width="48"
       id="rect48x48"
       style="fill:#eeeeec;fill-opacity:1;fill-rule:nonzero;stroke:none;stroke-width:2;marker:none;visibility:visible;display:none;overflow:visible;enable-background:accumulate" />
    <rect
       style="fill:#eeeeec;fill-opacity:1;fill-rule:nonzero;stroke:none;stroke-width:2;marker:none;visibility:visible;display:none;overflow:visible;enable-background:accumulate"
       id="rect256x256"
       width="256"
       height="256"
       x="-755.5"
       y="-77.5"
       inkscape:label="256x256" />
    <rect
       style="fill:#eeeeec;fill-opacity:1;fill-rule:nonzero;stroke:none;stroke-width:2;marker:none;visibility:visible;display:none;overflow:visible;enable-background:accumulate"
       id="rect64x64"
       width="64"
       height="64"
       x="-483.5"
       y="34.5"
       inkscape:label="64x64" />
    <rect
       style="fill:#eeeeec;fill-opacity:1;fill-rule:nonzero;stroke:none;stroke-width:2;marker:none;visibility:visible;display:none;overflow:visible;enable-background:accumulate"
       id="rect96x96"
       width="96"
       height="96"
       x="-483.5"
       y="-77.5"
       inkscape:label="96x96" />
    <g
       id="g5011"
       transform="translate(41,-6)">
      <path
         inkscape:connector-curvature="0"
         id="path4240"
         d="M -19.65625,18 C -20.394928,18 -21,18.605051 -21,19.34375 L -21,27 -28.65625,27 C -29.394949,27 -30,27.605072 -30,28.34375 l 0,5.3125 C -30,34.394928 -29.394949,35 -28.65625,35 L -21,35 l 0,7.65625 C -21,43.394949 -20.394928,44 -19.65625,44 l 5.34375,0 C -13.573822,44 -13,43.394949 -13,42.65625 L -13,35 l 7.6874997,0 c 0.738699,0 1.3125,-0.605072 1.3125,-1.34375 l 0,-5.3125 c 0,-0.738678 -0.573801,-1.34375 -1.3125,-1.34375 L -13,27 -13,19.34375 C -13,18.605051 -13.573822,18 -14.3125,18 l -5.34375,0 z M -19,21 l 4,0 -2,4 -2,-4 z m -8,8 4,2 -4,2 0,-4 z m 10,0 c 1.104598,0 2,0.895402 2,2 0,1.104598 -0.895402,2 -2,2 -1.104598,0 -2,-0.895402 -2,-2 0,-1.104598 0.895402,-2 2,-2 z m 9.9999997,0 0,4 L -11,31 -7.0000003,29 z M -17,37 l 2,4 -4,0 2,-4 z"
         style="opacity:0.4;color:#000000;fill:#ffffff;fill-opacity:1;fill-rule:nonzero;stroke:none;stroke-width:1;marker:none;visibility:visible;display:inline;overflow:visible;enable-background:accumulate" />
      <path
         style="color:#000000;fill:#bbbbbb;fill-opacity:1;fill-rule:nonzero;stroke:none;stroke-width:1;marker:none;visibility:visible;display:inline;overflow:visible;enable-background:accumulate"
         d="M -19.65625,17 C -20.394928,17 -21,17.605051 -21,18.34375 L -21,26 -28.65625,26 C -29.394949,26 -30,26.605072 -30,27.34375 l 0,5.3125 C -30,33.394928 -29.394949,34 -28.65625,34 L -21,34 l 0,7.65625 C -21,42.394949 -20.394928,43 -19.65625,43 l 5.34375,0 C -13.573822,43 -13,42.394949 -13,41.65625 L -13,34 l 7.6874997,0 c 0.738699,0 1.3125,-0.605072 1.3125,-1.34375 l 0,-5.3125 c 0,-0.738678 -0.573801,-1.34375 -1.3125,-1.34375 L -13,26 -13,18.34375 C -13,17.605051 -13.573822,17 -14.3125,17 l -5.34375,0 z M -19,20 l 4,0 -2,4 -2,-4 z m -8,8 4,2 -4,2 0,-4 z m 10,0 c 1.104598,0 2,0.895402 2,2 0,1.104598 -0.895402,2 -2,2 -1.104598,0 -2,-0.895402 -2,-2 0,-1.104598 0.895402,-2 2,-2 z m 9.9999997,0 0,4 L -11,30 -7.0000003,28 z M -17,36 l 2,4 -4,0 2,-4 z"
         id="path4238"
         inkscape:connector-curvature="0" />
      <path
         inkscape:connector-curvature="0"
         id="path4227"
         d="M -19.65625,17 C -20.394928,17 -21,17.605051 -21,18.34375 l 0,1 C -21,18.605051 -20.394928,18 -19.65625,18 l 5.34375,0 C -13.573822,18 -13,18.605051 -13,19.34375 l 0,-1 C -13,17.605051 -13.573822,17 -14.3125,17 l -5.34375,0 z M -19,21 l 2,4 2,-4 -0.5,0 -1.5,3 -1.5,-3 -0.5,0 z m -9.65625,5 C -29.394949,26 -30,26.605072 -30,27.34375 l 0,1 C -30,27.605072 -29.394949,27 -28.65625,27 L -21,27 l 0,-1 -7.65625,0 z M -13,26 l 0,1 7.6875,0 C -4.573801,27 -4,27.605072 -4,28.34375 l 0,-1 C -4,26.605072 -4.573801,26 -5.3125,26 L -13,26 z m -11,4.5 -3,1.5 0,1 4,-2 -1,-0.5 z m 5.0625,0 C -18.978603,30.659761 -19,30.827407 -19,31 c 0,1.104598 0.895402,2 2,2 1.104598,0 2,-0.895402 2,-2 0,-0.172593 -0.0214,-0.340239 -0.0625,-0.5 -0.221957,0.86271 -1.005495,1.5 -1.9375,1.5 -0.932005,0 -1.715543,-0.63729 -1.9375,-1.5 z m 8.9375,0 -1,0.5 4,2 0,-1 -3,-1.5 z m -8.5,9.5 -0.5,1 4,0 -0.5,-1 -3,0 z"
         style="opacity:0.1;color:#000000;fill:#000000;fill-opacity:1;fill-rule:nonzero;stroke:none;stroke-width:1;marker:none;visibility:visible;display:inline;overflow:visible;enable-background:accumulate" />
    </g>
  </g>
</svg>
