<?xml version="1.0" encoding="UTF-8" standalone="no"?>
<!-- Created with Inkscape (http://www.inkscape.org/) -->

<svg
   xmlns:dc="http://purl.org/dc/elements/1.1/"
   xmlns:cc="http://creativecommons.org/ns#"
   xmlns:rdf="http://www.w3.org/1999/02/22-rdf-syntax-ns#"
   xmlns:svg="http://www.w3.org/2000/svg"
   xmlns="http://www.w3.org/2000/svg"
   xmlns:xlink="http://www.w3.org/1999/xlink"
   xmlns:sodipodi="http://sodipodi.sourceforge.net/DTD/sodipodi-0.dtd"
   xmlns:inkscape="http://www.inkscape.org/namespaces/inkscape"
   inkscape:export-ydpi="90.000000"
   inkscape:export-xdpi="90.000000"
   width="480"
   height="300"
   id="svg11300"
   sodipodi:version="0.32"
   inkscape:version="0.92.2 5c3e80d, 2017-08-06"
   sodipodi:docname="aoe-2-hd.svg"
   inkscape:output_extension="org.inkscape.output.svg.inkscape"
   version="1.0"
   style="display:inline;enable-background:new;opacity:1"
   inkscape:export-filename="/home/sam/moka-next-template.png">
  <sodipodi:namedview
     stroke="#ef6428"
     fill="#f5c200"
     id="base"
     pagecolor="#777777"
     bordercolor="#666666"
     borderopacity="0.25490196"
     inkscape:pageopacity="0"
     inkscape:pageshadow="2"
     inkscape:zoom="1"
     inkscape:cx="171.00037"
     inkscape:cy="112.26759"
     inkscape:current-layer="layer7"
     showgrid="false"
     inkscape:grid-bbox="true"
     inkscape:document-units="px"
     inkscape:showpageshadow="false"
     inkscape:window-width="1364"
     inkscape:window-height="700"
     inkscape:window-x="0"
     inkscape:window-y="28"
     width="400px"
     height="300px"
     inkscape:snap-nodes="true"
     inkscape:snap-bbox="true"
     gridtolerance="10000"
     inkscape:object-nodes="true"
     inkscape:snap-grids="true"
     showguides="true"
     inkscape:guide-bbox="true"
     inkscape:window-maximized="1"
     inkscape:bbox-nodes="true"
     inkscape:bbox-paths="true"
     inkscape:snap-bbox-edge-midpoints="true"
     inkscape:snap-bbox-midpoints="true"
     inkscape:snap-global="true">
    <inkscape:grid
       spacingy="1"
       spacingx="1"
       id="grid5883"
       type="xygrid"
       enabled="true"
       visible="true"
       empspacing="4"
       snapvisiblegridlinesonly="true"
       dotted="false"
       color="#000000"
       opacity="0.1254902"
       empcolor="#203ef3"
       empopacity="0.36470588"
       originx="0"
       originy="0" />
    <inkscape:grid
       type="xygrid"
       id="grid11592"
       empspacing="8"
       visible="true"
       enabled="false"
       spacingx="0.5"
       spacingy="0.5"
       color="#ff0000"
       opacity="0.1254902"
       empcolor="#ff0000"
       empopacity="0.25098039"
       snapvisiblegridlinesonly="true"
       dotted="true"
       originx="0"
       originy="0" />
  </sodipodi:namedview>
  <defs
     id="defs3">
    <linearGradient
       inkscape:collect="always"
       xlink:href="#outerBackgroundGradient-1-263-32-840-411-307"
       id="linearGradient4254-210-448-674-325-781"
       x1="35"
       y1="156"
       x2="253"
       y2="156"
       gradientUnits="userSpaceOnUse"
       gradientTransform="matrix(0,-1,1,0,-12,300)" />
    <linearGradient
       id="outerBackgroundGradient-1-263-32-840-411-307">
      <stop
         style="stop-color:#913734;stop-opacity:1;opacity:1"
         offset="0"
         id="stop29862" />
      <stop
         style="stop-color:#d87570;stop-opacity:1;opacity:1"
         offset="1"
         id="stop29864" />
    </linearGradient>
    <linearGradient
       inkscape:collect="always"
       xlink:href="#outerBackgroundGradient-1-263-32-840-411-307"
       id="linearGradient4256-394"
       x1="417"
       y1="148"
       x2="431"
       y2="148"
       gradientUnits="userSpaceOnUse"
       gradientTransform="rotate(-90,424,148)" />
    <linearGradient
       inkscape:collect="always"
       xlink:href="#outerBackgroundGradient-1-263-32-840-411-307"
       id="linearGradient3870-676"
       gradientUnits="userSpaceOnUse"
       gradientTransform="rotate(-90,428,112)"
       x1="418"
       y1="112"
       x2="438"
       y2="112" />
    <linearGradient
       inkscape:collect="always"
       xlink:href="#outerBackgroundGradient-1-263-32-840-411-307"
       id="linearGradient4260-863"
       x1="418"
       y1="68"
       x2="446"
       y2="68"
       gradientUnits="userSpaceOnUse"
       gradientTransform="rotate(-90,432,68)" />
    <linearGradient
       inkscape:collect="always"
       xlink:href="#outerBackgroundGradient-1-263-32-840-411-307"
       id="linearGradient4262-649"
       x1="292"
       y1="244"
       x2="332"
       y2="244"
       gradientUnits="userSpaceOnUse"
       gradientTransform="rotate(-90,312,244)" />
    <linearGradient
       inkscape:collect="always"
       xlink:href="#outerBackgroundGradient-1-263-32-840-411-307"
       id="linearGradient4266-818"
       x1="291"
       y1="172"
       x2="349"
       y2="172"
       gradientUnits="userSpaceOnUse"
       gradientTransform="rotate(-90,320,172)" />
    <linearGradient
       inkscape:collect="always"
       xlink:href="#outerBackgroundGradient-1-263-32-840-411-307"
       id="linearGradient4264-884-630"
       x1="293"
       y1="76"
       x2="379"
       y2="76"
       gradientUnits="userSpaceOnUse"
       gradientTransform="rotate(-90,336,76)" />
  </defs>
  <metadata
     id="metadata4">
    <rdf:RDF>
      <cc:Work
         rdf:about="">
        <dc:format>image/svg+xml</dc:format>
        <dc:type
           rdf:resource="http://purl.org/dc/dcmitype/StillImage" />
        <dc:creator>
          <cc:Agent>
            <dc:title>Sam Hewitt</dc:title>
          </cc:Agent>
        </dc:creator>
        <dc:source />
        <cc:license
           rdf:resource="" />
        <dc:title />
        <dc:subject>
          <rdf:Bag />
        </dc:subject>
        <dc:date />
        <dc:rights>
          <cc:Agent>
            <dc:title />
          </cc:Agent>
        </dc:rights>
        <dc:publisher>
          <cc:Agent>
            <dc:title />
          </cc:Agent>
        </dc:publisher>
        <dc:identifier />
        <dc:relation />
        <dc:language />
        <dc:coverage />
        <dc:description />
        <dc:contributor>
          <cc:Agent>
            <dc:title />
          </cc:Agent>
        </dc:contributor>
      </cc:Work>
      <cc:Work
         rdf:about="">
        <dc:format>image/svg+xml</dc:format>
        <dc:type
           rdf:resource="http://purl.org/dc/dcmitype/StillImage" />
      </cc:Work>
    </rdf:RDF>
  </metadata>
  <g
     style="display:inline;opacity:1"
     inkscape:groupmode="layer"
     inkscape:label="Icon"
     id="layer1">
    <g
       style="display:none;opacity:1"
       inkscape:label="Baseplate"
       id="layer7"
       inkscape:groupmode="layer">
      <text
         y="19.745117"
         xml:space="preserve"
         x="15.006836"
         style="font-style:normal;font-variant:normal;font-weight:normal;font-stretch:normal;line-height:0%;font-family:'DejaVu Sans';-inkscape-font-specification:'DejaVu Sans';display:inline;opacity:1;fill:#000000;fill-opacity:1;stroke:none;enable-background:new"
         inkscape:label="context"
         id="context"><tspan
           style="font-style:normal;font-variant:normal;font-weight:normal;font-stretch:normal;font-size:18px;line-height:1.25;font-family:'DejaVu Sans';-inkscape-font-specification:'DejaVu Sans';opacity:1"
           y="19.745117"
           x="15.006836"
           sodipodi:role="line"
           id="tspan3933">apps</tspan></text>
      <text
         y="19.745117"
         xml:space="preserve"
         x="122.48828"
         style="font-style:normal;font-variant:normal;font-weight:bold;font-stretch:normal;line-height:0%;font-family:'DejaVu Sans';-inkscape-font-specification:'DejaVu Sans Bold';text-align:start;writing-mode:lr-tb;text-anchor:start;display:inline;opacity:1;fill:#000000;fill-opacity:1;stroke:none;enable-background:new"
         inkscape:label="icon-name"
         id="icon-name"><tspan
           style="font-style:normal;font-variant:normal;font-weight:bold;font-stretch:normal;font-size:18px;line-height:1.25;font-family:'DejaVu Sans';-inkscape-font-specification:'DejaVu Sans Bold';opacity:1"
           y="19.745117"
           x="122.48828"
           sodipodi:role="line"
           id="tspan3937">aoe2-hd</tspan></text>
      <rect
         style="display:inline;overflow:visible;visibility:visible;opacity:1;fill:#edeeec;fill-opacity:1;fill-rule:nonzero;stroke:none;stroke-width:2;marker:none;enable-background:accumulate"
         id="rect16x16"
         width="16"
         height="16"
         x="416"
         y="140"
         inkscape:label="16x16" />
      <rect
         style="display:inline;overflow:visible;visibility:visible;opacity:1;fill:#d4d4d4;fill-opacity:1;fill-rule:nonzero;stroke:none;stroke-width:2;marker:none;enable-background:accumulate"
         id="rect24x24"
         width="24"
         height="24"
         x="416"
         y="100"
         inkscape:label="24x24" />
      <rect
         style="display:inline;overflow:visible;visibility:visible;opacity:1;fill:#edeeec;fill-opacity:1;fill-rule:nonzero;stroke:none;stroke-width:2;marker:none;enable-background:accumulate"
         id="rect32x32"
         width="32"
         height="32"
         x="416"
         y="52"
         inkscape:label="32x32" />
      <rect
         inkscape:label="22x22"
         y="101"
         x="417"
         height="22"
         width="22"
         id="rect22x22"
         style="display:inline;overflow:visible;visibility:visible;opacity:1;fill:#edeeec;fill-opacity:1;fill-rule:nonzero;stroke:none;stroke-width:2;marker:none;enable-background:accumulate" />
      <rect
         inkscape:label="48x48"
         y="220"
         x="288"
         height="48"
         width="48"
         id="rect48x48"
         style="display:inline;overflow:visible;visibility:visible;opacity:1;fill:#edeeec;fill-opacity:1;fill-rule:nonzero;stroke:none;stroke-width:2;marker:none;enable-background:accumulate" />
      <rect
         style="display:inline;overflow:visible;visibility:visible;opacity:1;fill:#edeeec;fill-opacity:1;fill-rule:nonzero;stroke:none;stroke-width:2;marker:none;enable-background:accumulate"
         id="rect256x256"
         width="256"
         height="256"
         x="16"
         y="28"
         inkscape:label="256x256" />
      <rect
         style="display:inline;overflow:visible;visibility:visible;opacity:1;fill:#edeeec;fill-opacity:1;fill-rule:nonzero;stroke:none;stroke-width:2;marker:none;enable-background:accumulate"
         id="rect64x64"
         width="64"
         height="64"
         x="288"
         y="140"
         inkscape:label="64x64" />
      <rect
         style="display:inline;overflow:visible;visibility:visible;opacity:1;fill:#edeeec;fill-opacity:1;fill-rule:nonzero;stroke:none;stroke-width:2;marker:none;enable-background:accumulate"
         id="rect96x96"
         width="96"
         height="96"
         x="288"
         y="28"
         inkscape:label="96x96" />
    </g>
    <g
       inkscape:groupmode="layer"
       id="layer4"
       inkscape:label="Shadow"
       style="display:inline;opacity:1"
       sodipodi:insensitive="true">
      <rect
         ry="50"
         y="47"
         x="34"
         height="220"
         width="220"
         id="rect4114"
         style="opacity:0.1;color:#bebebe;fill:#000000;fill-opacity:1;fill-rule:nonzero;stroke:none;stroke-width:0;marker:none;visibility:visible;display:inline;overflow:visible;enable-background:accumulate" />
      <rect
         style="opacity:0.1;color:#bebebe;fill:#000000;fill-opacity:1;fill-rule:nonzero;stroke:none;stroke-width:0;marker:none;visibility:visible;display:inline;overflow:visible;enable-background:accumulate"
         id="rect4120"
         width="30"
         height="30"
         x="417"
         y="54"
         ry="7" />
      <rect
         transform="scale(1,-1)"
         ry="9"
         y="-266"
         x="291"
         height="42"
         width="42"
         id="rect4122"
         style="opacity:0.1;color:#bebebe;fill:#000000;fill-opacity:1;fill-rule:nonzero;stroke:none;stroke-width:0;marker:none;visibility:visible;display:inline;overflow:visible;enable-background:accumulate" />
      <rect
         style="opacity:0.1;color:#bebebe;fill:#000000;fill-opacity:1;fill-rule:nonzero;stroke:none;stroke-width:0;marker:none;visibility:visible;display:inline;overflow:visible;enable-background:accumulate"
         id="rect4124"
         width="88"
         height="88"
         x="292"
         y="33"
         ry="18" />
      <rect
         ry="12.5"
         y="143"
         x="290"
         height="60"
         width="60"
         id="rect4126"
         style="opacity:0.1;color:#bebebe;fill:#000000;fill-opacity:1;fill-rule:nonzero;stroke:none;stroke-width:0;marker:none;visibility:visible;display:inline;overflow:visible;enable-background:accumulate" />
      <path
         id="path4268"
         d="m 422,101 c -2.77,0 -5,2.23 -5,5 l 0,12 c 0,2.77 2.23,5 5,5 l 12,0 c 2.77,0 5,-2.23 5,-5 l 0,-12 c 0,-2.77 -2.23,-5 -5,-5 z"
         style="opacity:0.1;color:#bebebe;fill:#000000;fill-opacity:1;fill-rule:nonzero;stroke:none;stroke-width:0;marker:none;visibility:visible;display:inline;overflow:visible;enable-background:accumulate"
         inkscape:connector-curvature="0"
         sodipodi:nodetypes="sssssssss" />
      <path
         id="path4270"
         d="m 419,140 c -1.662,0 -3,1.338 -3,3 l 0,10 c 0,1.662 1.338,3 3,3 l 10,0 c 1.662,0 3,-1.338 3,-3 l 0,-10 c 0,-1.662 -1.338,-3 -3,-3 z"
         style="opacity:0.1;color:#bebebe;fill:#000000;fill-opacity:1;fill-rule:nonzero;stroke:none;stroke-width:0;marker:none;visibility:visible;display:inline;overflow:visible;enable-background:accumulate"
         inkscape:connector-curvature="0"
         sodipodi:nodetypes="sssssssss" />
    </g>
    <g
       inkscape:groupmode="layer"
       id="layer2"
       inkscape:label="Background"
       style="display:inline;opacity:1">
      <path
         style="color:#bebebe;fill:url(#linearGradient4254-210-448-674-325-781);fill-opacity:1.0;fill-rule:nonzero;stroke:none;stroke-width:2;marker:none;visibility:visible;display:inline;overflow:visible;enable-background:accumulate;opacity:1"
         d="M 84 46.5 C 56.568735 46.5 34.5 68.568732 34.5 96 L 34.5 216 C 34.5 243.43127 56.568735 265.5 84 265.5 L 204 265.5 C 231.43127 265.5 253.5 243.43127 253.5 216 L 253.5 96 C 253.5 68.568732 231.43127 46.5 204 46.5 L 84 46.5 z "
         id="path4200" />
      <path
         style="color:#bebebe;fill:url(#linearGradient4256-394);fill-opacity:1.0;fill-rule:nonzero;stroke:none;stroke-width:2;marker:none;visibility:visible;display:inline;overflow:visible;enable-background:accumulate;opacity:1"
         d="M 419 140.5 C 417.6156 140.5 416.5 141.6156 416.5 143 L 416.5 153 C 416.5 154.3844 417.6156 155.5 419 155.5 L 429 155.5 C 430.3844 155.5 431.5 154.3844 431.5 153 L 431.5 143 C 431.5 141.6156 430.3844 140.5 429 140.5 L 419 140.5 z "
         id="path4202" />
      <path
         style="color:#bebebe;fill:url(#linearGradient3870-676);fill-opacity:1.0;fill-rule:nonzero;stroke:none;stroke-width:2;marker:none;visibility:visible;display:inline;overflow:visible;enable-background:accumulate;opacity:1"
         d="M 422 101.5 C 419.50301 101.5 417.5 103.50301 417.5 106 L 417.5 118 C 417.5 120.49699 419.50301 122.5 422 122.5 L 434 122.5 C 436.49699 122.5 438.5 120.49699 438.5 118 L 438.5 106 C 438.5 103.50301 436.49699 101.5 434 101.5 L 422 101.5 z "
         id="path4204" />
      <path
         style="color:#bebebe;fill:url(#linearGradient4260-863);fill-opacity:1.0;fill-rule:nonzero;stroke:none;stroke-width:2;marker:none;visibility:visible;display:inline;overflow:visible;enable-background:accumulate;opacity:1"
         d="M 424 53.5 C 420.39346 53.5 417.5 56.393464 417.5 60 L 417.5 76 C 417.5 79.606536 420.39346 82.5 424 82.5 L 440 82.5 C 443.60654 82.5 446.5 79.606536 446.5 76 L 446.5 60 C 446.5 56.393464 443.60654 53.5 440 53.5 L 424 53.5 z "
         id="path4206" />
      <path
         style="color:#bebebe;fill:url(#linearGradient4262-649);fill-opacity:1.0;fill-rule:nonzero;stroke:none;stroke-width:2;marker:none;visibility:visible;display:inline;overflow:visible;enable-background:accumulate;opacity:1"
         d="M 300 223.5 C 295.28469 223.5 291.5 227.28469 291.5 232 L 291.5 256 C 291.5 260.71531 295.28469 264.5 300 264.5 L 324 264.5 C 328.71531 264.5 332.5 260.71531 332.5 256 L 332.5 232 C 332.5 227.28469 328.71531 223.5 324 223.5 L 300 223.5 z "
         id="path4208" />
      <path
         style="color:#bebebe;fill:url(#linearGradient4264-884-630);fill-opacity:1.0;fill-rule:nonzero;stroke:none;stroke-width:2;marker:none;visibility:visible;display:inline;overflow:visible;enable-background:accumulate;opacity:1"
         d="M 310 32.5 C 300.29745 32.5 292.5 40.297452 292.5 50 L 292.5 102 C 292.5 111.70255 300.29745 119.5 310 119.5 L 362 119.5 C 371.70255 119.5 379.5 111.70255 379.5 102 L 379.5 50 C 379.5 40.297452 371.70255 32.5 362 32.5 L 310 32.5 z "
         id="path4210" />
      <path
         style="color:#bebebe;fill:url(#linearGradient4266-818);fill-opacity:1.0;fill-rule:nonzero;stroke:none;stroke-width:2;marker:none;visibility:visible;display:inline;overflow:visible;enable-background:accumulate;opacity:1"
         d="M 302.5 142.5 C 295.84498 142.5 290.5 147.84498 290.5 154.5 L 290.5 189.5 C 290.5 196.15502 295.84498 201.5 302.5 201.5 L 337.5 201.5 C 344.15502 201.5 349.5 196.15502 349.5 189.5 L 349.5 154.5 C 349.5 147.84498 344.15502 142.5 337.5 142.5 L 302.5 142.5 z "
         id="path4212" />
    </g>
    <g
       inkscape:groupmode="layer"
       id="layer6"
       inkscape:label="Symbols"
       style="display:inline;opacity:1">
      <path
         style="opacity:0.2;fill:#000000;stroke-width:0.3013137"
         inkscape:connector-curvature="0"
         d="m 86.53173,85.00149 c -0.09778,-0.002 -0.195845,-0.002 -0.293029,0.002 -1.215159,0.0413 -2.423435,0.49615 -3.405674,1.37701 -2.244932,2.01373 -2.457232,5.49405 -0.474222,7.77377 1.313831,1.51031 3.260957,2.10878 5.078916,1.75868 l 17.293879,19.88079 -15.061808,13.51134 7.232354,8.31365 c 2.897372,-6.48817 6.654364,-11.9889 11.190884,-16.59389 l 2.06613,10.9881 c 7.50265,-1.90989 14.90065,-3.20734 22.23586,-3.90875 l -7.14982,-8.21952 -11.55957,-3.79033 c 5.11808,-3.91695 10.98368,-6.97459 17.52772,-9.2531 L 123.9804,98.52607 108.91948,112.03681 91.601074,92.12718 c 0.535226,-1.77174 0.184491,-3.77424 -1.112304,-5.26511 -1.045922,-1.20241 -2.493706,-1.83094 -3.957335,-1.8607 z m 114.937,0 c -1.46372,0.0304 -2.91089,0.65829 -3.95649,1.8604 -1.2971,1.49087 -1.64875,3.49367 -1.11315,5.26602 l -17.31842,19.90902 -15.06101,-13.51104 -7.23233,8.31517 c 6.5434,2.27851 12.40881,5.33585 17.52778,9.2525 l -11.55966,3.79093 -6.95335,7.99301 c 7.38841,0.56568 14.76106,1.73256 22.16177,3.4797 l 1.94289,-10.33285 c 4.5368,4.605 8.29447,10.10573 11.19177,16.5939 l 7.23154,-8.31365 -15.0616,-13.51134 17.29391,-19.88079 c 1.81802,0.3501 3.76545,-0.24838 5.07929,-1.75868 1.98238,-2.27972 1.77007,-5.76004 -0.47425,-7.77378 -0.98228,-0.88055 -2.19056,-1.33601 -3.40573,-1.377 -0.0975,-0.003 -0.19517,-0.004 -0.29296,-0.002 z m -55.74223,48.12988 c -11.82867,-0.0298 -23.7611,1.58682 -36.06997,4.88707 -0.61177,27.46358 10.31092,63.5669 35.42322,78.91739 24.30772,-14.9178 36.59895,-51.58893 36.04583,-78.92012 -11.88552,-3.187 -23.59467,-4.85459 -35.39938,-4.88434 z m -35.03631,46.60864 -25.973424,29.85929 -3.647872,19.40073 18.508456,-6.07097 20.4789,-23.54267 c -3.84521,-6.10558 -6.95069,-12.76197 -9.36606,-19.64638 z m 68.2341,1.85524 c -2.59844,6.75233 -5.85369,13.249 -9.77936,19.17239 l 19.27777,22.16142 18.50789,6.07097 -3.64787,-19.40073 -24.35883,-28.00466 z"
         id="path62998" />
      <path
         id="path63000"
         d="m 314.4494,50.000565 c -0.0367,-7.5e-4 -0.0734,-7.5e-4 -0.10988,7.5e-4 -0.45569,0.01549 -0.90879,0.186056 -1.27713,0.516379 -0.84185,0.755148 -0.92146,2.060268 -0.17783,2.915162 0.49268,0.566366 1.22286,0.790792 1.90459,0.659506 l 6.4852,7.455292 -5.64817,5.066751 2.71213,3.117617 c 1.08651,-2.433062 2.49538,-4.495835 4.19659,-6.222705 l 0.77479,4.120535 c 2.81349,-0.716209 5.58774,-1.202752 8.33844,-1.46578 l -2.68118,-3.082319 -4.33484,-1.421373 c 1.91928,-1.468856 4.11888,-2.615471 6.57289,-3.469912 l -2.71235,-3.118187 -5.64784,5.066525 -6.4944,-7.466108 c 0.20071,-0.664402 0.0692,-1.41534 -0.41712,-1.974416 -0.39222,-0.450903 -0.93514,-0.686602 -1.484,-0.697762 z m 43.10136,0 c -0.54889,0.0114 -1.09158,0.246859 -1.48368,0.69765 -0.48641,0.559076 -0.61828,1.310126 -0.41743,1.974757 l -6.49441,7.465879 -5.64787,-5.066638 -2.71213,3.118189 c 2.45379,0.85444 4.6533,2.000942 6.57292,3.469685 l -4.33486,1.421599 -2.60752,2.997377 c 2.77065,0.212129 5.5354,0.64971 8.31066,1.304886 l 0.72859,-3.874817 c 1.70129,1.726874 3.11042,3.789647 4.19691,6.222711 l 2.71182,-3.117618 -5.64809,-5.06675 6.48521,-7.455294 c 0.68176,0.131287 1.41205,-0.09314 1.90473,-0.659505 0.7434,-0.854894 0.66378,-2.160014 -0.17784,-2.915166 -0.36836,-0.330206 -0.82146,-0.501005 -1.27715,-0.516375 -0.0366,-0.0011 -0.0732,-0.0015 -0.10986,-7.5e-4 z m -20.90333,18.048698 c -4.43574,-0.01117 -8.91041,0.595057 -13.52623,1.832651 -0.22941,10.298838 3.86659,23.837585 13.2837,29.594015 9.11539,-5.59418 13.7246,-19.345846 13.51718,-29.595039 -4.45707,-1.195124 -8.84799,-1.82047 -13.27476,-1.831627 z M 323.50882,85.527496 313.76879,96.724724 312.40084,104 l 6.94067,-2.27661 7.67958,-8.828498 c -1.44195,-2.289591 -2.6065,-4.785743 -3.51227,-7.367396 z m 25.58778,0.69571 c -0.97442,2.53213 -2.19513,4.968381 -3.66726,7.189655 l 7.22916,8.310529 6.94046,2.27661 -1.36795,-7.275276 -9.13456,-10.501738 z"
         inkscape:connector-curvature="0"
         style="opacity:0.2;fill:#000000;stroke-width:0.1129926" />
      <path
         id="path63002"
         d="m 305.63296,155.00044 c -0.0245,-5e-4 -0.0489,-5e-4 -0.0732,5e-4 -0.3038,0.0103 -0.60586,0.12404 -0.85142,0.34425 -0.56123,0.50343 -0.6143,1.37351 -0.11855,1.94343 0.32845,0.37758 0.81523,0.5272 1.26972,0.43968 l 4.32345,4.97017 -3.76543,3.37782 1.80808,2.07841 c 0.72433,-1.62204 1.66358,-2.99721 2.79771,-4.14846 l 0.51653,2.74701 c 1.87565,-0.47747 3.72514,-0.80183 5.55894,-0.97718 l -1.78745,-2.05487 -2.88988,-0.94758 c 1.27951,-0.97923 2.74591,-1.74364 4.38191,-2.31326 l -1.80823,-2.07879 -3.76521,3.37767 -4.32958,-4.97738 c 0.1338,-0.44294 0.0461,-0.94356 -0.27808,-1.31628 -0.26148,-0.3006 -0.62343,-0.45773 -0.98933,-0.46517 z m 28.73413,0 c -0.36592,0.008 -0.72772,0.16457 -0.98911,0.4651 -0.32428,0.37272 -0.41219,0.87341 -0.27829,1.3165 l -4.32959,4.97723 -3.76523,-3.37774 -1.80808,2.07878 c 1.63585,0.56963 3.10219,1.33396 4.38193,2.31312 l -2.8899,0.94772 -1.73834,1.99825 c 1.84709,0.14142 3.69025,0.43314 5.54042,0.86992 l 0.48573,-2.5832 c 1.13418,1.15124 2.0736,2.52642 2.79792,4.14846 l 1.80788,-2.07841 -3.76538,-3.37782 4.32346,-4.97017 c 0.4545,0.0875 0.94136,-0.0621 1.26981,-0.43968 0.4956,-0.56992 0.44252,-1.44 -0.11856,-1.94343 -0.24557,-0.22014 -0.54764,-0.334 -0.85143,-0.34425 -0.0244,-6.7e-4 -0.0488,-0.001 -0.0732,-5e-4 z m -13.9355,12.03242 c -2.95715,-0.007 -5.94025,0.39671 -9.01745,1.22176 -0.15294,6.86587 2.57772,15.89167 8.85576,19.72927 6.07691,-3.72943 9.1497,-12.89718 9.01142,-19.72995 -2.97136,-0.79675 -5.89863,-1.21364 -8.8498,-1.22108 z m -8.75904,11.65211 -6.49333,7.46479 -0.91196,4.85017 4.62709,-1.51773 5.1197,-5.88565 c -0.96129,-1.52639 -1.73766,-3.19048 -2.3415,-4.91158 z m 17.05846,0.4638 c -0.64961,1.68808 -1.46342,3.31225 -2.44483,4.79309 l 4.81942,5.54034 4.62695,1.51773 -0.91196,-4.85017 -6.08968,-7.00113 z"
         inkscape:connector-curvature="0"
         style="display:inline;opacity:0.2;fill:#000000;stroke-width:0.07532812;enable-background:new" />
      <path
         id="path63004"
         d="m 301.62378,232.00026 c -0.0177,-3.6e-4 -0.0353,-3.6e-4 -0.0529,3.6e-4 -0.21942,0.007 -0.43757,0.0896 -0.61492,0.24863 -0.40534,0.36359 -0.44366,0.99198 -0.0856,1.40359 0.23721,0.2727 0.58878,0.38076 0.91702,0.31755 l 3.12251,3.58958 -2.71949,2.43955 1.30584,1.50108 c 0.52313,-1.17148 1.20148,-2.16466 2.02058,-2.99612 l 0.37305,1.98396 c 1.35464,-0.34484 2.69039,-0.57911 4.0148,-0.70575 l -1.29094,-1.48408 -2.08714,-0.68436 c 0.92409,-0.70723 1.98316,-1.2593 3.16472,-1.6707 l -1.30594,-1.50135 -2.71933,2.43944 -3.12694,-3.59479 c 0.0966,-0.3199 0.0333,-0.68147 -0.20083,-0.95065 -0.18885,-0.2171 -0.45026,-0.33059 -0.71452,-0.33596 z m 20.75252,0 c -0.26428,0.006 -0.52558,0.11886 -0.71436,0.33591 -0.23421,0.26919 -0.2977,0.6308 -0.20099,0.95081 l -3.12694,3.59468 -2.71935,-2.43949 -1.30584,1.50135 c 1.18146,0.4114 2.24048,0.96342 3.16474,1.67059 l -2.08715,0.68447 -1.25548,1.44318 c 1.33402,0.10214 2.66519,0.31283 4.00143,0.62828 l 0.35081,-1.86565 c 0.81913,0.83145 1.49761,1.82464 2.02073,2.99612 l 1.30569,-1.50108 -2.71945,-2.43954 3.12251,-3.58959 c 0.32826,0.0632 0.67988,-0.0448 0.91709,-0.31754 0.35794,-0.41161 0.3196,-1.04001 -0.0856,-1.4036 -0.17736,-0.15899 -0.39552,-0.24122 -0.61493,-0.24862 -0.0176,-4.9e-4 -0.0352,-7.3e-4 -0.0529,-3.7e-4 z m -10.06457,8.69012 c -2.13573,-0.005 -4.2902,0.28651 -6.51263,0.88238 -0.11046,4.95871 1.86169,11.47737 6.39585,14.24898 4.3889,-2.69349 6.60814,-9.31467 6.50827,-14.24947 -2.14599,-0.57543 -4.26013,-0.87652 -6.39154,-0.88189 z m -6.326,8.41545 -4.68965,5.39125 -0.65864,3.50292 3.3418,-1.09614 3.69758,-4.25077 c -0.69427,-1.10239 -1.25498,-2.30424 -1.69109,-3.54726 z m 12.32005,0.33496 c -0.46917,1.21918 -1.05692,2.39219 -1.76572,3.46169 l 3.48071,4.00138 3.3417,1.09614 -0.65865,-3.50292 -4.39812,-5.05639 z"
         inkscape:connector-curvature="0"
         style="display:inline;opacity:0.2;fill:#000000;stroke-width:0.05440387;enable-background:new" />
      <path
         id="path63006"
         d="m 424.81645,60.000182 c -0.0122,-2.49e-4 -0.0244,-2.49e-4 -0.0366,2.49e-4 -0.15191,0.0048 -0.30293,0.06203 -0.42571,0.172129 -0.28062,0.251716 -0.30715,0.686755 -0.0593,0.971716 0.16423,0.188792 0.40762,0.263603 0.63486,0.219842 l 2.16174,2.485094 -1.88272,1.688919 0.90404,1.039209 c 0.36217,-0.811025 0.8318,-1.498611 1.39886,-2.074237 l 0.25827,1.373511 c 0.93783,-0.238736 1.86258,-0.400923 2.77948,-0.488596 l -0.89373,-1.02744 -1.44494,-0.473788 c 0.63975,-0.489621 1.37295,-0.871823 2.19096,-1.156638 l -0.90412,-1.039396 -1.88261,1.688843 -2.1648,-2.488701 c 0.0669,-0.221469 0.0231,-0.471787 -0.13904,-0.658142 -0.13074,-0.1503 -0.31172,-0.22887 -0.49467,-0.232588 z m 14.36713,0 c -0.18296,0.0042 -0.36386,0.08229 -0.49456,0.232553 -0.16214,0.186362 -0.2061,0.436708 -0.13914,0.658253 l -2.16481,2.488624 -1.88262,-1.688877 -0.90405,1.039396 c 0.81794,0.284815 1.5511,0.666983 2.19098,1.156562 l -1.44495,0.473864 -0.86918,0.999124 c 0.92355,0.07071 1.84513,0.216575 2.77022,0.434963 l 0.24287,-1.291603 c 0.56709,0.575619 1.0368,1.263212 1.39896,2.074236 l 0.90394,-1.039209 -1.88269,-1.688912 2.16173,-2.4851 c 0.22726,0.04375 0.47069,-0.03102 0.63491,-0.219836 0.24781,-0.28496 0.22126,-0.720006 -0.0593,-0.971723 -0.12279,-0.11007 -0.27382,-0.166998 -0.42572,-0.172121 -0.0122,-3.39e-4 -0.0244,-5.05e-4 -0.0366,-2.56e-4 z m -6.96778,6.016236 c -1.47858,-0.0035 -2.97014,0.198353 -4.50874,0.610879 -0.0765,3.432952 1.28886,7.94587 4.42789,9.864677 3.03847,-1.864724 4.57487,-6.448617 4.50573,-9.865017 -1.48569,-0.398374 -2.94932,-0.606821 -4.42491,-0.610539 z m -4.37954,5.82608 -3.24668,3.732404 L 424.1336,78 l 2.31356,-0.758866 2.55986,-2.942841 c -0.48065,-0.763192 -0.86883,-1.595242 -1.17076,-2.455795 z m 8.52927,0.231896 c -0.32481,0.844047 -0.73171,1.656131 -1.22242,2.396554 l 2.40972,2.770186 2.31348,0.758866 -0.45598,-2.425098 -3.04486,-3.500577 z"
         inkscape:connector-curvature="0"
         style="display:inline;opacity:0.2;fill:#000000;stroke-width:0.03766422;enable-background:new" />
      <path
         sodipodi:nodetypes="cccccc"
         id="path63008"
         d="m 428.04871,107.00006 c -1.70136,-0.004 -3.41765,0.22721 -5.18807,0.69977 -0.088,3.93251 1.48305,9.10214 5.09505,11.30017 3.49627,-2.13608 5.26416,-7.38701 5.1846,-11.30056 -1.70954,-0.45635 -3.3937,-0.69512 -5.09161,-0.69938 z"
         inkscape:connector-curvature="0"
         style="display:inline;opacity:0.2;fill:#000000;stroke-width:0.04324197;enable-background:new" />
      <path
         style="display:inline;opacity:0.2;fill:#000000;stroke-width:0.02882795;enable-background:new"
         inkscape:connector-curvature="0"
         d="m 424.03247,145.00005 c -1.13424,-0.003 -2.27843,0.15147 -3.45871,0.46651 -0.0587,2.62167 0.9887,6.06809 3.3967,7.53344 2.33084,-1.42405 3.50943,-4.92467 3.45639,-7.5337 -1.13968,-0.30423 -2.26246,-0.46341 -3.3944,-0.46625 z"
         id="path63010"
         sodipodi:nodetypes="cccccc" />
      <path
         id="path956"
         d="m 86.53173,84.00149 c -0.09778,-0.002 -0.195845,-0.002 -0.293029,0.002 -1.215159,0.0413 -2.423435,0.49615 -3.405674,1.37701 -2.244932,2.01373 -2.457232,5.49405 -0.474222,7.77377 1.313831,1.51031 3.260957,2.10878 5.078916,1.75868 l 17.293879,19.88079 -15.061808,13.51134 7.232354,8.31365 c 2.897372,-6.48817 6.654364,-11.9889 11.190884,-16.59389 l 2.06613,10.9881 c 7.50265,-1.90989 14.90065,-3.20734 22.23586,-3.90875 l -7.14982,-8.21952 -11.55957,-3.79033 c 5.11808,-3.91695 10.98368,-6.97459 17.52772,-9.2531 L 123.9804,97.52607 108.91948,111.03681 91.601074,91.12718 c 0.535226,-1.77174 0.184491,-3.77424 -1.112304,-5.26511 -1.045922,-1.20241 -2.493706,-1.83094 -3.957335,-1.8607 z m 114.937,0 c -1.46372,0.0304 -2.91089,0.65829 -3.95649,1.8604 -1.2971,1.49087 -1.64875,3.49367 -1.11315,5.26602 l -17.31842,19.90902 -15.06101,-13.51104 -7.23233,8.31517 c 6.5434,2.27851 12.40881,5.33585 17.52778,9.2525 l -11.55966,3.79093 -6.95335,7.99301 c 7.38841,0.56568 14.76106,1.73256 22.16177,3.4797 l 1.94289,-10.33285 c 4.5368,4.605 8.29447,10.10573 11.19177,16.5939 l 7.23154,-8.31365 -15.0616,-13.51134 17.29391,-19.88079 c 1.81802,0.3501 3.76545,-0.24838 5.07929,-1.75868 1.98238,-2.27972 1.77007,-5.76004 -0.47425,-7.77378 -0.98228,-0.88055 -2.19056,-1.33601 -3.40573,-1.377 -0.0975,-0.003 -0.19517,-0.004 -0.29296,-0.002 z m -55.74223,48.12988 c -11.82867,-0.0298 -23.7611,1.58682 -36.06997,4.88707 -0.61177,27.46358 10.31092,63.5669 35.42322,78.91739 24.30772,-14.9178 36.59895,-51.58893 36.04583,-78.92012 -11.88552,-3.187 -23.59467,-4.85459 -35.39938,-4.88434 z m -35.03631,46.60864 -25.973424,29.85929 -3.647872,19.40073 18.508456,-6.07097 20.4789,-23.54267 c -3.84521,-6.10558 -6.95069,-12.76197 -9.36606,-19.64638 z m 68.2341,1.85524 c -2.59844,6.75233 -5.85369,13.249 -9.77936,19.17239 l 19.27777,22.16142 18.50789,6.07097 -3.64787,-19.40073 -24.35883,-28.00466 z"
         inkscape:connector-curvature="0"
         style="opacity:1;fill:#ffffff;stroke-width:0.3013137" />
      <path
         style="opacity:1;fill:#ffffff;stroke-width:0.1129926"
         inkscape:connector-curvature="0"
         d="m 314.4494,49.000565 c -0.0367,-7.5e-4 -0.0734,-7.5e-4 -0.10988,7.5e-4 -0.45569,0.01549 -0.90879,0.186056 -1.27713,0.516379 -0.84185,0.755148 -0.92146,2.060268 -0.17783,2.915162 0.49268,0.566366 1.22286,0.790792 1.90459,0.659506 l 6.4852,7.455292 -5.64817,5.066751 2.71213,3.117617 c 1.08651,-2.433062 2.49538,-4.495835 4.19659,-6.222705 l 0.77479,4.120535 c 2.81349,-0.716209 5.58774,-1.202752 8.33844,-1.46578 l -2.68118,-3.082319 -4.33484,-1.421373 c 1.91928,-1.468856 4.11888,-2.615471 6.57289,-3.469912 l -2.71235,-3.118187 -5.64784,5.066525 -6.4944,-7.466108 c 0.20071,-0.664402 0.0692,-1.41534 -0.41712,-1.974416 -0.39222,-0.450903 -0.93514,-0.686602 -1.484,-0.697762 z m 43.10136,0 c -0.54889,0.0114 -1.09158,0.246859 -1.48368,0.69765 -0.48641,0.559076 -0.61828,1.310126 -0.41743,1.974757 l -6.49441,7.465879 -5.64787,-5.066638 -2.71213,3.118189 c 2.45379,0.85444 4.6533,2.000942 6.57292,3.469685 l -4.33486,1.421599 -2.60752,2.997377 c 2.77065,0.212129 5.5354,0.64971 8.31066,1.304886 l 0.72859,-3.874817 c 1.70129,1.726874 3.11042,3.789647 4.19691,6.222711 l 2.71182,-3.117618 -5.64809,-5.06675 6.48521,-7.455294 c 0.68176,0.131287 1.41205,-0.09314 1.90473,-0.659505 0.7434,-0.854894 0.66378,-2.160014 -0.17784,-2.915166 -0.36836,-0.330206 -0.82146,-0.501005 -1.27715,-0.516375 -0.0366,-0.0011 -0.0732,-0.0015 -0.10986,-7.5e-4 z m -20.90333,18.048698 c -4.43574,-0.01117 -8.91041,0.595057 -13.52623,1.832651 -0.22941,10.298838 3.86659,23.837585 13.2837,29.594015 9.11539,-5.59418 13.7246,-19.345846 13.51718,-29.595039 -4.45707,-1.195124 -8.84799,-1.82047 -13.27476,-1.831627 z M 323.50882,84.527496 313.76879,95.724724 312.40084,103 l 6.94067,-2.27661 7.67958,-8.828498 c -1.44195,-2.289591 -2.6065,-4.785743 -3.51227,-7.367396 z m 25.58778,0.69571 c -0.97442,2.53213 -2.19513,4.968381 -3.66726,7.189655 l 7.22916,8.310529 6.94046,2.27661 -1.36795,-7.275276 -9.13456,-10.501738 z"
         id="path62913" />
      <path
         style="display:inline;opacity:1;fill:#ffffff;stroke-width:0.07532812;enable-background:new"
         inkscape:connector-curvature="0"
         d="m 305.63296,154.00044 c -0.0245,-5e-4 -0.0489,-5e-4 -0.0732,5e-4 -0.3038,0.0103 -0.60586,0.12404 -0.85142,0.34425 -0.56123,0.50343 -0.6143,1.37351 -0.11855,1.94343 0.32845,0.37758 0.81523,0.5272 1.26972,0.43968 l 4.32345,4.97017 -3.76543,3.37782 1.80808,2.07841 c 0.72433,-1.62204 1.66358,-2.99721 2.79771,-4.14846 l 0.51653,2.74701 c 1.87565,-0.47747 3.72514,-0.80183 5.55894,-0.97718 l -1.78745,-2.05487 -2.88988,-0.94758 c 1.27951,-0.97923 2.74591,-1.74364 4.38191,-2.31326 l -1.80823,-2.07879 -3.76521,3.37767 -4.32958,-4.97738 c 0.1338,-0.44294 0.0461,-0.94356 -0.27808,-1.31628 -0.26148,-0.3006 -0.62343,-0.45773 -0.98933,-0.46517 z m 28.73413,0 c -0.36592,0.008 -0.72772,0.16457 -0.98911,0.4651 -0.32428,0.37272 -0.41219,0.87341 -0.27829,1.3165 l -4.32959,4.97723 -3.76523,-3.37774 -1.80808,2.07878 c 1.63585,0.56963 3.10219,1.33396 4.38193,2.31312 l -2.8899,0.94772 -1.73834,1.99825 c 1.84709,0.14142 3.69025,0.43314 5.54042,0.86992 l 0.48573,-2.5832 c 1.13418,1.15124 2.0736,2.52642 2.79792,4.14846 l 1.80788,-2.07841 -3.76538,-3.37782 4.32346,-4.97017 c 0.4545,0.0875 0.94136,-0.0621 1.26981,-0.43968 0.4956,-0.56992 0.44252,-1.44 -0.11856,-1.94343 -0.24557,-0.22014 -0.54764,-0.334 -0.85143,-0.34425 -0.0244,-6.7e-4 -0.0488,-0.001 -0.0732,-5e-4 z m -13.9355,12.03242 c -2.95715,-0.007 -5.94025,0.39671 -9.01745,1.22176 -0.15294,6.86587 2.57772,15.89167 8.85576,19.72927 6.07691,-3.72943 9.1497,-12.89718 9.01142,-19.72995 -2.97136,-0.79675 -5.89863,-1.21364 -8.8498,-1.22108 z m -8.75904,11.65211 -6.49333,7.46479 -0.91196,4.85017 4.62709,-1.51773 5.1197,-5.88565 c -0.96129,-1.52639 -1.73766,-3.19048 -2.3415,-4.91158 z m 17.05846,0.4638 c -0.64961,1.68808 -1.46342,3.31225 -2.44483,4.79309 l 4.81942,5.54034 4.62695,1.51773 -0.91196,-4.85017 -6.08968,-7.00113 z"
         id="path62913-5" />
      <path
         style="display:inline;opacity:1;fill:#ffffff;stroke-width:0.05440387;enable-background:new"
         inkscape:connector-curvature="0"
         d="m 301.62378,231.00026 c -0.0177,-3.6e-4 -0.0353,-3.6e-4 -0.0529,3.6e-4 -0.21942,0.007 -0.43757,0.0896 -0.61492,0.24863 -0.40534,0.36359 -0.44366,0.99198 -0.0856,1.40359 0.23721,0.2727 0.58878,0.38076 0.91702,0.31755 l 3.12251,3.58958 -2.71949,2.43955 1.30584,1.50108 c 0.52313,-1.17148 1.20148,-2.16466 2.02058,-2.99612 l 0.37305,1.98396 c 1.35464,-0.34484 2.69039,-0.57911 4.0148,-0.70575 l -1.29094,-1.48408 -2.08714,-0.68436 c 0.92409,-0.70723 1.98316,-1.2593 3.16472,-1.6707 l -1.30594,-1.50135 -2.71933,2.43944 -3.12694,-3.59479 c 0.0966,-0.3199 0.0333,-0.68147 -0.20083,-0.95065 -0.18885,-0.2171 -0.45026,-0.33059 -0.71452,-0.33596 z m 20.75252,0 c -0.26428,0.006 -0.52558,0.11886 -0.71436,0.33591 -0.23421,0.26919 -0.2977,0.6308 -0.20099,0.95081 l -3.12694,3.59468 -2.71935,-2.43949 -1.30584,1.50135 c 1.18146,0.4114 2.24048,0.96342 3.16474,1.67059 l -2.08715,0.68447 -1.25548,1.44318 c 1.33402,0.10214 2.66519,0.31283 4.00143,0.62828 l 0.35081,-1.86565 c 0.81913,0.83145 1.49761,1.82464 2.02073,2.99612 l 1.30569,-1.50108 -2.71945,-2.43954 3.12251,-3.58959 c 0.32826,0.0632 0.67988,-0.0448 0.91709,-0.31754 0.35794,-0.41161 0.3196,-1.04001 -0.0856,-1.4036 -0.17736,-0.15899 -0.39552,-0.24122 -0.61493,-0.24862 -0.0176,-4.9e-4 -0.0352,-7.3e-4 -0.0529,-3.7e-4 z m -10.06457,8.69012 c -2.13573,-0.005 -4.2902,0.28651 -6.51263,0.88238 -0.11046,4.95871 1.86169,11.47737 6.39585,14.24898 4.3889,-2.69349 6.60814,-9.31467 6.50827,-14.24947 -2.14599,-0.57543 -4.26013,-0.87652 -6.39154,-0.88189 z m -6.326,8.41545 -4.68965,5.39125 -0.65864,3.50292 3.3418,-1.09614 3.69758,-4.25077 c -0.69427,-1.10239 -1.25498,-2.30424 -1.69109,-3.54726 z m 12.32005,0.33496 c -0.46917,1.21918 -1.05692,2.39219 -1.76572,3.46169 l 3.48071,4.00138 3.3417,1.09614 -0.65865,-3.50292 -4.39812,-5.05639 z"
         id="path62913-5-6" />
      <path
         style="display:inline;opacity:1;fill:#ffffff;stroke-width:0.03766422;enable-background:new"
         inkscape:connector-curvature="0"
         d="m 424.81645,59.000182 c -0.0122,-2.49e-4 -0.0244,-2.49e-4 -0.0366,2.49e-4 -0.15191,0.0048 -0.30293,0.06203 -0.42571,0.172129 -0.28062,0.251716 -0.30715,0.686755 -0.0593,0.971716 0.16423,0.188792 0.40762,0.263603 0.63486,0.219842 l 2.16174,2.485094 -1.88272,1.688919 0.90404,1.039209 c 0.36217,-0.811025 0.8318,-1.498611 1.39886,-2.074237 l 0.25827,1.373511 c 0.93783,-0.238736 1.86258,-0.400923 2.77948,-0.488596 l -0.89373,-1.02744 -1.44494,-0.473788 c 0.63975,-0.489621 1.37295,-0.871823 2.19096,-1.156638 l -0.90412,-1.039396 -1.88261,1.688843 -2.1648,-2.488701 c 0.0669,-0.221469 0.0231,-0.471787 -0.13904,-0.658142 -0.13074,-0.1503 -0.31172,-0.22887 -0.49467,-0.232588 z m 14.36713,0 c -0.18296,0.0042 -0.36386,0.08229 -0.49456,0.232553 -0.16214,0.186362 -0.2061,0.436708 -0.13914,0.658253 l -2.16481,2.488624 -1.88262,-1.688877 -0.90405,1.039396 c 0.81794,0.284815 1.5511,0.666983 2.19098,1.156562 l -1.44495,0.473864 -0.86918,0.999124 c 0.92355,0.07071 1.84513,0.216575 2.77022,0.434963 l 0.24287,-1.291603 c 0.56709,0.575619 1.0368,1.263212 1.39896,2.074236 l 0.90394,-1.039209 -1.88269,-1.688912 2.16173,-2.4851 c 0.22726,0.04375 0.47069,-0.03102 0.63491,-0.219836 0.24781,-0.28496 0.22126,-0.720006 -0.0593,-0.971723 -0.12279,-0.11007 -0.27382,-0.166998 -0.42572,-0.172121 -0.0122,-3.39e-4 -0.0244,-5.05e-4 -0.0366,-2.56e-4 z m -6.96778,6.016236 c -1.47858,-0.0035 -2.97014,0.198353 -4.50874,0.610879 -0.0765,3.432952 1.28886,7.94587 4.42789,9.864677 3.03847,-1.864724 4.57487,-6.448617 4.50573,-9.865017 -1.48569,-0.398374 -2.94932,-0.606821 -4.42491,-0.610539 z m -4.37954,5.82608 -3.24668,3.732404 L 424.1336,77 l 2.31356,-0.758866 2.55986,-2.942841 c -0.48065,-0.763192 -0.86883,-1.595242 -1.17076,-2.455795 z m 8.52927,0.231896 c -0.32481,0.844047 -0.73171,1.656131 -1.22242,2.396554 l 2.40972,2.770186 2.31348,0.758866 -0.45598,-2.425098 -3.04486,-3.500577 z"
         id="path62913-5-6-2" />
      <path
         style="display:inline;opacity:1;fill:#ffffff;stroke-width:0.04324197;enable-background:new"
         inkscape:connector-curvature="0"
         d="m 428.04871,106.00006 c -1.70136,-0.004 -3.41765,0.22721 -5.18807,0.69977 -0.088,3.93251 1.48305,9.10214 5.09505,11.30017 3.49627,-2.13608 5.26416,-7.38701 5.1846,-11.30056 -1.70954,-0.45635 -3.3937,-0.69512 -5.09161,-0.69938 z"
         id="path62913-5-6-2-1"
         sodipodi:nodetypes="cccccc" />
      <path
         sodipodi:nodetypes="cccccc"
         id="path62996"
         d="m 424.03247,144.00005 c -1.13424,-0.003 -2.27843,0.15147 -3.45871,0.46651 -0.0587,2.62167 0.9887,6.06809 3.3967,7.53344 2.33084,-1.42405 3.50943,-4.92467 3.45639,-7.5337 -1.13968,-0.30423 -2.26246,-0.46341 -3.3944,-0.46625 z"
         inkscape:connector-curvature="0"
         style="display:inline;opacity:1;fill:#ffffff;stroke-width:0.02882795;enable-background:new" />
    </g>
    <g
       inkscape:groupmode="layer"
       id="layer5"
       inkscape:label="Highlights"
       style="display:inline;opacity:1"
       sodipodi:insensitive="true">
      <path
         style="opacity:0.12999998;color:#bebebe;fill:#ffffff;fill-opacity:1;fill-rule:nonzero;stroke:none;stroke-width:0;marker:none;visibility:visible;display:inline;overflow:visible;enable-background:accumulate"
         d="M 84,47 C 56.836703,47 35,68.836703 35,96 l 0,1 C 35,69.836703 56.836703,48 84,48 l 120,0 c 27.1633,0 49,21.836703 49,49 l 0,-1 C 253,68.836703 231.1633,47 204,47 L 84,47 z"
         id="rect3894"
         inkscape:connector-curvature="0" />
      <path
         style="opacity:0.12999998;color:#bebebe;fill:#ffffff;fill-opacity:1;fill-rule:nonzero;stroke:none;stroke-width:0;marker:none;visibility:visible;display:inline;overflow:visible;enable-background:accumulate"
         d="m 419,141 c -1.1253,0 -2,0.8747 -2,2 l 0,1 c 0,-1.1253 0.8747,-2 2,-2 l 10,0 c 1.1253,0 2,0.8747 2,2 l 0,-1 c 0,-1.1253 -0.8747,-2 -2,-2 l -10,0 z"
         id="rect3896"
         inkscape:connector-curvature="0" />
      <path
         style="opacity:0.12999998;color:#bebebe;fill:#ffffff;fill-opacity:1;fill-rule:nonzero;stroke:none;stroke-width:0;marker:none;visibility:visible;display:inline;overflow:visible;enable-background:accumulate"
         d="m 422,102 c -2.2333,0 -4,1.7667 -4,4 l 0,1 c 0,-2.2333 1.7667,-4 4,-4 l 12,0 c 2.2333,0 4,1.7667 4,4 l 0,-1 c 0,-2.2333 -1.7667,-4 -4,-4 l -12,0 z"
         id="rect3898"
         inkscape:connector-curvature="0" />
      <path
         style="opacity:0.12999998;color:#bebebe;fill:#ffffff;fill-opacity:1;fill-rule:nonzero;stroke:none;stroke-width:0;marker:none;visibility:visible;display:inline;overflow:visible;enable-background:accumulate"
         d="m 424,54 c -3.3413,0 -6,2.658703 -6,6 l 0,1 c 0,-3.341297 2.6587,-6 6,-6 l 16,0 c 3.3413,0 6,2.658703 6,6 l 0,-1 c 0,-3.341297 -2.6587,-6 -6,-6 l -16,0 z"
         id="rect3900"
         inkscape:connector-curvature="0" />
      <path
         style="opacity:0.12999998;color:#bebebe;fill:#ffffff;fill-opacity:1;fill-rule:nonzero;stroke:none;stroke-width:0;marker:none;visibility:visible;display:inline;overflow:visible;enable-background:accumulate"
         d="m 300,224 c -4.4493,0 -8,3.5507 -8,8 l 0,1 c 0,-4.4493 3.5507,-8 8,-8 l 24,0 c 4.4493,0 8,3.5507 8,8 l 0,-1 c 0,-4.4493 -3.5507,-8 -8,-8 l -24,0 z"
         id="rect3902"
         inkscape:connector-curvature="0" />
      <path
         style="opacity:0.12999998;color:#bebebe;fill:#ffffff;fill-opacity:1;fill-rule:nonzero;stroke:none;stroke-width:0;marker:none;visibility:visible;display:inline;overflow:visible;enable-background:accumulate"
         d="m 310,33 c -9.4353,0 -17,7.564703 -17,17 l 0,1 c 0,-9.435297 7.5647,-17 17,-17 l 52,0 c 9.4353,0 17,7.564703 17,17 l 0,-1 c 0,-9.435297 -7.5647,-17 -17,-17 l -52,0 z"
         id="rect3904"
         inkscape:connector-curvature="0" />
      <path
         style="opacity:0.12999998;color:#bebebe;fill:#ffffff;fill-opacity:1;fill-rule:nonzero;stroke:none;stroke-width:0;marker:none;visibility:visible;display:inline;overflow:visible;enable-background:accumulate"
         d="m 302.5,143 c -6.3883,0 -11.5,5.1117 -11.5,11.5 l 0,1 c 0,-6.3883 5.1117,-11.5 11.5,-11.5 l 35,0 c 6.3883,0 11.5,5.1117 11.5,11.5 l 0,-1 c 0,-6.3883 -5.1117,-11.5 -11.5,-11.5 l -35,0 z"
         id="rect3906"
         inkscape:connector-curvature="0" />
      <path
         id="path4085"
         d="m 204,266 c 27.1633,0 49,-21.8367 49,-49 l 0,-1 c 0,27.1633 -21.8367,49 -49,49 L 84,265 C 56.8367,265 35,243.1633 35,216 l 0,1 c 0,27.1633 21.8367,49 49,49 l 120,0 z"
         style="opacity:0.5;color:#bebebe;fill:#000000;fill-opacity:1;fill-rule:nonzero;stroke:none;stroke-width:0;marker:none;visibility:visible;display:inline;overflow:visible;enable-background:accumulate"
         inkscape:connector-curvature="0" />
      <path
         id="path4087"
         d="m 429,156 c 1.1253,0 2,-0.8747 2,-2 l 0,-1 c 0,1.1253 -0.8747,2 -2,2 l -10,0 c -1.1253,0 -2,-0.8747 -2,-2 l 0,1 c 0,1.1253 0.8747,2 2,2 l 10,0 z"
         style="opacity:0.3;color:#bebebe;fill:#000000;fill-opacity:1;fill-rule:nonzero;stroke:none;stroke-width:0;marker:none;visibility:visible;display:inline;overflow:visible;enable-background:accumulate"
         inkscape:connector-curvature="0" />
      <path
         id="path4089"
         d="m 434,123 c 2.2333,0 4,-1.7667 4,-4 l 0,-1 c 0,2.2333 -1.7667,4 -4,4 l -12,0 c -2.2333,0 -4,-1.7667 -4,-4 l 0,1 c 0,2.2333 1.7667,4 4,4 l 12,0 z"
         style="opacity:0.3;color:#bebebe;fill:#000000;fill-opacity:1;fill-rule:nonzero;stroke:none;stroke-width:0;marker:none;visibility:visible;display:inline;overflow:visible;enable-background:accumulate"
         inkscape:connector-curvature="0" />
      <path
         id="path4091"
         d="m 440,83 c 3.3413,0 6,-2.6587 6,-6 l 0,-1 c 0,3.3413 -2.6587,6 -6,6 l -16,0 c -3.3413,0 -6,-2.6587 -6,-6 l 0,1 c 0,3.3413 2.6587,6 6,6 l 16,0 z"
         style="opacity:0.5;color:#bebebe;fill:#000000;fill-opacity:1;fill-rule:nonzero;stroke:none;stroke-width:0;marker:none;visibility:visible;display:inline;overflow:visible;enable-background:accumulate"
         inkscape:connector-curvature="0" />
      <path
         id="path4093"
         d="m 324,265 c 4.4493,0 8,-3.5507 8,-8 l 0,-1 c 0,4.4493 -3.5507,8 -8,8 l -24,0 c -4.4493,0 -8,-3.5507 -8,-8 l 0,1 c 0,4.4493 3.5507,8 8,8 l 24,0 z"
         style="opacity:0.5;color:#bebebe;fill:#000000;fill-opacity:1;fill-rule:nonzero;stroke:none;stroke-width:0;marker:none;visibility:visible;display:inline;overflow:visible;enable-background:accumulate"
         inkscape:connector-curvature="0" />
      <path
         id="path4095"
         d="m 362,120 c 9.4353,0 17,-7.5647 17,-17 l 0,-1 c 0,9.4353 -7.5647,17 -17,17 l -52,0 c -9.4353,0 -17,-7.5647 -17,-17 l 0,1 c 0,9.4353 7.5647,17 17,17 l 52,0 z"
         style="opacity:0.5;color:#bebebe;fill:#000000;fill-opacity:1;fill-rule:nonzero;stroke:none;stroke-width:0;marker:none;visibility:visible;display:inline;overflow:visible;enable-background:accumulate"
         inkscape:connector-curvature="0" />
      <path
         id="path4097"
         d="m 337.5,202 c 6.3883,0 11.5,-5.1117 11.5,-11.5 l 0,-1 c 0,6.3883 -5.1117,11.5 -11.5,11.5 l -35,0 c -6.3883,0 -11.5,-5.1117 -11.5,-11.5 l 0,1 c 0,6.3883 5.1117,11.5 11.5,11.5 l 35,0 z"
         style="opacity:0.5;color:#bebebe;fill:#000000;fill-opacity:1;fill-rule:nonzero;stroke:none;stroke-width:0;marker:none;visibility:visible;display:inline;overflow:visible;enable-background:accumulate"
         inkscape:connector-curvature="0" />
      <path
         inkscape:connector-curvature="0"
         id="path4280"
         d="M 84,265 C 56.836703,265 35,243.1633 35,216 l 0,-1 c 0,27.1633 21.836703,49 49,49 l 120,0 c 27.1633,0 49,-21.8367 49,-49 l 0,1 c 0,27.1633 -21.8367,49 -49,49 l -120,0 z"
         style="opacity:0.1;color:#bebebe;fill:#ffffff;fill-opacity:1;fill-rule:nonzero;stroke:none;stroke-width:0;marker:none;visibility:visible;display:inline;overflow:visible;enable-background:accumulate" />
      <path
         style="opacity:0.1;color:#bebebe;fill:#ffffff;fill-opacity:1;fill-rule:nonzero;stroke:none;stroke-width:0;marker:none;visibility:visible;display:inline;overflow:visible;enable-background:accumulate"
         d="m 300,264 c -4.4493,0 -8,-3.5507 -8,-8 l 0,-1 c 0,4.4493 3.5507,8 8,8 l 24,0 c 4.4493,0 8,-3.5507 8,-8 l 0,1 c 0,4.4493 -3.5507,8 -8,8 l -24,0 z"
         id="path4294"
         inkscape:connector-curvature="0" />
      <path
         style="opacity:0.1;color:#bebebe;fill:#ffffff;fill-opacity:1;fill-rule:nonzero;stroke:none;stroke-width:0;marker:none;visibility:visible;display:inline;overflow:visible;enable-background:accumulate"
         d="m 302.5,201 c -6.3883,0 -11.5,-5.1117 -11.5,-11.5 l 0,-1 c 0,6.3883 5.1117,11.5 11.5,11.5 l 35,0 c 6.3883,0 11.5,-5.1117 11.5,-11.5 l 0,1 c 0,6.3883 -5.1117,11.5 -11.5,11.5 l -35,0 z"
         id="path4296"
         inkscape:connector-curvature="0" />
      <path
         style="opacity:0.1;color:#bebebe;fill:#ffffff;fill-opacity:1;fill-rule:nonzero;stroke:none;stroke-width:0;marker:none;visibility:visible;display:inline;overflow:visible;enable-background:accumulate"
         d="m 310,119 c -9.4353,0 -17,-7.5647 -17,-17 l 0,-1 c 0,9.4353 7.5647,17 17,17 l 52,0 c 9.4353,0 17,-7.5647 17,-17 l 0,1 c 0,9.4353 -7.5647,17 -17,17 l -52,0 z"
         id="path4298"
         inkscape:connector-curvature="0" />
      <path
         style="opacity:0.1;color:#bebebe;fill:#ffffff;fill-opacity:1;fill-rule:nonzero;stroke:none;stroke-width:0;marker:none;visibility:visible;display:inline;overflow:visible;enable-background:accumulate"
         d="m 424,82 c -3.3413,0 -6,-2.658703 -6,-6 l 0,-1 c 0,3.341297 2.6587,6 6,6 l 16,0 c 3.3413,0 6,-2.658703 6,-6 l 0,1 c 0,3.341297 -2.6587,6 -6,6 l -16,0 z"
         id="path4300"
         inkscape:connector-curvature="0" />
      <path
         style="opacity:0.1;color:#bebebe;fill:#ffffff;fill-opacity:1;fill-rule:nonzero;stroke:none;stroke-width:0;marker:none;visibility:visible;display:inline;overflow:visible;enable-background:accumulate"
         d="m 422,122 c -2.2333,0 -4,-1.7667 -4,-4 l 0,-1 c 0,2.2333 1.7667,4 4,4 l 12,0 c 2.2333,0 4,-1.7667 4,-4 l 0,1 c 0,2.2333 -1.7667,4 -4,4 l -12,0 z"
         id="path4302"
         inkscape:connector-curvature="0" />
      <path
         style="opacity:0.1;color:#bebebe;fill:#ffffff;fill-opacity:1;fill-rule:nonzero;stroke:none;stroke-width:0;marker:none;visibility:visible;display:inline;overflow:visible;enable-background:accumulate"
         d="m 419,154.5 c -1.1253,0 -2,-0.8747 -2,-2 l 0,-1 c 0,1.1253 0.8747,2 2,2 l 10,0 c 1.1253,0 2,-0.8747 2,-2 l 0,1 c 0,1.1253 -0.8747,2 -2,2 l -10,0 z"
         id="path4304"
         inkscape:connector-curvature="0" />
    </g>
    <g
       inkscape:groupmode="layer"
       id="layer3"
       inkscape:label="Border"
       style="display:inline;opacity:1"
       sodipodi:insensitive="true">
      <path
         style="opacity:0.41000001;color:#bebebe;fill:#000000;fill-opacity:1;fill-rule:nonzero;stroke:none;stroke-width:0;marker:none;visibility:visible;display:inline;overflow:visible;enable-background:accumulate"
         d="m 422,101 c -2.77,0 -5,2.23 -5,5 l 0,12 c 0,2.77 2.23,5 5,5 l 12,0 c 2.77,0 5,-2.23 5,-5 l 0,-12 c 0,-2.77 -2.23,-5 -5,-5 l -12,0 z m 0,1 12,0 c 2.2333,0 4,1.7667 4,4 l 0,12 c 0,2.2333 -1.7667,4 -4,4 l -12,0 c -2.2333,0 -4,-1.7667 -4,-4 l 0,-12 c 0,-2.2333 1.7667,-4 4,-4 z"
         id="rect4099"
         inkscape:connector-curvature="0" />
      <path
         style="opacity:0.41000001;color:#bebebe;fill:#000000;fill-opacity:1;fill-rule:nonzero;stroke:none;stroke-width:0;marker:none;visibility:visible;display:inline;overflow:visible;enable-background:accumulate"
         d="m 424,53 c -3.878,0 -7,3.122 -7,7 l 0,16 c 0,3.878 3.122,7 7,7 l 16,0 c 3.878,0 7,-3.122 7,-7 l 0,-16 c 0,-3.878 -3.122,-7 -7,-7 l -16,0 z m 0,1 16,0 c 3.3413,0 6,2.658703 6,6 l 0,16 c 0,3.341297 -2.6587,6 -6,6 l -16,0 c -3.3413,0 -6,-2.658703 -6,-6 l 0,-16 c 0,-3.341297 2.6587,-6 6,-6 z"
         id="rect4151"
         inkscape:connector-curvature="0" />
      <path
         style="opacity:0.41000001;color:#bebebe;fill:#000000;fill-opacity:1;fill-rule:nonzero;stroke:none;stroke-width:0;marker:none;visibility:visible;display:inline;overflow:visible;enable-background:accumulate"
         d="m 419,140 c -1.662,0 -3,1.338 -3,3 l 0,10 c 0,1.662 1.338,3 3,3 l 10,0 c 1.662,0 3,-1.338 3,-3 l 0,-10 c 0,-1.662 -1.338,-3 -3,-3 l -10,0 z m 0,1 10,0 c 1.1253,0 2,0.8747 2,2 l 0,10 c 0,1.1253 -0.8747,2 -2,2 l -10,0 c -1.1253,0 -2,-0.8747 -2,-2 l 0,-10 c 0,-1.1253 0.8747,-2 2,-2 z"
         id="rect4095"
         inkscape:connector-curvature="0" />
      <path
         style="opacity:0.41000001;color:#bebebe;fill:#000000;fill-opacity:1;fill-rule:nonzero;stroke:none;stroke-width:0;marker:none;visibility:visible;display:inline;overflow:visible;enable-background:accumulate"
         d="m 300,223 c -4.986,0 -9,4.014 -9,9 l 0,24 c 0,4.986 4.014,9 9,9 l 24,0 c 4.986,0 9,-4.014 9,-9 l 0,-24 c 0,-4.986 -4.014,-9 -9,-9 l -24,0 z m 0,1 24,0 c 4.4493,0 8,3.5507 8,8 l 0,24 c 0,4.4493 -3.5507,8 -8,8 l -24,0 c -4.4493,0 -8,-3.5507 -8,-8 l 0,-24 c 0,-4.4493 3.5507,-8 8,-8 z"
         id="rect4783"
         inkscape:connector-curvature="0" />
      <path
         style="opacity:0.41000001;color:#bebebe;fill:#000000;fill-opacity:1;fill-rule:nonzero;stroke:none;stroke-width:0;marker:none;visibility:visible;display:inline;overflow:visible;enable-background:accumulate"
         d="m 302.5,142 c -6.925,0 -12.5,5.575 -12.5,12.5 l 0,35 c 0,6.925 5.575,12.5 12.5,12.5 l 35,0 c 6.925,0 12.5,-5.575 12.5,-12.5 l 0,-35 c 0,-6.925 -5.575,-12.5 -12.5,-12.5 l -35,0 z m 0,1 35,0 c 6.3883,0 11.5,5.1117 11.5,11.5 l 0,35 c 0,6.3883 -5.1117,11.5 -11.5,11.5 l -35,0 c -6.3883,0 -11.5,-5.1117 -11.5,-11.5 l 0,-35 c 0,-6.3883 5.1117,-11.5 11.5,-11.5 z"
         id="rect4515"
         inkscape:connector-curvature="0" />
      <path
         style="opacity:0.41000001;color:#bebebe;fill:#000000;fill-opacity:1;fill-rule:nonzero;stroke:none;stroke-width:0;marker:none;visibility:visible;display:inline;overflow:visible;enable-background:accumulate"
         d="m 310,32 c -9.972,0 -18,8.028 -18,18 l 0,52 c 0,9.972 8.028,18 18,18 l 52,0 c 9.972,0 18,-8.028 18,-18 l 0,-52 c 0,-9.972 -8.028,-18 -18,-18 l -52,0 z m 0,1 52,0 c 9.4353,0 17,7.564703 17,17 l 0,52 c 0,9.4353 -7.5647,17 -17,17 l -52,0 c -9.4353,0 -17,-7.5647 -17,-17 l 0,-52 c 0,-9.435297 7.5647,-17 17,-17 z"
         id="rect4511"
         inkscape:connector-curvature="0" />
      <path
         style="opacity:0.41000001;color:#bebebe;fill:#000000;fill-opacity:1;fill-rule:nonzero;stroke:none;stroke-width:0;marker:none;visibility:visible;display:inline;overflow:visible;enable-background:accumulate"
         d="M 84,46 C 56.3,46 34,68.3 34,96 l 0,120 c 0,27.7 22.3,50 50,50 l 120,0 c 27.7,0 50,-22.3 50,-50 L 254,96 C 254,68.3 231.7,46 204,46 L 84,46 z m 0,1 120,0 c 27.1633,0 49,21.836703 49,49 l 0,120 c 0,27.1633 -21.8367,49 -49,49 L 84,265 C 56.836703,265 35,243.1633 35,216 L 35,96 C 35,68.836703 56.836703,47 84,47 z"
         id="rect4040"
         inkscape:connector-curvature="0" />
    </g>
  </g>
</svg>
