<?xml version="1.0" encoding="UTF-8" standalone="no"?>
<!-- Created with Inkscape (http://www.inkscape.org/) -->

<svg
   xmlns:dc="http://purl.org/dc/elements/1.1/"
   xmlns:cc="http://creativecommons.org/ns#"
   xmlns:rdf="http://www.w3.org/1999/02/22-rdf-syntax-ns#"
   xmlns:svg="http://www.w3.org/2000/svg"
   xmlns="http://www.w3.org/2000/svg"
   xmlns:xlink="http://www.w3.org/1999/xlink"
   xmlns:sodipodi="http://sodipodi.sourceforge.net/DTD/sodipodi-0.dtd"
   xmlns:inkscape="http://www.inkscape.org/namespaces/inkscape"
   inkscape:export-ydpi="90.000000"
   inkscape:export-xdpi="90.000000"
   width="480"
   height="300"
   id="svg11300"
   sodipodi:version="0.32"
   inkscape:version="0.92.2 2405546, 2018-03-11"
   sodipodi:docname="appimagekit-large-files-finder-icon.svg"
   inkscape:output_extension="org.inkscape.output.svg.inkscape"
   version="1.0"
   style="display:inline;enable-background:new"
   inkscape:export-filename="/home/sam/moka-next-template.png">
  <sodipodi:namedview
     stroke="#ef2929"
     fill="#f57900"
     id="base"
     pagecolor="#777777"
     bordercolor="#666666"
     borderopacity="0.25490196"
     inkscape:pageopacity="0"
     inkscape:pageshadow="2"
     inkscape:zoom="2"
     inkscape:cx="446.20986"
     inkscape:cy="209.84382"
     inkscape:current-layer="layer7"
     showgrid="false"
     inkscape:grid-bbox="true"
     inkscape:document-units="px"
     inkscape:showpageshadow="false"
     inkscape:window-width="2560"
     inkscape:window-height="1378"
     inkscape:window-x="0"
     inkscape:window-y="34"
     width="400px"
     height="300px"
     inkscape:snap-nodes="true"
     inkscape:snap-bbox="true"
     gridtolerance="10000"
     inkscape:object-nodes="true"
     inkscape:snap-grids="true"
     showguides="true"
     inkscape:guide-bbox="true"
     inkscape:window-maximized="1"
     inkscape:bbox-nodes="true"
     inkscape:bbox-paths="true"
     inkscape:snap-bbox-edge-midpoints="true"
     inkscape:snap-bbox-midpoints="true">
    <inkscape:grid
       spacingy="1"
       spacingx="1"
       id="grid5883"
       type="xygrid"
       enabled="true"
       visible="true"
       empspacing="4"
       snapvisiblegridlinesonly="true"
       dotted="false"
       color="#000000"
       opacity="0.1254902"
       empcolor="#203ef3"
       empopacity="0.36470588"
       originx="0"
       originy="0" />
    <inkscape:grid
       type="xygrid"
       id="grid11592"
       empspacing="8"
       visible="true"
       enabled="false"
       spacingx="0.5"
       spacingy="0.5"
       color="#ff0000"
       opacity="0.1254902"
       empcolor="#ff0000"
       empopacity="0.25098039"
       snapvisiblegridlinesonly="true"
       dotted="true"
       originx="0"
       originy="0" />
  </sodipodi:namedview>
  <defs
     id="defs3">
    <linearGradient
       id="linearGradient1670">
      <stop
         style="stop-color:#1b54a5;stop-opacity:1"
         offset="0"
         id="stop1666" />
      <stop
         style="stop-color:#437acb;stop-opacity:1"
         offset="1"
         id="stop1668" />
    </linearGradient>
    <linearGradient
       inkscape:collect="always"
       xlink:href="#linearGradient1670"
       id="linearGradient4254"
       x1="35"
       y1="156"
       x2="253"
       y2="156"
       gradientUnits="userSpaceOnUse"
       gradientTransform="matrix(0,-1,1,0,-12,300)" />
    <linearGradient
       inkscape:collect="always"
       xlink:href="#linearGradient1670"
       id="linearGradient4256"
       x1="417"
       y1="148"
       x2="431"
       y2="148"
       gradientUnits="userSpaceOnUse"
       gradientTransform="rotate(-90,424,148)" />
    <linearGradient
       inkscape:collect="always"
       xlink:href="#linearGradient1670"
       id="linearGradient4260"
       x1="418"
       y1="68"
       x2="446"
       y2="68"
       gradientUnits="userSpaceOnUse"
       gradientTransform="rotate(-90,432,68)" />
    <linearGradient
       inkscape:collect="always"
       xlink:href="#linearGradient1670"
       id="linearGradient4262"
       x1="292"
       y1="244"
       x2="332"
       y2="244"
       gradientUnits="userSpaceOnUse"
       gradientTransform="rotate(-90,312,244)" />
    <linearGradient
       inkscape:collect="always"
       xlink:href="#linearGradient1670"
       id="linearGradient4264"
       x1="293"
       y1="76"
       x2="379"
       y2="76"
       gradientUnits="userSpaceOnUse"
       gradientTransform="rotate(-90,336,76)" />
    <linearGradient
       inkscape:collect="always"
       xlink:href="#linearGradient1670"
       id="linearGradient4266"
       x1="291"
       y1="172"
       x2="349"
       y2="172"
       gradientUnits="userSpaceOnUse"
       gradientTransform="rotate(-90,320,172)" />
    <linearGradient
       inkscape:collect="always"
       xlink:href="#linearGradient1670"
       id="linearGradient3870"
       gradientUnits="userSpaceOnUse"
       gradientTransform="rotate(-90,428,112)"
       x1="418"
       y1="112"
       x2="438"
       y2="112" />
  </defs>
  <metadata
     id="metadata4">
    <rdf:RDF>
      <cc:Work
         rdf:about="">
        <dc:format>image/svg+xml</dc:format>
        <dc:type
           rdf:resource="http://purl.org/dc/dcmitype/StillImage" />
        <dc:creator>
          <cc:Agent>
            <dc:title>Sam Hewitt</dc:title>
          </cc:Agent>
        </dc:creator>
        <dc:source />
        <cc:license
           rdf:resource="" />
        <dc:title />
        <dc:subject>
          <rdf:Bag />
        </dc:subject>
        <dc:date />
        <dc:rights>
          <cc:Agent>
            <dc:title />
          </cc:Agent>
        </dc:rights>
        <dc:publisher>
          <cc:Agent>
            <dc:title />
          </cc:Agent>
        </dc:publisher>
        <dc:identifier />
        <dc:relation />
        <dc:language />
        <dc:coverage />
        <dc:description />
        <dc:contributor>
          <cc:Agent>
            <dc:title />
          </cc:Agent>
        </dc:contributor>
      </cc:Work>
      <cc:Work
         rdf:about="">
        <dc:format>image/svg+xml</dc:format>
        <dc:type
           rdf:resource="http://purl.org/dc/dcmitype/StillImage" />
      </cc:Work>
    </rdf:RDF>
  </metadata>
  <g
     style="display:inline"
     inkscape:groupmode="layer"
     inkscape:label="Icon"
     id="layer1">
    <g
       style="display:none"
       inkscape:label="Baseplate"
       id="layer7"
       inkscape:groupmode="layer">
      <text
         y="19.745117"
         xml:space="preserve"
         x="15.006836"
         style="font-style:normal;font-variant:normal;font-weight:normal;font-stretch:normal;line-height:0%;font-family:'DejaVu Sans';-inkscape-font-specification:'DejaVu Sans';display:inline;fill:#000000;fill-opacity:1;stroke:none;enable-background:new"
         inkscape:label="context"
         id="context"><tspan
           style="font-style:normal;font-variant:normal;font-weight:normal;font-stretch:normal;font-size:18px;line-height:1.25;font-family:'DejaVu Sans';-inkscape-font-specification:'DejaVu Sans'"
           y="19.745117"
           x="15.006836"
           sodipodi:role="line"
           id="tspan3933">apps</tspan></text>
      <text
         y="19.745117"
         xml:space="preserve"
         x="122.48828"
         style="font-style:normal;font-variant:normal;font-weight:bold;font-stretch:normal;line-height:0%;font-family:'DejaVu Sans';-inkscape-font-specification:'DejaVu Sans Bold';text-align:start;writing-mode:lr-tb;text-anchor:start;display:inline;fill:#000000;fill-opacity:1;stroke:none;enable-background:new"
         inkscape:label="icon-name"
         id="icon-name"><tspan
           style="font-style:normal;font-variant:normal;font-weight:bold;font-stretch:normal;font-size:18px;line-height:1.25;font-family:'DejaVu Sans';-inkscape-font-specification:'DejaVu Sans Bold'"
           y="19.745117"
           x="122.48828"
           sodipodi:role="line"
           id="tspan3937">appimagekit-large-files-finder</tspan></text>
      <rect
         style="display:inline;overflow:visible;visibility:visible;fill:#eeeeec;fill-opacity:1;fill-rule:nonzero;stroke:none;stroke-width:2;marker:none;enable-background:accumulate"
         id="rect16x16"
         width="16"
         height="16"
         x="416"
         y="140"
         inkscape:label="16x16" />
      <rect
         style="display:inline;overflow:visible;visibility:visible;fill:#d4d4d4;fill-opacity:1;fill-rule:nonzero;stroke:none;stroke-width:2;marker:none;enable-background:accumulate"
         id="rect24x24"
         width="24"
         height="24"
         x="416"
         y="100"
         inkscape:label="24x24" />
      <rect
         style="display:inline;overflow:visible;visibility:visible;fill:#eeeeec;fill-opacity:1;fill-rule:nonzero;stroke:none;stroke-width:2;marker:none;enable-background:accumulate"
         id="rect32x32"
         width="32"
         height="32"
         x="416"
         y="52"
         inkscape:label="32x32" />
      <rect
         inkscape:label="22x22"
         y="101"
         x="417"
         height="22"
         width="22"
         id="rect22x22"
         style="display:inline;overflow:visible;visibility:visible;fill:#eeeeec;fill-opacity:1;fill-rule:nonzero;stroke:none;stroke-width:2;marker:none;enable-background:accumulate" />
      <rect
         inkscape:label="48x48"
         y="220"
         x="288"
         height="48"
         width="48"
         id="rect48x48"
         style="display:inline;overflow:visible;visibility:visible;fill:#eeeeec;fill-opacity:1;fill-rule:nonzero;stroke:none;stroke-width:2;marker:none;enable-background:accumulate" />
      <rect
         style="display:inline;overflow:visible;visibility:visible;fill:#eeeeec;fill-opacity:1;fill-rule:nonzero;stroke:none;stroke-width:2;marker:none;enable-background:accumulate"
         id="rect256x256"
         width="256"
         height="256"
         x="16"
         y="28"
         inkscape:label="256x256" />
      <rect
         style="display:inline;overflow:visible;visibility:visible;fill:#eeeeec;fill-opacity:1;fill-rule:nonzero;stroke:none;stroke-width:2;marker:none;enable-background:accumulate"
         id="rect64x64"
         width="64"
         height="64"
         x="288"
         y="140"
         inkscape:label="64x64" />
      <rect
         style="display:inline;overflow:visible;visibility:visible;fill:#eeeeec;fill-opacity:1;fill-rule:nonzero;stroke:none;stroke-width:2;marker:none;enable-background:accumulate"
         id="rect96x96"
         width="96"
         height="96"
         x="288"
         y="28"
         inkscape:label="96x96" />
    </g>
    <g
       inkscape:groupmode="layer"
       id="layer4"
       inkscape:label="Shadow"
       style="display:inline"
       sodipodi:insensitive="true">
      <rect
         ry="50"
         y="47"
         x="34"
         height="220"
         width="220"
         id="rect4114"
         style="opacity:0.1;color:#bebebe;fill:#000000;fill-opacity:1;fill-rule:nonzero;stroke:none;stroke-width:0;marker:none;visibility:visible;display:inline;overflow:visible;enable-background:accumulate" />
      <rect
         style="opacity:0.1;color:#bebebe;fill:#000000;fill-opacity:1;fill-rule:nonzero;stroke:none;stroke-width:0;marker:none;visibility:visible;display:inline;overflow:visible;enable-background:accumulate"
         id="rect4120"
         width="30"
         height="30"
         x="417"
         y="54"
         ry="7" />
      <rect
         transform="scale(1,-1)"
         ry="9"
         y="-266"
         x="291"
         height="42"
         width="42"
         id="rect4122"
         style="opacity:0.1;color:#bebebe;fill:#000000;fill-opacity:1;fill-rule:nonzero;stroke:none;stroke-width:0;marker:none;visibility:visible;display:inline;overflow:visible;enable-background:accumulate" />
      <rect
         style="opacity:0.1;color:#bebebe;fill:#000000;fill-opacity:1;fill-rule:nonzero;stroke:none;stroke-width:0;marker:none;visibility:visible;display:inline;overflow:visible;enable-background:accumulate"
         id="rect4124"
         width="88"
         height="88"
         x="292"
         y="33"
         ry="18" />
      <rect
         ry="12.5"
         y="143"
         x="290"
         height="60"
         width="60"
         id="rect4126"
         style="opacity:0.1;color:#bebebe;fill:#000000;fill-opacity:1;fill-rule:nonzero;stroke:none;stroke-width:0;marker:none;visibility:visible;display:inline;overflow:visible;enable-background:accumulate" />
      <path
         id="path4268"
         d="m 422,101 c -2.77,0 -5,2.23 -5,5 l 0,12 c 0,2.77 2.23,5 5,5 l 12,0 c 2.77,0 5,-2.23 5,-5 l 0,-12 c 0,-2.77 -2.23,-5 -5,-5 z"
         style="opacity:0.1;color:#bebebe;fill:#000000;fill-opacity:1;fill-rule:nonzero;stroke:none;stroke-width:0;marker:none;visibility:visible;display:inline;overflow:visible;enable-background:accumulate"
         inkscape:connector-curvature="0"
         sodipodi:nodetypes="sssssssss" />
      <path
         id="path4270"
         d="m 419,140 c -1.662,0 -3,1.338 -3,3 l 0,10 c 0,1.662 1.338,3 3,3 l 10,0 c 1.662,0 3,-1.338 3,-3 l 0,-10 c 0,-1.662 -1.338,-3 -3,-3 z"
         style="opacity:0.1;color:#bebebe;fill:#000000;fill-opacity:1;fill-rule:nonzero;stroke:none;stroke-width:0;marker:none;visibility:visible;display:inline;overflow:visible;enable-background:accumulate"
         inkscape:connector-curvature="0"
         sodipodi:nodetypes="sssssssss" />
    </g>
    <g
       inkscape:groupmode="layer"
       id="layer2"
       inkscape:label="Background"
       style="display:inline">
      <path
         style="color:#bebebe;fill:url(#linearGradient4254);fill-opacity:1.0;fill-rule:nonzero;stroke:none;stroke-width:2;marker:none;visibility:visible;display:inline;overflow:visible;enable-background:accumulate"
         d="M 84 46.5 C 56.568735 46.5 34.5 68.568732 34.5 96 L 34.5 216 C 34.5 243.43127 56.568735 265.5 84 265.5 L 204 265.5 C 231.43127 265.5 253.5 243.43127 253.5 216 L 253.5 96 C 253.5 68.568732 231.43127 46.5 204 46.5 L 84 46.5 z "
         id="path4200" />
      <path
         style="color:#bebebe;fill:url(#linearGradient4256);fill-opacity:1.0;fill-rule:nonzero;stroke:none;stroke-width:2;marker:none;visibility:visible;display:inline;overflow:visible;enable-background:accumulate"
         d="M 419 140.5 C 417.6156 140.5 416.5 141.6156 416.5 143 L 416.5 153 C 416.5 154.3844 417.6156 155.5 419 155.5 L 429 155.5 C 430.3844 155.5 431.5 154.3844 431.5 153 L 431.5 143 C 431.5 141.6156 430.3844 140.5 429 140.5 L 419 140.5 z "
         id="path4202" />
      <path
         style="color:#bebebe;fill:url(#linearGradient3870);fill-opacity:1.0;fill-rule:nonzero;stroke:none;stroke-width:2;marker:none;visibility:visible;display:inline;overflow:visible;enable-background:accumulate"
         d="M 422 101.5 C 419.50301 101.5 417.5 103.50301 417.5 106 L 417.5 118 C 417.5 120.49699 419.50301 122.5 422 122.5 L 434 122.5 C 436.49699 122.5 438.5 120.49699 438.5 118 L 438.5 106 C 438.5 103.50301 436.49699 101.5 434 101.5 L 422 101.5 z "
         id="path4204" />
      <path
         style="color:#bebebe;fill:url(#linearGradient4260);fill-opacity:1.0;fill-rule:nonzero;stroke:none;stroke-width:2;marker:none;visibility:visible;display:inline;overflow:visible;enable-background:accumulate"
         d="M 424 53.5 C 420.39346 53.5 417.5 56.393464 417.5 60 L 417.5 76 C 417.5 79.606536 420.39346 82.5 424 82.5 L 440 82.5 C 443.60654 82.5 446.5 79.606536 446.5 76 L 446.5 60 C 446.5 56.393464 443.60654 53.5 440 53.5 L 424 53.5 z "
         id="path4206" />
      <path
         style="color:#bebebe;fill:url(#linearGradient4262);fill-opacity:1.0;fill-rule:nonzero;stroke:none;stroke-width:2;marker:none;visibility:visible;display:inline;overflow:visible;enable-background:accumulate"
         d="M 300 223.5 C 295.28469 223.5 291.5 227.28469 291.5 232 L 291.5 256 C 291.5 260.71531 295.28469 264.5 300 264.5 L 324 264.5 C 328.71531 264.5 332.5 260.71531 332.5 256 L 332.5 232 C 332.5 227.28469 328.71531 223.5 324 223.5 L 300 223.5 z "
         id="path4208" />
      <path
         style="color:#bebebe;fill:url(#linearGradient4264);fill-opacity:1.0;fill-rule:nonzero;stroke:none;stroke-width:2;marker:none;visibility:visible;display:inline;overflow:visible;enable-background:accumulate"
         d="M 310 32.5 C 300.29745 32.5 292.5 40.297452 292.5 50 L 292.5 102 C 292.5 111.70255 300.29745 119.5 310 119.5 L 362 119.5 C 371.70255 119.5 379.5 111.70255 379.5 102 L 379.5 50 C 379.5 40.297452 371.70255 32.5 362 32.5 L 310 32.5 z "
         id="path4210" />
      <path
         style="color:#bebebe;fill:url(#linearGradient4266);fill-opacity:1.0;fill-rule:nonzero;stroke:none;stroke-width:2;marker:none;visibility:visible;display:inline;overflow:visible;enable-background:accumulate"
         d="M 302.5 142.5 C 295.84498 142.5 290.5 147.84498 290.5 154.5 L 290.5 189.5 C 290.5 196.15502 295.84498 201.5 302.5 201.5 L 337.5 201.5 C 344.15502 201.5 349.5 196.15502 349.5 189.5 L 349.5 154.5 C 349.5 147.84498 344.15502 142.5 337.5 142.5 L 302.5 142.5 z "
         id="path4212" />
    </g>
    <g
       inkscape:groupmode="layer"
       id="layer6"
       inkscape:label="Symbols"
       style="display:inline">
      <path
         id="path1737"
         d="m 127.41305,92.999856 c -11.86379,0 -23.7257,4.59836 -32.764786,13.798864 -18.078169,18.40099 -18.078169,48.26351 0,66.6645 15.818406,16.14123 40.352416,18.07693 58.269196,5.971 l 9.03846,9.20239 0.044,-0.044 30.14186,30.71246 c 2.09836,2.25977 5.64689,2.25977 7.90665,0 l 5.1671,-5.32792 c 2.25978,-2.25977 2.25978,-5.81084 0,-8.07062 l -34.05735,-34.70362 c -0.18957,-0.20416 -0.4035,-0.36869 -0.61477,-0.53595 l -4.39153,-4.4672 c 11.7831,-18.401 9.84741,-43.42116 -5.97098,-59.40097 -9.03909,-9.200499 -20.90416,-13.798859 -32.76795,-13.798859 z m 0.0821,7.947674 c 9.84615,0 19.69165,3.83354 27.19732,11.50062 15.01135,15.33415 15.01135,40.03149 0,55.36565 -15.17274,15.17276 -39.38332,15.17276 -54.39466,0 -15.011335,-15.33416 -15.011335,-40.0315 0,-55.36565 7.50567,-7.66708 17.35119,-11.50062 27.19734,-11.50062 z"
         style="display:inline;fill:#000000;fill-opacity:1;stroke-width:1.61412227;enable-background:new;opacity:0.2"
         inkscape:connector-curvature="0" />
      <path
         id="path1739"
         d="m 329.77989,52.999876 c -4.44892,0 -8.89713,1.724384 -12.28679,5.17457 -6.77931,6.900369 -6.77931,18.098811 0,24.99918 5.9319,6.05296 15.13215,6.778847 21.85094,2.239125 l 3.38943,3.450895 0.0165,-0.0165 11.30319,11.517174 c 0.78689,0.84741 2.11758,0.84741 2.96499,0 l 1.93767,-1.997974 c 0.84741,-0.847414 0.84741,-2.179064 0,-3.026482 L 346.18431,82.32601 c -0.0711,-0.07656 -0.15131,-0.138258 -0.23054,-0.200981 l -1.64682,-1.675199 c 4.41866,-6.900373 3.69278,-16.282931 -2.23912,-22.275358 -3.38965,-3.450184 -7.83905,-5.174568 -12.28797,-5.174568 z m 0.0308,2.980373 c 3.69231,0 7.38437,1.437579 10.19899,4.312733 5.62926,5.750304 5.62926,15.011804 0,20.762112 -5.68977,5.689784 -14.76874,5.689784 -20.39799,0 -5.62925,-5.750308 -5.62925,-15.011808 0,-20.762112 2.81463,-2.875154 6.5067,-4.312733 10.199,-4.312733 z"
         style="display:inline;fill:#000000;fill-opacity:1;stroke-width:0.60529566;enable-background:new;opacity:0.2"
         inkscape:connector-curvature="0" />
      <path
         id="path1741"
         d="m 315.85326,156.99988 c -2.96595,0 -5.93142,1.14958 -8.1912,3.44971 -4.51954,4.60025 -4.51954,12.06587 0,16.66612 3.9546,4.03532 10.0881,4.51924 14.5673,1.49276 l 2.25962,2.30059 0.011,-0.011 7.53546,7.67812 c 0.52459,0.56494 1.41172,0.56494 1.97666,0 l 1.29178,-1.33198 c 0.56494,-0.56494 0.56494,-1.4527 0,-2.01765 l -8.51434,-8.67591 c -0.0474,-0.0511 -0.10088,-0.0922 -0.1537,-0.13398 l -1.09788,-1.1168 c 2.94578,-4.60025 2.46186,-10.85529 -1.49274,-14.85024 -2.25977,-2.30013 -5.22604,-3.44971 -8.19198,-3.44971 z m 0.0205,1.98691 c 2.46154,0 4.92291,0.95839 6.79933,2.87516 3.75284,3.83353 3.75284,10.00787 0,13.84141 -3.79318,3.79319 -9.84583,3.79319 -13.59866,0 -3.75284,-3.83354 -3.75284,-10.00788 0,-13.84141 1.87642,-1.91678 4.3378,-2.87516 6.79933,-2.87516 z"
         style="display:inline;fill:#000000;fill-opacity:1;stroke-width:0.40353045;enable-background:new;opacity:0.2"
         inkscape:connector-curvature="0" />
      <path
         id="path1743"
         d="m 308.89007,232.99976 c -2.22446,0 -4.44856,0.86219 -6.14339,2.58728 -3.38966,3.45018 -3.38966,9.0494 0,12.49959 2.96595,3.02648 7.56607,3.38943 10.92547,1.11957 l 1.69471,1.72544 0.008,-0.008 5.6516,5.75859 c 0.39344,0.4237 1.05879,0.4237 1.48249,0 l 0.96884,-0.99899 c 0.4237,-0.4237 0.4237,-1.08953 0,-1.51324 l -6.38576,-6.50693 c -0.0356,-0.0383 -0.0757,-0.0691 -0.11527,-0.1005 l -0.82341,-0.8376 c 2.20933,-3.45018 1.84639,-8.14146 -1.11956,-11.13766 -1.69482,-1.7251 -3.91952,-2.58729 -6.14398,-2.58729 z m 0.0154,1.49018 c 1.84616,0 3.69219,0.71879 5.0995,2.15637 2.81463,2.87515 2.81463,7.5059 0,10.38106 -2.84489,2.84489 -7.38437,2.84489 -10.199,0 -2.81462,-2.87516 -2.81462,-7.50591 0,-10.38106 1.40732,-1.43758 3.25335,-2.15637 5.0995,-2.15637 z"
         style="display:inline;fill:#000000;fill-opacity:1;stroke-width:0.30264786;enable-background:new;opacity:0.2"
         inkscape:connector-curvature="0" />
      <path
         id="path1745"
         d="m 429.9269,60.999858 c -1.48296,0 -2.96568,0.574787 -4.09555,1.724836 -2.25975,2.300103 -2.25975,6.032878 0,8.332975 1.97728,2.017632 5.04399,2.259597 7.28357,0.746372 l 1.1298,1.150282 0.005,-0.0053 3.76769,3.839021 c 0.26229,0.282464 0.70586,0.282464 0.98832,0 l 0.64589,-0.665986 c 0.28246,-0.282464 0.28246,-0.726346 0,-1.008817 l -4.25713,-4.337909 c -0.0237,-0.02553 -0.0505,-0.04607 -0.0768,-0.06699 l -0.54893,-0.558395 c 1.47287,-2.300096 1.23091,-5.427584 -0.74637,-7.425037 -1.12987,-1.150055 -2.61299,-1.724843 -4.09594,-1.724843 z m 0.0103,0.993443 c 1.23076,0 2.46143,0.479189 3.39963,1.437566 1.8764,1.916747 1.8764,5.003882 0,6.920636 -1.89658,1.896574 -4.92287,1.896574 -6.79927,0 -1.87639,-1.916754 -1.87639,-5.003889 0,-6.920636 0.93821,-0.958377 2.16888,-1.437566 3.39964,-1.437566 z"
         style="display:inline;fill:#000000;fill-opacity:1;stroke-width:0.20176318;enable-background:new;opacity:0.2"
         inkscape:connector-curvature="0" />
      <path
         id="path1747"
         d="m 426.44505,106.99988 c -1.11222,0 -2.22426,0.4311 -3.07167,1.29363 -1.69481,1.72508 -1.69481,4.52466 0,6.24973 1.48296,1.51323 3.783,1.6947 5.46268,0.55978 l 0.84735,0.86271 0.004,-0.004 2.82577,2.87927 c 0.19672,0.21185 0.52939,0.21185 0.74124,0 l 0.48441,-0.49949 c 0.21186,-0.21185 0.21186,-0.54476 0,-0.75661 l -3.19284,-3.25343 c -0.0178,-0.0192 -0.0378,-0.0346 -0.0576,-0.0503 l -0.4117,-0.4188 c 1.10465,-1.72507 0.92318,-4.07068 -0.55977,-5.56877 -0.8474,-0.86254 -1.95975,-1.29364 -3.07196,-1.29364 z m 0.008,0.74509 c 0.92307,0 1.84607,0.35939 2.54972,1.07817 1.4073,1.43756 1.4073,3.75291 0,5.19048 -1.42243,1.42243 -3.69215,1.42243 -5.09945,0 -1.40729,-1.43757 -1.40729,-3.75292 0,-5.19048 0.70366,-0.71878 1.62666,-1.07817 2.54973,-1.07817 z"
         style="display:inline;fill:#000000;fill-opacity:1;stroke-width:0.15132238;enable-background:new;opacity:0.2"
         inkscape:connector-curvature="0" />
      <path
         id="path1749"
         d="m 422.9632,145.00016 c -0.74148,0 -1.48284,0.2874 -2.04778,0.86242 -1.12987,1.15005 -1.12987,3.01643 0,4.16649 0.98864,1.00882 2.522,1.1298 3.64179,0.37319 l 0.5649,0.57514 0.003,-0.003 1.88385,1.91951 c 0.13114,0.14123 0.35293,0.14123 0.49416,0 l 0.32294,-0.33299 c 0.14123,-0.14123 0.14123,-0.36318 0,-0.50441 l -2.12856,-2.16895 c -0.0119,-0.0128 -0.0252,-0.023 -0.0384,-0.0335 l -0.27446,-0.2792 c 0.73643,-1.15005 0.61545,-2.71379 -0.37319,-3.71252 -0.56493,-0.57502 -1.30649,-0.86242 -2.04797,-0.86242 z m 0.005,0.49673 c 0.61538,0 1.23072,0.23959 1.69982,0.71878 0.9382,0.95837 0.9382,2.50194 0,3.46032 -0.94829,0.94828 -2.46144,0.94828 -3.39964,0 -0.93819,-0.95838 -0.93819,-2.50195 0,-3.46032 0.46911,-0.47919 1.08444,-0.71878 1.69982,-0.71878 z"
         style="display:inline;fill:#000000;fill-opacity:1;stroke-width:0.10088159;enable-background:new;opacity:0.2"
         inkscape:connector-curvature="0" />
      <path
         inkscape:connector-curvature="0"
         style="display:inline;fill:#ffffff;fill-opacity:1;stroke-width:1.61412227;enable-background:new"
         d="m 127.41305,91.999981 c -11.86379,0 -23.7257,4.59836 -32.764786,13.798859 -18.078169,18.40099 -18.078169,48.26351 0,66.6645 15.818406,16.14123 40.352416,18.07693 58.269196,5.971 l 9.03846,9.20239 0.044,-0.044 30.14186,30.71246 c 2.09836,2.25977 5.64689,2.25977 7.90665,0 l 5.1671,-5.32792 c 2.25978,-2.25977 2.25978,-5.81084 0,-8.07062 l -34.05735,-34.70362 c -0.18957,-0.20416 -0.4035,-0.36869 -0.61477,-0.53595 l -4.39153,-4.4672 c 11.7831,-18.401 9.84741,-43.42116 -5.97098,-59.40097 -9.03909,-9.200494 -20.90416,-13.798854 -32.76795,-13.798854 z m 0.0821,7.947665 c 9.84615,0 19.69165,3.833544 27.19732,11.500624 15.01135,15.33415 15.01135,40.03149 0,55.36565 -15.17274,15.17276 -39.38332,15.17276 -54.39466,0 -15.011335,-15.33416 -15.011335,-40.0315 0,-55.36565 7.50567,-7.66708 17.35119,-11.500624 27.19734,-11.500624 z"
         id="path1801-3" />
      <path
         inkscape:connector-curvature="0"
         style="display:inline;fill:#ffffff;fill-opacity:1;stroke-width:0.60529566;enable-background:new"
         d="m 329.77989,52.000001 c -4.44892,0 -8.89713,1.724384 -12.28679,5.17457 -6.77931,6.900369 -6.77931,18.098811 0,24.99918 5.9319,6.05296 15.13215,6.778847 21.85094,2.239125 l 3.38943,3.450895 0.0165,-0.0165 11.30319,11.517169 c 0.78689,0.84741 2.11758,0.84741 2.96499,0 l 1.93767,-1.997969 c 0.84741,-0.847414 0.84741,-2.179064 0,-3.026482 L 346.18431,81.326135 c -0.0711,-0.07656 -0.15131,-0.138258 -0.23054,-0.200981 l -1.64682,-1.675199 c 4.41866,-6.900373 3.69278,-16.282931 -2.23912,-22.275358 -3.38965,-3.450184 -7.83905,-5.174568 -12.28797,-5.174568 z m 0.0308,2.980373 c 3.69231,0 7.38437,1.437579 10.19899,4.312733 5.62926,5.750304 5.62926,15.011804 0,20.762112 -5.68977,5.689784 -14.76874,5.689784 -20.39799,0 -5.62925,-5.750308 -5.62925,-15.011808 0,-20.762112 2.81463,-2.875154 6.5067,-4.312733 10.199,-4.312733 z"
         id="path1801-3-3" />
      <path
         inkscape:connector-curvature="0"
         style="display:inline;fill:#ffffff;fill-opacity:1;stroke-width:0.40353045;enable-background:new"
         d="m 315.85326,156 c -2.96595,0 -5.93142,1.14958 -8.1912,3.44971 -4.51954,4.60025 -4.51954,12.06587 0,16.66612 3.9546,4.03532 10.0881,4.51924 14.5673,1.49276 l 2.25962,2.30059 0.011,-0.011 7.53546,7.67812 c 0.52459,0.56494 1.41172,0.56494 1.97666,0 l 1.29178,-1.33198 c 0.56494,-0.56494 0.56494,-1.4527 0,-2.01765 l -8.51434,-8.67591 c -0.0474,-0.0511 -0.10088,-0.0922 -0.1537,-0.13398 l -1.09788,-1.1168 c 2.94578,-4.60025 2.46186,-10.85529 -1.49274,-14.85024 -2.25977,-2.30013 -5.22604,-3.44971 -8.19198,-3.44971 z m 0.0205,1.98691 c 2.46154,0 4.92291,0.95839 6.79933,2.87516 3.75284,3.83353 3.75284,10.00787 0,13.84141 -3.79318,3.79319 -9.84583,3.79319 -13.59866,0 -3.75284,-3.83354 -3.75284,-10.00788 0,-13.84141 1.87642,-1.91677 4.3378,-2.87516 6.79933,-2.87516 z"
         id="path1801-3-3-6" />
      <path
         inkscape:connector-curvature="0"
         style="display:inline;fill:#ffffff;fill-opacity:1;stroke-width:0.30264786;enable-background:new"
         d="m 308.89007,231.99988 c -2.22446,0 -4.44856,0.86219 -6.14339,2.58728 -3.38966,3.45019 -3.38966,9.04941 0,12.49959 2.96595,3.02648 7.56607,3.38943 10.92547,1.11957 l 1.69471,1.72544 0.008,-0.008 5.6516,5.75859 c 0.39344,0.4237 1.05879,0.4237 1.48249,0 l 0.96884,-0.99899 c 0.4237,-0.4237 0.4237,-1.08953 0,-1.51324 l -6.38576,-6.50693 c -0.0356,-0.0383 -0.0757,-0.0691 -0.11527,-0.10049 l -0.82341,-0.8376 c 2.20933,-3.45018 1.84639,-8.14146 -1.11956,-11.13767 -1.69482,-1.7251 -3.91952,-2.58729 -6.14398,-2.58729 z m 0.0154,1.49018 c 1.84616,0 3.69219,0.71879 5.0995,2.15637 2.81463,2.87515 2.81463,7.5059 0,10.38106 -2.84489,2.84489 -7.38437,2.84489 -10.199,0 -2.81462,-2.87516 -2.81462,-7.50591 0,-10.38106 1.40732,-1.43758 3.25335,-2.15637 5.0995,-2.15637 z"
         id="path1801-3-3-7" />
      <path
         inkscape:connector-curvature="0"
         style="display:inline;fill:#ffffff;fill-opacity:1;stroke-width:0.20176318;enable-background:new"
         d="m 429.9269,59.999983 c -1.48296,0 -2.96568,0.574787 -4.09555,1.724836 -2.25975,2.300103 -2.25975,6.032878 0,8.332975 1.97728,2.017632 5.04399,2.259597 7.28357,0.746372 l 1.1298,1.150282 0.005,-0.0053 3.76769,3.839021 c 0.26229,0.282464 0.70586,0.282464 0.98832,0 l 0.64589,-0.665986 c 0.28246,-0.282464 0.28246,-0.726346 0,-1.008817 l -4.25713,-4.337909 c -0.0237,-0.02553 -0.0505,-0.04607 -0.0768,-0.06699 l -0.54893,-0.558395 c 1.47287,-2.300096 1.23091,-5.427584 -0.74637,-7.425037 -1.12987,-1.150055 -2.61299,-1.724843 -4.09594,-1.724843 z m 0.0103,0.993443 c 1.23076,0 2.46143,0.479189 3.39963,1.437566 1.8764,1.916747 1.8764,5.003882 0,6.920636 -1.89658,1.896574 -4.92287,1.896574 -6.79927,0 -1.87639,-1.916754 -1.87639,-5.003889 0,-6.920636 0.93821,-0.958377 2.16888,-1.437566 3.39964,-1.437566 z"
         id="path1801-3-3-7-5" />
      <path
         inkscape:connector-curvature="0"
         style="display:inline;fill:#ffffff;fill-opacity:1;stroke-width:0.15132238;enable-background:new"
         d="m 426.44505,106 c -1.11222,0 -2.22426,0.4311 -3.07167,1.29363 -1.69481,1.72508 -1.69481,4.52466 0,6.24973 1.48296,1.51323 3.783,1.6947 5.46268,0.55978 l 0.84735,0.86271 0.004,-0.004 2.82577,2.87927 c 0.19672,0.21185 0.52939,0.21185 0.74124,0 l 0.48441,-0.49949 c 0.21186,-0.21185 0.21186,-0.54476 0,-0.75661 l -3.19284,-3.25343 c -0.0178,-0.0192 -0.0378,-0.0346 -0.0576,-0.0503 l -0.4117,-0.4188 c 1.10465,-1.72507 0.92318,-4.07068 -0.55977,-5.56877 -0.8474,-0.86254 -1.95975,-1.29364 -3.07196,-1.29364 z m 0.008,0.74509 c 0.92307,0 1.84607,0.35939 2.54972,1.07817 1.4073,1.43756 1.4073,3.75291 0,5.19048 -1.42243,1.42243 -3.69215,1.42243 -5.09945,0 -1.40729,-1.43757 -1.40729,-3.75292 0,-5.19048 0.70366,-0.71878 1.62666,-1.07817 2.54973,-1.07817 z"
         id="path1801-3-3-7-3" />
      <path
         inkscape:connector-curvature="0"
         style="display:inline;fill:#ffffff;fill-opacity:1;stroke-width:0.10088159;enable-background:new"
         d="m 422.9632,144.00028 c -0.74148,0 -1.48284,0.2874 -2.04778,0.86242 -1.12987,1.15005 -1.12987,3.01644 0,4.16649 0.98864,1.00882 2.522,1.1298 3.64179,0.37319 l 0.5649,0.57514 0.003,-0.003 1.88385,1.91951 c 0.13114,0.14123 0.35293,0.14123 0.49416,0 l 0.32294,-0.33299 c 0.14123,-0.14123 0.14123,-0.36318 0,-0.50441 l -2.12856,-2.16895 c -0.0119,-0.0128 -0.0252,-0.023 -0.0384,-0.0335 l -0.27446,-0.2792 c 0.73643,-1.15005 0.61545,-2.71379 -0.37319,-3.71252 -0.56493,-0.57502 -1.30649,-0.86242 -2.04797,-0.86242 z m 0.005,0.49673 c 0.61538,0 1.23072,0.23959 1.69982,0.71878 0.9382,0.95837 0.9382,2.50194 0,3.46032 -0.94829,0.94828 -2.46144,0.94828 -3.39964,0 -0.93819,-0.95838 -0.93819,-2.50195 0,-3.46032 0.46911,-0.47919 1.08444,-0.71878 1.69982,-0.71878 z"
         id="path1801-3-3-7-56" />
    </g>
    <g
       inkscape:groupmode="layer"
       id="layer5"
       inkscape:label="Highlights"
       style="display:inline"
       sodipodi:insensitive="true">
      <path
         style="opacity:0.12999998;color:#bebebe;fill:#ffffff;fill-opacity:1;fill-rule:nonzero;stroke:none;stroke-width:0;marker:none;visibility:visible;display:inline;overflow:visible;enable-background:accumulate"
         d="M 84,47 C 56.836703,47 35,68.836703 35,96 l 0,1 C 35,69.836703 56.836703,48 84,48 l 120,0 c 27.1633,0 49,21.836703 49,49 l 0,-1 C 253,68.836703 231.1633,47 204,47 L 84,47 z"
         id="rect3894"
         inkscape:connector-curvature="0" />
      <path
         style="opacity:0.12999998;color:#bebebe;fill:#ffffff;fill-opacity:1;fill-rule:nonzero;stroke:none;stroke-width:0;marker:none;visibility:visible;display:inline;overflow:visible;enable-background:accumulate"
         d="m 419,141 c -1.1253,0 -2,0.8747 -2,2 l 0,1 c 0,-1.1253 0.8747,-2 2,-2 l 10,0 c 1.1253,0 2,0.8747 2,2 l 0,-1 c 0,-1.1253 -0.8747,-2 -2,-2 l -10,0 z"
         id="rect3896"
         inkscape:connector-curvature="0" />
      <path
         style="opacity:0.12999998;color:#bebebe;fill:#ffffff;fill-opacity:1;fill-rule:nonzero;stroke:none;stroke-width:0;marker:none;visibility:visible;display:inline;overflow:visible;enable-background:accumulate"
         d="m 422,102 c -2.2333,0 -4,1.7667 -4,4 l 0,1 c 0,-2.2333 1.7667,-4 4,-4 l 12,0 c 2.2333,0 4,1.7667 4,4 l 0,-1 c 0,-2.2333 -1.7667,-4 -4,-4 l -12,0 z"
         id="rect3898"
         inkscape:connector-curvature="0" />
      <path
         style="opacity:0.12999998;color:#bebebe;fill:#ffffff;fill-opacity:1;fill-rule:nonzero;stroke:none;stroke-width:0;marker:none;visibility:visible;display:inline;overflow:visible;enable-background:accumulate"
         d="m 424,54 c -3.3413,0 -6,2.658703 -6,6 l 0,1 c 0,-3.341297 2.6587,-6 6,-6 l 16,0 c 3.3413,0 6,2.658703 6,6 l 0,-1 c 0,-3.341297 -2.6587,-6 -6,-6 l -16,0 z"
         id="rect3900"
         inkscape:connector-curvature="0" />
      <path
         style="opacity:0.12999998;color:#bebebe;fill:#ffffff;fill-opacity:1;fill-rule:nonzero;stroke:none;stroke-width:0;marker:none;visibility:visible;display:inline;overflow:visible;enable-background:accumulate"
         d="m 300,224 c -4.4493,0 -8,3.5507 -8,8 l 0,1 c 0,-4.4493 3.5507,-8 8,-8 l 24,0 c 4.4493,0 8,3.5507 8,8 l 0,-1 c 0,-4.4493 -3.5507,-8 -8,-8 l -24,0 z"
         id="rect3902"
         inkscape:connector-curvature="0" />
      <path
         style="opacity:0.12999998;color:#bebebe;fill:#ffffff;fill-opacity:1;fill-rule:nonzero;stroke:none;stroke-width:0;marker:none;visibility:visible;display:inline;overflow:visible;enable-background:accumulate"
         d="m 310,33 c -9.4353,0 -17,7.564703 -17,17 l 0,1 c 0,-9.435297 7.5647,-17 17,-17 l 52,0 c 9.4353,0 17,7.564703 17,17 l 0,-1 c 0,-9.435297 -7.5647,-17 -17,-17 l -52,0 z"
         id="rect3904"
         inkscape:connector-curvature="0" />
      <path
         style="opacity:0.12999998;color:#bebebe;fill:#ffffff;fill-opacity:1;fill-rule:nonzero;stroke:none;stroke-width:0;marker:none;visibility:visible;display:inline;overflow:visible;enable-background:accumulate"
         d="m 302.5,143 c -6.3883,0 -11.5,5.1117 -11.5,11.5 l 0,1 c 0,-6.3883 5.1117,-11.5 11.5,-11.5 l 35,0 c 6.3883,0 11.5,5.1117 11.5,11.5 l 0,-1 c 0,-6.3883 -5.1117,-11.5 -11.5,-11.5 l -35,0 z"
         id="rect3906"
         inkscape:connector-curvature="0" />
      <path
         id="path4085"
         d="m 204,266 c 27.1633,0 49,-21.8367 49,-49 l 0,-1 c 0,27.1633 -21.8367,49 -49,49 L 84,265 C 56.8367,265 35,243.1633 35,216 l 0,1 c 0,27.1633 21.8367,49 49,49 l 120,0 z"
         style="opacity:0.5;color:#bebebe;fill:#000000;fill-opacity:1;fill-rule:nonzero;stroke:none;stroke-width:0;marker:none;visibility:visible;display:inline;overflow:visible;enable-background:accumulate"
         inkscape:connector-curvature="0" />
      <path
         id="path4087"
         d="m 429,156 c 1.1253,0 2,-0.8747 2,-2 l 0,-1 c 0,1.1253 -0.8747,2 -2,2 l -10,0 c -1.1253,0 -2,-0.8747 -2,-2 l 0,1 c 0,1.1253 0.8747,2 2,2 l 10,0 z"
         style="opacity:0.3;color:#bebebe;fill:#000000;fill-opacity:1;fill-rule:nonzero;stroke:none;stroke-width:0;marker:none;visibility:visible;display:inline;overflow:visible;enable-background:accumulate"
         inkscape:connector-curvature="0" />
      <path
         id="path4089"
         d="m 434,123 c 2.2333,0 4,-1.7667 4,-4 l 0,-1 c 0,2.2333 -1.7667,4 -4,4 l -12,0 c -2.2333,0 -4,-1.7667 -4,-4 l 0,1 c 0,2.2333 1.7667,4 4,4 l 12,0 z"
         style="opacity:0.3;color:#bebebe;fill:#000000;fill-opacity:1;fill-rule:nonzero;stroke:none;stroke-width:0;marker:none;visibility:visible;display:inline;overflow:visible;enable-background:accumulate"
         inkscape:connector-curvature="0" />
      <path
         id="path4091"
         d="m 440,83 c 3.3413,0 6,-2.6587 6,-6 l 0,-1 c 0,3.3413 -2.6587,6 -6,6 l -16,0 c -3.3413,0 -6,-2.6587 -6,-6 l 0,1 c 0,3.3413 2.6587,6 6,6 l 16,0 z"
         style="opacity:0.5;color:#bebebe;fill:#000000;fill-opacity:1;fill-rule:nonzero;stroke:none;stroke-width:0;marker:none;visibility:visible;display:inline;overflow:visible;enable-background:accumulate"
         inkscape:connector-curvature="0" />
      <path
         id="path4093"
         d="m 324,265 c 4.4493,0 8,-3.5507 8,-8 l 0,-1 c 0,4.4493 -3.5507,8 -8,8 l -24,0 c -4.4493,0 -8,-3.5507 -8,-8 l 0,1 c 0,4.4493 3.5507,8 8,8 l 24,0 z"
         style="opacity:0.5;color:#bebebe;fill:#000000;fill-opacity:1;fill-rule:nonzero;stroke:none;stroke-width:0;marker:none;visibility:visible;display:inline;overflow:visible;enable-background:accumulate"
         inkscape:connector-curvature="0" />
      <path
         id="path4095"
         d="m 362,120 c 9.4353,0 17,-7.5647 17,-17 l 0,-1 c 0,9.4353 -7.5647,17 -17,17 l -52,0 c -9.4353,0 -17,-7.5647 -17,-17 l 0,1 c 0,9.4353 7.5647,17 17,17 l 52,0 z"
         style="opacity:0.5;color:#bebebe;fill:#000000;fill-opacity:1;fill-rule:nonzero;stroke:none;stroke-width:0;marker:none;visibility:visible;display:inline;overflow:visible;enable-background:accumulate"
         inkscape:connector-curvature="0" />
      <path
         id="path4097"
         d="m 337.5,202 c 6.3883,0 11.5,-5.1117 11.5,-11.5 l 0,-1 c 0,6.3883 -5.1117,11.5 -11.5,11.5 l -35,0 c -6.3883,0 -11.5,-5.1117 -11.5,-11.5 l 0,1 c 0,6.3883 5.1117,11.5 11.5,11.5 l 35,0 z"
         style="opacity:0.5;color:#bebebe;fill:#000000;fill-opacity:1;fill-rule:nonzero;stroke:none;stroke-width:0;marker:none;visibility:visible;display:inline;overflow:visible;enable-background:accumulate"
         inkscape:connector-curvature="0" />
      <path
         inkscape:connector-curvature="0"
         id="path4280"
         d="M 84,265 C 56.836703,265 35,243.1633 35,216 l 0,-1 c 0,27.1633 21.836703,49 49,49 l 120,0 c 27.1633,0 49,-21.8367 49,-49 l 0,1 c 0,27.1633 -21.8367,49 -49,49 l -120,0 z"
         style="opacity:0.1;color:#bebebe;fill:#ffffff;fill-opacity:1;fill-rule:nonzero;stroke:none;stroke-width:0;marker:none;visibility:visible;display:inline;overflow:visible;enable-background:accumulate" />
      <path
         style="opacity:0.1;color:#bebebe;fill:#ffffff;fill-opacity:1;fill-rule:nonzero;stroke:none;stroke-width:0;marker:none;visibility:visible;display:inline;overflow:visible;enable-background:accumulate"
         d="m 300,264 c -4.4493,0 -8,-3.5507 -8,-8 l 0,-1 c 0,4.4493 3.5507,8 8,8 l 24,0 c 4.4493,0 8,-3.5507 8,-8 l 0,1 c 0,4.4493 -3.5507,8 -8,8 l -24,0 z"
         id="path4294"
         inkscape:connector-curvature="0" />
      <path
         style="opacity:0.1;color:#bebebe;fill:#ffffff;fill-opacity:1;fill-rule:nonzero;stroke:none;stroke-width:0;marker:none;visibility:visible;display:inline;overflow:visible;enable-background:accumulate"
         d="m 302.5,201 c -6.3883,0 -11.5,-5.1117 -11.5,-11.5 l 0,-1 c 0,6.3883 5.1117,11.5 11.5,11.5 l 35,0 c 6.3883,0 11.5,-5.1117 11.5,-11.5 l 0,1 c 0,6.3883 -5.1117,11.5 -11.5,11.5 l -35,0 z"
         id="path4296"
         inkscape:connector-curvature="0" />
      <path
         style="opacity:0.1;color:#bebebe;fill:#ffffff;fill-opacity:1;fill-rule:nonzero;stroke:none;stroke-width:0;marker:none;visibility:visible;display:inline;overflow:visible;enable-background:accumulate"
         d="m 310,119 c -9.4353,0 -17,-7.5647 -17,-17 l 0,-1 c 0,9.4353 7.5647,17 17,17 l 52,0 c 9.4353,0 17,-7.5647 17,-17 l 0,1 c 0,9.4353 -7.5647,17 -17,17 l -52,0 z"
         id="path4298"
         inkscape:connector-curvature="0" />
      <path
         style="opacity:0.1;color:#bebebe;fill:#ffffff;fill-opacity:1;fill-rule:nonzero;stroke:none;stroke-width:0;marker:none;visibility:visible;display:inline;overflow:visible;enable-background:accumulate"
         d="m 424,82 c -3.3413,0 -6,-2.658703 -6,-6 l 0,-1 c 0,3.341297 2.6587,6 6,6 l 16,0 c 3.3413,0 6,-2.658703 6,-6 l 0,1 c 0,3.341297 -2.6587,6 -6,6 l -16,0 z"
         id="path4300"
         inkscape:connector-curvature="0" />
      <path
         style="opacity:0.1;color:#bebebe;fill:#ffffff;fill-opacity:1;fill-rule:nonzero;stroke:none;stroke-width:0;marker:none;visibility:visible;display:inline;overflow:visible;enable-background:accumulate"
         d="m 422,122 c -2.2333,0 -4,-1.7667 -4,-4 l 0,-1 c 0,2.2333 1.7667,4 4,4 l 12,0 c 2.2333,0 4,-1.7667 4,-4 l 0,1 c 0,2.2333 -1.7667,4 -4,4 l -12,0 z"
         id="path4302"
         inkscape:connector-curvature="0" />
      <path
         style="opacity:0.1;color:#bebebe;fill:#ffffff;fill-opacity:1;fill-rule:nonzero;stroke:none;stroke-width:0;marker:none;visibility:visible;display:inline;overflow:visible;enable-background:accumulate"
         d="m 419,154.5 c -1.1253,0 -2,-0.8747 -2,-2 l 0,-1 c 0,1.1253 0.8747,2 2,2 l 10,0 c 1.1253,0 2,-0.8747 2,-2 l 0,1 c 0,1.1253 -0.8747,2 -2,2 l -10,0 z"
         id="path4304"
         inkscape:connector-curvature="0" />
    </g>
    <g
       inkscape:groupmode="layer"
       id="layer3"
       inkscape:label="Border"
       style="display:inline"
       sodipodi:insensitive="true">
      <path
         style="opacity:0.41000001;color:#bebebe;fill:#000000;fill-opacity:1;fill-rule:nonzero;stroke:none;stroke-width:0;marker:none;visibility:visible;display:inline;overflow:visible;enable-background:accumulate"
         d="m 422,101 c -2.77,0 -5,2.23 -5,5 l 0,12 c 0,2.77 2.23,5 5,5 l 12,0 c 2.77,0 5,-2.23 5,-5 l 0,-12 c 0,-2.77 -2.23,-5 -5,-5 l -12,0 z m 0,1 12,0 c 2.2333,0 4,1.7667 4,4 l 0,12 c 0,2.2333 -1.7667,4 -4,4 l -12,0 c -2.2333,0 -4,-1.7667 -4,-4 l 0,-12 c 0,-2.2333 1.7667,-4 4,-4 z"
         id="rect4099"
         inkscape:connector-curvature="0" />
      <path
         style="opacity:0.41000001;color:#bebebe;fill:#000000;fill-opacity:1;fill-rule:nonzero;stroke:none;stroke-width:0;marker:none;visibility:visible;display:inline;overflow:visible;enable-background:accumulate"
         d="m 424,53 c -3.878,0 -7,3.122 -7,7 l 0,16 c 0,3.878 3.122,7 7,7 l 16,0 c 3.878,0 7,-3.122 7,-7 l 0,-16 c 0,-3.878 -3.122,-7 -7,-7 l -16,0 z m 0,1 16,0 c 3.3413,0 6,2.658703 6,6 l 0,16 c 0,3.341297 -2.6587,6 -6,6 l -16,0 c -3.3413,0 -6,-2.658703 -6,-6 l 0,-16 c 0,-3.341297 2.6587,-6 6,-6 z"
         id="rect4151"
         inkscape:connector-curvature="0" />
      <path
         style="opacity:0.41000001;color:#bebebe;fill:#000000;fill-opacity:1;fill-rule:nonzero;stroke:none;stroke-width:0;marker:none;visibility:visible;display:inline;overflow:visible;enable-background:accumulate"
         d="m 419,140 c -1.662,0 -3,1.338 -3,3 l 0,10 c 0,1.662 1.338,3 3,3 l 10,0 c 1.662,0 3,-1.338 3,-3 l 0,-10 c 0,-1.662 -1.338,-3 -3,-3 l -10,0 z m 0,1 10,0 c 1.1253,0 2,0.8747 2,2 l 0,10 c 0,1.1253 -0.8747,2 -2,2 l -10,0 c -1.1253,0 -2,-0.8747 -2,-2 l 0,-10 c 0,-1.1253 0.8747,-2 2,-2 z"
         id="rect4095"
         inkscape:connector-curvature="0" />
      <path
         style="opacity:0.41000001;color:#bebebe;fill:#000000;fill-opacity:1;fill-rule:nonzero;stroke:none;stroke-width:0;marker:none;visibility:visible;display:inline;overflow:visible;enable-background:accumulate"
         d="m 300,223 c -4.986,0 -9,4.014 -9,9 l 0,24 c 0,4.986 4.014,9 9,9 l 24,0 c 4.986,0 9,-4.014 9,-9 l 0,-24 c 0,-4.986 -4.014,-9 -9,-9 l -24,0 z m 0,1 24,0 c 4.4493,0 8,3.5507 8,8 l 0,24 c 0,4.4493 -3.5507,8 -8,8 l -24,0 c -4.4493,0 -8,-3.5507 -8,-8 l 0,-24 c 0,-4.4493 3.5507,-8 8,-8 z"
         id="rect4783"
         inkscape:connector-curvature="0" />
      <path
         style="opacity:0.41000001;color:#bebebe;fill:#000000;fill-opacity:1;fill-rule:nonzero;stroke:none;stroke-width:0;marker:none;visibility:visible;display:inline;overflow:visible;enable-background:accumulate"
         d="m 302.5,142 c -6.925,0 -12.5,5.575 -12.5,12.5 l 0,35 c 0,6.925 5.575,12.5 12.5,12.5 l 35,0 c 6.925,0 12.5,-5.575 12.5,-12.5 l 0,-35 c 0,-6.925 -5.575,-12.5 -12.5,-12.5 l -35,0 z m 0,1 35,0 c 6.3883,0 11.5,5.1117 11.5,11.5 l 0,35 c 0,6.3883 -5.1117,11.5 -11.5,11.5 l -35,0 c -6.3883,0 -11.5,-5.1117 -11.5,-11.5 l 0,-35 c 0,-6.3883 5.1117,-11.5 11.5,-11.5 z"
         id="rect4515"
         inkscape:connector-curvature="0" />
      <path
         style="opacity:0.41000001;color:#bebebe;fill:#000000;fill-opacity:1;fill-rule:nonzero;stroke:none;stroke-width:0;marker:none;visibility:visible;display:inline;overflow:visible;enable-background:accumulate"
         d="m 310,32 c -9.972,0 -18,8.028 -18,18 l 0,52 c 0,9.972 8.028,18 18,18 l 52,0 c 9.972,0 18,-8.028 18,-18 l 0,-52 c 0,-9.972 -8.028,-18 -18,-18 l -52,0 z m 0,1 52,0 c 9.4353,0 17,7.564703 17,17 l 0,52 c 0,9.4353 -7.5647,17 -17,17 l -52,0 c -9.4353,0 -17,-7.5647 -17,-17 l 0,-52 c 0,-9.435297 7.5647,-17 17,-17 z"
         id="rect4511"
         inkscape:connector-curvature="0" />
      <path
         style="opacity:0.41000001;color:#bebebe;fill:#000000;fill-opacity:1;fill-rule:nonzero;stroke:none;stroke-width:0;marker:none;visibility:visible;display:inline;overflow:visible;enable-background:accumulate"
         d="M 84,46 C 56.3,46 34,68.3 34,96 l 0,120 c 0,27.7 22.3,50 50,50 l 120,0 c 27.7,0 50,-22.3 50,-50 L 254,96 C 254,68.3 231.7,46 204,46 L 84,46 z m 0,1 120,0 c 27.1633,0 49,21.836703 49,49 l 0,120 c 0,27.1633 -21.8367,49 -49,49 L 84,265 C 56.836703,265 35,243.1633 35,216 L 35,96 C 35,68.836703 56.836703,47 84,47 z"
         id="rect4040"
         inkscape:connector-curvature="0" />
    </g>
  </g>
</svg>
