<?xml version="1.0" encoding="UTF-8" standalone="no"?>
<!-- Created with Inkscape (http://www.inkscape.org/) -->

<svg
   xmlns:dc="http://purl.org/dc/elements/1.1/"
   xmlns:cc="http://creativecommons.org/ns#"
   xmlns:rdf="http://www.w3.org/1999/02/22-rdf-syntax-ns#"
   xmlns:svg="http://www.w3.org/2000/svg"
   xmlns="http://www.w3.org/2000/svg"
   xmlns:xlink="http://www.w3.org/1999/xlink"
   xmlns:sodipodi="http://sodipodi.sourceforge.net/DTD/sodipodi-0.dtd"
   xmlns:inkscape="http://www.inkscape.org/namespaces/inkscape"
   inkscape:export-ydpi="90.000000"
   inkscape:export-xdpi="90.000000"
   width="480"
   height="300"
   id="svg11300"
   sodipodi:version="0.32"
   inkscape:version="0.92.2 2405546, 2018-03-11"
   sodipodi:docname="com.github.bleakgrey.tootle.svg"
   inkscape:output_extension="org.inkscape.output.svg.inkscape"
   version="1.0"
   style="display:inline;enable-background:new"
   inkscape:export-filename="/home/sam/moka-next-template.png">
  <sodipodi:namedview
     stroke="#ef2929"
     fill="#f57900"
     id="base"
     pagecolor="#777777"
     bordercolor="#666666"
     borderopacity="0.25490196"
     inkscape:pageopacity="0"
     inkscape:pageshadow="2"
     inkscape:zoom="2.8284271"
     inkscape:cx="424.58503"
     inkscape:cy="114.30731"
     inkscape:current-layer="layer6"
     showgrid="false"
     inkscape:grid-bbox="true"
     inkscape:document-units="px"
     inkscape:showpageshadow="false"
     inkscape:window-width="2560"
     inkscape:window-height="1378"
     inkscape:window-x="0"
     inkscape:window-y="34"
     width="400px"
     height="300px"
     inkscape:snap-nodes="true"
     inkscape:snap-bbox="true"
     gridtolerance="10000"
     inkscape:object-nodes="true"
     inkscape:snap-grids="true"
     showguides="true"
     inkscape:guide-bbox="true"
     inkscape:window-maximized="1"
     inkscape:bbox-nodes="true"
     inkscape:bbox-paths="true"
     inkscape:snap-bbox-edge-midpoints="true"
     inkscape:snap-bbox-midpoints="true">
    <inkscape:grid
       spacingy="1"
       spacingx="1"
       id="grid5883"
       type="xygrid"
       enabled="true"
       visible="true"
       empspacing="4"
       snapvisiblegridlinesonly="true"
       dotted="false"
       color="#000000"
       opacity="0.1254902"
       empcolor="#203ef3"
       empopacity="0.36470588"
       originx="0"
       originy="0" />
    <inkscape:grid
       type="xygrid"
       id="grid11592"
       empspacing="8"
       visible="true"
       enabled="false"
       spacingx="0.5"
       spacingy="0.5"
       color="#ff0000"
       opacity="0.1254902"
       empcolor="#ff0000"
       empopacity="0.25098039"
       snapvisiblegridlinesonly="true"
       dotted="true"
       originx="0"
       originy="0" />
  </sodipodi:namedview>
  <defs
     id="defs3">
    <linearGradient
       id="linearGradient1083">
      <stop
         style="stop-color:#617084;stop-opacity:1"
         offset="0"
         id="stop1079" />
      <stop
         style="stop-color:#8c9fb7;stop-opacity:1"
         offset="1"
         id="stop1081" />
    </linearGradient>
    <linearGradient
       id="linearGradient1003">
      <stop
         id="stop999"
         offset="0"
         style="stop-color:#617084;stop-opacity:1" />
      <stop
         id="stop1001"
         offset="1"
         style="stop-color:#8b9eb6;stop-opacity:1" />
    </linearGradient>
    <linearGradient
       inkscape:collect="always"
       xlink:href="#linearGradient1083"
       id="linearGradient4254"
       x1="35"
       y1="156"
       x2="254"
       y2="156"
       gradientUnits="userSpaceOnUse"
       gradientTransform="rotate(-90,144,156)" />
    <linearGradient
       inkscape:collect="always"
       xlink:href="#linearGradient1003"
       id="linearGradient4256"
       x1="417"
       y1="148"
       x2="431"
       y2="148"
       gradientUnits="userSpaceOnUse"
       gradientTransform="rotate(-90,424,148)" />
    <linearGradient
       inkscape:collect="always"
       xlink:href="#linearGradient1003"
       id="linearGradient4260"
       x1="418"
       y1="68"
       x2="446"
       y2="68"
       gradientUnits="userSpaceOnUse"
       gradientTransform="rotate(-90,432,68)" />
    <linearGradient
       inkscape:collect="always"
       xlink:href="#linearGradient1003"
       id="linearGradient4262"
       x1="292"
       y1="244"
       x2="332"
       y2="244"
       gradientUnits="userSpaceOnUse"
       gradientTransform="rotate(-90,312,244)" />
    <linearGradient
       inkscape:collect="always"
       xlink:href="#linearGradient1003"
       id="linearGradient4264"
       x1="293"
       y1="76"
       x2="379"
       y2="76"
       gradientUnits="userSpaceOnUse"
       gradientTransform="rotate(-90,336,76)" />
    <linearGradient
       inkscape:collect="always"
       xlink:href="#linearGradient1003"
       id="linearGradient4266"
       x1="291"
       y1="172"
       x2="349"
       y2="172"
       gradientUnits="userSpaceOnUse"
       gradientTransform="rotate(-90,320,172)" />
    <linearGradient
       inkscape:collect="always"
       xlink:href="#linearGradient1003"
       id="linearGradient3870"
       gradientUnits="userSpaceOnUse"
       gradientTransform="rotate(-90,428,112)"
       x1="418"
       y1="112"
       x2="438"
       y2="112" />
  </defs>
  <metadata
     id="metadata4">
    <rdf:RDF>
      <cc:Work
         rdf:about="">
        <dc:format>image/svg+xml</dc:format>
        <dc:type
           rdf:resource="http://purl.org/dc/dcmitype/StillImage" />
        <dc:creator>
          <cc:Agent>
            <dc:title>Sam Hewitt</dc:title>
          </cc:Agent>
        </dc:creator>
        <dc:source />
        <cc:license
           rdf:resource="" />
        <dc:title />
        <dc:subject>
          <rdf:Bag />
        </dc:subject>
        <dc:date />
        <dc:rights>
          <cc:Agent>
            <dc:title />
          </cc:Agent>
        </dc:rights>
        <dc:publisher>
          <cc:Agent>
            <dc:title />
          </cc:Agent>
        </dc:publisher>
        <dc:identifier />
        <dc:relation />
        <dc:language />
        <dc:coverage />
        <dc:description />
        <dc:contributor>
          <cc:Agent>
            <dc:title />
          </cc:Agent>
        </dc:contributor>
      </cc:Work>
      <cc:Work
         rdf:about="">
        <dc:format>image/svg+xml</dc:format>
        <dc:type
           rdf:resource="http://purl.org/dc/dcmitype/StillImage" />
      </cc:Work>
    </rdf:RDF>
  </metadata>
  <g
     style="display:inline"
     inkscape:groupmode="layer"
     inkscape:label="Icon"
     id="layer1">
    <g
       style="display:none"
       inkscape:label="Baseplate"
       id="layer7"
       inkscape:groupmode="layer">
      <text
         y="19.745117"
         xml:space="preserve"
         x="15.006836"
         style="font-style:normal;font-variant:normal;font-weight:normal;font-stretch:normal;line-height:0%;font-family:'DejaVu Sans';-inkscape-font-specification:'DejaVu Sans';display:inline;fill:#000000;fill-opacity:1;stroke:none;enable-background:new"
         inkscape:label="context"
         id="context"><tspan
           style="font-style:normal;font-variant:normal;font-weight:normal;font-stretch:normal;font-size:18px;line-height:1.25;font-family:'DejaVu Sans';-inkscape-font-specification:'DejaVu Sans'"
           y="19.745117"
           x="15.006836"
           sodipodi:role="line"
           id="tspan3933">categories</tspan></text>
      <text
         y="19.745117"
         xml:space="preserve"
         x="122.48828"
         style="font-style:normal;font-variant:normal;font-weight:bold;font-stretch:normal;line-height:0%;font-family:'DejaVu Sans';-inkscape-font-specification:'DejaVu Sans Bold';text-align:start;writing-mode:lr-tb;text-anchor:start;display:inline;fill:#000000;fill-opacity:1;stroke:none;enable-background:new"
         inkscape:label="icon-name"
         id="icon-name"><tspan
           style="font-style:normal;font-variant:normal;font-weight:bold;font-stretch:normal;font-size:18px;line-height:1.25;font-family:'DejaVu Sans';-inkscape-font-specification:'DejaVu Sans Bold'"
           y="19.745117"
           x="122.48828"
           sodipodi:role="line"
           id="tspan3937">com.github.bleakgrey.tootle</tspan></text>
      <rect
         style="display:inline;overflow:visible;visibility:visible;fill:#eeeeec;fill-opacity:1;fill-rule:nonzero;stroke:none;stroke-width:2;marker:none;enable-background:accumulate"
         id="rect16x16"
         width="16"
         height="16"
         x="416"
         y="140"
         inkscape:label="16x16" />
      <rect
         style="display:inline;overflow:visible;visibility:visible;fill:#d4d4d4;fill-opacity:1;fill-rule:nonzero;stroke:none;stroke-width:2;marker:none;enable-background:accumulate"
         id="rect24x24"
         width="24"
         height="24"
         x="416"
         y="100"
         inkscape:label="24x24" />
      <rect
         style="display:inline;overflow:visible;visibility:visible;fill:#eeeeec;fill-opacity:1;fill-rule:nonzero;stroke:none;stroke-width:2;marker:none;enable-background:accumulate"
         id="rect32x32"
         width="32"
         height="32"
         x="416"
         y="52"
         inkscape:label="32x32" />
      <rect
         inkscape:label="22x22"
         y="101"
         x="417"
         height="22"
         width="22"
         id="rect22x22"
         style="display:inline;overflow:visible;visibility:visible;fill:#eeeeec;fill-opacity:1;fill-rule:nonzero;stroke:none;stroke-width:2;marker:none;enable-background:accumulate" />
      <rect
         inkscape:label="48x48"
         y="220"
         x="288"
         height="48"
         width="48"
         id="rect48x48"
         style="display:inline;overflow:visible;visibility:visible;fill:#eeeeec;fill-opacity:1;fill-rule:nonzero;stroke:none;stroke-width:2;marker:none;enable-background:accumulate" />
      <rect
         style="display:inline;overflow:visible;visibility:visible;fill:#eeeeec;fill-opacity:1;fill-rule:nonzero;stroke:none;stroke-width:2;marker:none;enable-background:accumulate"
         id="rect256x256"
         width="256"
         height="256"
         x="16"
         y="28"
         inkscape:label="256x256" />
      <rect
         style="display:inline;overflow:visible;visibility:visible;fill:#eeeeec;fill-opacity:1;fill-rule:nonzero;stroke:none;stroke-width:2;marker:none;enable-background:accumulate"
         id="rect64x64"
         width="64"
         height="64"
         x="288"
         y="140"
         inkscape:label="64x64" />
      <rect
         style="display:inline;overflow:visible;visibility:visible;fill:#eeeeec;fill-opacity:1;fill-rule:nonzero;stroke:none;stroke-width:2;marker:none;enable-background:accumulate"
         id="rect96x96"
         width="96"
         height="96"
         x="288"
         y="28"
         inkscape:label="96x96" />
    </g>
    <g
       inkscape:groupmode="layer"
       id="layer4"
       inkscape:label="Shadow"
       style="display:inline"
       sodipodi:insensitive="true">
      <rect
         ry="50"
         y="47"
         x="34"
         height="220"
         width="220"
         id="rect4114"
         style="opacity:0.1;color:#bebebe;fill:#000000;fill-opacity:1;fill-rule:nonzero;stroke:none;stroke-width:0;marker:none;visibility:visible;display:inline;overflow:visible;enable-background:accumulate" />
      <rect
         style="opacity:0.1;color:#bebebe;fill:#000000;fill-opacity:1;fill-rule:nonzero;stroke:none;stroke-width:0;marker:none;visibility:visible;display:inline;overflow:visible;enable-background:accumulate"
         id="rect4120"
         width="30"
         height="30"
         x="417"
         y="54"
         ry="7" />
      <rect
         transform="scale(1,-1)"
         ry="9"
         y="-266"
         x="291"
         height="42"
         width="42"
         id="rect4122"
         style="opacity:0.1;color:#bebebe;fill:#000000;fill-opacity:1;fill-rule:nonzero;stroke:none;stroke-width:0;marker:none;visibility:visible;display:inline;overflow:visible;enable-background:accumulate" />
      <rect
         style="opacity:0.1;color:#bebebe;fill:#000000;fill-opacity:1;fill-rule:nonzero;stroke:none;stroke-width:0;marker:none;visibility:visible;display:inline;overflow:visible;enable-background:accumulate"
         id="rect4124"
         width="88"
         height="88"
         x="292"
         y="33"
         ry="18" />
      <rect
         ry="12.5"
         y="143"
         x="290"
         height="60"
         width="60"
         id="rect4126"
         style="opacity:0.1;color:#bebebe;fill:#000000;fill-opacity:1;fill-rule:nonzero;stroke:none;stroke-width:0;marker:none;visibility:visible;display:inline;overflow:visible;enable-background:accumulate" />
      <path
         id="path4268"
         d="m 422,101 c -2.77,0 -5,2.23 -5,5 l 0,12 c 0,2.77 2.23,5 5,5 l 12,0 c 2.77,0 5,-2.23 5,-5 l 0,-12 c 0,-2.77 -2.23,-5 -5,-5 z"
         style="opacity:0.1;color:#bebebe;fill:#000000;fill-opacity:1;fill-rule:nonzero;stroke:none;stroke-width:0;marker:none;visibility:visible;display:inline;overflow:visible;enable-background:accumulate"
         inkscape:connector-curvature="0"
         sodipodi:nodetypes="sssssssss" />
      <path
         id="path4270"
         d="m 419,140 c -1.662,0 -3,1.338 -3,3 l 0,10 c 0,1.662 1.338,3 3,3 l 10,0 c 1.662,0 3,-1.338 3,-3 l 0,-10 c 0,-1.662 -1.338,-3 -3,-3 z"
         style="opacity:0.1;color:#bebebe;fill:#000000;fill-opacity:1;fill-rule:nonzero;stroke:none;stroke-width:0;marker:none;visibility:visible;display:inline;overflow:visible;enable-background:accumulate"
         inkscape:connector-curvature="0"
         sodipodi:nodetypes="sssssssss" />
    </g>
    <g
       inkscape:groupmode="layer"
       id="layer2"
       inkscape:label="Background"
       style="display:inline">
      <path
         style="color:#bebebe;display:inline;overflow:visible;visibility:visible;fill:url(#linearGradient4254);fill-opacity:1;fill-rule:nonzero;stroke:none;stroke-width:2;marker:none;enable-background:accumulate"
         d="M 84,46.5 C 56.56874,46.5 34.5,68.56873 34.5,96 v 120 c 0,27.43127 22.06874,49.5 49.5,49.5 h 120 c 27.43127,0 49.5,-22.06873 49.5,-49.5 V 96 C 253.5,68.56873 231.43127,46.5 204,46.5 Z"
         id="path4200"
         inkscape:connector-curvature="0" />
      <path
         style="color:#bebebe;fill:url(#linearGradient4256);fill-opacity:1.0;fill-rule:nonzero;stroke:none;stroke-width:2;marker:none;visibility:visible;display:inline;overflow:visible;enable-background:accumulate"
         d="M 419 140.5 C 417.6156 140.5 416.5 141.6156 416.5 143 L 416.5 153 C 416.5 154.3844 417.6156 155.5 419 155.5 L 429 155.5 C 430.3844 155.5 431.5 154.3844 431.5 153 L 431.5 143 C 431.5 141.6156 430.3844 140.5 429 140.5 L 419 140.5 z "
         id="path4202" />
      <path
         style="color:#bebebe;fill:url(#linearGradient3870);fill-opacity:1.0;fill-rule:nonzero;stroke:none;stroke-width:2;marker:none;visibility:visible;display:inline;overflow:visible;enable-background:accumulate"
         d="M 422 101.5 C 419.50301 101.5 417.5 103.50301 417.5 106 L 417.5 118 C 417.5 120.49699 419.50301 122.5 422 122.5 L 434 122.5 C 436.49699 122.5 438.5 120.49699 438.5 118 L 438.5 106 C 438.5 103.50301 436.49699 101.5 434 101.5 L 422 101.5 z "
         id="path4204" />
      <path
         style="color:#bebebe;fill:url(#linearGradient4260);fill-opacity:1.0;fill-rule:nonzero;stroke:none;stroke-width:2;marker:none;visibility:visible;display:inline;overflow:visible;enable-background:accumulate"
         d="M 424 53.5 C 420.39346 53.5 417.5 56.393464 417.5 60 L 417.5 76 C 417.5 79.606536 420.39346 82.5 424 82.5 L 440 82.5 C 443.60654 82.5 446.5 79.606536 446.5 76 L 446.5 60 C 446.5 56.393464 443.60654 53.5 440 53.5 L 424 53.5 z "
         id="path4206" />
      <path
         style="color:#bebebe;fill:url(#linearGradient4262);fill-opacity:1.0;fill-rule:nonzero;stroke:none;stroke-width:2;marker:none;visibility:visible;display:inline;overflow:visible;enable-background:accumulate"
         d="M 300 223.5 C 295.28469 223.5 291.5 227.28469 291.5 232 L 291.5 256 C 291.5 260.71531 295.28469 264.5 300 264.5 L 324 264.5 C 328.71531 264.5 332.5 260.71531 332.5 256 L 332.5 232 C 332.5 227.28469 328.71531 223.5 324 223.5 L 300 223.5 z "
         id="path4208" />
      <path
         style="color:#bebebe;fill:url(#linearGradient4264);fill-opacity:1.0;fill-rule:nonzero;stroke:none;stroke-width:2;marker:none;visibility:visible;display:inline;overflow:visible;enable-background:accumulate"
         d="M 310 32.5 C 300.29745 32.5 292.5 40.297452 292.5 50 L 292.5 102 C 292.5 111.70255 300.29745 119.5 310 119.5 L 362 119.5 C 371.70255 119.5 379.5 111.70255 379.5 102 L 379.5 50 C 379.5 40.297452 371.70255 32.5 362 32.5 L 310 32.5 z "
         id="path4210" />
      <path
         style="color:#bebebe;fill:url(#linearGradient4266);fill-opacity:1.0;fill-rule:nonzero;stroke:none;stroke-width:2;marker:none;visibility:visible;display:inline;overflow:visible;enable-background:accumulate"
         d="M 302.5 142.5 C 295.84498 142.5 290.5 147.84498 290.5 154.5 L 290.5 189.5 C 290.5 196.15502 295.84498 201.5 302.5 201.5 L 337.5 201.5 C 344.15502 201.5 349.5 196.15502 349.5 189.5 L 349.5 154.5 C 349.5 147.84498 344.15502 142.5 337.5 142.5 L 302.5 142.5 z "
         id="path4212" />
    </g>
    <g
       inkscape:groupmode="layer"
       id="layer6"
       inkscape:label="Symbols"
       style="display:inline">
      <path
         style="display:inline;opacity:0.2;fill:#000000;stroke-width:1.5519768;enable-background:new"
         inkscape:connector-curvature="0"
         d="m 213.85194,144.9179 -18.56785,-35.57131 c -0.0279,-0.0419 -0.0528,-0.0791 -0.0854,-0.1164 -0.12726,-0.1645 -0.27625,-0.30884 -0.44076,-0.42679 -0.66115,-0.48266 -1.56284,-0.58199 -2.33883,-0.17692 -0.45473,0.24055 -0.79306,0.61458 -0.98706,1.05224 -0.0279,0.0388 -0.0404,0.0838 -0.0574,0.12881 l -10.03664,24.07271 -19.91341,10.3967 c -0.13037,0.0683 -0.26539,0.13657 -0.38955,0.20796 l -6.77127,3.53541 -5.89907,3.07912 -1.54266,-2.95652 c -0.87532,-1.67458 -2.93324,-2.32176 -4.60782,-1.44644 -1.67148,0.87221 -2.32176,2.93324 -1.44644,4.60782 l 1.54266,2.95651 -5.69886,2.97514 -4.92287,-9.42826 8.83541,-4.61092 c 2.26743,-1.18726 3.14896,-3.99013 1.9648,-6.25757 -0.19089,-0.36937 -0.42524,-0.69839 -0.69684,-0.99016 l -0.40196,-0.38955 c -1.39523,-1.19347 -3.43453,-1.48679 -5.15722,-0.58665 l -26.09183,13.6186 c -2.27055,1.18727 -3.15207,3.99014 -1.96791,6.26068 0.18624,0.3554 0.41127,0.67821 0.672,0.96222 0.13503,0.15365 0.28246,0.29798 0.43766,0.42369 1.39523,1.18571 3.42677,1.47593 5.14946,0.57579 l 8.8323,-4.60782 4.91977,9.42826 -6.29172,3.28398 -1.54266,-2.95652 c -0.87532,-1.67148 -2.93945,-2.31865 -4.60782,-1.44644 -0.44076,0.22969 -0.80858,0.54164 -1.10035,0.90791 -0.80703,1.0243 -0.99172,2.46609 -0.3492,3.69991 l 1.54267,2.95651 -9.5788,5.00202 c -0.13037,0.0652 -0.26229,0.13347 -0.39265,0.20176 l -22.814059,11.90987 -7.78472,-1.6901 c -0.0217,-0.006 -0.0419,-0.009 -0.059,-0.0124 -0.21573,-0.0419 -0.44852,-0.009 -0.65804,0.0978 -0.46559,0.24366 -0.66425,0.79306 -0.47956,1.26951 l 8.53742,16.35008 c 0.0217,0.031 0.0435,0.0621 0.0667,0.09 l 0.0109,0.014 0.12416,0.1164 c 0.30263,0.25142 0.73874,0.30729 1.11432,0.11329 0.20952,-0.11174 0.36316,-0.2809 0.45473,-0.48421 0.0109,-0.0171 0.0171,-0.0357 0.0233,-0.0559 l 3.12568,-7.49295 9.13183,-4.76922 c 0.0357,2.5949 0.66269,5.2193 1.94463,7.67608 4.381229,8.38998 14.739119,11.64293 23.133759,7.26169 0.13037,-0.0683 0.26229,-0.13657 0.38955,-0.20796 l 9.5788,-5.00202 1.79098,3.43142 c 0.87221,1.67148 2.93945,2.31865 4.60782,1.44644 1.67148,-0.87221 2.32176,-2.93634 1.44955,-4.60782 l -1.79098,-3.42831 6.29171,-3.28709 5.22551,10.00715 c 1.21675,2.32951 4.0848,3.23121 6.41432,2.01446 0.65183,-0.33678 1.19192,-0.80858 1.59698,-1.35798 1.06776,-1.41851 1.28969,-3.37865 0.41438,-5.05634 l -5.22085,-10.00715 5.69886,-2.97514 1.79098,3.42832 c 0.87221,1.67148 2.93634,2.32176 4.60782,1.44955 1.67458,-0.87532 2.31865,-2.93945 1.44644,-4.60782 l -1.79098,-3.43142 13.21819,-6.90009 c 0.91256,-0.48732 1.76149,-1.04759 2.54834,-1.66838 6.33983,-5.00512 8.435,-13.96002 4.56281,-21.38002 -1.28038,-2.45368 -3.07601,-4.46815 -5.1836,-5.98288 l 6.22964,-3.25139 25.63555,5.55608 c 0.0481,0.0124 0.0916,0.0264 0.13657,0.0295 0.47336,0.09 0.97309,0.0295 1.42782,-0.21107 1.00724,-0.52767 1.44024,-1.72114 1.03983,-2.75941 z m -96.31724,50.29181 c -0.059,0.0357 -0.11329,0.0652 -0.17537,0.0962 -3.77286,1.96946 -8.42258,0.5106 -10.39359,-3.26225 -1.96635,-3.76976 -0.5106,-8.41948 3.25605,-10.38894 l 9.98231,-5.20998 7.12668,13.65274 z m 15.85189,-8.27514 -7.12667,-13.65274 0.41748,-0.21573 5.87578,-3.06825 7.12668,13.65274 -1.34091,0.69994 z m 14.7205,-7.68229 -7.12667,-13.65274 5.69886,-2.97513 7.12667,13.65273 z m 23.64437,-12.35839 c -0.0822,0.0528 -0.16916,0.10398 -0.25452,0.14744 l -11.63672,6.07599 -7.12668,-13.65274 8.6771,-4.53177 2.78114,-1.44955 c 0.14744,-0.0761 0.29643,-0.14743 0.44852,-0.21572 3.6844,-1.63889 8.05321,-0.14589 9.94507,3.47798 1.66838,3.19086 0.87997,7.00873 -1.68545,9.3041 -0.35074,0.30884 -0.73253,0.5944 -1.14846,0.84427 z"
         id="path1085" />
      <path
         style="display:inline;opacity:0.2;fill:#000000;stroke-width:0.66513282;enable-background:new"
         inkscape:connector-curvature="0"
         d="m 365.9364,71.822156 -7.95765,-15.244845 c -0.012,-0.01796 -0.0226,-0.0339 -0.0366,-0.04989 -0.0545,-0.0705 -0.1184,-0.13236 -0.1889,-0.18291 -0.28335,-0.206854 -0.66979,-0.249424 -1.00236,-0.07582 -0.19488,0.103093 -0.33988,0.263391 -0.42302,0.45096 -0.012,0.01663 -0.0173,0.03591 -0.0246,0.0552 l -4.30142,10.316874 -8.53431,4.455728 c -0.0559,0.02927 -0.11374,0.05853 -0.16695,0.08913 l -2.90198,1.515175 -2.52817,1.319623 -0.66114,-1.26708 c -0.37514,-0.717677 -1.2571,-0.99504 -1.97478,-0.619903 -0.71635,0.373805 -0.99504,1.257103 -0.6199,1.97478 l 0.66114,1.267076 -2.44237,1.275059 -2.1098,-4.040682 3.7866,-1.976108 c 0.97176,-0.508826 1.34956,-1.710056 0.84206,-2.681816 -0.0818,-0.158301 -0.18225,-0.29931 -0.29865,-0.424354 l -0.17227,-0.16695 c -0.59795,-0.511487 -1.47194,-0.637195 -2.21023,-0.251421 l -11.18221,5.836542 c -0.9731,0.50883 -1.35089,1.71006 -0.84339,2.683148 0.0798,0.152314 0.17626,0.290662 0.288,0.41238 0.0579,0.06585 0.12105,0.127706 0.18757,0.181582 0.59795,0.508161 1.46861,0.632541 2.20691,0.246767 l 3.78527,-1.97478 2.10847,4.040682 -2.69645,1.40742 -0.66114,-1.26708 c -0.37514,-0.716348 -1.25976,-0.993707 -1.97478,-0.619903 -0.1889,0.09844 -0.34653,0.232132 -0.47158,0.389105 -0.34587,0.438985 -0.42502,1.056895 -0.14966,1.585675 l 0.66115,1.267075 -4.1052,2.143723 c -0.0559,0.02794 -0.11241,0.0572 -0.16828,0.08647 l -9.77745,5.104229 -3.33631,-0.724329 c -0.009,-0.0026 -0.018,-0.0039 -0.0253,-0.0053 -0.0924,-0.01796 -0.19222,-0.0039 -0.28201,0.04191 -0.19954,0.104426 -0.28468,0.339883 -0.20553,0.544076 l 3.65889,7.007176 c 0.009,0.01329 0.0186,0.02661 0.0286,0.03857 l 0.005,0.006 0.0532,0.04989 c 0.1297,0.107752 0.31661,0.131696 0.47757,0.04855 0.0898,-0.04789 0.15564,-0.120386 0.19488,-0.207519 0.005,-0.0073 0.007,-0.0153 0.01,-0.02396 l 1.33958,-3.211264 3.91364,-2.043951 c 0.0153,1.1121 0.28401,2.236843 0.83341,3.289748 1.87767,3.595706 6.31676,4.989827 9.91447,3.112153 0.0559,-0.02927 0.11241,-0.05853 0.16695,-0.08913 l 4.1052,-2.143722 0.76756,1.470608 c 0.3738,0.716348 1.25976,0.993707 1.97478,0.619903 0.71635,-0.373805 0.99504,-1.258432 0.62123,-1.97478 l -0.76756,-1.469275 2.69645,-1.408753 2.2395,4.288778 c 0.52147,0.998361 1.75063,1.384804 2.749,0.86334 0.27935,-0.144335 0.51082,-0.346535 0.68442,-0.581992 0.45761,-0.607932 0.55272,-1.447992 0.17759,-2.167002 l -2.23751,-4.288778 2.44237,-1.27506 0.76756,1.46928 c 0.37381,0.716348 1.25843,0.99504 1.97478,0.621235 0.71768,-0.375137 0.99371,-1.259764 0.6199,-1.974779 l -0.76756,-1.470609 5.66494,-2.957181 c 0.3911,-0.208851 0.75492,-0.448967 1.09214,-0.715019 2.71707,-2.145052 3.615,-5.982865 1.95549,-9.162865 -0.54873,-1.051577 -1.31829,-1.914921 -2.22154,-2.564091 l 2.66985,-1.393452 10.98666,2.381177 c 0.0206,0.0053 0.0393,0.01131 0.0585,0.01264 0.20287,0.03857 0.41704,0.01264 0.61192,-0.09046 0.43168,-0.226145 0.61725,-0.737632 0.44564,-1.182604 z m -41.27881,21.55363 c -0.0253,0.0153 -0.0486,0.02794 -0.0752,0.04123 -1.61694,0.844054 -3.60968,0.218829 -4.4544,-1.398107 -0.84272,-1.615611 -0.21883,-3.608348 1.39545,-4.452402 l 4.27813,-2.232848 3.05429,5.851173 z m 6.79366,-3.546488 -3.05429,-5.851174 0.17892,-0.09246 2.5182,-1.314965 3.05429,5.851174 -0.57468,0.299974 z m 6.30879,-3.29241 -3.05429,-5.851173 2.44237,-1.275056 3.05428,5.851169 z m 10.1333,-5.296452 c -0.0352,0.02263 -0.0725,0.04456 -0.10908,0.06319 l -4.98717,2.603995 -3.05429,-5.851173 3.71876,-1.942187 1.19191,-0.621236 c 0.0632,-0.03261 0.12704,-0.06318 0.19223,-0.09245 1.57902,-0.702381 3.45137,-0.06252 4.26217,1.490563 0.71502,1.367511 0.37713,3.00374 -0.72234,3.98747 -0.15031,0.13236 -0.31394,0.254743 -0.49219,0.36183 z"
         id="path1087" />
      <path
         style="display:inline;opacity:0.2;fill:#000000;stroke-width:0.44341961;enable-background:new"
         inkscape:connector-curvature="0"
         d="m 339.95753,169.54801 -5.30507,-10.16317 c -0.008,-0.012 -0.0151,-0.0226 -0.0244,-0.0333 -0.0363,-0.047 -0.0789,-0.0882 -0.12593,-0.12194 -0.1889,-0.1379 -0.44653,-0.16628 -0.66824,-0.0505 -0.12992,0.0687 -0.22659,0.17559 -0.28201,0.30064 -0.008,0.0111 -0.0115,0.0239 -0.0164,0.0368 l -2.8676,6.87787 -5.68951,2.97048 c -0.0373,0.0195 -0.0758,0.039 -0.1113,0.0594 l -1.93464,1.01011 -1.68544,0.87974 -0.44076,-0.84471 c -0.25009,-0.47845 -0.83806,-0.66336 -1.31651,-0.41327 -0.47757,0.2492 -0.66336,0.83806 -0.41327,1.31652 l 0.44076,0.8447 -1.62824,0.85004 -1.40652,-2.69377 2.52438,-1.3174 c 0.64784,-0.33921 0.8997,-1.14003 0.56137,-1.78787 -0.0545,-0.10553 -0.1215,-0.19954 -0.1991,-0.2829 l -0.11484,-0.1113 c -0.39863,-0.34099 -0.98129,-0.42479 -1.47348,-0.16761 l -7.45477,3.891 c -0.64873,0.33922 -0.90059,1.14004 -0.56226,1.78876 0.0532,0.10155 0.11751,0.19377 0.192,0.27492 0.0386,0.0439 0.0807,0.0851 0.12505,0.12105 0.39863,0.33877 0.97907,0.42169 1.47126,0.16451 l 2.5235,-1.31651 1.40564,2.69377 -1.79762,0.93828 -0.44076,-0.84472 c -0.25009,-0.47756 -0.83983,-0.66246 -1.31651,-0.41326 -0.12593,0.0656 -0.23102,0.15475 -0.31439,0.2594 -0.23057,0.29266 -0.28334,0.70459 -0.0998,1.05711 l 0.44077,0.84471 -2.73679,1.42915 c -0.0373,0.0186 -0.0749,0.0381 -0.11219,0.0577 l -6.51826,3.40281 -2.2242,-0.48289 c -0.006,-0.002 -0.012,-0.003 -0.0169,-0.003 -0.0616,-0.012 -0.12815,-0.003 -0.18801,0.0279 -0.13303,0.0696 -0.18979,0.22659 -0.13702,0.36271 l 2.43925,4.67143 c 0.006,0.009 0.0124,0.0177 0.0191,0.0257 l 0.003,0.004 0.0355,0.0333 c 0.0865,0.0718 0.21108,0.0878 0.31838,0.0323 0.0599,-0.0319 0.10376,-0.0803 0.12992,-0.13834 0.003,-0.005 0.005,-0.0102 0.007,-0.016 l 0.89305,-2.14083 2.60908,-1.36263 c 0.0102,0.7414 0.18934,1.49122 0.5556,2.19315 1.25177,2.39713 4.21115,3.32654 6.60961,2.07476 0.0373,-0.0195 0.0749,-0.039 0.1113,-0.0594 l 2.73679,-1.42914 0.5117,0.9804 c 0.2492,0.47756 0.83984,0.66247 1.31652,0.41327 0.47756,-0.2492 0.66335,-0.83895 0.41415,-1.31651 l -0.51171,-0.97952 1.79763,-0.93916 1.49299,2.85917 c 0.34764,0.66557 1.16708,0.9232 1.83266,0.57556 0.18623,-0.0962 0.34054,-0.23102 0.45627,-0.388 0.30508,-0.40528 0.36848,-0.96532 0.1184,-1.44466 l -1.49167,-2.85917 1.62824,-0.85003 0.5117,0.97951 c 0.24921,0.47757 0.83895,0.66336 1.31652,0.41416 0.47845,-0.25009 0.66247,-0.83984 0.41326,-1.31651 l -0.5117,-0.98041 3.7766,-1.97144 c 0.26074,-0.13923 0.50328,-0.29931 0.72809,-0.47668 1.81138,-1.43002 2.40999,-3.98855 1.30366,-6.10854 -0.36582,-0.70105 -0.87886,-1.27661 -1.48102,-1.70939 l 1.77989,-0.92896 7.3244,1.58744 c 0.0137,0.003 0.0262,0.008 0.039,0.008 0.13525,0.0257 0.27803,0.008 0.40795,-0.0603 0.28778,-0.15077 0.41149,-0.49175 0.29709,-0.7884 z m -27.51906,14.36901 c -0.0169,0.0102 -0.0324,0.0186 -0.0501,0.0275 -1.07795,0.5627 -2.40644,0.14589 -2.96958,-0.93207 -0.56181,-1.07707 -0.14589,-2.40555 0.93029,-2.96825 l 2.85208,-1.48856 2.03618,3.90077 z m 4.52908,-2.36431 -2.03618,-3.90076 0.11928,-0.0617 1.67879,-0.87664 2.03618,3.90077 -0.38312,0.19998 z m 4.20584,-2.19493 -2.03618,-3.90076 1.62823,-0.85003 2.03618,3.90076 z m 6.7555,-3.53095 c -0.0235,0.0151 -0.0483,0.0297 -0.0727,0.0421 l -3.32477,1.73599 -2.03618,-3.90077 2.47916,-1.29478 0.7946,-0.41416 c 0.0421,-0.0217 0.0847,-0.0421 0.12816,-0.0617 1.05267,-0.46826 2.3009,-0.0417 2.84143,0.9937 0.47668,0.91167 0.25142,2.00248 -0.48156,2.6583 -0.1002,0.0882 -0.20929,0.16983 -0.32812,0.24122 z"
         id="path1089" />
      <path
         style="display:inline;opacity:0.2;fill:#000000;stroke-width:0.31039372;enable-background:new"
         inkscape:connector-curvature="0"
         d="m 325.97032,242.5835 -3.71355,-7.11422 c -0.006,-0.008 -0.0105,-0.0158 -0.0171,-0.0233 -0.0254,-0.0329 -0.0553,-0.0618 -0.0882,-0.0854 -0.13223,-0.0965 -0.31257,-0.1164 -0.46777,-0.0354 -0.0909,0.0481 -0.15861,0.12292 -0.19741,0.21045 -0.006,0.008 -0.008,0.0168 -0.0115,0.0258 l -2.00731,4.81451 -3.98266,2.07933 c -0.0261,0.0137 -0.0531,0.0273 -0.0779,0.0416 l -1.35425,0.70708 -1.17981,0.61582 -0.30853,-0.5913 c -0.17506,-0.33492 -0.58664,-0.46435 -0.92156,-0.28929 -0.33429,0.17444 -0.46435,0.58665 -0.28928,0.92156 l 0.30853,0.5913 -1.13977,0.59502 -0.98457,-1.88564 1.76707,-0.92218 c 0.45349,-0.23745 0.62979,-0.79802 0.39296,-1.25151 -0.0382,-0.0739 -0.0851,-0.13967 -0.13937,-0.19802 l -0.0804,-0.0779 c -0.27904,-0.2387 -0.6869,-0.29736 -1.03143,-0.11733 l -5.21834,2.7237 c -0.45411,0.23745 -0.63041,0.79803 -0.39358,1.25213 0.0372,0.0711 0.0822,0.13564 0.1344,0.19245 0.027,0.0307 0.0565,0.0596 0.0875,0.0847 0.27904,0.23714 0.68535,0.29519 1.02988,0.11516 l 1.76646,-0.92156 0.98394,1.88564 -1.25833,0.6568 -0.30853,-0.59131 c -0.17507,-0.33429 -0.58789,-0.46372 -0.92156,-0.28928 -0.0882,0.0459 -0.16172,0.10833 -0.22007,0.18158 -0.16141,0.20486 -0.19835,0.49322 -0.0698,0.73998 l 0.30853,0.59129 -1.91575,1.00041 c -0.0261,0.013 -0.0525,0.0267 -0.0785,0.0404 l -4.56279,2.38196 -1.55693,-0.33801 c -0.004,-0.001 -0.008,-0.002 -0.0118,-0.002 -0.0431,-0.008 -0.0897,-0.002 -0.1316,0.0196 -0.0931,0.0487 -0.13285,0.15861 -0.0959,0.25389 l 1.70748,3.27 c 0.004,0.006 0.009,0.0124 0.0133,0.018 l 0.002,0.003 0.0248,0.0233 c 0.0605,0.0503 0.14775,0.0615 0.22287,0.0227 0.0419,-0.0224 0.0726,-0.0562 0.0909,-0.0968 0.002,-0.003 0.003,-0.007 0.005,-0.0112 l 0.62513,-1.49858 1.82636,-0.95384 c 0.007,0.51898 0.13254,1.04386 0.38892,1.53521 0.87624,1.67799 2.94781,2.32857 4.62673,1.45233 0.0261,-0.0137 0.0525,-0.0273 0.0779,-0.0416 l 1.91575,-1.0004 0.35819,0.68628 c 0.17444,0.3343 0.58789,0.46373 0.92156,0.28929 0.3343,-0.17444 0.46435,-0.58727 0.28991,-0.92156 l -0.3582,-0.68566 1.25834,-0.65741 1.0451,2.00141 c 0.24335,0.4659 0.81695,0.64624 1.28286,0.40289 0.13036,-0.0673 0.23838,-0.16171 0.31939,-0.27159 0.21355,-0.2837 0.25793,-0.67573 0.0829,-1.01126 l -1.04416,-2.00142 1.13977,-0.59503 0.35819,0.68566 c 0.17444,0.3343 0.58726,0.46435 0.92156,0.28991 0.33491,-0.17506 0.46373,-0.58789 0.28928,-0.92156 l -0.35819,-0.68628 2.64363,-1.38001 c 0.18251,-0.0975 0.35229,-0.20952 0.50966,-0.33367 1.26796,-1.00102 1.68699,-2.79199 0.91256,-4.27599 -0.25608,-0.49073 -0.6152,-0.89362 -1.03672,-1.19656 l 1.24593,-0.65028 5.12708,1.11121 c 0.01,0.002 0.0183,0.005 0.0273,0.006 0.0947,0.018 0.19461,0.006 0.28556,-0.0422 0.20145,-0.10554 0.28805,-0.34423 0.20796,-0.55188 z m -19.26334,10.05831 c -0.0118,0.007 -0.0227,0.013 -0.0351,0.0192 -0.75456,0.39389 -1.68451,0.10212 -2.07871,-0.65245 -0.39326,-0.75395 -0.10212,-1.68389 0.65121,-2.07777 l 1.99645,-1.042 1.42533,2.73054 z m 3.17035,-1.65502 -1.42532,-2.73053 0.0835,-0.0432 1.17516,-0.61365 1.42532,2.73054 -0.26818,0.13999 z m 2.94409,-1.53645 -1.42533,-2.73053 1.13977,-0.59502 1.42532,2.73053 z m 4.72885,-2.47166 c -0.0164,0.0105 -0.0338,0.0208 -0.0509,0.0295 l -2.32734,1.21519 -1.42533,-2.73053 1.73542,-0.90635 0.55622,-0.28991 c 0.0295,-0.0152 0.0593,-0.0295 0.0897,-0.0432 0.73687,-0.32778 1.61063,-0.0292 1.989,0.69559 0.33367,0.63816 0.17599,1.40173 -0.33709,1.86081 -0.0701,0.0618 -0.14651,0.11887 -0.22969,0.16885 z"
         id="path1091" />
      <path
         style="display:inline;opacity:0.2;fill:#000000;stroke-width:0.22171044;enable-background:new"
         inkscape:connector-curvature="0"
         d="m 441.97792,67.27403 -2.65254,-5.0816 c -0.004,-0.0057 -0.007,-0.01129 -0.0122,-0.01664 -0.0181,-0.0235 -0.0395,-0.04414 -0.063,-0.061 -0.0944,-0.06893 -0.22326,-0.08314 -0.33412,-0.02529 -0.0649,0.03436 -0.11329,0.0878 -0.14101,0.150322 -0.004,0.0057 -0.006,0.012 -0.008,0.01843 l -1.4338,3.438946 -2.84476,1.48524 c -0.0186,0.0098 -0.0379,0.0195 -0.0556,0.02971 l -0.96732,0.505059 -0.84273,0.439873 -0.22037,-0.422359 c -0.12505,-0.239229 -0.41903,-0.331679 -0.65826,-0.206636 -0.23878,0.1246 -0.33168,0.419037 -0.20663,0.658259 l 0.22038,0.422358 -0.81413,0.425016 -0.70326,-1.34689 1.26219,-0.658701 c 0.32393,-0.169608 0.44985,-0.570016 0.28069,-0.893939 -0.0273,-0.05279 -0.0608,-0.09976 -0.0996,-0.141443 l -0.0574,-0.05564 c -0.19931,-0.170501 -0.49064,-0.212401 -0.73674,-0.08381 l -3.72739,1.945505 c -0.32437,0.169608 -0.4503,0.570023 -0.28113,0.894381 0.0266,0.05079 0.0587,0.09689 0.096,0.137465 0.0193,0.02193 0.0403,0.04257 0.0625,0.0605 0.19931,0.169386 0.48953,0.210851 0.73563,0.08226 l 1.26176,-0.658259 0.70281,1.346888 -0.8988,0.469145 -0.22038,-0.422366 c -0.12505,-0.238779 -0.41993,-0.331229 -0.65826,-0.206629 -0.063,0.03279 -0.11552,0.07738 -0.1572,0.1297 -0.11529,0.146329 -0.14168,0.352301 -0.0498,0.528559 l 0.22038,0.422351 -1.3684,0.714581 c -0.0186,0.0093 -0.0375,0.01907 -0.0561,0.02886 l -3.25915,1.701405 -1.11209,-0.241436 c -0.003,-7.15e-4 -0.006,-0.0014 -0.008,-0.0014 -0.0308,-0.0057 -0.0641,-0.0014 -0.094,0.014 -0.0665,0.03479 -0.0949,0.113293 -0.0685,0.181351 l 1.21963,2.335721 c 0.003,0.0043 0.006,0.0089 0.01,0.01286 l 0.001,0.0021 0.0177,0.01664 c 0.0432,0.03593 0.10554,0.04393 0.1592,0.01621 0.0299,-0.016 0.0519,-0.04014 0.0649,-0.06914 0.001,-0.0021 0.002,-0.005 0.004,-0.008 l 0.44652,-1.070418 1.30454,-0.681316 c 0.005,0.370701 0.0947,0.745617 0.27781,1.096582 0.62588,1.198568 2.10558,1.663269 3.30481,1.037381 0.0186,-0.0098 0.0375,-0.0195 0.0556,-0.02971 l 1.36839,-0.714573 0.25585,0.490201 c 0.1246,0.238786 0.41993,0.331237 0.65826,0.206636 0.23879,-0.1246 0.33168,-0.419479 0.20708,-0.658259 l -0.25586,-0.489758 0.89882,-0.46958 0.7465,1.429582 c 0.17382,0.332787 0.58354,0.461602 0.91633,0.28778 0.0931,-0.04807 0.17028,-0.115508 0.22814,-0.193994 0.15254,-0.202643 0.18424,-0.482665 0.0592,-0.72233 l -0.74583,-1.42959 0.81413,-0.425023 0.25585,0.489759 c 0.1246,0.238786 0.41947,0.331679 0.65826,0.207079 0.23922,-0.125043 0.33123,-0.419923 0.20663,-0.658259 l -0.25585,-0.490201 1.88831,-0.985725 c 0.13036,-0.06964 0.25163,-0.149657 0.36404,-0.238336 0.90569,-0.715016 1.205,-1.994284 0.65183,-3.054287 -0.18291,-0.350522 -0.43943,-0.638302 -0.74051,-0.854688 l 0.88995,-0.464487 3.66221,0.793724 c 0.007,0.0014 0.0131,0.0036 0.0195,0.0043 0.0676,0.01286 0.13901,0.0043 0.20397,-0.03014 0.14389,-0.07539 0.20575,-0.24588 0.14854,-0.394202 z m -13.75957,7.184527 c -0.008,0.005 -0.0162,0.0093 -0.0251,0.01372 -0.53897,0.281351 -1.20322,0.07294 -1.4848,-0.466037 -0.2809,-0.538538 -0.0729,-1.202782 0.46515,-1.484126 l 1.42604,-0.744288 1.0181,1.950391 z m 2.26454,-1.18216 -1.01808,-1.950384 0.0596,-0.03086 0.8394,-0.438322 1.01809,1.950391 -0.19156,0.09999 z m 2.10293,-1.097468 -1.01809,-1.950384 0.81412,-0.425015 1.01809,1.950384 z m 3.37776,-1.765476 c -0.0117,0.0075 -0.0241,0.01486 -0.0364,0.02107 l -1.66239,0.867996 -1.01809,-1.950385 1.23959,-0.647394 0.3973,-0.207079 c 0.0211,-0.01086 0.0424,-0.02107 0.0641,-0.03086 0.52634,-0.234129 1.15045,-0.02086 1.42072,0.496852 0.23833,0.455829 0.12571,1.001237 -0.24078,1.329153 -0.0501,0.04414 -0.10465,0.08491 -0.16407,0.120607 z"
         id="path1093" />
      <path
         style="display:inline;opacity:0.2;fill:#000000;stroke-width:0.15519731;enable-background:new"
         inkscape:connector-curvature="0"
         d="m 434.98609,111.79233 -1.85678,-3.55712 c -0.003,-0.004 -0.005,-0.008 -0.009,-0.0117 -0.0127,-0.0164 -0.0276,-0.0309 -0.0441,-0.0427 -0.0661,-0.0482 -0.15628,-0.0582 -0.23388,-0.0177 -0.0455,0.0241 -0.0793,0.0615 -0.0987,0.10523 -0.003,0.004 -0.004,0.008 -0.006,0.0129 l -1.00366,2.40726 -1.99133,1.03967 c -0.013,0.007 -0.0265,0.0136 -0.0389,0.0208 l -0.67713,0.35354 -0.58991,0.30791 -0.15426,-0.29565 c -0.0875,-0.16746 -0.29332,-0.23218 -0.46078,-0.14465 -0.16715,0.0872 -0.23218,0.29333 -0.14464,0.46079 l 0.15426,0.29565 -0.56989,0.29751 -0.49228,-0.94283 0.88354,-0.46109 c 0.22674,-0.11872 0.31489,-0.39901 0.19648,-0.62575 -0.0191,-0.037 -0.0426,-0.0698 -0.0697,-0.099 l -0.0402,-0.0389 c -0.13952,-0.11935 -0.34345,-0.14868 -0.51572,-0.0587 l -2.60917,1.36185 c -0.22706,0.11873 -0.31521,0.39902 -0.19679,0.62607 0.0186,0.0356 0.0411,0.0678 0.0672,0.0962 0.0135,0.0153 0.0283,0.0298 0.0437,0.0423 0.13952,0.11857 0.34267,0.14759 0.51494,0.0576 l 0.88323,-0.46078 0.49197,0.94282 -0.62916,0.3284 -0.15427,-0.29566 c -0.0875,-0.16714 -0.29395,-0.23186 -0.46078,-0.14464 -0.0441,0.0229 -0.0809,0.0542 -0.11004,0.0908 -0.0807,0.10243 -0.0992,0.24661 -0.0349,0.36999 l 0.15427,0.29565 -0.95788,0.50021 c -0.013,0.007 -0.0263,0.0134 -0.0392,0.0202 l -2.2814,1.19098 -0.77847,-0.169 c -0.002,-5e-4 -0.004,-0.001 -0.006,-0.001 -0.0216,-0.004 -0.0448,-10e-4 -0.0658,0.01 -0.0466,0.0243 -0.0664,0.0793 -0.048,0.12694 l 0.85374,1.63501 c 0.002,0.003 0.005,0.006 0.007,0.009 l 10e-4,0.001 0.0124,0.0117 c 0.0302,0.0251 0.0739,0.0307 0.11144,0.0113 0.021,-0.0112 0.0363,-0.0281 0.0455,-0.0484 10e-4,-0.001 0.002,-0.003 0.002,-0.006 l 0.31257,-0.7493 0.91318,-0.47692 c 0.003,0.25949 0.0663,0.52193 0.19446,0.76761 0.43812,0.839 1.47391,1.16429 2.31337,0.72617 0.013,-0.007 0.0263,-0.0136 0.0389,-0.0208 l 0.95788,-0.50021 0.17909,0.34315 c 0.0872,0.16715 0.29395,0.23186 0.46079,0.14464 0.16715,-0.0872 0.23217,-0.29364 0.14495,-0.46078 l -0.1791,-0.34283 0.62917,-0.32871 0.52255,1.00071 c 0.12168,0.23295 0.40848,0.32312 0.64144,0.20145 0.0652,-0.0336 0.11919,-0.0809 0.15969,-0.1358 0.10678,-0.14185 0.12897,-0.33787 0.0414,-0.50563 l -0.52208,-1.00071 0.56989,-0.29752 0.17909,0.34283 c 0.0872,0.16715 0.29363,0.23218 0.46078,0.14496 0.16746,-0.0875 0.23187,-0.29395 0.14464,-0.46078 l -0.17909,-0.34315 1.32182,-0.69 c 0.0913,-0.0487 0.17614,-0.10476 0.25483,-0.16684 0.63398,-0.50051 0.84349,-1.396 0.45628,-2.138 -0.12804,-0.24536 -0.3076,-0.44681 -0.51836,-0.59828 l 0.62296,-0.32514 2.56355,0.5556 c 0.005,10e-4 0.009,0.002 0.0136,0.003 0.0473,0.009 0.0973,0.003 0.14278,-0.0211 0.10073,-0.0528 0.14403,-0.17211 0.10398,-0.27594 z m -9.6317,5.02917 c -0.006,0.003 -0.0113,0.006 -0.0175,0.01 -0.37728,0.19695 -0.84225,0.0511 -1.03935,-0.32622 -0.19663,-0.37698 -0.0511,-0.84195 0.3256,-1.03889 l 0.99823,-0.521 0.71267,1.36527 z m 1.58518,-0.82751 -0.71266,-1.36527 0.0417,-0.0216 0.58758,-0.30682 0.71267,1.36527 -0.13409,0.07 z m 1.47205,-0.76823 -0.71266,-1.36527 0.56988,-0.29751 0.71266,1.36527 z m 2.36444,-1.23583 c -0.008,0.005 -0.0169,0.0104 -0.0254,0.0147 l -1.16368,0.6076 -0.71267,-1.36527 0.86772,-0.45318 0.27811,-0.14495 c 0.0147,-0.008 0.0297,-0.0147 0.0448,-0.0216 0.36843,-0.16389 0.80532,-0.0146 0.9945,0.34779 0.16684,0.31908 0.088,0.70087 -0.16854,0.93041 -0.0351,0.0309 -0.0733,0.0594 -0.11485,0.0844 z"
         id="path1095" />
      <path
         style="display:inline;opacity:0.2;fill:#000000;stroke-width:0.11085522;enable-background:new"
         inkscape:connector-curvature="0"
         d="m 428.98857,148.13741 -1.32627,-2.5408 c -0.002,-0.003 -0.004,-0.006 -0.006,-0.008 -0.009,-0.0118 -0.0197,-0.0221 -0.0315,-0.0305 -0.0472,-0.0345 -0.11163,-0.0416 -0.16706,-0.0126 -0.0325,0.0172 -0.0567,0.0439 -0.0705,0.0752 -0.002,0.003 -0.003,0.006 -0.004,0.009 l -0.7169,1.71948 -1.42239,0.74262 c -0.009,0.005 -0.019,0.01 -0.0278,0.0149 l -0.48366,0.25253 -0.42136,0.21994 -0.11019,-0.21118 c -0.0625,-0.11962 -0.20952,-0.16584 -0.32913,-0.10332 -0.11939,0.0623 -0.16584,0.20952 -0.10331,0.32913 l 0.11019,0.21118 -0.40707,0.21251 -0.35163,-0.67345 0.6311,-0.32935 c 0.16196,-0.0848 0.22492,-0.28501 0.14034,-0.44697 -0.0136,-0.0264 -0.0304,-0.0499 -0.0498,-0.0707 l -0.0287,-0.0278 c -0.0997,-0.0853 -0.24532,-0.1062 -0.36837,-0.0419 l -1.8637,0.97275 c -0.16218,0.0848 -0.22514,0.28501 -0.14056,0.44719 0.0133,0.0254 0.0294,0.0484 0.048,0.0687 0.01,0.011 0.0202,0.0213 0.0312,0.0302 0.0997,0.0847 0.24477,0.10543 0.36782,0.0411 l 0.63088,-0.32913 0.3514,0.67345 -0.4494,0.23457 -0.11019,-0.21119 c -0.0625,-0.11938 -0.20996,-0.16561 -0.32913,-0.10331 -0.0315,0.0164 -0.0578,0.0387 -0.0786,0.0649 -0.0576,0.0732 -0.0708,0.17615 -0.0249,0.26428 l 0.11018,0.21118 -0.68419,0.35729 c -0.009,0.005 -0.0188,0.01 -0.028,0.0144 l -1.62957,0.85071 -0.55605,-0.12072 c -10e-4,-3.6e-4 -0.003,-7.2e-4 -0.004,-7.2e-4 -0.0154,-0.003 -0.032,-7.1e-4 -0.047,0.007 -0.0333,0.0174 -0.0475,0.0566 -0.0343,0.0907 l 0.60981,1.16786 c 10e-4,0.002 0.003,0.004 0.005,0.006 l 7.2e-4,0.001 0.009,0.008 c 0.0216,0.018 0.0528,0.022 0.0796,0.008 0.015,-0.008 0.0259,-0.0201 0.0325,-0.0346 7.2e-4,-0.001 10e-4,-0.002 0.002,-0.004 l 0.22326,-0.53521 0.65227,-0.34066 c 0.002,0.18535 0.0473,0.37281 0.1389,0.54829 0.31295,0.59929 1.0528,0.83164 1.65241,0.51869 0.009,-0.005 0.0188,-0.01 0.0278,-0.0149 l 0.6842,-0.35728 0.12793,0.2451 c 0.0623,0.11939 0.20996,0.16562 0.32913,0.10332 0.11939,-0.0623 0.16584,-0.20974 0.10354,-0.32913 l -0.12793,-0.24488 0.44941,-0.23479 0.37325,0.71479 c 0.0869,0.16639 0.29177,0.2308 0.45816,0.14389 0.0466,-0.024 0.0851,-0.0578 0.11407,-0.097 0.0763,-0.10132 0.0921,-0.24133 0.0296,-0.36116 l -0.37292,-0.7148 0.40707,-0.21251 0.12792,0.24488 c 0.0623,0.11939 0.20974,0.16584 0.32913,0.10354 0.11961,-0.0625 0.16562,-0.20996 0.10332,-0.32913 l -0.12793,-0.2451 0.94416,-0.49286 c 0.0652,-0.0348 0.12581,-0.0748 0.18202,-0.11917 0.45284,-0.35751 0.6025,-0.99714 0.32591,-1.52714 -0.0915,-0.17527 -0.21971,-0.31916 -0.37026,-0.42735 l 0.44498,-0.23224 1.83111,0.39686 c 0.004,7.1e-4 0.007,0.002 0.01,0.002 0.0338,0.006 0.0695,0.002 0.10198,-0.0151 0.072,-0.0377 0.10288,-0.12294 0.0743,-0.1971 z m -6.87979,3.59227 c -0.004,0.002 -0.008,0.005 -0.0125,0.007 -0.26949,0.14068 -0.60162,0.0365 -0.7424,-0.23302 -0.14045,-0.26926 -0.0365,-0.60139 0.23257,-0.74206 l 0.71302,-0.37214 0.50905,0.97519 z m 1.13227,-0.59108 -0.50904,-0.9752 0.0298,-0.0154 0.4197,-0.21917 0.50905,0.9752 -0.0958,0.05 z m 1.05147,-0.54874 -0.50905,-0.97519 0.40706,-0.21251 0.50905,0.97519 z m 1.68888,-0.88274 c -0.006,0.004 -0.0121,0.007 -0.0182,0.0105 l -0.8312,0.434 -0.50904,-0.97519 0.61979,-0.3237 0.19865,-0.10354 c 0.0105,-0.005 0.0212,-0.0105 0.032,-0.0154 0.26317,-0.11707 0.57522,-0.0104 0.71036,0.24843 0.11916,0.22791 0.0629,0.50061 -0.12039,0.66457 -0.025,0.0221 -0.0523,0.0425 -0.082,0.0603 z"
         id="path1097" />
      <path
         id="path53"
         d="m 213.85194,143.91754 -18.56785,-35.57131 c -0.0279,-0.0419 -0.0528,-0.0791 -0.0854,-0.1164 -0.12726,-0.1645 -0.27625,-0.30884 -0.44076,-0.42679 -0.66115,-0.48266 -1.56284,-0.58199 -2.33883,-0.17692 -0.45473,0.24055 -0.79306,0.61458 -0.98706,1.05224 -0.0279,0.0388 -0.0404,0.0838 -0.0574,0.12881 l -10.03664,24.07271 -19.91341,10.3967 c -0.13037,0.0683 -0.26539,0.13657 -0.38955,0.20796 l -6.77127,3.53541 -5.89907,3.07912 -1.54266,-2.95652 c -0.87532,-1.67458 -2.93324,-2.32176 -4.60782,-1.44644 -1.67148,0.87221 -2.32176,2.93324 -1.44644,4.60782 l 1.54266,2.95651 -5.69886,2.97514 -4.92287,-9.42826 8.83541,-4.61092 c 2.26743,-1.18726 3.14896,-3.99013 1.9648,-6.25757 -0.19089,-0.36937 -0.42524,-0.69839 -0.69684,-0.99016 l -0.40196,-0.38955 c -1.39523,-1.19347 -3.43453,-1.48679 -5.15722,-0.58665 l -26.09183,13.6186 c -2.27055,1.18727 -3.15207,3.99014 -1.96791,6.26068 0.18624,0.3554 0.41127,0.67821 0.672,0.96222 0.13503,0.15365 0.28246,0.29798 0.43766,0.42369 1.39523,1.18571 3.42677,1.47593 5.14946,0.57579 l 8.8323,-4.60782 4.91977,9.42826 -6.29172,3.28398 -1.54266,-2.95652 c -0.87532,-1.67148 -2.93945,-2.31865 -4.60782,-1.44644 -0.44076,0.22969 -0.80858,0.54164 -1.10035,0.90791 -0.80703,1.0243 -0.99172,2.46609 -0.3492,3.69991 l 1.54267,2.95651 -9.5788,5.00202 c -0.13037,0.0652 -0.26229,0.13347 -0.39265,0.20176 l -22.814059,11.90987 -7.78472,-1.6901 c -0.0217,-0.006 -0.0419,-0.009 -0.059,-0.0124 -0.21573,-0.0419 -0.44852,-0.009 -0.65804,0.0978 -0.46559,0.24366 -0.66425,0.79306 -0.47956,1.26951 l 8.53742,16.35008 c 0.0217,0.031 0.0435,0.0621 0.0667,0.09 l 0.0109,0.014 0.12416,0.1164 c 0.30263,0.25142 0.73874,0.30729 1.11432,0.11329 0.20952,-0.11174 0.36316,-0.2809 0.45473,-0.48421 0.0109,-0.0171 0.0171,-0.0357 0.0233,-0.0559 l 3.12568,-7.49295 9.13183,-4.76922 c 0.0357,2.5949 0.66269,5.2193 1.94463,7.67608 4.381229,8.38998 14.739119,11.64293 23.133759,7.26169 0.13037,-0.0683 0.26229,-0.13657 0.38955,-0.20796 l 9.5788,-5.00202 1.79098,3.43142 c 0.87221,1.67148 2.93945,2.31865 4.60782,1.44644 1.67148,-0.87221 2.32176,-2.93634 1.44955,-4.60782 l -1.79098,-3.42831 6.29171,-3.28709 5.22551,10.00715 c 1.21675,2.32951 4.0848,3.23121 6.41432,2.01446 0.65183,-0.33678 1.19192,-0.80858 1.59698,-1.35798 1.06776,-1.41851 1.28969,-3.37865 0.41438,-5.05634 l -5.22085,-10.00715 5.69886,-2.97514 1.79098,3.42832 c 0.87221,1.67148 2.93634,2.32176 4.60782,1.44955 1.67458,-0.87532 2.31865,-2.93945 1.44644,-4.60782 l -1.79098,-3.43142 13.21819,-6.90009 c 0.91256,-0.48732 1.76149,-1.04759 2.54834,-1.66838 6.33983,-5.00512 8.435,-13.96002 4.56281,-21.38002 -1.28038,-2.45368 -3.07601,-4.46815 -5.1836,-5.98288 l 6.22964,-3.25139 25.63555,5.55608 c 0.0481,0.0124 0.0916,0.0264 0.13657,0.0295 0.47336,0.09 0.97309,0.0295 1.42782,-0.21107 1.00724,-0.52767 1.44024,-1.72114 1.03983,-2.75941 z m -96.31724,50.29181 c -0.059,0.0357 -0.11329,0.0652 -0.17537,0.0962 -3.77286,1.96946 -8.42258,0.5106 -10.39359,-3.26225 -1.96635,-3.76976 -0.5106,-8.41948 3.25605,-10.38894 l 9.98231,-5.20998 7.12668,13.65274 z m 15.85189,-8.27514 -7.12667,-13.65274 0.41748,-0.21573 5.87578,-3.06825 7.12668,13.65274 -1.34091,0.69994 z m 14.7205,-7.68229 -7.12667,-13.65274 5.69886,-2.97513 7.12667,13.65273 z m 23.64437,-12.35839 c -0.0822,0.0528 -0.16916,0.10398 -0.25452,0.14744 l -11.63672,6.07599 -7.12668,-13.65274 8.6771,-4.53177 2.78114,-1.44955 c 0.14744,-0.0761 0.29643,-0.14743 0.44852,-0.21572 3.6844,-1.63889 8.05321,-0.14589 9.94507,3.47798 1.66838,3.19086 0.87997,7.00873 -1.68545,9.3041 -0.35074,0.30884 -0.73253,0.5944 -1.14846,0.84427 z"
         inkscape:connector-curvature="0"
         style="display:inline;fill:#ffffff;stroke-width:1.5519768;enable-background:new" />
      <path
         id="path53-6"
         d="m 365.9364,70.821799 -7.95765,-15.244845 c -0.012,-0.01796 -0.0226,-0.0339 -0.0366,-0.04989 -0.0545,-0.0705 -0.1184,-0.13236 -0.1889,-0.18291 -0.28335,-0.206854 -0.66979,-0.249424 -1.00236,-0.07582 -0.19488,0.103093 -0.33988,0.263391 -0.42302,0.45096 -0.012,0.01663 -0.0173,0.03591 -0.0246,0.0552 l -4.30142,10.316874 -8.53431,4.455728 c -0.0559,0.02927 -0.11374,0.05853 -0.16695,0.08913 l -2.90198,1.515175 -2.52817,1.319623 -0.66114,-1.26708 c -0.37514,-0.717677 -1.2571,-0.99504 -1.97478,-0.619903 -0.71635,0.373805 -0.99504,1.257103 -0.6199,1.97478 l 0.66114,1.267076 -2.44237,1.275059 -2.1098,-4.040682 3.7866,-1.976108 c 0.97176,-0.508826 1.34956,-1.710056 0.84206,-2.681816 -0.0818,-0.158301 -0.18225,-0.29931 -0.29865,-0.424354 l -0.17227,-0.16695 c -0.59795,-0.511487 -1.47194,-0.637195 -2.21023,-0.251421 l -11.18221,5.836542 c -0.9731,0.50883 -1.35089,1.71006 -0.84339,2.683148 0.0798,0.152314 0.17626,0.290662 0.288,0.41238 0.0579,0.06585 0.12105,0.127706 0.18757,0.181582 0.59795,0.508161 1.46861,0.632541 2.20691,0.246767 l 3.78527,-1.97478 2.10847,4.040682 -2.69645,1.40742 -0.66114,-1.26708 c -0.37514,-0.716348 -1.25976,-0.993707 -1.97478,-0.619903 -0.1889,0.09844 -0.34653,0.232132 -0.47158,0.389105 -0.34587,0.438985 -0.42502,1.056895 -0.14966,1.585675 l 0.66115,1.267075 -4.1052,2.143723 c -0.0559,0.02794 -0.11241,0.0572 -0.16828,0.08647 l -9.77745,5.104229 -3.33631,-0.724329 c -0.009,-0.0026 -0.018,-0.0039 -0.0253,-0.0053 -0.0924,-0.01796 -0.19222,-0.0039 -0.28201,0.04191 -0.19954,0.104426 -0.28468,0.339883 -0.20553,0.544076 l 3.65889,7.007176 c 0.009,0.01329 0.0186,0.02661 0.0286,0.03857 l 0.005,0.006 0.0532,0.04989 c 0.1297,0.107752 0.31661,0.131696 0.47757,0.04855 0.0898,-0.04789 0.15564,-0.120386 0.19488,-0.207519 0.005,-0.0073 0.007,-0.0153 0.01,-0.02396 l 1.33958,-3.211264 3.91364,-2.043951 c 0.0153,1.1121 0.28401,2.236843 0.83341,3.289748 1.87767,3.595706 6.31676,4.989827 9.91447,3.112153 0.0559,-0.02927 0.11241,-0.05853 0.16695,-0.08913 l 4.1052,-2.143722 0.76756,1.470608 c 0.3738,0.716348 1.25976,0.993707 1.97478,0.619903 0.71635,-0.373805 0.99504,-1.258432 0.62123,-1.97478 l -0.76756,-1.469275 2.69645,-1.408753 2.2395,4.288778 c 0.52147,0.998361 1.75063,1.384804 2.749,0.86334 0.27935,-0.144335 0.51082,-0.346535 0.68442,-0.581992 0.45761,-0.607932 0.55272,-1.447992 0.17759,-2.167002 l -2.23751,-4.288778 2.44237,-1.27506 0.76756,1.46928 c 0.37381,0.716348 1.25843,0.99504 1.97478,0.621235 0.71768,-0.375137 0.99371,-1.259764 0.6199,-1.974779 l -0.76756,-1.470609 5.66494,-2.957181 c 0.3911,-0.208851 0.75492,-0.448967 1.09214,-0.715019 2.71707,-2.145052 3.615,-5.982865 1.95549,-9.162865 -0.54873,-1.051577 -1.31829,-1.914921 -2.22154,-2.564091 l 2.66985,-1.393452 10.98666,2.381177 c 0.0206,0.0053 0.0393,0.01131 0.0585,0.01264 0.20287,0.03857 0.41704,0.01264 0.61192,-0.09046 0.43168,-0.226145 0.61725,-0.737632 0.44564,-1.182604 z m -41.27881,21.55363 c -0.0253,0.0153 -0.0486,0.02794 -0.0752,0.04123 -1.61694,0.844054 -3.60968,0.218829 -4.4544,-1.398107 -0.84272,-1.615611 -0.21883,-3.608348 1.39545,-4.452402 l 4.27813,-2.232848 3.05429,5.851173 z m 6.79366,-3.546488 -3.05429,-5.851174 0.17892,-0.09246 2.5182,-1.314965 3.05429,5.851174 -0.57468,0.299974 z m 6.30879,-3.29241 -3.05429,-5.851173 2.44237,-1.275056 3.05428,5.851169 z m 10.1333,-5.296452 c -0.0352,0.02263 -0.0725,0.04456 -0.10908,0.06319 l -4.98717,2.603995 -3.05429,-5.851173 3.71876,-1.942187 1.19191,-0.621236 c 0.0632,-0.03261 0.12704,-0.06318 0.19223,-0.09245 1.57902,-0.702381 3.45137,-0.06252 4.26217,1.490563 0.71502,1.367511 0.37713,3.00374 -0.72234,3.98747 -0.15031,0.13236 -0.31394,0.254743 -0.49219,0.36183 z"
         inkscape:connector-curvature="0"
         style="display:inline;fill:#ffffff;stroke-width:0.66513282;enable-background:new" />
      <path
         id="path53-6-7"
         d="m 339.95753,168.54765 -5.30507,-10.16317 c -0.008,-0.012 -0.0151,-0.0226 -0.0244,-0.0333 -0.0363,-0.047 -0.0789,-0.0882 -0.12593,-0.12194 -0.1889,-0.1379 -0.44653,-0.16628 -0.66824,-0.0505 -0.12992,0.0687 -0.22659,0.17559 -0.28201,0.30064 -0.008,0.0111 -0.0115,0.0239 -0.0164,0.0368 l -2.8676,6.87787 -5.68951,2.97048 c -0.0373,0.0195 -0.0758,0.039 -0.1113,0.0594 l -1.93464,1.01011 -1.68544,0.87974 -0.44076,-0.84471 c -0.25009,-0.47845 -0.83806,-0.66336 -1.31651,-0.41327 -0.47757,0.2492 -0.66336,0.83806 -0.41327,1.31652 l 0.44076,0.8447 -1.62824,0.85004 -1.40652,-2.69377 2.52438,-1.3174 c 0.64784,-0.33921 0.8997,-1.14003 0.56137,-1.78787 -0.0545,-0.10553 -0.1215,-0.19954 -0.1991,-0.2829 l -0.11484,-0.1113 c -0.39863,-0.34099 -0.98129,-0.42479 -1.47348,-0.16761 l -7.45477,3.891 c -0.64873,0.33922 -0.90059,1.14004 -0.56226,1.78876 0.0532,0.10155 0.11751,0.19377 0.192,0.27492 0.0386,0.0439 0.0807,0.0851 0.12505,0.12105 0.39863,0.33877 0.97907,0.42169 1.47126,0.16451 l 2.5235,-1.31651 1.40564,2.69377 -1.79762,0.93828 -0.44076,-0.84472 c -0.25009,-0.47756 -0.83983,-0.66246 -1.31651,-0.41326 -0.12593,0.0656 -0.23102,0.15475 -0.31439,0.2594 -0.23057,0.29266 -0.28334,0.70459 -0.0998,1.05711 l 0.44077,0.84471 -2.73679,1.42915 c -0.0373,0.0186 -0.0749,0.0381 -0.11219,0.0577 l -6.51826,3.40281 -2.2242,-0.48289 c -0.006,-0.002 -0.012,-0.003 -0.0169,-0.003 -0.0616,-0.012 -0.12815,-0.003 -0.18801,0.0279 -0.13303,0.0696 -0.18979,0.22659 -0.13702,0.36271 l 2.43925,4.67143 c 0.006,0.009 0.0124,0.0177 0.0191,0.0257 l 0.003,0.004 0.0355,0.0333 c 0.0865,0.0718 0.21108,0.0878 0.31838,0.0323 0.0599,-0.0319 0.10376,-0.0803 0.12992,-0.13834 0.003,-0.005 0.005,-0.0102 0.007,-0.016 l 0.89305,-2.14083 2.60908,-1.36263 c 0.0102,0.7414 0.18934,1.49122 0.5556,2.19315 1.25177,2.39713 4.21115,3.32654 6.60961,2.07476 0.0373,-0.0195 0.0749,-0.039 0.1113,-0.0594 l 2.73679,-1.42914 0.5117,0.9804 c 0.2492,0.47756 0.83984,0.66247 1.31652,0.41327 0.47756,-0.2492 0.66335,-0.83895 0.41415,-1.31651 l -0.51171,-0.97952 1.79763,-0.93916 1.49299,2.85917 c 0.34764,0.66557 1.16708,0.9232 1.83266,0.57556 0.18623,-0.0962 0.34054,-0.23102 0.45627,-0.388 0.30508,-0.40528 0.36848,-0.96532 0.1184,-1.44466 l -1.49167,-2.85917 1.62824,-0.85003 0.5117,0.97951 c 0.24921,0.47757 0.83895,0.66336 1.31652,0.41416 0.47845,-0.25009 0.66247,-0.83984 0.41326,-1.31651 l -0.5117,-0.98041 3.7766,-1.97144 c 0.26074,-0.13923 0.50328,-0.29931 0.72809,-0.47668 1.81138,-1.43002 2.40999,-3.98855 1.30366,-6.10854 -0.36582,-0.70105 -0.87886,-1.27661 -1.48102,-1.70939 l 1.77989,-0.92896 7.3244,1.58744 c 0.0137,0.003 0.0262,0.008 0.039,0.008 0.13525,0.0257 0.27803,0.008 0.40795,-0.0603 0.28778,-0.15077 0.41149,-0.49175 0.29709,-0.7884 z m -27.51906,14.36901 c -0.0169,0.0102 -0.0324,0.0186 -0.0501,0.0275 -1.07795,0.5627 -2.40644,0.14589 -2.96958,-0.93207 -0.56181,-1.07707 -0.14589,-2.40555 0.93029,-2.96825 l 2.85208,-1.48856 2.03618,3.90077 z m 4.52908,-2.36431 -2.03618,-3.90076 0.11928,-0.0617 1.67879,-0.87664 2.03618,3.90077 -0.38312,0.19998 z m 4.20584,-2.19493 -2.03618,-3.90076 1.62823,-0.85003 2.03618,3.90076 z m 6.7555,-3.53095 c -0.0235,0.0151 -0.0483,0.0297 -0.0727,0.0421 l -3.32477,1.73599 -2.03618,-3.90077 2.47916,-1.29478 0.7946,-0.41416 c 0.0421,-0.0217 0.0847,-0.0421 0.12816,-0.0617 1.05267,-0.46826 2.3009,-0.0417 2.84143,0.9937 0.47668,0.91167 0.25142,2.00248 -0.48156,2.6583 -0.1002,0.0882 -0.20929,0.16983 -0.32812,0.24122 z"
         inkscape:connector-curvature="0"
         style="display:inline;fill:#ffffff;stroke-width:0.44341961;enable-background:new" />
      <path
         id="path53-6-5"
         d="m 325.97032,241.58314 -3.71355,-7.11422 c -0.006,-0.008 -0.0105,-0.0158 -0.0171,-0.0233 -0.0254,-0.0329 -0.0553,-0.0618 -0.0882,-0.0854 -0.13223,-0.0965 -0.31257,-0.1164 -0.46777,-0.0354 -0.0909,0.0481 -0.15861,0.12292 -0.19741,0.21045 -0.006,0.008 -0.008,0.0168 -0.0115,0.0258 l -2.00731,4.81451 -3.98266,2.07933 c -0.0261,0.0137 -0.0531,0.0273 -0.0779,0.0416 l -1.35425,0.70708 -1.17981,0.61582 -0.30853,-0.5913 c -0.17506,-0.33492 -0.58664,-0.46435 -0.92156,-0.28929 -0.33429,0.17444 -0.46435,0.58665 -0.28928,0.92156 l 0.30853,0.5913 -1.13977,0.59502 -0.98457,-1.88564 1.76707,-0.92218 c 0.45349,-0.23745 0.62979,-0.79802 0.39296,-1.25151 -0.0382,-0.0739 -0.0851,-0.13967 -0.13937,-0.19802 l -0.0804,-0.0779 c -0.27904,-0.2387 -0.6869,-0.29736 -1.03143,-0.11733 l -5.21834,2.7237 c -0.45411,0.23745 -0.63041,0.79803 -0.39358,1.25213 0.0372,0.0711 0.0822,0.13564 0.1344,0.19245 0.027,0.0307 0.0565,0.0596 0.0875,0.0847 0.27904,0.23714 0.68535,0.29519 1.02988,0.11516 l 1.76646,-0.92156 0.98394,1.88564 -1.25833,0.6568 -0.30853,-0.59131 c -0.17507,-0.33429 -0.58789,-0.46372 -0.92156,-0.28928 -0.0882,0.0459 -0.16172,0.10833 -0.22007,0.18158 -0.16141,0.20486 -0.19835,0.49322 -0.0698,0.73998 l 0.30853,0.59129 -1.91575,1.00041 c -0.0261,0.013 -0.0525,0.0267 -0.0785,0.0404 l -4.56279,2.38196 -1.55693,-0.33801 c -0.004,-0.001 -0.008,-0.002 -0.0118,-0.002 -0.0431,-0.008 -0.0897,-0.002 -0.1316,0.0196 -0.0931,0.0487 -0.13285,0.15861 -0.0959,0.25389 l 1.70748,3.27 c 0.004,0.006 0.009,0.0124 0.0133,0.018 l 0.002,0.003 0.0248,0.0233 c 0.0605,0.0503 0.14775,0.0615 0.22287,0.0227 0.0419,-0.0224 0.0726,-0.0562 0.0909,-0.0968 0.002,-0.003 0.003,-0.007 0.005,-0.0112 l 0.62513,-1.49858 1.82636,-0.95384 c 0.007,0.51898 0.13254,1.04386 0.38892,1.53521 0.87624,1.67799 2.94781,2.32857 4.62673,1.45233 0.0261,-0.0137 0.0525,-0.0273 0.0779,-0.0416 l 1.91575,-1.0004 0.35819,0.68628 c 0.17444,0.3343 0.58789,0.46373 0.92156,0.28929 0.3343,-0.17444 0.46435,-0.58727 0.28991,-0.92156 l -0.3582,-0.68566 1.25834,-0.65741 1.0451,2.00141 c 0.24335,0.4659 0.81695,0.64624 1.28286,0.40289 0.13036,-0.0673 0.23838,-0.16171 0.31939,-0.27159 0.21355,-0.2837 0.25793,-0.67573 0.0829,-1.01126 l -1.04416,-2.00142 1.13977,-0.59503 0.35819,0.68566 c 0.17444,0.3343 0.58726,0.46435 0.92156,0.28991 0.33491,-0.17506 0.46373,-0.58789 0.28928,-0.92156 l -0.35819,-0.68628 2.64363,-1.38001 c 0.18251,-0.0975 0.35229,-0.20952 0.50966,-0.33367 1.26796,-1.00102 1.68699,-2.79199 0.91256,-4.27599 -0.25608,-0.49073 -0.6152,-0.89362 -1.03672,-1.19656 l 1.24593,-0.65028 5.12708,1.11121 c 0.01,0.002 0.0183,0.005 0.0273,0.006 0.0947,0.018 0.19461,0.006 0.28556,-0.0422 0.20145,-0.10554 0.28805,-0.34423 0.20796,-0.55188 z m -19.26334,10.05831 c -0.0118,0.007 -0.0227,0.013 -0.0351,0.0192 -0.75456,0.39389 -1.68451,0.10212 -2.07871,-0.65245 -0.39326,-0.75395 -0.10212,-1.68389 0.65121,-2.07777 l 1.99645,-1.042 1.42533,2.73054 z m 3.17035,-1.65502 -1.42532,-2.73053 0.0835,-0.0432 1.17516,-0.61365 1.42532,2.73054 -0.26818,0.13999 z m 2.94409,-1.53645 -1.42533,-2.73053 1.13977,-0.59502 1.42532,2.73053 z m 4.72885,-2.47166 c -0.0164,0.0105 -0.0338,0.0208 -0.0509,0.0295 l -2.32734,1.21519 -1.42533,-2.73053 1.73542,-0.90635 0.55622,-0.28991 c 0.0295,-0.0152 0.0593,-0.0295 0.0897,-0.0432 0.73687,-0.32778 1.61063,-0.0292 1.989,0.69559 0.33367,0.63816 0.17599,1.40173 -0.33709,1.86081 -0.0701,0.0618 -0.14651,0.11887 -0.22969,0.16885 z"
         inkscape:connector-curvature="0"
         style="display:inline;fill:#ffffff;stroke-width:0.31039372;enable-background:new" />
      <path
         id="path53-6-5-3"
         d="m 441.97792,66.273673 -2.65254,-5.0816 c -0.004,-0.0057 -0.007,-0.01129 -0.0122,-0.01664 -0.0181,-0.0235 -0.0395,-0.04414 -0.063,-0.061 -0.0944,-0.06893 -0.22326,-0.08314 -0.33412,-0.02529 -0.0649,0.03436 -0.11329,0.0878 -0.14101,0.150322 -0.004,0.0057 -0.006,0.012 -0.008,0.01843 l -1.4338,3.438946 -2.84476,1.48524 c -0.0186,0.0098 -0.0379,0.0195 -0.0556,0.02971 l -0.96732,0.505059 -0.84273,0.439873 -0.22037,-0.422359 c -0.12505,-0.239229 -0.41903,-0.331679 -0.65826,-0.206636 -0.23878,0.1246 -0.33168,0.419037 -0.20663,0.658259 l 0.22038,0.422358 -0.81413,0.425016 -0.70326,-1.34689 1.26219,-0.658701 c 0.32393,-0.169608 0.44985,-0.570016 0.28069,-0.893939 -0.0273,-0.05279 -0.0608,-0.09976 -0.0996,-0.141443 l -0.0574,-0.05564 c -0.19931,-0.170501 -0.49064,-0.212401 -0.73674,-0.08381 l -3.72739,1.945505 c -0.32437,0.169608 -0.4503,0.570023 -0.28113,0.894381 0.0266,0.05079 0.0587,0.09689 0.096,0.137465 0.0193,0.02193 0.0403,0.04257 0.0625,0.0605 0.19931,0.169386 0.48953,0.210851 0.73563,0.08226 l 1.26176,-0.658259 0.70281,1.346888 -0.8988,0.469145 -0.22038,-0.422366 c -0.12505,-0.238779 -0.41993,-0.331229 -0.65826,-0.206629 -0.063,0.03279 -0.11552,0.07738 -0.1572,0.1297 -0.11529,0.146329 -0.14168,0.352301 -0.0498,0.528559 l 0.22038,0.422351 -1.3684,0.714581 c -0.0186,0.0093 -0.0375,0.01907 -0.0561,0.02886 l -3.25915,1.701405 -1.11209,-0.241436 c -0.003,-7.15e-4 -0.006,-0.0014 -0.008,-0.0014 -0.0308,-0.0057 -0.0641,-0.0014 -0.094,0.014 -0.0665,0.03479 -0.0949,0.113293 -0.0685,0.181351 l 1.21963,2.335721 c 0.003,0.0043 0.006,0.0089 0.01,0.01286 l 0.001,0.0021 0.0177,0.01664 c 0.0432,0.03593 0.10554,0.04393 0.1592,0.01621 0.0299,-0.016 0.0519,-0.04014 0.0649,-0.06914 0.001,-0.0021 0.002,-0.005 0.004,-0.008 l 0.44652,-1.070418 1.30454,-0.681316 c 0.005,0.370701 0.0947,0.745617 0.27781,1.096582 0.62588,1.198568 2.10558,1.663269 3.30481,1.037381 0.0186,-0.0098 0.0375,-0.0195 0.0556,-0.02971 l 1.36839,-0.714573 0.25585,0.490201 c 0.1246,0.238786 0.41993,0.331237 0.65826,0.206636 0.23879,-0.1246 0.33168,-0.419479 0.20708,-0.658259 l -0.25586,-0.489758 0.89882,-0.46958 0.7465,1.429582 c 0.17382,0.332787 0.58354,0.461602 0.91633,0.28778 0.0931,-0.04807 0.17028,-0.115508 0.22814,-0.193994 0.15254,-0.202643 0.18424,-0.482665 0.0592,-0.72233 l -0.74583,-1.42959 0.81413,-0.425023 0.25585,0.489759 c 0.1246,0.238786 0.41947,0.331679 0.65826,0.207079 0.23922,-0.125043 0.33123,-0.419923 0.20663,-0.658259 l -0.25585,-0.490201 1.88831,-0.985725 c 0.13036,-0.06964 0.25163,-0.149657 0.36404,-0.238336 0.90569,-0.715016 1.205,-1.994284 0.65183,-3.054287 -0.18291,-0.350522 -0.43943,-0.638302 -0.74051,-0.854688 l 0.88995,-0.464487 3.66221,0.793724 c 0.007,0.0014 0.0131,0.0036 0.0195,0.0043 0.0676,0.01286 0.13901,0.0043 0.20397,-0.03014 0.14389,-0.07539 0.20575,-0.24588 0.14854,-0.394202 z M 428.21835,73.4582 c -0.008,0.005 -0.0162,0.0093 -0.0251,0.01372 -0.53897,0.281351 -1.20322,0.07294 -1.4848,-0.466037 -0.2809,-0.538538 -0.0729,-1.202782 0.46515,-1.484126 l 1.42604,-0.744288 1.0181,1.950391 z m 2.26454,-1.18216 -1.01808,-1.950384 0.0596,-0.03086 0.8394,-0.438322 1.01809,1.950391 -0.19156,0.09999 z m 2.10293,-1.097468 -1.01809,-1.950384 0.81412,-0.425015 1.01809,1.950384 z m 3.37776,-1.765476 c -0.0117,0.0075 -0.0241,0.01486 -0.0364,0.02107 l -1.66239,0.867996 -1.01809,-1.950385 1.23959,-0.647394 0.3973,-0.207079 c 0.0211,-0.01086 0.0424,-0.02107 0.0641,-0.03086 0.52634,-0.234129 1.15045,-0.02086 1.42072,0.496852 0.23833,0.455829 0.12571,1.001237 -0.24078,1.329153 -0.0501,0.04414 -0.10465,0.08491 -0.16407,0.120607 z"
         inkscape:connector-curvature="0"
         style="display:inline;fill:#ffffff;stroke-width:0.22171044;enable-background:new" />
      <path
         id="path53-6-5-5"
         d="m 434.98609,110.79197 -1.85678,-3.55712 c -0.003,-0.004 -0.005,-0.008 -0.009,-0.0117 -0.0127,-0.0164 -0.0276,-0.0309 -0.0441,-0.0427 -0.0661,-0.0482 -0.15628,-0.0582 -0.23388,-0.0177 -0.0455,0.0241 -0.0793,0.0615 -0.0987,0.10523 -0.003,0.004 -0.004,0.008 -0.006,0.0129 l -1.00366,2.40726 -1.99133,1.03967 c -0.013,0.007 -0.0265,0.0136 -0.0389,0.0208 l -0.67713,0.35354 -0.58991,0.30791 -0.15426,-0.29565 c -0.0875,-0.16746 -0.29332,-0.23218 -0.46078,-0.14465 -0.16715,0.0872 -0.23218,0.29333 -0.14464,0.46079 l 0.15426,0.29565 -0.56989,0.29751 -0.49228,-0.94283 0.88354,-0.46109 c 0.22674,-0.11872 0.31489,-0.39901 0.19648,-0.62575 -0.0191,-0.037 -0.0426,-0.0698 -0.0697,-0.099 l -0.0402,-0.0389 c -0.13952,-0.11935 -0.34345,-0.14868 -0.51572,-0.0587 l -2.60917,1.36185 c -0.22706,0.11873 -0.31521,0.39902 -0.19679,0.62607 0.0186,0.0356 0.0411,0.0678 0.0672,0.0962 0.0135,0.0153 0.0283,0.0298 0.0437,0.0423 0.13952,0.11857 0.34267,0.14759 0.51494,0.0576 l 0.88323,-0.46078 0.49197,0.94282 -0.62916,0.3284 -0.15427,-0.29566 c -0.0875,-0.16714 -0.29395,-0.23186 -0.46078,-0.14464 -0.0441,0.0229 -0.0809,0.0542 -0.11004,0.0908 -0.0807,0.10243 -0.0992,0.24661 -0.0349,0.36999 l 0.15427,0.29565 -0.95788,0.50021 c -0.013,0.007 -0.0263,0.0134 -0.0392,0.0202 l -2.2814,1.19098 -0.77847,-0.169 c -0.002,-5e-4 -0.004,-0.001 -0.006,-0.001 -0.0216,-0.004 -0.0448,-10e-4 -0.0658,0.01 -0.0466,0.0243 -0.0664,0.0793 -0.048,0.12694 l 0.85374,1.63501 c 0.002,0.003 0.005,0.006 0.007,0.009 l 10e-4,0.001 0.0124,0.0117 c 0.0302,0.0251 0.0739,0.0307 0.11144,0.0113 0.021,-0.0112 0.0363,-0.0281 0.0455,-0.0484 10e-4,-0.001 0.002,-0.003 0.002,-0.006 l 0.31257,-0.7493 0.91318,-0.47692 c 0.003,0.25949 0.0663,0.52193 0.19446,0.76761 0.43812,0.839 1.47391,1.16429 2.31337,0.72617 0.013,-0.007 0.0263,-0.0136 0.0389,-0.0208 l 0.95788,-0.50021 0.17909,0.34315 c 0.0872,0.16715 0.29395,0.23186 0.46079,0.14464 0.16715,-0.0872 0.23217,-0.29364 0.14495,-0.46078 l -0.1791,-0.34283 0.62917,-0.32871 0.52255,1.00071 c 0.12168,0.23295 0.40848,0.32312 0.64144,0.20145 0.0652,-0.0336 0.11919,-0.0809 0.15969,-0.1358 0.10678,-0.14185 0.12897,-0.33787 0.0414,-0.50563 l -0.52208,-1.00071 0.56989,-0.29752 0.17909,0.34283 c 0.0872,0.16715 0.29363,0.23218 0.46078,0.14496 0.16746,-0.0875 0.23187,-0.29395 0.14464,-0.46078 l -0.17909,-0.34315 1.32182,-0.69 c 0.0913,-0.0487 0.17614,-0.10476 0.25483,-0.16684 0.63398,-0.50051 0.84349,-1.396 0.45628,-2.138 -0.12804,-0.24536 -0.3076,-0.44681 -0.51836,-0.59828 l 0.62296,-0.32514 2.56355,0.5556 c 0.005,10e-4 0.009,0.002 0.0136,0.003 0.0473,0.009 0.0973,0.003 0.14278,-0.0211 0.10073,-0.0528 0.14403,-0.17211 0.10398,-0.27594 z m -9.6317,5.02917 c -0.006,0.003 -0.0113,0.006 -0.0175,0.01 -0.37728,0.19695 -0.84225,0.0511 -1.03935,-0.32622 -0.19663,-0.37698 -0.0511,-0.84195 0.3256,-1.03889 l 0.99823,-0.521 0.71267,1.36527 z m 1.58518,-0.82751 -0.71266,-1.36527 0.0417,-0.0216 0.58758,-0.30682 0.71267,1.36527 -0.13409,0.07 z m 1.47205,-0.76823 -0.71266,-1.36527 0.56988,-0.29751 0.71266,1.36527 z m 2.36444,-1.23583 c -0.008,0.005 -0.0169,0.0104 -0.0254,0.0147 l -1.16368,0.6076 -0.71267,-1.36527 0.86772,-0.45318 0.27811,-0.14495 c 0.0147,-0.008 0.0297,-0.0147 0.0448,-0.0216 0.36843,-0.16389 0.80532,-0.0146 0.9945,0.34779 0.16684,0.31908 0.088,0.70087 -0.16854,0.93041 -0.0351,0.0309 -0.0733,0.0594 -0.11485,0.0844 z"
         inkscape:connector-curvature="0"
         style="display:inline;fill:#ffffff;stroke-width:0.15519731;enable-background:new" />
      <path
         id="path53-6-5-6"
         d="m 428.98857,147.13705 -1.32627,-2.5408 c -0.002,-0.003 -0.004,-0.006 -0.006,-0.008 -0.009,-0.0118 -0.0197,-0.0221 -0.0315,-0.0305 -0.0472,-0.0345 -0.11163,-0.0416 -0.16706,-0.0126 -0.0325,0.0172 -0.0567,0.0439 -0.0705,0.0752 -0.002,0.003 -0.003,0.006 -0.004,0.009 l -0.7169,1.71948 -1.42239,0.74262 c -0.009,0.005 -0.019,0.01 -0.0278,0.0149 l -0.48366,0.25253 -0.42136,0.21994 -0.11019,-0.21118 c -0.0625,-0.11962 -0.20952,-0.16584 -0.32913,-0.10332 -0.11939,0.0623 -0.16584,0.20952 -0.10331,0.32913 l 0.11019,0.21118 -0.40707,0.21251 -0.35163,-0.67345 0.6311,-0.32935 c 0.16196,-0.0848 0.22492,-0.28501 0.14034,-0.44697 -0.0136,-0.0264 -0.0304,-0.0499 -0.0498,-0.0707 l -0.0287,-0.0278 c -0.0997,-0.0853 -0.24532,-0.1062 -0.36837,-0.0419 l -1.8637,0.97275 c -0.16218,0.0848 -0.22514,0.28501 -0.14056,0.44719 0.0133,0.0254 0.0294,0.0484 0.048,0.0687 0.01,0.011 0.0202,0.0213 0.0312,0.0302 0.0997,0.0847 0.24477,0.10543 0.36782,0.0411 l 0.63088,-0.32913 0.3514,0.67345 -0.4494,0.23457 -0.11019,-0.21119 c -0.0625,-0.11938 -0.20996,-0.16561 -0.32913,-0.10331 -0.0315,0.0164 -0.0578,0.0387 -0.0786,0.0649 -0.0576,0.0732 -0.0708,0.17615 -0.0249,0.26428 l 0.11018,0.21118 -0.68419,0.35729 c -0.009,0.005 -0.0188,0.01 -0.028,0.0144 l -1.62957,0.85071 -0.55605,-0.12072 c -10e-4,-3.6e-4 -0.003,-7.2e-4 -0.004,-7.2e-4 -0.0154,-0.003 -0.032,-7.1e-4 -0.047,0.007 -0.0333,0.0174 -0.0475,0.0566 -0.0343,0.0907 l 0.60981,1.16786 c 10e-4,0.002 0.003,0.004 0.005,0.006 l 7.2e-4,0.001 0.009,0.008 c 0.0216,0.018 0.0528,0.022 0.0796,0.008 0.015,-0.008 0.0259,-0.0201 0.0325,-0.0346 7.2e-4,-0.001 10e-4,-0.002 0.002,-0.004 l 0.22326,-0.53521 0.65227,-0.34066 c 0.002,0.18535 0.0473,0.37281 0.1389,0.54829 0.31295,0.59929 1.0528,0.83164 1.65241,0.51869 0.009,-0.005 0.0188,-0.01 0.0278,-0.0149 l 0.6842,-0.35728 0.12793,0.2451 c 0.0623,0.11939 0.20996,0.16562 0.32913,0.10332 0.11939,-0.0623 0.16584,-0.20974 0.10354,-0.32913 l -0.12793,-0.24488 0.44941,-0.23479 0.37325,0.71479 c 0.0869,0.16639 0.29177,0.2308 0.45816,0.14389 0.0466,-0.024 0.0851,-0.0578 0.11407,-0.097 0.0763,-0.10132 0.0921,-0.24133 0.0296,-0.36116 l -0.37292,-0.7148 0.40707,-0.21251 0.12792,0.24488 c 0.0623,0.11939 0.20974,0.16584 0.32913,0.10354 0.11961,-0.0625 0.16562,-0.20996 0.10332,-0.32913 l -0.12793,-0.2451 0.94416,-0.49286 c 0.0652,-0.0348 0.12581,-0.0748 0.18202,-0.11917 0.45284,-0.35751 0.6025,-0.99714 0.32591,-1.52714 -0.0915,-0.17527 -0.21971,-0.31916 -0.37026,-0.42735 l 0.44498,-0.23224 1.83111,0.39686 c 0.004,7.1e-4 0.007,0.002 0.01,0.002 0.0338,0.006 0.0695,0.002 0.10198,-0.0151 0.072,-0.0377 0.10288,-0.12294 0.0743,-0.1971 z m -6.87979,3.59227 c -0.004,0.002 -0.008,0.005 -0.0125,0.007 -0.26949,0.14068 -0.60162,0.0365 -0.7424,-0.23302 -0.14045,-0.26926 -0.0365,-0.60139 0.23257,-0.74206 l 0.71302,-0.37214 0.50905,0.97519 z m 1.13227,-0.59108 -0.50904,-0.9752 0.0298,-0.0154 0.4197,-0.21917 0.50905,0.9752 -0.0958,0.05 z m 1.05147,-0.54874 -0.50905,-0.97519 0.40706,-0.21251 0.50905,0.97519 z m 1.68888,-0.88274 c -0.006,0.004 -0.0121,0.007 -0.0182,0.0105 l -0.8312,0.434 -0.50904,-0.97519 0.61979,-0.3237 0.19865,-0.10354 c 0.0105,-0.005 0.0212,-0.0105 0.032,-0.0154 0.26317,-0.11707 0.57522,-0.0104 0.71036,0.24843 0.11916,0.22791 0.0629,0.50061 -0.12039,0.66457 -0.025,0.0221 -0.0523,0.0425 -0.082,0.0603 z"
         inkscape:connector-curvature="0"
         style="display:inline;fill:#ffffff;stroke-width:0.11085522;enable-background:new" />
    </g>
    <g
       inkscape:groupmode="layer"
       id="layer5"
       inkscape:label="Highlights"
       style="display:inline"
       sodipodi:insensitive="true">
      <path
         style="opacity:0.12999998;color:#bebebe;fill:#ffffff;fill-opacity:1;fill-rule:nonzero;stroke:none;stroke-width:0;marker:none;visibility:visible;display:inline;overflow:visible;enable-background:accumulate"
         d="M 84,47 C 56.836703,47 35,68.836703 35,96 l 0,1 C 35,69.836703 56.836703,48 84,48 l 120,0 c 27.1633,0 49,21.836703 49,49 l 0,-1 C 253,68.836703 231.1633,47 204,47 L 84,47 z"
         id="rect3894"
         inkscape:connector-curvature="0" />
      <path
         style="opacity:0.12999998;color:#bebebe;fill:#ffffff;fill-opacity:1;fill-rule:nonzero;stroke:none;stroke-width:0;marker:none;visibility:visible;display:inline;overflow:visible;enable-background:accumulate"
         d="m 419,141 c -1.1253,0 -2,0.8747 -2,2 l 0,1 c 0,-1.1253 0.8747,-2 2,-2 l 10,0 c 1.1253,0 2,0.8747 2,2 l 0,-1 c 0,-1.1253 -0.8747,-2 -2,-2 l -10,0 z"
         id="rect3896"
         inkscape:connector-curvature="0" />
      <path
         style="opacity:0.12999998;color:#bebebe;fill:#ffffff;fill-opacity:1;fill-rule:nonzero;stroke:none;stroke-width:0;marker:none;visibility:visible;display:inline;overflow:visible;enable-background:accumulate"
         d="m 422,102 c -2.2333,0 -4,1.7667 -4,4 l 0,1 c 0,-2.2333 1.7667,-4 4,-4 l 12,0 c 2.2333,0 4,1.7667 4,4 l 0,-1 c 0,-2.2333 -1.7667,-4 -4,-4 l -12,0 z"
         id="rect3898"
         inkscape:connector-curvature="0" />
      <path
         style="opacity:0.12999998;color:#bebebe;fill:#ffffff;fill-opacity:1;fill-rule:nonzero;stroke:none;stroke-width:0;marker:none;visibility:visible;display:inline;overflow:visible;enable-background:accumulate"
         d="m 424,54 c -3.3413,0 -6,2.658703 -6,6 l 0,1 c 0,-3.341297 2.6587,-6 6,-6 l 16,0 c 3.3413,0 6,2.658703 6,6 l 0,-1 c 0,-3.341297 -2.6587,-6 -6,-6 l -16,0 z"
         id="rect3900"
         inkscape:connector-curvature="0" />
      <path
         style="opacity:0.12999998;color:#bebebe;fill:#ffffff;fill-opacity:1;fill-rule:nonzero;stroke:none;stroke-width:0;marker:none;visibility:visible;display:inline;overflow:visible;enable-background:accumulate"
         d="m 300,224 c -4.4493,0 -8,3.5507 -8,8 l 0,1 c 0,-4.4493 3.5507,-8 8,-8 l 24,0 c 4.4493,0 8,3.5507 8,8 l 0,-1 c 0,-4.4493 -3.5507,-8 -8,-8 l -24,0 z"
         id="rect3902"
         inkscape:connector-curvature="0" />
      <path
         style="opacity:0.12999998;color:#bebebe;fill:#ffffff;fill-opacity:1;fill-rule:nonzero;stroke:none;stroke-width:0;marker:none;visibility:visible;display:inline;overflow:visible;enable-background:accumulate"
         d="m 310,33 c -9.4353,0 -17,7.564703 -17,17 l 0,1 c 0,-9.435297 7.5647,-17 17,-17 l 52,0 c 9.4353,0 17,7.564703 17,17 l 0,-1 c 0,-9.435297 -7.5647,-17 -17,-17 l -52,0 z"
         id="rect3904"
         inkscape:connector-curvature="0" />
      <path
         style="opacity:0.12999998;color:#bebebe;fill:#ffffff;fill-opacity:1;fill-rule:nonzero;stroke:none;stroke-width:0;marker:none;visibility:visible;display:inline;overflow:visible;enable-background:accumulate"
         d="m 302.5,143 c -6.3883,0 -11.5,5.1117 -11.5,11.5 l 0,1 c 0,-6.3883 5.1117,-11.5 11.5,-11.5 l 35,0 c 6.3883,0 11.5,5.1117 11.5,11.5 l 0,-1 c 0,-6.3883 -5.1117,-11.5 -11.5,-11.5 l -35,0 z"
         id="rect3906"
         inkscape:connector-curvature="0" />
      <path
         id="path4085"
         d="m 204,266 c 27.1633,0 49,-21.8367 49,-49 l 0,-1 c 0,27.1633 -21.8367,49 -49,49 L 84,265 C 56.8367,265 35,243.1633 35,216 l 0,1 c 0,27.1633 21.8367,49 49,49 l 120,0 z"
         style="opacity:0.5;color:#bebebe;fill:#000000;fill-opacity:1;fill-rule:nonzero;stroke:none;stroke-width:0;marker:none;visibility:visible;display:inline;overflow:visible;enable-background:accumulate"
         inkscape:connector-curvature="0" />
      <path
         id="path4087"
         d="m 429,156 c 1.1253,0 2,-0.8747 2,-2 l 0,-1 c 0,1.1253 -0.8747,2 -2,2 l -10,0 c -1.1253,0 -2,-0.8747 -2,-2 l 0,1 c 0,1.1253 0.8747,2 2,2 l 10,0 z"
         style="opacity:0.3;color:#bebebe;fill:#000000;fill-opacity:1;fill-rule:nonzero;stroke:none;stroke-width:0;marker:none;visibility:visible;display:inline;overflow:visible;enable-background:accumulate"
         inkscape:connector-curvature="0" />
      <path
         id="path4089"
         d="m 434,123 c 2.2333,0 4,-1.7667 4,-4 l 0,-1 c 0,2.2333 -1.7667,4 -4,4 l -12,0 c -2.2333,0 -4,-1.7667 -4,-4 l 0,1 c 0,2.2333 1.7667,4 4,4 l 12,0 z"
         style="opacity:0.3;color:#bebebe;fill:#000000;fill-opacity:1;fill-rule:nonzero;stroke:none;stroke-width:0;marker:none;visibility:visible;display:inline;overflow:visible;enable-background:accumulate"
         inkscape:connector-curvature="0" />
      <path
         id="path4091"
         d="m 440,83 c 3.3413,0 6,-2.6587 6,-6 l 0,-1 c 0,3.3413 -2.6587,6 -6,6 l -16,0 c -3.3413,0 -6,-2.6587 -6,-6 l 0,1 c 0,3.3413 2.6587,6 6,6 l 16,0 z"
         style="opacity:0.5;color:#bebebe;fill:#000000;fill-opacity:1;fill-rule:nonzero;stroke:none;stroke-width:0;marker:none;visibility:visible;display:inline;overflow:visible;enable-background:accumulate"
         inkscape:connector-curvature="0" />
      <path
         id="path4093"
         d="m 324,265 c 4.4493,0 8,-3.5507 8,-8 l 0,-1 c 0,4.4493 -3.5507,8 -8,8 l -24,0 c -4.4493,0 -8,-3.5507 -8,-8 l 0,1 c 0,4.4493 3.5507,8 8,8 l 24,0 z"
         style="opacity:0.5;color:#bebebe;fill:#000000;fill-opacity:1;fill-rule:nonzero;stroke:none;stroke-width:0;marker:none;visibility:visible;display:inline;overflow:visible;enable-background:accumulate"
         inkscape:connector-curvature="0" />
      <path
         id="path4095"
         d="m 362,120 c 9.4353,0 17,-7.5647 17,-17 l 0,-1 c 0,9.4353 -7.5647,17 -17,17 l -52,0 c -9.4353,0 -17,-7.5647 -17,-17 l 0,1 c 0,9.4353 7.5647,17 17,17 l 52,0 z"
         style="opacity:0.5;color:#bebebe;fill:#000000;fill-opacity:1;fill-rule:nonzero;stroke:none;stroke-width:0;marker:none;visibility:visible;display:inline;overflow:visible;enable-background:accumulate"
         inkscape:connector-curvature="0" />
      <path
         id="path4097"
         d="m 337.5,202 c 6.3883,0 11.5,-5.1117 11.5,-11.5 l 0,-1 c 0,6.3883 -5.1117,11.5 -11.5,11.5 l -35,0 c -6.3883,0 -11.5,-5.1117 -11.5,-11.5 l 0,1 c 0,6.3883 5.1117,11.5 11.5,11.5 l 35,0 z"
         style="opacity:0.5;color:#bebebe;fill:#000000;fill-opacity:1;fill-rule:nonzero;stroke:none;stroke-width:0;marker:none;visibility:visible;display:inline;overflow:visible;enable-background:accumulate"
         inkscape:connector-curvature="0" />
      <path
         inkscape:connector-curvature="0"
         id="path4280"
         d="M 84,265 C 56.836703,265 35,243.1633 35,216 l 0,-1 c 0,27.1633 21.836703,49 49,49 l 120,0 c 27.1633,0 49,-21.8367 49,-49 l 0,1 c 0,27.1633 -21.8367,49 -49,49 l -120,0 z"
         style="opacity:0.1;color:#bebebe;fill:#ffffff;fill-opacity:1;fill-rule:nonzero;stroke:none;stroke-width:0;marker:none;visibility:visible;display:inline;overflow:visible;enable-background:accumulate" />
      <path
         style="opacity:0.1;color:#bebebe;fill:#ffffff;fill-opacity:1;fill-rule:nonzero;stroke:none;stroke-width:0;marker:none;visibility:visible;display:inline;overflow:visible;enable-background:accumulate"
         d="m 300,264 c -4.4493,0 -8,-3.5507 -8,-8 l 0,-1 c 0,4.4493 3.5507,8 8,8 l 24,0 c 4.4493,0 8,-3.5507 8,-8 l 0,1 c 0,4.4493 -3.5507,8 -8,8 l -24,0 z"
         id="path4294"
         inkscape:connector-curvature="0" />
      <path
         style="opacity:0.1;color:#bebebe;fill:#ffffff;fill-opacity:1;fill-rule:nonzero;stroke:none;stroke-width:0;marker:none;visibility:visible;display:inline;overflow:visible;enable-background:accumulate"
         d="m 302.5,201 c -6.3883,0 -11.5,-5.1117 -11.5,-11.5 l 0,-1 c 0,6.3883 5.1117,11.5 11.5,11.5 l 35,0 c 6.3883,0 11.5,-5.1117 11.5,-11.5 l 0,1 c 0,6.3883 -5.1117,11.5 -11.5,11.5 l -35,0 z"
         id="path4296"
         inkscape:connector-curvature="0" />
      <path
         style="opacity:0.1;color:#bebebe;fill:#ffffff;fill-opacity:1;fill-rule:nonzero;stroke:none;stroke-width:0;marker:none;visibility:visible;display:inline;overflow:visible;enable-background:accumulate"
         d="m 310,119 c -9.4353,0 -17,-7.5647 -17,-17 l 0,-1 c 0,9.4353 7.5647,17 17,17 l 52,0 c 9.4353,0 17,-7.5647 17,-17 l 0,1 c 0,9.4353 -7.5647,17 -17,17 l -52,0 z"
         id="path4298"
         inkscape:connector-curvature="0" />
      <path
         style="opacity:0.1;color:#bebebe;fill:#ffffff;fill-opacity:1;fill-rule:nonzero;stroke:none;stroke-width:0;marker:none;visibility:visible;display:inline;overflow:visible;enable-background:accumulate"
         d="m 424,82 c -3.3413,0 -6,-2.658703 -6,-6 l 0,-1 c 0,3.341297 2.6587,6 6,6 l 16,0 c 3.3413,0 6,-2.658703 6,-6 l 0,1 c 0,3.341297 -2.6587,6 -6,6 l -16,0 z"
         id="path4300"
         inkscape:connector-curvature="0" />
      <path
         style="opacity:0.1;color:#bebebe;fill:#ffffff;fill-opacity:1;fill-rule:nonzero;stroke:none;stroke-width:0;marker:none;visibility:visible;display:inline;overflow:visible;enable-background:accumulate"
         d="m 422,122 c -2.2333,0 -4,-1.7667 -4,-4 l 0,-1 c 0,2.2333 1.7667,4 4,4 l 12,0 c 2.2333,0 4,-1.7667 4,-4 l 0,1 c 0,2.2333 -1.7667,4 -4,4 l -12,0 z"
         id="path4302"
         inkscape:connector-curvature="0" />
      <path
         style="opacity:0.1;color:#bebebe;fill:#ffffff;fill-opacity:1;fill-rule:nonzero;stroke:none;stroke-width:0;marker:none;visibility:visible;display:inline;overflow:visible;enable-background:accumulate"
         d="m 419,154.5 c -1.1253,0 -2,-0.8747 -2,-2 l 0,-1 c 0,1.1253 0.8747,2 2,2 l 10,0 c 1.1253,0 2,-0.8747 2,-2 l 0,1 c 0,1.1253 -0.8747,2 -2,2 l -10,0 z"
         id="path4304"
         inkscape:connector-curvature="0" />
    </g>
    <g
       inkscape:groupmode="layer"
       id="layer3"
       inkscape:label="Border"
       style="display:inline"
       sodipodi:insensitive="true">
      <path
         style="opacity:0.41000001;color:#bebebe;fill:#000000;fill-opacity:1;fill-rule:nonzero;stroke:none;stroke-width:0;marker:none;visibility:visible;display:inline;overflow:visible;enable-background:accumulate"
         d="m 422,101 c -2.77,0 -5,2.23 -5,5 l 0,12 c 0,2.77 2.23,5 5,5 l 12,0 c 2.77,0 5,-2.23 5,-5 l 0,-12 c 0,-2.77 -2.23,-5 -5,-5 l -12,0 z m 0,1 12,0 c 2.2333,0 4,1.7667 4,4 l 0,12 c 0,2.2333 -1.7667,4 -4,4 l -12,0 c -2.2333,0 -4,-1.7667 -4,-4 l 0,-12 c 0,-2.2333 1.7667,-4 4,-4 z"
         id="rect4099"
         inkscape:connector-curvature="0" />
      <path
         style="opacity:0.41000001;color:#bebebe;fill:#000000;fill-opacity:1;fill-rule:nonzero;stroke:none;stroke-width:0;marker:none;visibility:visible;display:inline;overflow:visible;enable-background:accumulate"
         d="m 424,53 c -3.878,0 -7,3.122 -7,7 l 0,16 c 0,3.878 3.122,7 7,7 l 16,0 c 3.878,0 7,-3.122 7,-7 l 0,-16 c 0,-3.878 -3.122,-7 -7,-7 l -16,0 z m 0,1 16,0 c 3.3413,0 6,2.658703 6,6 l 0,16 c 0,3.341297 -2.6587,6 -6,6 l -16,0 c -3.3413,0 -6,-2.658703 -6,-6 l 0,-16 c 0,-3.341297 2.6587,-6 6,-6 z"
         id="rect4151"
         inkscape:connector-curvature="0" />
      <path
         style="opacity:0.41000001;color:#bebebe;fill:#000000;fill-opacity:1;fill-rule:nonzero;stroke:none;stroke-width:0;marker:none;visibility:visible;display:inline;overflow:visible;enable-background:accumulate"
         d="m 419,140 c -1.662,0 -3,1.338 -3,3 l 0,10 c 0,1.662 1.338,3 3,3 l 10,0 c 1.662,0 3,-1.338 3,-3 l 0,-10 c 0,-1.662 -1.338,-3 -3,-3 l -10,0 z m 0,1 10,0 c 1.1253,0 2,0.8747 2,2 l 0,10 c 0,1.1253 -0.8747,2 -2,2 l -10,0 c -1.1253,0 -2,-0.8747 -2,-2 l 0,-10 c 0,-1.1253 0.8747,-2 2,-2 z"
         id="rect4095"
         inkscape:connector-curvature="0" />
      <path
         style="opacity:0.41000001;color:#bebebe;fill:#000000;fill-opacity:1;fill-rule:nonzero;stroke:none;stroke-width:0;marker:none;visibility:visible;display:inline;overflow:visible;enable-background:accumulate"
         d="m 300,223 c -4.986,0 -9,4.014 -9,9 l 0,24 c 0,4.986 4.014,9 9,9 l 24,0 c 4.986,0 9,-4.014 9,-9 l 0,-24 c 0,-4.986 -4.014,-9 -9,-9 l -24,0 z m 0,1 24,0 c 4.4493,0 8,3.5507 8,8 l 0,24 c 0,4.4493 -3.5507,8 -8,8 l -24,0 c -4.4493,0 -8,-3.5507 -8,-8 l 0,-24 c 0,-4.4493 3.5507,-8 8,-8 z"
         id="rect4783"
         inkscape:connector-curvature="0" />
      <path
         style="opacity:0.41000001;color:#bebebe;fill:#000000;fill-opacity:1;fill-rule:nonzero;stroke:none;stroke-width:0;marker:none;visibility:visible;display:inline;overflow:visible;enable-background:accumulate"
         d="m 302.5,142 c -6.925,0 -12.5,5.575 -12.5,12.5 l 0,35 c 0,6.925 5.575,12.5 12.5,12.5 l 35,0 c 6.925,0 12.5,-5.575 12.5,-12.5 l 0,-35 c 0,-6.925 -5.575,-12.5 -12.5,-12.5 l -35,0 z m 0,1 35,0 c 6.3883,0 11.5,5.1117 11.5,11.5 l 0,35 c 0,6.3883 -5.1117,11.5 -11.5,11.5 l -35,0 c -6.3883,0 -11.5,-5.1117 -11.5,-11.5 l 0,-35 c 0,-6.3883 5.1117,-11.5 11.5,-11.5 z"
         id="rect4515"
         inkscape:connector-curvature="0" />
      <path
         style="opacity:0.41000001;color:#bebebe;fill:#000000;fill-opacity:1;fill-rule:nonzero;stroke:none;stroke-width:0;marker:none;visibility:visible;display:inline;overflow:visible;enable-background:accumulate"
         d="m 310,32 c -9.972,0 -18,8.028 -18,18 l 0,52 c 0,9.972 8.028,18 18,18 l 52,0 c 9.972,0 18,-8.028 18,-18 l 0,-52 c 0,-9.972 -8.028,-18 -18,-18 l -52,0 z m 0,1 52,0 c 9.4353,0 17,7.564703 17,17 l 0,52 c 0,9.4353 -7.5647,17 -17,17 l -52,0 c -9.4353,0 -17,-7.5647 -17,-17 l 0,-52 c 0,-9.435297 7.5647,-17 17,-17 z"
         id="rect4511"
         inkscape:connector-curvature="0" />
      <path
         style="opacity:0.41000001;color:#bebebe;fill:#000000;fill-opacity:1;fill-rule:nonzero;stroke:none;stroke-width:0;marker:none;visibility:visible;display:inline;overflow:visible;enable-background:accumulate"
         d="M 84,46 C 56.3,46 34,68.3 34,96 l 0,120 c 0,27.7 22.3,50 50,50 l 120,0 c 27.7,0 50,-22.3 50,-50 L 254,96 C 254,68.3 231.7,46 204,46 L 84,46 z m 0,1 120,0 c 27.1633,0 49,21.836703 49,49 l 0,120 c 0,27.1633 -21.8367,49 -49,49 L 84,265 C 56.836703,265 35,243.1633 35,216 L 35,96 C 35,68.836703 56.836703,47 84,47 z"
         id="rect4040"
         inkscape:connector-curvature="0" />
    </g>
  </g>
</svg>
