<?xml version="1.0" encoding="UTF-8" standalone="no"?>
<!-- Created with Inkscape (http://www.inkscape.org/) -->

<svg
   inkscape:export-ydpi="90.000000"
   inkscape:export-xdpi="90.000000"
   width="480"
   height="300"
   id="svg11300"
   sodipodi:version="0.32"
   inkscape:version="1.3.2 (091e20ef0f, 2023-11-25, custom)"
   sodipodi:docname="epsonscan2.svg"
   inkscape:output_extension="org.inkscape.output.svg.inkscape"
   version="1.0"
   style="display:inline;enable-background:new"
   inkscape:export-filename="/home/sam/moka-next-template.png"
   xml:space="preserve"
   xmlns:inkscape="http://www.inkscape.org/namespaces/inkscape"
   xmlns:sodipodi="http://sodipodi.sourceforge.net/DTD/sodipodi-0.dtd"
   xmlns:xlink="http://www.w3.org/1999/xlink"
   xmlns="http://www.w3.org/2000/svg"
   xmlns:svg="http://www.w3.org/2000/svg"
   xmlns:rdf="http://www.w3.org/1999/02/22-rdf-syntax-ns#"
   xmlns:cc="http://creativecommons.org/ns#"
   xmlns:dc="http://purl.org/dc/elements/1.1/"><sodipodi:namedview
     stroke="#ef2929"
     fill="#f57900"
     id="base"
     pagecolor="#777777"
     bordercolor="#666666"
     borderopacity="0.25490196"
     inkscape:pageopacity="0"
     inkscape:pageshadow="2"
     inkscape:zoom="1"
     inkscape:cx="321.5"
     inkscape:cy="140"
     inkscape:current-layer="layer7"
     showgrid="false"
     inkscape:grid-bbox="true"
     inkscape:document-units="px"
     inkscape:showpageshadow="false"
     inkscape:window-width="2476"
     inkscape:window-height="1403"
     inkscape:window-x="0"
     inkscape:window-y="0"
     width="400px"
     height="300px"
     inkscape:snap-nodes="true"
     inkscape:snap-bbox="true"
     gridtolerance="10000"
     inkscape:object-nodes="true"
     inkscape:snap-grids="true"
     showguides="true"
     inkscape:guide-bbox="true"
     inkscape:window-maximized="1"
     inkscape:bbox-nodes="true"
     inkscape:bbox-paths="true"
     inkscape:snap-bbox-edge-midpoints="true"
     inkscape:snap-bbox-midpoints="true"
     inkscape:pagecheckerboard="0"
     inkscape:deskcolor="#505050"><inkscape:grid
       spacingy="1"
       spacingx="1"
       id="grid5883"
       type="xygrid"
       enabled="true"
       visible="false"
       empspacing="4"
       snapvisiblegridlinesonly="true"
       dotted="false"
       color="#000000"
       opacity="0.1254902"
       empcolor="#203ef3"
       empopacity="0.36470588"
       originx="0"
       originy="0"
       units="px" /><inkscape:grid
       type="xygrid"
       id="grid11592"
       empspacing="8"
       visible="false"
       enabled="false"
       spacingx="0.5"
       spacingy="0.5"
       color="#ff0000"
       opacity="0.1254902"
       empcolor="#ff0000"
       empopacity="0.25098039"
       snapvisiblegridlinesonly="true"
       dotted="true"
       originx="0"
       originy="0"
       units="px" /></sodipodi:namedview><defs
     id="defs3"><linearGradient
       id="linearGradient2"><stop
         style="stop-color:#10218b;stop-opacity:1"
         offset="0"
         id="stop1" /><stop
         style="stop-color:#324fc2;stop-opacity:1"
         offset="1"
         id="stop2" /></linearGradient><linearGradient
       inkscape:collect="always"
       xlink:href="#linearGradient2"
       id="linearGradient4254"
       x1="35"
       y1="156"
       x2="253"
       y2="156"
       gradientUnits="userSpaceOnUse"
       gradientTransform="matrix(0,-1,1,0,-12,300)" /><linearGradient
       inkscape:collect="always"
       xlink:href="#linearGradient2"
       id="linearGradient4256"
       x1="417"
       y1="148"
       x2="431"
       y2="148"
       gradientUnits="userSpaceOnUse"
       gradientTransform="rotate(-90,424,148)" /><linearGradient
       inkscape:collect="always"
       xlink:href="#linearGradient2"
       id="linearGradient4260"
       x1="418"
       y1="68"
       x2="446"
       y2="68"
       gradientUnits="userSpaceOnUse"
       gradientTransform="rotate(-90,432,68)" /><linearGradient
       inkscape:collect="always"
       xlink:href="#linearGradient2"
       id="linearGradient4262"
       x1="292"
       y1="244"
       x2="332"
       y2="244"
       gradientUnits="userSpaceOnUse"
       gradientTransform="rotate(-90,312,244)" /><linearGradient
       inkscape:collect="always"
       xlink:href="#linearGradient2"
       id="linearGradient4264"
       x1="293"
       y1="76"
       x2="379"
       y2="76"
       gradientUnits="userSpaceOnUse"
       gradientTransform="rotate(-90,336,76)" /><linearGradient
       inkscape:collect="always"
       xlink:href="#linearGradient2"
       id="linearGradient4266"
       x1="291"
       y1="172"
       x2="349"
       y2="172"
       gradientUnits="userSpaceOnUse"
       gradientTransform="rotate(-90,320,172)" /><linearGradient
       inkscape:collect="always"
       xlink:href="#linearGradient2"
       id="linearGradient3870"
       gradientUnits="userSpaceOnUse"
       gradientTransform="rotate(-90,428,112)"
       x1="418"
       y1="112"
       x2="438"
       y2="112" /></defs><metadata
     id="metadata4"><rdf:RDF><cc:Work
         rdf:about=""><dc:format>image/svg+xml</dc:format><dc:type
           rdf:resource="http://purl.org/dc/dcmitype/StillImage" /><dc:creator><cc:Agent><dc:title>Sam Hewitt</dc:title></cc:Agent></dc:creator><dc:source /><cc:license
           rdf:resource="" /><dc:title /><dc:subject><rdf:Bag /></dc:subject><dc:date /><dc:rights><cc:Agent><dc:title /></cc:Agent></dc:rights><dc:publisher><cc:Agent><dc:title /></cc:Agent></dc:publisher><dc:identifier /><dc:relation /><dc:language /><dc:coverage /><dc:description /><dc:contributor><cc:Agent><dc:title /></cc:Agent></dc:contributor></cc:Work><cc:Work
         rdf:about=""><dc:format>image/svg+xml</dc:format><dc:type
           rdf:resource="http://purl.org/dc/dcmitype/StillImage" /></cc:Work></rdf:RDF></metadata><g
     style="display:inline"
     inkscape:groupmode="layer"
     inkscape:label="Icon"
     id="layer1"><g
       style="display:none"
       inkscape:label="Baseplate"
       id="layer7"
       inkscape:groupmode="layer"><text
         y="19.745117"
         xml:space="preserve"
         x="15.006836"
         style="font-style:normal;font-variant:normal;font-weight:normal;font-stretch:normal;line-height:0%;font-family:'DejaVu Sans';-inkscape-font-specification:'DejaVu Sans';display:inline;fill:#000000;fill-opacity:1;stroke:none;enable-background:new"
         inkscape:label="context"
         id="context"><tspan
           style="font-style:normal;font-variant:normal;font-weight:normal;font-stretch:normal;font-size:18px;line-height:1.25;font-family:'DejaVu Sans';-inkscape-font-specification:'DejaVu Sans'"
           y="19.745117"
           x="15.006836"
           sodipodi:role="line"
           id="tspan3933">apps</tspan></text><text
         y="19.745117"
         xml:space="preserve"
         x="122.48828"
         style="font-style:normal;font-variant:normal;font-weight:bold;font-stretch:normal;line-height:0%;font-family:'DejaVu Sans';-inkscape-font-specification:'DejaVu Sans Bold';text-align:start;writing-mode:lr-tb;text-anchor:start;display:inline;fill:#000000;fill-opacity:1;stroke:none;enable-background:new"
         inkscape:label="icon-name"
         id="icon-name"><tspan
           style="font-style:normal;font-variant:normal;font-weight:bold;font-stretch:normal;font-size:18px;line-height:1.25;font-family:'DejaVu Sans';-inkscape-font-specification:'DejaVu Sans Bold'"
           y="19.745117"
           x="122.48828"
           sodipodi:role="line"
           id="tspan3937">epsonscan2</tspan></text><rect
         style="display:inline;overflow:visible;visibility:visible;fill:#eeeeec;fill-opacity:1;fill-rule:nonzero;stroke:none;stroke-width:2;marker:none;enable-background:accumulate"
         id="rect16x16"
         width="16"
         height="16"
         x="416"
         y="140"
         inkscape:label="16x16" /><rect
         style="display:inline;overflow:visible;visibility:visible;fill:#d4d4d4;fill-opacity:1;fill-rule:nonzero;stroke:none;stroke-width:2;marker:none;enable-background:accumulate"
         id="rect24x24"
         width="24"
         height="24"
         x="416"
         y="100"
         inkscape:label="24x24" /><rect
         style="display:inline;overflow:visible;visibility:visible;fill:#eeeeec;fill-opacity:1;fill-rule:nonzero;stroke:none;stroke-width:2;marker:none;enable-background:accumulate"
         id="rect32x32"
         width="32"
         height="32"
         x="416"
         y="52"
         inkscape:label="32x32" /><rect
         inkscape:label="22x22"
         y="101"
         x="417"
         height="22"
         width="22"
         id="rect22x22"
         style="display:inline;overflow:visible;visibility:visible;fill:#eeeeec;fill-opacity:1;fill-rule:nonzero;stroke:none;stroke-width:2;marker:none;enable-background:accumulate" /><rect
         inkscape:label="48x48"
         y="220"
         x="288"
         height="48"
         width="48"
         id="rect48x48"
         style="display:inline;overflow:visible;visibility:visible;fill:#eeeeec;fill-opacity:1;fill-rule:nonzero;stroke:none;stroke-width:2;marker:none;enable-background:accumulate" /><rect
         style="display:inline;overflow:visible;visibility:visible;fill:#eeeeec;fill-opacity:1;fill-rule:nonzero;stroke:none;stroke-width:2;marker:none;enable-background:accumulate"
         id="rect256x256"
         width="256"
         height="256"
         x="16"
         y="28"
         inkscape:label="256x256" /><rect
         style="display:inline;overflow:visible;visibility:visible;fill:#eeeeec;fill-opacity:1;fill-rule:nonzero;stroke:none;stroke-width:2;marker:none;enable-background:accumulate"
         id="rect64x64"
         width="64"
         height="64"
         x="288"
         y="140"
         inkscape:label="64x64" /><rect
         style="display:inline;overflow:visible;visibility:visible;fill:#eeeeec;fill-opacity:1;fill-rule:nonzero;stroke:none;stroke-width:2;marker:none;enable-background:accumulate"
         id="rect96x96"
         width="96"
         height="96"
         x="288"
         y="28"
         inkscape:label="96x96" /></g><g
       inkscape:groupmode="layer"
       id="layer4"
       inkscape:label="Shadow"
       style="display:inline"
       sodipodi:insensitive="true"><rect
         ry="50"
         y="47"
         x="34"
         height="220"
         width="220"
         id="rect4114"
         style="opacity:0.1;color:#bebebe;fill:#000000;fill-opacity:1;fill-rule:nonzero;stroke:none;stroke-width:0;marker:none;visibility:visible;display:inline;overflow:visible;enable-background:accumulate" /><rect
         style="opacity:0.1;color:#bebebe;fill:#000000;fill-opacity:1;fill-rule:nonzero;stroke:none;stroke-width:0;marker:none;visibility:visible;display:inline;overflow:visible;enable-background:accumulate"
         id="rect4120"
         width="30"
         height="30"
         x="417"
         y="54"
         ry="7" /><rect
         transform="scale(1,-1)"
         ry="9"
         y="-266"
         x="291"
         height="42"
         width="42"
         id="rect4122"
         style="opacity:0.1;color:#bebebe;fill:#000000;fill-opacity:1;fill-rule:nonzero;stroke:none;stroke-width:0;marker:none;visibility:visible;display:inline;overflow:visible;enable-background:accumulate" /><rect
         style="opacity:0.1;color:#bebebe;fill:#000000;fill-opacity:1;fill-rule:nonzero;stroke:none;stroke-width:0;marker:none;visibility:visible;display:inline;overflow:visible;enable-background:accumulate"
         id="rect4124"
         width="88"
         height="88"
         x="292"
         y="33"
         ry="18" /><rect
         ry="12.5"
         y="143"
         x="290"
         height="60"
         width="60"
         id="rect4126"
         style="opacity:0.1;color:#bebebe;fill:#000000;fill-opacity:1;fill-rule:nonzero;stroke:none;stroke-width:0;marker:none;visibility:visible;display:inline;overflow:visible;enable-background:accumulate" /><path
         id="path4268"
         d="m 422,101 c -2.77,0 -5,2.23 -5,5 l 0,12 c 0,2.77 2.23,5 5,5 l 12,0 c 2.77,0 5,-2.23 5,-5 l 0,-12 c 0,-2.77 -2.23,-5 -5,-5 z"
         style="opacity:0.1;color:#bebebe;fill:#000000;fill-opacity:1;fill-rule:nonzero;stroke:none;stroke-width:0;marker:none;visibility:visible;display:inline;overflow:visible;enable-background:accumulate"
         inkscape:connector-curvature="0"
         sodipodi:nodetypes="sssssssss" /><path
         id="path4270"
         d="m 419,140 c -1.662,0 -3,1.338 -3,3 l 0,10 c 0,1.662 1.338,3 3,3 l 10,0 c 1.662,0 3,-1.338 3,-3 l 0,-10 c 0,-1.662 -1.338,-3 -3,-3 z"
         style="opacity:0.1;color:#bebebe;fill:#000000;fill-opacity:1;fill-rule:nonzero;stroke:none;stroke-width:0;marker:none;visibility:visible;display:inline;overflow:visible;enable-background:accumulate"
         inkscape:connector-curvature="0"
         sodipodi:nodetypes="sssssssss" /></g><g
       inkscape:groupmode="layer"
       id="layer2"
       inkscape:label="Background"
       style="display:inline"><path
         style="color:#bebebe;fill:url(#linearGradient4254);fill-opacity:1.0;fill-rule:nonzero;stroke:none;stroke-width:2;marker:none;visibility:visible;display:inline;overflow:visible;enable-background:accumulate"
         d="M 84 46.5 C 56.568735 46.5 34.5 68.568732 34.5 96 L 34.5 216 C 34.5 243.43127 56.568735 265.5 84 265.5 L 204 265.5 C 231.43127 265.5 253.5 243.43127 253.5 216 L 253.5 96 C 253.5 68.568732 231.43127 46.5 204 46.5 L 84 46.5 z "
         id="path4200" /><path
         style="color:#bebebe;fill:url(#linearGradient4256);fill-opacity:1.0;fill-rule:nonzero;stroke:none;stroke-width:2;marker:none;visibility:visible;display:inline;overflow:visible;enable-background:accumulate"
         d="M 419 140.5 C 417.6156 140.5 416.5 141.6156 416.5 143 L 416.5 153 C 416.5 154.3844 417.6156 155.5 419 155.5 L 429 155.5 C 430.3844 155.5 431.5 154.3844 431.5 153 L 431.5 143 C 431.5 141.6156 430.3844 140.5 429 140.5 L 419 140.5 z "
         id="path4202" /><path
         style="color:#bebebe;fill:url(#linearGradient3870);fill-opacity:1.0;fill-rule:nonzero;stroke:none;stroke-width:2;marker:none;visibility:visible;display:inline;overflow:visible;enable-background:accumulate"
         d="M 422 101.5 C 419.50301 101.5 417.5 103.50301 417.5 106 L 417.5 118 C 417.5 120.49699 419.50301 122.5 422 122.5 L 434 122.5 C 436.49699 122.5 438.5 120.49699 438.5 118 L 438.5 106 C 438.5 103.50301 436.49699 101.5 434 101.5 L 422 101.5 z "
         id="path4204" /><path
         style="color:#bebebe;fill:url(#linearGradient4260);fill-opacity:1.0;fill-rule:nonzero;stroke:none;stroke-width:2;marker:none;visibility:visible;display:inline;overflow:visible;enable-background:accumulate"
         d="M 424 53.5 C 420.39346 53.5 417.5 56.393464 417.5 60 L 417.5 76 C 417.5 79.606536 420.39346 82.5 424 82.5 L 440 82.5 C 443.60654 82.5 446.5 79.606536 446.5 76 L 446.5 60 C 446.5 56.393464 443.60654 53.5 440 53.5 L 424 53.5 z "
         id="path4206" /><path
         style="color:#bebebe;fill:url(#linearGradient4262);fill-opacity:1.0;fill-rule:nonzero;stroke:none;stroke-width:2;marker:none;visibility:visible;display:inline;overflow:visible;enable-background:accumulate"
         d="M 300 223.5 C 295.28469 223.5 291.5 227.28469 291.5 232 L 291.5 256 C 291.5 260.71531 295.28469 264.5 300 264.5 L 324 264.5 C 328.71531 264.5 332.5 260.71531 332.5 256 L 332.5 232 C 332.5 227.28469 328.71531 223.5 324 223.5 L 300 223.5 z "
         id="path4208" /><path
         style="color:#bebebe;fill:url(#linearGradient4264);fill-opacity:1.0;fill-rule:nonzero;stroke:none;stroke-width:2;marker:none;visibility:visible;display:inline;overflow:visible;enable-background:accumulate"
         d="M 310 32.5 C 300.29745 32.5 292.5 40.297452 292.5 50 L 292.5 102 C 292.5 111.70255 300.29745 119.5 310 119.5 L 362 119.5 C 371.70255 119.5 379.5 111.70255 379.5 102 L 379.5 50 C 379.5 40.297452 371.70255 32.5 362 32.5 L 310 32.5 z "
         id="path4210" /><path
         style="color:#bebebe;fill:url(#linearGradient4266);fill-opacity:1.0;fill-rule:nonzero;stroke:none;stroke-width:2;marker:none;visibility:visible;display:inline;overflow:visible;enable-background:accumulate"
         d="M 302.5 142.5 C 295.84498 142.5 290.5 147.84498 290.5 154.5 L 290.5 189.5 C 290.5 196.15502 295.84498 201.5 302.5 201.5 L 337.5 201.5 C 344.15502 201.5 349.5 196.15502 349.5 189.5 L 349.5 154.5 C 349.5 147.84498 344.15502 142.5 337.5 142.5 L 302.5 142.5 z "
         id="path4212" /></g><g
       inkscape:groupmode="layer"
       id="layer6"
       inkscape:label="Symbols"
       style="display:inline"><path
         id="path9"
         style="fill:#000000;fill-opacity:1;stroke:none;stroke-width:3.16128;stroke-linecap:round;stroke-linejoin:round;opacity:0.3"
         d="m 89.12648,96.999994 c -5.25041,0 -6.61594,3.115106 -3.06127,6.984526 l 16.87089,18.36383 h 82.12786 l 16.87088,-18.36383 c 3.55467,-3.86942 2.18917,-6.984526 -3.06126,-6.984526 z m 19.76289,32.611796 c -2.12515,0 -4.37639,1.62521 -5.04715,3.64453 L 80.20448,204.4185 c -0.16748,0.50418 -0.2045,0.98289 -0.2045,1.29399 6e-5,4.5e-4 0.0159,5.78674 0.0159,5.78674 0,3.02195 2.21925,5.50076 4.97576,5.50076 h 118.01331 c 2.7565,0 4.97577,-2.4534 4.97577,-5.50076 l 0.0159,-5.78674 c 0.0185,-0.3685 -0.037,-0.78981 -0.20448,-1.29399 l -23.63872,-71.16218 c -0.67077,-2.01932 -2.92109,-3.64453 -5.04626,-3.64453 h -3.2014 -57.30901 z m 5.79023,8.28911 h 58.64086 l 15.31514,49.30917 H 99.36447 Z" /><path
         id="path10"
         style="display:inline;fill:#000000;fill-opacity:1;stroke:none;stroke-width:1.18548;stroke-linecap:round;stroke-linejoin:round;enable-background:new;opacity:0.3"
         d="m 315.4224,54.5 c -1.96891,0 -2.48098,1.168163 -1.14798,2.619197 l 6.32658,6.886434 h 30.79794 l 6.32658,-6.886434 C 359.05852,55.668163 358.54646,54.5 356.57755,54.5 Z m 7.41108,12.229421 c -0.79693,0 -1.64115,0.609453 -1.89268,1.366698 l -8.86415,26.68581 c -0.0628,0.189067 -0.0767,0.368583 -0.0767,0.485246 2e-5,1.68e-4 0.006,2.170027 0.006,2.170027 0,1.13323 0.83222,2.062784 1.86591,2.062784 h 44.25498 c 1.03369,0 1.86591,-0.920025 1.86591,-2.062784 l 0.006,-2.170027 c 0.007,-0.138188 -0.0139,-0.296179 -0.0767,-0.485246 l -8.86452,-26.68581 c -0.25154,-0.757245 -1.09541,-1.366698 -1.89235,-1.366698 h -1.20052 -21.49088 z m 2.17133,3.108415 h 21.99032 l 5.74318,18.490933 h -33.47667 z" /><path
         id="path11"
         style="display:inline;fill:#000000;fill-opacity:1;stroke:none;stroke-width:0.790318;stroke-linecap:round;stroke-linejoin:round;enable-background:new;opacity:0.3"
         d="m 306.28155,158.00002 c -1.31261,0 -1.65398,0.77878 -0.76532,1.74613 l 4.21771,4.59094 h 20.53192 l 4.21772,-4.59094 c 0.88866,-0.96735 0.54729,-1.74613 -0.76532,-1.74613 z m 4.94071,8.15293 c -0.53129,0 -1.0941,0.40631 -1.26178,0.91113 l -5.90943,17.79051 c -0.0419,0.12605 -0.0511,0.24573 -0.0511,0.3235 10e-6,1.1e-4 0.004,1.44668 0.004,1.44668 0,0.75549 0.55481,1.37519 1.24394,1.37519 h 29.50326 c 0.68913,0 1.24394,-0.61335 1.24394,-1.37519 l 0.004,-1.44668 c 0.005,-0.0921 -0.009,-0.19745 -0.0511,-0.3235 l -5.90967,-17.79051 c -0.1677,-0.50482 -0.73027,-0.91113 -1.26157,-0.91113 h -0.80034 -14.32723 z m 1.44755,2.07228 H 327.33 l 3.82878,12.32726 h -22.31774 z" /><path
         id="path12"
         style="display:inline;fill:#000000;fill-opacity:1;stroke:none;stroke-width:0.592739;stroke-linecap:round;stroke-linejoin:round;enable-background:new;opacity:0.3"
         d="m 301.7111,233.75001 c -0.98445,0 -1.24049,0.58408 -0.57399,1.3096 l 3.16329,3.44321 h 15.39894 l 3.16328,-3.44321 c 0.6665,-0.72552 0.41047,-1.3096 -0.57398,-1.3096 z m 3.70553,6.1147 c -0.39846,0 -0.82057,0.30473 -0.94633,0.68335 l -4.43207,13.34288 c -0.0314,0.0945 -0.0383,0.18429 -0.0383,0.24262 10e-6,9e-5 0.003,1.08501 0.003,1.08501 0,0.56662 0.41611,1.03139 0.93295,1.03139 h 22.12745 c 0.51685,0 0.93295,-0.46001 0.93295,-1.03139 l 0.003,-1.08501 c 0.004,-0.0691 -0.007,-0.14809 -0.0383,-0.24262 l -4.43225,-13.34288 c -0.12577,-0.37862 -0.5477,-0.68335 -0.94617,-0.68335 h -0.60026 -10.74542 z m 1.08567,1.55421 h 10.99514 l 2.87158,9.24544 h -16.7383 z" /><path
         id="path13"
         style="display:inline;fill:#000000;fill-opacity:1;stroke:none;stroke-width:0.395157;stroke-linecap:round;stroke-linejoin:round;enable-background:new;opacity:0.3"
         d="m 425.1407,61.500052 c -0.65629,0 -0.82699,0.389384 -0.38265,0.873062 l 2.10884,2.29546 h 10.2659 l 2.10885,-2.29546 c 0.44433,-0.483678 0.27364,-0.873062 -0.38266,-0.873062 z m 2.47034,4.076444 c -0.26564,0 -0.54704,0.203151 -0.63088,0.455563 l -2.9547,8.895203 c -0.0209,0.063 -0.0255,0.122859 -0.0255,0.161745 1e-5,6e-5 0.002,0.723336 0.002,0.723336 0,0.377745 0.27741,0.68759 0.62196,0.68759 h 14.75155 c 0.34457,0 0.62196,-0.306672 0.62196,-0.68759 l 0.002,-0.723336 c 0.003,-0.04607 -0.005,-0.09873 -0.0255,-0.161745 l -2.95481,-8.895203 c -0.0839,-0.252412 -0.36514,-0.455564 -0.63078,-0.455564 h -0.40017 -7.16357 z m 0.72378,1.036133 h 7.33005 l 1.91438,6.163592 h -11.15881 z" /><path
         id="path14"
         style="display:inline;fill:#000000;fill-opacity:1;stroke:none;stroke-width:0.293058;stroke-linecap:round;stroke-linejoin:round;enable-background:new;opacity:0.3"
         d="m 422.85514,107.49999 c -0.49222,0 -0.62024,0.28555 -0.28699,0.64025 l 1.58163,1.68335 h 7.69943 l 1.58163,-1.68335 c 0.33325,-0.3547 0.20523,-0.64025 -0.28699,-0.64025 z m 1.85275,2.98941 c -0.19922,0 -0.41028,0.14899 -0.47316,0.33409 l -2.21602,6.5232 c -0.0157,0.0463 -0.0192,0.0901 -0.0192,0.11862 0,4e-5 0.002,0.53045 0.002,0.53045 0,0.27701 0.20805,0.50423 0.46647,0.50423 h 11.06366 c 0.25843,0 0.46648,-0.22489 0.46648,-0.50423 l 0.002,-0.53045 c 0.002,-0.0338 -0.004,-0.0724 -0.0192,-0.11862 l -2.21612,-6.5232 c -0.0629,-0.1851 -0.27384,-0.33409 -0.47308,-0.33409 h -0.30013 -5.37268 z m 0.54284,0.75984 h 5.49753 l 1.43579,4.52001 h -8.36911 z" /><path
         id="path15"
         style="display:inline;fill:#000000;fill-opacity:1;stroke:none;stroke-width:0.204059;stroke-linecap:round;stroke-linejoin:round;enable-background:new;opacity:0.3"
         d="m 420.57046,144.99999 c -0.32815,0 -0.4135,0.20767 -0.19133,0.46563 l 1.05442,1.22426 h 5.13295 l 1.05442,-1.22426 c 0.22217,-0.25796 0.13683,-0.46563 -0.19132,-0.46563 z m 1.23517,2.17411 c -0.13282,0 -0.27353,0.10836 -0.31545,0.24297 l -1.47734,4.74413 c -0.0105,0.0336 -0.0128,0.0655 -0.0128,0.0863 0,3e-5 10e-4,0.38578 10e-4,0.38578 0,0.20146 0.1387,0.36671 0.31098,0.36671 h 7.37578 c 0.17228,0 0.31098,-0.16356 0.31098,-0.36671 l 10e-4,-0.38578 c 0.001,-0.0245 -0.002,-0.0527 -0.0128,-0.0863 l -1.47741,-4.74413 c -0.0419,-0.13461 -0.18256,-0.24297 -0.31539,-0.24297 h -0.20008 -3.58179 z m 0.36188,0.55261 h 3.66503 l 0.95719,3.28726 h -5.5794 z" /><path
         id="rect2"
         style="fill:#ffffff;fill-opacity:1;stroke:none;stroke-width:3.16128;stroke-linecap:round;stroke-linejoin:round"
         d="m 89.12648,96.000001 c -5.25041,0 -6.61594,3.115103 -3.06127,6.984529 l 16.87089,18.36383 h 82.12786 l 16.87088,-18.36383 c 3.55467,-3.869426 2.18917,-6.984529 -3.06126,-6.984529 z m 19.76289,32.611799 c -2.12515,0 -4.37639,1.62521 -5.04715,3.64453 l -23.63774,71.16218 c -0.16748,0.50418 -0.2045,0.98289 -0.2045,1.29399 6e-5,4.5e-4 0.0159,5.78674 0.0159,5.78674 0,3.02195 2.21925,5.50076 4.97576,5.50076 h 118.01331 c 2.7565,0 4.97577,-2.4534 4.97577,-5.50076 l 0.0159,-5.78674 c 0.0185,-0.3685 -0.037,-0.78981 -0.20448,-1.29399 l -23.63872,-71.16218 c -0.67077,-2.01932 -2.92109,-3.64453 -5.04626,-3.64453 h -3.2014 -57.30901 z m 5.79023,8.28911 h 58.64086 l 15.31514,49.30917 H 99.36447 Z" /><path
         id="rect2-5"
         style="display:inline;fill:#ffffff;fill-opacity:1;stroke:none;stroke-width:1.18548;stroke-linecap:round;stroke-linejoin:round;enable-background:new"
         d="m 315.4224,53.500007 c -1.96891,0 -2.48098,1.168163 -1.14798,2.619197 l 6.32658,6.886434 h 30.79794 l 6.32658,-6.886434 c 1.333,-1.451034 0.82094,-2.619197 -1.14797,-2.619197 z m 7.41108,12.229421 c -0.79693,0 -1.64115,0.609453 -1.89268,1.366698 l -8.86415,26.68581 c -0.0628,0.189067 -0.0767,0.368583 -0.0767,0.485246 2e-5,1.68e-4 0.006,2.170027 0.006,2.170027 0,1.13323 0.83222,2.062784 1.86591,2.062784 h 44.25498 c 1.03369,0 1.86591,-0.920025 1.86591,-2.062784 l 0.006,-2.170027 c 0.007,-0.138188 -0.0139,-0.296179 -0.0767,-0.485246 l -8.86452,-26.68581 c -0.25154,-0.757245 -1.09541,-1.366698 -1.89235,-1.366698 h -1.20052 -21.49088 z m 2.17133,3.108415 h 21.99032 l 5.74318,18.490933 h -33.47667 z" /><path
         id="rect2-5-6"
         style="display:inline;fill:#ffffff;fill-opacity:1;stroke:none;stroke-width:0.790318;stroke-linecap:round;stroke-linejoin:round;enable-background:new"
         d="m 306.28155,157.00003 c -1.31261,0 -1.65398,0.77878 -0.76532,1.74613 l 4.21771,4.59094 h 20.53192 l 4.21772,-4.59094 c 0.88866,-0.96735 0.54729,-1.74613 -0.76532,-1.74613 z m 4.94071,8.15293 c -0.53129,0 -1.0941,0.40631 -1.26178,0.91113 l -5.90943,17.79051 c -0.0419,0.12605 -0.0511,0.24573 -0.0511,0.3235 10e-6,1.1e-4 0.004,1.44668 0.004,1.44668 0,0.75549 0.55481,1.37519 1.24394,1.37519 h 29.50326 c 0.68913,0 1.24394,-0.61335 1.24394,-1.37519 l 0.004,-1.44668 c 0.005,-0.0921 -0.009,-0.19745 -0.0511,-0.3235 l -5.90967,-17.79051 c -0.1677,-0.50482 -0.73027,-0.91113 -1.26157,-0.91113 h -0.80034 -14.32723 z m 1.44755,2.07228 H 327.33 l 3.82878,12.32726 h -22.31774 z" /><path
         id="rect2-5-2"
         style="display:inline;fill:#ffffff;fill-opacity:1;stroke:none;stroke-width:0.592739;stroke-linecap:round;stroke-linejoin:round;enable-background:new"
         d="m 301.7111,232.75002 c -0.98445,0 -1.24049,0.58408 -0.57399,1.3096 l 3.16329,3.44321 h 15.39894 l 3.16328,-3.44321 c 0.6665,-0.72552 0.41047,-1.3096 -0.57398,-1.3096 z m 3.70553,6.1147 c -0.39846,0 -0.82057,0.30473 -0.94633,0.68335 l -4.43207,13.34288 c -0.0314,0.0945 -0.0383,0.18429 -0.0383,0.24262 10e-6,9e-5 0.003,1.08501 0.003,1.08501 0,0.56662 0.41611,1.03139 0.93295,1.03139 h 22.12745 c 0.51685,0 0.93295,-0.46001 0.93295,-1.03139 l 0.003,-1.08501 c 0.004,-0.0691 -0.007,-0.14809 -0.0383,-0.24262 l -4.43225,-13.34288 c -0.12577,-0.37862 -0.5477,-0.68335 -0.94617,-0.68335 h -0.60026 -10.74542 z m 1.08567,1.55421 h 10.99514 l 2.87158,9.24544 h -16.7383 z" /><path
         id="rect2-5-2-9"
         style="display:inline;fill:#ffffff;fill-opacity:1;stroke:none;stroke-width:0.395157;stroke-linecap:round;stroke-linejoin:round;enable-background:new"
         d="m 425.1407,60.500059 c -0.65629,0 -0.82699,0.389384 -0.38265,0.873062 l 2.10884,2.29546 h 10.2659 l 2.10885,-2.29546 c 0.44433,-0.483678 0.27364,-0.873062 -0.38266,-0.873062 z m 2.47034,4.076444 c -0.26564,0 -0.54704,0.203151 -0.63088,0.455563 l -2.9547,8.895203 c -0.0209,0.063 -0.0255,0.122859 -0.0255,0.161745 1e-5,6e-5 0.002,0.723336 0.002,0.723336 0,0.377745 0.27741,0.68759 0.62196,0.68759 h 14.75155 c 0.34457,0 0.62196,-0.306672 0.62196,-0.68759 l 0.002,-0.723336 c 0.003,-0.04607 -0.005,-0.09873 -0.0255,-0.161745 l -2.95481,-8.895203 c -0.0839,-0.252412 -0.36514,-0.455564 -0.63078,-0.455564 h -0.40017 -7.16357 z m 0.72378,1.036133 h 7.33005 l 1.91438,6.163592 h -11.15881 z" /><path
         id="rect2-5-2-1"
         style="display:inline;fill:#ffffff;fill-opacity:1;stroke:none;stroke-width:0.293058;stroke-linecap:round;stroke-linejoin:round;enable-background:new"
         d="m 422.85514,106.5 c -0.49222,0 -0.62024,0.28555 -0.28699,0.64025 l 1.58163,1.68335 h 7.69943 l 1.58163,-1.68335 c 0.33325,-0.3547 0.20523,-0.64025 -0.28699,-0.64025 z m 1.85275,2.98941 c -0.19922,0 -0.41028,0.14899 -0.47316,0.33409 l -2.21602,6.5232 c -0.0157,0.0463 -0.0192,0.0901 -0.0192,0.11862 0,4e-5 0.002,0.53045 0.002,0.53045 0,0.27701 0.20805,0.50423 0.46647,0.50423 h 11.06366 c 0.25843,0 0.46648,-0.22489 0.46648,-0.50423 l 0.002,-0.53045 c 0.002,-0.0338 -0.004,-0.0724 -0.0192,-0.11862 l -2.21612,-6.5232 c -0.0629,-0.1851 -0.27384,-0.33409 -0.47308,-0.33409 h -0.30013 -5.37268 z m 0.54284,0.75984 h 5.49753 l 1.43579,4.52001 h -8.36911 z" /><path
         id="rect2-5-2-2"
         style="display:inline;fill:#ffffff;fill-opacity:1;stroke:none;stroke-width:0.204059;stroke-linecap:round;stroke-linejoin:round;enable-background:new"
         d="m 420.57046,144 c -0.32815,0 -0.4135,0.20767 -0.19133,0.46563 l 1.05442,1.22426 h 5.13295 l 1.05442,-1.22426 C 427.84309,144.20767 427.75775,144 427.4296,144 Z m 1.23517,2.17411 c -0.13282,0 -0.27353,0.10836 -0.31545,0.24297 l -1.47734,4.74413 c -0.0105,0.0336 -0.0128,0.0655 -0.0128,0.0863 0,3e-5 10e-4,0.38578 10e-4,0.38578 0,0.20146 0.1387,0.36671 0.31098,0.36671 h 7.37578 c 0.17228,0 0.31098,-0.16356 0.31098,-0.36671 l 10e-4,-0.38578 c 0.001,-0.0245 -0.002,-0.0527 -0.0128,-0.0863 l -1.47741,-4.74413 c -0.0419,-0.13461 -0.18256,-0.24297 -0.31539,-0.24297 h -0.20008 -3.58179 z m 0.36188,0.55261 h 3.66503 l 0.95719,3.28726 h -5.5794 z" /><g
         id="g8"
         transform="translate(0.239151)" /></g><g
       inkscape:groupmode="layer"
       id="layer5"
       inkscape:label="Highlights"
       style="display:inline"
       sodipodi:insensitive="true"><path
         style="opacity:0.12999998;color:#bebebe;fill:#ffffff;fill-opacity:1;fill-rule:nonzero;stroke:none;stroke-width:0;marker:none;visibility:visible;display:inline;overflow:visible;enable-background:accumulate"
         d="M 84,47 C 56.836703,47 35,68.836703 35,96 l 0,1 C 35,69.836703 56.836703,48 84,48 l 120,0 c 27.1633,0 49,21.836703 49,49 l 0,-1 C 253,68.836703 231.1633,47 204,47 L 84,47 z"
         id="rect3894"
         inkscape:connector-curvature="0" /><path
         style="opacity:0.12999998;color:#bebebe;fill:#ffffff;fill-opacity:1;fill-rule:nonzero;stroke:none;stroke-width:0;marker:none;visibility:visible;display:inline;overflow:visible;enable-background:accumulate"
         d="m 419,141 c -1.1253,0 -2,0.8747 -2,2 l 0,1 c 0,-1.1253 0.8747,-2 2,-2 l 10,0 c 1.1253,0 2,0.8747 2,2 l 0,-1 c 0,-1.1253 -0.8747,-2 -2,-2 l -10,0 z"
         id="rect3896"
         inkscape:connector-curvature="0" /><path
         style="opacity:0.12999998;color:#bebebe;fill:#ffffff;fill-opacity:1;fill-rule:nonzero;stroke:none;stroke-width:0;marker:none;visibility:visible;display:inline;overflow:visible;enable-background:accumulate"
         d="m 422,102 c -2.2333,0 -4,1.7667 -4,4 l 0,1 c 0,-2.2333 1.7667,-4 4,-4 l 12,0 c 2.2333,0 4,1.7667 4,4 l 0,-1 c 0,-2.2333 -1.7667,-4 -4,-4 l -12,0 z"
         id="rect3898"
         inkscape:connector-curvature="0" /><path
         style="opacity:0.12999998;color:#bebebe;fill:#ffffff;fill-opacity:1;fill-rule:nonzero;stroke:none;stroke-width:0;marker:none;visibility:visible;display:inline;overflow:visible;enable-background:accumulate"
         d="m 424,54 c -3.3413,0 -6,2.658703 -6,6 l 0,1 c 0,-3.341297 2.6587,-6 6,-6 l 16,0 c 3.3413,0 6,2.658703 6,6 l 0,-1 c 0,-3.341297 -2.6587,-6 -6,-6 l -16,0 z"
         id="rect3900"
         inkscape:connector-curvature="0" /><path
         style="opacity:0.12999998;color:#bebebe;fill:#ffffff;fill-opacity:1;fill-rule:nonzero;stroke:none;stroke-width:0;marker:none;visibility:visible;display:inline;overflow:visible;enable-background:accumulate"
         d="m 300,224 c -4.4493,0 -8,3.5507 -8,8 l 0,1 c 0,-4.4493 3.5507,-8 8,-8 l 24,0 c 4.4493,0 8,3.5507 8,8 l 0,-1 c 0,-4.4493 -3.5507,-8 -8,-8 l -24,0 z"
         id="rect3902"
         inkscape:connector-curvature="0" /><path
         style="opacity:0.12999998;color:#bebebe;fill:#ffffff;fill-opacity:1;fill-rule:nonzero;stroke:none;stroke-width:0;marker:none;visibility:visible;display:inline;overflow:visible;enable-background:accumulate"
         d="m 310,33 c -9.4353,0 -17,7.564703 -17,17 l 0,1 c 0,-9.435297 7.5647,-17 17,-17 l 52,0 c 9.4353,0 17,7.564703 17,17 l 0,-1 c 0,-9.435297 -7.5647,-17 -17,-17 l -52,0 z"
         id="rect3904"
         inkscape:connector-curvature="0" /><path
         style="opacity:0.12999998;color:#bebebe;fill:#ffffff;fill-opacity:1;fill-rule:nonzero;stroke:none;stroke-width:0;marker:none;visibility:visible;display:inline;overflow:visible;enable-background:accumulate"
         d="m 302.5,143 c -6.3883,0 -11.5,5.1117 -11.5,11.5 l 0,1 c 0,-6.3883 5.1117,-11.5 11.5,-11.5 l 35,0 c 6.3883,0 11.5,5.1117 11.5,11.5 l 0,-1 c 0,-6.3883 -5.1117,-11.5 -11.5,-11.5 l -35,0 z"
         id="rect3906"
         inkscape:connector-curvature="0" /><path
         id="path4085"
         d="m 204,266 c 27.1633,0 49,-21.8367 49,-49 l 0,-1 c 0,27.1633 -21.8367,49 -49,49 L 84,265 C 56.8367,265 35,243.1633 35,216 l 0,1 c 0,27.1633 21.8367,49 49,49 l 120,0 z"
         style="opacity:0.5;color:#bebebe;fill:#000000;fill-opacity:1;fill-rule:nonzero;stroke:none;stroke-width:0;marker:none;visibility:visible;display:inline;overflow:visible;enable-background:accumulate"
         inkscape:connector-curvature="0" /><path
         id="path4087"
         d="m 429,156 c 1.1253,0 2,-0.8747 2,-2 l 0,-1 c 0,1.1253 -0.8747,2 -2,2 l -10,0 c -1.1253,0 -2,-0.8747 -2,-2 l 0,1 c 0,1.1253 0.8747,2 2,2 l 10,0 z"
         style="opacity:0.3;color:#bebebe;fill:#000000;fill-opacity:1;fill-rule:nonzero;stroke:none;stroke-width:0;marker:none;visibility:visible;display:inline;overflow:visible;enable-background:accumulate"
         inkscape:connector-curvature="0" /><path
         id="path4089"
         d="m 434,123 c 2.2333,0 4,-1.7667 4,-4 l 0,-1 c 0,2.2333 -1.7667,4 -4,4 l -12,0 c -2.2333,0 -4,-1.7667 -4,-4 l 0,1 c 0,2.2333 1.7667,4 4,4 l 12,0 z"
         style="opacity:0.3;color:#bebebe;fill:#000000;fill-opacity:1;fill-rule:nonzero;stroke:none;stroke-width:0;marker:none;visibility:visible;display:inline;overflow:visible;enable-background:accumulate"
         inkscape:connector-curvature="0" /><path
         id="path4091"
         d="m 440,83 c 3.3413,0 6,-2.6587 6,-6 l 0,-1 c 0,3.3413 -2.6587,6 -6,6 l -16,0 c -3.3413,0 -6,-2.6587 -6,-6 l 0,1 c 0,3.3413 2.6587,6 6,6 l 16,0 z"
         style="opacity:0.5;color:#bebebe;fill:#000000;fill-opacity:1;fill-rule:nonzero;stroke:none;stroke-width:0;marker:none;visibility:visible;display:inline;overflow:visible;enable-background:accumulate"
         inkscape:connector-curvature="0" /><path
         id="path4093"
         d="m 324,265 c 4.4493,0 8,-3.5507 8,-8 l 0,-1 c 0,4.4493 -3.5507,8 -8,8 l -24,0 c -4.4493,0 -8,-3.5507 -8,-8 l 0,1 c 0,4.4493 3.5507,8 8,8 l 24,0 z"
         style="opacity:0.5;color:#bebebe;fill:#000000;fill-opacity:1;fill-rule:nonzero;stroke:none;stroke-width:0;marker:none;visibility:visible;display:inline;overflow:visible;enable-background:accumulate"
         inkscape:connector-curvature="0" /><path
         id="path4095"
         d="m 362,120 c 9.4353,0 17,-7.5647 17,-17 l 0,-1 c 0,9.4353 -7.5647,17 -17,17 l -52,0 c -9.4353,0 -17,-7.5647 -17,-17 l 0,1 c 0,9.4353 7.5647,17 17,17 l 52,0 z"
         style="opacity:0.5;color:#bebebe;fill:#000000;fill-opacity:1;fill-rule:nonzero;stroke:none;stroke-width:0;marker:none;visibility:visible;display:inline;overflow:visible;enable-background:accumulate"
         inkscape:connector-curvature="0" /><path
         id="path4097"
         d="m 337.5,202 c 6.3883,0 11.5,-5.1117 11.5,-11.5 l 0,-1 c 0,6.3883 -5.1117,11.5 -11.5,11.5 l -35,0 c -6.3883,0 -11.5,-5.1117 -11.5,-11.5 l 0,1 c 0,6.3883 5.1117,11.5 11.5,11.5 l 35,0 z"
         style="opacity:0.5;color:#bebebe;fill:#000000;fill-opacity:1;fill-rule:nonzero;stroke:none;stroke-width:0;marker:none;visibility:visible;display:inline;overflow:visible;enable-background:accumulate"
         inkscape:connector-curvature="0" /><path
         inkscape:connector-curvature="0"
         id="path4280"
         d="M 84,265 C 56.836703,265 35,243.1633 35,216 l 0,-1 c 0,27.1633 21.836703,49 49,49 l 120,0 c 27.1633,0 49,-21.8367 49,-49 l 0,1 c 0,27.1633 -21.8367,49 -49,49 l -120,0 z"
         style="opacity:0.1;color:#bebebe;fill:#ffffff;fill-opacity:1;fill-rule:nonzero;stroke:none;stroke-width:0;marker:none;visibility:visible;display:inline;overflow:visible;enable-background:accumulate" /><path
         style="opacity:0.1;color:#bebebe;fill:#ffffff;fill-opacity:1;fill-rule:nonzero;stroke:none;stroke-width:0;marker:none;visibility:visible;display:inline;overflow:visible;enable-background:accumulate"
         d="m 300,264 c -4.4493,0 -8,-3.5507 -8,-8 l 0,-1 c 0,4.4493 3.5507,8 8,8 l 24,0 c 4.4493,0 8,-3.5507 8,-8 l 0,1 c 0,4.4493 -3.5507,8 -8,8 l -24,0 z"
         id="path4294"
         inkscape:connector-curvature="0" /><path
         style="opacity:0.1;color:#bebebe;fill:#ffffff;fill-opacity:1;fill-rule:nonzero;stroke:none;stroke-width:0;marker:none;visibility:visible;display:inline;overflow:visible;enable-background:accumulate"
         d="m 302.5,201 c -6.3883,0 -11.5,-5.1117 -11.5,-11.5 l 0,-1 c 0,6.3883 5.1117,11.5 11.5,11.5 l 35,0 c 6.3883,0 11.5,-5.1117 11.5,-11.5 l 0,1 c 0,6.3883 -5.1117,11.5 -11.5,11.5 l -35,0 z"
         id="path4296"
         inkscape:connector-curvature="0" /><path
         style="opacity:0.1;color:#bebebe;fill:#ffffff;fill-opacity:1;fill-rule:nonzero;stroke:none;stroke-width:0;marker:none;visibility:visible;display:inline;overflow:visible;enable-background:accumulate"
         d="m 310,119 c -9.4353,0 -17,-7.5647 -17,-17 l 0,-1 c 0,9.4353 7.5647,17 17,17 l 52,0 c 9.4353,0 17,-7.5647 17,-17 l 0,1 c 0,9.4353 -7.5647,17 -17,17 l -52,0 z"
         id="path4298"
         inkscape:connector-curvature="0" /><path
         style="opacity:0.1;color:#bebebe;fill:#ffffff;fill-opacity:1;fill-rule:nonzero;stroke:none;stroke-width:0;marker:none;visibility:visible;display:inline;overflow:visible;enable-background:accumulate"
         d="m 424,82 c -3.3413,0 -6,-2.658703 -6,-6 l 0,-1 c 0,3.341297 2.6587,6 6,6 l 16,0 c 3.3413,0 6,-2.658703 6,-6 l 0,1 c 0,3.341297 -2.6587,6 -6,6 l -16,0 z"
         id="path4300"
         inkscape:connector-curvature="0" /><path
         style="opacity:0.1;color:#bebebe;fill:#ffffff;fill-opacity:1;fill-rule:nonzero;stroke:none;stroke-width:0;marker:none;visibility:visible;display:inline;overflow:visible;enable-background:accumulate"
         d="m 422,122 c -2.2333,0 -4,-1.7667 -4,-4 l 0,-1 c 0,2.2333 1.7667,4 4,4 l 12,0 c 2.2333,0 4,-1.7667 4,-4 l 0,1 c 0,2.2333 -1.7667,4 -4,4 l -12,0 z"
         id="path4302"
         inkscape:connector-curvature="0" /><path
         style="opacity:0.1;color:#bebebe;fill:#ffffff;fill-opacity:1;fill-rule:nonzero;stroke:none;stroke-width:0;marker:none;visibility:visible;display:inline;overflow:visible;enable-background:accumulate"
         d="m 419,154.5 c -1.1253,0 -2,-0.8747 -2,-2 l 0,-1 c 0,1.1253 0.8747,2 2,2 l 10,0 c 1.1253,0 2,-0.8747 2,-2 l 0,1 c 0,1.1253 -0.8747,2 -2,2 l -10,0 z"
         id="path4304"
         inkscape:connector-curvature="0" /></g><g
       inkscape:groupmode="layer"
       id="layer3"
       inkscape:label="Border"
       style="display:inline"
       sodipodi:insensitive="true"><path
         style="opacity:0.41000001;color:#bebebe;fill:#000000;fill-opacity:1;fill-rule:nonzero;stroke:none;stroke-width:0;marker:none;visibility:visible;display:inline;overflow:visible;enable-background:accumulate"
         d="m 422,101 c -2.77,0 -5,2.23 -5,5 l 0,12 c 0,2.77 2.23,5 5,5 l 12,0 c 2.77,0 5,-2.23 5,-5 l 0,-12 c 0,-2.77 -2.23,-5 -5,-5 l -12,0 z m 0,1 12,0 c 2.2333,0 4,1.7667 4,4 l 0,12 c 0,2.2333 -1.7667,4 -4,4 l -12,0 c -2.2333,0 -4,-1.7667 -4,-4 l 0,-12 c 0,-2.2333 1.7667,-4 4,-4 z"
         id="rect4099"
         inkscape:connector-curvature="0" /><path
         style="opacity:0.41000001;color:#bebebe;fill:#000000;fill-opacity:1;fill-rule:nonzero;stroke:none;stroke-width:0;marker:none;visibility:visible;display:inline;overflow:visible;enable-background:accumulate"
         d="m 424,53 c -3.878,0 -7,3.122 -7,7 l 0,16 c 0,3.878 3.122,7 7,7 l 16,0 c 3.878,0 7,-3.122 7,-7 l 0,-16 c 0,-3.878 -3.122,-7 -7,-7 l -16,0 z m 0,1 16,0 c 3.3413,0 6,2.658703 6,6 l 0,16 c 0,3.341297 -2.6587,6 -6,6 l -16,0 c -3.3413,0 -6,-2.658703 -6,-6 l 0,-16 c 0,-3.341297 2.6587,-6 6,-6 z"
         id="rect4151"
         inkscape:connector-curvature="0" /><path
         style="opacity:0.41000001;color:#bebebe;fill:#000000;fill-opacity:1;fill-rule:nonzero;stroke:none;stroke-width:0;marker:none;visibility:visible;display:inline;overflow:visible;enable-background:accumulate"
         d="m 419,140 c -1.662,0 -3,1.338 -3,3 l 0,10 c 0,1.662 1.338,3 3,3 l 10,0 c 1.662,0 3,-1.338 3,-3 l 0,-10 c 0,-1.662 -1.338,-3 -3,-3 l -10,0 z m 0,1 10,0 c 1.1253,0 2,0.8747 2,2 l 0,10 c 0,1.1253 -0.8747,2 -2,2 l -10,0 c -1.1253,0 -2,-0.8747 -2,-2 l 0,-10 c 0,-1.1253 0.8747,-2 2,-2 z"
         id="rect4095"
         inkscape:connector-curvature="0" /><path
         style="opacity:0.41000001;color:#bebebe;fill:#000000;fill-opacity:1;fill-rule:nonzero;stroke:none;stroke-width:0;marker:none;visibility:visible;display:inline;overflow:visible;enable-background:accumulate"
         d="m 300,223 c -4.986,0 -9,4.014 -9,9 l 0,24 c 0,4.986 4.014,9 9,9 l 24,0 c 4.986,0 9,-4.014 9,-9 l 0,-24 c 0,-4.986 -4.014,-9 -9,-9 l -24,0 z m 0,1 24,0 c 4.4493,0 8,3.5507 8,8 l 0,24 c 0,4.4493 -3.5507,8 -8,8 l -24,0 c -4.4493,0 -8,-3.5507 -8,-8 l 0,-24 c 0,-4.4493 3.5507,-8 8,-8 z"
         id="rect4783"
         inkscape:connector-curvature="0" /><path
         style="opacity:0.41000001;color:#bebebe;fill:#000000;fill-opacity:1;fill-rule:nonzero;stroke:none;stroke-width:0;marker:none;visibility:visible;display:inline;overflow:visible;enable-background:accumulate"
         d="m 302.5,142 c -6.925,0 -12.5,5.575 -12.5,12.5 l 0,35 c 0,6.925 5.575,12.5 12.5,12.5 l 35,0 c 6.925,0 12.5,-5.575 12.5,-12.5 l 0,-35 c 0,-6.925 -5.575,-12.5 -12.5,-12.5 l -35,0 z m 0,1 35,0 c 6.3883,0 11.5,5.1117 11.5,11.5 l 0,35 c 0,6.3883 -5.1117,11.5 -11.5,11.5 l -35,0 c -6.3883,0 -11.5,-5.1117 -11.5,-11.5 l 0,-35 c 0,-6.3883 5.1117,-11.5 11.5,-11.5 z"
         id="rect4515"
         inkscape:connector-curvature="0" /><path
         style="opacity:0.41000001;color:#bebebe;fill:#000000;fill-opacity:1;fill-rule:nonzero;stroke:none;stroke-width:0;marker:none;visibility:visible;display:inline;overflow:visible;enable-background:accumulate"
         d="m 310,32 c -9.972,0 -18,8.028 -18,18 l 0,52 c 0,9.972 8.028,18 18,18 l 52,0 c 9.972,0 18,-8.028 18,-18 l 0,-52 c 0,-9.972 -8.028,-18 -18,-18 l -52,0 z m 0,1 52,0 c 9.4353,0 17,7.564703 17,17 l 0,52 c 0,9.4353 -7.5647,17 -17,17 l -52,0 c -9.4353,0 -17,-7.5647 -17,-17 l 0,-52 c 0,-9.435297 7.5647,-17 17,-17 z"
         id="rect4511"
         inkscape:connector-curvature="0" /><path
         style="opacity:0.41000001;color:#bebebe;fill:#000000;fill-opacity:1;fill-rule:nonzero;stroke:none;stroke-width:0;marker:none;visibility:visible;display:inline;overflow:visible;enable-background:accumulate"
         d="M 84,46 C 56.3,46 34,68.3 34,96 l 0,120 c 0,27.7 22.3,50 50,50 l 120,0 c 27.7,0 50,-22.3 50,-50 L 254,96 C 254,68.3 231.7,46 204,46 L 84,46 z m 0,1 120,0 c 27.1633,0 49,21.836703 49,49 l 0,120 c 0,27.1633 -21.8367,49 -49,49 L 84,265 C 56.836703,265 35,243.1633 35,216 L 35,96 C 35,68.836703 56.836703,47 84,47 z"
         id="rect4040"
         inkscape:connector-curvature="0" /></g></g></svg>
