<?xml version="1.0" encoding="UTF-8" standalone="no"?>
<!-- Created with Inkscape (http://www.inkscape.org/) -->

<svg
   xmlns:dc="http://purl.org/dc/elements/1.1/"
   xmlns:cc="http://creativecommons.org/ns#"
   xmlns:rdf="http://www.w3.org/1999/02/22-rdf-syntax-ns#"
   xmlns:svg="http://www.w3.org/2000/svg"
   xmlns="http://www.w3.org/2000/svg"
   xmlns:xlink="http://www.w3.org/1999/xlink"
   xmlns:sodipodi="http://sodipodi.sourceforge.net/DTD/sodipodi-0.dtd"
   xmlns:inkscape="http://www.inkscape.org/namespaces/inkscape"
   inkscape:export-ydpi="90.000000"
   inkscape:export-xdpi="90.000000"
   width="480"
   height="300"
   id="svg11300"
   sodipodi:version="0.32"
   inkscape:version="0.92.2 5c3e80d, 2017-08-06"
   sodipodi:docname="fma-config-tool.svg"
   inkscape:output_extension="org.inkscape.output.svg.inkscape"
   version="1.0"
   style="display:inline;enable-background:new"
   inkscape:export-filename="/home/sam/moka-next-template.png">
  <sodipodi:namedview
     stroke="#ef2929"
     fill="#f57900"
     id="base"
     pagecolor="#777777"
     bordercolor="#666666"
     borderopacity="0.25490196"
     inkscape:pageopacity="0"
     inkscape:pageshadow="2"
     inkscape:zoom="1.4142136"
     inkscape:cx="180.43389"
     inkscape:cy="86.049682"
     inkscape:current-layer="layer6"
     showgrid="false"
     inkscape:grid-bbox="true"
     inkscape:document-units="px"
     inkscape:showpageshadow="false"
     inkscape:window-width="1364"
     inkscape:window-height="700"
     inkscape:window-x="0"
     inkscape:window-y="28"
     width="400px"
     height="300px"
     inkscape:snap-nodes="true"
     inkscape:snap-bbox="true"
     gridtolerance="10000"
     inkscape:object-nodes="true"
     inkscape:snap-grids="true"
     showguides="true"
     inkscape:guide-bbox="true"
     inkscape:window-maximized="1"
     inkscape:bbox-nodes="true"
     inkscape:bbox-paths="true"
     inkscape:snap-bbox-edge-midpoints="true"
     inkscape:snap-bbox-midpoints="true">
    <inkscape:grid
       spacingy="1"
       spacingx="1"
       id="grid5883"
       type="xygrid"
       enabled="true"
       visible="true"
       empspacing="4"
       snapvisiblegridlinesonly="true"
       dotted="false"
       color="#000000"
       opacity="0.1254902"
       empcolor="#203ef3"
       empopacity="0.36470588"
       originx="0"
       originy="0" />
    <inkscape:grid
       type="xygrid"
       id="grid11592"
       empspacing="8"
       visible="true"
       enabled="false"
       spacingx="0.5"
       spacingy="0.5"
       color="#ff0000"
       opacity="0.1254902"
       empcolor="#ff0000"
       empopacity="0.25098039"
       snapvisiblegridlinesonly="true"
       dotted="true"
       originx="0"
       originy="0" />
  </sodipodi:namedview>
  <defs
     id="defs3">
    <linearGradient
       inkscape:collect="always"
       xlink:href="#outerBackgroundGradient-5"
       id="linearGradient4254"
       x1="35"
       y1="156"
       x2="253"
       y2="156"
       gradientUnits="userSpaceOnUse"
       gradientTransform="matrix(0,-1,1,0,-12,300)" />
    <linearGradient
       inkscape:collect="always"
       xlink:href="#outerBackgroundGradient-5"
       id="linearGradient4256"
       x1="417"
       y1="148"
       x2="431"
       y2="148"
       gradientUnits="userSpaceOnUse"
       gradientTransform="matrix(0,-1,1,0,276,572)" />
    <linearGradient
       inkscape:collect="always"
       xlink:href="#outerBackgroundGradient-5"
       id="linearGradient4258"
       x1="418"
       y1="112"
       x2="438"
       y2="112"
       gradientUnits="userSpaceOnUse"
       gradientTransform="matrix(0,-1,1,0,316,540)" />
    <linearGradient
       inkscape:collect="always"
       xlink:href="#outerBackgroundGradient-5"
       id="linearGradient4260"
       x1="418"
       y1="68"
       x2="446"
       y2="68"
       gradientUnits="userSpaceOnUse"
       gradientTransform="matrix(0,-1,1,0,364,500)" />
    <linearGradient
       inkscape:collect="always"
       xlink:href="#outerBackgroundGradient-5"
       id="linearGradient3998"
       gradientUnits="userSpaceOnUse"
       gradientTransform="matrix(0,-1,1,0,68,556)"
       x1="292"
       y1="244"
       x2="332"
       y2="244" />
    <linearGradient
       inkscape:collect="always"
       xlink:href="#outerBackgroundGradient-5"
       id="linearGradient4000"
       gradientUnits="userSpaceOnUse"
       gradientTransform="matrix(0,-1,1,0,260,412)"
       x1="293"
       y1="76"
       x2="379"
       y2="76" />
    <linearGradient
       inkscape:collect="always"
       xlink:href="#outerBackgroundGradient-5"
       id="linearGradient4002"
       gradientUnits="userSpaceOnUse"
       gradientTransform="matrix(0,-1,1,0,148,492)"
       x1="291"
       y1="172"
       x2="349"
       y2="172" />
    <linearGradient
       id="linearGradient3945">
      <stop
         style="stop-color:#f8e6fe;stop-opacity:1;"
         offset="0"
         id="stop3947" />
      <stop
         style="stop-color:#edddf2;stop-opacity:1;"
         offset="1"
         id="stop3949" />
    </linearGradient>
    <linearGradient
       id="outerBackgroundGradient-5">
      <stop
         style="stop-color:#846389;stop-opacity:1;"
         offset="0"
         id="stop3864-8-6-3-0" />
      <stop
         style="stop-color:#a38ea6;stop-opacity:1;"
         offset="1"
         id="stop3866-9-1-7" />
    </linearGradient>
    <linearGradient
       inkscape:collect="always"
       xlink:href="#linearGradient3945"
       id="linearGradient4272"
       x1="147.57272"
       y1="232.42726"
       x2="147.57272"
       y2="79.572731"
       gradientUnits="userSpaceOnUse"
       gradientTransform="matrix(0.93750021,0,0,0.93750021,8.999958,10.099503)" />
    <linearGradient
       inkscape:collect="always"
       xlink:href="#linearGradient3945"
       id="linearGradient4272-6"
       x1="147.57272"
       y1="232.42726"
       x2="147.57272"
       y2="79.572731"
       gradientUnits="userSpaceOnUse"
       gradientTransform="matrix(0.35625002,0,0,0.35625002,284.69999,21.19789)" />
    <linearGradient
       inkscape:collect="always"
       xlink:href="#linearGradient3945"
       id="linearGradient4272-6-4"
       x1="147.57272"
       y1="232.42726"
       x2="147.57272"
       y2="79.572731"
       gradientUnits="userSpaceOnUse"
       gradientTransform="matrix(0.2486024,0,0,0.2486024,284.20126,133.21802)" />
    <linearGradient
       inkscape:collect="always"
       xlink:href="#linearGradient3945"
       id="linearGradient4272-6-4-2"
       x1="147.57272"
       y1="232.42726"
       x2="147.57272"
       y2="79.572731"
       gradientUnits="userSpaceOnUse"
       gradientTransform="matrix(0.18749989,0,0,0.18749989,284.99988,215.42001)" />
    <linearGradient
       inkscape:collect="always"
       xlink:href="#linearGradient3945"
       id="linearGradient4272-6-4-2-1"
       x1="147.57272"
       y1="232.42726"
       x2="147.57272"
       y2="79.572731"
       gradientUnits="userSpaceOnUse"
       gradientTransform="matrix(0.12499993,0,0,0.12499993,414.00004,49.946713)" />
    <linearGradient
       inkscape:collect="always"
       xlink:href="#linearGradient3945"
       id="linearGradient4272-6-4-2-1-3"
       x1="147.57272"
       y1="232.42726"
       x2="147.57272"
       y2="79.572731"
       gradientUnits="userSpaceOnUse"
       gradientTransform="matrix(0.09375023,0,0,0.09375023,414.49989,97.210008)" />
    <linearGradient
       inkscape:collect="always"
       xlink:href="#linearGradient3945"
       id="linearGradient4272-6-4-2-1-8"
       x1="147.57272"
       y1="232.42726"
       x2="147.57272"
       y2="79.572731"
       gradientUnits="userSpaceOnUse"
       gradientTransform="matrix(0.06875017,0,0,0.06875017,414.09989,137.02069)" />
  </defs>
  <metadata
     id="metadata4">
    <rdf:RDF>
      <cc:Work
         rdf:about="">
        <dc:format>image/svg+xml</dc:format>
        <dc:type
           rdf:resource="http://purl.org/dc/dcmitype/StillImage" />
        <dc:creator>
          <cc:Agent>
            <dc:title>Alfredo Hernández</dc:title>
          </cc:Agent>
        </dc:creator>
        <dc:source />
        <cc:license
           rdf:resource="" />
        <dc:title />
        <dc:subject>
          <rdf:Bag />
        </dc:subject>
        <dc:date />
        <dc:rights>
          <cc:Agent>
            <dc:title />
          </cc:Agent>
        </dc:rights>
        <dc:publisher>
          <cc:Agent>
            <dc:title />
          </cc:Agent>
        </dc:publisher>
        <dc:identifier />
        <dc:relation />
        <dc:language />
        <dc:coverage />
        <dc:description />
        <dc:contributor>
          <cc:Agent>
            <dc:title />
          </cc:Agent>
        </dc:contributor>
      </cc:Work>
      <cc:Work
         rdf:about="">
        <dc:format>image/svg+xml</dc:format>
        <dc:type
           rdf:resource="http://purl.org/dc/dcmitype/StillImage" />
      </cc:Work>
    </rdf:RDF>
  </metadata>
  <g
     style="display:inline"
     inkscape:groupmode="layer"
     inkscape:label="Icon"
     id="layer1">
    <g
       style="display:none"
       inkscape:label="Baseplate"
       id="layer7"
       inkscape:groupmode="layer">
      <text
         y="19.745117"
         xml:space="preserve"
         x="15.006836"
         style="font-style:normal;font-variant:normal;font-weight:normal;font-stretch:normal;line-height:0%;font-family:'DejaVu Sans';-inkscape-font-specification:'DejaVu Sans';display:inline;fill:#000000;fill-opacity:1;stroke:none;enable-background:new"
         inkscape:label="context"
         id="context"><tspan
           style="font-style:normal;font-variant:normal;font-weight:normal;font-stretch:normal;font-size:18px;line-height:1.25;font-family:'DejaVu Sans';-inkscape-font-specification:'DejaVu Sans'"
           y="19.745117"
           x="15.006836"
           sodipodi:role="line"
           id="tspan3933">apps</tspan></text>
      <text
         y="19.745117"
         xml:space="preserve"
         x="122.48828"
         style="font-style:normal;font-variant:normal;font-weight:bold;font-stretch:normal;line-height:0%;font-family:'DejaVu Sans';-inkscape-font-specification:'DejaVu Sans Bold';text-align:start;writing-mode:lr-tb;text-anchor:start;display:inline;fill:#000000;fill-opacity:1;stroke:none;enable-background:new"
         inkscape:label="icon-name"
         id="icon-name"><tspan
           style="font-style:normal;font-variant:normal;font-weight:bold;font-stretch:normal;font-size:18px;line-height:1.25;font-family:'DejaVu Sans';-inkscape-font-specification:'DejaVu Sans Bold'"
           y="19.745117"
           x="122.48828"
           sodipodi:role="line"
           id="tspan3937">fma-config-tool</tspan></text>
      <rect
         style="display:inline;overflow:visible;visibility:visible;fill:#eeeeec;fill-opacity:1;fill-rule:nonzero;stroke:none;stroke-width:2;marker:none;enable-background:accumulate"
         id="rect16x16"
         width="16"
         height="16"
         x="416"
         y="140"
         inkscape:label="16x16" />
      <rect
         style="display:inline;overflow:visible;visibility:visible;fill:#d4d4d4;fill-opacity:1;fill-rule:nonzero;stroke:none;stroke-width:2;marker:none;enable-background:accumulate"
         id="rect24x24"
         width="24"
         height="24"
         x="416"
         y="100"
         inkscape:label="24x24" />
      <rect
         style="display:inline;overflow:visible;visibility:visible;fill:#eeeeec;fill-opacity:1;fill-rule:nonzero;stroke:none;stroke-width:2;marker:none;enable-background:accumulate"
         id="rect32x32"
         width="32"
         height="32"
         x="416"
         y="52"
         inkscape:label="32x32" />
      <rect
         inkscape:label="22x22"
         y="101"
         x="417"
         height="22"
         width="22"
         id="rect22x22"
         style="display:inline;overflow:visible;visibility:visible;fill:#eeeeec;fill-opacity:1;fill-rule:nonzero;stroke:none;stroke-width:2;marker:none;enable-background:accumulate" />
      <rect
         inkscape:label="48x48"
         y="220"
         x="288"
         height="48"
         width="48"
         id="rect48x48"
         style="display:inline;overflow:visible;visibility:visible;fill:#eeeeec;fill-opacity:1;fill-rule:nonzero;stroke:none;stroke-width:2;marker:none;enable-background:accumulate" />
      <rect
         style="display:inline;overflow:visible;visibility:visible;fill:#eeeeec;fill-opacity:1;fill-rule:nonzero;stroke:none;stroke-width:2;marker:none;enable-background:accumulate"
         id="rect256x256"
         width="256"
         height="256"
         x="16"
         y="28"
         inkscape:label="256x256" />
      <rect
         style="display:inline;overflow:visible;visibility:visible;fill:#eeeeec;fill-opacity:1;fill-rule:nonzero;stroke:none;stroke-width:2;marker:none;enable-background:accumulate"
         id="rect64x64"
         width="64"
         height="64"
         x="288"
         y="140"
         inkscape:label="64x64" />
      <rect
         style="display:inline;overflow:visible;visibility:visible;fill:#eeeeec;fill-opacity:1;fill-rule:nonzero;stroke:none;stroke-width:2;marker:none;enable-background:accumulate"
         id="rect96x96"
         width="96"
         height="96"
         x="288"
         y="28"
         inkscape:label="96x96" />
    </g>
    <g
       inkscape:groupmode="layer"
       id="layer4"
       inkscape:label="Shadow"
       style="display:inline"
       sodipodi:insensitive="true">
      <rect
         ry="50"
         y="47"
         x="34"
         height="220"
         width="220"
         id="rect4114"
         style="opacity:0.15;color:#bebebe;fill:#000000;fill-opacity:1;fill-rule:nonzero;stroke:none;stroke-width:0;marker:none;visibility:visible;display:inline;overflow:visible;enable-background:accumulate" />
      <rect
         style="opacity:0.15;color:#bebebe;fill:#000000;fill-opacity:1;fill-rule:nonzero;stroke:none;stroke-width:0;marker:none;visibility:visible;display:inline;overflow:visible;enable-background:accumulate"
         id="rect4120"
         width="30"
         height="30"
         x="417"
         y="54"
         ry="7" />
      <rect
         transform="scale(1,-1)"
         ry="9"
         y="-266"
         x="291"
         height="42"
         width="42"
         id="rect4122"
         style="opacity:0.15;color:#bebebe;fill:#000000;fill-opacity:1;fill-rule:nonzero;stroke:none;stroke-width:0;marker:none;visibility:visible;display:inline;overflow:visible;enable-background:accumulate" />
      <rect
         style="opacity:0.15;color:#bebebe;fill:#000000;fill-opacity:1;fill-rule:nonzero;stroke:none;stroke-width:0;marker:none;visibility:visible;display:inline;overflow:visible;enable-background:accumulate"
         id="rect4124"
         width="88"
         height="88"
         x="292"
         y="33"
         ry="18" />
      <rect
         ry="12.5"
         y="143"
         x="290"
         height="60"
         width="60"
         id="rect4126"
         style="opacity:0.15;color:#bebebe;fill:#000000;fill-opacity:1;fill-rule:nonzero;stroke:none;stroke-width:0;marker:none;visibility:visible;display:inline;overflow:visible;enable-background:accumulate" />
      <path
         id="path4268"
         d="m 422,101 c -2.77,0 -5,2.23 -5,5 l 0,12 c 0,2.77 2.23,5 5,5 l 12,0 c 2.77,0 5,-2.23 5,-5 l 0,-12 c 0,-2.77 -2.23,-5 -5,-5 z"
         style="opacity:0.15;color:#bebebe;fill:#000000;fill-opacity:1;fill-rule:nonzero;stroke:none;stroke-width:0;marker:none;visibility:visible;display:inline;overflow:visible;enable-background:accumulate"
         inkscape:connector-curvature="0"
         sodipodi:nodetypes="sssssssss" />
      <path
         id="path4270"
         d="m 419,140 c -1.662,0 -3,1.338 -3,3 l 0,10 c 0,1.662 1.338,3 3,3 l 10,0 c 1.662,0 3,-1.338 3,-3 l 0,-10 c 0,-1.662 -1.338,-3 -3,-3 z"
         style="opacity:0.15;color:#bebebe;fill:#000000;fill-opacity:1;fill-rule:nonzero;stroke:none;stroke-width:0;marker:none;visibility:visible;display:inline;overflow:visible;enable-background:accumulate"
         inkscape:connector-curvature="0"
         sodipodi:nodetypes="sssssssss" />
    </g>
    <g
       inkscape:groupmode="layer"
       id="layer2"
       inkscape:label="Background"
       style="display:inline">
      <path
         style="color:#bebebe;display:inline;overflow:visible;visibility:visible;fill:url(#linearGradient4254);fill-opacity:1;fill-rule:nonzero;stroke:none;stroke-width:2;marker:none;enable-background:accumulate"
         d="M 84,46.5 C 56.568735,46.5 34.5,68.568732 34.5,96 l 0,120 c 0,27.43127 22.068735,49.5 49.5,49.5 l 120,0 c 27.43127,0 49.5,-22.06873 49.5,-49.5 l 0,-120 C 253.5,68.568732 231.43127,46.5 204,46.5 l -120,0 z"
         id="path4200"
         inkscape:connector-curvature="0" />
      <path
         style="color:#bebebe;display:inline;overflow:visible;visibility:visible;fill:url(#linearGradient4256);fill-opacity:1;fill-rule:nonzero;stroke:none;stroke-width:2;marker:none;enable-background:accumulate"
         d="m 419,140.5 c -1.3844,0 -2.5,1.1156 -2.5,2.5 l 0,10 c 0,1.3844 1.1156,2.5 2.5,2.5 l 10,0 c 1.3844,0 2.5,-1.1156 2.5,-2.5 l 0,-10 c 0,-1.3844 -1.1156,-2.5 -2.5,-2.5 l -10,0 z"
         id="path4202"
         inkscape:connector-curvature="0" />
      <path
         style="color:#bebebe;display:inline;overflow:visible;visibility:visible;fill:url(#linearGradient4258);fill-opacity:1;fill-rule:nonzero;stroke:none;stroke-width:2;marker:none;enable-background:accumulate"
         d="m 422,101.5 c -2.49699,0 -4.5,2.00301 -4.5,4.5 l 0,12 c 0,2.49699 2.00301,4.5 4.5,4.5 l 12,0 c 2.49699,0 4.5,-2.00301 4.5,-4.5 l 0,-12 c 0,-2.49699 -2.00301,-4.5 -4.5,-4.5 l -12,0 z"
         id="path4204"
         inkscape:connector-curvature="0" />
      <path
         style="color:#bebebe;display:inline;overflow:visible;visibility:visible;fill:url(#linearGradient4260);fill-opacity:1;fill-rule:nonzero;stroke:none;stroke-width:2;marker:none;enable-background:accumulate"
         d="m 424,53.5 c -3.60654,0 -6.5,2.893464 -6.5,6.5 l 0,16 c 0,3.606536 2.89346,6.5 6.5,6.5 l 16,0 c 3.60654,0 6.5,-2.893464 6.5,-6.5 l 0,-16 c 0,-3.606536 -2.89346,-6.5 -6.5,-6.5 l -16,0 z"
         id="path4206"
         inkscape:connector-curvature="0" />
      <path
         style="color:#bebebe;display:inline;overflow:visible;visibility:visible;fill:url(#linearGradient3998);fill-opacity:1;fill-rule:nonzero;stroke:none;stroke-width:2;marker:none;enable-background:accumulate"
         d="m 300,223.5 c -4.71531,0 -8.5,3.78469 -8.5,8.5 l 0,24 c 0,4.71531 3.78469,8.5 8.5,8.5 l 24,0 c 4.71531,0 8.5,-3.78469 8.5,-8.5 l 0,-24 c 0,-4.71531 -3.78469,-8.5 -8.5,-8.5 l -24,0 z"
         id="path4208"
         inkscape:connector-curvature="0" />
      <path
         style="color:#bebebe;display:inline;overflow:visible;visibility:visible;fill:url(#linearGradient4000);fill-opacity:1;fill-rule:nonzero;stroke:none;stroke-width:2;marker:none;enable-background:accumulate"
         d="m 310,32.5 c -9.70255,0 -17.5,7.797452 -17.5,17.5 l 0,52 c 0,9.70255 7.79745,17.5 17.5,17.5 l 52,0 c 9.70255,0 17.5,-7.79745 17.5,-17.5 l 0,-52 c 0,-9.702548 -7.79745,-17.5 -17.5,-17.5 l -52,0 z"
         id="path4210"
         inkscape:connector-curvature="0" />
      <path
         style="color:#bebebe;display:inline;overflow:visible;visibility:visible;fill:url(#linearGradient4002);fill-opacity:1;fill-rule:nonzero;stroke:none;stroke-width:2;marker:none;enable-background:accumulate"
         d="m 302.5,142.5 c -6.65502,0 -12,5.34498 -12,12 l 0,35 c 0,6.65502 5.34498,12 12,12 l 35,0 c 6.65502,0 12,-5.34498 12,-12 l 0,-35 c 0,-6.65502 -5.34498,-12 -12,-12 l -35,0 z"
         id="path4212"
         inkscape:connector-curvature="0" />
    </g>
    <g
       inkscape:groupmode="layer"
       id="layer6"
       inkscape:label="Symbols"
       style="display:inline">
      <path
         inkscape:connector-curvature="0"
         id="path4405"
         d="m 130.50825,85.699136 c -22.0726,-0.05666 -45.199774,8.143467 -61.508265,22.654574 2.954588,30.18296 22.900824,46.58751 46.008755,59.02149 -1.4768,6.79657 -0.40412,13.6372 2.44226,19.74805 l -11.0029,17.29302 c 2.9117,3.79854 6.14543,6.72051 9.76907,9.76907 l 13.02543,-11.39725 c 5.03101,3.37255 11.82241,6.97646 17.90998,8.1409 l 1.62817,17.90997 c 1.918,0.18332 4.56851,0 6.53177,0 2.77168,0 5.44352,0.36233 8.12185,0 l 3.21181,-18.72407 c 5.77993,-1.51153 11.61103,-3.80225 16.32633,-7.3268 l 14.65361,11.39725 c 3.59317,-3.21243 6.93109,-9.05756 9.76907,-13.02543 L 195.99795,186.5063 c 2.72895,-4.95266 5.55433,-10.43702 6.51271,-16.28179 l 16.28179,-3.25636 c 0.14914,-1.86475 0.0381,-2.88409 0.0381,-4.78912 0,-3.31051 0.40555,-6.68269 -0.0381,-9.86448 l -16.28179,-3.25636 c -0.24651,-0.95607 -0.3918,-1.9277 -0.54697,-2.89383 -0.14002,-1.11163 -0.31033,-2.21543 -0.50881,-3.31361 -0.35084,-2.64201 -0.75954,-5.21639 -1.85078,-7.54302 -0.18203,-0.588 -0.35482,-1.17955 -0.55332,-1.76176 l 11.60078,-17.05137 -9.76908,-11.39724 -13.01273,8.13454 C 177.45647,99.976575 162.39659,90.24918 145.52439,87.085628 c -4.88453,-0.915851 -9.92247,-1.373434 -15.01614,-1.386492 z"
         style="color:#000000;display:inline;overflow:visible;visibility:visible;opacity:0.2;fill:#000000;fill-opacity:1;fill-rule:nonzero;stroke:none;stroke-width:1;stroke-linecap:butt;stroke-linejoin:miter;stroke-miterlimit:4;stroke-dasharray:none;stroke-dashoffset:0;stroke-opacity:1;marker:none;marker-start:none;marker-mid:none;marker-end:none" />
      <path
         style="color:#000000;display:inline;overflow:visible;visibility:visible;fill:url(#linearGradient4272);fill-opacity:1;fill-rule:nonzero;stroke:none;stroke-width:1;stroke-linecap:butt;stroke-linejoin:miter;stroke-miterlimit:4;stroke-dasharray:none;stroke-dashoffset:0;stroke-opacity:1;marker:none;marker-start:none;marker-mid:none;marker-end:none"
         d="m 130.50825,84.699248 c -22.0726,-0.05666 -45.199774,8.143467 -61.508265,22.654572 2.954588,30.18296 22.900824,46.58751 46.008755,59.02149 -1.4768,6.79657 -0.40412,13.6372 2.44226,19.74805 l -11.0029,17.29302 c 2.9117,3.79854 6.14543,6.72051 9.76907,9.76907 L 129.2426,201.7882 c 5.03101,3.37255 11.82241,6.97646 17.90998,8.1409 l 1.62817,17.90997 c 1.918,0.18332 4.56851,0 6.53177,0 2.77168,0 5.44352,0.36233 8.12185,0 l 3.21181,-18.72407 c 5.77993,-1.51153 11.61103,-3.80225 16.32633,-7.3268 l 14.65361,11.39725 c 3.59317,-3.21243 6.93109,-9.05756 9.76907,-13.02543 l -11.39724,-14.65361 c 2.72895,-4.95266 5.55433,-10.43702 6.51271,-16.28179 l 16.28179,-3.25636 c 0.14914,-1.86475 0.0381,-2.88409 0.0381,-4.78912 0,-3.31051 0.40555,-6.68269 -0.0381,-9.86448 l -16.28179,-3.25636 c -0.24651,-0.95607 -0.3918,-1.9277 -0.54697,-2.89383 -0.14002,-1.11163 -0.31033,-2.21543 -0.50881,-3.31361 -0.35084,-2.64201 -0.75954,-5.21639 -1.85078,-7.54302 -0.18203,-0.588 -0.35482,-1.17955 -0.55332,-1.76176 l 11.60078,-17.05137 -9.76908,-11.39724 -13.01273,8.13454 C 177.45647,98.976687 162.39659,89.249292 145.52439,86.08574 c -4.88453,-0.915851 -9.92247,-1.373434 -15.01614,-1.386492 z"
         id="path2424"
         inkscape:connector-curvature="0" />
      <g
         transform="matrix(0.90733,0,0,0.926893,-288.84242,194.00676)"
         id="g2375" />
      <path
         inkscape:connector-curvature="0"
         id="path4407"
         d="m 330.87313,50.545678 c -8.38759,-0.02153 -17.17591,3.094517 -23.37314,8.608738 1.12274,11.469523 8.70231,17.703251 17.48333,22.428162 -0.56119,2.582696 -0.15357,5.182135 0.92805,7.504259 l -4.1811,6.571346 c 1.10645,1.443445 2.33527,2.553794 3.71225,3.712246 l 4.94966,-4.330954 c 1.91179,1.281569 4.49252,2.651054 6.80579,3.093542 l 0.61871,6.805783 c 0.72884,0.0697 1.73603,0 2.48207,0 1.05324,0 2.06854,0.13769 3.0863,0 l 1.22049,-7.115141 c 2.19637,-0.574382 4.41219,-1.444855 6.204,-2.784184 l 5.56837,4.330954 c 1.36541,-1.220723 2.63382,-3.441872 3.71225,-4.949662 l -4.33095,-5.568371 c 1.037,-1.882011 2.11064,-3.966068 2.47483,-6.18708 l 6.18708,-1.237417 c 0.0567,-0.708605 0.0145,-1.095954 0.0145,-1.819865 0,-1.257994 0.15411,-2.539422 -0.0145,-3.748502 l -6.18708,-1.237416 c -0.0937,-0.363307 -0.14889,-0.732526 -0.20785,-1.099656 -0.0532,-0.422419 -0.11793,-0.841863 -0.19335,-1.259171 -0.13332,-1.003964 -0.28863,-1.982228 -0.7033,-2.866347 -0.0692,-0.22344 -0.13482,-0.448229 -0.21026,-0.669469 l 4.4083,-6.47952 -3.71225,-4.33095 -4.94483,3.091125 c -3.95705,-5.037024 -9.6798,-8.733434 -16.09124,-9.935583 -1.85612,-0.348024 -3.77054,-0.521905 -5.70613,-0.526867 z"
         style="color:#000000;display:inline;overflow:visible;visibility:visible;opacity:0.2;fill:#000000;fill-opacity:1;fill-rule:nonzero;stroke:none;stroke-width:1;stroke-linecap:butt;stroke-linejoin:miter;stroke-miterlimit:4;stroke-dasharray:none;stroke-dashoffset:0;stroke-opacity:1;marker:none;marker-start:none;marker-mid:none;marker-end:none;enable-background:new" />
      <path
         style="color:#000000;display:inline;overflow:visible;visibility:visible;fill:url(#linearGradient4272-6);fill-opacity:1;fill-rule:nonzero;stroke:none;stroke-width:1;stroke-linecap:butt;stroke-linejoin:miter;stroke-miterlimit:4;stroke-dasharray:none;stroke-dashoffset:0;stroke-opacity:1;marker:none;marker-start:none;marker-mid:none;marker-end:none;enable-background:new"
         d="m 330.87313,49.54579 c -8.38759,-0.02153 -17.17591,3.094517 -23.37314,8.608738 1.12274,11.469523 8.70231,17.703251 17.48333,22.428162 -0.56119,2.582696 -0.15357,5.182135 0.92805,7.504259 l -4.1811,6.571346 c 1.10645,1.443445 2.33527,2.553794 3.71225,3.712246 l 4.94966,-4.330954 c 1.91179,1.281569 4.49252,2.651054 6.80579,3.093542 l 0.61871,6.805781 c 0.72884,0.0697 1.73603,0 2.48207,0 1.05324,0 2.06854,0.13769 3.0863,0 l 1.22049,-7.115139 c 2.19637,-0.574382 4.41219,-1.444855 6.204,-2.784184 l 5.56837,4.330954 c 1.36541,-1.220723 2.63382,-3.441872 3.71225,-4.949662 l -4.33095,-5.568371 c 1.037,-1.882011 2.11064,-3.966068 2.47483,-6.18708 l 6.18708,-1.237417 c 0.0567,-0.708605 0.0145,-1.095954 0.0145,-1.819865 0,-1.257994 0.15411,-2.539422 -0.0145,-3.748502 l -6.18708,-1.237416 c -0.0937,-0.363307 -0.14889,-0.732526 -0.20785,-1.099656 -0.0532,-0.422419 -0.11793,-0.841863 -0.19335,-1.259171 -0.13332,-1.003964 -0.28863,-1.982228 -0.7033,-2.866347 -0.0692,-0.22344 -0.13482,-0.448229 -0.21026,-0.669469 l 4.4083,-6.47952 -3.71225,-4.33095 -4.94483,3.091125 c -3.95705,-5.037024 -9.6798,-8.733434 -16.09124,-9.935583 -1.85612,-0.348024 -3.77054,-0.521905 -5.70613,-0.526867 z"
         id="path2424-9"
         inkscape:connector-curvature="0" />
      <path
         inkscape:connector-curvature="0"
         id="path4409"
         d="m 316.42232,153.99996 c -5.85312,-0.015 -11.98589,2.15945 -16.31051,6.00744 0.78348,8.0038 6.07274,12.35389 12.20041,15.65108 -0.39161,1.80228 -0.10716,3.61625 0.64763,5.23671 l -2.91771,4.58568 c 0.77212,1.00729 1.62963,1.78213 2.59053,2.59053 l 3.45403,-3.02228 c 1.3341,0.89432 3.13502,1.84999 4.74929,2.15878 l 0.43175,4.74928 c 0.50861,0.0486 1.21146,0 1.73207,0 0.73498,0 1.44349,0.0961 2.15372,0 l 0.85169,-4.96517 c 1.5327,-0.40082 3.07897,-1.00826 4.32935,-1.94289 l 3.88578,3.02228 c 0.95283,-0.85186 1.83796,-2.40185 2.59052,-3.45403 l -3.02227,-3.88579 c 0.72365,-1.31332 1.47287,-2.76764 1.72702,-4.31754 l 4.31753,-0.8635 c 0.0396,-0.49449 0.0101,-0.76479 0.0101,-1.26996 0,-0.87787 0.10754,-1.77209 -0.0101,-2.61582 l -4.31753,-0.86351 c -0.0654,-0.25352 -0.1039,-0.51118 -0.14505,-0.76737 -0.0371,-0.29478 -0.0823,-0.58748 -0.13492,-0.87869 -0.093,-0.7006 -0.20142,-1.38326 -0.49079,-2.00023 -0.0483,-0.15592 -0.0941,-0.31279 -0.14673,-0.46718 l 3.07625,-4.52161 -2.59052,-3.02227 -3.45066,2.15709 c -2.76135,-3.515 -6.75486,-6.09447 -11.22897,-6.93337 -1.29526,-0.24286 -2.6312,-0.3642 -3.98191,-0.36766 z"
         style="color:#000000;display:inline;overflow:visible;visibility:visible;opacity:0.2;fill:#000000;fill-opacity:1;fill-rule:nonzero;stroke:none;stroke-width:1;stroke-linecap:butt;stroke-linejoin:miter;stroke-miterlimit:4;stroke-dasharray:none;stroke-dashoffset:0;stroke-opacity:1;marker:none;marker-start:none;marker-mid:none;marker-end:none;enable-background:new" />
      <path
         style="color:#000000;display:inline;overflow:visible;visibility:visible;fill:url(#linearGradient4272-6-4);fill-opacity:1;fill-rule:nonzero;stroke:none;stroke-width:1;stroke-linecap:butt;stroke-linejoin:miter;stroke-miterlimit:4;stroke-dasharray:none;stroke-dashoffset:0;stroke-opacity:1;marker:none;marker-start:none;marker-mid:none;marker-end:none;enable-background:new"
         d="m 316.42232,153.00007 c -5.85312,-0.015 -11.98589,2.15945 -16.31051,6.00744 0.78348,8.0038 6.07274,12.35389 12.20041,15.65108 -0.39161,1.80228 -0.10716,3.61625 0.64763,5.23671 l -2.91771,4.58568 c 0.77212,1.00729 1.62963,1.78213 2.59053,2.59053 l 3.45403,-3.02228 c 1.3341,0.89432 3.13502,1.84999 4.74929,2.15878 l 0.43175,4.74928 c 0.50861,0.0486 1.21146,0 1.73207,0 0.73498,0 1.44349,0.0961 2.15372,0 l 0.85169,-4.96517 c 1.5327,-0.40082 3.07897,-1.00826 4.32935,-1.94289 l 3.88578,3.02228 c 0.95283,-0.85186 1.83796,-2.40185 2.59052,-3.45403 l -3.02227,-3.88579 c 0.72365,-1.31332 1.47287,-2.76764 1.72702,-4.31754 l 4.31753,-0.8635 c 0.0396,-0.49449 0.0101,-0.76479 0.0101,-1.26996 0,-0.87787 0.10754,-1.77209 -0.0101,-2.61582 l -4.31753,-0.86351 c -0.0654,-0.25352 -0.1039,-0.51118 -0.14505,-0.76737 -0.0371,-0.29478 -0.0823,-0.58748 -0.13492,-0.87869 -0.093,-0.7006 -0.20142,-1.38326 -0.49079,-2.00023 -0.0483,-0.15592 -0.0941,-0.31279 -0.14673,-0.46718 l 3.07625,-4.52161 -2.59052,-3.02227 -3.45066,2.15709 c -2.76135,-3.515 -6.75486,-6.09447 -11.22897,-6.93337 -1.29526,-0.24286 -2.6312,-0.3642 -3.98191,-0.36766 z"
         id="path2424-9-4"
         inkscape:connector-curvature="0" />
      <path
         inkscape:connector-curvature="0"
         id="path4411"
         d="m 309.30152,231.33984 c -4.41452,-0.0113 -9.03996,1.62869 -12.30165,4.53091 0.59092,6.03658 4.58016,9.3175 9.20174,11.80429 -0.29536,1.35931 -0.0808,2.72743 0.48846,3.94961 l -2.20059,3.4586 c 0.58235,0.75971 1.22909,1.3441 1.95382,1.95381 l 2.60508,-2.27945 c 1.00621,0.67451 2.36449,1.39529 3.582,1.62818 l 0.32563,3.58199 c 0.3836,0.0367 0.9137,0 1.30635,0 0.55434,0 1.08871,0.0725 1.62437,0 l 0.64236,-3.74481 c 1.15599,-0.30231 2.32221,-0.76044 3.26527,-1.46536 l 2.93072,2.27945 c 0.71863,-0.64249 1.38621,-1.81152 1.95381,-2.60508 l -2.27945,-2.93073 c 0.54579,-0.99052 1.11087,-2.0874 1.30255,-3.25636 l 3.25635,-0.65126 c 0.0299,-0.37295 0.008,-0.57682 0.008,-0.95783 0,-0.6621 0.0811,-1.33653 -0.008,-1.97289 l -3.25635,-0.65127 c -0.0493,-0.19121 -0.0783,-0.38554 -0.1094,-0.57876 -0.028,-0.22233 -0.0621,-0.44309 -0.10176,-0.66273 -0.0701,-0.5284 -0.15191,-1.04327 -0.37016,-1.5086 -0.0364,-0.1176 -0.071,-0.23591 -0.11066,-0.35236 l 2.32014,-3.41026 -1.9538,-2.27945 -2.60255,1.62691 c -2.08265,-2.65107 -5.09462,-4.59654 -8.46906,-5.22926 -0.97691,-0.18316 -1.98449,-0.27469 -3.00322,-0.27729 z"
         style="color:#000000;display:inline;overflow:visible;visibility:visible;opacity:0.2;fill:#000000;fill-opacity:1;fill-rule:nonzero;stroke:none;stroke-width:1;stroke-linecap:butt;stroke-linejoin:miter;stroke-miterlimit:4;stroke-dasharray:none;stroke-dashoffset:0;stroke-opacity:1;marker:none;marker-start:none;marker-mid:none;marker-end:none;enable-background:new" />
      <path
         style="color:#000000;display:inline;overflow:visible;visibility:visible;fill:url(#linearGradient4272-6-4-2);fill-opacity:1;fill-rule:nonzero;stroke:none;stroke-width:1;stroke-linecap:butt;stroke-linejoin:miter;stroke-miterlimit:4;stroke-dasharray:none;stroke-dashoffset:0;stroke-opacity:1;marker:none;marker-start:none;marker-mid:none;marker-end:none;enable-background:new"
         d="m 309.30152,230.33995 c -4.41452,-0.0113 -9.03996,1.62869 -12.30165,4.53091 0.59092,6.03658 4.58016,9.3175 9.20174,11.80429 -0.29536,1.35931 -0.0808,2.72743 0.48846,3.94961 l -2.20059,3.4586 c 0.58235,0.75971 1.22909,1.3441 1.95382,1.95381 l 2.60508,-2.27945 c 1.00621,0.67451 2.36449,1.39529 3.582,1.62818 l 0.32563,3.58199 c 0.3836,0.0367 0.9137,0 1.30635,0 0.55434,0 1.08871,0.0725 1.62437,0 l 0.64236,-3.74481 c 1.15599,-0.30231 2.32221,-0.76044 3.26527,-1.46536 l 2.93072,2.27945 c 0.71863,-0.64249 1.38621,-1.81152 1.95381,-2.60508 l -2.27945,-2.93073 c 0.54579,-0.99052 1.11087,-2.0874 1.30255,-3.25636 l 3.25635,-0.65126 c 0.0299,-0.37295 0.008,-0.57682 0.008,-0.95783 0,-0.6621 0.0811,-1.33653 -0.008,-1.97289 l -3.25635,-0.65127 c -0.0493,-0.19121 -0.0783,-0.38554 -0.1094,-0.57876 -0.028,-0.22233 -0.0621,-0.44309 -0.10176,-0.66273 -0.0701,-0.5284 -0.15191,-1.04327 -0.37016,-1.5086 -0.0364,-0.1176 -0.071,-0.23591 -0.11066,-0.35236 l 2.32014,-3.41026 -1.9538,-2.27945 -2.60255,1.62691 c -2.08265,-2.65107 -5.09462,-4.59654 -8.46906,-5.22926 -0.97691,-0.18316 -1.98449,-0.27469 -3.00322,-0.27729 z"
         id="path2424-9-4-0"
         inkscape:connector-curvature="0" />
      <path
         inkscape:connector-curvature="0"
         id="path4413"
         d="m 430.20113,60.893223 c -2.94301,-0.0075 -6.02664,1.085795 -8.2011,3.020608 0.39394,4.02439 3.05344,6.211667 6.1345,7.869527 -0.19691,0.906204 -0.0539,1.818286 0.32563,2.633071 l -1.46706,2.305733 c 0.38823,0.506477 0.8194,0.896071 1.30255,1.302543 l 1.73672,-1.519635 c 0.6708,0.449672 1.57633,0.930196 2.388,1.085458 l 0.21709,2.387988 c 0.25573,0.02446 0.60913,0 0.8709,0 0.36956,0 0.7258,0.04834 1.08291,0 l 0.42824,-2.49654 c 0.77066,-0.201539 1.54814,-0.506961 2.17685,-0.976906 l 1.95381,1.519635 c 0.47909,-0.428324 0.92414,-1.207678 1.30254,-1.73672 l -1.51963,-1.953818 c 0.36386,-0.66035 0.74058,-1.391599 0.86836,-2.170909 l 2.1709,-0.434176 c 0.0199,-0.248631 0.005,-0.384544 0.005,-0.63855 0,-0.441399 0.0541,-0.89102 -0.005,-1.315262 l -2.1709,-0.434176 c -0.0329,-0.127475 -0.0522,-0.257032 -0.0729,-0.385843 -0.0187,-0.148218 -0.0414,-0.295391 -0.0678,-0.44182 -0.0467,-0.352266 -0.10127,-0.695513 -0.24677,-1.005731 -0.0243,-0.0784 -0.0473,-0.157275 -0.0738,-0.234906 l 1.54677,-2.273512 -1.30254,-1.519628 -1.73503,1.084605 c -1.38844,-1.76738 -3.39642,-3.064363 -5.64604,-3.486171 -0.65128,-0.122112 -1.323,-0.183126 -2.00215,-0.184865 z"
         style="color:#000000;display:inline;overflow:visible;visibility:visible;opacity:0.2;fill:#000000;fill-opacity:1;fill-rule:nonzero;stroke:none;stroke-width:1;stroke-linecap:butt;stroke-linejoin:miter;stroke-miterlimit:4;stroke-dasharray:none;stroke-dashoffset:0;stroke-opacity:1;marker:none;marker-start:none;marker-mid:none;marker-end:none;enable-background:new" />
      <path
         style="color:#000000;display:inline;overflow:visible;visibility:visible;fill:url(#linearGradient4272-6-4-2-1);fill-opacity:1;fill-rule:nonzero;stroke:none;stroke-width:1;stroke-linecap:butt;stroke-linejoin:miter;stroke-miterlimit:4;stroke-dasharray:none;stroke-dashoffset:0;stroke-opacity:1;marker:none;marker-start:none;marker-mid:none;marker-end:none;enable-background:new"
         d="m 430.20113,59.893335 c -2.94301,-0.0075 -6.02664,1.085795 -8.2011,3.020608 0.39394,4.02439 3.05344,6.211667 6.1345,7.869527 -0.19691,0.906204 -0.0539,1.818286 0.32563,2.633071 l -1.46706,2.305733 c 0.38823,0.506477 0.8194,0.896071 1.30255,1.302543 l 1.73672,-1.519635 c 0.6708,0.449672 1.57633,0.930196 2.388,1.085458 l 0.21709,2.387988 c 0.25573,0.02446 0.60913,0 0.8709,0 0.36956,0 0.7258,0.04834 1.08291,0 l 0.42824,-2.49654 c 0.77066,-0.201539 1.54814,-0.506961 2.17685,-0.976906 l 1.95381,1.519635 c 0.47909,-0.428324 0.92414,-1.207678 1.30254,-1.73672 l -1.51963,-1.953818 c 0.36386,-0.66035 0.74058,-1.391599 0.86836,-2.170909 l 2.1709,-0.434176 c 0.0199,-0.248631 0.005,-0.384544 0.005,-0.63855 0,-0.441399 0.0541,-0.89102 -0.005,-1.315262 l -2.1709,-0.434176 c -0.0329,-0.127475 -0.0522,-0.257032 -0.0729,-0.385843 -0.0187,-0.148218 -0.0414,-0.295391 -0.0678,-0.44182 -0.0467,-0.352266 -0.10127,-0.695513 -0.24677,-1.005731 -0.0243,-0.0784 -0.0473,-0.157275 -0.0738,-0.234906 l 1.54677,-2.273512 -1.30254,-1.519628 -1.73503,1.084605 c -1.38844,-1.76738 -3.39642,-3.064363 -5.64604,-3.486171 -0.65128,-0.122112 -1.323,-0.183126 -2.00215,-0.184865 z"
         id="path2424-9-4-0-0"
         inkscape:connector-curvature="0" />
      <path
         inkscape:connector-curvature="0"
         id="path4415"
         d="m 426.65074,105.66989 c -2.20726,-0.005 -4.51999,0.81435 -6.15084,2.26546 0.29546,3.0183 2.29009,4.65877 4.60089,5.90217 -0.14768,0.67965 -0.0404,1.36371 0.24422,1.97481 l -1.1003,1.7293 c 0.29118,0.37986 0.61456,0.67205 0.97692,0.97691 l 1.30254,-1.13973 c 0.50311,0.33725 1.18225,0.69765 1.79101,0.8141 l 0.16282,1.791 c 0.1918,0.0184 0.45685,0 0.65317,0 0.27717,0 0.54436,0.0362 0.81219,0 l 0.32118,-1.87241 c 0.578,-0.15116 1.16111,-0.38023 1.63264,-0.73269 l 1.46536,1.13973 c 0.35932,-0.32124 0.69311,-0.90576 0.97691,-1.30254 l -1.13972,-1.46537 c 0.27289,-0.49526 0.55543,-1.0437 0.65127,-1.62819 l 1.62818,-0.32563 c 0.0149,-0.18648 0.004,-0.28841 0.004,-0.47892 0,-0.33105 0.0406,-0.66826 -0.004,-0.98644 l -1.62818,-0.32564 c -0.0247,-0.0956 -0.0392,-0.19277 -0.0547,-0.28938 -0.014,-0.11117 -0.031,-0.22154 -0.0508,-0.33137 -0.035,-0.26419 -0.0759,-0.52163 -0.18507,-0.7543 -0.0182,-0.0588 -0.0355,-0.11795 -0.0554,-0.17618 l 1.16009,-1.70514 -0.97691,-1.13972 -1.30128,0.81346 c -1.04133,-1.32554 -2.54732,-2.29828 -4.23454,-2.61464 -0.48846,-0.0916 -0.99225,-0.13735 -1.50162,-0.13865 z"
         style="color:#000000;display:inline;overflow:visible;visibility:visible;opacity:0.2;fill:#000000;fill-opacity:1;fill-rule:nonzero;stroke:none;stroke-width:1;stroke-linecap:butt;stroke-linejoin:miter;stroke-miterlimit:4;stroke-dasharray:none;stroke-dashoffset:0;stroke-opacity:1;marker:none;marker-start:none;marker-mid:none;marker-end:none;enable-background:new" />
      <path
         style="color:#000000;display:inline;overflow:visible;visibility:visible;fill:url(#linearGradient4272-6-4-2-1-3);fill-opacity:1;fill-rule:nonzero;stroke:none;stroke-width:1;stroke-linecap:butt;stroke-linejoin:miter;stroke-miterlimit:4;stroke-dasharray:none;stroke-dashoffset:0;stroke-opacity:1;marker:none;marker-start:none;marker-mid:none;marker-end:none;enable-background:new"
         d="m 426.65074,104.67 c -2.20726,-0.005 -4.51999,0.81435 -6.15084,2.26546 0.29546,3.0183 2.29009,4.65877 4.60089,5.90217 -0.14768,0.67965 -0.0404,1.36371 0.24422,1.97481 l -1.1003,1.7293 c 0.29118,0.37986 0.61456,0.67205 0.97692,0.97691 l 1.30254,-1.13973 c 0.50311,0.33725 1.18225,0.69765 1.79101,0.8141 l 0.16282,1.791 c 0.1918,0.0184 0.45685,0 0.65317,0 0.27717,0 0.54436,0.0362 0.81219,0 l 0.32118,-1.87241 c 0.578,-0.15116 1.16111,-0.38023 1.63264,-0.73269 l 1.46536,1.13973 c 0.35932,-0.32124 0.69311,-0.90576 0.97691,-1.30254 l -1.13972,-1.46537 c 0.27289,-0.49526 0.55543,-1.0437 0.65127,-1.62819 l 1.62818,-0.32563 c 0.0149,-0.18648 0.004,-0.28841 0.004,-0.47892 0,-0.33105 0.0406,-0.66826 -0.004,-0.98644 l -1.62818,-0.32564 c -0.0247,-0.0956 -0.0392,-0.19277 -0.0547,-0.28938 -0.014,-0.11117 -0.031,-0.22154 -0.0508,-0.33137 -0.035,-0.26419 -0.0759,-0.52163 -0.18507,-0.7543 -0.0182,-0.0588 -0.0355,-0.11795 -0.0554,-0.17618 l 1.16009,-1.70514 -0.97691,-1.13972 -1.30128,0.81346 c -1.04133,-1.32554 -2.54732,-2.29828 -4.23454,-2.61464 -0.48846,-0.0916 -0.99225,-0.13735 -1.50162,-0.13865 z"
         id="path2424-9-4-0-0-5"
         inkscape:connector-curvature="0" />
      <path
         inkscape:connector-curvature="0"
         id="path4417"
         d="m 423.01052,143.49124 c -1.61866,-0.004 -3.31466,0.59718 -4.51062,1.66134 0.21667,2.21342 1.6794,3.41642 3.37399,4.32825 -0.10831,0.49842 -0.0297,1.00006 0.17909,1.44819 l -0.80688,1.26816 c 0.21352,0.27856 0.45067,0.49284 0.7164,0.7164 l 0.9552,-0.8358 c 0.36894,0.24732 0.86698,0.51161 1.3134,0.597 l 0.1194,1.3134 c 0.14066,0.0135 0.33503,0 0.479,0 0.20326,0 0.39919,0.0266 0.5956,0 l 0.23554,-1.3731 c 0.42386,-0.11085 0.85148,-0.27883 1.19727,-0.5373 l 1.0746,0.8358 c 0.2635,-0.23558 0.50827,-0.66422 0.7164,-0.9552 l -0.8358,-1.0746 c 0.20012,-0.3632 0.40732,-0.76538 0.4776,-1.19401 l 1.19399,-0.23879 c 0.011,-0.13675 0.003,-0.2115 0.003,-0.3512 0,-0.24277 0.0298,-0.49007 -0.003,-0.7234 l -1.19399,-0.2388 c -0.0181,-0.0701 -0.0287,-0.14137 -0.0401,-0.21221 -0.0103,-0.0815 -0.0228,-0.16247 -0.0373,-0.243 -0.0257,-0.19375 -0.0557,-0.38254 -0.13572,-0.55316 -0.0134,-0.0431 -0.026,-0.0865 -0.0406,-0.1292 l 0.85072,-1.25043 -0.7164,-0.8358 -0.95427,0.59653 c -0.76364,-0.97206 -1.86803,-1.6854 -3.10533,-1.9174 -0.3582,-0.0672 -0.72765,-0.10071 -1.10118,-0.10167 z"
         style="color:#000000;display:inline;overflow:visible;visibility:visible;opacity:0.2;fill:#000000;fill-opacity:1;fill-rule:nonzero;stroke:none;stroke-width:1;stroke-linecap:butt;stroke-linejoin:miter;stroke-miterlimit:4;stroke-dasharray:none;stroke-dashoffset:0;stroke-opacity:1;marker:none;marker-start:none;marker-mid:none;marker-end:none;enable-background:new" />
      <path
         style="color:#000000;display:inline;overflow:visible;visibility:visible;fill:url(#linearGradient4272-6-4-2-1-8);fill-opacity:1;fill-rule:nonzero;stroke:none;stroke-width:1;stroke-linecap:butt;stroke-linejoin:miter;stroke-miterlimit:4;stroke-dasharray:none;stroke-dashoffset:0;stroke-opacity:1;marker:none;marker-start:none;marker-mid:none;marker-end:none;enable-background:new"
         d="m 423.01052,142.49135 c -1.61866,-0.004 -3.31466,0.59718 -4.51062,1.66134 0.21667,2.21342 1.6794,3.41642 3.37399,4.32825 -0.10831,0.49842 -0.0297,1.00006 0.17909,1.44819 l -0.80688,1.26816 c 0.21352,0.27856 0.45067,0.49284 0.7164,0.7164 l 0.9552,-0.8358 c 0.36894,0.24732 0.86698,0.51161 1.3134,0.597 l 0.1194,1.3134 c 0.14066,0.0135 0.33503,0 0.479,0 0.20326,0 0.39919,0.0266 0.5956,0 l 0.23554,-1.3731 c 0.42386,-0.11085 0.85148,-0.27883 1.19727,-0.5373 l 1.0746,0.8358 c 0.2635,-0.23558 0.50827,-0.66422 0.7164,-0.9552 l -0.8358,-1.0746 c 0.20012,-0.3632 0.40732,-0.76538 0.4776,-1.19401 l 1.19399,-0.23879 c 0.011,-0.13675 0.003,-0.2115 0.003,-0.3512 0,-0.24277 0.0298,-0.49007 -0.003,-0.7234 l -1.19399,-0.2388 c -0.0181,-0.0701 -0.0287,-0.14137 -0.0401,-0.21221 -0.0103,-0.0815 -0.0228,-0.16247 -0.0373,-0.243 -0.0257,-0.19375 -0.0557,-0.38254 -0.13572,-0.55316 -0.0134,-0.0431 -0.026,-0.0865 -0.0406,-0.1292 l 0.85072,-1.25043 -0.7164,-0.8358 -0.95427,0.59653 c -0.76364,-0.97206 -1.86803,-1.6854 -3.10533,-1.9174 -0.3582,-0.0672 -0.72765,-0.10071 -1.10118,-0.10167 z"
         id="path2424-9-4-0-0-9"
         inkscape:connector-curvature="0" />
    </g>
    <g
       inkscape:groupmode="layer"
       id="layer5"
       inkscape:label="Highlights"
       style="display:inline">
      <path
         style="color:#bebebe;display:inline;overflow:visible;visibility:visible;opacity:0.12999998;fill:#ffffff;fill-opacity:1;fill-rule:nonzero;stroke:none;stroke-width:0;marker:none;enable-background:accumulate"
         d="M 84,47 C 56.836703,47 35,68.836703 35,96 l 0,1 C 35,69.836703 56.836703,48 84,48 l 120,0 c 27.1633,0 49,21.836703 49,49 l 0,-1 C 253,68.836703 231.1633,47 204,47 L 84,47 Z"
         id="rect3894"
         inkscape:connector-curvature="0" />
      <path
         style="color:#bebebe;display:inline;overflow:visible;visibility:visible;opacity:0.12999998;fill:#ffffff;fill-opacity:1;fill-rule:nonzero;stroke:none;stroke-width:0;marker:none;enable-background:accumulate"
         d="m 419,141 c -1.1253,0 -2,0.8747 -2,2 l 0,1 c 0,-1.1253 0.8747,-2 2,-2 l 10,0 c 1.1253,0 2,0.8747 2,2 l 0,-1 c 0,-1.1253 -0.8747,-2 -2,-2 l -10,0 z"
         id="rect3896"
         inkscape:connector-curvature="0" />
      <path
         style="color:#bebebe;display:inline;overflow:visible;visibility:visible;opacity:0.12999998;fill:#ffffff;fill-opacity:1;fill-rule:nonzero;stroke:none;stroke-width:0;marker:none;enable-background:accumulate"
         d="m 422,102 c -2.2333,0 -4,1.7667 -4,4 l 0,1 c 0,-2.2333 1.7667,-4 4,-4 l 12,0 c 2.2333,0 4,1.7667 4,4 l 0,-1 c 0,-2.2333 -1.7667,-4 -4,-4 l -12,0 z"
         id="rect3898"
         inkscape:connector-curvature="0" />
      <path
         style="color:#bebebe;display:inline;overflow:visible;visibility:visible;opacity:0.12999998;fill:#ffffff;fill-opacity:1;fill-rule:nonzero;stroke:none;stroke-width:0;marker:none;enable-background:accumulate"
         d="m 424,54 c -3.3413,0 -6,2.658703 -6,6 l 0,1 c 0,-3.341297 2.6587,-6 6,-6 l 16,0 c 3.3413,0 6,2.658703 6,6 l 0,-1 c 0,-3.341297 -2.6587,-6 -6,-6 l -16,0 z"
         id="rect3900"
         inkscape:connector-curvature="0" />
      <path
         style="color:#bebebe;display:inline;overflow:visible;visibility:visible;opacity:0.12999998;fill:#ffffff;fill-opacity:1;fill-rule:nonzero;stroke:none;stroke-width:0;marker:none;enable-background:accumulate"
         d="m 300,224 c -4.4493,0 -8,3.5507 -8,8 l 0,1 c 0,-4.4493 3.5507,-8 8,-8 l 24,0 c 4.4493,0 8,3.5507 8,8 l 0,-1 c 0,-4.4493 -3.5507,-8 -8,-8 l -24,0 z"
         id="rect3902"
         inkscape:connector-curvature="0" />
      <path
         style="color:#bebebe;display:inline;overflow:visible;visibility:visible;opacity:0.12999998;fill:#ffffff;fill-opacity:1;fill-rule:nonzero;stroke:none;stroke-width:0;marker:none;enable-background:accumulate"
         d="m 310,33 c -9.4353,0 -17,7.564703 -17,17 l 0,1 c 0,-9.435297 7.5647,-17 17,-17 l 52,0 c 9.4353,0 17,7.564703 17,17 l 0,-1 c 0,-9.435297 -7.5647,-17 -17,-17 l -52,0 z"
         id="rect3904"
         inkscape:connector-curvature="0" />
      <path
         style="color:#bebebe;display:inline;overflow:visible;visibility:visible;opacity:0.12999998;fill:#ffffff;fill-opacity:1;fill-rule:nonzero;stroke:none;stroke-width:0;marker:none;enable-background:accumulate"
         d="m 302.5,143 c -6.3883,0 -11.5,5.1117 -11.5,11.5 l 0,1 c 0,-6.3883 5.1117,-11.5 11.5,-11.5 l 35,0 c 6.3883,0 11.5,5.1117 11.5,11.5 l 0,-1 c 0,-6.3883 -5.1117,-11.5 -11.5,-11.5 l -35,0 z"
         id="rect3906"
         inkscape:connector-curvature="0" />
      <path
         id="path4085"
         d="m 204,266 c 27.1633,0 49,-21.8367 49,-49 l 0,-1 c 0,27.1633 -21.8367,49 -49,49 L 84,265 C 56.8367,265 35,243.1633 35,216 l 0,1 c 0,27.1633 21.8367,49 49,49 l 120,0 z"
         style="color:#bebebe;display:inline;overflow:visible;visibility:visible;opacity:0.12999998;fill:#000000;fill-opacity:1;fill-rule:nonzero;stroke:none;stroke-width:0;marker:none;enable-background:accumulate"
         inkscape:connector-curvature="0" />
      <path
         id="path4087"
         d="m 429,156 c 1.1253,0 2,-0.8747 2,-2 l 0,-1 c 0,1.1253 -0.8747,2 -2,2 l -10,0 c -1.1253,0 -2,-0.8747 -2,-2 l 0,1 c 0,1.1253 0.8747,2 2,2 l 10,0 z"
         style="color:#bebebe;display:inline;overflow:visible;visibility:visible;opacity:0.15;fill:#000000;fill-opacity:1;fill-rule:nonzero;stroke:none;stroke-width:0;marker:none;enable-background:accumulate"
         inkscape:connector-curvature="0" />
      <path
         id="path4089"
         d="m 434,123 c 2.2333,0 4,-1.7667 4,-4 l 0,-1 c 0,2.2333 -1.7667,4 -4,4 l -12,0 c -2.2333,0 -4,-1.7667 -4,-4 l 0,1 c 0,2.2333 1.7667,4 4,4 l 12,0 z"
         style="color:#bebebe;display:inline;overflow:visible;visibility:visible;opacity:0.15;fill:#000000;fill-opacity:1;fill-rule:nonzero;stroke:none;stroke-width:0;marker:none;enable-background:accumulate"
         inkscape:connector-curvature="0" />
      <path
         id="path4091"
         d="m 440,83 c 3.3413,0 6,-2.6587 6,-6 l 0,-1 c 0,3.3413 -2.6587,6 -6,6 l -16,0 c -3.3413,0 -6,-2.6587 -6,-6 l 0,1 c 0,3.3413 2.6587,6 6,6 l 16,0 z"
         style="color:#bebebe;display:inline;overflow:visible;visibility:visible;opacity:0.12999998;fill:#000000;fill-opacity:1;fill-rule:nonzero;stroke:none;stroke-width:0;marker:none;enable-background:accumulate"
         inkscape:connector-curvature="0" />
      <path
         id="path4093"
         d="m 324,265 c 4.4493,0 8,-3.5507 8,-8 l 0,-1 c 0,4.4493 -3.5507,8 -8,8 l -24,0 c -4.4493,0 -8,-3.5507 -8,-8 l 0,1 c 0,4.4493 3.5507,8 8,8 l 24,0 z"
         style="color:#bebebe;display:inline;overflow:visible;visibility:visible;opacity:0.12999998;fill:#000000;fill-opacity:1;fill-rule:nonzero;stroke:none;stroke-width:0;marker:none;enable-background:accumulate"
         inkscape:connector-curvature="0" />
      <path
         id="path4095"
         d="m 362,120 c 9.4353,0 17,-7.5647 17,-17 l 0,-1 c 0,9.4353 -7.5647,17 -17,17 l -52,0 c -9.4353,0 -17,-7.5647 -17,-17 l 0,1 c 0,9.4353 7.5647,17 17,17 l 52,0 z"
         style="color:#bebebe;display:inline;overflow:visible;visibility:visible;opacity:0.12999998;fill:#000000;fill-opacity:1;fill-rule:nonzero;stroke:none;stroke-width:0;marker:none;enable-background:accumulate"
         inkscape:connector-curvature="0" />
      <path
         id="path4097"
         d="m 337.5,202 c 6.3883,0 11.5,-5.1117 11.5,-11.5 l 0,-1 c 0,6.3883 -5.1117,11.5 -11.5,11.5 l -35,0 c -6.3883,0 -11.5,-5.1117 -11.5,-11.5 l 0,1 c 0,6.3883 5.1117,11.5 11.5,11.5 l 35,0 z"
         style="color:#bebebe;display:inline;overflow:visible;visibility:visible;opacity:0.12999998;fill:#000000;fill-opacity:1;fill-rule:nonzero;stroke:none;stroke-width:0;marker:none;enable-background:accumulate"
         inkscape:connector-curvature="0" />
      <path
         inkscape:connector-curvature="0"
         id="path4280"
         d="M 84,265 C 56.836703,265 35,243.1633 35,216 l 0,-1 c 0,27.1633 21.836703,49 49,49 l 120,0 c 27.1633,0 49,-21.8367 49,-49 l 0,1 c 0,27.1633 -21.8367,49 -49,49 l -120,0 z"
         style="color:#bebebe;display:inline;overflow:visible;visibility:visible;opacity:0.1;fill:#ffffff;fill-opacity:1;fill-rule:nonzero;stroke:none;stroke-width:0;marker:none;enable-background:accumulate" />
      <path
         style="color:#bebebe;display:inline;overflow:visible;visibility:visible;opacity:0.1;fill:#ffffff;fill-opacity:1;fill-rule:nonzero;stroke:none;stroke-width:0;marker:none;enable-background:accumulate"
         d="m 300,264 c -4.4493,0 -8,-3.5507 -8,-8 l 0,-1 c 0,4.4493 3.5507,8 8,8 l 24,0 c 4.4493,0 8,-3.5507 8,-8 l 0,1 c 0,4.4493 -3.5507,8 -8,8 l -24,0 z"
         id="path4294"
         inkscape:connector-curvature="0" />
      <path
         style="color:#bebebe;display:inline;overflow:visible;visibility:visible;opacity:0.1;fill:#ffffff;fill-opacity:1;fill-rule:nonzero;stroke:none;stroke-width:0;marker:none;enable-background:accumulate"
         d="m 302.5,201 c -6.3883,0 -11.5,-5.1117 -11.5,-11.5 l 0,-1 c 0,6.3883 5.1117,11.5 11.5,11.5 l 35,0 c 6.3883,0 11.5,-5.1117 11.5,-11.5 l 0,1 c 0,6.3883 -5.1117,11.5 -11.5,11.5 l -35,0 z"
         id="path4296"
         inkscape:connector-curvature="0" />
      <path
         style="color:#bebebe;display:inline;overflow:visible;visibility:visible;opacity:0.1;fill:#ffffff;fill-opacity:1;fill-rule:nonzero;stroke:none;stroke-width:0;marker:none;enable-background:accumulate"
         d="m 310,119 c -9.4353,0 -17,-7.5647 -17,-17 l 0,-1 c 0,9.4353 7.5647,17 17,17 l 52,0 c 9.4353,0 17,-7.5647 17,-17 l 0,1 c 0,9.4353 -7.5647,17 -17,17 l -52,0 z"
         id="path4298"
         inkscape:connector-curvature="0" />
      <path
         style="color:#bebebe;display:inline;overflow:visible;visibility:visible;opacity:0.1;fill:#ffffff;fill-opacity:1;fill-rule:nonzero;stroke:none;stroke-width:0;marker:none;enable-background:accumulate"
         d="m 424,82 c -3.3413,0 -6,-2.658703 -6,-6 l 0,-1 c 0,3.341297 2.6587,6 6,6 l 16,0 c 3.3413,0 6,-2.658703 6,-6 l 0,1 c 0,3.341297 -2.6587,6 -6,6 l -16,0 z"
         id="path4300"
         inkscape:connector-curvature="0" />
      <path
         style="color:#bebebe;display:inline;overflow:visible;visibility:visible;opacity:0.1;fill:#ffffff;fill-opacity:1;fill-rule:nonzero;stroke:none;stroke-width:0;marker:none;enable-background:accumulate"
         d="m 422,122 c -2.2333,0 -4,-1.7667 -4,-4 l 0,-1 c 0,2.2333 1.7667,4 4,4 l 12,0 c 2.2333,0 4,-1.7667 4,-4 l 0,1 c 0,2.2333 -1.7667,4 -4,4 l -12,0 z"
         id="path4302"
         inkscape:connector-curvature="0" />
      <path
         style="color:#bebebe;display:inline;overflow:visible;visibility:visible;opacity:0.1;fill:#ffffff;fill-opacity:1;fill-rule:nonzero;stroke:none;stroke-width:0;marker:none;enable-background:accumulate"
         d="m 419,155 c -1.1253,0 -2,-0.8747 -2,-2 l 0,-1 c 0,1.1253 0.8747,2 2,2 l 10,0 c 1.1253,0 2,-0.8747 2,-2 l 0,1 c 0,1.1253 -0.8747,2 -2,2 l -10,0 z"
         id="path4304"
         inkscape:connector-curvature="0" />
    </g>
    <g
       inkscape:groupmode="layer"
       id="layer3"
       inkscape:label="Border"
       style="display:inline"
       sodipodi:insensitive="true">
      <path
         style="color:#bebebe;display:inline;overflow:visible;visibility:visible;opacity:0.41000001;fill:#000000;fill-opacity:1;fill-rule:nonzero;stroke:none;stroke-width:0;marker:none;enable-background:accumulate"
         d="m 422,101 c -2.77,0 -5,2.23 -5,5 l 0,12 c 0,2.77 2.23,5 5,5 l 12,0 c 2.77,0 5,-2.23 5,-5 l 0,-12 c 0,-2.77 -2.23,-5 -5,-5 l -12,0 z m 0,1 12,0 c 2.2333,0 4,1.7667 4,4 l 0,12 c 0,2.2333 -1.7667,4 -4,4 l -12,0 c -2.2333,0 -4,-1.7667 -4,-4 l 0,-12 c 0,-2.2333 1.7667,-4 4,-4 z"
         id="rect4099"
         inkscape:connector-curvature="0" />
      <path
         style="color:#bebebe;display:inline;overflow:visible;visibility:visible;opacity:0.41000001;fill:#000000;fill-opacity:1;fill-rule:nonzero;stroke:none;stroke-width:0;marker:none;enable-background:accumulate"
         d="m 424,53 c -3.878,0 -7,3.122 -7,7 l 0,16 c 0,3.878 3.122,7 7,7 l 16,0 c 3.878,0 7,-3.122 7,-7 l 0,-16 c 0,-3.878 -3.122,-7 -7,-7 l -16,0 z m 0,1 16,0 c 3.3413,0 6,2.658703 6,6 l 0,16 c 0,3.341297 -2.6587,6 -6,6 l -16,0 c -3.3413,0 -6,-2.658703 -6,-6 l 0,-16 c 0,-3.341297 2.6587,-6 6,-6 z"
         id="rect4151"
         inkscape:connector-curvature="0" />
      <path
         style="color:#bebebe;display:inline;overflow:visible;visibility:visible;opacity:0.41000001;fill:#000000;fill-opacity:1;fill-rule:nonzero;stroke:none;stroke-width:0;marker:none;enable-background:accumulate"
         d="m 419,140 c -1.662,0 -3,1.338 -3,3 l 0,10 c 0,1.662 1.338,3 3,3 l 10,0 c 1.662,0 3,-1.338 3,-3 l 0,-10 c 0,-1.662 -1.338,-3 -3,-3 l -10,0 z m 0,1 10,0 c 1.1253,0 2,0.8747 2,2 l 0,10 c 0,1.1253 -0.8747,2 -2,2 l -10,0 c -1.1253,0 -2,-0.8747 -2,-2 l 0,-10 c 0,-1.1253 0.8747,-2 2,-2 z"
         id="rect4095"
         inkscape:connector-curvature="0" />
      <path
         style="color:#bebebe;display:inline;overflow:visible;visibility:visible;opacity:0.41000001;fill:#000000;fill-opacity:1;fill-rule:nonzero;stroke:none;stroke-width:0;marker:none;enable-background:accumulate"
         d="m 300,223 c -4.986,0 -9,4.014 -9,9 l 0,24 c 0,4.986 4.014,9 9,9 l 24,0 c 4.986,0 9,-4.014 9,-9 l 0,-24 c 0,-4.986 -4.014,-9 -9,-9 l -24,0 z m 0,1 24,0 c 4.4493,0 8,3.5507 8,8 l 0,24 c 0,4.4493 -3.5507,8 -8,8 l -24,0 c -4.4493,0 -8,-3.5507 -8,-8 l 0,-24 c 0,-4.4493 3.5507,-8 8,-8 z"
         id="rect4783"
         inkscape:connector-curvature="0" />
      <path
         style="color:#bebebe;display:inline;overflow:visible;visibility:visible;opacity:0.41000001;fill:#000000;fill-opacity:1;fill-rule:nonzero;stroke:none;stroke-width:0;marker:none;enable-background:accumulate"
         d="m 302.5,142 c -6.925,0 -12.5,5.575 -12.5,12.5 l 0,35 c 0,6.925 5.575,12.5 12.5,12.5 l 35,0 c 6.925,0 12.5,-5.575 12.5,-12.5 l 0,-35 c 0,-6.925 -5.575,-12.5 -12.5,-12.5 l -35,0 z m 0,1 35,0 c 6.3883,0 11.5,5.1117 11.5,11.5 l 0,35 c 0,6.3883 -5.1117,11.5 -11.5,11.5 l -35,0 c -6.3883,0 -11.5,-5.1117 -11.5,-11.5 l 0,-35 c 0,-6.3883 5.1117,-11.5 11.5,-11.5 z"
         id="rect4515"
         inkscape:connector-curvature="0" />
      <path
         style="color:#bebebe;display:inline;overflow:visible;visibility:visible;opacity:0.41000001;fill:#000000;fill-opacity:1;fill-rule:nonzero;stroke:none;stroke-width:0;marker:none;enable-background:accumulate"
         d="m 310,32 c -9.972,0 -18,8.028 -18,18 l 0,52 c 0,9.972 8.028,18 18,18 l 52,0 c 9.972,0 18,-8.028 18,-18 l 0,-52 c 0,-9.972 -8.028,-18 -18,-18 l -52,0 z m 0,1 52,0 c 9.4353,0 17,7.564703 17,17 l 0,52 c 0,9.4353 -7.5647,17 -17,17 l -52,0 c -9.4353,0 -17,-7.5647 -17,-17 l 0,-52 c 0,-9.435297 7.5647,-17 17,-17 z"
         id="rect4511"
         inkscape:connector-curvature="0" />
      <path
         style="color:#bebebe;display:inline;overflow:visible;visibility:visible;opacity:0.41000001;fill:#000000;fill-opacity:1;fill-rule:nonzero;stroke:none;stroke-width:0;marker:none;enable-background:accumulate"
         d="M 84,46 C 56.3,46 34,68.3 34,96 l 0,120 c 0,27.7 22.3,50 50,50 l 120,0 c 27.7,0 50,-22.3 50,-50 L 254,96 C 254,68.3 231.7,46 204,46 L 84,46 Z m 0,1 120,0 c 27.1633,0 49,21.836703 49,49 l 0,120 c 0,27.1633 -21.8367,49 -49,49 L 84,265 C 56.836703,265 35,243.1633 35,216 L 35,96 C 35,68.836703 56.836703,47 84,47 Z"
         id="rect4040"
         inkscape:connector-curvature="0" />
    </g>
  </g>
</svg>
