<?xml version="1.0" encoding="UTF-8" standalone="no"?>
<!-- Created with Inkscape (http://www.inkscape.org/) -->

<svg
   xmlns:dc="http://purl.org/dc/elements/1.1/"
   xmlns:cc="http://creativecommons.org/ns#"
   xmlns:rdf="http://www.w3.org/1999/02/22-rdf-syntax-ns#"
   xmlns:svg="http://www.w3.org/2000/svg"
   xmlns="http://www.w3.org/2000/svg"
   xmlns:xlink="http://www.w3.org/1999/xlink"
   xmlns:sodipodi="http://sodipodi.sourceforge.net/DTD/sodipodi-0.dtd"
   xmlns:inkscape="http://www.inkscape.org/namespaces/inkscape"
   inkscape:export-ydpi="90.000000"
   inkscape:export-xdpi="90.000000"
   width="480"
   height="300"
   id="svg11300"
   sodipodi:version="0.32"
   inkscape:version="0.91 r13725"
   sodipodi:docname="franz.svg"
   inkscape:output_extension="org.inkscape.output.svg.inkscape"
   version="1.0"
   style="display:inline;enable-background:new"
   inkscape:export-filename="/home/sam/moka-next-template.png">
  <sodipodi:namedview
     stroke="#ef2929"
     fill="#f57900"
     id="base"
     pagecolor="#777777"
     bordercolor="#666666"
     borderopacity="0.25490196"
     inkscape:pageopacity="0"
     inkscape:pageshadow="2"
     inkscape:zoom="1"
     inkscape:cx="240.5"
     inkscape:cy="150.5"
     inkscape:current-layer="layer7"
     showgrid="false"
     inkscape:grid-bbox="true"
     inkscape:document-units="px"
     inkscape:showpageshadow="false"
     inkscape:window-width="1364"
     inkscape:window-height="700"
     inkscape:window-x="0"
     inkscape:window-y="28"
     width="400px"
     height="300px"
     inkscape:snap-nodes="true"
     inkscape:snap-bbox="true"
     gridtolerance="10000"
     inkscape:object-nodes="true"
     inkscape:snap-grids="true"
     showguides="true"
     inkscape:guide-bbox="true"
     inkscape:window-maximized="1"
     inkscape:bbox-nodes="true"
     inkscape:bbox-paths="true"
     inkscape:snap-bbox-edge-midpoints="true"
     inkscape:snap-bbox-midpoints="true">
    <inkscape:grid
       spacingy="1px"
       spacingx="1px"
       id="grid5883"
       type="xygrid"
       enabled="true"
       visible="true"
       empspacing="4"
       snapvisiblegridlinesonly="true"
       dotted="false"
       color="#000000"
       opacity="0.1254902"
       empcolor="#203ef3"
       empopacity="0.36470588" />
    <inkscape:grid
       type="xygrid"
       id="grid11592"
       empspacing="8"
       visible="true"
       enabled="false"
       spacingx="0.5px"
       spacingy="0.5px"
       color="#ff0000"
       opacity="0.1254902"
       empcolor="#ff0000"
       empopacity="0.25098039"
       snapvisiblegridlinesonly="true"
       dotted="true" />
  </sodipodi:namedview>
  <defs
     id="defs3">
    <linearGradient
       id="linearGradient4292">
      <stop
         id="stop4294"
         offset="0"
         style="stop-color:#348fcb;stop-opacity:1" />
      <stop
         id="stop4296"
         offset="1"
         style="stop-color:#5bbcfb;stop-opacity:1" />
    </linearGradient>
    <linearGradient
       inkscape:collect="always"
       xlink:href="#linearGradient4292"
       id="linearGradient4254"
       x1="35"
       y1="156"
       x2="253"
       y2="156"
       gradientUnits="userSpaceOnUse"
       gradientTransform="matrix(0,-1,1,0,-12,300)" />
    <linearGradient
       inkscape:collect="always"
       xlink:href="#linearGradient4292"
       id="linearGradient4256"
       x1="417"
       y1="148"
       x2="431"
       y2="148"
       gradientUnits="userSpaceOnUse"
       gradientTransform="matrix(0,-1,1,0,276,572)" />
    <linearGradient
       inkscape:collect="always"
       xlink:href="#linearGradient4292"
       id="linearGradient4260"
       x1="418"
       y1="68"
       x2="446"
       y2="68"
       gradientUnits="userSpaceOnUse"
       gradientTransform="matrix(0,-1,1,0,364,500)" />
    <linearGradient
       inkscape:collect="always"
       xlink:href="#linearGradient4292"
       id="linearGradient4262"
       x1="292"
       y1="244"
       x2="332"
       y2="244"
       gradientUnits="userSpaceOnUse"
       gradientTransform="matrix(0,-1,1,0,68,556)" />
    <linearGradient
       inkscape:collect="always"
       xlink:href="#linearGradient4292"
       id="linearGradient4264"
       x1="293"
       y1="76"
       x2="379"
       y2="76"
       gradientUnits="userSpaceOnUse"
       gradientTransform="matrix(0,-1,1,0,260,412)" />
    <linearGradient
       inkscape:collect="always"
       xlink:href="#linearGradient4292"
       id="linearGradient4266"
       x1="291"
       y1="172"
       x2="349"
       y2="172"
       gradientUnits="userSpaceOnUse"
       gradientTransform="matrix(0,-1,1,0,148,492)" />
    <linearGradient
       inkscape:collect="always"
       xlink:href="#linearGradient4292"
       id="linearGradient3870"
       gradientUnits="userSpaceOnUse"
       gradientTransform="matrix(0,-1,1,0,316,540)"
       x1="418"
       y1="112"
       x2="438"
       y2="112" />
  </defs>
  <metadata
     id="metadata4">
    <rdf:RDF>
      <cc:Work
         rdf:about="">
        <dc:format>image/svg+xml</dc:format>
        <dc:type
           rdf:resource="http://purl.org/dc/dcmitype/StillImage" />
        <dc:creator>
          <cc:Agent>
            <dc:title>Sam Hewitt</dc:title>
          </cc:Agent>
        </dc:creator>
        <dc:source />
        <cc:license
           rdf:resource="" />
        <dc:title />
        <dc:subject>
          <rdf:Bag />
        </dc:subject>
        <dc:date />
        <dc:rights>
          <cc:Agent>
            <dc:title />
          </cc:Agent>
        </dc:rights>
        <dc:publisher>
          <cc:Agent>
            <dc:title />
          </cc:Agent>
        </dc:publisher>
        <dc:identifier />
        <dc:relation />
        <dc:language />
        <dc:coverage />
        <dc:description />
        <dc:contributor>
          <cc:Agent>
            <dc:title />
          </cc:Agent>
        </dc:contributor>
      </cc:Work>
      <cc:Work
         rdf:about="">
        <dc:format>image/svg+xml</dc:format>
        <dc:type
           rdf:resource="http://purl.org/dc/dcmitype/StillImage" />
      </cc:Work>
    </rdf:RDF>
  </metadata>
  <g
     style="display:inline"
     inkscape:groupmode="layer"
     inkscape:label="Icon"
     id="layer1">
    <g
       style="display:none"
       inkscape:label="Baseplate"
       id="layer7"
       inkscape:groupmode="layer">
      <text
         y="19.745117"
         xml:space="preserve"
         x="15.006836"
         style="font-style:normal;font-variant:normal;font-weight:normal;font-stretch:normal;font-size:18px;font-family:'DejaVu Sans';-inkscape-font-specification:'DejaVu Sans';display:inline;fill:#000000;fill-opacity:1;stroke:none;enable-background:new"
         inkscape:label="context"
         id="context"><tspan
           style="font-style:normal;font-variant:normal;font-weight:normal;font-stretch:normal;font-family:'DejaVu Sans';-inkscape-font-specification:'DejaVu Sans'"
           y="19.745117"
           x="15.006836"
           sodipodi:role="line"
           id="tspan3933">apps</tspan></text>
      <text
         y="19.745117"
         xml:space="preserve"
         x="122.48828"
         style="font-style:normal;font-variant:normal;font-weight:bold;font-stretch:normal;font-size:18px;line-height:125%;font-family:'DejaVu Sans';-inkscape-font-specification:'DejaVu Sans Bold';text-align:start;writing-mode:lr-tb;text-anchor:start;display:inline;fill:#000000;fill-opacity:1;stroke:none;enable-background:new"
         sodipodi:linespacing="125%"
         inkscape:label="icon-name"
         id="icon-name"><tspan
           style="font-style:normal;font-variant:normal;font-weight:bold;font-stretch:normal;font-size:18px;font-family:'DejaVu Sans';-inkscape-font-specification:'DejaVu Sans Bold'"
           y="19.745117"
           x="122.48828"
           sodipodi:role="line"
           id="tspan3937">franz</tspan></text>
      <rect
         style="display:inline;overflow:visible;visibility:visible;fill:#eeeeec;fill-opacity:1;fill-rule:nonzero;stroke:none;stroke-width:2;marker:none;enable-background:accumulate"
         id="rect16x16"
         width="16"
         height="16"
         x="416"
         y="140"
         inkscape:label="16x16" />
      <rect
         style="display:inline;overflow:visible;visibility:visible;fill:#d4d4d4;fill-opacity:1;fill-rule:nonzero;stroke:none;stroke-width:2;marker:none;enable-background:accumulate"
         id="rect24x24"
         width="24"
         height="24"
         x="416"
         y="100"
         inkscape:label="24x24" />
      <rect
         style="display:inline;overflow:visible;visibility:visible;fill:#eeeeec;fill-opacity:1;fill-rule:nonzero;stroke:none;stroke-width:2;marker:none;enable-background:accumulate"
         id="rect32x32"
         width="32"
         height="32"
         x="416"
         y="52"
         inkscape:label="32x32" />
      <rect
         inkscape:label="22x22"
         y="101"
         x="417"
         height="22"
         width="22"
         id="rect22x22"
         style="display:inline;overflow:visible;visibility:visible;fill:#eeeeec;fill-opacity:1;fill-rule:nonzero;stroke:none;stroke-width:2;marker:none;enable-background:accumulate" />
      <rect
         inkscape:label="48x48"
         y="220"
         x="288"
         height="48"
         width="48"
         id="rect48x48"
         style="display:inline;overflow:visible;visibility:visible;fill:#eeeeec;fill-opacity:1;fill-rule:nonzero;stroke:none;stroke-width:2;marker:none;enable-background:accumulate" />
      <rect
         style="display:inline;overflow:visible;visibility:visible;fill:#eeeeec;fill-opacity:1;fill-rule:nonzero;stroke:none;stroke-width:2;marker:none;enable-background:accumulate"
         id="rect256x256"
         width="256"
         height="256"
         x="16"
         y="28"
         inkscape:label="256x256" />
      <rect
         style="display:inline;overflow:visible;visibility:visible;fill:#eeeeec;fill-opacity:1;fill-rule:nonzero;stroke:none;stroke-width:2;marker:none;enable-background:accumulate"
         id="rect64x64"
         width="64"
         height="64"
         x="288"
         y="140"
         inkscape:label="64x64" />
      <rect
         style="display:inline;overflow:visible;visibility:visible;fill:#eeeeec;fill-opacity:1;fill-rule:nonzero;stroke:none;stroke-width:2;marker:none;enable-background:accumulate"
         id="rect96x96"
         width="96"
         height="96"
         x="288"
         y="28"
         inkscape:label="96x96" />
    </g>
    <g
       inkscape:groupmode="layer"
       id="layer4"
       inkscape:label="Shadow"
       style="display:inline"
       sodipodi:insensitive="true">
      <rect
         ry="50"
         y="47"
         x="34"
         height="220"
         width="220"
         id="rect4114"
         style="opacity:0.1;color:#bebebe;fill:#000000;fill-opacity:1;fill-rule:nonzero;stroke:none;stroke-width:0;marker:none;visibility:visible;display:inline;overflow:visible;enable-background:accumulate" />
      <rect
         style="opacity:0.1;color:#bebebe;fill:#000000;fill-opacity:1;fill-rule:nonzero;stroke:none;stroke-width:0;marker:none;visibility:visible;display:inline;overflow:visible;enable-background:accumulate"
         id="rect4120"
         width="30"
         height="30"
         x="417"
         y="54"
         ry="7" />
      <rect
         transform="scale(1,-1)"
         ry="9"
         y="-266"
         x="291"
         height="42"
         width="42"
         id="rect4122"
         style="opacity:0.1;color:#bebebe;fill:#000000;fill-opacity:1;fill-rule:nonzero;stroke:none;stroke-width:0;marker:none;visibility:visible;display:inline;overflow:visible;enable-background:accumulate" />
      <rect
         style="opacity:0.1;color:#bebebe;fill:#000000;fill-opacity:1;fill-rule:nonzero;stroke:none;stroke-width:0;marker:none;visibility:visible;display:inline;overflow:visible;enable-background:accumulate"
         id="rect4124"
         width="88"
         height="88"
         x="292"
         y="33"
         ry="18" />
      <rect
         ry="12.5"
         y="143"
         x="290"
         height="60"
         width="60"
         id="rect4126"
         style="opacity:0.1;color:#bebebe;fill:#000000;fill-opacity:1;fill-rule:nonzero;stroke:none;stroke-width:0;marker:none;visibility:visible;display:inline;overflow:visible;enable-background:accumulate" />
      <path
         id="path4268"
         d="m 422,101 c -2.77,0 -5,2.23 -5,5 l 0,12 c 0,2.77 2.23,5 5,5 l 12,0 c 2.77,0 5,-2.23 5,-5 l 0,-12 c 0,-2.77 -2.23,-5 -5,-5 z"
         style="opacity:0.1;color:#bebebe;fill:#000000;fill-opacity:1;fill-rule:nonzero;stroke:none;stroke-width:0;marker:none;visibility:visible;display:inline;overflow:visible;enable-background:accumulate"
         inkscape:connector-curvature="0"
         sodipodi:nodetypes="sssssssss" />
      <path
         id="path4270"
         d="m 419,140 c -1.662,0 -3,1.338 -3,3 l 0,10 c 0,1.662 1.338,3 3,3 l 10,0 c 1.662,0 3,-1.338 3,-3 l 0,-10 c 0,-1.662 -1.338,-3 -3,-3 z"
         style="opacity:0.1;color:#bebebe;fill:#000000;fill-opacity:1;fill-rule:nonzero;stroke:none;stroke-width:0;marker:none;visibility:visible;display:inline;overflow:visible;enable-background:accumulate"
         inkscape:connector-curvature="0"
         sodipodi:nodetypes="sssssssss" />
    </g>
    <g
       inkscape:groupmode="layer"
       id="layer2"
       inkscape:label="Background"
       style="display:inline">
      <path
         style="color:#bebebe;fill:url(#linearGradient4254);fill-opacity:1.0;fill-rule:nonzero;stroke:none;stroke-width:2;marker:none;visibility:visible;display:inline;overflow:visible;enable-background:accumulate"
         d="M 84 46.5 C 56.568735 46.5 34.5 68.568732 34.5 96 L 34.5 216 C 34.5 243.43127 56.568735 265.5 84 265.5 L 204 265.5 C 231.43127 265.5 253.5 243.43127 253.5 216 L 253.5 96 C 253.5 68.568732 231.43127 46.5 204 46.5 L 84 46.5 z "
         id="path4200" />
      <path
         style="color:#bebebe;fill:url(#linearGradient4256);fill-opacity:1.0;fill-rule:nonzero;stroke:none;stroke-width:2;marker:none;visibility:visible;display:inline;overflow:visible;enable-background:accumulate"
         d="M 419 140.5 C 417.6156 140.5 416.5 141.6156 416.5 143 L 416.5 153 C 416.5 154.3844 417.6156 155.5 419 155.5 L 429 155.5 C 430.3844 155.5 431.5 154.3844 431.5 153 L 431.5 143 C 431.5 141.6156 430.3844 140.5 429 140.5 L 419 140.5 z "
         id="path4202" />
      <path
         style="color:#bebebe;fill:url(#linearGradient3870);fill-opacity:1.0;fill-rule:nonzero;stroke:none;stroke-width:2;marker:none;visibility:visible;display:inline;overflow:visible;enable-background:accumulate"
         d="M 422 101.5 C 419.50301 101.5 417.5 103.50301 417.5 106 L 417.5 118 C 417.5 120.49699 419.50301 122.5 422 122.5 L 434 122.5 C 436.49699 122.5 438.5 120.49699 438.5 118 L 438.5 106 C 438.5 103.50301 436.49699 101.5 434 101.5 L 422 101.5 z "
         id="path4204" />
      <path
         style="color:#bebebe;fill:url(#linearGradient4260);fill-opacity:1.0;fill-rule:nonzero;stroke:none;stroke-width:2;marker:none;visibility:visible;display:inline;overflow:visible;enable-background:accumulate"
         d="M 424 53.5 C 420.39346 53.5 417.5 56.393464 417.5 60 L 417.5 76 C 417.5 79.606536 420.39346 82.5 424 82.5 L 440 82.5 C 443.60654 82.5 446.5 79.606536 446.5 76 L 446.5 60 C 446.5 56.393464 443.60654 53.5 440 53.5 L 424 53.5 z "
         id="path4206" />
      <path
         style="color:#bebebe;fill:url(#linearGradient4262);fill-opacity:1.0;fill-rule:nonzero;stroke:none;stroke-width:2;marker:none;visibility:visible;display:inline;overflow:visible;enable-background:accumulate"
         d="M 300 223.5 C 295.28469 223.5 291.5 227.28469 291.5 232 L 291.5 256 C 291.5 260.71531 295.28469 264.5 300 264.5 L 324 264.5 C 328.71531 264.5 332.5 260.71531 332.5 256 L 332.5 232 C 332.5 227.28469 328.71531 223.5 324 223.5 L 300 223.5 z "
         id="path4208" />
      <path
         style="color:#bebebe;fill:url(#linearGradient4264);fill-opacity:1.0;fill-rule:nonzero;stroke:none;stroke-width:2;marker:none;visibility:visible;display:inline;overflow:visible;enable-background:accumulate"
         d="M 310 32.5 C 300.29745 32.5 292.5 40.297452 292.5 50 L 292.5 102 C 292.5 111.70255 300.29745 119.5 310 119.5 L 362 119.5 C 371.70255 119.5 379.5 111.70255 379.5 102 L 379.5 50 C 379.5 40.297452 371.70255 32.5 362 32.5 L 310 32.5 z "
         id="path4210" />
      <path
         style="color:#bebebe;fill:url(#linearGradient4266);fill-opacity:1.0;fill-rule:nonzero;stroke:none;stroke-width:2;marker:none;visibility:visible;display:inline;overflow:visible;enable-background:accumulate"
         d="M 302.5 142.5 C 295.84498 142.5 290.5 147.84498 290.5 154.5 L 290.5 189.5 C 290.5 196.15502 295.84498 201.5 302.5 201.5 L 337.5 201.5 C 344.15502 201.5 349.5 196.15502 349.5 189.5 L 349.5 154.5 C 349.5 147.84498 344.15502 142.5 337.5 142.5 L 302.5 142.5 z "
         id="path4212" />
    </g>
    <g
       inkscape:groupmode="layer"
       id="layer6"
       inkscape:label="Symbols"
       style="display:inline">
      <path
         sodipodi:nodetypes="cscsscsscccsssscccsccsssssssssssssssssscsssscsssscssscssccsscsss"
         style="opacity:0.2;fill:#000000;fill-opacity:1"
         d="m 111.9835,204.85765 c 3.0196,-1.49756 3.429,-2.65428 3.4295,-9.68878 l 4e-4,-5.80479 -9.2252,-0.0347 c -9.681995,-0.0364 -16.172095,-0.67514 -22.972595,-2.26081 -1.9678,-0.45884 -3.6481,-0.76403 -3.7339,-0.6782 -0.2909,0.29088 2.2925,7.65695 3.5797,10.20687 3.6747,7.27956 9.2468,9.69089 21.666095,9.37586 4.5512,-0.11545 5.5489,-0.26882 7.256,-1.11544 z m 83.9789,0.28187 c 5.642,-1.49741 8.4981,-3.91864 11.028,-9.3487 1.7271,-3.707 3.6218,-9.42625 3.2469,-9.8011 -0.1213,-0.12132 -1.7751,0.16441 -3.6751,0.63498 -7.6438,1.89315 -20.0475,3.17091 -27.9435,2.87863 l -4.3276,-0.1602 0,5.81527 c 4e-4,4.7111 0.1383,6.08813 0.7256,7.25236 0.8669,1.71842 2.6906,2.85222 5.3809,3.34537 2.8525,0.52285 12.748,0.13082 15.5641,-0.61661 z m -77.7229,-24.45476 c 7.6664,-2.10966 14.2684,-5.54867 20.208,-10.52648 4.8125,-4.03317 6.209,-4.01331 11.2072,0.15945 7.1636,5.98046 14.5298,9.41457 24.0145,11.19548 6.8173,1.28008 21.5893,0.20589 31.572,-2.29588 8.6163,-2.15933 16.2358,-6.62651 18.0264,-10.56861 0.9378,-2.06444 0.9685,-3.21483 0.1294,-4.83753 -1.3042,-2.52218 -4.5875,-2.96102 -8.2342,-1.10061 -1.4341,0.73166 -2.1586,0.817 -5.2021,0.61277 -4.3635,-0.29282 -9.8771,-1.85345 -14.5236,-4.11094 -3.3089,-1.60767 -4.0761,-2.26332 -12.5538,-10.72887 -9.006,-8.99311 -11.9142,-11.39934 -14.981,-12.39523 -2.5174,-0.8175 -6.246,-0.26609 -11.317,1.67362 -12.945,4.95161 -12.5558,4.92701 -21.6839,1.37105 -7.673,-2.98909 -10.1159,-3.62104 -13.0555,-3.37727 -3.761,0.3119 -6.1132,2.08194 -16.2462,12.22561 -9.141995,9.15161 -9.215595,9.2133 -13.475395,11.29131 -7.4827,3.65022 -15.7132,5.11979 -19.4434,3.47167 -2.795,-1.2349 -4.0689,-1.4488 -5.6064,-0.94136 -1.9197,0.63353 -3.0745,2.21534 -3.0745,4.21115 0,2.1985 0.7904,3.57212 3.4588,6.01087 6.9774,6.37691 23.1423,10.29837 40.699095,9.87321 5.0714,-0.12282 6.9323,-0.34679 10.0816,-1.21341 z m 92.775,-25.63117 c -0.1775,-0.85265 -0.8887,-22.53898 -1.2,-36.59094 -0.1393,-6.29169 -0.6399,-8.19461 -2.215,-8.42003 -2.2207,-0.31781 -3.752,3.29056 -5.5573,13.09478 -2.686,14.58704 -4.3481,19.54203 -7.6987,22.95155 l -1.8861,1.91936 2.6118,2.11338 c 1.4366,1.16236 3.8329,2.60342 5.3252,3.20236 3.2005,1.28447 8.0449,2.60739 9.6663,2.63963 0.9762,0.0194 1.119,-0.11682 0.9538,-0.91009 z M 83.489105,154.71432 c 4.2098,-1.16661 8.1482,-3.31627 10.558,-5.7628 l 2.0077,-2.0384 -1.3056,-1.48694 c -2.8235,-3.21585 -4.0045,-6.80323 -6.6306,-20.14089 -2.2191,-11.27109 -3.3982,-14.68672 -5.2284,-15.14607 -1.2887,-0.32345 -2.114,0.27485 -2.4907,1.8057 -0.1526,0.62016 -0.435,7.1915 -0.6276,14.60298 -0.1925,7.41148 -0.4894,16.97385 -0.6596,21.2497 -0.3581,8.99739 -0.7719,8.3435 4.3768,6.91672 z"
         id="path4388"
         inkscape:connector-curvature="0" />
      <path
         sodipodi:nodetypes="cscsscsscccsssscccsccsssssssssssssssssscsssscsssscssscssccsscsss"
         style="display:inline;opacity:0.2;fill:#000000;fill-opacity:1;enable-background:new"
         d="m 322.79318,96.528776 c 1.24559,-0.617744 1.41446,-1.094891 1.41467,-3.996623 l 1.7e-4,-2.394476 -3.8054,-0.01431 c -3.99382,-0.01501 -6.67099,-0.278495 -9.47619,-0.932584 -0.81172,-0.189271 -1.50485,-0.315162 -1.54024,-0.279757 -0.11999,0.119988 0.94566,3.158492 1.47663,4.210334 1.51581,3.002819 3.8143,3.997493 8.93726,3.867543 1.87737,-0.04762 2.28892,-0.110888 2.9931,-0.460119 z m 34.6413,0.116271 c 2.32733,-0.617682 3.50547,-1.616439 4.54905,-3.856339 0.71243,-1.529138 1.494,-3.888329 1.33935,-4.042954 -0.05,-0.05005 -0.73223,0.06782 -1.51598,0.261929 -3.15307,0.780924 -8.26959,1.308 -11.52669,1.187435 l -1.78514,-0.06608 0,2.3988 c 1.7e-4,1.943328 0.0571,2.511353 0.29931,2.991598 0.3576,0.708849 1.10987,1.176541 2.21962,1.379966 1.17666,0.215675 5.25855,0.05396 6.42019,-0.254352 z m -32.0607,-10.08759 c 3.16239,-0.870235 5.88572,-2.288826 8.3358,-4.342173 1.98516,-1.663683 2.56122,-1.655491 4.62297,0.06577 2.95499,2.46694 5.99355,3.88351 9.90599,4.618136 2.81213,0.528033 8.90558,0.08493 13.02345,-0.947051 3.55422,-0.890723 6.69727,-2.733435 7.43589,-4.359552 0.38684,-0.851581 0.39951,-1.326117 0.0534,-1.995481 -0.53799,-1.0404 -1.89235,-1.221421 -3.39661,-0.454002 -0.59157,0.30181 -0.89042,0.337013 -2.14587,0.252768 -1.79994,-0.120788 -4.0743,-0.764548 -5.99098,-1.695763 -1.36493,-0.663164 -1.6814,-0.93362 -5.17845,-4.42566 -3.71497,-3.709658 -4.9146,-4.702228 -6.17966,-5.113033 -1.03843,-0.337218 -2.57648,-0.109762 -4.66826,0.690369 -5.33982,2.042539 -5.17927,2.032392 -8.94461,0.565558 -3.16512,-1.233 -4.17281,-1.493679 -5.3854,-1.393124 -1.55141,0.128659 -2.52169,0.8588 -6.70156,5.043065 -3.77107,3.775039 -3.80143,3.800486 -5.55859,4.657666 -3.08662,1.505715 -6.4817,2.111913 -8.02041,1.432064 -1.15294,-0.509397 -1.67842,-0.59763 -2.31264,-0.388311 -0.79187,0.261331 -1.26823,0.913827 -1.26823,1.737099 0,0.906882 0.32604,1.4735 1.42676,2.479484 2.87817,2.630476 9.5462,4.248078 16.78837,4.0727 2.09195,-0.05066 2.85958,-0.143051 4.15866,-0.500532 z m 38.26969,-10.572859 c -0.0732,-0.351718 -0.36658,-9.29733 -0.495,-15.093764 -0.0575,-2.595324 -0.26395,-3.380278 -0.91368,-3.473264 -0.91604,-0.131097 -1.5477,1.357356 -2.29239,5.401598 -1.10797,6.017155 -1.79359,8.061089 -3.17571,9.467516 l -0.77802,0.791736 1.07737,0.871769 c 0.5926,0.479474 1.58107,1.073911 2.19664,1.320974 1.32021,0.529844 3.31852,1.075549 3.98735,1.088848 0.40268,0.008 0.46159,-0.04819 0.39344,-0.375413 z m -52.60423,-0.139949 c 1.73655,-0.481226 3.36114,-1.367961 4.35518,-2.377155 l 0.82818,-0.84084 -0.53856,-0.613363 c -1.1647,-1.326538 -1.65186,-2.806332 -2.73513,-8.308118 -0.91538,-4.649325 -1.40175,-6.058273 -2.15671,-6.247755 -0.53159,-0.133424 -0.87203,0.113375 -1.02742,0.744851 -0.0629,0.255816 -0.17943,2.966495 -0.25888,6.023731 -0.0794,3.057236 -0.20188,7.001714 -0.27209,8.765502 -0.14771,3.711424 -0.3184,3.441694 1.80543,2.853147 z"
         id="path4390"
         inkscape:connector-curvature="0" />
      <path
         sodipodi:nodetypes="cscsscsscccsssscccsccsssssssssssssssssscsssscsssscssscssccsscsss"
         style="display:inline;opacity:0.2;fill:#000000;fill-opacity:1;enable-background:new"
         d="m 311.19545,185.68631 c 0.83039,-0.41183 0.94298,-0.72993 0.94311,-2.66441 l 1.1e-4,-1.59632 -2.53693,-0.01 c -2.66254,-0.01 -4.44732,-0.18566 -6.31746,-0.62172 -0.54114,-0.12619 -1.00323,-0.21011 -1.02682,-0.18651 -0.08,0.08 0.63044,2.10566 0.98442,2.80689 1.01054,2.00188 2.54287,2.665 5.95817,2.57836 1.25158,-0.0318 1.52595,-0.0739 1.9954,-0.30674 z m 23.0942,0.0775 c 1.55155,-0.41178 2.33698,-1.07762 3.0327,-2.57089 0.47495,-1.01942 0.996,-2.59222 0.8929,-2.6953 -0.0334,-0.0334 -0.48815,0.0452 -1.01065,0.17462 -2.10205,0.52061 -5.51307,0.872 -7.68447,0.79162 l -1.19008,-0.0441 0,1.5992 c 1.1e-4,1.29555 0.038,1.67424 0.19953,1.9944 0.2384,0.47257 0.73992,0.78436 1.47975,0.91998 0.78444,0.14378 3.5057,0.036 4.28013,-0.16957 z m -21.3738,-6.72506 c 2.10826,-0.58015 3.92381,-1.52588 5.5572,-2.89478 1.32344,-1.10912 1.70748,-1.10366 3.08198,0.0438 1.96999,1.64463 3.9957,2.58901 6.60399,3.07876 1.87476,0.35202 5.93706,0.0566 8.6823,-0.63137 2.36948,-0.59381 4.46485,-1.82229 4.95726,-2.90637 0.2579,-0.56772 0.26634,-0.88407 0.0356,-1.33032 -0.35866,-0.6936 -1.26157,-0.81428 -2.26441,-0.30267 -0.39438,0.20121 -0.59361,0.22468 -1.43058,0.16852 -1.19996,-0.0805 -2.7162,-0.5097 -3.99399,-1.13051 -0.90994,-0.44211 -1.12092,-0.62242 -3.45229,-2.95044 -2.47665,-2.47311 -3.27641,-3.13482 -4.11978,-3.40869 -0.69228,-0.22481 -1.71765,-0.0732 -3.11217,0.46025 -3.55988,1.36169 -3.45285,1.35492 -5.96308,0.37703 -2.11007,-0.822 -2.78187,-0.99578 -3.59026,-0.92875 -1.03427,0.0858 -1.68113,0.57254 -4.4677,3.36205 -2.51405,2.51669 -2.53429,2.53366 -3.70574,3.10511 -2.05774,1.00381 -4.32113,1.40794 -5.34693,0.95471 -0.76863,-0.3396 -1.11895,-0.39842 -1.54176,-0.25888 -0.52792,0.17422 -0.84549,0.60922 -0.84549,1.15807 0,0.60459 0.21736,0.98233 0.95117,1.65299 1.91879,1.75365 6.36413,2.83205 11.19225,2.71513 1.39464,-0.0338 1.90638,-0.0954 2.77244,-0.33369 z m 25.51313,-7.04857 c -0.0488,-0.23448 -0.24439,-6.19822 -0.33,-10.06251 -0.0383,-1.73021 -0.17597,-2.25352 -0.60913,-2.31551 -0.61069,-0.0874 -1.0318,0.90491 -1.52825,3.60107 -0.73865,4.01143 -1.19573,5.37406 -2.11715,6.31168 l -0.51867,0.52782 0.71824,0.58118 c 0.39507,0.31965 1.05405,0.71594 1.46443,0.88065 0.88014,0.35323 2.21235,0.71703 2.65823,0.7259 0.26846,0.005 0.30773,-0.0321 0.2623,-0.25028 z m -35.06949,-0.0933 c 1.1577,-0.32082 2.24076,-0.91197 2.90345,-1.58477 l 0.55212,-0.56056 -0.35904,-0.40891 c -0.77646,-0.88436 -1.10124,-1.87089 -1.82341,-5.53874 -0.61026,-3.09955 -0.93451,-4.03885 -1.43781,-4.16517 -0.3544,-0.0889 -0.58135,0.0756 -0.68495,0.49656 -0.042,0.17055 -0.11962,1.97767 -0.17259,4.01582 -0.0529,2.03816 -0.13458,4.66781 -0.18139,5.84367 -0.0985,2.47429 -0.21227,2.29447 1.20362,1.9021 z"
         id="path4392"
         inkscape:connector-curvature="0" />
      <path
         sodipodi:nodetypes="cscsscsscccsssscccsccsssssssssssssssssscsssscsssscssscssccsscsss"
         style="display:inline;opacity:0.2;fill:#000000;fill-opacity:1;enable-background:new"
         d="m 305.59669,254.77159 c 0.60392,-0.29951 0.6858,-0.53086 0.6859,-1.93776 l 8e-5,-1.16095 -1.84504,-0.007 c -1.9364,-0.007 -3.23442,-0.13503 -4.59452,-0.45217 -0.39356,-0.0918 -0.72962,-0.1528 -0.74678,-0.13564 -0.0582,0.0582 0.4585,1.53139 0.71594,2.04138 0.73494,1.45591 1.84936,1.93818 4.33322,1.87517 0.91024,-0.0231 1.10978,-0.0538 1.4512,-0.22309 z m 16.79578,0.0564 c 1.1284,-0.29948 1.69962,-0.78372 2.2056,-1.86974 0.34542,-0.7414 0.72436,-1.88525 0.64938,-1.96022 -0.0243,-0.0243 -0.35502,0.0329 -0.73502,0.127 -1.52876,0.37863 -4.0095,0.63418 -5.5887,0.57573 l -0.86552,-0.032 0,1.16305 c 8e-5,0.94222 0.0277,1.21763 0.14512,1.45047 0.17338,0.34369 0.53812,0.57045 1.07618,0.66908 0.5705,0.10457 2.5496,0.0262 3.11282,-0.12333 z m -15.54458,-4.89095 c 1.53328,-0.42193 2.85368,-1.10973 4.0416,-2.1053 0.9625,-0.80663 1.2418,-0.80266 2.24144,0.0319 1.43272,1.1961 2.90596,1.88292 4.8029,2.2391 1.36346,0.25602 4.31786,0.0412 6.3144,-0.45918 1.72326,-0.43186 3.24716,-1.3253 3.60528,-2.11372 0.18756,-0.41289 0.1937,-0.64296 0.0259,-0.9675 -0.26084,-0.50444 -0.9175,-0.59221 -1.64684,-0.22013 -0.28682,0.14634 -0.43172,0.1634 -1.04042,0.12256 -0.8727,-0.0586 -1.97542,-0.37069 -2.90472,-0.82219 -0.66178,-0.32153 -0.81522,-0.45266 -2.51076,-2.14577 -1.8012,-1.79863 -2.38284,-2.27987 -2.9962,-2.47905 -0.50348,-0.1635 -1.2492,-0.0532 -2.2634,0.33472 -2.589,0.99033 -2.51116,0.98541 -4.33678,0.27421 -1.5346,-0.59781 -2.02318,-0.7242 -2.6111,-0.67545 -0.7522,0.0624 -1.22264,0.41639 -3.24924,2.44512 -1.8284,1.83032 -1.84312,1.84266 -2.69508,2.25826 -1.49654,0.73005 -3.14264,1.02396 -3.88868,0.69434 -0.559,-0.24698 -0.81378,-0.28976 -1.12128,-0.18827 -0.38394,0.1267 -0.6149,0.44306 -0.6149,0.84223 0,0.4397 0.15808,0.71442 0.69176,1.20217 1.39548,1.27538 4.62846,2.05968 8.13982,1.97464 1.01428,-0.0246 1.38646,-0.0694 2.01632,-0.24268 z m 18.555,-5.12623 c -0.0355,-0.17053 -0.17774,-4.5078 -0.24,-7.31819 -0.0279,-1.25834 -0.12798,-1.63892 -0.443,-1.68401 -0.44414,-0.0636 -0.7504,0.65811 -1.11146,2.61896 -0.5372,2.91741 -0.86962,3.9084 -1.53974,4.59031 l -0.37722,0.38387 0.52236,0.42268 c 0.28732,0.23247 0.76658,0.52068 1.06504,0.64047 0.6401,0.25689 1.60898,0.52148 1.93326,0.52792 0.19524,0.004 0.2238,-0.0234 0.19076,-0.18201 z m -25.50508,-0.0678 c 0.84196,-0.23333 1.62964,-0.66326 2.1116,-1.15256 l 0.40154,-0.40768 -0.26112,-0.29739 c -0.5647,-0.64317 -0.8009,-1.36065 -1.32612,-4.02818 -0.44382,-2.25422 -0.67964,-2.93734 -1.04568,-3.02921 -0.25774,-0.0647 -0.4228,0.055 -0.49814,0.36114 -0.0305,0.12403 -0.087,1.4383 -0.12552,2.92059 -0.0385,1.4823 -0.0979,3.39477 -0.13192,4.24994 -0.0716,1.79948 -0.15438,1.6687 0.87536,1.38335 z"
         id="path4394"
         inkscape:connector-curvature="0" />
      <path
         sodipodi:nodetypes="cscsscsscccsssscccsccsssssssssssssssssscsssscsssscssscssccsscsss"
         style="display:inline;opacity:0.2;fill:#000000;fill-opacity:1;enable-background:new"
         d="m 427.99793,74.857188 c 0.37745,-0.187195 0.42862,-0.331786 0.42869,-1.211099 l 5e-5,-0.725599 -1.15315,-0.0043 c -1.21026,-0.0046 -2.02152,-0.08442 -2.87158,-0.282627 -0.24598,-0.05736 -0.45601,-0.0955 -0.46674,-0.08477 -0.0364,0.03636 0.28656,0.95712 0.44746,1.27586 0.45934,0.909945 1.15585,1.211362 2.70827,1.171984 0.5689,-0.01443 0.69361,-0.0336 0.907,-0.13943 z m 10.49737,0.03523 c 0.70525,-0.187177 1.06226,-0.489831 1.3785,-1.168589 0.21589,-0.463376 0.45272,-1.178282 0.40586,-1.225139 -0.0152,-0.01516 -0.22189,0.02055 -0.45939,0.07937 -0.95547,0.236644 -2.50594,0.396364 -3.49294,0.359829 l -0.54095,-0.02003 0,0.726909 c 5e-5,0.588888 0.0173,0.761017 0.0907,0.906546 0.10837,0.214802 0.33633,0.356528 0.67262,0.418172 0.35656,0.06536 1.5935,0.01635 1.94551,-0.07708 z m -9.71537,-3.056845 c 0.9583,-0.263708 1.78355,-0.693585 2.526,-1.315811 0.60156,-0.504147 0.77613,-0.501664 1.4009,0.01993 0.89545,0.747558 1.81623,1.176822 3.00182,1.399436 0.85216,0.16001 2.69866,0.02574 3.9465,-0.286985 1.07704,-0.269917 2.02947,-0.828314 2.2533,-1.321077 0.11722,-0.258055 0.12106,-0.401855 0.0162,-0.604693 -0.16303,-0.315272 -0.57344,-0.370127 -1.02928,-0.137576 -0.17926,0.09146 -0.26982,0.102125 -0.65026,0.0766 -0.54544,-0.0366 -1.23464,-0.231681 -1.81545,-0.513867 -0.41362,-0.200959 -0.50952,-0.282916 -1.56923,-1.34111 -1.12575,-1.124139 -1.48927,-1.424918 -1.87262,-1.549405 -0.31468,-0.102187 -0.78076,-0.03326 -1.41463,0.209203 -1.61813,0.618952 -1.56948,0.615877 -2.71049,0.171381 -0.95913,-0.373636 -1.26449,-0.45263 -1.63194,-0.422159 -0.47012,0.03899 -0.76415,0.260243 -2.03077,1.528203 -1.14276,1.143951 -1.15196,1.151663 -1.68443,1.411414 -0.93534,0.456278 -1.96415,0.639974 -2.43043,0.433959 -0.34937,-0.154362 -0.50861,-0.1811 -0.7008,-0.11767 -0.23996,0.07919 -0.38431,0.276918 -0.38431,0.526394 0,0.274813 0.0988,0.446516 0.43235,0.75136 0.87218,0.797114 2.89279,1.287297 5.08739,1.234152 0.63393,-0.01535 0.86654,-0.04335 1.2602,-0.151676 z m 11.59688,-3.203899 c -0.0222,-0.106581 -0.11109,-2.817374 -0.15,-4.573871 -0.0174,-0.786462 -0.08,-1.024327 -0.27687,-1.052504 -0.27759,-0.03973 -0.469,0.41132 -0.69467,1.636848 -0.33575,1.823382 -0.54351,2.442756 -0.96234,2.868946 l -0.23576,0.23992 0.32648,0.264173 c 0.17957,0.145295 0.47911,0.325428 0.66565,0.400295 0.40006,0.160559 1.00561,0.325924 1.20829,0.329954 0.12202,0.0024 0.13987,-0.0146 0.11922,-0.113761 z m -15.94068,-0.04241 c 0.52622,-0.145827 1.01852,-0.414534 1.31975,-0.720351 l 0.25096,-0.2548 -0.1632,-0.185868 c -0.35294,-0.401981 -0.50056,-0.850404 -0.82883,-2.517613 -0.27738,-1.408887 -0.42477,-1.835841 -0.65355,-1.89326 -0.16108,-0.04043 -0.26425,0.03436 -0.31133,0.225713 -0.0191,0.07752 -0.0544,0.898938 -0.0784,1.825373 -0.0241,0.926436 -0.0612,2.121733 -0.0824,2.656215 -0.0448,1.124674 -0.0965,1.042938 0.5471,0.864591 z"
         id="path4396"
         inkscape:connector-curvature="0" />
      <path
         sodipodi:nodetypes="cscsscsscccsssscccsccsssssssssssssssssscsssscsssscssscssccsscsss"
         style="display:inline;opacity:0.2;fill:#000000;fill-opacity:1;enable-background:new"
         d="m 424.7983,117.88619 c 0.30196,-0.14976 0.3429,-0.26543 0.34295,-0.96888 l 4e-5,-0.58048 -0.92252,-0.004 c -0.9682,-0.004 -1.61721,-0.0675 -2.29726,-0.2261 -0.19678,-0.0459 -0.36481,-0.0764 -0.37339,-0.0678 -0.0291,0.0291 0.22925,0.76569 0.35797,1.02068 0.36747,0.72796 0.92468,0.9691 2.16661,0.93759 0.45512,-0.0115 0.55489,-0.0269 0.7256,-0.11154 z m 8.3979,0.0282 c 0.5642,-0.14974 0.84981,-0.39187 1.1028,-0.93488 0.17271,-0.3707 0.36218,-0.94262 0.32469,-0.98011 -0.0122,-0.0122 -0.17751,0.0164 -0.36751,0.0635 -0.76438,0.18932 -2.00475,0.31709 -2.79435,0.28786 l -0.43276,-0.016 0,0.58153 c 4e-5,0.47112 0.0139,0.60882 0.0726,0.72524 0.0867,0.17184 0.26906,0.28523 0.53809,0.33454 0.28525,0.0523 1.2748,0.0131 1.55641,-0.0617 z m -7.7723,-2.44548 c 0.76664,-0.21097 1.42684,-0.55487 2.0208,-1.05265 0.48125,-0.40332 0.6209,-0.40133 1.12073,0.016 0.71636,0.59805 1.45298,0.94146 2.40145,1.11955 0.68173,0.12801 2.15893,0.0206 3.1572,-0.22959 0.86163,-0.21593 1.62358,-0.66265 1.80264,-1.05686 0.0938,-0.20644 0.0969,-0.32148 0.013,-0.48375 -0.13042,-0.25222 -0.45875,-0.2961 -0.82342,-0.11006 -0.14341,0.0732 -0.21586,0.0817 -0.52021,0.0613 -0.43635,-0.0293 -0.98771,-0.18534 -1.45236,-0.41109 -0.33089,-0.16077 -0.40761,-0.22633 -1.25538,-1.07289 -0.9006,-0.89931 -1.19142,-1.13993 -1.4981,-1.23952 -0.25174,-0.0817 -0.6246,-0.0266 -1.1317,0.16736 -1.29451,0.49516 -1.25559,0.4927 -2.1684,0.13711 -0.7673,-0.29891 -1.01159,-0.36211 -1.30555,-0.33773 -0.3761,0.0312 -0.61132,0.20819 -1.62462,1.22256 -0.9142,0.91516 -0.92156,0.92133 -1.34754,1.12913 -0.74827,0.36502 -1.57132,0.51198 -1.94434,0.34717 -0.2795,-0.12349 -0.40689,-0.14488 -0.56064,-0.0941 -0.19197,0.0634 -0.30745,0.22154 -0.30745,0.42112 0,0.21985 0.079,0.35721 0.34588,0.60108 0.69774,0.6377 2.31423,1.02984 4.06991,0.98733 0.50714,-0.0123 0.69323,-0.0347 1.00816,-0.12135 z m 9.27751,-2.56312 c -0.0177,-0.0853 -0.0889,-2.2539 -0.12,-3.65909 -0.0139,-0.62918 -0.064,-0.81947 -0.2215,-0.84201 -0.22207,-0.0318 -0.3752,0.32906 -0.55573,1.30948 -0.2686,1.45871 -0.43481,1.95421 -0.76987,2.29516 l -0.18861,0.19193 0.26118,0.21134 c 0.14366,0.11624 0.38329,0.26034 0.53252,0.32024 0.32005,0.12845 0.80449,0.26074 0.96663,0.26396 0.0976,0.002 0.1119,-0.0117 0.0954,-0.091 z m -12.75255,-0.034 c 0.42098,-0.11666 0.81482,-0.33162 1.0558,-0.57628 l 0.20077,-0.20384 -0.13056,-0.14869 c -0.28235,-0.32159 -0.40045,-0.68032 -0.66306,-2.01409 -0.22191,-1.12712 -0.33982,-1.46868 -0.52284,-1.51461 -0.12887,-0.0324 -0.2114,0.0275 -0.24907,0.18057 -0.0152,0.062 -0.0435,0.71915 -0.0628,1.4603 -0.0192,0.74115 -0.0489,1.69739 -0.066,2.12497 -0.0358,0.89974 -0.0772,0.83435 0.43768,0.69167 z"
         id="path4398"
         inkscape:connector-curvature="0" />
      <path
         sodipodi:nodetypes="cscsscsscccsssscccsccsssssssssssssssssscsssscsssscssscssccsscsss"
         style="display:inline;opacity:0.2;fill:#000000;fill-opacity:1;enable-background:new"
         d="m 421.59861,152.91457 c 0.22647,-0.11231 0.25717,-0.19907 0.25721,-0.72665 l 3e-5,-0.43537 -0.69189,-0.003 c -0.72615,-0.003 -1.21291,-0.0507 -1.72295,-0.16958 -0.14758,-0.0344 -0.2736,-0.0573 -0.28004,-0.0509 -0.0218,0.0218 0.17194,0.57427 0.26848,0.76551 0.2756,0.54597 0.69351,0.72682 1.62496,0.70319 0.34134,-0.009 0.41616,-0.0202 0.5442,-0.0837 z m 6.29842,0.0212 c 0.42315,-0.1123 0.63736,-0.2939 0.8271,-0.70115 0.12953,-0.27803 0.27163,-0.70697 0.24352,-0.73508 -0.009,-0.009 -0.13314,0.0123 -0.27564,0.0476 -0.57328,0.14199 -1.50356,0.23782 -2.09576,0.2159 l -0.32457,-0.012 0,0.43614 c 3e-5,0.35334 0.0104,0.45661 0.0544,0.54393 0.065,0.12888 0.2018,0.21392 0.40357,0.25091 0.21394,0.0392 0.9561,0.01 1.16731,-0.0462 z m -5.82922,-1.83411 c 0.57498,-0.15822 1.07013,-0.41614 1.5156,-0.78948 0.36094,-0.30249 0.46567,-0.301 0.84054,0.012 0.53727,0.44854 1.08973,0.70609 1.80109,0.83966 0.5113,0.096 1.6192,0.0155 2.3679,-0.17219 0.64622,-0.16195 1.21768,-0.49698 1.35198,-0.79264 0.0703,-0.15484 0.0726,-0.24112 0.01,-0.36282 -0.0978,-0.18916 -0.34406,-0.22207 -0.61756,-0.0825 -0.10756,0.0549 -0.1619,0.0613 -0.39016,0.046 -0.32726,-0.022 -0.74078,-0.13901 -1.08927,-0.30832 -0.24817,-0.12057 -0.30571,-0.16975 -0.94154,-0.80466 -0.67545,-0.67449 -0.89356,-0.85496 -1.12357,-0.92965 -0.18881,-0.0613 -0.46845,-0.0199 -0.84878,0.12553 -0.97087,0.37137 -0.94168,0.36952 -1.62629,0.10283 -0.57548,-0.22419 -0.75869,-0.27158 -0.97916,-0.2533 -0.28208,0.0234 -0.4585,0.15614 -1.21847,0.91692 -0.68565,0.68637 -0.69117,0.691 -1.01066,0.84685 -0.5612,0.27376 -1.17849,0.38398 -1.45825,0.26037 -0.20963,-0.0926 -0.30517,-0.10866 -0.42048,-0.0706 -0.14398,0.0475 -0.23059,0.16615 -0.23059,0.31584 0,0.16489 0.0593,0.26791 0.25941,0.45081 0.52331,0.47827 1.73567,0.77238 3.05243,0.7405 0.38036,-0.009 0.51993,-0.026 0.75612,-0.091 z m 6.95813,-1.92233 c -0.0133,-0.064 -0.0667,-1.69043 -0.09,-2.74433 -0.0105,-0.47187 -0.048,-0.61459 -0.16613,-0.6315 -0.16655,-0.0239 -0.2814,0.2468 -0.4168,0.98211 -0.20145,1.09403 -0.3261,1.46566 -0.5774,1.72137 l -0.14146,0.14395 0.19589,0.1585 c 0.10774,0.0872 0.28747,0.19526 0.39939,0.24018 0.24004,0.0963 0.60337,0.19556 0.72497,0.19797 0.0732,0.002 0.0839,-0.009 0.0715,-0.0682 z m -9.56441,-0.0254 c 0.31573,-0.0875 0.61111,-0.24872 0.79185,-0.43221 l 0.15057,-0.15288 -0.0979,-0.11152 c -0.21176,-0.24119 -0.30033,-0.51024 -0.49729,-1.51057 -0.16643,-0.84533 -0.25487,-1.1015 -0.39213,-1.13595 -0.0967,-0.0243 -0.15855,0.0206 -0.1868,0.13543 -0.0114,0.0465 -0.0326,0.53936 -0.0471,1.09522 -0.0144,0.55586 -0.0367,1.27304 -0.0495,1.59373 -0.0268,0.6748 -0.0579,0.62576 0.32826,0.51875 z"
         id="path4400"
         inkscape:connector-curvature="0" />
      <path
         style="fill:#000000"
         d=""
         id="path4299"
         inkscape:connector-curvature="0" />
      <path
         inkscape:connector-curvature="0"
         id="path4330"
         d="m 111.9835,203.85726 c 3.0196,-1.49756 3.429,-2.65428 3.4295,-9.68878 l 4e-4,-5.80479 -9.2252,-0.0347 c -9.681995,-0.0364 -16.172095,-0.67514 -22.972595,-2.26081 -1.9678,-0.45884 -3.6481,-0.76403 -3.7339,-0.6782 -0.2909,0.29088 2.2925,7.65695 3.5797,10.20687 3.6747,7.27956 9.2468,9.69089 21.666095,9.37586 4.5512,-0.11545 5.5489,-0.26882 7.256,-1.11544 z m 83.9789,0.28187 c 5.642,-1.49741 8.4981,-3.91864 11.028,-9.3487 1.7271,-3.707 3.6218,-9.42625 3.2469,-9.8011 -0.1213,-0.12132 -1.7751,0.16441 -3.6751,0.63498 -7.6438,1.89315 -20.0475,3.17091 -27.9435,2.87863 l -4.3276,-0.1602 0,5.81527 c 4e-4,4.7111 0.1383,6.08813 0.7256,7.25236 0.8669,1.71842 2.6906,2.85222 5.3809,3.34537 2.8525,0.52285 12.748,0.13082 15.5641,-0.61661 z m -77.7229,-24.45476 c 7.6664,-2.10966 14.2684,-5.54867 20.208,-10.52648 4.8125,-4.03317 6.209,-4.01331 11.2072,0.15945 7.1636,5.98046 14.5298,9.41457 24.0145,11.19548 6.8173,1.28008 21.5893,0.20589 31.572,-2.29588 8.6163,-2.15933 16.2358,-6.62651 18.0264,-10.56861 0.9378,-2.06444 0.9685,-3.21483 0.1294,-4.83753 -1.3042,-2.52218 -4.5875,-2.96102 -8.2342,-1.10061 -1.4341,0.73166 -2.1586,0.817 -5.2021,0.61277 -4.3635,-0.29282 -9.8771,-1.85345 -14.5236,-4.11094 -3.3089,-1.60767 -4.0761,-2.26332 -12.5538,-10.72887 -9.006,-8.99311 -11.9142,-11.39934 -14.981,-12.39523 -2.5174,-0.8175 -6.246,-0.26609 -11.317,1.67362 -12.945,4.95161 -12.5558,4.92701 -21.6839,1.37105 -7.673,-2.98909 -10.1159,-3.62104 -13.0555,-3.37727 -3.761,0.3119 -6.1132,2.08194 -16.2462,12.22561 -9.141995,9.15161 -9.215595,9.2133 -13.475395,11.29131 -7.4827,3.65022 -15.7132,5.11979 -19.4434,3.47167 -2.795,-1.2349 -4.0689,-1.4488 -5.6064,-0.94136 -1.9197,0.63353 -3.0745,2.21534 -3.0745,4.21115 0,2.1985 0.7904,3.57212 3.4588,6.01087 6.9774,6.37691 23.1423,10.29837 40.699095,9.87321 5.0714,-0.12282 6.9323,-0.34679 10.0816,-1.21341 z m 92.775,-25.63117 c -0.1775,-0.85265 -0.8887,-22.53898 -1.2,-36.59094 -0.1393,-6.29169 -0.6399,-8.19461 -2.215,-8.42003 -2.2207,-0.31781 -3.752,3.29056 -5.5573,13.09478 -2.686,14.58704 -4.3481,19.54203 -7.6987,22.95155 l -1.8861,1.91936 2.6118,2.11338 c 1.4366,1.16236 3.8329,2.60342 5.3252,3.20236 3.2005,1.28447 8.0449,2.60739 9.6663,2.63963 0.9762,0.0194 1.119,-0.11682 0.9538,-0.91009 z M 83.489105,153.71393 c 4.2098,-1.16661 8.1482,-3.31627 10.558,-5.7628 l 2.0077,-2.0384 -1.3056,-1.48694 c -2.8235,-3.21585 -4.0045,-6.80323 -6.6306,-20.14089 -2.2191,-11.27109 -3.3982,-14.68672 -5.2284,-15.14607 -1.2887,-0.32345 -2.114,0.27485 -2.4907,1.8057 -0.1526,0.62016 -0.435,7.1915 -0.6276,14.60298 -0.1925,7.41148 -0.4894,16.97385 -0.6596,21.2497 -0.3581,8.99739 -0.7719,8.3435 4.3768,6.91672 z"
         style="fill:#ffffff;fill-opacity:1"
         sodipodi:nodetypes="cscsscsscccsssscccsccsssssssssssssssssscsssscsssscssscssccsscsss" />
      <path
         inkscape:connector-curvature="0"
         id="path4330-4"
         d="m 322.79318,95.528387 c 1.24559,-0.617744 1.41446,-1.094891 1.41467,-3.996623 l 1.7e-4,-2.394476 -3.8054,-0.01431 c -3.99382,-0.01501 -6.67099,-0.278495 -9.47619,-0.932584 -0.81172,-0.189271 -1.50485,-0.315162 -1.54024,-0.279757 -0.11999,0.119988 0.94566,3.158492 1.47663,4.210334 1.51581,3.002819 3.8143,3.997493 8.93726,3.867543 1.87737,-0.04762 2.28892,-0.110888 2.9931,-0.460119 z m 34.6413,0.116271 c 2.32733,-0.617682 3.50547,-1.616439 4.54905,-3.856339 0.71243,-1.529138 1.494,-3.888329 1.33935,-4.042954 -0.05,-0.05005 -0.73223,0.06782 -1.51598,0.261929 -3.15307,0.780924 -8.26959,1.308 -11.52669,1.187435 l -1.78514,-0.06608 0,2.3988 c 1.7e-4,1.943328 0.0571,2.511353 0.29931,2.991598 0.3576,0.708849 1.10987,1.176541 2.21962,1.379966 1.17666,0.215675 5.25855,0.05396 6.42019,-0.254352 z m -32.0607,-10.08759 c 3.16239,-0.870235 5.88572,-2.288826 8.3358,-4.342173 1.98516,-1.663683 2.56122,-1.655491 4.62297,0.06577 2.95499,2.46694 5.99355,3.88351 9.90599,4.618136 2.81213,0.528033 8.90558,0.08493 13.02345,-0.947051 3.55422,-0.890723 6.69727,-2.733435 7.43589,-4.359552 0.38684,-0.851581 0.39951,-1.326117 0.0534,-1.995481 -0.53799,-1.0404 -1.89235,-1.221421 -3.39661,-0.454002 -0.59157,0.30181 -0.89042,0.337013 -2.14587,0.252768 -1.79994,-0.120788 -4.0743,-0.764548 -5.99098,-1.695763 -1.36493,-0.663164 -1.6814,-0.93362 -5.17845,-4.42566 -3.71497,-3.709658 -4.9146,-4.702228 -6.17966,-5.113033 -1.03843,-0.337218 -2.57648,-0.109762 -4.66826,0.690369 -5.33982,2.042539 -5.17927,2.032392 -8.94461,0.565558 -3.16512,-1.233 -4.17281,-1.493679 -5.3854,-1.393124 -1.55141,0.128659 -2.52169,0.8588 -6.70156,5.043065 -3.77107,3.775039 -3.80143,3.800486 -5.55859,4.657666 -3.08662,1.505715 -6.4817,2.111913 -8.02041,1.432064 -1.15294,-0.509397 -1.67842,-0.59763 -2.31264,-0.388311 -0.79187,0.261331 -1.26823,0.913827 -1.26823,1.737099 0,0.906882 0.32604,1.4735 1.42676,2.479484 2.87817,2.630476 9.5462,4.248078 16.78837,4.0727 2.09195,-0.05066 2.85958,-0.143051 4.15866,-0.500532 z m 38.26969,-10.572859 c -0.0732,-0.351718 -0.36658,-9.29733 -0.495,-15.093764 -0.0575,-2.595324 -0.26395,-3.380278 -0.91368,-3.473264 -0.91604,-0.131097 -1.5477,1.357356 -2.29239,5.401598 -1.10797,6.017155 -1.79359,8.061089 -3.17571,9.467516 l -0.77802,0.791736 1.07737,0.871769 c 0.5926,0.479474 1.58107,1.073911 2.19664,1.320974 1.32021,0.529844 3.31852,1.075549 3.98735,1.088848 0.40268,0.008 0.46159,-0.04819 0.39344,-0.375413 z M 311.03924,74.84426 c 1.73655,-0.481226 3.36114,-1.367961 4.35518,-2.377155 l 0.82818,-0.84084 -0.53856,-0.613363 c -1.1647,-1.326538 -1.65186,-2.806332 -2.73513,-8.308118 -0.91538,-4.649325 -1.40175,-6.058273 -2.15671,-6.247755 -0.53159,-0.133424 -0.87203,0.113375 -1.02742,0.744851 -0.0629,0.255816 -0.17943,2.966495 -0.25888,6.023731 -0.0794,3.057236 -0.20188,7.001714 -0.27209,8.765502 -0.14771,3.711424 -0.3184,3.441694 1.80543,2.853147 z"
         style="display:inline;fill:#ffffff;fill-opacity:1;enable-background:new"
         sodipodi:nodetypes="cscsscsscccsssscccsccsssssssssssssssssscsssscsssscssscssccsscsss" />
      <path
         inkscape:connector-curvature="0"
         id="path4330-1"
         d="m 311.19545,184.68592 c 0.83039,-0.41183 0.94298,-0.72993 0.94311,-2.66441 l 1.1e-4,-1.59632 -2.53693,-0.01 c -2.66254,-0.01 -4.44732,-0.18566 -6.31746,-0.62172 -0.54114,-0.12619 -1.00323,-0.21011 -1.02682,-0.18651 -0.08,0.08 0.63044,2.10566 0.98442,2.80689 1.01054,2.00188 2.54287,2.665 5.95817,2.57836 1.25158,-0.0318 1.52595,-0.0739 1.9954,-0.30674 z m 23.0942,0.0775 c 1.55155,-0.41178 2.33698,-1.07762 3.0327,-2.57089 0.47495,-1.01942 0.996,-2.59222 0.8929,-2.6953 -0.0334,-0.0334 -0.48815,0.0452 -1.01065,0.17462 -2.10205,0.52061 -5.51307,0.872 -7.68447,0.79162 l -1.19008,-0.0441 0,1.5992 c 1.1e-4,1.29555 0.038,1.67424 0.19953,1.9944 0.2384,0.47257 0.73992,0.78436 1.47975,0.91998 0.78444,0.14378 3.5057,0.036 4.28013,-0.16957 z m -21.3738,-6.72506 c 2.10826,-0.58015 3.92381,-1.52588 5.5572,-2.89478 1.32344,-1.10912 1.70748,-1.10366 3.08198,0.0438 1.96999,1.64463 3.9957,2.58901 6.60399,3.07876 1.87476,0.35202 5.93706,0.0566 8.6823,-0.63137 2.36948,-0.59381 4.46485,-1.82229 4.95726,-2.90637 0.2579,-0.56772 0.26634,-0.88407 0.0356,-1.33032 -0.35866,-0.6936 -1.26157,-0.81428 -2.26441,-0.30267 -0.39438,0.20121 -0.59361,0.22468 -1.43058,0.16852 -1.19996,-0.0805 -2.7162,-0.5097 -3.99399,-1.13051 -0.90994,-0.44211 -1.12092,-0.62242 -3.45229,-2.95044 -2.47665,-2.47311 -3.27641,-3.13482 -4.11978,-3.40869 -0.69228,-0.22481 -1.71765,-0.0732 -3.11217,0.46025 -3.55988,1.36169 -3.45285,1.35492 -5.96308,0.37703 -2.11007,-0.822 -2.78187,-0.99578 -3.59026,-0.92875 -1.03427,0.0858 -1.68113,0.57254 -4.4677,3.36205 -2.51405,2.51669 -2.53429,2.53366 -3.70574,3.10511 -2.05774,1.00381 -4.32113,1.40794 -5.34693,0.95471 -0.76863,-0.3396 -1.11895,-0.39842 -1.54176,-0.25888 -0.52792,0.17422 -0.84549,0.60922 -0.84549,1.15807 0,0.60459 0.21736,0.98233 0.95117,1.65299 1.91879,1.75365 6.36413,2.83205 11.19225,2.71513 1.39464,-0.0338 1.90638,-0.0954 2.77244,-0.33369 z m 25.51313,-7.04857 c -0.0488,-0.23448 -0.24439,-6.19822 -0.33,-10.06251 -0.0383,-1.73021 -0.17597,-2.25352 -0.60913,-2.31551 -0.61069,-0.0874 -1.0318,0.90491 -1.52825,3.60107 -0.73865,4.01143 -1.19573,5.37406 -2.11715,6.31168 l -0.51867,0.52782 0.71824,0.58118 c 0.39507,0.31965 1.05405,0.71594 1.46443,0.88065 0.88014,0.35323 2.21235,0.71703 2.65823,0.7259 0.26846,0.005 0.30773,-0.0321 0.2623,-0.25028 z m -35.06949,-0.0933 c 1.1577,-0.32082 2.24076,-0.91197 2.90345,-1.58477 l 0.55212,-0.56056 -0.35904,-0.40891 c -0.77646,-0.88436 -1.10124,-1.87089 -1.82341,-5.53874 -0.61026,-3.09955 -0.93451,-4.03885 -1.43781,-4.16517 -0.3544,-0.0889 -0.58135,0.0756 -0.68495,0.49656 -0.042,0.17055 -0.11962,1.97767 -0.17259,4.01582 -0.0529,2.03816 -0.13458,4.66781 -0.18139,5.84367 -0.0985,2.47429 -0.21227,2.29447 1.20362,1.9021 z"
         style="display:inline;fill:#ffffff;fill-opacity:1;enable-background:new"
         sodipodi:nodetypes="cscsscsscccsssscccsccsssssssssssssssssscsssscsssscssscssccsscsss" />
      <path
         inkscape:connector-curvature="0"
         id="path4330-0"
         d="m 305.59669,253.7712 c 0.60392,-0.29951 0.6858,-0.53086 0.6859,-1.93776 l 8e-5,-1.16095 -1.84504,-0.007 c -1.9364,-0.007 -3.23442,-0.13503 -4.59452,-0.45217 -0.39356,-0.0918 -0.72962,-0.1528 -0.74678,-0.13564 -0.0582,0.0582 0.4585,1.53139 0.71594,2.04138 0.73494,1.45591 1.84936,1.93818 4.33322,1.87517 0.91024,-0.0231 1.10978,-0.0538 1.4512,-0.22309 z m 16.79578,0.0564 c 1.1284,-0.29948 1.69962,-0.78372 2.2056,-1.86974 0.34542,-0.7414 0.72436,-1.88525 0.64938,-1.96022 -0.0243,-0.0243 -0.35502,0.0329 -0.73502,0.127 -1.52876,0.37863 -4.0095,0.63418 -5.5887,0.57573 l -0.86552,-0.032 0,1.16305 c 8e-5,0.94222 0.0277,1.21763 0.14512,1.45047 0.17338,0.34369 0.53812,0.57045 1.07618,0.66908 0.5705,0.10457 2.5496,0.0262 3.11282,-0.12333 z m -15.54458,-4.89095 c 1.53328,-0.42193 2.85368,-1.10973 4.0416,-2.1053 0.9625,-0.80663 1.2418,-0.80266 2.24144,0.0319 1.43272,1.1961 2.90596,1.88292 4.8029,2.2391 1.36346,0.25602 4.31786,0.0412 6.3144,-0.45918 1.72326,-0.43186 3.24716,-1.3253 3.60528,-2.11372 0.18756,-0.41289 0.1937,-0.64296 0.0259,-0.9675 -0.26084,-0.50444 -0.9175,-0.59221 -1.64684,-0.22013 -0.28682,0.14634 -0.43172,0.1634 -1.04042,0.12256 -0.8727,-0.0586 -1.97542,-0.37069 -2.90472,-0.82219 -0.66178,-0.32153 -0.81522,-0.45266 -2.51076,-2.14577 -1.8012,-1.79863 -2.38284,-2.27987 -2.9962,-2.47905 -0.50348,-0.1635 -1.2492,-0.0532 -2.2634,0.33472 -2.589,0.99033 -2.51116,0.98541 -4.33678,0.27421 -1.5346,-0.59781 -2.02318,-0.7242 -2.6111,-0.67545 -0.7522,0.0624 -1.22264,0.41639 -3.24924,2.44512 -1.8284,1.83032 -1.84312,1.84266 -2.69508,2.25826 -1.49654,0.73005 -3.14264,1.02396 -3.88868,0.69434 -0.559,-0.24698 -0.81378,-0.28976 -1.12128,-0.18827 -0.38394,0.1267 -0.6149,0.44306 -0.6149,0.84223 0,0.4397 0.15808,0.71442 0.69176,1.20217 1.39548,1.27538 4.62846,2.05968 8.13982,1.97464 1.01428,-0.0246 1.38646,-0.0694 2.01632,-0.24268 z m 18.555,-5.12623 c -0.0355,-0.17053 -0.17774,-4.5078 -0.24,-7.31819 -0.0279,-1.25834 -0.12798,-1.63892 -0.443,-1.68401 -0.44414,-0.0636 -0.7504,0.65811 -1.11146,2.61896 -0.5372,2.91741 -0.86962,3.9084 -1.53974,4.59031 l -0.37722,0.38387 0.52236,0.42268 c 0.28732,0.23247 0.76658,0.52068 1.06504,0.64047 0.6401,0.25689 1.60898,0.52148 1.93326,0.52792 0.19524,0.004 0.2238,-0.0234 0.19076,-0.18201 z m -25.50508,-0.0678 c 0.84196,-0.23333 1.62964,-0.66326 2.1116,-1.15256 l 0.40154,-0.40768 -0.26112,-0.29739 c -0.5647,-0.64317 -0.8009,-1.36065 -1.32612,-4.02818 -0.44382,-2.25422 -0.67964,-2.93734 -1.04568,-3.02921 -0.25774,-0.0647 -0.4228,0.055 -0.49814,0.36114 -0.0305,0.12403 -0.087,1.4383 -0.12552,2.92059 -0.0385,1.4823 -0.0979,3.39477 -0.13192,4.24994 -0.0716,1.79948 -0.15438,1.6687 0.87536,1.38335 z"
         style="display:inline;fill:#ffffff;fill-opacity:1;enable-background:new"
         sodipodi:nodetypes="cscsscsscccsssscccsccsssssssssssssssssscsssscsssscssscssccsscsss" />
      <path
         inkscape:connector-curvature="0"
         id="path4330-0-7"
         d="m 427.99793,73.856799 c 0.37745,-0.187195 0.42862,-0.331786 0.42869,-1.211099 l 5e-5,-0.725599 -1.15315,-0.0043 c -1.21026,-0.0046 -2.02152,-0.08442 -2.87158,-0.282627 -0.24598,-0.05736 -0.45601,-0.0955 -0.46674,-0.08477 -0.0364,0.03636 0.28656,0.95712 0.44746,1.27586 0.45934,0.909945 1.15585,1.211362 2.70827,1.171984 0.5689,-0.01443 0.69361,-0.0336 0.907,-0.13943 z m 10.49737,0.03523 c 0.70525,-0.187177 1.06226,-0.489831 1.3785,-1.168589 0.21589,-0.463376 0.45272,-1.178282 0.40586,-1.225139 -0.0152,-0.01516 -0.22189,0.02055 -0.45939,0.07937 -0.95547,0.236644 -2.50594,0.396364 -3.49294,0.359829 l -0.54095,-0.02003 0,0.726909 c 5e-5,0.588888 0.0173,0.761017 0.0907,0.906546 0.10837,0.214802 0.33633,0.356528 0.67262,0.418172 0.35656,0.06536 1.5935,0.01635 1.94551,-0.07708 z m -9.71537,-3.056845 c 0.9583,-0.263708 1.78355,-0.693585 2.526,-1.315811 0.60156,-0.504147 0.77613,-0.501664 1.4009,0.01993 0.89545,0.747558 1.81623,1.176822 3.00182,1.399436 0.85216,0.16001 2.69866,0.02574 3.9465,-0.286985 1.07704,-0.269917 2.02947,-0.828314 2.2533,-1.321077 0.11722,-0.258055 0.12106,-0.401855 0.0162,-0.604693 -0.16303,-0.315272 -0.57344,-0.370127 -1.02928,-0.137576 -0.17926,0.09146 -0.26982,0.102125 -0.65026,0.0766 -0.54544,-0.0366 -1.23464,-0.231681 -1.81545,-0.513867 -0.41362,-0.200959 -0.50952,-0.282916 -1.56923,-1.34111 -1.12575,-1.124139 -1.48927,-1.424918 -1.87262,-1.549405 -0.31468,-0.102187 -0.78076,-0.03326 -1.41463,0.209203 -1.61813,0.618952 -1.56948,0.615877 -2.71049,0.171381 -0.95913,-0.373636 -1.26449,-0.45263 -1.63194,-0.422159 -0.47012,0.03899 -0.76415,0.260243 -2.03077,1.528203 -1.14276,1.143951 -1.15196,1.151663 -1.68443,1.411414 -0.93534,0.456278 -1.96415,0.639974 -2.43043,0.433959 -0.34937,-0.154362 -0.50861,-0.1811 -0.7008,-0.11767 -0.23996,0.07919 -0.38431,0.276918 -0.38431,0.526394 0,0.274813 0.0988,0.446516 0.43235,0.75136 0.87218,0.797114 2.89279,1.287297 5.08739,1.234152 0.63393,-0.01535 0.86654,-0.04335 1.2602,-0.151676 z m 11.59688,-3.203899 c -0.0222,-0.106581 -0.11109,-2.817374 -0.15,-4.573871 -0.0174,-0.786462 -0.08,-1.024327 -0.27687,-1.052504 -0.27759,-0.03973 -0.469,0.41132 -0.69467,1.636848 -0.33575,1.823382 -0.54351,2.442756 -0.96234,2.868946 l -0.23576,0.23992 0.32648,0.264173 c 0.17957,0.145295 0.47911,0.325428 0.66565,0.400295 0.40006,0.160559 1.00561,0.325924 1.20829,0.329954 0.12202,0.0024 0.13987,-0.0146 0.11922,-0.113761 z m -15.94068,-0.04241 c 0.52622,-0.145827 1.01852,-0.414534 1.31975,-0.720351 l 0.25096,-0.2548 -0.1632,-0.185868 c -0.35294,-0.401981 -0.50056,-0.850404 -0.82883,-2.517613 -0.27738,-1.408887 -0.42477,-1.835841 -0.65355,-1.89326 -0.16108,-0.04043 -0.26425,0.03436 -0.31133,0.225713 -0.0191,0.07752 -0.0544,0.898938 -0.0784,1.825373 -0.0241,0.926436 -0.0612,2.121733 -0.0824,2.656215 -0.0448,1.124674 -0.0965,1.042938 0.5471,0.864591 z"
         style="display:inline;fill:#ffffff;fill-opacity:1;enable-background:new"
         sodipodi:nodetypes="cscsscsscccsssscccsccsssssssssssssssssscsssscsssscssscssccsscsss" />
      <path
         inkscape:connector-curvature="0"
         id="path4330-0-4"
         d="m 424.7983,116.8858 c 0.30196,-0.14976 0.3429,-0.26543 0.34295,-0.96888 l 4e-5,-0.58048 -0.92252,-0.004 c -0.9682,-0.004 -1.61721,-0.0675 -2.29726,-0.2261 -0.19678,-0.0459 -0.36481,-0.0764 -0.37339,-0.0678 -0.0291,0.0291 0.22925,0.76569 0.35797,1.02068 0.36747,0.72796 0.92468,0.9691 2.16661,0.93759 0.45512,-0.0115 0.55489,-0.0269 0.7256,-0.11154 z m 8.3979,0.0282 c 0.5642,-0.14974 0.84981,-0.39187 1.1028,-0.93488 0.17271,-0.3707 0.36218,-0.94262 0.32469,-0.98011 -0.0122,-0.0122 -0.17751,0.0164 -0.36751,0.0635 -0.76438,0.18932 -2.00475,0.31709 -2.79435,0.28786 l -0.43276,-0.016 0,0.58153 c 4e-5,0.47112 0.0139,0.60882 0.0726,0.72524 0.0867,0.17184 0.26906,0.28523 0.53809,0.33454 0.28525,0.0523 1.2748,0.0131 1.55641,-0.0617 z m -7.7723,-2.44548 c 0.76664,-0.21097 1.42684,-0.55487 2.0208,-1.05265 0.48125,-0.40332 0.6209,-0.40133 1.12073,0.016 0.71636,0.59805 1.45298,0.94146 2.40145,1.11955 0.68173,0.12801 2.15893,0.0206 3.1572,-0.22959 0.86163,-0.21593 1.62358,-0.66265 1.80264,-1.05686 0.0938,-0.20644 0.0969,-0.32148 0.013,-0.48375 -0.13042,-0.25222 -0.45875,-0.2961 -0.82342,-0.11006 -0.14341,0.0732 -0.21586,0.0817 -0.52021,0.0613 -0.43635,-0.0293 -0.98771,-0.18534 -1.45236,-0.41109 -0.33089,-0.16077 -0.40761,-0.22633 -1.25538,-1.07289 -0.9006,-0.89931 -1.19142,-1.13993 -1.4981,-1.23952 -0.25174,-0.0817 -0.6246,-0.0266 -1.1317,0.16736 -1.29451,0.49516 -1.25559,0.4927 -2.1684,0.13711 -0.7673,-0.29891 -1.01159,-0.36211 -1.30555,-0.33773 -0.3761,0.0312 -0.61132,0.20819 -1.62462,1.22256 -0.9142,0.91516 -0.92156,0.92133 -1.34754,1.12913 -0.74827,0.36502 -1.57132,0.51198 -1.94434,0.34717 -0.2795,-0.12349 -0.40689,-0.14488 -0.56064,-0.0941 -0.19197,0.0634 -0.30745,0.22154 -0.30745,0.42112 0,0.21985 0.079,0.35721 0.34588,0.60108 0.69774,0.6377 2.31423,1.02984 4.06991,0.98733 0.50714,-0.0123 0.69323,-0.0347 1.00816,-0.12135 z m 9.27751,-2.56312 c -0.0177,-0.0853 -0.0889,-2.2539 -0.12,-3.65909 -0.0139,-0.62918 -0.064,-0.81947 -0.2215,-0.84201 -0.22207,-0.0318 -0.3752,0.32906 -0.55573,1.30948 -0.2686,1.45871 -0.43481,1.95421 -0.76987,2.29516 l -0.18861,0.19193 0.26118,0.21134 c 0.14366,0.11624 0.38329,0.26034 0.53252,0.32024 0.32005,0.12845 0.80449,0.26074 0.96663,0.26396 0.0976,0.002 0.1119,-0.0117 0.0954,-0.091 z m -12.75255,-0.034 c 0.42098,-0.11666 0.81482,-0.33162 1.0558,-0.57628 l 0.20077,-0.20384 -0.13056,-0.14869 c -0.28235,-0.32159 -0.40045,-0.68032 -0.66306,-2.01409 -0.22191,-1.12712 -0.33982,-1.46868 -0.52284,-1.51461 -0.12887,-0.0324 -0.2114,0.0275 -0.24907,0.18057 -0.0152,0.062 -0.0435,0.71915 -0.0628,1.4603 -0.0192,0.74115 -0.0489,1.69739 -0.066,2.12497 -0.0358,0.89974 -0.0772,0.83435 0.43768,0.69167 z"
         style="display:inline;fill:#ffffff;fill-opacity:1;enable-background:new"
         sodipodi:nodetypes="cscsscsscccsssscccsccsssssssssssssssssscsssscsssscssscssccsscsss" />
      <path
         inkscape:connector-curvature="0"
         id="path4330-0-70"
         d="m 421.59861,151.91418 c 0.22647,-0.11231 0.25717,-0.19907 0.25721,-0.72665 l 3e-5,-0.43537 -0.69189,-0.003 c -0.72615,-0.003 -1.21291,-0.0507 -1.72295,-0.16958 -0.14758,-0.0344 -0.2736,-0.0573 -0.28004,-0.0509 -0.0218,0.0218 0.17194,0.57427 0.26848,0.76551 0.2756,0.54597 0.69351,0.72682 1.62496,0.70319 0.34134,-0.009 0.41616,-0.0202 0.5442,-0.0837 z m 6.29842,0.0212 c 0.42315,-0.1123 0.63736,-0.2939 0.8271,-0.70115 0.12953,-0.27803 0.27163,-0.70697 0.24352,-0.73508 -0.009,-0.009 -0.13314,0.0123 -0.27564,0.0476 -0.57328,0.14199 -1.50356,0.23782 -2.09576,0.2159 l -0.32457,-0.012 0,0.43614 c 3e-5,0.35334 0.0104,0.45661 0.0544,0.54393 0.065,0.12888 0.2018,0.21392 0.40357,0.25091 0.21394,0.0392 0.9561,0.01 1.16731,-0.0462 z m -5.82922,-1.83411 c 0.57498,-0.15822 1.07013,-0.41614 1.5156,-0.78948 0.36094,-0.30249 0.46567,-0.301 0.84054,0.012 0.53727,0.44854 1.08973,0.70609 1.80109,0.83966 0.5113,0.096 1.6192,0.0155 2.3679,-0.17219 0.64622,-0.16195 1.21768,-0.49698 1.35198,-0.79264 0.0703,-0.15484 0.0726,-0.24112 0.01,-0.36282 -0.0978,-0.18916 -0.34406,-0.22207 -0.61756,-0.0825 -0.10756,0.0549 -0.1619,0.0613 -0.39016,0.046 -0.32726,-0.022 -0.74078,-0.13901 -1.08927,-0.30832 -0.24817,-0.12057 -0.30571,-0.16975 -0.94154,-0.80466 -0.67545,-0.67449 -0.89356,-0.85496 -1.12357,-0.92965 -0.18881,-0.0613 -0.46845,-0.0199 -0.84878,0.12553 -0.97087,0.37137 -0.94168,0.36952 -1.62629,0.10283 -0.57548,-0.22419 -0.75869,-0.27158 -0.97916,-0.2533 -0.28208,0.0234 -0.4585,0.15614 -1.21847,0.91692 -0.68565,0.68637 -0.69117,0.691 -1.01066,0.84685 -0.5612,0.27376 -1.17849,0.38398 -1.45825,0.26037 -0.20963,-0.0926 -0.30517,-0.10866 -0.42048,-0.0706 -0.14398,0.0475 -0.23059,0.16615 -0.23059,0.31584 0,0.16489 0.0593,0.26791 0.25941,0.45081 0.52331,0.47827 1.73567,0.77238 3.05243,0.7405 0.38036,-0.009 0.51993,-0.026 0.75612,-0.091 z m 6.95813,-1.92233 c -0.0133,-0.064 -0.0667,-1.69043 -0.09,-2.74433 -0.0105,-0.47187 -0.048,-0.61459 -0.16613,-0.6315 -0.16655,-0.0239 -0.2814,0.2468 -0.4168,0.98211 -0.20145,1.09403 -0.3261,1.46566 -0.5774,1.72137 l -0.14146,0.14395 0.19589,0.1585 c 0.10774,0.0872 0.28747,0.19526 0.39939,0.24018 0.24004,0.0963 0.60337,0.19556 0.72497,0.19797 0.0732,0.002 0.0839,-0.009 0.0715,-0.0682 z m -9.56441,-0.0254 c 0.31573,-0.0875 0.61111,-0.24872 0.79185,-0.43221 l 0.15057,-0.15288 -0.0979,-0.11152 c -0.21176,-0.24119 -0.30033,-0.51024 -0.49729,-1.51057 -0.16643,-0.84533 -0.25487,-1.1015 -0.39213,-1.13595 -0.0967,-0.0243 -0.15855,0.0206 -0.1868,0.13543 -0.0114,0.0465 -0.0326,0.53936 -0.0471,1.09522 -0.0144,0.55586 -0.0367,1.27304 -0.0495,1.59373 -0.0268,0.6748 -0.0579,0.62576 0.32826,0.51875 z"
         style="display:inline;fill:#ffffff;fill-opacity:1;enable-background:new"
         sodipodi:nodetypes="cscsscsscccsssscccsccsssssssssssssssssscsssscsssscssscssccsscsss" />
    </g>
    <g
       inkscape:groupmode="layer"
       id="layer5"
       inkscape:label="Highlights"
       style="display:inline"
       sodipodi:insensitive="true">
      <path
         style="opacity:0.12999998;color:#bebebe;fill:#ffffff;fill-opacity:1;fill-rule:nonzero;stroke:none;stroke-width:0;marker:none;visibility:visible;display:inline;overflow:visible;enable-background:accumulate"
         d="M 84,47 C 56.836703,47 35,68.836703 35,96 l 0,1 C 35,69.836703 56.836703,48 84,48 l 120,0 c 27.1633,0 49,21.836703 49,49 l 0,-1 C 253,68.836703 231.1633,47 204,47 L 84,47 z"
         id="rect3894"
         inkscape:connector-curvature="0" />
      <path
         style="opacity:0.12999998;color:#bebebe;fill:#ffffff;fill-opacity:1;fill-rule:nonzero;stroke:none;stroke-width:0;marker:none;visibility:visible;display:inline;overflow:visible;enable-background:accumulate"
         d="m 419,141 c -1.1253,0 -2,0.8747 -2,2 l 0,1 c 0,-1.1253 0.8747,-2 2,-2 l 10,0 c 1.1253,0 2,0.8747 2,2 l 0,-1 c 0,-1.1253 -0.8747,-2 -2,-2 l -10,0 z"
         id="rect3896"
         inkscape:connector-curvature="0" />
      <path
         style="opacity:0.12999998;color:#bebebe;fill:#ffffff;fill-opacity:1;fill-rule:nonzero;stroke:none;stroke-width:0;marker:none;visibility:visible;display:inline;overflow:visible;enable-background:accumulate"
         d="m 422,102 c -2.2333,0 -4,1.7667 -4,4 l 0,1 c 0,-2.2333 1.7667,-4 4,-4 l 12,0 c 2.2333,0 4,1.7667 4,4 l 0,-1 c 0,-2.2333 -1.7667,-4 -4,-4 l -12,0 z"
         id="rect3898"
         inkscape:connector-curvature="0" />
      <path
         style="opacity:0.12999998;color:#bebebe;fill:#ffffff;fill-opacity:1;fill-rule:nonzero;stroke:none;stroke-width:0;marker:none;visibility:visible;display:inline;overflow:visible;enable-background:accumulate"
         d="m 424,54 c -3.3413,0 -6,2.658703 -6,6 l 0,1 c 0,-3.341297 2.6587,-6 6,-6 l 16,0 c 3.3413,0 6,2.658703 6,6 l 0,-1 c 0,-3.341297 -2.6587,-6 -6,-6 l -16,0 z"
         id="rect3900"
         inkscape:connector-curvature="0" />
      <path
         style="opacity:0.12999998;color:#bebebe;fill:#ffffff;fill-opacity:1;fill-rule:nonzero;stroke:none;stroke-width:0;marker:none;visibility:visible;display:inline;overflow:visible;enable-background:accumulate"
         d="m 300,224 c -4.4493,0 -8,3.5507 -8,8 l 0,1 c 0,-4.4493 3.5507,-8 8,-8 l 24,0 c 4.4493,0 8,3.5507 8,8 l 0,-1 c 0,-4.4493 -3.5507,-8 -8,-8 l -24,0 z"
         id="rect3902"
         inkscape:connector-curvature="0" />
      <path
         style="opacity:0.12999998;color:#bebebe;fill:#ffffff;fill-opacity:1;fill-rule:nonzero;stroke:none;stroke-width:0;marker:none;visibility:visible;display:inline;overflow:visible;enable-background:accumulate"
         d="m 310,33 c -9.4353,0 -17,7.564703 -17,17 l 0,1 c 0,-9.435297 7.5647,-17 17,-17 l 52,0 c 9.4353,0 17,7.564703 17,17 l 0,-1 c 0,-9.435297 -7.5647,-17 -17,-17 l -52,0 z"
         id="rect3904"
         inkscape:connector-curvature="0" />
      <path
         style="opacity:0.12999998;color:#bebebe;fill:#ffffff;fill-opacity:1;fill-rule:nonzero;stroke:none;stroke-width:0;marker:none;visibility:visible;display:inline;overflow:visible;enable-background:accumulate"
         d="m 302.5,143 c -6.3883,0 -11.5,5.1117 -11.5,11.5 l 0,1 c 0,-6.3883 5.1117,-11.5 11.5,-11.5 l 35,0 c 6.3883,0 11.5,5.1117 11.5,11.5 l 0,-1 c 0,-6.3883 -5.1117,-11.5 -11.5,-11.5 l -35,0 z"
         id="rect3906"
         inkscape:connector-curvature="0" />
      <path
         id="path4085"
         d="m 204,266 c 27.1633,0 49,-21.8367 49,-49 l 0,-1 c 0,27.1633 -21.8367,49 -49,49 L 84,265 C 56.8367,265 35,243.1633 35,216 l 0,1 c 0,27.1633 21.8367,49 49,49 l 120,0 z"
         style="opacity:0.5;color:#bebebe;fill:#000000;fill-opacity:1;fill-rule:nonzero;stroke:none;stroke-width:0;marker:none;visibility:visible;display:inline;overflow:visible;enable-background:accumulate"
         inkscape:connector-curvature="0" />
      <path
         id="path4087"
         d="m 429,156 c 1.1253,0 2,-0.8747 2,-2 l 0,-1 c 0,1.1253 -0.8747,2 -2,2 l -10,0 c -1.1253,0 -2,-0.8747 -2,-2 l 0,1 c 0,1.1253 0.8747,2 2,2 l 10,0 z"
         style="opacity:0.3;color:#bebebe;fill:#000000;fill-opacity:1;fill-rule:nonzero;stroke:none;stroke-width:0;marker:none;visibility:visible;display:inline;overflow:visible;enable-background:accumulate"
         inkscape:connector-curvature="0" />
      <path
         id="path4089"
         d="m 434,123 c 2.2333,0 4,-1.7667 4,-4 l 0,-1 c 0,2.2333 -1.7667,4 -4,4 l -12,0 c -2.2333,0 -4,-1.7667 -4,-4 l 0,1 c 0,2.2333 1.7667,4 4,4 l 12,0 z"
         style="opacity:0.3;color:#bebebe;fill:#000000;fill-opacity:1;fill-rule:nonzero;stroke:none;stroke-width:0;marker:none;visibility:visible;display:inline;overflow:visible;enable-background:accumulate"
         inkscape:connector-curvature="0" />
      <path
         id="path4091"
         d="m 440,83 c 3.3413,0 6,-2.6587 6,-6 l 0,-1 c 0,3.3413 -2.6587,6 -6,6 l -16,0 c -3.3413,0 -6,-2.6587 -6,-6 l 0,1 c 0,3.3413 2.6587,6 6,6 l 16,0 z"
         style="opacity:0.5;color:#bebebe;fill:#000000;fill-opacity:1;fill-rule:nonzero;stroke:none;stroke-width:0;marker:none;visibility:visible;display:inline;overflow:visible;enable-background:accumulate"
         inkscape:connector-curvature="0" />
      <path
         id="path4093"
         d="m 324,265 c 4.4493,0 8,-3.5507 8,-8 l 0,-1 c 0,4.4493 -3.5507,8 -8,8 l -24,0 c -4.4493,0 -8,-3.5507 -8,-8 l 0,1 c 0,4.4493 3.5507,8 8,8 l 24,0 z"
         style="opacity:0.5;color:#bebebe;fill:#000000;fill-opacity:1;fill-rule:nonzero;stroke:none;stroke-width:0;marker:none;visibility:visible;display:inline;overflow:visible;enable-background:accumulate"
         inkscape:connector-curvature="0" />
      <path
         id="path4095"
         d="m 362,120 c 9.4353,0 17,-7.5647 17,-17 l 0,-1 c 0,9.4353 -7.5647,17 -17,17 l -52,0 c -9.4353,0 -17,-7.5647 -17,-17 l 0,1 c 0,9.4353 7.5647,17 17,17 l 52,0 z"
         style="opacity:0.5;color:#bebebe;fill:#000000;fill-opacity:1;fill-rule:nonzero;stroke:none;stroke-width:0;marker:none;visibility:visible;display:inline;overflow:visible;enable-background:accumulate"
         inkscape:connector-curvature="0" />
      <path
         id="path4097"
         d="m 337.5,202 c 6.3883,0 11.5,-5.1117 11.5,-11.5 l 0,-1 c 0,6.3883 -5.1117,11.5 -11.5,11.5 l -35,0 c -6.3883,0 -11.5,-5.1117 -11.5,-11.5 l 0,1 c 0,6.3883 5.1117,11.5 11.5,11.5 l 35,0 z"
         style="opacity:0.5;color:#bebebe;fill:#000000;fill-opacity:1;fill-rule:nonzero;stroke:none;stroke-width:0;marker:none;visibility:visible;display:inline;overflow:visible;enable-background:accumulate"
         inkscape:connector-curvature="0" />
      <path
         inkscape:connector-curvature="0"
         id="path4280"
         d="M 84,265 C 56.836703,265 35,243.1633 35,216 l 0,-1 c 0,27.1633 21.836703,49 49,49 l 120,0 c 27.1633,0 49,-21.8367 49,-49 l 0,1 c 0,27.1633 -21.8367,49 -49,49 l -120,0 z"
         style="opacity:0.1;color:#bebebe;fill:#ffffff;fill-opacity:1;fill-rule:nonzero;stroke:none;stroke-width:0;marker:none;visibility:visible;display:inline;overflow:visible;enable-background:accumulate" />
      <path
         style="opacity:0.1;color:#bebebe;fill:#ffffff;fill-opacity:1;fill-rule:nonzero;stroke:none;stroke-width:0;marker:none;visibility:visible;display:inline;overflow:visible;enable-background:accumulate"
         d="m 300,264 c -4.4493,0 -8,-3.5507 -8,-8 l 0,-1 c 0,4.4493 3.5507,8 8,8 l 24,0 c 4.4493,0 8,-3.5507 8,-8 l 0,1 c 0,4.4493 -3.5507,8 -8,8 l -24,0 z"
         id="path4294"
         inkscape:connector-curvature="0" />
      <path
         style="opacity:0.1;color:#bebebe;fill:#ffffff;fill-opacity:1;fill-rule:nonzero;stroke:none;stroke-width:0;marker:none;visibility:visible;display:inline;overflow:visible;enable-background:accumulate"
         d="m 302.5,201 c -6.3883,0 -11.5,-5.1117 -11.5,-11.5 l 0,-1 c 0,6.3883 5.1117,11.5 11.5,11.5 l 35,0 c 6.3883,0 11.5,-5.1117 11.5,-11.5 l 0,1 c 0,6.3883 -5.1117,11.5 -11.5,11.5 l -35,0 z"
         id="path4296"
         inkscape:connector-curvature="0" />
      <path
         style="opacity:0.1;color:#bebebe;fill:#ffffff;fill-opacity:1;fill-rule:nonzero;stroke:none;stroke-width:0;marker:none;visibility:visible;display:inline;overflow:visible;enable-background:accumulate"
         d="m 310,119 c -9.4353,0 -17,-7.5647 -17,-17 l 0,-1 c 0,9.4353 7.5647,17 17,17 l 52,0 c 9.4353,0 17,-7.5647 17,-17 l 0,1 c 0,9.4353 -7.5647,17 -17,17 l -52,0 z"
         id="path4298"
         inkscape:connector-curvature="0" />
      <path
         style="opacity:0.1;color:#bebebe;fill:#ffffff;fill-opacity:1;fill-rule:nonzero;stroke:none;stroke-width:0;marker:none;visibility:visible;display:inline;overflow:visible;enable-background:accumulate"
         d="m 424,82 c -3.3413,0 -6,-2.658703 -6,-6 l 0,-1 c 0,3.341297 2.6587,6 6,6 l 16,0 c 3.3413,0 6,-2.658703 6,-6 l 0,1 c 0,3.341297 -2.6587,6 -6,6 l -16,0 z"
         id="path4300"
         inkscape:connector-curvature="0" />
      <path
         style="opacity:0.1;color:#bebebe;fill:#ffffff;fill-opacity:1;fill-rule:nonzero;stroke:none;stroke-width:0;marker:none;visibility:visible;display:inline;overflow:visible;enable-background:accumulate"
         d="m 422,122 c -2.2333,0 -4,-1.7667 -4,-4 l 0,-1 c 0,2.2333 1.7667,4 4,4 l 12,0 c 2.2333,0 4,-1.7667 4,-4 l 0,1 c 0,2.2333 -1.7667,4 -4,4 l -12,0 z"
         id="path4302"
         inkscape:connector-curvature="0" />
      <path
         style="opacity:0.1;color:#bebebe;fill:#ffffff;fill-opacity:1;fill-rule:nonzero;stroke:none;stroke-width:0;marker:none;visibility:visible;display:inline;overflow:visible;enable-background:accumulate"
         d="m 419,154.5 c -1.1253,0 -2,-0.8747 -2,-2 l 0,-1 c 0,1.1253 0.8747,2 2,2 l 10,0 c 1.1253,0 2,-0.8747 2,-2 l 0,1 c 0,1.1253 -0.8747,2 -2,2 l -10,0 z"
         id="path4304"
         inkscape:connector-curvature="0" />
    </g>
    <g
       inkscape:groupmode="layer"
       id="layer3"
       inkscape:label="Border"
       style="display:inline"
       sodipodi:insensitive="true">
      <path
         style="opacity:0.41000001;color:#bebebe;fill:#000000;fill-opacity:1;fill-rule:nonzero;stroke:none;stroke-width:0;marker:none;visibility:visible;display:inline;overflow:visible;enable-background:accumulate"
         d="m 422,101 c -2.77,0 -5,2.23 -5,5 l 0,12 c 0,2.77 2.23,5 5,5 l 12,0 c 2.77,0 5,-2.23 5,-5 l 0,-12 c 0,-2.77 -2.23,-5 -5,-5 l -12,0 z m 0,1 12,0 c 2.2333,0 4,1.7667 4,4 l 0,12 c 0,2.2333 -1.7667,4 -4,4 l -12,0 c -2.2333,0 -4,-1.7667 -4,-4 l 0,-12 c 0,-2.2333 1.7667,-4 4,-4 z"
         id="rect4099"
         inkscape:connector-curvature="0" />
      <path
         style="opacity:0.41000001;color:#bebebe;fill:#000000;fill-opacity:1;fill-rule:nonzero;stroke:none;stroke-width:0;marker:none;visibility:visible;display:inline;overflow:visible;enable-background:accumulate"
         d="m 424,53 c -3.878,0 -7,3.122 -7,7 l 0,16 c 0,3.878 3.122,7 7,7 l 16,0 c 3.878,0 7,-3.122 7,-7 l 0,-16 c 0,-3.878 -3.122,-7 -7,-7 l -16,0 z m 0,1 16,0 c 3.3413,0 6,2.658703 6,6 l 0,16 c 0,3.341297 -2.6587,6 -6,6 l -16,0 c -3.3413,0 -6,-2.658703 -6,-6 l 0,-16 c 0,-3.341297 2.6587,-6 6,-6 z"
         id="rect4151"
         inkscape:connector-curvature="0" />
      <path
         style="opacity:0.41000001;color:#bebebe;fill:#000000;fill-opacity:1;fill-rule:nonzero;stroke:none;stroke-width:0;marker:none;visibility:visible;display:inline;overflow:visible;enable-background:accumulate"
         d="m 419,140 c -1.662,0 -3,1.338 -3,3 l 0,10 c 0,1.662 1.338,3 3,3 l 10,0 c 1.662,0 3,-1.338 3,-3 l 0,-10 c 0,-1.662 -1.338,-3 -3,-3 l -10,0 z m 0,1 10,0 c 1.1253,0 2,0.8747 2,2 l 0,10 c 0,1.1253 -0.8747,2 -2,2 l -10,0 c -1.1253,0 -2,-0.8747 -2,-2 l 0,-10 c 0,-1.1253 0.8747,-2 2,-2 z"
         id="rect4095"
         inkscape:connector-curvature="0" />
      <path
         style="opacity:0.41000001;color:#bebebe;fill:#000000;fill-opacity:1;fill-rule:nonzero;stroke:none;stroke-width:0;marker:none;visibility:visible;display:inline;overflow:visible;enable-background:accumulate"
         d="m 300,223 c -4.986,0 -9,4.014 -9,9 l 0,24 c 0,4.986 4.014,9 9,9 l 24,0 c 4.986,0 9,-4.014 9,-9 l 0,-24 c 0,-4.986 -4.014,-9 -9,-9 l -24,0 z m 0,1 24,0 c 4.4493,0 8,3.5507 8,8 l 0,24 c 0,4.4493 -3.5507,8 -8,8 l -24,0 c -4.4493,0 -8,-3.5507 -8,-8 l 0,-24 c 0,-4.4493 3.5507,-8 8,-8 z"
         id="rect4783"
         inkscape:connector-curvature="0" />
      <path
         style="opacity:0.41000001;color:#bebebe;fill:#000000;fill-opacity:1;fill-rule:nonzero;stroke:none;stroke-width:0;marker:none;visibility:visible;display:inline;overflow:visible;enable-background:accumulate"
         d="m 302.5,142 c -6.925,0 -12.5,5.575 -12.5,12.5 l 0,35 c 0,6.925 5.575,12.5 12.5,12.5 l 35,0 c 6.925,0 12.5,-5.575 12.5,-12.5 l 0,-35 c 0,-6.925 -5.575,-12.5 -12.5,-12.5 l -35,0 z m 0,1 35,0 c 6.3883,0 11.5,5.1117 11.5,11.5 l 0,35 c 0,6.3883 -5.1117,11.5 -11.5,11.5 l -35,0 c -6.3883,0 -11.5,-5.1117 -11.5,-11.5 l 0,-35 c 0,-6.3883 5.1117,-11.5 11.5,-11.5 z"
         id="rect4515"
         inkscape:connector-curvature="0" />
      <path
         style="opacity:0.41000001;color:#bebebe;fill:#000000;fill-opacity:1;fill-rule:nonzero;stroke:none;stroke-width:0;marker:none;visibility:visible;display:inline;overflow:visible;enable-background:accumulate"
         d="m 310,32 c -9.972,0 -18,8.028 -18,18 l 0,52 c 0,9.972 8.028,18 18,18 l 52,0 c 9.972,0 18,-8.028 18,-18 l 0,-52 c 0,-9.972 -8.028,-18 -18,-18 l -52,0 z m 0,1 52,0 c 9.4353,0 17,7.564703 17,17 l 0,52 c 0,9.4353 -7.5647,17 -17,17 l -52,0 c -9.4353,0 -17,-7.5647 -17,-17 l 0,-52 c 0,-9.435297 7.5647,-17 17,-17 z"
         id="rect4511"
         inkscape:connector-curvature="0" />
      <path
         style="opacity:0.41000001;color:#bebebe;fill:#000000;fill-opacity:1;fill-rule:nonzero;stroke:none;stroke-width:0;marker:none;visibility:visible;display:inline;overflow:visible;enable-background:accumulate"
         d="M 84,46 C 56.3,46 34,68.3 34,96 l 0,120 c 0,27.7 22.3,50 50,50 l 120,0 c 27.7,0 50,-22.3 50,-50 L 254,96 C 254,68.3 231.7,46 204,46 L 84,46 z m 0,1 120,0 c 27.1633,0 49,21.836703 49,49 l 0,120 c 0,27.1633 -21.8367,49 -49,49 L 84,265 C 56.836703,265 35,243.1633 35,216 L 35,96 C 35,68.836703 56.836703,47 84,47 z"
         id="rect4040"
         inkscape:connector-curvature="0" />
    </g>
  </g>
</svg>
