<?xml version="1.0" encoding="UTF-8" standalone="no"?>
<!-- Created with Inkscape (http://www.inkscape.org/) -->

<svg
   xmlns:dc="http://purl.org/dc/elements/1.1/"
   xmlns:cc="http://creativecommons.org/ns#"
   xmlns:rdf="http://www.w3.org/1999/02/22-rdf-syntax-ns#"
   xmlns:svg="http://www.w3.org/2000/svg"
   xmlns="http://www.w3.org/2000/svg"
   xmlns:xlink="http://www.w3.org/1999/xlink"
   xmlns:sodipodi="http://sodipodi.sourceforge.net/DTD/sodipodi-0.dtd"
   xmlns:inkscape="http://www.inkscape.org/namespaces/inkscape"
   inkscape:export-ydpi="90.000000"
   inkscape:export-xdpi="90.000000"
   width="480"
   height="300"
   id="svg11300"
   sodipodi:version="0.32"
   inkscape:version="0.92.1 r"
   sodipodi:docname="desktop-environment-kde.svg"
   inkscape:output_extension="org.inkscape.output.svg.inkscape"
   version="1.0"
   style="display:inline;enable-background:new"
   inkscape:export-filename="/home/sam/moka-next-template.png">
  <sodipodi:namedview
     stroke="#ef2929"
     fill="#f57900"
     id="base"
     pagecolor="#777777"
     bordercolor="#666666"
     borderopacity="0.25490196"
     inkscape:pageopacity="0"
     inkscape:pageshadow="2"
     inkscape:zoom="1.4142136"
     inkscape:cx="234.34897"
     inkscape:cy="186.23792"
     inkscape:current-layer="layer7"
     showgrid="false"
     inkscape:grid-bbox="true"
     inkscape:document-units="px"
     inkscape:showpageshadow="false"
     inkscape:window-width="1364"
     inkscape:window-height="700"
     inkscape:window-x="0"
     inkscape:window-y="28"
     width="400px"
     height="300px"
     inkscape:snap-nodes="true"
     inkscape:snap-bbox="true"
     gridtolerance="10000"
     inkscape:object-nodes="true"
     inkscape:snap-grids="true"
     showguides="false"
     inkscape:guide-bbox="true"
     inkscape:window-maximized="1"
     inkscape:bbox-nodes="true"
     inkscape:bbox-paths="true"
     inkscape:snap-bbox-edge-midpoints="true"
     inkscape:snap-bbox-midpoints="true"
     inkscape:snap-intersection-paths="false"
     inkscape:object-paths="false"
     inkscape:snap-smooth-nodes="false"
     inkscape:snap-midpoints="false">
    <inkscape:grid
       spacingy="1px"
       spacingx="1px"
       id="grid5883"
       type="xygrid"
       enabled="true"
       visible="true"
       empspacing="4"
       snapvisiblegridlinesonly="true"
       dotted="false"
       color="#000000"
       opacity="0.1254902"
       empcolor="#203ef3"
       empopacity="0.36470588" />
    <inkscape:grid
       type="xygrid"
       id="grid11592"
       empspacing="8"
       visible="true"
       enabled="false"
       spacingx="0.5px"
       spacingy="0.5px"
       color="#ff0000"
       opacity="0.1254902"
       empcolor="#ff0000"
       empopacity="0.25098039"
       snapvisiblegridlinesonly="true"
       dotted="true" />
  </sodipodi:namedview>
  <defs
     id="defs3">
    <linearGradient
       id="linearGradient4193"
       inkscape:collect="always">
      <stop
         id="stop4189"
         offset="0"
         style="stop-color:#1a1a1a;stop-opacity:1" />
      <stop
         id="stop4191"
         offset="1"
         style="stop-color:#474747;stop-opacity:1" />
    </linearGradient>
    <linearGradient
       inkscape:collect="always"
       xlink:href="#linearGradient4193"
       id="linearGradient4256"
       x1="417"
       y1="148"
       x2="431"
       y2="148"
       gradientUnits="userSpaceOnUse"
       gradientTransform="rotate(-90,424,148)" />
    <linearGradient
       inkscape:collect="always"
       xlink:href="#linearGradient4193"
       id="linearGradient4260"
       x1="418"
       y1="68"
       x2="446"
       y2="68"
       gradientUnits="userSpaceOnUse"
       gradientTransform="rotate(-90,432,68)" />
    <linearGradient
       inkscape:collect="always"
       xlink:href="#linearGradient4193"
       id="linearGradient4262"
       x1="292"
       y1="244"
       x2="332"
       y2="244"
       gradientUnits="userSpaceOnUse"
       gradientTransform="rotate(-90,312,244)" />
    <linearGradient
       inkscape:collect="always"
       xlink:href="#linearGradient4193"
       id="linearGradient4264"
       x1="293"
       y1="76"
       x2="379"
       y2="76"
       gradientUnits="userSpaceOnUse"
       gradientTransform="rotate(-90,336,76)" />
    <linearGradient
       inkscape:collect="always"
       xlink:href="#linearGradient4193"
       id="linearGradient4266"
       x1="291"
       y1="172"
       x2="349"
       y2="172"
       gradientUnits="userSpaceOnUse"
       gradientTransform="rotate(-90,320,172)" />
    <linearGradient
       inkscape:collect="always"
       xlink:href="#linearGradient4193"
       id="linearGradient3870"
       gradientUnits="userSpaceOnUse"
       gradientTransform="rotate(-90,428,112)"
       x1="418"
       y1="112"
       x2="438"
       y2="112" />
    <linearGradient
       inkscape:collect="always"
       xlink:href="#linearGradient4193"
       id="linearGradient4144"
       x1="144"
       y1="265.5"
       x2="144"
       y2="47"
       gradientUnits="userSpaceOnUse" />
  </defs>
  <metadata
     id="metadata4">
    <rdf:RDF>
      <cc:Work
         rdf:about="">
        <dc:format>image/svg+xml</dc:format>
        <dc:type
           rdf:resource="http://purl.org/dc/dcmitype/StillImage" />
        <dc:creator>
          <cc:Agent>
            <dc:title>Alfredo Hernández</dc:title>
          </cc:Agent>
        </dc:creator>
        <dc:source />
        <cc:license
           rdf:resource="" />
        <dc:title />
        <dc:subject>
          <rdf:Bag />
        </dc:subject>
        <dc:date />
        <dc:rights>
          <cc:Agent>
            <dc:title />
          </cc:Agent>
        </dc:rights>
        <dc:publisher>
          <cc:Agent>
            <dc:title />
          </cc:Agent>
        </dc:publisher>
        <dc:identifier />
        <dc:relation />
        <dc:language />
        <dc:coverage />
        <dc:description />
        <dc:contributor>
          <cc:Agent>
            <dc:title />
          </cc:Agent>
        </dc:contributor>
      </cc:Work>
      <cc:Work
         rdf:about="">
        <dc:format>image/svg+xml</dc:format>
        <dc:type
           rdf:resource="http://purl.org/dc/dcmitype/StillImage" />
      </cc:Work>
    </rdf:RDF>
  </metadata>
  <g
     style="display:inline"
     inkscape:groupmode="layer"
     inkscape:label="Icon"
     id="layer1">
    <g
       style="display:none"
       inkscape:label="Baseplate"
       id="layer7"
       inkscape:groupmode="layer">
      <text
         y="19.745117"
         xml:space="preserve"
         x="15.006836"
         style="font-style:normal;font-variant:normal;font-weight:normal;font-stretch:normal;line-height:0%;font-family:'DejaVu Sans';-inkscape-font-specification:'DejaVu Sans';display:inline;fill:#000000;fill-opacity:1;stroke:none;enable-background:new"
         inkscape:label="context"
         id="context"><tspan
           style="font-style:normal;font-variant:normal;font-weight:normal;font-stretch:normal;font-size:18px;line-height:1.25;font-family:'DejaVu Sans';-inkscape-font-specification:'DejaVu Sans'"
           y="19.745117"
           x="15.006836"
           sodipodi:role="line"
           id="tspan3933">apps</tspan></text>
      <text
         y="19.745117"
         xml:space="preserve"
         x="122.48828"
         style="font-style:normal;font-variant:normal;font-weight:bold;font-stretch:normal;line-height:0%;font-family:'DejaVu Sans';-inkscape-font-specification:'DejaVu Sans Bold';text-align:start;writing-mode:lr-tb;text-anchor:start;display:inline;fill:#000000;fill-opacity:1;stroke:none;enable-background:new"
         inkscape:label="icon-name"
         id="icon-name"><tspan
           style="font-style:normal;font-variant:normal;font-weight:bold;font-stretch:normal;font-size:18px;line-height:1.25;font-family:'DejaVu Sans';-inkscape-font-specification:'DejaVu Sans Bold'"
           y="19.745117"
           x="122.48828"
           sodipodi:role="line"
           id="tspan3937">kdeconnect</tspan></text>
      <rect
         style="display:inline;overflow:visible;visibility:visible;fill:#eeeeec;fill-opacity:1;fill-rule:nonzero;stroke:none;stroke-width:2;marker:none;enable-background:accumulate"
         id="rect16x16"
         width="16"
         height="16"
         x="416"
         y="140"
         inkscape:label="16x16" />
      <rect
         style="display:inline;overflow:visible;visibility:visible;fill:#d4d4d4;fill-opacity:1;fill-rule:nonzero;stroke:none;stroke-width:2;marker:none;enable-background:accumulate"
         id="rect24x24"
         width="24"
         height="24"
         x="416"
         y="100"
         inkscape:label="24x24" />
      <rect
         style="display:inline;overflow:visible;visibility:visible;fill:#eeeeec;fill-opacity:1;fill-rule:nonzero;stroke:none;stroke-width:2;marker:none;enable-background:accumulate"
         id="rect32x32"
         width="32"
         height="32"
         x="416"
         y="52"
         inkscape:label="32x32" />
      <rect
         inkscape:label="22x22"
         y="101"
         x="417"
         height="22"
         width="22"
         id="rect22x22"
         style="display:inline;overflow:visible;visibility:visible;fill:#eeeeec;fill-opacity:1;fill-rule:nonzero;stroke:none;stroke-width:2;marker:none;enable-background:accumulate" />
      <rect
         inkscape:label="48x48"
         y="220"
         x="288"
         height="48"
         width="48"
         id="rect48x48"
         style="display:inline;overflow:visible;visibility:visible;fill:#eeeeec;fill-opacity:1;fill-rule:nonzero;stroke:none;stroke-width:2;marker:none;enable-background:accumulate" />
      <rect
         style="display:inline;overflow:visible;visibility:visible;fill:#eeeeec;fill-opacity:1;fill-rule:nonzero;stroke:none;stroke-width:2;marker:none;enable-background:accumulate"
         id="rect256x256"
         width="256"
         height="256"
         x="16"
         y="28"
         inkscape:label="256x256" />
      <rect
         style="display:inline;overflow:visible;visibility:visible;fill:#eeeeec;fill-opacity:1;fill-rule:nonzero;stroke:none;stroke-width:2;marker:none;enable-background:accumulate"
         id="rect64x64"
         width="64"
         height="64"
         x="288"
         y="140"
         inkscape:label="64x64" />
      <rect
         style="display:inline;overflow:visible;visibility:visible;fill:#eeeeec;fill-opacity:1;fill-rule:nonzero;stroke:none;stroke-width:2;marker:none;enable-background:accumulate"
         id="rect96x96"
         width="96"
         height="96"
         x="288"
         y="28"
         inkscape:label="96x96" />
    </g>
    <g
       inkscape:groupmode="layer"
       id="layer4"
       inkscape:label="Shadow"
       style="display:inline"
       sodipodi:insensitive="true">
      <rect
         ry="50"
         y="47"
         x="34"
         height="220"
         width="220"
         id="rect4114"
         style="color:#bebebe;display:inline;overflow:visible;visibility:visible;opacity:0.1;fill:#000000;fill-opacity:1;fill-rule:nonzero;stroke:none;stroke-width:0;marker:none;enable-background:accumulate" />
      <rect
         style="color:#bebebe;display:inline;overflow:visible;visibility:visible;opacity:0.1;fill:#000000;fill-opacity:1;fill-rule:nonzero;stroke:none;stroke-width:0;marker:none;enable-background:accumulate"
         id="rect4120"
         width="30"
         height="30"
         x="417"
         y="54"
         ry="7" />
      <rect
         transform="scale(1,-1)"
         ry="9"
         y="-266"
         x="291"
         height="42"
         width="42"
         id="rect4122"
         style="color:#bebebe;display:inline;overflow:visible;visibility:visible;opacity:0.1;fill:#000000;fill-opacity:1;fill-rule:nonzero;stroke:none;stroke-width:0;marker:none;enable-background:accumulate" />
      <rect
         style="color:#bebebe;display:inline;overflow:visible;visibility:visible;opacity:0.1;fill:#000000;fill-opacity:1;fill-rule:nonzero;stroke:none;stroke-width:0;marker:none;enable-background:accumulate"
         id="rect4124"
         width="88"
         height="88"
         x="292"
         y="33"
         ry="18" />
      <rect
         ry="12.5"
         y="143"
         x="290"
         height="60"
         width="60"
         id="rect4126"
         style="color:#bebebe;display:inline;overflow:visible;visibility:visible;opacity:0.1;fill:#000000;fill-opacity:1;fill-rule:nonzero;stroke:none;stroke-width:0;marker:none;enable-background:accumulate" />
      <path
         id="path4268"
         d="m 422,101 c -2.77,0 -5,2.23 -5,5 v 12 c 0,2.77 2.23,5 5,5 h 12 c 2.77,0 5,-2.23 5,-5 v -12 c 0,-2.77 -2.23,-5 -5,-5 z"
         style="color:#bebebe;display:inline;overflow:visible;visibility:visible;opacity:0.1;fill:#000000;fill-opacity:1;fill-rule:nonzero;stroke:none;stroke-width:0;marker:none;enable-background:accumulate"
         inkscape:connector-curvature="0"
         sodipodi:nodetypes="sssssssss" />
      <path
         id="path4270"
         d="m 419,140 c -1.662,0 -3,1.338 -3,3 v 10 c 0,1.662 1.338,3 3,3 h 10 c 1.662,0 3,-1.338 3,-3 v -10 c 0,-1.662 -1.338,-3 -3,-3 z"
         style="color:#bebebe;display:inline;overflow:visible;visibility:visible;opacity:0.1;fill:#000000;fill-opacity:1;fill-rule:nonzero;stroke:none;stroke-width:0;marker:none;enable-background:accumulate"
         inkscape:connector-curvature="0"
         sodipodi:nodetypes="sssssssss" />
    </g>
    <g
       inkscape:groupmode="layer"
       id="layer2"
       inkscape:label="Background"
       style="display:inline">
      <path
         style="color:#bebebe;fill:url(#linearGradient4144);fill-opacity:1;fill-rule:nonzero;stroke:none;stroke-width:2;marker:none;visibility:visible;display:inline;overflow:visible;enable-background:accumulate"
         d="M 84 46.5 C 56.568735 46.5 34.5 68.568732 34.5 96 L 34.5 216 C 34.5 243.43127 56.568735 265.5 84 265.5 L 204 265.5 C 231.43127 265.5 253.5 243.43127 253.5 216 L 253.5 96 C 253.5 68.568732 231.43127 46.5 204 46.5 L 84 46.5 z "
         id="path4200" />
      <path
         style="color:#bebebe;fill:url(#linearGradient4256);fill-opacity:1.0;fill-rule:nonzero;stroke:none;stroke-width:2;marker:none;visibility:visible;display:inline;overflow:visible;enable-background:accumulate"
         d="M 419 140.5 C 417.6156 140.5 416.5 141.6156 416.5 143 L 416.5 153 C 416.5 154.3844 417.6156 155.5 419 155.5 L 429 155.5 C 430.3844 155.5 431.5 154.3844 431.5 153 L 431.5 143 C 431.5 141.6156 430.3844 140.5 429 140.5 L 419 140.5 z "
         id="path4202" />
      <path
         style="color:#bebebe;fill:url(#linearGradient3870);fill-opacity:1.0;fill-rule:nonzero;stroke:none;stroke-width:2;marker:none;visibility:visible;display:inline;overflow:visible;enable-background:accumulate"
         d="M 422 101.5 C 419.50301 101.5 417.5 103.50301 417.5 106 L 417.5 118 C 417.5 120.49699 419.50301 122.5 422 122.5 L 434 122.5 C 436.49699 122.5 438.5 120.49699 438.5 118 L 438.5 106 C 438.5 103.50301 436.49699 101.5 434 101.5 L 422 101.5 z "
         id="path4204" />
      <path
         style="color:#bebebe;fill:url(#linearGradient4260);fill-opacity:1.0;fill-rule:nonzero;stroke:none;stroke-width:2;marker:none;visibility:visible;display:inline;overflow:visible;enable-background:accumulate"
         d="M 424 53.5 C 420.39346 53.5 417.5 56.393464 417.5 60 L 417.5 76 C 417.5 79.606536 420.39346 82.5 424 82.5 L 440 82.5 C 443.60654 82.5 446.5 79.606536 446.5 76 L 446.5 60 C 446.5 56.393464 443.60654 53.5 440 53.5 L 424 53.5 z "
         id="path4206" />
      <path
         style="color:#bebebe;fill:url(#linearGradient4262);fill-opacity:1.0;fill-rule:nonzero;stroke:none;stroke-width:2;marker:none;visibility:visible;display:inline;overflow:visible;enable-background:accumulate"
         d="M 300 223.5 C 295.28469 223.5 291.5 227.28469 291.5 232 L 291.5 256 C 291.5 260.71531 295.28469 264.5 300 264.5 L 324 264.5 C 328.71531 264.5 332.5 260.71531 332.5 256 L 332.5 232 C 332.5 227.28469 328.71531 223.5 324 223.5 L 300 223.5 z "
         id="path4208" />
      <path
         style="color:#bebebe;fill:url(#linearGradient4264);fill-opacity:1.0;fill-rule:nonzero;stroke:none;stroke-width:2;marker:none;visibility:visible;display:inline;overflow:visible;enable-background:accumulate"
         d="M 310 32.5 C 300.29745 32.5 292.5 40.297452 292.5 50 L 292.5 102 C 292.5 111.70255 300.29745 119.5 310 119.5 L 362 119.5 C 371.70255 119.5 379.5 111.70255 379.5 102 L 379.5 50 C 379.5 40.297452 371.70255 32.5 362 32.5 L 310 32.5 z "
         id="path4210" />
      <path
         style="color:#bebebe;fill:url(#linearGradient4266);fill-opacity:1.0;fill-rule:nonzero;stroke:none;stroke-width:2;marker:none;visibility:visible;display:inline;overflow:visible;enable-background:accumulate"
         d="M 302.5 142.5 C 295.84498 142.5 290.5 147.84498 290.5 154.5 L 290.5 189.5 C 290.5 196.15502 295.84498 201.5 302.5 201.5 L 337.5 201.5 C 344.15502 201.5 349.5 196.15502 349.5 189.5 L 349.5 154.5 C 349.5 147.84498 344.15502 142.5 337.5 142.5 L 302.5 142.5 z "
         id="path4212" />
    </g>
    <g
       inkscape:groupmode="layer"
       id="layer6"
       inkscape:label="Symbols"
       style="display:inline">
      <path
         sodipodi:nodetypes="cccccccccccccccccccccccccccccccccccccccsccccccccccccccssccccccc"
         id="path4195"
         d="m 154.84001,87 -23.68349,1.718965 v 96.930425 l 23.68349,-2.96044 v -42.30559 c 10.28915,15.92028 18.53578,30.73087 32.27832,46.12551 l 24.54297,-7.25785 c -13.14178,-15.61888 -22.95994,-29.38739 -31.89632,-44.40654 9.31083,-14.118 20.96029,-28.27745 32.3738,-40.968622 L 186.73634,87.477492 C 174.87225,101.22004 164.30207,115.4194 154.84001,129.68758 Z m -53.95632,19.86356 c -0.3202,0.0504 -0.73159,0.25396 -1.050487,0.573 -2.77855,2.70346 -5.4343,5.41386 -8.21282,8.11733 -1.20153,1.20154 0.0473,2.65267 0.57298,3.62893 l 5.63439,8.02182 4.201907,5.82537 c 0.60076,0.82606 0.77681,0.92721 0.47748,1.52797 -0.37444,0.60077 -0.67499,1.1182 -1.05048,1.71897 -5.481997,9.46208 -1.654767,10.19526 -13.369704,13.27421 l -8.976809,1.52797 c -1.350693,0.45061 -3.07531,0.41457 -3.151435,2.29196 0,3.82987 -0.09534,7.62987 -0.09534,11.45974 -0.07516,1.72722 1.833983,1.89712 2.960431,2.19645 l 9.549803,1.71897 7.162347,1.33697 c 0.97622,0.15127 1.20611,-0.0813 1.43246,0.66848 2.92975,12.69117 6.766167,9.77945 0.38199,20.81856 l -5.15688,7.35334 c -0.67588,1.27766 -1.946175,2.54431 -0.66849,3.81992 2.70343,2.77852 5.31836,5.52977 8.02183,8.30832 1.201527,1.19946 2.747127,-0.0473 3.724417,-0.57299 l 7.92633,-5.63437 5.92086,-4.10641 c 0.8271,-0.67589 0.92721,-0.85194 1.52797,-0.4775 11.86408,7.43552 12.30274,2.06917 15.75717,14.6112 l 1.71895,8.9768 c 0.45058,1.35277 0.48966,3.07636 2.29195,3.15143 h 11.55525 c 1.72718,0 1.87672,-2.02499 2.10097,-3.15143 l 1.62345,-9.5498 1.14599,-7.06685 c 0.0753,-0.67587 0.0397,-1.01826 0.191,-1.24147 13.8927,-2.92978 10.4351,-7.08592 21.77353,-0.47749 l 7.35334,5.15689 c 1.35276,0.67585 2.63877,1.85064 3.91542,0.57298 2.77854,-2.62834 5.43427,-5.29797 8.21282,-7.92631 1.20152,-1.27767 0.0275,-2.74925 -0.57299,-3.72442 h -0.0953 l -5.34789,-7.54435 -3.53342,1.24148 c -0.90012,0.60076 -2.10113,0.37545 -3.15143,-1.05049 l -7.73533,-10.21827 c -7.2092,9.98774 -18.87046,16.42564 -32.08731,16.42564 -21.77675,0 -39.53615,-17.75733 -39.53615,-39.53615 0,-15.46976 8.97398,-28.87602 21.96452,-35.33423 v -9.07232 c -0.4506,0.22523 -0.9594,0.32732 -1.33697,0.47749 -5.10549,2.10269 -5.41609,3.08717 -13.75171,-1.71896 l -7.35334,-5.25239 c -1.01459,-0.45057 -1.90432,-1.29734 -2.86492,-1.14598 z"
         style="display:inline;overflow:visible;fill:#000000;fill-opacity:1;fill-rule:evenodd;stroke-width:0.875;enable-background:new;opacity:0.2"
         inkscape:connector-curvature="0" />
      <path
         sodipodi:nodetypes="cccccccccccccccccccccccccccccccccccccccsccccccccccccccssccccccc"
         id="path4197"
         d="m 322.78784,153 -6.76671,0.49113 v 27.69441 l 6.76671,-0.84584 v -12.08731 c 2.93976,4.54865 5.29594,8.78025 9.22238,13.17872 l 7.01228,-2.07368 c -3.75479,-4.46253 -6.55998,-8.39639 -9.11323,-12.68758 2.66023,-4.03371 5.98865,-8.07927 9.24965,-11.70532 l -7.25784,-1.8281 c -3.38974,3.92644 -6.40978,7.9834 -9.11324,12.06002 z m -15.41609,5.67531 c -0.0915,0.0144 -0.20903,0.0726 -0.30014,0.16371 -0.79387,0.77241 -1.55265,1.54681 -2.34652,2.31923 -0.34329,0.3433 0.0135,0.75791 0.16371,1.03684 l 1.60982,2.29195 1.20055,1.66439 c 0.17165,0.23602 0.22195,0.26492 0.13643,0.43656 -0.10699,0.17165 -0.19286,0.31949 -0.30014,0.49114 -1.56629,2.70345 -0.4728,2.91293 -3.81992,3.79263 l -2.5648,0.43656 c -0.38592,0.12875 -0.87866,0.11845 -0.90041,0.65485 0,1.09425 -0.0273,2.17996 -0.0273,3.27421 -0.0215,0.49349 0.524,0.54203 0.84584,0.62756 l 2.72852,0.49113 2.04638,0.38199 c 0.27892,0.0432 0.3446,-0.0232 0.40928,0.191 0.83707,3.62605 1.93319,2.79413 0.10914,5.94816 l -1.4734,2.10095 c -0.19311,0.36505 -0.55605,0.72695 -0.191,1.09141 0.77241,0.79386 1.51954,1.57993 2.29196,2.3738 0.34329,0.34271 0.78489,-0.0135 1.06412,-0.16371 l 2.26466,-1.60982 1.69168,-1.17326 c 0.23631,-0.19311 0.26491,-0.24341 0.43656,-0.13643 3.38974,2.12444 3.51506,0.59119 4.50204,4.17463 l 0.49114,2.5648 c 0.12873,0.38651 0.1399,0.87896 0.65484,0.90041 h 3.3015 c 0.49348,0 0.5362,-0.57857 0.60028,-0.90041 l 0.46384,-2.72851 0.32742,-2.0191 c 0.0215,-0.19311 0.0113,-0.29093 0.0546,-0.35471 3.96935,-0.83708 2.98146,-2.02455 6.22102,-0.13642 l 2.10095,1.47339 c 0.38651,0.1931 0.75393,0.52876 1.11869,0.16371 0.79387,-0.75095 1.55265,-1.5137 2.34652,-2.26466 0.3433,-0.36505 0.008,-0.7855 -0.16371,-1.06412 h -0.0273 l -1.52796,-2.15553 -1.00955,0.35471 c -0.25718,0.17165 -0.60033,0.10727 -0.90041,-0.30014 l -2.2101,-2.9195 c -2.05976,2.85364 -5.39156,4.69304 -9.1678,4.69304 -6.22192,0 -11.29604,-5.07353 -11.29604,-11.29605 0,-4.41993 2.564,-8.25029 6.27558,-10.09549 v -2.59209 c -0.12874,0.0643 -0.27412,0.0935 -0.382,0.13642 -1.4587,0.60077 -1.54745,0.88205 -3.92906,-0.49113 l -2.10095,-1.50068 c -0.28988,-0.12874 -0.54409,-0.37067 -0.81855,-0.32742 z"
         style="display:inline;overflow:visible;fill:#000000;fill-opacity:1;fill-rule:evenodd;enable-background:new;opacity:0.2"
         inkscape:connector-curvature="0" />
      <path
         sodipodi:nodetypes="cccccccccccccccccccccccccccccccccccccccsccccccccccccccssccccccc"
         inkscape:connector-curvature="0"
         style="display:inline;overflow:visible;fill:#000000;fill-opacity:1;fill-rule:evenodd;enable-background:new;opacity:0.2"
         d="m 313.77031,231 -4.7367,0.34379 v 19.38609 l 4.7367,-0.59209 v -8.46112 c 2.05783,3.18406 3.70716,6.14618 6.45567,9.22511 l 4.90859,-1.45158 c -2.62835,-3.12377 -4.59198,-5.87747 -6.37926,-8.88131 1.86216,-2.82359 4.19206,-5.65548 6.47476,-8.19372 l -5.08049,-1.27967 c -2.37282,2.74851 -4.48685,5.58838 -6.37927,8.44201 z m -10.79126,3.97272 c -0.064,0.0101 -0.14632,0.0508 -0.2101,0.11459 -0.55571,0.54069 -1.08685,1.08277 -1.64256,1.62346 -0.24031,0.24031 0.009,0.53054 0.11459,0.72579 l 1.12688,1.60437 0.84038,1.16507 c 0.12016,0.16521 0.15537,0.18544 0.0955,0.30559 -0.0749,0.12016 -0.135,0.22365 -0.21009,0.3438 -1.09641,1.89242 -0.33096,2.03905 -2.67395,2.65484 l -1.79536,0.30559 c -0.27014,0.0901 -0.61506,0.0829 -0.63029,0.4584 0,0.76597 -0.0191,1.52597 -0.0191,2.29195 -0.0151,0.34544 0.3668,0.37942 0.59209,0.43929 l 1.90997,0.34379 1.43246,0.26739 c 0.19525,0.0302 0.24122,-0.0162 0.2865,0.1337 0.58595,2.53824 1.35323,1.95589 0.0764,4.16371 l -1.03138,1.47067 c -0.13518,0.25553 -0.38924,0.50886 -0.1337,0.76399 0.54068,0.5557 1.06367,1.10595 1.60437,1.66166 0.2403,0.23989 0.54942,-0.009 0.74488,-0.1146 l 1.58526,-1.12688 1.18418,-0.82128 c 0.16542,-0.13517 0.18544,-0.17038 0.30559,-0.0955 2.37282,1.48711 2.46054,0.41383 3.15143,2.92224 l 0.3438,1.79536 c 0.0901,0.27056 0.0979,0.61527 0.45839,0.63029 h 2.31105 c 0.34543,0 0.37534,-0.405 0.42019,-0.63029 l 0.32469,-1.90995 0.22919,-1.41337 c 0.015,-0.13518 0.008,-0.20366 0.0382,-0.2483 2.77855,-0.58596 2.08703,-1.41719 4.35472,-0.0955 l 1.47066,1.03138 c 0.27056,0.13517 0.52775,0.37013 0.78309,0.11459 0.55571,-0.52566 1.08685,-1.05959 1.64256,-1.58526 0.24031,-0.25553 0.006,-0.54985 -0.1146,-0.74488 h -0.0191 l -1.06957,-1.50887 -0.70668,0.24829 c -0.18003,0.12016 -0.42023,0.0751 -0.63029,-0.21009 l -1.54707,-2.04365 c -1.44183,1.99754 -3.77409,3.28512 -6.41746,3.28512 -4.35534,0 -7.90723,-3.55147 -7.90723,-7.90723 0,-3.09395 1.7948,-5.7752 4.39291,-7.06684 v -1.81447 c -0.0901,0.045 -0.19189,0.0654 -0.2674,0.0955 -1.02109,0.42054 -1.08322,0.61743 -2.75034,-0.34379 l -1.47067,-1.05048 c -0.20292,-0.0901 -0.38086,-0.25947 -0.57298,-0.22919 z"
         id="path4199" />
      <path
         sodipodi:nodetypes="cccccccccccccccccccccccccccccccccccccccsccccccccccccccssccccccc"
         id="path4201"
         d="m 433.42356,59.000016 -3.38336,0.245567 v 13.847203 l 3.38336,-0.42292 V 66.62621 c 1.46988,2.274326 2.64797,4.390126 4.61119,6.589356 l 3.50614,-1.036833 c -1.8774,-2.231267 -3.27999,-4.198197 -4.55662,-6.343793 1.33012,-2.016854 2.99433,-4.039634 4.62483,-5.85266 l -3.62892,-0.91405 c -1.69487,1.96322 -3.20489,3.9917 -4.55662,6.030013 z m -7.70805,2.837654 c -0.0458,0.0072 -0.10451,0.03628 -0.15007,0.08186 -0.39693,0.386206 -0.77632,0.773406 -1.17326,1.159616 -0.17164,0.171647 0.007,0.378953 0.0819,0.518417 l 0.80491,1.145977 0.60027,0.832196 c 0.0858,0.118008 0.11098,0.132457 0.0682,0.218281 -0.0535,0.08582 -0.0964,0.159743 -0.15007,0.245566 -0.78315,1.351726 -0.2364,1.456467 -1.90996,1.896316 l -1.2824,0.218281 c -0.19296,0.06437 -0.43933,0.05922 -0.45021,0.327423 0,0.547127 -0.0136,1.08998 -0.0136,1.637106 -0.0108,0.246744 0.262,0.271017 0.42292,0.31378 l 1.36426,0.245564 1.02319,0.190997 c 0.13946,0.0216 0.1723,-0.0116 0.20464,0.0955 0.41854,1.813021 0.9666,1.397064 0.0546,2.974081 l -0.7367,1.05048 c -0.0965,0.182519 -0.27802,0.36347 -0.0955,0.545699 0.38621,0.396931 0.75977,0.78997 1.14598,1.186901 0.17165,0.171359 0.39245,-0.007 0.53206,-0.0819 l 1.13233,-0.80492 0.84584,-0.58663 c 0.11816,-0.0965 0.13246,-0.1217 0.21828,-0.0682 1.69487,1.062219 1.75753,0.295599 2.25102,2.087319 l 0.24557,1.282401 c 0.0644,0.193249 0.07,0.439479 0.32742,0.450199 h 1.65075 c 0.24674,0 0.2681,-0.28928 0.30014,-0.450199 l 0.23192,-1.36426 0.16371,-1.009551 c 0.0107,-0.0965 0.006,-0.14546 0.0273,-0.17735 1.98468,-0.41855 1.49073,-1.012279 3.11051,-0.0682 l 1.05048,0.73669 c 0.19325,0.0966 0.37696,0.26438 0.55934,0.0819 0.39694,-0.37548 0.77633,-0.756849 1.17326,-1.13234 0.17165,-0.18252 0.004,-0.39275 -0.0818,-0.53206 h -0.0137 l -0.76398,-1.07776 -0.50478,0.17735 c -0.12859,0.0858 -0.30016,0.0536 -0.4502,-0.15006 l -1.10505,-1.459755 c -1.02988,1.426816 -2.69578,2.346515 -4.5839,2.346515 -3.11096,0 -5.64802,-2.53676 -5.64802,-5.648019 0,-2.209963 1.282,-4.125144 3.13779,-5.047746 v -1.296044 c -0.0644,0.03217 -0.13706,0.04676 -0.191,0.06821 -0.72935,0.300387 -0.77373,0.441023 -1.96453,-0.245567 l -1.05048,-0.75034 c -0.14494,-0.06437 -0.27204,-0.185334 -0.40927,-0.163709 z"
         style="display:inline;overflow:visible;fill:#000000;fill-opacity:1;fill-rule:evenodd;enable-background:new;opacity:0.2"
         inkscape:connector-curvature="0" />
      <path
         sodipodi:nodetypes="cccccccccccccccccccccccccccccccccccccccsccccccccccccccssccccccc"
         inkscape:connector-curvature="0"
         style="display:inline;overflow:visible;fill:#000000;fill-opacity:1;fill-rule:evenodd;enable-background:new;opacity:0.2"
         d="m 429.36553,106 -2.36836,0.1719 v 9.69306 l 2.36836,-0.29605 v -4.23056 c 1.02892,1.59203 1.85358,3.07309 3.22784,4.61255 l 2.4543,-0.72578 c -1.31418,-1.56189 -2.296,-2.93874 -3.18964,-4.44066 0.93109,-1.4118 2.09604,-2.82775 3.23739,-4.09687 l -2.54025,-0.63984 c -1.18641,1.37426 -2.24343,2.7942 -3.18964,4.22102 z m -5.39565,1.98636 c -0.0321,0.005 -0.0731,0.0254 -0.10505,0.0573 -0.27785,0.27035 -0.54342,0.54139 -0.82128,0.81174 -0.12015,0.12015 0.005,0.26526 0.0573,0.36289 l 0.56344,0.80218 0.42019,0.58254 c 0.0601,0.0826 0.0777,0.0927 0.0477,0.1528 -0.0374,0.0601 -0.0675,0.11182 -0.10505,0.1719 -0.54821,0.9462 -0.16548,1.01952 -1.33697,1.32742 l -0.89769,0.15279 c -0.13507,0.0451 -0.30753,0.0414 -0.31514,0.2292 0,0.38299 -0.01,0.76299 -0.01,1.14598 -0.008,0.17272 0.1834,0.18971 0.29604,0.21964 l 0.95498,0.1719 0.71624,0.1337 c 0.0976,0.0151 0.12061,-0.008 0.14325,0.0669 0.29298,1.26911 0.67662,0.97794 0.0382,2.08186 l -0.51569,0.73534 c -0.0676,0.12776 -0.19462,0.25442 -0.0669,0.38199 0.27034,0.27785 0.53184,0.55298 0.80218,0.83083 0.12016,0.11995 0.27472,-0.005 0.37245,-0.0573 l 0.79263,-0.56345 0.59209,-0.41064 c 0.0827,-0.0675 0.0927,-0.0852 0.15279,-0.0477 1.18642,0.74356 1.23028,0.20692 1.57572,1.46113 l 0.1719,0.89768 c 0.0451,0.13527 0.049,0.30764 0.22919,0.31514 h 1.15553 c 0.17272,0 0.18767,-0.2025 0.2101,-0.31514 l 0.16234,-0.95498 0.1146,-0.70669 c 0.007,-0.0675 0.004,-0.10182 0.0191,-0.12415 1.38928,-0.29298 1.04351,-0.70859 2.17736,-0.0477 l 0.73534,0.51569 c 0.13528,0.0676 0.26387,0.18506 0.39154,0.0573 0.27786,-0.26284 0.54343,-0.5298 0.82128,-0.79264 0.12016,-0.12777 0.003,-0.27493 -0.0573,-0.37244 h -0.01 l -0.53478,-0.75444 -0.35335,0.12415 c -0.09,0.0601 -0.21011,0.0375 -0.31514,-0.10504 l -0.77354,-1.02184 c -0.72092,0.99878 -1.88705,1.64257 -3.20873,1.64257 -2.17768,0 -3.95363,-1.77574 -3.95363,-3.95362 0,-1.54698 0.89741,-2.88761 2.19646,-3.53343 v -0.90723 c -0.0451,0.0225 -0.0959,0.0327 -0.1337,0.0477 -0.51054,0.21027 -0.54161,0.30871 -1.37517,-0.1719 l -0.73426,-0.52524 c -0.10146,-0.0451 -0.19043,-0.12973 -0.28649,-0.1146 z"
         id="path4203" />
      <path
         sodipodi:nodetypes="cccccccccccccccccccccccccccccccccccccccsccccccccccccccssccccccc"
         id="path4205"
         d="m 425.02329,143.00002 -2.03,0.14734 v 8.30827 l 2.03,-0.25376 v -3.62616 c 0.88193,1.36458 1.58877,2.63405 2.7667,3.95358 l 2.10367,-0.62209 c -1.12643,-1.33875 -1.96799,-2.5189 -2.73396,-3.80625 0.79807,-1.2101 1.79659,-2.42376 2.77489,-3.51157 l -2.17734,-0.54843 c -1.01692,1.17793 -1.92293,2.39501 -2.73396,3.61798 z m -4.6248,1.70258 c -0.0275,0.004 -0.0627,0.0218 -0.09,0.0491 -0.23816,0.23172 -0.46579,0.46404 -0.70395,0.69576 -0.10299,0.10299 0.004,0.22737 0.0491,0.31105 l 0.48295,0.68758 0.36016,0.49931 c 0.0515,0.0708 0.0666,0.0795 0.0409,0.13097 -0.0321,0.0515 -0.0579,0.0958 -0.09,0.14735 -0.46989,0.81102 -0.14184,0.87386 -1.14596,1.13777 l -0.76945,0.13098 c -0.11577,0.0386 -0.26359,0.0355 -0.27011,0.19644 0,0.32828 -0.009,0.65399 -0.009,0.98226 -0.007,0.14805 0.15719,0.16261 0.25374,0.18826 l 0.81855,0.14734 0.61391,0.1146 c 0.0837,0.013 0.10338,-0.007 0.12279,0.0573 0.25112,1.08779 0.57995,0.83822 0.0327,1.78443 l -0.44202,0.63029 c -0.0579,0.10951 -0.16681,0.21807 -0.0573,0.32741 0.23172,0.23816 0.45586,0.47398 0.68758,0.71214 0.10299,0.10282 0.23547,-0.004 0.31924,-0.0491 l 0.67939,-0.48295 0.5075,-0.35196 c 0.0709,-0.0579 0.0795,-0.073 0.13096,-0.0409 1.01693,0.63734 1.05452,0.17737 1.35061,1.2524 l 0.14734,0.76943 c 0.0387,0.11595 0.042,0.26368 0.19645,0.27011 h 0.99044 c 0.14805,0 0.16086,-0.17356 0.18009,-0.27011 l 0.13915,-0.81855 0.0982,-0.60573 c 0.006,-0.0579 0.003,-0.0873 0.0164,-0.10641 1.19081,-0.25112 0.89443,-0.60736 1.8663,-0.0409 l 0.63028,0.442 c 0.11596,0.0579 0.22618,0.15863 0.33561,0.0491 0.23816,-0.22529 0.46579,-0.45412 0.70394,-0.6794 0.103,-0.10953 0.003,-0.23566 -0.0491,-0.31923 h -0.009 l -0.45838,-0.64666 -0.30287,0.10641 c -0.0771,0.0515 -0.18009,0.0321 -0.27012,-0.09 l -0.66303,-0.87586 c -0.61792,0.85609 -1.61745,1.40791 -2.75031,1.40791 -1.86657,0 -3.3888,-1.52204 -3.3888,-3.38879 0,-1.32597 0.7692,-2.47506 1.88267,-3.02862 v -0.77763 c -0.0387,0.0193 -0.0822,0.028 -0.1146,0.0409 -0.43761,0.18023 -0.46424,0.2646 -1.17871,-0.14734 l -0.62861,-0.45016 c -0.087,-0.0387 -0.16323,-0.11118 -0.24556,-0.0982 z"
         style="display:inline;overflow:visible;fill:#000000;fill-opacity:1;fill-rule:evenodd;enable-background:new;opacity:0.2"
         inkscape:connector-curvature="0" />
      <path
         sodipodi:nodetypes="cccccccccccccccccccccccccccccccccccccccsccccccccccccccssccccccc"
         inkscape:connector-curvature="0"
         style="display:inline;overflow:visible;opacity:0.2;fill:#000000;fill-opacity:1;fill-rule:evenodd;enable-background:new"
         d="m 340.64574,46.999998 -10.15007,0.7367 v 41.54161 l 10.15007,-1.268759 V 69.878578 c 4.40964,6.82298 7.94391,13.17038 13.83357,19.76808 l 10.51842,-3.110509 c -5.63219,-6.693801 -9.83998,-12.594591 -13.66985,-19.031381 3.99035,-6.050559 8.98298,-12.1189 13.87448,-17.55798 l -10.88676,-2.74215 c -5.08461,5.88966 -9.61468,11.9751 -13.66986,18.09004 z m -23.12414,8.51296 c -0.13723,0.0216 -0.31354,0.10884 -0.45021,0.24557 -1.1908,1.15862 -2.32898,2.32022 -3.51978,3.47885 -0.51494,0.51494 0.0203,1.13686 0.24557,1.55525 l 2.41473,3.43793 1.80082,2.49659 c 0.25747,0.35402 0.33292,0.397371 0.20464,0.65484 -0.16048,0.25747 -0.28928,0.479231 -0.45021,0.7367 -2.34943,4.05518 -0.70919,4.3694 -5.72987,5.688951 l -3.84721,0.654839 c -0.57887,0.193121 -1.31799,0.17767 -1.35061,0.98227 0,1.64138 -0.0409,3.269941 -0.0409,4.91132 -0.0322,0.74023 0.78599,0.813051 1.26875,0.94134 l 4.09278,0.73669 3.06957,0.57299 c 0.41838,0.0648 0.51691,-0.0348 0.61392,0.286501 1.25561,5.439069 2.89979,4.19119 0.16371,8.922239 l -2.2101,3.15143 c -0.28966,0.547571 -0.83407,1.09042 -0.28649,1.637111 1.15861,1.190789 2.2793,2.369901 3.43793,3.560701 0.51494,0.51406 1.17734,-0.0203 1.59618,-0.24556 l 3.39699,-2.414742 2.53752,-1.75989 c 0.35447,-0.28966 0.39737,-0.36511 0.65484,-0.20464 5.08461,3.18666 5.2726,0.88679 6.75307,6.261942 l 0.7367,3.8472 c 0.1931,0.57977 0.20985,1.31844 0.98227,1.35062 h 4.95225 c 0.74022,0 0.8043,-0.86785 0.90041,-1.35062 l 0.69577,-4.09276 0.49113,-3.028652 c 0.0322,-0.28967 0.017,-0.436398 0.0819,-0.53206 5.95402,-1.255629 4.47219,-3.036829 9.33152,-0.204639 l 3.15143,2.210091 c 0.57976,0.28965 1.1309,0.79314 1.67803,0.24557 1.19081,-1.12643 2.32898,-2.27056 3.51978,-3.397 0.51495,-0.54757 0.0118,-1.178251 -0.24556,-1.596181 h -0.0409 l -2.29195,-3.23329 -1.51432,0.532061 c -0.38577,0.25748 -0.90049,0.16091 -1.35061,-0.4502 l -3.31515,-4.37926 c -3.08965,4.28046 -8.08734,7.039559 -13.7517,7.039559 -9.33289,0 -16.94407,-7.61029 -16.94407,-16.944069 0,-6.629891 3.846,-12.37543 9.41337,-15.14324 v -3.88813 c -0.19311,0.0965 -0.41117,0.14028 -0.57299,0.20463 -2.18806,0.90116 -2.32118,1.32307 -5.89359,-0.7367 l -3.15143,-2.25102 c -0.43482,-0.1931 -0.81614,-0.556 -1.22783,-0.49113 z"
         id="path4207" />
      <path
         inkscape:connector-curvature="0"
         style="display:inline;overflow:visible;fill:#dddddd;fill-opacity:1;fill-rule:evenodd;stroke-width:0.875;enable-background:new"
         d="m 154.84001,86 -23.68349,1.718965 v 96.930425 l 23.68349,-2.96044 v -42.30559 c 10.28915,15.92028 18.53578,30.73087 32.27832,46.12551 l 24.54297,-7.25785 c -13.14178,-15.61888 -22.95994,-29.38739 -31.89632,-44.40654 9.31083,-14.118 20.96029,-28.27745 32.3738,-40.968622 L 186.73634,86.477492 C 174.87225,100.22004 164.30207,114.4194 154.84001,128.68758 Z m -53.95632,19.86356 c -0.3202,0.0504 -0.73159,0.25396 -1.050487,0.573 -2.77855,2.70346 -5.4343,5.41386 -8.21282,8.11733 -1.20153,1.20154 0.0473,2.65267 0.57298,3.62893 l 5.63439,8.02182 4.201907,5.82537 c 0.60076,0.82606 0.77681,0.92721 0.47748,1.52797 -0.37444,0.60077 -0.67499,1.1182 -1.05048,1.71897 -5.481997,9.46208 -1.654767,10.19526 -13.369704,13.27421 l -8.976809,1.52797 c -1.350693,0.45061 -3.07531,0.41457 -3.151435,2.29196 0,3.82987 -0.09534,7.62987 -0.09534,11.45974 -0.07516,1.72722 1.833983,1.89712 2.960431,2.19645 l 9.549803,1.71897 7.162347,1.33697 c 0.97622,0.15127 1.20611,-0.0813 1.43246,0.66848 2.92975,12.69117 6.766167,9.77945 0.38199,20.81856 l -5.15688,7.35334 c -0.67588,1.27766 -1.946175,2.54431 -0.66849,3.81992 2.70343,2.77852 5.31836,5.52977 8.02183,8.30832 1.201527,1.19946 2.747127,-0.0473 3.724417,-0.57299 l 7.92633,-5.63437 5.92086,-4.10641 c 0.8271,-0.67589 0.92721,-0.85194 1.52797,-0.4775 11.86408,7.43552 12.30274,2.06917 15.75717,14.6112 l 1.71895,8.9768 c 0.45058,1.35277 0.48966,3.07636 2.29195,3.15143 h 11.55525 c 1.72718,0 1.87672,-2.02499 2.10097,-3.15143 l 1.62345,-9.5498 1.14599,-7.06685 c 0.0753,-0.67587 0.0397,-1.01826 0.191,-1.24147 13.8927,-2.92978 10.4351,-7.08592 21.77353,-0.47749 l 7.35334,5.15689 c 1.35276,0.67585 2.63877,1.85064 3.91542,0.57298 2.77854,-2.62834 5.43427,-5.29797 8.21282,-7.92631 1.20152,-1.27767 0.0275,-2.74925 -0.57299,-3.72442 h -0.0953 l -5.34789,-7.54435 -3.53342,1.24148 c -0.90012,0.60076 -2.10113,0.37545 -3.15143,-1.05049 l -7.73533,-10.21827 c -7.2092,9.98774 -18.87046,16.42564 -32.08731,16.42564 -21.77675,0 -39.53615,-17.75733 -39.53615,-39.53615 0,-15.46976 8.97398,-28.87602 21.96452,-35.33423 v -9.07232 c -0.4506,0.22523 -0.9594,0.32732 -1.33697,0.47749 -5.10549,2.10269 -5.41609,3.08717 -13.75171,-1.71896 l -7.35334,-5.25239 c -1.01459,-0.45057 -1.90432,-1.29734 -2.86492,-1.14598 z"
         id="path1084"
         sodipodi:nodetypes="cccccccccccccccccccccccccccccccccccccccsccccccccccccccssccccccc" />
      <path
         inkscape:connector-curvature="0"
         style="display:inline;overflow:visible;fill:#dddddd;fill-opacity:1;fill-rule:evenodd;enable-background:new"
         d="m 322.78784,152 -6.76671,0.49113 v 27.69441 l 6.76671,-0.84584 v -12.08731 c 2.93976,4.54865 5.29594,8.78025 9.22238,13.17872 l 7.01228,-2.07368 c -3.75479,-4.46253 -6.55998,-8.39639 -9.11323,-12.68758 2.66023,-4.03371 5.98865,-8.07927 9.24965,-11.70532 l -7.25784,-1.8281 c -3.38974,3.92644 -6.40978,7.9834 -9.11324,12.06002 z m -15.41609,5.67531 c -0.0915,0.0144 -0.20903,0.0726 -0.30014,0.16371 -0.79387,0.77241 -1.55265,1.54681 -2.34652,2.31923 -0.34329,0.3433 0.0135,0.75791 0.16371,1.03684 l 1.60982,2.29195 1.20055,1.66439 c 0.17165,0.23602 0.22195,0.26492 0.13643,0.43656 -0.10699,0.17165 -0.19286,0.31949 -0.30014,0.49114 -1.56629,2.70345 -0.4728,2.91293 -3.81992,3.79263 l -2.5648,0.43656 c -0.38592,0.12875 -0.87866,0.11845 -0.90041,0.65485 0,1.09425 -0.0273,2.17996 -0.0273,3.27421 -0.0215,0.49349 0.524,0.54203 0.84584,0.62756 l 2.72852,0.49113 2.04638,0.38199 c 0.27892,0.0432 0.3446,-0.0232 0.40928,0.191 0.83707,3.62605 1.93319,2.79413 0.10914,5.94816 l -1.4734,2.10095 c -0.19311,0.36505 -0.55605,0.72695 -0.191,1.09141 0.77241,0.79386 1.51954,1.57993 2.29196,2.3738 0.34329,0.34271 0.78489,-0.0135 1.06412,-0.16371 l 2.26466,-1.60982 1.69168,-1.17326 c 0.23631,-0.19311 0.26491,-0.24341 0.43656,-0.13643 3.38974,2.12444 3.51506,0.59119 4.50204,4.17463 l 0.49114,2.5648 c 0.12873,0.38651 0.1399,0.87896 0.65484,0.90041 h 3.3015 c 0.49348,0 0.5362,-0.57857 0.60028,-0.90041 l 0.46384,-2.72851 0.32742,-2.0191 c 0.0215,-0.19311 0.0113,-0.29093 0.0546,-0.35471 3.96935,-0.83708 2.98146,-2.02455 6.22102,-0.13642 l 2.10095,1.47339 c 0.38651,0.1931 0.75393,0.52876 1.11869,0.16371 0.79387,-0.75095 1.55265,-1.5137 2.34652,-2.26466 0.3433,-0.36505 0.008,-0.7855 -0.16371,-1.06412 h -0.0273 l -1.52796,-2.15553 -1.00955,0.35471 c -0.25718,0.17165 -0.60033,0.10727 -0.90041,-0.30014 l -2.2101,-2.9195 c -2.05976,2.85364 -5.39156,4.69304 -9.1678,4.69304 -6.22192,0 -11.29604,-5.07353 -11.29604,-11.29605 0,-4.41993 2.564,-8.25029 6.27558,-10.09549 v -2.59209 c -0.12874,0.0643 -0.27412,0.0935 -0.382,0.13642 -1.4587,0.60077 -1.54745,0.88205 -3.92906,-0.49113 l -2.10095,-1.50068 c -0.28988,-0.12874 -0.54409,-0.37067 -0.81855,-0.32742 z"
         id="path4497"
         sodipodi:nodetypes="cccccccccccccccccccccccccccccccccccccccsccccccccccccccssccccccc" />
      <path
         id="path4499"
         d="m 313.77031,230 -4.7367,0.34379 v 19.38609 l 4.7367,-0.59209 v -8.46112 c 2.05783,3.18406 3.70716,6.14618 6.45567,9.22511 l 4.90859,-1.45158 c -2.62835,-3.12377 -4.59198,-5.87747 -6.37926,-8.88131 1.86216,-2.82359 4.19206,-5.65548 6.47476,-8.19372 l -5.08049,-1.27967 c -2.37282,2.74851 -4.48685,5.58838 -6.37927,8.44201 z m -10.79126,3.97272 c -0.064,0.0101 -0.14632,0.0508 -0.2101,0.11459 -0.55571,0.54069 -1.08685,1.08277 -1.64256,1.62346 -0.24031,0.24031 0.009,0.53054 0.11459,0.72579 l 1.12688,1.60437 0.84038,1.16507 c 0.12016,0.16521 0.15537,0.18544 0.0955,0.30559 -0.0749,0.12016 -0.135,0.22365 -0.21009,0.3438 -1.09641,1.89242 -0.33096,2.03905 -2.67395,2.65484 l -1.79536,0.30559 c -0.27014,0.0901 -0.61506,0.0829 -0.63029,0.4584 0,0.76597 -0.0191,1.52597 -0.0191,2.29195 -0.0151,0.34544 0.3668,0.37942 0.59209,0.43929 l 1.90997,0.34379 1.43246,0.26739 c 0.19525,0.0302 0.24122,-0.0162 0.2865,0.1337 0.58595,2.53824 1.35323,1.95589 0.0764,4.16371 l -1.03138,1.47067 c -0.13518,0.25553 -0.38924,0.50886 -0.1337,0.76399 0.54068,0.5557 1.06367,1.10595 1.60437,1.66166 0.2403,0.23989 0.54942,-0.009 0.74488,-0.1146 l 1.58526,-1.12688 1.18418,-0.82128 c 0.16542,-0.13517 0.18544,-0.17038 0.30559,-0.0955 2.37282,1.48711 2.46054,0.41383 3.15143,2.92224 l 0.3438,1.79536 c 0.0901,0.27056 0.0979,0.61527 0.45839,0.63029 h 2.31105 c 0.34543,0 0.37534,-0.405 0.42019,-0.63029 l 0.32469,-1.90995 0.22919,-1.41337 c 0.015,-0.13518 0.008,-0.20366 0.0382,-0.2483 2.77855,-0.58596 2.08703,-1.41719 4.35472,-0.0955 l 1.47066,1.03138 c 0.27056,0.13517 0.52775,0.37013 0.78309,0.11459 0.55571,-0.52566 1.08685,-1.05959 1.64256,-1.58526 0.24031,-0.25553 0.006,-0.54985 -0.1146,-0.74488 h -0.0191 l -1.06957,-1.50887 -0.70668,0.24829 c -0.18003,0.12016 -0.42023,0.0751 -0.63029,-0.21009 l -1.54707,-2.04365 c -1.44183,1.99754 -3.77409,3.28512 -6.41746,3.28512 -4.35534,0 -7.90723,-3.55147 -7.90723,-7.90723 0,-3.09395 1.7948,-5.7752 4.39291,-7.06684 v -1.81447 c -0.0901,0.045 -0.19189,0.0654 -0.2674,0.0955 -1.02109,0.42054 -1.08322,0.61743 -2.75034,-0.34379 l -1.47067,-1.05048 c -0.20292,-0.0901 -0.38086,-0.25947 -0.57298,-0.22919 z"
         style="display:inline;overflow:visible;fill:#dddddd;fill-opacity:1;fill-rule:evenodd;enable-background:new"
         inkscape:connector-curvature="0"
         sodipodi:nodetypes="cccccccccccccccccccccccccccccccccccccccsccccccccccccccssccccccc" />
      <path
         inkscape:connector-curvature="0"
         style="display:inline;overflow:visible;fill:#dddddd;fill-opacity:1;fill-rule:evenodd;enable-background:new"
         d="m 433.42356,58.000016 -3.38336,0.245567 v 13.847203 l 3.38336,-0.42292 V 65.62621 c 1.46988,2.274326 2.64797,4.390126 4.61119,6.589356 l 3.50614,-1.036833 c -1.8774,-2.231267 -3.27999,-4.198197 -4.55662,-6.343793 1.33012,-2.016854 2.99433,-4.039634 4.62483,-5.85266 l -3.62892,-0.91405 c -1.69487,1.96322 -3.20489,3.9917 -4.55662,6.030013 z m -7.70805,2.837654 c -0.0458,0.0072 -0.10451,0.03628 -0.15007,0.08186 -0.39693,0.386206 -0.77632,0.773406 -1.17326,1.159616 -0.17164,0.171647 0.007,0.378953 0.0819,0.518417 l 0.80491,1.145977 0.60027,0.832196 c 0.0858,0.118008 0.11098,0.132457 0.0682,0.218281 -0.0535,0.08582 -0.0964,0.159743 -0.15007,0.245566 -0.78315,1.351726 -0.2364,1.456467 -1.90996,1.896316 l -1.2824,0.218281 c -0.19296,0.06437 -0.43933,0.05922 -0.45021,0.327423 0,0.547127 -0.0136,1.08998 -0.0136,1.637106 -0.0108,0.246744 0.262,0.271017 0.42292,0.31378 l 1.36426,0.245564 1.02319,0.190997 c 0.13946,0.0216 0.1723,-0.0116 0.20464,0.0955 0.41854,1.813021 0.9666,1.397064 0.0546,2.974081 l -0.7367,1.05048 c -0.0965,0.182519 -0.27802,0.36347 -0.0955,0.545699 0.38621,0.396931 0.75977,0.78997 1.14598,1.186901 0.17165,0.171359 0.39245,-0.007 0.53206,-0.0819 l 1.13233,-0.80492 0.84584,-0.58663 c 0.11816,-0.0965 0.13246,-0.1217 0.21828,-0.0682 1.69487,1.062219 1.75753,0.295599 2.25102,2.087319 l 0.24557,1.282401 c 0.0644,0.193249 0.07,0.439479 0.32742,0.450199 h 1.65075 c 0.24674,0 0.2681,-0.28928 0.30014,-0.450199 l 0.23192,-1.36426 0.16371,-1.009551 c 0.0107,-0.0965 0.006,-0.14546 0.0273,-0.17735 1.98468,-0.41855 1.49073,-1.012279 3.11051,-0.0682 l 1.05048,0.73669 c 0.19325,0.0966 0.37696,0.26438 0.55934,0.0819 0.39694,-0.37548 0.77633,-0.756849 1.17326,-1.13234 0.17165,-0.18252 0.004,-0.39275 -0.0818,-0.53206 h -0.0137 l -0.76398,-1.07776 -0.50478,0.17735 c -0.12859,0.0858 -0.30016,0.0536 -0.4502,-0.15006 l -1.10505,-1.459755 c -1.02988,1.426816 -2.69578,2.346515 -4.5839,2.346515 -3.11096,0 -5.64802,-2.53676 -5.64802,-5.648019 0,-2.209963 1.282,-4.125144 3.13779,-5.047746 v -1.296044 c -0.0644,0.03217 -0.13706,0.04676 -0.191,0.06821 -0.72935,0.300387 -0.77373,0.441023 -1.96453,-0.245567 l -1.05048,-0.75034 c -0.14494,-0.06437 -0.27204,-0.185334 -0.40927,-0.163709 z"
         id="path4501"
         sodipodi:nodetypes="cccccccccccccccccccccccccccccccccccccccsccccccccccccccssccccccc" />
      <path
         id="path4503"
         d="m 429.36553,105 -2.36836,0.1719 v 9.69306 l 2.36836,-0.29605 v -4.23056 c 1.02892,1.59203 1.85358,3.07309 3.22784,4.61255 l 2.4543,-0.72578 c -1.31418,-1.56189 -2.296,-2.93874 -3.18964,-4.44066 0.93109,-1.4118 2.09604,-2.82775 3.23739,-4.09687 l -2.54025,-0.63984 c -1.18641,1.37426 -2.24343,2.7942 -3.18964,4.22102 z m -5.39565,1.98636 c -0.0321,0.005 -0.0731,0.0254 -0.10505,0.0573 -0.27785,0.27035 -0.54342,0.54139 -0.82128,0.81174 -0.12015,0.12015 0.005,0.26526 0.0573,0.36289 l 0.56344,0.80218 0.42019,0.58254 c 0.0601,0.0826 0.0777,0.0927 0.0477,0.1528 -0.0374,0.0601 -0.0675,0.11182 -0.10505,0.1719 -0.54821,0.9462 -0.16548,1.01952 -1.33697,1.32742 l -0.89769,0.15279 c -0.13507,0.0451 -0.30753,0.0414 -0.31514,0.2292 0,0.38299 -0.01,0.76299 -0.01,1.14598 -0.008,0.17272 0.1834,0.18971 0.29604,0.21964 l 0.95498,0.1719 0.71624,0.1337 c 0.0976,0.0151 0.12061,-0.008 0.14325,0.0669 0.29298,1.26911 0.67662,0.97794 0.0382,2.08186 l -0.51569,0.73534 c -0.0676,0.12776 -0.19462,0.25442 -0.0669,0.38199 0.27034,0.27785 0.53184,0.55298 0.80218,0.83083 0.12016,0.11995 0.27472,-0.005 0.37245,-0.0573 l 0.79263,-0.56345 0.59209,-0.41064 c 0.0827,-0.0675 0.0927,-0.0852 0.15279,-0.0477 1.18642,0.74356 1.23028,0.20692 1.57572,1.46113 l 0.1719,0.89768 c 0.0451,0.13527 0.049,0.30764 0.22919,0.31514 h 1.15553 c 0.17272,0 0.18767,-0.2025 0.2101,-0.31514 l 0.16234,-0.95498 0.1146,-0.70669 c 0.007,-0.0675 0.004,-0.10182 0.0191,-0.12415 1.38928,-0.29298 1.04351,-0.70859 2.17736,-0.0477 l 0.73534,0.51569 c 0.13528,0.0676 0.26387,0.18506 0.39154,0.0573 0.27786,-0.26284 0.54343,-0.5298 0.82128,-0.79264 0.12016,-0.12777 0.003,-0.27493 -0.0573,-0.37244 h -0.01 l -0.53478,-0.75444 -0.35335,0.12415 c -0.09,0.0601 -0.21011,0.0375 -0.31514,-0.10504 l -0.77354,-1.02184 c -0.72092,0.99878 -1.88705,1.64257 -3.20873,1.64257 -2.17768,0 -3.95363,-1.77574 -3.95363,-3.95362 0,-1.54698 0.89741,-2.88761 2.19646,-3.53343 v -0.90723 c -0.0451,0.0225 -0.0959,0.0327 -0.1337,0.0477 -0.51054,0.21027 -0.54161,0.30871 -1.37517,-0.1719 l -0.73426,-0.52524 c -0.10146,-0.0451 -0.19043,-0.12973 -0.28649,-0.1146 z"
         style="display:inline;overflow:visible;fill:#dddddd;fill-opacity:1;fill-rule:evenodd;enable-background:new"
         inkscape:connector-curvature="0"
         sodipodi:nodetypes="cccccccccccccccccccccccccccccccccccccccsccccccccccccccssccccccc" />
      <path
         inkscape:connector-curvature="0"
         style="display:inline;overflow:visible;fill:#dddddd;fill-opacity:1;fill-rule:evenodd;enable-background:new"
         d="m 425.02329,142.00002 -2.03,0.14734 v 8.30827 l 2.03,-0.25376 v -3.62616 c 0.88193,1.36458 1.58877,2.63405 2.7667,3.95358 l 2.10367,-0.62209 c -1.12643,-1.33875 -1.96799,-2.5189 -2.73396,-3.80625 0.79807,-1.2101 1.79659,-2.42376 2.77489,-3.51157 l -2.17734,-0.54843 c -1.01692,1.17793 -1.92293,2.39501 -2.73396,3.61798 z m -4.6248,1.70258 c -0.0275,0.004 -0.0627,0.0218 -0.09,0.0491 -0.23816,0.23172 -0.46579,0.46404 -0.70395,0.69576 -0.10299,0.10299 0.004,0.22737 0.0491,0.31105 l 0.48295,0.68758 0.36016,0.49931 c 0.0515,0.0708 0.0666,0.0795 0.0409,0.13097 -0.0321,0.0515 -0.0579,0.0958 -0.09,0.14735 -0.46989,0.81102 -0.14184,0.87386 -1.14596,1.13777 l -0.76945,0.13098 c -0.11577,0.0386 -0.26359,0.0355 -0.27011,0.19644 0,0.32828 -0.009,0.65399 -0.009,0.98226 -0.007,0.14805 0.15719,0.16261 0.25374,0.18826 l 0.81855,0.14734 0.61391,0.1146 c 0.0837,0.013 0.10338,-0.007 0.12279,0.0573 0.25112,1.08779 0.57995,0.83822 0.0327,1.78443 l -0.44202,0.63029 c -0.0579,0.10951 -0.16681,0.21807 -0.0573,0.32741 0.23172,0.23816 0.45586,0.47398 0.68758,0.71214 0.10299,0.10282 0.23547,-0.004 0.31924,-0.0491 l 0.67939,-0.48295 0.5075,-0.35196 c 0.0709,-0.0579 0.0795,-0.073 0.13096,-0.0409 1.01693,0.63734 1.05452,0.17737 1.35061,1.2524 l 0.14734,0.76943 c 0.0387,0.11595 0.042,0.26368 0.19645,0.27011 h 0.99044 c 0.14805,0 0.16086,-0.17356 0.18009,-0.27011 l 0.13915,-0.81855 0.0982,-0.60573 c 0.006,-0.0579 0.003,-0.0873 0.0164,-0.10641 1.19081,-0.25112 0.89443,-0.60736 1.8663,-0.0409 l 0.63028,0.442 c 0.11596,0.0579 0.22618,0.15863 0.33561,0.0491 0.23816,-0.22529 0.46579,-0.45412 0.70394,-0.6794 0.103,-0.10953 0.003,-0.23566 -0.0491,-0.31923 h -0.009 l -0.45838,-0.64666 -0.30287,0.10641 c -0.0771,0.0515 -0.18009,0.0321 -0.27012,-0.09 l -0.66303,-0.87586 c -0.61792,0.85609 -1.61745,1.40791 -2.75031,1.40791 -1.86657,0 -3.3888,-1.52204 -3.3888,-3.38879 0,-1.32597 0.7692,-2.47506 1.88267,-3.02862 v -0.77763 c -0.0387,0.0193 -0.0822,0.028 -0.1146,0.0409 -0.43761,0.18023 -0.46424,0.2646 -1.17871,-0.14734 l -0.62861,-0.45016 c -0.087,-0.0387 -0.16323,-0.11118 -0.24556,-0.0982 z"
         id="path4505"
         sodipodi:nodetypes="cccccccccccccccccccccccccccccccccccccccsccccccccccccccssccccccc" />
      <path
         id="path4495"
         d="m 340.64574,45.999999 -10.15007,0.7367 v 41.54161 L 340.64574,87.00955 V 68.878579 c 4.40964,6.82298 7.94391,13.17038 13.83357,19.76808 l 10.51842,-3.110509 c -5.63219,-6.693801 -9.83998,-12.594591 -13.66985,-19.031381 3.99035,-6.050559 8.98298,-12.1189 13.87448,-17.55798 l -10.88676,-2.74215 c -5.08461,5.88966 -9.61468,11.9751 -13.66986,18.09004 z m -23.12414,8.51296 c -0.13723,0.0216 -0.31354,0.10884 -0.45021,0.24557 -1.1908,1.15862 -2.32898,2.32022 -3.51978,3.47885 -0.51494,0.51494 0.0203,1.13686 0.24557,1.55525 l 2.41473,3.43793 1.80082,2.49659 c 0.25747,0.35402 0.33292,0.397371 0.20464,0.65484 -0.16048,0.25747 -0.28928,0.479231 -0.45021,0.7367 -2.34943,4.05518 -0.70919,4.3694 -5.72987,5.688951 l -3.84721,0.654839 c -0.57887,0.193121 -1.31799,0.17767 -1.35061,0.98227 0,1.64138 -0.0409,3.269941 -0.0409,4.91132 -0.0322,0.74023 0.78599,0.813051 1.26875,0.94134 l 4.09278,0.73669 3.06957,0.57299 c 0.41838,0.0648 0.51691,-0.0348 0.61392,0.286501 1.25561,5.439069 2.89979,4.19119 0.16371,8.922239 l -2.2101,3.15143 c -0.28966,0.547571 -0.83407,1.09042 -0.28649,1.637111 1.15861,1.190789 2.2793,2.3699 3.43793,3.560699 0.51494,0.51406 1.17734,-0.0203 1.59618,-0.24556 l 3.39699,-2.41474 2.53752,-1.75989 c 0.35447,-0.28966 0.39737,-0.36511 0.65484,-0.20464 5.08461,3.18666 5.2726,0.88679 6.75307,6.261941 l 0.7367,3.8472 c 0.1931,0.57977 0.20985,1.31844 0.98227,1.35062 h 4.95225 c 0.74022,0 0.8043,-0.86785 0.90041,-1.35062 l 0.69577,-4.09276 0.49113,-3.028651 c 0.0322,-0.28967 0.017,-0.436399 0.0819,-0.53206 5.95402,-1.25563 4.47219,-3.03683 9.33152,-0.204639 l 3.15143,2.21009 c 0.57976,0.28965 1.1309,0.793141 1.67803,0.24557 1.19081,-1.12643 2.32898,-2.27056 3.51978,-3.397 0.51495,-0.54757 0.0118,-1.17825 -0.24556,-1.59618 h -0.0409 l -2.29195,-3.23329 -1.51432,0.53206 c -0.38577,0.25748 -0.90049,0.16091 -1.35061,-0.4502 l -3.31515,-4.37926 c -3.08965,4.28046 -8.08734,7.03956 -13.7517,7.03956 -9.33289,0 -16.94407,-7.61029 -16.94407,-16.94407 0,-6.62989 3.846,-12.37543 9.41337,-15.14324 v -3.88813 c -0.19311,0.0965 -0.41117,0.14028 -0.57299,0.20463 -2.18806,0.90116 -2.32118,1.32307 -5.89359,-0.7367 l -3.15143,-2.25102 c -0.43482,-0.1931 -0.81614,-0.556 -1.22783,-0.49113 z"
         style="display:inline;overflow:visible;fill:#dddddd;fill-opacity:1;fill-rule:evenodd;enable-background:new"
         inkscape:connector-curvature="0"
         sodipodi:nodetypes="cccccccccccccccccccccccccccccccccccccccsccccccccccccccssccccccc" />
    </g>
    <g
       inkscape:groupmode="layer"
       id="layer5"
       inkscape:label="Highlights"
       style="display:inline"
       sodipodi:insensitive="true">
      <path
         style="color:#bebebe;display:inline;overflow:visible;visibility:visible;opacity:0.12999998;fill:#ffffff;fill-opacity:1;fill-rule:nonzero;stroke:none;stroke-width:0;marker:none;enable-background:accumulate"
         d="M 84,47 C 56.836703,47 35,68.836703 35,96 v 1 C 35,69.836703 56.836703,48 84,48 h 120 c 27.1633,0 49,21.836703 49,49 V 96 C 253,68.836703 231.1633,47 204,47 Z"
         id="rect3894"
         inkscape:connector-curvature="0" />
      <path
         style="color:#bebebe;display:inline;overflow:visible;visibility:visible;opacity:0.12999998;fill:#ffffff;fill-opacity:1;fill-rule:nonzero;stroke:none;stroke-width:0;marker:none;enable-background:accumulate"
         d="m 419,141 c -1.1253,0 -2,0.8747 -2,2 v 1 c 0,-1.1253 0.8747,-2 2,-2 h 10 c 1.1253,0 2,0.8747 2,2 v -1 c 0,-1.1253 -0.8747,-2 -2,-2 z"
         id="rect3896"
         inkscape:connector-curvature="0" />
      <path
         style="color:#bebebe;display:inline;overflow:visible;visibility:visible;opacity:0.12999998;fill:#ffffff;fill-opacity:1;fill-rule:nonzero;stroke:none;stroke-width:0;marker:none;enable-background:accumulate"
         d="m 422,102 c -2.2333,0 -4,1.7667 -4,4 v 1 c 0,-2.2333 1.7667,-4 4,-4 h 12 c 2.2333,0 4,1.7667 4,4 v -1 c 0,-2.2333 -1.7667,-4 -4,-4 z"
         id="rect3898"
         inkscape:connector-curvature="0" />
      <path
         style="color:#bebebe;display:inline;overflow:visible;visibility:visible;opacity:0.12999998;fill:#ffffff;fill-opacity:1;fill-rule:nonzero;stroke:none;stroke-width:0;marker:none;enable-background:accumulate"
         d="m 424,54 c -3.3413,0 -6,2.658703 -6,6 v 1 c 0,-3.341297 2.6587,-6 6,-6 h 16 c 3.3413,0 6,2.658703 6,6 v -1 c 0,-3.341297 -2.6587,-6 -6,-6 z"
         id="rect3900"
         inkscape:connector-curvature="0" />
      <path
         style="color:#bebebe;display:inline;overflow:visible;visibility:visible;opacity:0.12999998;fill:#ffffff;fill-opacity:1;fill-rule:nonzero;stroke:none;stroke-width:0;marker:none;enable-background:accumulate"
         d="m 300,224 c -4.4493,0 -8,3.5507 -8,8 v 1 c 0,-4.4493 3.5507,-8 8,-8 h 24 c 4.4493,0 8,3.5507 8,8 v -1 c 0,-4.4493 -3.5507,-8 -8,-8 z"
         id="rect3902"
         inkscape:connector-curvature="0" />
      <path
         style="color:#bebebe;display:inline;overflow:visible;visibility:visible;opacity:0.12999998;fill:#ffffff;fill-opacity:1;fill-rule:nonzero;stroke:none;stroke-width:0;marker:none;enable-background:accumulate"
         d="m 310,33 c -9.4353,0 -17,7.564703 -17,17 v 1 c 0,-9.435297 7.5647,-17 17,-17 h 52 c 9.4353,0 17,7.564703 17,17 v -1 c 0,-9.435297 -7.5647,-17 -17,-17 z"
         id="rect3904"
         inkscape:connector-curvature="0" />
      <path
         style="color:#bebebe;display:inline;overflow:visible;visibility:visible;opacity:0.12999998;fill:#ffffff;fill-opacity:1;fill-rule:nonzero;stroke:none;stroke-width:0;marker:none;enable-background:accumulate"
         d="m 302.5,143 c -6.3883,0 -11.5,5.1117 -11.5,11.5 v 1 c 0,-6.3883 5.1117,-11.5 11.5,-11.5 h 35 c 6.3883,0 11.5,5.1117 11.5,11.5 v -1 c 0,-6.3883 -5.1117,-11.5 -11.5,-11.5 z"
         id="rect3906"
         inkscape:connector-curvature="0" />
      <path
         id="path4085"
         d="m 204,266 c 27.1633,0 49,-21.8367 49,-49 v -1 c 0,27.1633 -21.8367,49 -49,49 H 84 C 56.8367,265 35,243.1633 35,216 v 1 c 0,27.1633 21.8367,49 49,49 z"
         style="color:#bebebe;display:inline;overflow:visible;visibility:visible;opacity:0.5;fill:#000000;fill-opacity:1;fill-rule:nonzero;stroke:none;stroke-width:0;marker:none;enable-background:accumulate"
         inkscape:connector-curvature="0" />
      <path
         id="path4087"
         d="m 429,156 c 1.1253,0 2,-0.8747 2,-2 v -1 c 0,1.1253 -0.8747,2 -2,2 h -10 c -1.1253,0 -2,-0.8747 -2,-2 v 1 c 0,1.1253 0.8747,2 2,2 z"
         style="color:#bebebe;display:inline;overflow:visible;visibility:visible;opacity:0.3;fill:#000000;fill-opacity:1;fill-rule:nonzero;stroke:none;stroke-width:0;marker:none;enable-background:accumulate"
         inkscape:connector-curvature="0" />
      <path
         id="path4089"
         d="m 434,123 c 2.2333,0 4,-1.7667 4,-4 v -1 c 0,2.2333 -1.7667,4 -4,4 h -12 c -2.2333,0 -4,-1.7667 -4,-4 v 1 c 0,2.2333 1.7667,4 4,4 z"
         style="color:#bebebe;display:inline;overflow:visible;visibility:visible;opacity:0.3;fill:#000000;fill-opacity:1;fill-rule:nonzero;stroke:none;stroke-width:0;marker:none;enable-background:accumulate"
         inkscape:connector-curvature="0" />
      <path
         id="path4091"
         d="m 440,83 c 3.3413,0 6,-2.6587 6,-6 v -1 c 0,3.3413 -2.6587,6 -6,6 h -16 c -3.3413,0 -6,-2.6587 -6,-6 v 1 c 0,3.3413 2.6587,6 6,6 z"
         style="color:#bebebe;display:inline;overflow:visible;visibility:visible;opacity:0.5;fill:#000000;fill-opacity:1;fill-rule:nonzero;stroke:none;stroke-width:0;marker:none;enable-background:accumulate"
         inkscape:connector-curvature="0" />
      <path
         id="path4093"
         d="m 324,265 c 4.4493,0 8,-3.5507 8,-8 v -1 c 0,4.4493 -3.5507,8 -8,8 h -24 c -4.4493,0 -8,-3.5507 -8,-8 v 1 c 0,4.4493 3.5507,8 8,8 z"
         style="color:#bebebe;display:inline;overflow:visible;visibility:visible;opacity:0.5;fill:#000000;fill-opacity:1;fill-rule:nonzero;stroke:none;stroke-width:0;marker:none;enable-background:accumulate"
         inkscape:connector-curvature="0" />
      <path
         id="path4095"
         d="m 362,120 c 9.4353,0 17,-7.5647 17,-17 v -1 c 0,9.4353 -7.5647,17 -17,17 h -52 c -9.4353,0 -17,-7.5647 -17,-17 v 1 c 0,9.4353 7.5647,17 17,17 z"
         style="color:#bebebe;display:inline;overflow:visible;visibility:visible;opacity:0.5;fill:#000000;fill-opacity:1;fill-rule:nonzero;stroke:none;stroke-width:0;marker:none;enable-background:accumulate"
         inkscape:connector-curvature="0" />
      <path
         id="path4097"
         d="m 337.5,202 c 6.3883,0 11.5,-5.1117 11.5,-11.5 v -1 c 0,6.3883 -5.1117,11.5 -11.5,11.5 h -35 c -6.3883,0 -11.5,-5.1117 -11.5,-11.5 v 1 c 0,6.3883 5.1117,11.5 11.5,11.5 z"
         style="color:#bebebe;display:inline;overflow:visible;visibility:visible;opacity:0.5;fill:#000000;fill-opacity:1;fill-rule:nonzero;stroke:none;stroke-width:0;marker:none;enable-background:accumulate"
         inkscape:connector-curvature="0" />
      <path
         inkscape:connector-curvature="0"
         id="path4280"
         d="M 84,265 C 56.836703,265 35,243.1633 35,216 v -1 c 0,27.1633 21.836703,49 49,49 h 120 c 27.1633,0 49,-21.8367 49,-49 v 1 c 0,27.1633 -21.8367,49 -49,49 z"
         style="color:#bebebe;display:inline;overflow:visible;visibility:visible;opacity:0.1;fill:#ffffff;fill-opacity:1;fill-rule:nonzero;stroke:none;stroke-width:0;marker:none;enable-background:accumulate" />
      <path
         style="color:#bebebe;display:inline;overflow:visible;visibility:visible;opacity:0.1;fill:#ffffff;fill-opacity:1;fill-rule:nonzero;stroke:none;stroke-width:0;marker:none;enable-background:accumulate"
         d="m 300,264 c -4.4493,0 -8,-3.5507 -8,-8 v -1 c 0,4.4493 3.5507,8 8,8 h 24 c 4.4493,0 8,-3.5507 8,-8 v 1 c 0,4.4493 -3.5507,8 -8,8 z"
         id="path4294"
         inkscape:connector-curvature="0" />
      <path
         style="color:#bebebe;display:inline;overflow:visible;visibility:visible;opacity:0.1;fill:#ffffff;fill-opacity:1;fill-rule:nonzero;stroke:none;stroke-width:0;marker:none;enable-background:accumulate"
         d="m 302.5,201 c -6.3883,0 -11.5,-5.1117 -11.5,-11.5 v -1 c 0,6.3883 5.1117,11.5 11.5,11.5 h 35 c 6.3883,0 11.5,-5.1117 11.5,-11.5 v 1 c 0,6.3883 -5.1117,11.5 -11.5,11.5 z"
         id="path4296"
         inkscape:connector-curvature="0" />
      <path
         style="color:#bebebe;display:inline;overflow:visible;visibility:visible;opacity:0.1;fill:#ffffff;fill-opacity:1;fill-rule:nonzero;stroke:none;stroke-width:0;marker:none;enable-background:accumulate"
         d="m 310,119 c -9.4353,0 -17,-7.5647 -17,-17 v -1 c 0,9.4353 7.5647,17 17,17 h 52 c 9.4353,0 17,-7.5647 17,-17 v 1 c 0,9.4353 -7.5647,17 -17,17 z"
         id="path4298"
         inkscape:connector-curvature="0" />
      <path
         style="color:#bebebe;display:inline;overflow:visible;visibility:visible;opacity:0.1;fill:#ffffff;fill-opacity:1;fill-rule:nonzero;stroke:none;stroke-width:0;marker:none;enable-background:accumulate"
         d="m 424,82 c -3.3413,0 -6,-2.658703 -6,-6 v -1 c 0,3.341297 2.6587,6 6,6 h 16 c 3.3413,0 6,-2.658703 6,-6 v 1 c 0,3.341297 -2.6587,6 -6,6 z"
         id="path4300"
         inkscape:connector-curvature="0" />
      <path
         style="color:#bebebe;display:inline;overflow:visible;visibility:visible;opacity:0.1;fill:#ffffff;fill-opacity:1;fill-rule:nonzero;stroke:none;stroke-width:0;marker:none;enable-background:accumulate"
         d="m 422,122 c -2.2333,0 -4,-1.7667 -4,-4 v -1 c 0,2.2333 1.7667,4 4,4 h 12 c 2.2333,0 4,-1.7667 4,-4 v 1 c 0,2.2333 -1.7667,4 -4,4 z"
         id="path4302"
         inkscape:connector-curvature="0" />
      <path
         style="color:#bebebe;display:inline;overflow:visible;visibility:visible;opacity:0.1;fill:#ffffff;fill-opacity:1;fill-rule:nonzero;stroke:none;stroke-width:0;marker:none;enable-background:accumulate"
         d="m 419,154.5 c -1.1253,0 -2,-0.8747 -2,-2 v -1 c 0,1.1253 0.8747,2 2,2 h 10 c 1.1253,0 2,-0.8747 2,-2 v 1 c 0,1.1253 -0.8747,2 -2,2 z"
         id="path4304"
         inkscape:connector-curvature="0" />
    </g>
    <g
       inkscape:groupmode="layer"
       id="layer3"
       inkscape:label="Border"
       style="display:inline"
       sodipodi:insensitive="true">
      <path
         style="color:#bebebe;display:inline;overflow:visible;visibility:visible;opacity:0.41000001;fill:#000000;fill-opacity:1;fill-rule:nonzero;stroke:none;stroke-width:0;marker:none;enable-background:accumulate"
         d="m 422,101 c -2.77,0 -5,2.23 -5,5 v 12 c 0,2.77 2.23,5 5,5 h 12 c 2.77,0 5,-2.23 5,-5 v -12 c 0,-2.77 -2.23,-5 -5,-5 z m 0,1 h 12 c 2.2333,0 4,1.7667 4,4 v 12 c 0,2.2333 -1.7667,4 -4,4 h -12 c -2.2333,0 -4,-1.7667 -4,-4 v -12 c 0,-2.2333 1.7667,-4 4,-4 z"
         id="rect4099"
         inkscape:connector-curvature="0" />
      <path
         style="color:#bebebe;display:inline;overflow:visible;visibility:visible;opacity:0.41000001;fill:#000000;fill-opacity:1;fill-rule:nonzero;stroke:none;stroke-width:0;marker:none;enable-background:accumulate"
         d="m 424,53 c -3.878,0 -7,3.122 -7,7 v 16 c 0,3.878 3.122,7 7,7 h 16 c 3.878,0 7,-3.122 7,-7 V 60 c 0,-3.878 -3.122,-7 -7,-7 z m 0,1 h 16 c 3.3413,0 6,2.658703 6,6 v 16 c 0,3.341297 -2.6587,6 -6,6 h -16 c -3.3413,0 -6,-2.658703 -6,-6 V 60 c 0,-3.341297 2.6587,-6 6,-6 z"
         id="rect4151"
         inkscape:connector-curvature="0" />
      <path
         style="color:#bebebe;display:inline;overflow:visible;visibility:visible;opacity:0.41000001;fill:#000000;fill-opacity:1;fill-rule:nonzero;stroke:none;stroke-width:0;marker:none;enable-background:accumulate"
         d="m 419,140 c -1.662,0 -3,1.338 -3,3 v 10 c 0,1.662 1.338,3 3,3 h 10 c 1.662,0 3,-1.338 3,-3 v -10 c 0,-1.662 -1.338,-3 -3,-3 z m 0,1 h 10 c 1.1253,0 2,0.8747 2,2 v 10 c 0,1.1253 -0.8747,2 -2,2 h -10 c -1.1253,0 -2,-0.8747 -2,-2 v -10 c 0,-1.1253 0.8747,-2 2,-2 z"
         id="rect4095"
         inkscape:connector-curvature="0" />
      <path
         style="color:#bebebe;display:inline;overflow:visible;visibility:visible;opacity:0.41000001;fill:#000000;fill-opacity:1;fill-rule:nonzero;stroke:none;stroke-width:0;marker:none;enable-background:accumulate"
         d="m 300,223 c -4.986,0 -9,4.014 -9,9 v 24 c 0,4.986 4.014,9 9,9 h 24 c 4.986,0 9,-4.014 9,-9 v -24 c 0,-4.986 -4.014,-9 -9,-9 z m 0,1 h 24 c 4.4493,0 8,3.5507 8,8 v 24 c 0,4.4493 -3.5507,8 -8,8 h -24 c -4.4493,0 -8,-3.5507 -8,-8 v -24 c 0,-4.4493 3.5507,-8 8,-8 z"
         id="rect4783"
         inkscape:connector-curvature="0" />
      <path
         style="color:#bebebe;display:inline;overflow:visible;visibility:visible;opacity:0.41000001;fill:#000000;fill-opacity:1;fill-rule:nonzero;stroke:none;stroke-width:0;marker:none;enable-background:accumulate"
         d="m 302.5,142 c -6.925,0 -12.5,5.575 -12.5,12.5 v 35 c 0,6.925 5.575,12.5 12.5,12.5 h 35 c 6.925,0 12.5,-5.575 12.5,-12.5 v -35 c 0,-6.925 -5.575,-12.5 -12.5,-12.5 z m 0,1 h 35 c 6.3883,0 11.5,5.1117 11.5,11.5 v 35 c 0,6.3883 -5.1117,11.5 -11.5,11.5 h -35 c -6.3883,0 -11.5,-5.1117 -11.5,-11.5 v -35 c 0,-6.3883 5.1117,-11.5 11.5,-11.5 z"
         id="rect4515"
         inkscape:connector-curvature="0" />
      <path
         style="color:#bebebe;display:inline;overflow:visible;visibility:visible;opacity:0.41000001;fill:#000000;fill-opacity:1;fill-rule:nonzero;stroke:none;stroke-width:0;marker:none;enable-background:accumulate"
         d="m 310,32 c -9.972,0 -18,8.028 -18,18 v 52 c 0,9.972 8.028,18 18,18 h 52 c 9.972,0 18,-8.028 18,-18 V 50 c 0,-9.972 -8.028,-18 -18,-18 z m 0,1 h 52 c 9.4353,0 17,7.564703 17,17 v 52 c 0,9.4353 -7.5647,17 -17,17 h -52 c -9.4353,0 -17,-7.5647 -17,-17 V 50 c 0,-9.435297 7.5647,-17 17,-17 z"
         id="rect4511"
         inkscape:connector-curvature="0" />
      <path
         style="color:#bebebe;display:inline;overflow:visible;visibility:visible;opacity:0.41000001;fill:#000000;fill-opacity:1;fill-rule:nonzero;stroke:none;stroke-width:0;marker:none;enable-background:accumulate"
         d="M 84,46 C 56.3,46 34,68.3 34,96 v 120 c 0,27.7 22.3,50 50,50 h 120 c 27.7,0 50,-22.3 50,-50 V 96 C 254,68.3 231.7,46 204,46 Z m 0,1 h 120 c 27.1633,0 49,21.836703 49,49 v 120 c 0,27.1633 -21.8367,49 -49,49 H 84 C 56.836703,265 35,243.1633 35,216 V 96 C 35,68.836703 56.836703,47 84,47 Z"
         id="rect4040"
         inkscape:connector-curvature="0" />
    </g>
  </g>
</svg>
