<?xml version="1.0" encoding="UTF-8" standalone="no"?>
<!-- Created with Inkscape (http://www.inkscape.org/) -->

<svg
   xmlns:dc="http://purl.org/dc/elements/1.1/"
   xmlns:cc="http://creativecommons.org/ns#"
   xmlns:rdf="http://www.w3.org/1999/02/22-rdf-syntax-ns#"
   xmlns:svg="http://www.w3.org/2000/svg"
   xmlns="http://www.w3.org/2000/svg"
   xmlns:xlink="http://www.w3.org/1999/xlink"
   xmlns:sodipodi="http://sodipodi.sourceforge.net/DTD/sodipodi-0.dtd"
   xmlns:inkscape="http://www.inkscape.org/namespaces/inkscape"
   inkscape:export-ydpi="90.000000"
   inkscape:export-xdpi="90.000000"
   width="480"
   height="300"
   id="svg11300"
   sodipodi:version="0.32"
   inkscape:version="0.92.4 5da689c313, 2019-01-14"
   sodipodi:docname="masterpdfeditor4.svg"
   inkscape:output_extension="org.inkscape.output.svg.inkscape"
   version="1.0"
   style="display:inline;enable-background:new"
   inkscape:export-filename="/home/sam/moka-next-mail.png">
  <sodipodi:namedview
     stroke="#ef2929"
     fill="#f57900"
     id="base"
     pagecolor="#777777"
     bordercolor="#666666"
     borderopacity="0.25490196"
     inkscape:pageopacity="0"
     inkscape:pageshadow="2"
     inkscape:zoom="1.4142136"
     inkscape:cx="216.87342"
     inkscape:cy="121.75541"
     inkscape:current-layer="layer7"
     showgrid="false"
     inkscape:grid-bbox="true"
     inkscape:document-units="px"
     inkscape:showpageshadow="false"
     inkscape:window-width="2477"
     inkscape:window-height="1369"
     inkscape:window-x="83"
     inkscape:window-y="34"
     width="400px"
     height="300px"
     inkscape:snap-nodes="true"
     inkscape:snap-bbox="true"
     gridtolerance="10000"
     inkscape:object-nodes="true"
     inkscape:snap-grids="true"
     showguides="true"
     inkscape:guide-bbox="true"
     inkscape:window-maximized="1"
     inkscape:bbox-nodes="true"
     inkscape:bbox-paths="true"
     inkscape:snap-bbox-edge-midpoints="true"
     inkscape:snap-bbox-midpoints="true">
    <inkscape:grid
       spacingy="1"
       spacingx="1"
       id="grid5883"
       type="xygrid"
       enabled="true"
       visible="true"
       empspacing="4"
       snapvisiblegridlinesonly="true"
       dotted="false"
       color="#000000"
       opacity="0.1254902"
       empcolor="#203ef3"
       empopacity="0.36470588"
       originx="0"
       originy="0" />
    <inkscape:grid
       type="xygrid"
       id="grid11592"
       empspacing="8"
       visible="true"
       enabled="false"
       spacingx="0.5"
       spacingy="0.5"
       color="#ff0000"
       opacity="0.1254902"
       empcolor="#ff0000"
       empopacity="0.25098039"
       snapvisiblegridlinesonly="true"
       dotted="true"
       originx="0"
       originy="0" />
  </sodipodi:namedview>
  <defs
     id="defs3">
    <linearGradient
       id="linearGradient1021">
      <stop
         id="stop1017"
         offset="0"
         style="stop-color:#267eb6;stop-opacity:1" />
      <stop
         id="stop1019"
         offset="1"
         style="stop-color:#2e93d3;stop-opacity:1" />
    </linearGradient>
    <linearGradient
       inkscape:collect="always"
       xlink:href="#linearGradient1021"
       id="linearGradient17160"
       gradientUnits="userSpaceOnUse"
       gradientTransform="matrix(0,-1,1,0,-12,300)"
       x1="35"
       y1="156"
       x2="253"
       y2="156" />
    <linearGradient
       inkscape:collect="always"
       xlink:href="#linearGradient1021"
       id="linearGradient17162"
       gradientUnits="userSpaceOnUse"
       gradientTransform="rotate(-90,424,148)"
       x1="417"
       y1="148"
       x2="431"
       y2="148" />
    <linearGradient
       inkscape:collect="always"
       xlink:href="#linearGradient1021"
       id="linearGradient17164"
       gradientUnits="userSpaceOnUse"
       gradientTransform="rotate(-90,428,112)"
       x1="418"
       y1="112"
       x2="438"
       y2="112" />
    <linearGradient
       inkscape:collect="always"
       xlink:href="#linearGradient1021"
       id="linearGradient17166"
       gradientUnits="userSpaceOnUse"
       gradientTransform="rotate(-90,432,68)"
       x1="418"
       y1="68"
       x2="446"
       y2="68" />
    <linearGradient
       inkscape:collect="always"
       xlink:href="#linearGradient1021"
       id="linearGradient17168"
       gradientUnits="userSpaceOnUse"
       gradientTransform="rotate(-90,312,244)"
       x1="292"
       y1="244"
       x2="332"
       y2="244" />
    <linearGradient
       inkscape:collect="always"
       xlink:href="#linearGradient1021"
       id="linearGradient17170"
       gradientUnits="userSpaceOnUse"
       gradientTransform="rotate(-90,336,76)"
       x1="293"
       y1="76"
       x2="379"
       y2="76" />
    <linearGradient
       inkscape:collect="always"
       xlink:href="#linearGradient1021"
       id="linearGradient17172"
       gradientUnits="userSpaceOnUse"
       gradientTransform="rotate(-90,320.25,172.25)"
       x1="291"
       y1="172"
       x2="349"
       y2="172" />
  </defs>
  <metadata
     id="metadata4">
    <rdf:RDF>
      <cc:Work
         rdf:about="">
        <dc:format>image/svg+xml</dc:format>
        <dc:type
           rdf:resource="http://purl.org/dc/dcmitype/StillImage" />
        <dc:creator>
          <cc:Agent>
            <dc:title>Alfredo Hernández</dc:title>
          </cc:Agent>
        </dc:creator>
        <dc:source />
        <cc:license
           rdf:resource="" />
        <dc:title></dc:title>
        <dc:subject>
          <rdf:Bag />
        </dc:subject>
        <dc:date />
        <dc:rights>
          <cc:Agent>
            <dc:title />
          </cc:Agent>
        </dc:rights>
        <dc:publisher>
          <cc:Agent>
            <dc:title />
          </cc:Agent>
        </dc:publisher>
        <dc:identifier />
        <dc:relation />
        <dc:language />
        <dc:coverage />
        <dc:description />
        <dc:contributor>
          <cc:Agent>
            <dc:title />
          </cc:Agent>
        </dc:contributor>
      </cc:Work>
      <cc:Work
         rdf:about="">
        <dc:format>image/svg+xml</dc:format>
        <dc:type
           rdf:resource="http://purl.org/dc/dcmitype/StillImage" />
      </cc:Work>
    </rdf:RDF>
  </metadata>
  <g
     style="display:inline"
     inkscape:groupmode="layer"
     inkscape:label="Icon"
     id="layer1">
    <g
       style="display:none"
       inkscape:label="Baseplate"
       id="layer7"
       inkscape:groupmode="layer">
      <text
         y="19.745117"
         xml:space="preserve"
         x="15.006836"
         style="font-style:normal;font-variant:normal;font-weight:normal;font-stretch:normal;line-height:0%;font-family:'DejaVu Sans';-inkscape-font-specification:'DejaVu Sans';display:inline;fill:#000000;fill-opacity:1;stroke:none;enable-background:new"
         inkscape:label="context"
         id="context"><tspan
           style="font-style:normal;font-variant:normal;font-weight:normal;font-stretch:normal;font-size:18px;line-height:1.25;font-family:'DejaVu Sans';-inkscape-font-specification:'DejaVu Sans'"
           y="19.745117"
           x="15.006836"
           sodipodi:role="line"
           id="tspan3933">apps</tspan></text>
      <text
         y="19.745117"
         xml:space="preserve"
         x="122.48828"
         style="font-style:normal;font-variant:normal;font-weight:bold;font-stretch:normal;line-height:0%;font-family:'DejaVu Sans';-inkscape-font-specification:'DejaVu Sans Bold';text-align:start;writing-mode:lr-tb;text-anchor:start;display:inline;fill:#000000;fill-opacity:1;stroke:none;enable-background:new"
         inkscape:label="icon-name"
         id="icon-name"><tspan
           style="font-style:normal;font-variant:normal;font-weight:bold;font-stretch:normal;font-size:18px;line-height:1.25;font-family:'DejaVu Sans';-inkscape-font-specification:'DejaVu Sans Bold'"
           y="19.745117"
           x="122.48828"
           sodipodi:role="line"
           id="tspan3937">masterpdfeditor4</tspan></text>
      <rect
         style="display:inline;overflow:visible;visibility:visible;fill:#eeeeec;fill-opacity:1;fill-rule:nonzero;stroke:none;stroke-width:2;marker:none;enable-background:accumulate"
         id="rect16x16"
         width="16"
         height="16"
         x="416"
         y="140"
         inkscape:label="16x16" />
      <rect
         style="display:inline;overflow:visible;visibility:visible;fill:#d4d4d4;fill-opacity:1;fill-rule:nonzero;stroke:none;stroke-width:2;marker:none;enable-background:accumulate"
         id="rect24x24"
         width="24"
         height="24"
         x="416"
         y="100"
         inkscape:label="24x24" />
      <rect
         style="display:inline;overflow:visible;visibility:visible;fill:#eeeeec;fill-opacity:1;fill-rule:nonzero;stroke:none;stroke-width:2;marker:none;enable-background:accumulate"
         id="rect32x32"
         width="32"
         height="32"
         x="416"
         y="52"
         inkscape:label="32x32" />
      <rect
         inkscape:label="22x22"
         y="101"
         x="417"
         height="22"
         width="22"
         id="rect22x22"
         style="display:inline;overflow:visible;visibility:visible;fill:#eeeeec;fill-opacity:1;fill-rule:nonzero;stroke:none;stroke-width:2;marker:none;enable-background:accumulate" />
      <rect
         inkscape:label="48x48"
         y="220"
         x="288"
         height="48"
         width="48"
         id="rect48x48"
         style="display:inline;overflow:visible;visibility:visible;fill:#eeeeec;fill-opacity:1;fill-rule:nonzero;stroke:none;stroke-width:2;marker:none;enable-background:accumulate" />
      <rect
         style="display:inline;overflow:visible;visibility:visible;fill:#eeeeec;fill-opacity:1;fill-rule:nonzero;stroke:none;stroke-width:2;marker:none;enable-background:accumulate"
         id="rect256x256"
         width="256"
         height="256"
         x="16"
         y="28"
         inkscape:label="256x256" />
      <rect
         style="display:inline;overflow:visible;visibility:visible;fill:#eeeeec;fill-opacity:1;fill-rule:nonzero;stroke:none;stroke-width:2;marker:none;enable-background:accumulate"
         id="rect64x64"
         width="64"
         height="64"
         x="288"
         y="140"
         inkscape:label="64x64" />
      <rect
         style="display:inline;overflow:visible;visibility:visible;fill:#eeeeec;fill-opacity:1;fill-rule:nonzero;stroke:none;stroke-width:2;marker:none;enable-background:accumulate"
         id="rect96x96"
         width="96"
         height="96"
         x="288"
         y="28"
         inkscape:label="96x96" />
    </g>
    <g
       inkscape:groupmode="layer"
       id="layer4"
       inkscape:label="Shadow"
       style="display:inline"
       sodipodi:insensitive="true">
      <rect
         ry="50"
         y="47"
         x="34"
         height="220"
         width="220"
         id="rect4114"
         style="opacity:0.1;color:#bebebe;fill:#000000;fill-opacity:1;fill-rule:nonzero;stroke:none;stroke-width:0;marker:none;visibility:visible;display:inline;overflow:visible;enable-background:accumulate" />
      <rect
         style="opacity:0.1;color:#bebebe;fill:#000000;fill-opacity:1;fill-rule:nonzero;stroke:none;stroke-width:0;marker:none;visibility:visible;display:inline;overflow:visible;enable-background:accumulate"
         id="rect4120"
         width="30"
         height="30"
         x="417"
         y="54"
         ry="7" />
      <rect
         transform="scale(1,-1)"
         ry="9"
         y="-266"
         x="291"
         height="42"
         width="42"
         id="rect4122"
         style="opacity:0.1;color:#bebebe;fill:#000000;fill-opacity:1;fill-rule:nonzero;stroke:none;stroke-width:0;marker:none;visibility:visible;display:inline;overflow:visible;enable-background:accumulate" />
      <rect
         style="opacity:0.1;color:#bebebe;fill:#000000;fill-opacity:1;fill-rule:nonzero;stroke:none;stroke-width:0;marker:none;visibility:visible;display:inline;overflow:visible;enable-background:accumulate"
         id="rect4124"
         width="88"
         height="88"
         x="292"
         y="33"
         ry="18" />
      <rect
         ry="12.5"
         y="143"
         x="290"
         height="60"
         width="60"
         id="rect4126"
         style="opacity:0.1;color:#bebebe;fill:#000000;fill-opacity:1;fill-rule:nonzero;stroke:none;stroke-width:0;marker:none;visibility:visible;display:inline;overflow:visible;enable-background:accumulate" />
      <path
         id="path4268"
         d="m 422,101 c -2.77,0 -5,2.23 -5,5 l 0,12 c 0,2.77 2.23,5 5,5 l 12,0 c 2.77,0 5,-2.23 5,-5 l 0,-12 c 0,-2.77 -2.23,-5 -5,-5 z"
         style="opacity:0.1;color:#bebebe;fill:#000000;fill-opacity:1;fill-rule:nonzero;stroke:none;stroke-width:0;marker:none;visibility:visible;display:inline;overflow:visible;enable-background:accumulate"
         inkscape:connector-curvature="0"
         sodipodi:nodetypes="sssssssss" />
      <path
         id="path4270"
         d="m 419,140 c -1.662,0 -3,1.338 -3,3 l 0,10 c 0,1.662 1.338,3 3,3 l 10,0 c 1.662,0 3,-1.338 3,-3 l 0,-10 c 0,-1.662 -1.338,-3 -3,-3 z"
         style="opacity:0.1;color:#bebebe;fill:#000000;fill-opacity:1;fill-rule:nonzero;stroke:none;stroke-width:0;marker:none;visibility:visible;display:inline;overflow:visible;enable-background:accumulate"
         inkscape:connector-curvature="0"
         sodipodi:nodetypes="sssssssss" />
    </g>
    <g
       inkscape:groupmode="layer"
       id="layer2"
       inkscape:label="Background"
       style="display:inline">
      <path
         style="color:#bebebe;fill:url(#linearGradient17160);fill-opacity:1.0;fill-rule:nonzero;stroke:none;stroke-width:2;marker:none;visibility:visible;display:inline;overflow:visible;enable-background:accumulate"
         d="M 84,46.5 C 56.56874,46.5 34.5,68.56873 34.5,96 l 0,120 c 0,27.43127 22.06874,49.5 49.5,49.5 l 120,0 c 27.43127,0 49.5,-22.06873 49.5,-49.5 l 0,-120 C 253.5,68.56873 231.43127,46.5 204,46.5 l -120,0 z"
         id="path4200"
         inkscape:connector-curvature="0" />
      <path
         style="color:#bebebe;fill:url(#linearGradient17162);fill-opacity:1.0;fill-rule:nonzero;stroke:none;stroke-width:2;marker:none;visibility:visible;display:inline;overflow:visible;enable-background:accumulate"
         d="m 419,140.5 c -1.3844,0 -2.5,1.1156 -2.5,2.5 l 0,10 c 0,1.3844 1.1156,2.5 2.5,2.5 l 10,0 c 1.3844,0 2.5,-1.1156 2.5,-2.5 l 0,-10 c 0,-1.3844 -1.1156,-2.5 -2.5,-2.5 l -10,0 z"
         id="path4202"
         inkscape:connector-curvature="0" />
      <path
         style="color:#bebebe;fill:url(#linearGradient17164);fill-opacity:1.0;fill-rule:nonzero;stroke:none;stroke-width:2;marker:none;visibility:visible;display:inline;overflow:visible;enable-background:accumulate"
         d="m 422,101.5 c -2.49699,0 -4.5,2.00301 -4.5,4.5 l 0,12 c 0,2.49699 2.00301,4.5 4.5,4.5 l 12,0 c 2.49699,0 4.5,-2.00301 4.5,-4.5 l 0,-12 c 0,-2.49699 -2.00301,-4.5 -4.5,-4.5 l -12,0 z"
         id="path4204"
         inkscape:connector-curvature="0" />
      <path
         style="color:#bebebe;fill:url(#linearGradient17166);fill-opacity:1.0;fill-rule:nonzero;stroke:none;stroke-width:2;marker:none;visibility:visible;display:inline;overflow:visible;enable-background:accumulate"
         d="m 424,53.5 c -3.60654,0 -6.5,2.89346 -6.5,6.5 l 0,16 c 0,3.60654 2.89346,6.5 6.5,6.5 l 16,0 c 3.60654,0 6.5,-2.89346 6.5,-6.5 l 0,-16 c 0,-3.60654 -2.89346,-6.5 -6.5,-6.5 l -16,0 z"
         id="path4206"
         inkscape:connector-curvature="0" />
      <path
         style="color:#bebebe;fill:url(#linearGradient17168);fill-opacity:1.0;fill-rule:nonzero;stroke:none;stroke-width:2;marker:none;visibility:visible;display:inline;overflow:visible;enable-background:accumulate"
         d="m 300,223.5 c -4.71531,0 -8.5,3.78469 -8.5,8.5 l 0,24 c 0,4.71531 3.78469,8.5 8.5,8.5 l 24,0 c 4.71531,0 8.5,-3.78469 8.5,-8.5 l 0,-24 c 0,-4.71531 -3.78469,-8.5 -8.5,-8.5 l -24,0 z"
         id="path4208"
         inkscape:connector-curvature="0" />
      <path
         style="color:#bebebe;fill:url(#linearGradient17170);fill-opacity:1.0;fill-rule:nonzero;stroke:none;stroke-width:2;marker:none;visibility:visible;display:inline;overflow:visible;enable-background:accumulate"
         d="m 310,32.5 c -9.70255,0 -17.5,7.79745 -17.5,17.5 l 0,52 c 0,9.70255 7.79745,17.5 17.5,17.5 l 52,0 c 9.70255,0 17.5,-7.79745 17.5,-17.5 l 0,-52 c 0,-9.70255 -7.79745,-17.5 -17.5,-17.5 l -52,0 z"
         id="path4210"
         inkscape:connector-curvature="0" />
      <path
         style="color:#bebebe;fill:url(#linearGradient17172);fill-opacity:1.0;fill-rule:nonzero;stroke:none;stroke-width:2;marker:none;visibility:visible;display:inline;overflow:visible;enable-background:accumulate"
         d="m 302.5,143 c -6.65502,0 -12,5.34498 -12,12 l 0,35 c 0,6.65502 5.34498,12 12,12 l 35,0 c 6.65502,0 12,-5.34498 12,-12 l 0,-35 c 0,-6.65502 -5.34498,-12 -12,-12 l -35,0 z"
         id="path4212"
         inkscape:connector-curvature="0" />
    </g>
    <g
       inkscape:groupmode="layer"
       id="layer6"
       inkscape:label="Symbols"
       style="display:inline">
      <path
         sodipodi:nodetypes="ssscsscsssscscsscssssscscsccscsssssscsscscsscssss"
         inkscape:connector-curvature="0"
         id="path1003"
         d="m 183.01544,213.23845 c 6.64552,-3.36748 17.74151,-11.5525 25.7046,-18.96114 4.97917,-4.63248 5.36854,-5.2552 5.10312,-8.16136 l -0.28735,-3.14622 -10.20624,6.8479 c -12.75828,8.5602 -15.77856,10.13633 -19.42394,10.13633 -3.96265,0 -5.27551,-1.86813 -5.0847,-7.23523 0.48467,-13.63203 15.37263,-38.68943 37.62108,-63.31864 3.81871,-4.22735 7.16246,-8.56501 7.43056,-9.63922 1.07738,-4.31696 -4.91613,-13.03939 -8.95984,-13.03939 -2.75992,0 -4.62016,1.23175 -12.85894,8.51456 -3.5084,3.10131 -8.29257,7.11214 -10.6315,8.91295 -2.33893,1.80083 -12.19,11.41443 -21.89127,21.36355 l -17.63866,18.08931 6.93065,-11.97482 c 9.36466,-16.18035 16.67908,-30.63845 17.36773,-34.33008 0.75918,-4.06973 -0.93602,-9.40554 -3.53154,-11.11583 -3.11286,-2.0512 -7.38241,-0.99789 -14.0624,3.46919 -9.49309,6.34828 -17.04564,13.44895 -28.00626,26.33065 -14.31137,16.81974 -14.17672,16.69291 -11.61658,10.94167 1.15178,-2.5874 3.67857,-8.05765 5.6151,-12.15608 1.93652,-4.09843 4.12834,-9.92694 4.8707,-12.95225 1.3001,-5.29827 1.28126,-5.70749 -0.51223,-11.12749 -1.02408,-3.09481 -2.98947,-6.84078 -4.36754,-8.32437 -2.26954,-2.443328 -2.83482,-2.644512 -6.00029,-2.13545 -6.24249,1.00387 -13.67347,3.87907 -26.243015,10.15397 -6.782898,3.38611 -12.715276,6.28008 -13.183062,6.43104 -0.467786,0.15096 0.776099,-1.24393 2.76419,-3.09973 3.445823,-3.21653 4.546583,-5.2801 2.81654,-5.2801 -1.371106,0 -14.37152,10.23044 -16.096758,12.66706 -2.823302,3.98744 -5.701402,18.15159 -4.247855,20.90517 1.86053,3.52459 6.597732,1.60341 29.966404,-12.15287 7.326826,-4.31303 15.249956,-8.64784 17.606946,-9.63292 3.86951,-1.61722 4.41332,-1.66246 5.60288,-0.46615 4.27907,4.30334 -8.50651,28.21483 -32.822269,61.38393 -8.767596,11.95987 -8.890973,12.48323 -5.056181,21.44798 3.331547,7.78832 7.0399,8.75792 11.203587,2.92932 1.344239,-1.88175 6.382346,-9.45359 11.195793,-16.82627 17.39717,-26.64712 37.48188,-51.79026 47.29951,-59.21215 2.90712,-2.19772 5.70841,-3.84432 6.22511,-3.65914 4.16606,1.49321 -5.48499,19.37976 -25.57122,47.39182 -12.70131,17.71313 -14.3013,20.94571 -13.54986,27.37564 0.68243,5.83932 2.42732,10.08758 4.63031,11.27326 2.3662,1.27353 5.22842,-1.29187 13.58611,-12.17728 21.20859,-27.62293 55.67101,-63.37116 59.76785,-61.99781 0.54178,0.18161 -3.06725,5.2197 -8.02006,11.19574 -12.03028,14.51569 -15.42198,19.23385 -19.73893,27.4586 -4.6465,8.85263 -6.33742,14.74655 -6.33742,22.08989 0,15.56517 9.23128,21.60559 22.63714,14.81246 z"
         style="display:inline;fill:#000000;fill-opacity:1;stroke-width:0.85292858;enable-background:new;opacity:0.2" />
      <path
         sodipodi:nodetypes="ssscsscsssscscsscssssscscsccscsssssscsscscsscssss"
         inkscape:connector-curvature="0"
         id="path1005"
         d="m 352.09387,99.857293 c 2.74127,-1.39344 7.31837,-4.780341 10.60314,-7.845986 2.05391,-1.916891 2.21453,-2.174569 2.10504,-3.377117 l -0.11853,-1.301881 -4.21007,2.833613 c -5.26279,3.542153 -6.50866,4.194341 -8.01238,4.194341 -1.63459,0 -2.17615,-0.773021 -2.09744,-2.99389 0.19993,-5.640839 6.34121,-16.009418 15.5187,-26.200814 1.57522,-1.749251 2.95451,-3.54414 3.0651,-3.988644 0.44442,-1.786327 -2.0279,-5.395609 -3.69593,-5.395609 -1.13847,0 -1.90582,0.509688 -5.30431,3.523266 -1.44722,1.2833 -3.42069,2.942954 -4.3855,3.688119 -0.96481,0.745169 -5.02837,4.72321 -9.03015,8.840087 l -7.27594,7.485233 2.85889,-4.955098 c 3.86292,-6.695312 6.88012,-12.67798 7.16419,-14.20555 0.31316,-1.684026 -0.38611,-3.891949 -1.45676,-4.599653 -1.28406,-0.848772 -3.04525,-0.412923 -5.80074,1.435525 -3.9159,2.626875 -7.03133,5.565085 -11.55258,10.895444 -5.90344,6.95989 -5.8479,6.90741 -4.79185,4.52759 0.47512,-1.070654 1.51742,-3.334201 2.31623,-5.030104 0.79882,-1.695904 1.70294,-4.107702 2.00917,-5.359555 0.53629,-2.192388 0.52852,-2.36172 -0.2113,-4.604476 -0.42243,-1.280613 -1.23315,-2.830667 -1.80161,-3.44457 -0.93618,-1.011032 -1.16936,-1.094282 -2.47512,-0.883635 -2.57502,0.415394 -5.6403,1.605135 -10.82524,4.201644 -2.79795,1.401152 -5.24505,2.598656 -5.43801,2.66112 -0.19297,0.06247 0.32014,-0.514729 1.14023,-1.282643 1.4214,-1.330978 1.87546,-2.184873 1.16182,-2.184873 -0.56558,0 -5.92825,4.233288 -6.63992,5.241545 -1.16461,1.649974 -2.35182,7.511003 -1.75223,8.650419 0.76747,1.458445 2.72156,0.663476 12.36114,-5.028776 3.02231,-1.784706 6.2906,-3.578419 7.26286,-3.986041 1.59617,-0.669194 1.8205,-0.687912 2.31119,-0.192889 1.76512,1.780692 -3.50893,11.675103 -13.53918,25.400251 -3.61664,4.94891 -3.66753,5.16547 -2.08568,8.875025 1.37426,3.22275 2.90396,3.623962 4.62148,1.212132 0.5545,-0.778657 2.63272,-3.911828 4.61826,-6.962596 7.17634,-11.026393 15.46128,-21.430452 19.51105,-24.501581 1.19919,-0.909399 2.35472,-1.590751 2.56786,-1.514123 1.7185,0.617882 -2.26256,8.019209 -10.54813,19.610408 -5.23929,7.329568 -5.89929,8.667187 -5.58932,11.327849 0.28151,2.416271 1.00127,4.174171 1.91,4.664799 0.97607,0.52698 2.15673,-0.534568 5.60428,-5.038872 8.74854,-11.430181 22.96429,-26.222553 24.65424,-25.654268 0.22348,0.07515 -1.26524,2.159874 -3.30828,4.632723 -4.96249,6.006485 -6.36157,7.958826 -8.14231,11.362172 -1.91668,3.663163 -2.61418,6.102022 -2.61418,9.140647 0,6.440759 3.8079,8.940239 9.33782,6.129292 z"
         style="display:inline;fill:#000000;fill-opacity:1;stroke-width:0.35238409;enable-background:new;opacity:0.2" />
      <path
         sodipodi:nodetypes="ssscsscsssscscsscssssscscsccscsssssscsscscsscssss"
         inkscape:connector-curvature="0"
         id="path1007"
         d="m 330.72923,188.2382 c 1.82751,-0.92897 4.87891,-3.1869 7.06876,-5.23066 1.36927,-1.27793 1.47635,-1.44971 1.40336,-2.25142 l -0.079,-0.86791 -2.80671,1.88907 c -3.50853,2.36143 -4.33911,2.79623 -5.34159,2.79623 -1.08973,0 -1.45077,-0.51534 -1.39829,-1.99593 0.13328,-3.76056 4.22747,-10.67294 10.3458,-17.4672 1.05014,-1.16616 1.96967,-2.36276 2.0434,-2.6591 0.29628,-1.19088 -1.35194,-3.59706 -2.46396,-3.59706 -0.75898,0 -1.27054,0.33979 -3.5362,2.34883 -0.96482,0.85553 -2.28046,1.96197 -2.92367,2.45875 -0.64321,0.49677 -3.35225,3.14881 -6.0201,5.89339 l -4.85063,4.99015 1.90593,-3.30339 c 2.57528,-4.46354 4.58675,-8.45199 4.77613,-9.47037 0.20877,-1.12269 -0.25741,-2.59463 -0.97118,-3.06643 -0.85604,-0.56586 -2.03016,-0.2753 -3.86716,0.95701 -2.6106,1.75125 -4.68755,3.71005 -7.70172,7.26363 -3.93563,4.63993 -3.8986,4.60494 -3.19457,3.01839 0.31675,-0.71377 1.01162,-2.2228 1.54416,-3.3534 0.53254,-1.1306 1.13529,-2.73847 1.33945,-3.57304 0.35752,-1.46159 0.35234,-1.57448 -0.14087,-3.06965 -0.28162,-0.85373 -0.8221,-1.88711 -1.20108,-2.29638 -0.62412,-0.67402 -0.77957,-0.72952 -1.65008,-0.5891 -1.71668,0.27695 -3.7602,1.0701 -7.21682,2.80111 -1.8653,0.9341 -3.4967,1.73244 -3.62534,1.77408 -0.12865,0.0417 0.21342,-0.34316 0.76015,-0.8551 0.9476,-0.88732 1.25031,-1.45658 0.77455,-1.45658 -0.37706,0 -3.95217,2.82219 -4.42662,3.49437 -0.7764,1.09998 -1.56788,5.00733 -1.16815,5.76694 0.51165,0.9723 1.81437,0.44232 8.24076,-3.35252 2.01487,-1.1898 4.19373,-2.38561 4.84191,-2.65736 1.06411,-0.44613 1.21366,-0.4586 1.54079,-0.12859 1.17675,1.18713 -2.33929,7.7834 -9.02612,16.9335 -2.41109,3.29927 -2.44502,3.44365 -1.39045,5.91668 0.91617,2.1485 1.93597,2.41597 3.08098,0.80809 0.36967,-0.5191 1.75515,-2.60789 3.07884,-4.64173 4.78423,-7.35093 10.30753,-14.28696 13.00737,-16.33438 0.79946,-0.60627 1.56982,-1.06051 1.71191,-1.00942 1.14567,0.41192 -1.50837,5.34614 -7.03209,13.0736 -3.49286,4.88638 -3.93286,5.77813 -3.72621,7.5519 0.18767,1.61084 0.66751,2.78278 1.27333,3.10986 0.65071,0.35133 1.43782,-0.35637 3.73619,-3.35925 5.83236,-7.62011 15.30953,-17.48169 16.43616,-17.10283 0.14899,0.0501 -0.84349,1.43991 -2.20552,3.08847 -3.30833,4.00433 -4.24105,5.30589 -5.42821,7.57479 -1.27778,2.44211 -1.74278,4.06801 -1.74278,6.09377 0,4.29383 2.5386,5.96015 6.22521,4.08619 z"
         style="display:inline;fill:#000000;fill-opacity:1;stroke-width:0.23492274;enable-background:new;opacity:0.2" />
      <path
         sodipodi:nodetypes="ssscsscsssscscsscssssscscsccscsssssscsscscsscssss"
         inkscape:connector-curvature="0"
         id="path1009"
         d="m 319.80312,255.45243 c 1.3291,-0.6677 3.5483,-2.29059 5.14092,-3.75954 0.99583,-0.91851 1.07371,-1.04198 1.02062,-1.6182 l -0.0575,-0.62382 -2.04124,1.35777 c -2.55166,1.69729 -3.15572,2.00979 -3.88479,2.00979 -0.79253,0 -1.05511,-0.37041 -1.01694,-1.43457 0.0969,-2.7029 3.07452,-7.67118 7.52422,-12.55456 0.76374,-0.83818 1.43249,-1.69823 1.4861,-1.91123 0.21548,-0.85594 -0.98322,-2.58539 -1.79196,-2.58539 -0.55199,0 -0.92404,0.24422 -2.57179,1.68823 -0.70168,0.61491 -1.65852,1.41017 -2.1263,1.76723 -0.46779,0.35705 -2.438,2.2632 -4.37826,4.23587 l -3.52773,3.58667 1.38613,-2.37432 c 1.87293,-3.20817 3.33582,-6.07486 3.47355,-6.80682 0.15184,-0.80693 -0.1872,-1.86489 -0.70631,-2.204 -0.62257,-0.40671 -1.47648,-0.19786 -2.81248,0.68786 -1.89862,1.25871 -3.40913,2.66659 -5.60125,5.22073 -2.86227,3.33494 -2.83535,3.3098 -2.32332,2.16947 0.23036,-0.51302 0.73572,-1.59764 1.12302,-2.41025 0.38731,-0.81263 0.82567,-1.96829 0.97414,-2.56813 0.26002,-1.05052 0.25626,-1.13166 -0.10245,-2.20631 -0.20481,-0.61363 -0.59789,-1.35636 -0.8735,-1.65052 -0.45391,-0.48446 -0.56697,-0.52435 -1.20006,-0.42341 -1.2485,0.19904 -2.73469,0.76913 -5.2486,2.01328 -1.35659,0.6714 -2.54306,1.2452 -2.63661,1.27512 -0.0936,0.0299 0.15521,-0.24664 0.55283,-0.61459 0.68917,-0.63776 0.90932,-1.04692 0.56331,-1.04692 -0.27422,0 -2.8743,2.02845 -3.21935,2.51156 -0.56466,0.79063 -1.14028,3.59903 -0.84957,4.145 0.37211,0.69884 1.31954,0.31791 5.99328,-2.40961 1.46536,-0.85518 3.04999,-1.71467 3.52139,-1.90999 0.7739,-0.32066 0.88266,-0.32962 1.12057,-0.0924 0.85582,0.85325 -1.7013,5.59432 -6.56445,12.17095 -1.75352,2.37136 -1.77819,2.47512 -1.01124,4.25262 0.66631,1.54424 1.40798,1.73648 2.24072,0.58081 0.26885,-0.37311 1.27647,-1.87442 2.23916,-3.33624 3.47944,-5.28348 7.49638,-10.26877 9.4599,-11.74035 0.58143,-0.43575 1.14168,-0.76223 1.24502,-0.72551 0.83322,0.29607 -1.09699,3.84254 -5.11424,9.39665 -2.54026,3.51209 -2.86026,4.15304 -2.70997,5.42793 0.13649,1.1578 0.48546,2.00013 0.92606,2.23521 0.47324,0.25252 1.04568,-0.25614 2.71722,-2.41445 4.24172,-5.47697 11.13421,-12.56497 11.95358,-12.29267 0.10835,0.036 -0.61345,1.03493 -1.60402,2.21984 -2.40606,2.87811 -3.0844,3.81361 -3.94779,5.44438 -0.9293,1.75526 -1.26748,2.92389 -1.26748,4.37989 0,3.0862 1.84626,4.28387 4.52743,2.93696 z"
         style="display:inline;fill:#000000;fill-opacity:1;stroke-width:0.16984887;enable-background:new;opacity:0.2" />
      <path
         sodipodi:nodetypes="ssscsscsssscscsscssssscscsccscsssssscsscscsscssss"
         inkscape:connector-curvature="0"
         id="path1011"
         d="m 436.87691,76.666715 c 0.83069,-0.406423 2.21769,-1.394267 3.21307,-2.288414 0.6224,-0.559093 0.67107,-0.634248 0.63789,-0.984993 l -0.0359,-0.379712 -1.27578,0.826466 c -1.59479,1.033128 -1.97232,1.223354 -2.428,1.223354 -0.49533,0 -0.65944,-0.225465 -0.63558,-0.873223 0.0606,-1.645242 1.92157,-4.669408 4.70263,-7.641899 0.47734,-0.510196 0.89531,-1.033707 0.92882,-1.163356 0.13467,-0.521008 -0.61452,-1.573715 -1.11998,-1.573715 -0.34499,0 -0.57752,0.148659 -1.60736,1.027615 -0.43856,0.374296 -1.03658,0.858362 -1.32895,1.075701 -0.29236,0.21734 -1.52375,1.377605 -2.7364,2.578362 l -2.20484,2.183189 0.86634,-1.445235 c 1.17058,-1.952799 2.08488,-3.697743 2.17096,-4.143283 0.0949,-0.491177 -0.117,-1.135153 -0.44144,-1.341564 -0.38911,-0.247563 -0.9228,-0.120443 -1.7578,0.418692 -1.18664,0.766171 -2.13071,1.623147 -3.50078,3.177839 -1.78893,2.029967 -1.77209,2.01466 -1.45208,1.320542 0.14398,-0.312272 0.45983,-0.972472 0.70189,-1.467109 0.24206,-0.494641 0.51604,-1.198082 0.60884,-1.563206 0.16251,-0.639447 0.16016,-0.688835 -0.064,-1.342971 -0.12801,-0.373511 -0.37368,-0.825614 -0.54595,-1.004669 -0.28369,-0.294882 -0.35435,-0.319165 -0.75003,-0.257727 -0.78031,0.121161 -1.70918,0.468168 -3.28037,1.225485 -0.84787,0.408665 -1.58941,0.75794 -1.64789,0.776158 -0.0585,0.01823 0.097,-0.150133 0.34553,-0.374106 0.43072,-0.388202 0.56832,-0.637253 0.35206,-0.637253 -0.17139,0 -1.79644,1.234705 -2.01209,1.528784 -0.35291,0.481242 -0.71268,2.19071 -0.53098,2.523037 0.23257,0.425383 0.82471,0.193514 3.7458,-1.466725 0.91585,-0.52054 1.90624,-1.043707 2.20087,-1.162596 0.48368,-0.195183 0.55166,-0.200638 0.70035,-0.05626 0.53489,0.51937 -1.06331,3.405236 -4.10278,7.408406 -1.09595,1.44343 -1.11137,1.506598 -0.63202,2.588548 0.41644,0.93997 0.87999,1.056988 1.40045,0.353539 0.16803,-0.227107 0.79779,-1.140952 1.39947,-2.030756 2.17465,-3.216031 4.68524,-6.250547 5.91244,-7.146292 0.36339,-0.265241 0.71355,-0.463972 0.77814,-0.441621 0.52076,0.180216 -0.68562,2.338936 -3.1964,5.7197 -1.58767,2.13779 -1.78767,2.527931 -1.69374,3.303958 0.0853,0.704742 0.30342,1.217466 0.57879,1.360564 0.29578,0.153703 0.65355,-0.155915 1.69827,-1.469673 2.65107,-3.333798 6.95887,-7.648238 7.47098,-7.482489 0.0677,0.02193 -0.38341,0.629963 -1.00251,1.351207 -1.50379,1.751892 -1.92775,2.321326 -2.46737,3.313968 -0.58081,1.068423 -0.79217,1.779755 -0.79217,2.666025 0,1.878553 1.15391,2.607565 2.82964,1.787708 z"
         style="display:inline;fill:#000000;fill-opacity:1;stroke-width:0.10476173;enable-background:new;opacity:0.2" />
      <path
         sodipodi:nodetypes="ssscsscsssscscsscssssscscsccscsssssscsscscsscssss"
         inkscape:connector-curvature="0"
         id="path1013"
         d="m 431.9015,118.71439 c 0.66455,-0.34836 1.77415,-1.19508 2.57045,-1.9615 0.49792,-0.47922 0.53686,-0.54364 0.51032,-0.84428 l -0.0287,-0.32548 -1.02062,0.70841 c -1.27583,0.88554 -1.57786,1.0486 -1.9424,1.0486 -0.39626,0 -0.52755,-0.19326 -0.50847,-0.74849 0.0485,-1.41021 1.53726,-4.00237 3.76211,-6.55023 0.38187,-0.43731 0.71625,-0.88604 0.74306,-0.99717 0.10773,-0.44658 -0.49162,-1.3489 -0.89599,-1.3489 -0.27599,0 -0.46201,0.12742 -1.28589,0.88082 -0.35084,0.32082 -0.82926,0.73574 -1.06315,0.92203 -0.2339,0.18629 -1.219,1.18082 -2.18913,2.21004 l -1.76386,1.87132 0.69306,-1.23879 c 0.93647,-1.67383 1.66791,-3.16951 1.73678,-3.5514 0.0759,-0.42101 -0.0936,-0.97299 -0.35316,-1.14992 -0.31129,-0.2122 -0.73824,-0.1032 -1.40624,0.35888 -0.94931,0.65673 -1.70456,1.39128 -2.80063,2.72388 -1.43113,1.73997 -1.41767,1.72685 -1.16166,1.1319 0.11518,-0.26767 0.36786,-0.83356 0.56151,-1.25753 0.19366,-0.42398 0.41284,-1.02694 0.48708,-1.3399 0.13,-0.5481 0.12812,-0.59043 -0.0512,-1.15113 -0.10241,-0.32015 -0.29894,-0.70767 -0.43675,-0.86114 -0.22696,-0.25275 -0.28348,-0.27357 -0.60003,-0.22091 -0.62425,0.10383 -1.36735,0.40129 -2.6243,1.05042 -0.67829,0.35028 -1.27153,0.64967 -1.31831,0.66528 -0.0468,0.0156 0.0776,-0.12868 0.27642,-0.32067 0.34458,-0.33274 0.45466,-0.54621 0.28166,-0.54621 -0.13712,0 -1.43716,1.05832 -1.60968,1.31039 -0.28233,0.4125 -0.57014,1.87776 -0.42479,2.16261 0.18606,0.36461 0.65978,0.16588 2.99664,-1.25719 0.73268,-0.44618 1.525,-0.89462 1.7607,-0.99652 0.38695,-0.1673 0.44133,-0.17198 0.56029,-0.0483 0.4279,0.44517 -0.85066,2.91879 -3.28223,6.35008 -0.87676,1.23724 -0.8891,1.29139 -0.50562,2.21877 0.33315,0.80569 0.70399,0.906 1.12036,0.30303 0.13442,-0.19466 0.63823,-0.97795 1.11958,-1.74065 1.73972,-2.75661 3.74819,-5.35763 4.72995,-6.12543 0.29071,-0.22735 0.57084,-0.39768 0.62251,-0.37853 0.41661,0.15447 -0.5485,2.00482 -2.55712,4.90263 -1.27013,1.8324 -1.43013,2.16681 -1.35499,2.83198 0.0683,0.60406 0.24273,1.04354 0.46303,1.1662 0.23662,0.13175 0.52285,-0.13365 1.35862,-1.25973 2.12085,-2.85755 5.5671,-6.55566 5.97678,-6.41359 0.0542,0.0188 -0.30672,0.53997 -0.80201,1.15818 -1.20302,1.50164 -1.5422,1.98972 -1.97389,2.84056 -0.46465,0.9158 -0.63374,1.52552 -0.63374,2.28517 0,1.6102 0.92313,2.23507 2.26371,1.53233 z"
         style="display:inline;fill:#000000;fill-opacity:1;stroke-width:0.08675118;enable-background:new;opacity:0.2" />
      <path
         sodipodi:nodetypes="ssscsscsssscscsscssssscscsccscsssssscsscscsscssss"
         inkscape:connector-curvature="0"
         id="path1015"
         d="m 426.9261,152.78577 c 0.49841,-0.26126 1.33061,-0.89632 1.92785,-1.47112 0.37343,-0.35942 0.40264,-0.40774 0.38273,-0.63321 l -0.0215,-0.24411 -0.76547,0.53131 c -0.95687,0.66415 -1.18339,0.78644 -1.4568,0.78644 -0.2972,0 -0.39566,-0.14494 -0.38135,-0.56136 0.0364,-1.05766 1.15295,-3.00178 2.82158,-4.91267 0.2864,-0.32799 0.53718,-0.66453 0.55729,-0.74788 0.0808,-0.33493 -0.36871,-1.01168 -0.67199,-1.01168 -0.20699,0 -0.34651,0.0956 -0.96441,0.66062 -0.26314,0.24062 -0.62195,0.55181 -0.79737,0.69152 -0.17542,0.13972 -0.91425,0.88561 -1.64184,1.65753 l -1.3229,1.40348 0.5198,-0.92908 c 0.70234,-1.25538 1.25093,-2.37713 1.30258,-2.66355 0.0569,-0.31576 -0.0702,-0.72975 -0.26487,-0.86243 -0.23347,-0.15916 -0.55368,-0.0774 -1.05468,0.26916 -0.71198,0.49253 -1.27842,1.04345 -2.10047,2.0429 -1.07335,1.30499 -1.06325,1.29514 -0.87125,0.84892 0.0864,-0.20075 0.2759,-0.62516 0.42114,-0.94315 0.14524,-0.31798 0.30962,-0.77019 0.3653,-1.00492 0.0975,-0.41107 0.0961,-0.44282 -0.0384,-0.86333 -0.0768,-0.24013 -0.22421,-0.53076 -0.32756,-0.64587 -0.17022,-0.18957 -0.21261,-0.20517 -0.45003,-0.16568 -0.46818,0.0779 -1.0255,0.30096 -1.96822,0.78782 -0.50872,0.26271 -0.95364,0.48725 -0.98873,0.49895 -0.0351,0.0118 0.0582,-0.0966 0.20732,-0.24049 0.25843,-0.24956 0.34099,-0.40967 0.21124,-0.40967 -0.10284,0 -1.07787,0.79375 -1.20726,0.98279 -0.21175,0.30937 -0.42761,1.40833 -0.31859,1.62196 0.13954,0.27346 0.49483,0.12441 2.24748,-0.9429 0.54951,-0.33463 1.14374,-0.67095 1.32052,-0.74738 0.29021,-0.12548 0.331,-0.12898 0.42022,-0.0362 0.32093,0.33389 -0.63799,2.18909 -2.46167,4.76257 -0.65757,0.92792 -0.66683,0.96853 -0.37922,1.66407 0.24987,0.60426 0.528,0.67949 0.84027,0.22727 0.10082,-0.14599 0.47868,-0.73347 0.83968,-1.30549 1.30479,-2.06745 2.81115,-4.01822 3.54747,-4.59406 0.21803,-0.17051 0.42813,-0.29827 0.46688,-0.28389 0.31246,0.11585 -0.41137,1.5036 -1.91784,3.67696 -0.9526,1.3743 -1.0726,1.6251 -1.01624,2.12398 0.0512,0.45305 0.18205,0.78265 0.34727,0.87465 0.17747,0.0988 0.39214,-0.10029 1.01896,-0.9448 1.59065,-2.14316 4.17533,-4.91674 4.48259,-4.81019 0.0406,0.014 -0.23004,0.40498 -0.6015,0.86864 -0.90227,1.12622 -1.15665,1.49229 -1.48042,2.13041 -0.34849,0.68685 -0.47531,1.14414 -0.47531,1.71389 0,1.20764 0.69235,1.67629 1.69779,1.14924 z"
         style="display:inline;fill:#000000;fill-opacity:1;stroke-width:0.06506335;enable-background:new;opacity:0.2" />
      <path
         style="display:inline;fill:#ffffff;fill-opacity:1;stroke-width:0.85292858;enable-background:new"
         d="m 183.01544,212.23845 c 6.64552,-3.36748 17.74151,-11.5525 25.7046,-18.96114 4.97917,-4.63248 5.36854,-5.2552 5.10312,-8.16136 l -0.28735,-3.14622 -10.20624,6.8479 c -12.75828,8.5602 -15.77856,10.13633 -19.42394,10.13633 -3.96265,0 -5.27551,-1.86813 -5.0847,-7.23523 0.48467,-13.63203 15.37263,-38.68943 37.62108,-63.31864 3.81871,-4.22735 7.16246,-8.56501 7.43056,-9.63922 1.07738,-4.31696 -4.91613,-13.03939 -8.95984,-13.03939 -2.75992,0 -4.62016,1.23175 -12.85894,8.51456 -3.5084,3.10131 -8.29257,7.11214 -10.6315,8.91295 -2.33893,1.80083 -12.19,11.41443 -21.89127,21.36355 l -17.63866,18.08931 6.93065,-11.97482 c 9.36466,-16.18035 16.67908,-30.63845 17.36773,-34.33008 0.75918,-4.06973 -0.93602,-9.40554 -3.53154,-11.11583 -3.11286,-2.0512 -7.38241,-0.99789 -14.0624,3.46919 -9.49309,6.34828 -17.04564,13.44895 -28.00626,26.33065 -14.31137,16.81974 -14.17672,16.69291 -11.61658,10.94167 1.15178,-2.5874 3.67857,-8.05765 5.6151,-12.15608 1.93652,-4.09843 4.12834,-9.92694 4.8707,-12.95225 1.3001,-5.29827 1.28126,-5.70749 -0.51223,-11.12749 -1.02408,-3.09481 -2.98947,-6.84078 -4.36754,-8.32437 -2.26954,-2.443332 -2.83482,-2.644516 -6.00029,-2.135455 -6.24249,1.003875 -13.67347,3.879075 -26.243015,10.153975 -6.782898,3.38611 -12.715276,6.28008 -13.183062,6.43104 -0.467786,0.15096 0.776099,-1.24393 2.76419,-3.09973 3.445823,-3.21653 4.546583,-5.2801 2.81654,-5.2801 -1.371106,0 -14.37152,10.23044 -16.096758,12.66706 -2.823302,3.98744 -5.701402,18.15159 -4.247855,20.90517 1.86053,3.52459 6.597732,1.60341 29.966404,-12.15287 7.326826,-4.31303 15.249956,-8.64784 17.606946,-9.63292 3.86951,-1.61722 4.41332,-1.66246 5.60288,-0.46615 4.27907,4.30334 -8.50651,28.21483 -32.822269,61.38393 -8.767596,11.95987 -8.890973,12.48323 -5.056181,21.44798 3.331547,7.78832 7.0399,8.75792 11.203587,2.92932 1.344239,-1.88175 6.382346,-9.45359 11.195793,-16.82627 17.39717,-26.64712 37.48188,-51.79026 47.29951,-59.21215 2.90712,-2.19772 5.70841,-3.84432 6.22511,-3.65914 4.16606,1.49321 -5.48499,19.37976 -25.57122,47.39182 -12.70131,17.71313 -14.3013,20.94571 -13.54986,27.37564 0.68243,5.83932 2.42732,10.08758 4.63031,11.27326 2.3662,1.27353 5.22842,-1.29187 13.58611,-12.17728 21.20859,-27.62293 55.67101,-63.37116 59.76785,-61.99781 0.54178,0.18161 -3.06725,5.2197 -8.02006,11.19574 -12.03028,14.51569 -15.42198,19.23385 -19.73893,27.4586 -4.6465,8.85263 -6.33742,14.74655 -6.33742,22.08989 0,15.56517 9.23128,21.60559 22.63714,14.81246 z"
         id="path923-3"
         inkscape:connector-curvature="0"
         sodipodi:nodetypes="ssscsscsssscscsscssssscscsccscsssssscsscscsscssss" />
      <path
         style="display:inline;fill:#ffffff;fill-opacity:1;stroke-width:0.35238409;enable-background:new"
         d="m 352.09387,98.857289 c 2.74127,-1.39344 7.31837,-4.780341 10.60314,-7.845986 2.05391,-1.916891 2.21453,-2.174569 2.10504,-3.377117 l -0.11853,-1.301881 -4.21007,2.833613 c -5.26279,3.542153 -6.50866,4.194341 -8.01238,4.194341 -1.63459,0 -2.17615,-0.773021 -2.09744,-2.99389 0.19993,-5.640839 6.34121,-16.009418 15.5187,-26.200814 1.57522,-1.749251 2.95451,-3.54414 3.0651,-3.988644 0.44442,-1.786327 -2.0279,-5.395609 -3.69593,-5.395609 -1.13847,0 -1.90582,0.509688 -5.30431,3.523266 -1.44722,1.2833 -3.42069,2.942954 -4.3855,3.688119 -0.96481,0.745169 -5.02837,4.72321 -9.03015,8.840087 l -7.27594,7.485233 2.85889,-4.955098 c 3.86292,-6.695312 6.88012,-12.67798 7.16419,-14.20555 0.31316,-1.684026 -0.38611,-3.891949 -1.45676,-4.599653 -1.28406,-0.848772 -3.04525,-0.412923 -5.80074,1.435525 -3.9159,2.626875 -7.03133,5.565085 -11.55258,10.895444 -5.90344,6.95989 -5.8479,6.90741 -4.79185,4.52759 0.47512,-1.070654 1.51742,-3.334201 2.31623,-5.030104 0.79882,-1.695904 1.70294,-4.107702 2.00917,-5.359555 0.53629,-2.192388 0.52852,-2.36172 -0.2113,-4.604476 -0.42243,-1.280613 -1.23315,-2.830667 -1.80161,-3.44457 -0.93618,-1.011032 -1.16936,-1.094282 -2.47512,-0.883635 -2.57502,0.415394 -5.6403,1.605135 -10.82524,4.201644 -2.79795,1.401152 -5.24505,2.598656 -5.43801,2.66112 -0.19297,0.06247 0.32014,-0.514729 1.14023,-1.282643 1.4214,-1.330978 1.87546,-2.184873 1.16182,-2.184873 -0.56558,0 -5.92825,4.233288 -6.63992,5.241545 -1.16461,1.649974 -2.35182,7.511003 -1.75223,8.650419 0.76747,1.458445 2.72156,0.663476 12.36114,-5.028776 3.02231,-1.784706 6.2906,-3.578419 7.26286,-3.986041 1.59617,-0.669194 1.8205,-0.687912 2.31119,-0.192889 1.76512,1.780692 -3.50893,11.675103 -13.53918,25.400251 -3.61664,4.94891 -3.66753,5.16547 -2.08568,8.875025 1.37426,3.22275 2.90396,3.623962 4.62148,1.212132 0.5545,-0.778657 2.63272,-3.911828 4.61826,-6.962596 7.17634,-11.026393 15.46128,-21.430452 19.51105,-24.501581 1.19919,-0.909399 2.35472,-1.590751 2.56786,-1.514123 1.7185,0.617882 -2.26256,8.019209 -10.54813,19.610408 -5.23929,7.329568 -5.89929,8.667187 -5.58932,11.327849 0.28151,2.416271 1.00127,4.174171 1.91,4.664799 0.97607,0.52698 2.15673,-0.534568 5.60428,-5.038872 8.74854,-11.430181 22.96429,-26.222553 24.65424,-25.654268 0.22348,0.07515 -1.26524,2.159874 -3.30828,4.632723 -4.96249,6.006485 -6.36157,7.958826 -8.14231,11.362172 -1.91668,3.663163 -2.61418,6.102022 -2.61418,9.140647 0,6.44076 3.8079,8.940243 9.33782,6.129292 z"
         id="path923-3-6"
         inkscape:connector-curvature="0"
         sodipodi:nodetypes="ssscsscsssscscsscssssscscsccscsssssscsscscsscssss" />
      <path
         style="display:inline;fill:#ffffff;fill-opacity:1;stroke-width:0.23492274;enable-background:new"
         d="m 330.72923,187.2382 c 1.82751,-0.92897 4.87891,-3.1869 7.06876,-5.23066 1.36927,-1.27793 1.47635,-1.44971 1.40336,-2.25142 l -0.079,-0.86791 -2.80671,1.88907 c -3.50853,2.36143 -4.33911,2.79623 -5.34159,2.79623 -1.08973,0 -1.45077,-0.51534 -1.39829,-1.99593 0.13328,-3.76056 4.22747,-10.67294 10.3458,-17.4672 1.05014,-1.16616 1.96967,-2.36276 2.0434,-2.6591 0.29628,-1.19088 -1.35194,-3.59706 -2.46396,-3.59706 -0.75898,0 -1.27054,0.33979 -3.5362,2.34883 -0.96482,0.85553 -2.28046,1.96197 -2.92367,2.45875 -0.64321,0.49677 -3.35225,3.14881 -6.0201,5.89339 l -4.85063,4.99015 1.90593,-3.30339 c 2.57528,-4.46354 4.58675,-8.45199 4.77613,-9.47037 0.20877,-1.12269 -0.25741,-2.59463 -0.97118,-3.06643 -0.85604,-0.56586 -2.03016,-0.2753 -3.86716,0.95701 -2.6106,1.75125 -4.68755,3.71005 -7.70172,7.26363 -3.93563,4.63993 -3.8986,4.60494 -3.19457,3.01839 0.31675,-0.71377 1.01162,-2.2228 1.54416,-3.3534 0.53254,-1.1306 1.13529,-2.73847 1.33945,-3.57304 0.35752,-1.46159 0.35234,-1.57448 -0.14087,-3.06965 -0.28162,-0.85373 -0.8221,-1.88711 -1.20108,-2.29638 -0.62412,-0.67402 -0.77957,-0.72952 -1.65008,-0.5891 -1.71668,0.27695 -3.7602,1.0701 -7.21682,2.80111 -1.8653,0.9341 -3.4967,1.73244 -3.62534,1.77408 -0.12865,0.0417 0.21342,-0.34316 0.76015,-0.8551 0.9476,-0.88732 1.25031,-1.45658 0.77455,-1.45658 -0.37706,0 -3.95217,2.82219 -4.42662,3.49437 -0.7764,1.09998 -1.56788,5.00733 -1.16815,5.76694 0.51165,0.9723 1.81437,0.44232 8.24076,-3.35252 2.01487,-1.1898 4.19373,-2.38561 4.84191,-2.65736 1.06411,-0.44613 1.21366,-0.4586 1.54079,-0.12859 1.17675,1.18713 -2.33929,7.7834 -9.02612,16.9335 -2.41109,3.29927 -2.44502,3.44365 -1.39045,5.91668 0.91617,2.1485 1.93597,2.41597 3.08098,0.80809 0.36967,-0.5191 1.75515,-2.60789 3.07884,-4.64173 4.78423,-7.35093 10.30753,-14.28696 13.00737,-16.33438 0.79946,-0.60627 1.56982,-1.06051 1.71191,-1.00942 1.14567,0.41192 -1.50837,5.34614 -7.03209,13.0736 -3.49286,4.88638 -3.93286,5.77813 -3.72621,7.5519 0.18767,1.61084 0.66751,2.78278 1.27333,3.10986 0.65071,0.35133 1.43782,-0.35637 3.73619,-3.35925 5.83236,-7.62011 15.30953,-17.48169 16.43616,-17.10283 0.14899,0.0501 -0.84349,1.43991 -2.20552,3.08847 -3.30833,4.00433 -4.24105,5.30589 -5.42821,7.57479 -1.27778,2.44211 -1.74278,4.06801 -1.74278,6.09377 0,4.29383 2.5386,5.96015 6.22521,4.08619 z"
         id="path923-3-6-7"
         inkscape:connector-curvature="0"
         sodipodi:nodetypes="ssscsscsssscscsscssssscscsccscsssssscsscscsscssss" />
      <path
         style="display:inline;fill:#ffffff;fill-opacity:1;stroke-width:0.16984887;enable-background:new"
         d="m 319.80312,254.45243 c 1.3291,-0.6677 3.5483,-2.29059 5.14092,-3.75954 0.99583,-0.91851 1.07371,-1.04198 1.02062,-1.6182 l -0.0575,-0.62382 -2.04124,1.35777 c -2.55166,1.69729 -3.15572,2.00979 -3.88479,2.00979 -0.79253,0 -1.05511,-0.37041 -1.01694,-1.43457 0.0969,-2.7029 3.07452,-7.67118 7.52422,-12.55456 0.76374,-0.83818 1.43249,-1.69823 1.4861,-1.91123 0.21548,-0.85594 -0.98322,-2.58539 -1.79196,-2.58539 -0.55199,0 -0.92404,0.24422 -2.57179,1.68823 -0.70168,0.61491 -1.65852,1.41017 -2.1263,1.76723 -0.46779,0.35705 -2.438,2.2632 -4.37826,4.23587 l -3.52773,3.58667 1.38613,-2.37432 c 1.87293,-3.20817 3.33582,-6.07486 3.47355,-6.80682 0.15184,-0.80693 -0.1872,-1.86489 -0.70631,-2.204 -0.62257,-0.40671 -1.47648,-0.19786 -2.81248,0.68786 -1.89862,1.25871 -3.40913,2.66659 -5.60125,5.22073 -2.86227,3.33494 -2.83535,3.3098 -2.32332,2.16947 0.23036,-0.51302 0.73572,-1.59764 1.12302,-2.41025 0.38731,-0.81263 0.82567,-1.96829 0.97414,-2.56813 0.26002,-1.05052 0.25626,-1.13166 -0.10245,-2.20631 -0.20481,-0.61363 -0.59789,-1.35636 -0.8735,-1.65052 -0.45391,-0.48446 -0.56697,-0.52435 -1.20006,-0.42341 -1.2485,0.19904 -2.73469,0.76913 -5.2486,2.01328 -1.35659,0.6714 -2.54306,1.2452 -2.63661,1.27512 -0.0936,0.0299 0.15521,-0.24664 0.55283,-0.61459 0.68917,-0.63776 0.90932,-1.04692 0.56331,-1.04692 -0.27422,0 -2.8743,2.02845 -3.21935,2.51156 -0.56466,0.79063 -1.14028,3.59903 -0.84957,4.145 0.37211,0.69884 1.31954,0.31791 5.99328,-2.40961 1.46536,-0.85518 3.04999,-1.71467 3.52139,-1.90999 0.7739,-0.32066 0.88266,-0.32962 1.12057,-0.0924 0.85582,0.85325 -1.7013,5.59432 -6.56445,12.17095 -1.75352,2.37136 -1.77819,2.47512 -1.01124,4.25262 0.66631,1.54424 1.40798,1.73648 2.24072,0.58081 0.26885,-0.37311 1.27647,-1.87442 2.23916,-3.33624 3.47944,-5.28348 7.49638,-10.26877 9.4599,-11.74035 0.58143,-0.43575 1.14168,-0.76223 1.24502,-0.72551 0.83322,0.29607 -1.09699,3.84254 -5.11424,9.39665 -2.54026,3.51209 -2.86026,4.15304 -2.70997,5.42793 0.13649,1.1578 0.48546,2.00013 0.92606,2.23521 0.47324,0.25252 1.04568,-0.25614 2.71722,-2.41445 4.24172,-5.47697 11.13421,-12.56497 11.95358,-12.29267 0.10835,0.036 -0.61345,1.03493 -1.60402,2.21984 -2.40606,2.87811 -3.0844,3.81361 -3.94779,5.44438 -0.9293,1.75526 -1.26748,2.92389 -1.26748,4.37989 0,3.0862 1.84626,4.28387 4.52743,2.93696 z"
         id="path923-3-6-5"
         inkscape:connector-curvature="0"
         sodipodi:nodetypes="ssscsscsssscscsscssssscscsccscsssssscsscscsscssss" />
      <path
         style="display:inline;fill:#ffffff;fill-opacity:1;stroke-width:0.10476173;enable-background:new"
         d="m 436.87691,75.666711 c 0.83069,-0.406423 2.21769,-1.394267 3.21307,-2.288414 0.6224,-0.559093 0.67107,-0.634248 0.63789,-0.984993 l -0.0359,-0.379712 -1.27578,0.826466 c -1.59479,1.033128 -1.97232,1.223354 -2.428,1.223354 -0.49533,0 -0.65944,-0.225465 -0.63558,-0.873223 0.0606,-1.645242 1.92157,-4.669408 4.70263,-7.641899 0.47734,-0.510196 0.89531,-1.033707 0.92882,-1.163356 0.13467,-0.521008 -0.61452,-1.573715 -1.11998,-1.573715 -0.34499,0 -0.57752,0.148659 -1.60736,1.027615 -0.43856,0.374296 -1.03658,0.858362 -1.32895,1.075701 -0.29236,0.21734 -1.52375,1.377605 -2.7364,2.578362 l -2.20484,2.183189 0.86634,-1.445235 c 1.17058,-1.952799 2.08488,-3.697743 2.17096,-4.143283 0.0949,-0.491177 -0.117,-1.135153 -0.44144,-1.341564 -0.38911,-0.247563 -0.9228,-0.120443 -1.7578,0.418692 -1.18664,0.766171 -2.13071,1.623147 -3.50078,3.177839 -1.78893,2.029967 -1.77209,2.01466 -1.45208,1.320542 0.14398,-0.312272 0.45983,-0.972472 0.70189,-1.467109 0.24206,-0.494641 0.51604,-1.198082 0.60884,-1.563206 0.16251,-0.639447 0.16016,-0.688835 -0.064,-1.342971 -0.12801,-0.373511 -0.37368,-0.825614 -0.54595,-1.004669 -0.28369,-0.294882 -0.35435,-0.319165 -0.75003,-0.257727 -0.78031,0.121161 -1.70918,0.468168 -3.28037,1.225485 -0.84787,0.408665 -1.58941,0.75794 -1.64789,0.776158 -0.0585,0.01823 0.097,-0.150133 0.34553,-0.374106 0.43072,-0.388202 0.56832,-0.637253 0.35206,-0.637253 -0.17139,0 -1.79644,1.234705 -2.01209,1.528784 -0.35291,0.481242 -0.71268,2.19071 -0.53098,2.523037 0.23257,0.425383 0.82471,0.193514 3.7458,-1.466725 0.91585,-0.52054 1.90624,-1.043707 2.20087,-1.162596 0.48368,-0.195183 0.55166,-0.200638 0.70035,-0.05626 0.53489,0.51937 -1.06331,3.405236 -4.10278,7.408406 -1.09595,1.44343 -1.11137,1.506598 -0.63202,2.588548 0.41644,0.93997 0.87999,1.056988 1.40045,0.353539 0.16803,-0.227107 0.79779,-1.140952 1.39947,-2.030756 2.17465,-3.216031 4.68524,-6.250547 5.91244,-7.146292 0.36339,-0.265241 0.71355,-0.463972 0.77814,-0.441621 0.52076,0.180216 -0.68562,2.338936 -3.1964,5.7197 -1.58767,2.13779 -1.78767,2.527931 -1.69374,3.303958 0.0853,0.704742 0.30342,1.217466 0.57879,1.360564 0.29578,0.153703 0.65355,-0.155915 1.69827,-1.469673 2.65107,-3.333798 6.95887,-7.648238 7.47098,-7.482489 0.0677,0.02193 -0.38341,0.629963 -1.00251,1.351207 -1.50379,1.751892 -1.92775,2.321326 -2.46737,3.313968 -0.58081,1.068423 -0.79217,1.779755 -0.79217,2.666025 0,1.878553 1.15391,2.607565 2.82964,1.787708 z"
         id="path923-3-6-7-3"
         inkscape:connector-curvature="0"
         sodipodi:nodetypes="ssscsscsssscscsscssssscscsccscsssssscsscscsscssss" />
      <path
         style="display:inline;fill:#ffffff;fill-opacity:1;stroke-width:0.08675118;enable-background:new"
         d="m 431.9015,117.71439 c 0.66455,-0.34836 1.77415,-1.19508 2.57045,-1.9615 0.49792,-0.47922 0.53686,-0.54364 0.51032,-0.84428 l -0.0287,-0.32548 -1.02062,0.70841 c -1.27583,0.88554 -1.57786,1.0486 -1.9424,1.0486 -0.39626,0 -0.52755,-0.19326 -0.50847,-0.74849 0.0485,-1.41021 1.53726,-4.00237 3.76211,-6.55023 0.38187,-0.43731 0.71625,-0.88604 0.74306,-0.99717 0.10773,-0.44658 -0.49162,-1.3489 -0.89599,-1.3489 -0.27599,0 -0.46201,0.12742 -1.28589,0.88082 -0.35084,0.32082 -0.82926,0.73574 -1.06315,0.92203 -0.2339,0.18629 -1.219,1.18082 -2.18913,2.21004 l -1.76386,1.87132 0.69306,-1.23879 c 0.93647,-1.67383 1.66791,-3.16951 1.73678,-3.5514 0.0759,-0.42101 -0.0936,-0.97299 -0.35316,-1.14992 -0.31129,-0.2122 -0.73824,-0.1032 -1.40624,0.35888 -0.94931,0.65673 -1.70456,1.39128 -2.80063,2.72388 -1.43113,1.73997 -1.41767,1.72685 -1.16166,1.1319 0.11518,-0.26767 0.36786,-0.83356 0.56151,-1.25753 0.19366,-0.42398 0.41284,-1.02694 0.48708,-1.3399 0.13,-0.5481 0.12812,-0.59043 -0.0512,-1.15113 -0.10241,-0.32015 -0.29894,-0.70767 -0.43675,-0.86114 -0.22696,-0.25275 -0.28348,-0.27357 -0.60003,-0.22091 -0.62425,0.10383 -1.36735,0.40129 -2.6243,1.05042 -0.67829,0.35028 -1.27153,0.64967 -1.31831,0.66528 -0.0468,0.0156 0.0776,-0.12868 0.27642,-0.32067 0.34458,-0.33274 0.45466,-0.54621 0.28166,-0.54621 -0.13712,0 -1.43716,1.05832 -1.60968,1.31039 -0.28233,0.4125 -0.57014,1.87776 -0.42479,2.16261 0.18606,0.36461 0.65978,0.16588 2.99664,-1.25719 0.73268,-0.44618 1.525,-0.89462 1.7607,-0.99652 0.38695,-0.1673 0.44133,-0.17198 0.56029,-0.0483 0.4279,0.44517 -0.85066,2.91879 -3.28223,6.35008 -0.87676,1.23724 -0.8891,1.29139 -0.50562,2.21877 0.33315,0.80569 0.70399,0.906 1.12036,0.30303 0.13442,-0.19466 0.63823,-0.97795 1.11958,-1.74065 1.73972,-2.75661 3.74819,-5.35763 4.72995,-6.12543 0.29071,-0.22735 0.57084,-0.39768 0.62251,-0.37853 0.41661,0.15447 -0.5485,2.00482 -2.55712,4.90263 -1.27013,1.8324 -1.43013,2.16681 -1.35499,2.83198 0.0683,0.60406 0.24273,1.04354 0.46303,1.1662 0.23662,0.13175 0.52285,-0.13365 1.35862,-1.25973 2.12085,-2.85755 5.5671,-6.55566 5.97678,-6.41359 0.0542,0.0188 -0.30672,0.53997 -0.80201,1.15818 -1.20302,1.50164 -1.5422,1.98972 -1.97389,2.84056 -0.46465,0.9158 -0.63374,1.52552 -0.63374,2.28517 0,1.6102 0.92313,2.23507 2.26371,1.53233 z"
         id="path923-3-6-7-5"
         inkscape:connector-curvature="0"
         sodipodi:nodetypes="ssscsscsssscscsscssssscscsccscsssssscsscscsscssss" />
      <path
         style="display:inline;fill:#ffffff;fill-opacity:1;stroke-width:0.06506335;enable-background:new"
         d="m 426.9261,151.78577 c 0.49841,-0.26126 1.33061,-0.89632 1.92785,-1.47112 0.37343,-0.35942 0.40264,-0.40774 0.38273,-0.63321 l -0.0215,-0.24411 -0.76547,0.53131 c -0.95687,0.66415 -1.18339,0.78644 -1.4568,0.78644 -0.2972,0 -0.39566,-0.14494 -0.38135,-0.56136 0.0364,-1.05766 1.15295,-3.00178 2.82158,-4.91267 0.2864,-0.32799 0.53718,-0.66453 0.55729,-0.74788 0.0808,-0.33493 -0.36871,-1.01168 -0.67199,-1.01168 -0.20699,0 -0.34651,0.0956 -0.96441,0.66062 -0.26314,0.24062 -0.62195,0.55181 -0.79737,0.69152 -0.17542,0.13972 -0.91425,0.88561 -1.64184,1.65753 l -1.3229,1.40348 0.5198,-0.92908 c 0.70234,-1.25538 1.25093,-2.37713 1.30258,-2.66355 0.0569,-0.31576 -0.0702,-0.72975 -0.26487,-0.86243 -0.23347,-0.15916 -0.55368,-0.0774 -1.05468,0.26916 -0.71198,0.49253 -1.27842,1.04345 -2.10047,2.0429 -1.07335,1.30499 -1.06325,1.29514 -0.87125,0.84892 0.0864,-0.20075 0.2759,-0.62516 0.42114,-0.94315 0.14524,-0.31798 0.30962,-0.77019 0.3653,-1.00492 0.0975,-0.41107 0.0961,-0.44282 -0.0384,-0.86333 -0.0768,-0.24013 -0.22421,-0.53076 -0.32756,-0.64587 -0.17022,-0.18957 -0.21261,-0.20517 -0.45003,-0.16568 -0.46818,0.0779 -1.0255,0.30096 -1.96822,0.78782 -0.50872,0.26271 -0.95364,0.48725 -0.98873,0.49895 -0.0351,0.0118 0.0582,-0.0966 0.20732,-0.24049 0.25843,-0.24956 0.34099,-0.40967 0.21124,-0.40967 -0.10284,0 -1.07787,0.79375 -1.20726,0.98279 -0.21175,0.30937 -0.42761,1.40833 -0.31859,1.62196 0.13954,0.27346 0.49483,0.12441 2.24748,-0.9429 0.54951,-0.33463 1.14374,-0.67095 1.32052,-0.74738 0.29021,-0.12548 0.331,-0.12898 0.42022,-0.0362 0.32093,0.33389 -0.63799,2.18909 -2.46167,4.76257 -0.65757,0.92792 -0.66683,0.96853 -0.37922,1.66407 0.24987,0.60426 0.528,0.67949 0.84027,0.22727 0.10082,-0.14599 0.47868,-0.73347 0.83968,-1.30549 1.30479,-2.06745 2.81115,-4.01822 3.54747,-4.59406 0.21803,-0.17051 0.42813,-0.29827 0.46688,-0.28389 0.31246,0.11585 -0.41137,1.5036 -1.91784,3.67696 -0.9526,1.3743 -1.0726,1.6251 -1.01624,2.12398 0.0512,0.45305 0.18205,0.78265 0.34727,0.87465 0.17747,0.0988 0.39214,-0.10029 1.01896,-0.9448 1.59065,-2.14316 4.17533,-4.91674 4.48259,-4.81019 0.0406,0.014 -0.23004,0.40498 -0.6015,0.86864 -0.90227,1.12622 -1.15665,1.49229 -1.48042,2.13041 -0.34849,0.68685 -0.47531,1.14414 -0.47531,1.71389 0,1.20764 0.69235,1.67629 1.69779,1.14924 z"
         id="path923-3-6-7-6"
         inkscape:connector-curvature="0"
         sodipodi:nodetypes="ssscsscsssscscsscssssscscsccscsssssscsscscsscssss" />
    </g>
    <g
       inkscape:groupmode="layer"
       id="layer5"
       inkscape:label="Highlights"
       style="display:inline"
       sodipodi:insensitive="true">
      <path
         style="opacity:0.12999998;color:#bebebe;fill:#ffffff;fill-opacity:1;fill-rule:nonzero;stroke:none;stroke-width:0;marker:none;visibility:visible;display:inline;overflow:visible;enable-background:accumulate"
         d="M 84,47 C 56.836703,47 35,68.836703 35,96 l 0,1 C 35,69.836703 56.836703,48 84,48 l 120,0 c 27.1633,0 49,21.836703 49,49 l 0,-1 C 253,68.836703 231.1633,47 204,47 L 84,47 z"
         id="rect3894"
         inkscape:connector-curvature="0" />
      <path
         style="opacity:0.12999998;color:#bebebe;fill:#ffffff;fill-opacity:1;fill-rule:nonzero;stroke:none;stroke-width:0;marker:none;visibility:visible;display:inline;overflow:visible;enable-background:accumulate"
         d="m 419,141 c -1.1253,0 -2,0.8747 -2,2 l 0,1 c 0,-1.1253 0.8747,-2 2,-2 l 10,0 c 1.1253,0 2,0.8747 2,2 l 0,-1 c 0,-1.1253 -0.8747,-2 -2,-2 l -10,0 z"
         id="rect3896"
         inkscape:connector-curvature="0" />
      <path
         style="opacity:0.12999998;color:#bebebe;fill:#ffffff;fill-opacity:1;fill-rule:nonzero;stroke:none;stroke-width:0;marker:none;visibility:visible;display:inline;overflow:visible;enable-background:accumulate"
         d="m 422,102 c -2.2333,0 -4,1.7667 -4,4 l 0,1 c 0,-2.2333 1.7667,-4 4,-4 l 12,0 c 2.2333,0 4,1.7667 4,4 l 0,-1 c 0,-2.2333 -1.7667,-4 -4,-4 l -12,0 z"
         id="rect3898"
         inkscape:connector-curvature="0" />
      <path
         style="opacity:0.12999998;color:#bebebe;fill:#ffffff;fill-opacity:1;fill-rule:nonzero;stroke:none;stroke-width:0;marker:none;visibility:visible;display:inline;overflow:visible;enable-background:accumulate"
         d="m 424,54 c -3.3413,0 -6,2.658703 -6,6 l 0,1 c 0,-3.341297 2.6587,-6 6,-6 l 16,0 c 3.3413,0 6,2.658703 6,6 l 0,-1 c 0,-3.341297 -2.6587,-6 -6,-6 l -16,0 z"
         id="rect3900"
         inkscape:connector-curvature="0" />
      <path
         style="opacity:0.12999998;color:#bebebe;fill:#ffffff;fill-opacity:1;fill-rule:nonzero;stroke:none;stroke-width:0;marker:none;visibility:visible;display:inline;overflow:visible;enable-background:accumulate"
         d="m 300,224 c -4.4493,0 -8,3.5507 -8,8 l 0,1 c 0,-4.4493 3.5507,-8 8,-8 l 24,0 c 4.4493,0 8,3.5507 8,8 l 0,-1 c 0,-4.4493 -3.5507,-8 -8,-8 l -24,0 z"
         id="rect3902"
         inkscape:connector-curvature="0" />
      <path
         style="opacity:0.12999998;color:#bebebe;fill:#ffffff;fill-opacity:1;fill-rule:nonzero;stroke:none;stroke-width:0;marker:none;visibility:visible;display:inline;overflow:visible;enable-background:accumulate"
         d="m 310,33 c -9.4353,0 -17,7.564703 -17,17 l 0,1 c 0,-9.435297 7.5647,-17 17,-17 l 52,0 c 9.4353,0 17,7.564703 17,17 l 0,-1 c 0,-9.435297 -7.5647,-17 -17,-17 l -52,0 z"
         id="rect3904"
         inkscape:connector-curvature="0" />
      <path
         style="opacity:0.12999998;color:#bebebe;fill:#ffffff;fill-opacity:1;fill-rule:nonzero;stroke:none;stroke-width:0;marker:none;visibility:visible;display:inline;overflow:visible;enable-background:accumulate"
         d="m 302.5,143 c -6.3883,0 -11.5,5.1117 -11.5,11.5 l 0,1 c 0,-6.3883 5.1117,-11.5 11.5,-11.5 l 35,0 c 6.3883,0 11.5,5.1117 11.5,11.5 l 0,-1 c 0,-6.3883 -5.1117,-11.5 -11.5,-11.5 l -35,0 z"
         id="rect3906"
         inkscape:connector-curvature="0" />
      <path
         id="path4085"
         d="m 204,266 c 27.1633,0 49,-21.8367 49,-49 l 0,-1 c 0,27.1633 -21.8367,49 -49,49 L 84,265 C 56.8367,265 35,243.1633 35,216 l 0,1 c 0,27.1633 21.8367,49 49,49 l 120,0 z"
         style="opacity:0.41;color:#bebebe;fill:#000000;fill-opacity:1;fill-rule:nonzero;stroke:none;stroke-width:0;marker:none;visibility:visible;display:inline;overflow:visible;enable-background:accumulate"
         inkscape:connector-curvature="0" />
      <path
         id="path4087"
         d="m 429,156 c 1.1253,0 2,-0.8747 2,-2 l 0,-1 c 0,1.1253 -0.8747,2 -2,2 l -10,0 c -1.1253,0 -2,-0.8747 -2,-2 l 0,1 c 0,1.1253 0.8747,2 2,2 l 10,0 z"
         style="opacity:0.3;color:#bebebe;fill:#000000;fill-opacity:1;fill-rule:nonzero;stroke:none;stroke-width:0;marker:none;visibility:visible;display:inline;overflow:visible;enable-background:accumulate"
         inkscape:connector-curvature="0" />
      <path
         id="path4089"
         d="m 434,123 c 2.2333,0 4,-1.7667 4,-4 l 0,-1 c 0,2.2333 -1.7667,4 -4,4 l -12,0 c -2.2333,0 -4,-1.7667 -4,-4 l 0,1 c 0,2.2333 1.7667,4 4,4 l 12,0 z"
         style="opacity:0.3;color:#bebebe;fill:#000000;fill-opacity:1;fill-rule:nonzero;stroke:none;stroke-width:0;marker:none;visibility:visible;display:inline;overflow:visible;enable-background:accumulate"
         inkscape:connector-curvature="0" />
      <path
         id="path4091"
         d="m 440,83 c 3.3413,0 6,-2.6587 6,-6 l 0,-1 c 0,3.3413 -2.6587,6 -6,6 l -16,0 c -3.3413,0 -6,-2.6587 -6,-6 l 0,1 c 0,3.3413 2.6587,6 6,6 l 16,0 z"
         style="opacity:0.41;color:#bebebe;fill:#000000;fill-opacity:1;fill-rule:nonzero;stroke:none;stroke-width:0;marker:none;visibility:visible;display:inline;overflow:visible;enable-background:accumulate"
         inkscape:connector-curvature="0" />
      <path
         id="path4093"
         d="m 324,265 c 4.4493,0 8,-3.5507 8,-8 l 0,-1 c 0,4.4493 -3.5507,8 -8,8 l -24,0 c -4.4493,0 -8,-3.5507 -8,-8 l 0,1 c 0,4.4493 3.5507,8 8,8 l 24,0 z"
         style="opacity:0.41;color:#bebebe;fill:#000000;fill-opacity:1;fill-rule:nonzero;stroke:none;stroke-width:0;marker:none;visibility:visible;display:inline;overflow:visible;enable-background:accumulate"
         inkscape:connector-curvature="0" />
      <path
         id="path4095"
         d="m 362,120 c 9.4353,0 17,-7.5647 17,-17 l 0,-1 c 0,9.4353 -7.5647,17 -17,17 l -52,0 c -9.4353,0 -17,-7.5647 -17,-17 l 0,1 c 0,9.4353 7.5647,17 17,17 l 52,0 z"
         style="opacity:0.41;color:#bebebe;fill:#000000;fill-opacity:1;fill-rule:nonzero;stroke:none;stroke-width:0;marker:none;visibility:visible;display:inline;overflow:visible;enable-background:accumulate"
         inkscape:connector-curvature="0" />
      <path
         id="path4097"
         d="m 337.5,202 c 6.3883,0 11.5,-5.1117 11.5,-11.5 l 0,-1 c 0,6.3883 -5.1117,11.5 -11.5,11.5 l -35,0 c -6.3883,0 -11.5,-5.1117 -11.5,-11.5 l 0,1 c 0,6.3883 5.1117,11.5 11.5,11.5 l 35,0 z"
         style="opacity:0.41;color:#bebebe;fill:#000000;fill-opacity:1;fill-rule:nonzero;stroke:none;stroke-width:0;marker:none;visibility:visible;display:inline;overflow:visible;enable-background:accumulate"
         inkscape:connector-curvature="0" />
      <path
         inkscape:connector-curvature="0"
         id="path4280"
         d="M 84,265 C 56.836703,265 35,243.1633 35,216 l 0,-1 c 0,27.1633 21.836703,49 49,49 l 120,0 c 27.1633,0 49,-21.8367 49,-49 l 0,1 c 0,27.1633 -21.8367,49 -49,49 l -120,0 z"
         style="opacity:0.1;color:#bebebe;fill:#ffffff;fill-opacity:1;fill-rule:nonzero;stroke:none;stroke-width:0;marker:none;visibility:visible;display:inline;overflow:visible;enable-background:accumulate" />
      <path
         style="opacity:0.1;color:#bebebe;fill:#ffffff;fill-opacity:1;fill-rule:nonzero;stroke:none;stroke-width:0;marker:none;visibility:visible;display:inline;overflow:visible;enable-background:accumulate"
         d="m 300,264 c -4.4493,0 -8,-3.5507 -8,-8 l 0,-1 c 0,4.4493 3.5507,8 8,8 l 24,0 c 4.4493,0 8,-3.5507 8,-8 l 0,1 c 0,4.4493 -3.5507,8 -8,8 l -24,0 z"
         id="path4294"
         inkscape:connector-curvature="0" />
      <path
         style="opacity:0.1;color:#bebebe;fill:#ffffff;fill-opacity:1;fill-rule:nonzero;stroke:none;stroke-width:0;marker:none;visibility:visible;display:inline;overflow:visible;enable-background:accumulate"
         d="m 302.5,201 c -6.3883,0 -11.5,-5.1117 -11.5,-11.5 l 0,-1 c 0,6.3883 5.1117,11.5 11.5,11.5 l 35,0 c 6.3883,0 11.5,-5.1117 11.5,-11.5 l 0,1 c 0,6.3883 -5.1117,11.5 -11.5,11.5 l -35,0 z"
         id="path4296"
         inkscape:connector-curvature="0" />
      <path
         style="opacity:0.1;color:#bebebe;fill:#ffffff;fill-opacity:1;fill-rule:nonzero;stroke:none;stroke-width:0;marker:none;visibility:visible;display:inline;overflow:visible;enable-background:accumulate"
         d="m 310,119 c -9.4353,0 -17,-7.5647 -17,-17 l 0,-1 c 0,9.4353 7.5647,17 17,17 l 52,0 c 9.4353,0 17,-7.5647 17,-17 l 0,1 c 0,9.4353 -7.5647,17 -17,17 l -52,0 z"
         id="path4298"
         inkscape:connector-curvature="0" />
      <path
         style="opacity:0.1;color:#bebebe;fill:#ffffff;fill-opacity:1;fill-rule:nonzero;stroke:none;stroke-width:0;marker:none;visibility:visible;display:inline;overflow:visible;enable-background:accumulate"
         d="m 424,82 c -3.3413,0 -6,-2.658703 -6,-6 l 0,-1 c 0,3.341297 2.6587,6 6,6 l 16,0 c 3.3413,0 6,-2.658703 6,-6 l 0,1 c 0,3.341297 -2.6587,6 -6,6 l -16,0 z"
         id="path4300"
         inkscape:connector-curvature="0" />
      <path
         style="opacity:0.1;color:#bebebe;fill:#ffffff;fill-opacity:1;fill-rule:nonzero;stroke:none;stroke-width:0;marker:none;visibility:visible;display:inline;overflow:visible;enable-background:accumulate"
         d="m 422,122 c -2.2333,0 -4,-1.7667 -4,-4 l 0,-1 c 0,2.2333 1.7667,4 4,4 l 12,0 c 2.2333,0 4,-1.7667 4,-4 l 0,1 c 0,2.2333 -1.7667,4 -4,4 l -12,0 z"
         id="path4302"
         inkscape:connector-curvature="0" />
      <path
         style="opacity:0.1;color:#bebebe;fill:#ffffff;fill-opacity:1;fill-rule:nonzero;stroke:none;stroke-width:0;marker:none;visibility:visible;display:inline;overflow:visible;enable-background:accumulate"
         d="m 419,154.5 c -1.1253,0 -2,-0.8747 -2,-2 l 0,-1 c 0,1.1253 0.8747,2 2,2 l 10,0 c 1.1253,0 2,-0.8747 2,-2 l 0,1 c 0,1.1253 -0.8747,2 -2,2 l -10,0 z"
         id="path4304"
         inkscape:connector-curvature="0" />
    </g>
    <g
       inkscape:groupmode="layer"
       id="layer3"
       inkscape:label="Border"
       style="display:inline"
       sodipodi:insensitive="true">
      <path
         style="opacity:0.41;color:#bebebe;fill:#000000;fill-opacity:1;fill-rule:nonzero;stroke:none;stroke-width:0;marker:none;visibility:visible;display:inline;overflow:visible;enable-background:accumulate"
         d="m 422,101 c -2.77,0 -5,2.23 -5,5 l 0,12 c 0,2.77 2.23,5 5,5 l 12,0 c 2.77,0 5,-2.23 5,-5 l 0,-12 c 0,-2.77 -2.23,-5 -5,-5 l -12,0 z m 0,1 12,0 c 2.2333,0 4,1.7667 4,4 l 0,12 c 0,2.2333 -1.7667,4 -4,4 l -12,0 c -2.2333,0 -4,-1.7667 -4,-4 l 0,-12 c 0,-2.2333 1.7667,-4 4,-4 z"
         id="rect4099"
         inkscape:connector-curvature="0" />
      <path
         style="opacity:0.41;color:#bebebe;fill:#000000;fill-opacity:1;fill-rule:nonzero;stroke:none;stroke-width:0;marker:none;visibility:visible;display:inline;overflow:visible;enable-background:accumulate"
         d="m 424,53 c -3.878,0 -7,3.122 -7,7 l 0,16 c 0,3.878 3.122,7 7,7 l 16,0 c 3.878,0 7,-3.122 7,-7 l 0,-16 c 0,-3.878 -3.122,-7 -7,-7 l -16,0 z m 0,1 16,0 c 3.3413,0 6,2.658703 6,6 l 0,16 c 0,3.341297 -2.6587,6 -6,6 l -16,0 c -3.3413,0 -6,-2.658703 -6,-6 l 0,-16 c 0,-3.341297 2.6587,-6 6,-6 z"
         id="rect4151"
         inkscape:connector-curvature="0" />
      <path
         style="opacity:0.41;color:#bebebe;fill:#000000;fill-opacity:1;fill-rule:nonzero;stroke:none;stroke-width:0;marker:none;visibility:visible;display:inline;overflow:visible;enable-background:accumulate"
         d="m 419,140 c -1.662,0 -3,1.338 -3,3 l 0,10 c 0,1.662 1.338,3 3,3 l 10,0 c 1.662,0 3,-1.338 3,-3 l 0,-10 c 0,-1.662 -1.338,-3 -3,-3 l -10,0 z m 0,1 10,0 c 1.1253,0 2,0.8747 2,2 l 0,10 c 0,1.1253 -0.8747,2 -2,2 l -10,0 c -1.1253,0 -2,-0.8747 -2,-2 l 0,-10 c 0,-1.1253 0.8747,-2 2,-2 z"
         id="rect4095"
         inkscape:connector-curvature="0" />
      <path
         style="opacity:0.41;color:#bebebe;fill:#000000;fill-opacity:1;fill-rule:nonzero;stroke:none;stroke-width:0;marker:none;visibility:visible;display:inline;overflow:visible;enable-background:accumulate"
         d="m 300,223 c -4.986,0 -9,4.014 -9,9 l 0,24 c 0,4.986 4.014,9 9,9 l 24,0 c 4.986,0 9,-4.014 9,-9 l 0,-24 c 0,-4.986 -4.014,-9 -9,-9 l -24,0 z m 0,1 24,0 c 4.4493,0 8,3.5507 8,8 l 0,24 c 0,4.4493 -3.5507,8 -8,8 l -24,0 c -4.4493,0 -8,-3.5507 -8,-8 l 0,-24 c 0,-4.4493 3.5507,-8 8,-8 z"
         id="rect4783"
         inkscape:connector-curvature="0" />
      <path
         style="opacity:0.41;color:#bebebe;fill:#000000;fill-opacity:1;fill-rule:nonzero;stroke:none;stroke-width:0;marker:none;visibility:visible;display:inline;overflow:visible;enable-background:accumulate"
         d="m 302.5,142 c -6.925,0 -12.5,5.575 -12.5,12.5 l 0,35 c 0,6.925 5.575,12.5 12.5,12.5 l 35,0 c 6.925,0 12.5,-5.575 12.5,-12.5 l 0,-35 c 0,-6.925 -5.575,-12.5 -12.5,-12.5 l -35,0 z m 0,1 35,0 c 6.3883,0 11.5,5.1117 11.5,11.5 l 0,35 c 0,6.3883 -5.1117,11.5 -11.5,11.5 l -35,0 c -6.3883,0 -11.5,-5.1117 -11.5,-11.5 l 0,-35 c 0,-6.3883 5.1117,-11.5 11.5,-11.5 z"
         id="rect4515"
         inkscape:connector-curvature="0" />
      <path
         style="opacity:0.41;color:#bebebe;fill:#000000;fill-opacity:1;fill-rule:nonzero;stroke:none;stroke-width:0;marker:none;visibility:visible;display:inline;overflow:visible;enable-background:accumulate"
         d="m 310,32 c -9.972,0 -18,8.028 -18,18 l 0,52 c 0,9.972 8.028,18 18,18 l 52,0 c 9.972,0 18,-8.028 18,-18 l 0,-52 c 0,-9.972 -8.028,-18 -18,-18 l -52,0 z m 0,1 52,0 c 9.4353,0 17,7.564703 17,17 l 0,52 c 0,9.4353 -7.5647,17 -17,17 l -52,0 c -9.4353,0 -17,-7.5647 -17,-17 l 0,-52 c 0,-9.435297 7.5647,-17 17,-17 z"
         id="rect4511"
         inkscape:connector-curvature="0" />
      <path
         style="opacity:0.41;color:#bebebe;fill:#000000;fill-opacity:1;fill-rule:nonzero;stroke:none;stroke-width:0;marker:none;visibility:visible;display:inline;overflow:visible;enable-background:accumulate"
         d="M 84,46 C 56.3,46 34,68.3 34,96 l 0,120 c 0,27.7 22.3,50 50,50 l 120,0 c 27.7,0 50,-22.3 50,-50 L 254,96 C 254,68.3 231.7,46 204,46 L 84,46 z m 0,1 120,0 c 27.1633,0 49,21.836703 49,49 l 0,120 c 0,27.1633 -21.8367,49 -49,49 L 84,265 C 56.836703,265 35,243.1633 35,216 L 35,96 C 35,68.836703 56.836703,47 84,47 z"
         id="rect4040"
         inkscape:connector-curvature="0" />
    </g>
  </g>
</svg>
