<?xml version="1.0" encoding="UTF-8" standalone="no"?>
<!-- Created with Inkscape (http://www.inkscape.org/) -->

<svg
   xmlns:dc="http://purl.org/dc/elements/1.1/"
   xmlns:cc="http://creativecommons.org/ns#"
   xmlns:rdf="http://www.w3.org/1999/02/22-rdf-syntax-ns#"
   xmlns:svg="http://www.w3.org/2000/svg"
   xmlns="http://www.w3.org/2000/svg"
   xmlns:xlink="http://www.w3.org/1999/xlink"
   xmlns:sodipodi="http://sodipodi.sourceforge.net/DTD/sodipodi-0.dtd"
   xmlns:inkscape="http://www.inkscape.org/namespaces/inkscape"
   inkscape:export-ydpi="90.000000"
   inkscape:export-xdpi="90.000000"
   width="480"
   height="300"
   id="svg11300"
   sodipodi:version="0.32"
   inkscape:version="0.91 r13725"
   sodipodi:docname="nexulockr.svg"
   inkscape:output_extension="org.inkscape.output.svg.inkscape"
   version="1.0"
   style="display:inline;enable-background:new"
   inkscape:export-filename="/home/sam/moka-next-kazam.png">
  <sodipodi:namedview
     stroke="#ef2929"
     fill="#f57900"
     id="base"
     pagecolor="#777777"
     bordercolor="#666666"
     borderopacity="0.25490196"
     inkscape:pageopacity="0"
     inkscape:pageshadow="2"
     inkscape:zoom="1"
     inkscape:cx="240.5"
     inkscape:cy="150.5"
     inkscape:current-layer="layer6"
     showgrid="false"
     inkscape:grid-bbox="true"
     inkscape:document-units="px"
     inkscape:showpageshadow="false"
     inkscape:window-width="1920"
     inkscape:window-height="1014"
     inkscape:window-x="0"
     inkscape:window-y="28"
     width="400px"
     height="300px"
     inkscape:snap-nodes="true"
     inkscape:snap-bbox="true"
     gridtolerance="10000"
     inkscape:object-nodes="true"
     inkscape:snap-grids="true"
     showguides="true"
     inkscape:guide-bbox="true"
     inkscape:window-maximized="1"
     inkscape:bbox-nodes="true"
     inkscape:bbox-paths="true"
     inkscape:snap-bbox-edge-midpoints="true"
     inkscape:snap-bbox-midpoints="true">
    <inkscape:grid
       spacingy="1px"
       spacingx="1px"
       id="grid5883"
       type="xygrid"
       enabled="true"
       visible="true"
       empspacing="4"
       snapvisiblegridlinesonly="true"
       dotted="false"
       color="#000000"
       opacity="0.1254902"
       empcolor="#203ef3"
       empopacity="0.36470588" />
    <inkscape:grid
       type="xygrid"
       id="grid11592"
       empspacing="8"
       visible="true"
       enabled="false"
       spacingx="0.5px"
       spacingy="0.5px"
       color="#ff0000"
       opacity="0.1254902"
       empcolor="#ff0000"
       empopacity="0.25098039"
       snapvisiblegridlinesonly="true"
       dotted="true" />
  </sodipodi:namedview>
  <defs
     id="defs3">
    <linearGradient
       id="linearGradient4928">
      <stop
         id="stop4930"
         offset="0"
         style="stop-color:#028396;stop-opacity:1;" />
      <stop
         id="stop4932"
         offset="1"
         style="stop-color:#4ca6b3;stop-opacity:1;" />
    </linearGradient>
    <linearGradient
       inkscape:collect="always"
       xlink:href="#linearGradient4928"
       id="linearGradient4254"
       x1="35"
       y1="156"
       x2="253"
       y2="156"
       gradientUnits="userSpaceOnUse"
       gradientTransform="matrix(0,-1,1,0,-12,300)" />
    <linearGradient
       inkscape:collect="always"
       xlink:href="#linearGradient4928"
       id="linearGradient4256"
       x1="417"
       y1="148"
       x2="431"
       y2="148"
       gradientUnits="userSpaceOnUse"
       gradientTransform="matrix(0,-1,1,0,276,572)" />
    <linearGradient
       inkscape:collect="always"
       xlink:href="#linearGradient4928"
       id="linearGradient4260"
       x1="418"
       y1="68"
       x2="446"
       y2="68"
       gradientUnits="userSpaceOnUse"
       gradientTransform="matrix(0,-1,1,0,364,500)" />
    <linearGradient
       inkscape:collect="always"
       xlink:href="#linearGradient4928"
       id="linearGradient4262"
       x1="292"
       y1="244"
       x2="332"
       y2="244"
       gradientUnits="userSpaceOnUse"
       gradientTransform="matrix(0,-1,1,0,68,556)" />
    <linearGradient
       inkscape:collect="always"
       xlink:href="#linearGradient4928"
       id="linearGradient4264"
       x1="293"
       y1="76"
       x2="379"
       y2="76"
       gradientUnits="userSpaceOnUse"
       gradientTransform="matrix(0,-1,1,0,260,412)" />
    <linearGradient
       inkscape:collect="always"
       xlink:href="#linearGradient4928"
       id="linearGradient4266"
       x1="291"
       y1="172"
       x2="349"
       y2="172"
       gradientUnits="userSpaceOnUse"
       gradientTransform="matrix(0,-1,1,0,148,492)" />
    <linearGradient
       inkscape:collect="always"
       xlink:href="#linearGradient4928"
       id="linearGradient3870"
       gradientUnits="userSpaceOnUse"
       gradientTransform="matrix(0,-1,1,0,316,540)"
       x1="418"
       y1="112"
       x2="438"
       y2="112" />
  </defs>
  <metadata
     id="metadata4">
    <rdf:RDF>
      <cc:Work
         rdf:about="">
        <dc:format>image/svg+xml</dc:format>
        <dc:type
           rdf:resource="http://purl.org/dc/dcmitype/StillImage" />
        <dc:creator>
          <cc:Agent>
            <dc:title>Sam Hewitt</dc:title>
          </cc:Agent>
        </dc:creator>
        <dc:source />
        <cc:license
           rdf:resource="" />
        <dc:title></dc:title>
        <dc:subject>
          <rdf:Bag />
        </dc:subject>
        <dc:date />
        <dc:rights>
          <cc:Agent>
            <dc:title />
          </cc:Agent>
        </dc:rights>
        <dc:publisher>
          <cc:Agent>
            <dc:title />
          </cc:Agent>
        </dc:publisher>
        <dc:identifier />
        <dc:relation />
        <dc:language />
        <dc:coverage />
        <dc:description />
        <dc:contributor>
          <cc:Agent>
            <dc:title />
          </cc:Agent>
        </dc:contributor>
      </cc:Work>
      <cc:Work
         rdf:about="">
        <dc:format>image/svg+xml</dc:format>
        <dc:type
           rdf:resource="http://purl.org/dc/dcmitype/StillImage" />
      </cc:Work>
    </rdf:RDF>
  </metadata>
  <g
     style="display:inline"
     inkscape:groupmode="layer"
     inkscape:label="Icon"
     id="layer1">
    <g
       style="display:none"
       inkscape:label="Baseplate"
       id="layer7"
       inkscape:groupmode="layer">
      <text
         y="19.745117"
         xml:space="preserve"
         x="15.006836"
         style="font-size:18px;font-style:normal;font-variant:normal;font-weight:normal;font-stretch:normal;fill:#000000;fill-opacity:1;stroke:none;display:inline;enable-background:new;font-family:DejaVu Sans;-inkscape-font-specification:DejaVu Sans"
         inkscape:label="context"
         id="context"><tspan
           style="font-style:normal;font-variant:normal;font-weight:normal;font-stretch:normal;font-family:DejaVu Sans;-inkscape-font-specification:DejaVu Sans"
           y="19.745117"
           x="15.006836"
           sodipodi:role="line"
           id="tspan3933">apps</tspan></text>
      <text
         y="19.745117"
         xml:space="preserve"
         x="122.48828"
         style="font-size:18px;font-style:normal;font-variant:normal;font-weight:bold;font-stretch:normal;text-align:start;line-height:125%;writing-mode:lr-tb;text-anchor:start;fill:#000000;fill-opacity:1;stroke:none;display:inline;enable-background:new;font-family:DejaVu Sans;-inkscape-font-specification:DejaVu Sans Bold"
         sodipodi:linespacing="125%"
         inkscape:label="icon-name"
         id="icon-name"><tspan
           style="font-size:18px;font-style:normal;font-variant:normal;font-weight:bold;font-stretch:normal;font-family:DejaVu Sans;-inkscape-font-specification:DejaVu Sans Bold"
           y="19.745117"
           x="122.48828"
           sodipodi:role="line"
           id="tspan3937">nexulockr</tspan></text>
      <rect
         style="fill:#eeeeec;fill-opacity:1;fill-rule:nonzero;stroke:none;stroke-width:2;marker:none;visibility:visible;display:inline;overflow:visible;enable-background:accumulate"
         id="rect16x16"
         width="16"
         height="16"
         x="416"
         y="140"
         inkscape:label="16x16" />
      <rect
         style="fill:#d4d4d4;fill-opacity:1;fill-rule:nonzero;stroke:none;stroke-width:2;marker:none;visibility:visible;display:inline;overflow:visible;enable-background:accumulate"
         id="rect24x24"
         width="24"
         height="24"
         x="416"
         y="100"
         inkscape:label="24x24" />
      <rect
         style="fill:#eeeeec;fill-opacity:1;fill-rule:nonzero;stroke:none;stroke-width:2;marker:none;visibility:visible;display:inline;overflow:visible;enable-background:accumulate"
         id="rect32x32"
         width="32"
         height="32"
         x="416"
         y="52"
         inkscape:label="32x32" />
      <rect
         inkscape:label="22x22"
         y="101"
         x="417"
         height="22"
         width="22"
         id="rect22x22"
         style="fill:#eeeeec;fill-opacity:1;fill-rule:nonzero;stroke:none;stroke-width:2;marker:none;visibility:visible;display:inline;overflow:visible;enable-background:accumulate" />
      <rect
         inkscape:label="48x48"
         y="220"
         x="288"
         height="48"
         width="48"
         id="rect48x48"
         style="fill:#eeeeec;fill-opacity:1;fill-rule:nonzero;stroke:none;stroke-width:2;marker:none;visibility:visible;display:inline;overflow:visible;enable-background:accumulate" />
      <rect
         style="fill:#eeeeec;fill-opacity:1;fill-rule:nonzero;stroke:none;stroke-width:2;marker:none;visibility:visible;display:inline;overflow:visible;enable-background:accumulate"
         id="rect256x256"
         width="256"
         height="256"
         x="16"
         y="28"
         inkscape:label="256x256" />
      <rect
         style="fill:#eeeeec;fill-opacity:1;fill-rule:nonzero;stroke:none;stroke-width:2;marker:none;visibility:visible;display:inline;overflow:visible;enable-background:accumulate"
         id="rect64x64"
         width="64"
         height="64"
         x="288"
         y="140"
         inkscape:label="64x64" />
      <rect
         style="fill:#eeeeec;fill-opacity:1;fill-rule:nonzero;stroke:none;stroke-width:2;marker:none;visibility:visible;display:inline;overflow:visible;enable-background:accumulate"
         id="rect96x96"
         width="96"
         height="96"
         x="288"
         y="28"
         inkscape:label="96x96" />
    </g>
    <g
       inkscape:groupmode="layer"
       id="layer4"
       inkscape:label="Shadow"
       style="display:inline"
       sodipodi:insensitive="true">
      <rect
         ry="50"
         y="47"
         x="34"
         height="220"
         width="220"
         id="rect4114"
         style="opacity:0.1;color:#bebebe;fill:#000000;fill-opacity:1;fill-rule:nonzero;stroke:none;stroke-width:0;marker:none;visibility:visible;display:inline;overflow:visible;enable-background:accumulate" />
      <rect
         style="opacity:0.1;color:#bebebe;fill:#000000;fill-opacity:1;fill-rule:nonzero;stroke:none;stroke-width:0;marker:none;visibility:visible;display:inline;overflow:visible;enable-background:accumulate"
         id="rect4120"
         width="30"
         height="30"
         x="417"
         y="54"
         ry="7" />
      <rect
         transform="scale(1,-1)"
         ry="9"
         y="-266"
         x="291"
         height="42"
         width="42"
         id="rect4122"
         style="opacity:0.1;color:#bebebe;fill:#000000;fill-opacity:1;fill-rule:nonzero;stroke:none;stroke-width:0;marker:none;visibility:visible;display:inline;overflow:visible;enable-background:accumulate" />
      <rect
         style="opacity:0.1;color:#bebebe;fill:#000000;fill-opacity:1;fill-rule:nonzero;stroke:none;stroke-width:0;marker:none;visibility:visible;display:inline;overflow:visible;enable-background:accumulate"
         id="rect4124"
         width="88"
         height="88"
         x="292"
         y="33"
         ry="18" />
      <rect
         ry="12.5"
         y="143"
         x="290"
         height="60"
         width="60"
         id="rect4126"
         style="opacity:0.1;color:#bebebe;fill:#000000;fill-opacity:1;fill-rule:nonzero;stroke:none;stroke-width:0;marker:none;visibility:visible;display:inline;overflow:visible;enable-background:accumulate" />
      <path
         id="path4268"
         d="m 422,101 c -2.77,0 -5,2.23 -5,5 l 0,12 c 0,2.77 2.23,5 5,5 l 12,0 c 2.77,0 5,-2.23 5,-5 l 0,-12 c 0,-2.77 -2.23,-5 -5,-5 z"
         style="opacity:0.1;color:#bebebe;fill:#000000;fill-opacity:1;fill-rule:nonzero;stroke:none;stroke-width:0;marker:none;visibility:visible;display:inline;overflow:visible;enable-background:accumulate"
         inkscape:connector-curvature="0"
         sodipodi:nodetypes="sssssssss" />
      <path
         id="path4270"
         d="m 419,140 c -1.662,0 -3,1.338 -3,3 l 0,10 c 0,1.662 1.338,3 3,3 l 10,0 c 1.662,0 3,-1.338 3,-3 l 0,-10 c 0,-1.662 -1.338,-3 -3,-3 z"
         style="opacity:0.1;color:#bebebe;fill:#000000;fill-opacity:1;fill-rule:nonzero;stroke:none;stroke-width:0;marker:none;visibility:visible;display:inline;overflow:visible;enable-background:accumulate"
         inkscape:connector-curvature="0"
         sodipodi:nodetypes="sssssssss" />
    </g>
    <g
       inkscape:groupmode="layer"
       id="layer2"
       inkscape:label="Background"
       style="display:inline">
      <path
         style="color:#bebebe;fill:url(#linearGradient4254);fill-opacity:1;fill-rule:nonzero;stroke:none;stroke-width:2;marker:none;visibility:visible;display:inline;overflow:visible;enable-background:accumulate"
         d="M 84,46.5 C 56.568735,46.5 34.5,68.568732 34.5,96 l 0,120 c 0,27.43127 22.068735,49.5 49.5,49.5 l 120,0 c 27.43127,0 49.5,-22.06873 49.5,-49.5 l 0,-120 C 253.5,68.568732 231.43127,46.5 204,46.5 l -120,0 z"
         id="path4200"
         inkscape:connector-curvature="0" />
      <path
         style="color:#bebebe;fill:url(#linearGradient4256);fill-opacity:1;fill-rule:nonzero;stroke:none;stroke-width:2;marker:none;visibility:visible;display:inline;overflow:visible;enable-background:accumulate"
         d="m 419,140.5 c -1.3844,0 -2.5,1.1156 -2.5,2.5 l 0,10 c 0,1.3844 1.1156,2.5 2.5,2.5 l 10,0 c 1.3844,0 2.5,-1.1156 2.5,-2.5 l 0,-10 c 0,-1.3844 -1.1156,-2.5 -2.5,-2.5 l -10,0 z"
         id="path4202"
         inkscape:connector-curvature="0" />
      <path
         style="color:#bebebe;fill:url(#linearGradient3870);fill-opacity:1;fill-rule:nonzero;stroke:none;stroke-width:2;marker:none;visibility:visible;display:inline;overflow:visible;enable-background:accumulate"
         d="m 422,101.5 c -2.49699,0 -4.5,2.00301 -4.5,4.5 l 0,12 c 0,2.49699 2.00301,4.5 4.5,4.5 l 12,0 c 2.49699,0 4.5,-2.00301 4.5,-4.5 l 0,-12 c 0,-2.49699 -2.00301,-4.5 -4.5,-4.5 l -12,0 z"
         id="path4204"
         inkscape:connector-curvature="0" />
      <path
         style="color:#bebebe;fill:url(#linearGradient4260);fill-opacity:1;fill-rule:nonzero;stroke:none;stroke-width:2;marker:none;visibility:visible;display:inline;overflow:visible;enable-background:accumulate"
         d="m 424,53.5 c -3.60654,0 -6.5,2.893464 -6.5,6.5 l 0,16 c 0,3.606536 2.89346,6.5 6.5,6.5 l 16,0 c 3.60654,0 6.5,-2.893464 6.5,-6.5 l 0,-16 c 0,-3.606536 -2.89346,-6.5 -6.5,-6.5 l -16,0 z"
         id="path4206"
         inkscape:connector-curvature="0" />
      <path
         style="color:#bebebe;fill:url(#linearGradient4262);fill-opacity:1;fill-rule:nonzero;stroke:none;stroke-width:2;marker:none;visibility:visible;display:inline;overflow:visible;enable-background:accumulate"
         d="m 300,223.5 c -4.71531,0 -8.5,3.78469 -8.5,8.5 l 0,24 c 0,4.71531 3.78469,8.5 8.5,8.5 l 24,0 c 4.71531,0 8.5,-3.78469 8.5,-8.5 l 0,-24 c 0,-4.71531 -3.78469,-8.5 -8.5,-8.5 l -24,0 z"
         id="path4208"
         inkscape:connector-curvature="0" />
      <path
         style="color:#bebebe;fill:url(#linearGradient4264);fill-opacity:1;fill-rule:nonzero;stroke:none;stroke-width:2;marker:none;visibility:visible;display:inline;overflow:visible;enable-background:accumulate"
         d="m 310,32.5 c -9.70255,0 -17.5,7.797452 -17.5,17.5 l 0,52 c 0,9.70255 7.79745,17.5 17.5,17.5 l 52,0 c 9.70255,0 17.5,-7.79745 17.5,-17.5 l 0,-52 c 0,-9.702548 -7.79745,-17.5 -17.5,-17.5 l -52,0 z"
         id="path4210"
         inkscape:connector-curvature="0" />
      <path
         style="color:#bebebe;fill:url(#linearGradient4266);fill-opacity:1;fill-rule:nonzero;stroke:none;stroke-width:2;marker:none;visibility:visible;display:inline;overflow:visible;enable-background:accumulate"
         d="m 302.5,142.5 c -6.65502,0 -12,5.34498 -12,12 l 0,35 c 0,6.65502 5.34498,12 12,12 l 35,0 c 6.65502,0 12,-5.34498 12,-12 l 0,-35 c 0,-6.65502 -5.34498,-12 -12,-12 l -35,0 z"
         id="path4212"
         inkscape:connector-curvature="0" />
    </g>
    <g
       inkscape:groupmode="layer"
       id="layer6"
       inkscape:label="Symbols"
       style="display:inline">
      <path
         sodipodi:nodetypes="ccccccsssssssscssccsccccccccccccccccccccccccccccc"
         inkscape:connector-curvature="0"
         id="path5849"
         d="m 321.45395,153.79763 c -1.45394,1e-5 -2.74338,0.21843 -3.86178,0.65752 -1.10599,0.43911 -2.10626,1.10412 -2.92642,1.99108 l 0,-2.29669 -3.55616,0 0,14.93774 -2.51895,0 c -1.88996,0 -3.408,1.51803 -3.408,3.40799 l 0,16.29909 c 0,1.88996 1.51803,3.40799 3.408,3.40799 l 22.81872,0 c 1.88996,0 3.408,-1.51803 3.408,-3.40799 l 0,-16.29909 c 0,-1.88996 -1.51803,-3.40799 -3.408,-3.40799 l -16.74361,0 0,-8.51997 c 0,-1.44023 0.57047,-2.58296 1.63918,-3.41725 1.06868,-0.83427 2.52877,-1.25021 4.38037,-1.25022 1.5409,10e-6 2.70235,0.35272 3.47281,1.04648 0.77045,0.69378 1.17613,1.73384 1.17613,3.13016 l 0,5.81581 3.25982,0 0,-5.8899 c -3e-5,-2.0374 -0.46451,-3.58536 -1.69474,-4.63042 -1.23026,-1.05381 -3.04702,-1.57433 -5.44537,-1.57434 z m -9.45533,20.0312 3.47282,0 3.88955,4.27851 0,1.87069 -1.83364,0 z m 12.57623,0 3.41725,0 -5.48242,6.1492 -1.83365,0 0,-1.87995 z m -7.02898,7.48277 1.81512,0 0,1.85217 -3.81546,4.29703 -3.50986,0 z m 3.13016,0 1.82439,0 5.50094,6.1492 -3.5006,0 -3.82473,-4.29703 z"
         style="font-size:89.68190002000000050px;font-style:normal;font-variant:normal;font-weight:normal;font-stretch:normal;line-height:125%;letter-spacing:0px;word-spacing:0px;fill:#000000;fill-opacity:1;stroke:none;display:inline;enable-background:new;font-family:Roboto Light;-inkscape-font-specification:Roboto Light;opacity:0.2" />
      <path
         style="font-size:89.68190002000000050px;font-style:normal;font-variant:normal;font-weight:normal;font-stretch:normal;line-height:125%;letter-spacing:0px;word-spacing:0px;fill:#000000;fill-opacity:1;stroke:none;display:inline;enable-background:new;font-family:Roboto Light;-inkscape-font-specification:Roboto Light;opacity:0.2"
         d="m 428.51751,106.16525 c -0.5175,0 -0.97645,0.0777 -1.37453,0.23403 -0.39366,0.15629 -0.74968,0.39299 -1.04161,0.70869 l 0,-0.81746 -1.26575,0 0,5.31682 -0.89658,0 c -0.6727,0 -1.21301,0.54031 -1.21301,1.21301 l 0,5.80137 c 0,0.6727 0.54031,1.21302 1.21301,1.21302 l 8.12192,0 c 0.6727,0 1.21301,-0.54032 1.21301,-1.21302 l 0,-5.80137 c 0,-0.6727 -0.54031,-1.21301 -1.21301,-1.21301 l -5.95959,0 0,-3.03253 c 0,-0.51263 0.20305,-0.91936 0.58344,-1.21631 0.38038,-0.29695 0.90007,-0.44499 1.55911,-0.445 0.54846,1e-5 0.96186,0.12555 1.23609,0.37248 0.27423,0.24694 0.41862,0.61713 0.41862,1.11412 l 0,2.07004 1.16028,0 0,-2.09641 c -1e-5,-0.72517 -0.16534,-1.27614 -0.60321,-1.64811 -0.4379,-0.37509 -1.08454,-0.56036 -1.93819,-0.56036 z m -3.36545,7.12975 1.23608,0 1.38442,1.52286 0,0.66584 -0.65265,0 z m 4.47628,0 1.21631,0 -1.95137,2.1887 -0.65265,0 0,-0.66914 z m -2.50184,2.66336 0.64606,0 0,0.65924 -1.35805,1.52945 -1.24927,0 z m 1.11413,0 0.64936,0 1.95796,2.18869 -1.24598,0 -1.36134,-1.52945 z"
         id="path5851"
         inkscape:connector-curvature="0"
         sodipodi:nodetypes="ccccccsssssssscssccsccccccccccccccccccccccccccccc" />
      <path
         sodipodi:nodetypes="ccccccsssssssscssccsccccccccccccccccccccccccccccc"
         inkscape:connector-curvature="0"
         id="path5853"
         d="m 424.3697,144.11803 c -0.3697,1e-5 -0.6975,0.0555 -0.9818,0.16717 -0.2812,0.11164 -0.5355,0.28071 -0.744,0.50621 l 0,-0.58391 -0.9042,0 0,3.79773 -0.6404,0 c -0.4805,0 -0.8664,0.38594 -0.8664,0.86644 l 0,4.14384 c 0,0.4805 0.3859,0.86644 0.8664,0.86644 l 5.8014,0 c 0.4805,0 0.8664,-0.38594 0.8664,-0.86644 l 0,-4.14384 c 0,-0.4805 -0.3859,-0.86644 -0.8664,-0.86644 l -4.2568,0 0,-2.16609 c 0,-0.36616 0.145,-0.65669 0.4167,-0.86879 0.2717,-0.21211 0.6429,-0.31785 1.1137,-0.31786 0.3917,1e-5 0.687,0.0897 0.8829,0.26606 0.1958,0.17638 0.299,0.44081 0.299,0.7958 l 0,1.4786 0.8288,0 0,-1.49743 c -10e-5,-0.51799 -0.1181,-0.91154 -0.4309,-1.17723 -0.3128,-0.26792 -0.7747,-0.40025 -1.3844,-0.40026 z m -2.4039,5.09268 0.8829,0 0.9889,1.08776 0,0.4756 -0.4662,0 z m 3.1973,0 0.8688,0 -1.3938,1.56336 -0.4662,0 0,-0.47796 z m -1.787,1.9024 0.4615,0 0,0.47089 -0.9701,1.09247 -0.8923,0 z m 0.7958,0 0.4638,0 1.3986,1.56336 -0.89,0 -0.9724,-1.09247 z"
         style="font-size:89.68190002000000050px;font-style:normal;font-variant:normal;font-weight:normal;font-stretch:normal;line-height:125%;letter-spacing:0px;word-spacing:0px;fill:#000000;fill-opacity:1;stroke:none;display:inline;enable-background:new;font-family:Roboto Light;-inkscape-font-specification:Roboto Light;opacity:0.2" />
      <path
         style="font-size:89.68190002000000050px;font-style:normal;font-variant:normal;font-weight:normal;font-stretch:normal;line-height:125%;letter-spacing:0px;word-spacing:0px;fill:#000000;fill-opacity:1;stroke:none;display:inline;enable-background:new;font-family:Roboto Light;-inkscape-font-specification:Roboto Light;opacity:0.2"
         d="m 338.14396,48.684645 c -2.14395,2e-5 -4.04531,0.322099 -5.69448,0.969561 -1.63088,0.647503 -3.10583,1.62812 -4.31524,2.936008 l 0,-3.386648 -5.24383,0 0,22.026839 -3.71439,0 c -2.78689,0 -5.02534,2.238454 -5.02534,5.025342 l 0,24.034243 c 0,2.7869 2.23845,5.02535 5.02534,5.02535 l 33.64796,0 c 2.78688,0 5.02534,-2.23845 5.02534,-5.02535 l 0,-24.034243 c 0,-2.786888 -2.23845,-5.025342 -5.02534,-5.025342 l -24.68974,0 0,-12.563352 c 0,-2.12373 0.84119,-3.808769 2.41709,-5.038996 1.57586,-1.230196 3.72888,-1.843522 6.4592,-1.843542 2.27217,2e-5 3.98482,0.520113 5.12094,1.543113 1.13608,1.023041 1.73429,2.556684 1.73429,4.615664 l 0,8.575856 4.80685,0 0,-8.685102 c -4e-5,-3.004301 -0.68495,-5.286887 -2.49902,-6.827911 -1.81412,-1.553923 -4.49307,-2.32147 -8.02962,-2.32149 z m -13.9426,29.537541 5.12095,0 5.73544,6.308989 0,2.758476 -2.70385,0 z m 18.54462,0 5.039,0 -8.08425,9.067465 -2.70385,0 0,-2.772134 z m -10.36477,11.033904 2.67654,0 0,2.731164 -5.6262,6.336301 -5.17556,0 z m 4.61567,0 2.6902,0 8.11155,9.067465 -5.1619,0 -5.63985,-6.336302 z"
         id="path5855"
         inkscape:connector-curvature="0"
         sodipodi:nodetypes="ccccccsssssssscssccsccccccccccccccccccccccccccccc" />
      <path
         sodipodi:nodetypes="ccccccsssssssscssccsccccccccccccccccccccccccccccc"
         inkscape:connector-curvature="0"
         id="path5857"
         d="m 313.01037,231.65598 c -1.01037,1e-5 -1.90641,0.15179 -2.6836,0.45692 -0.76858,0.30514 -1.46367,0.76727 -2.03362,1.38363 l 0,-1.596 -2.47124,0 0,10.38046 -1.75045,0 c -1.31336,0 -2.36827,1.0549 -2.36827,2.36827 l 0,11.32648 c 0,1.31336 1.0549,2.36826 2.36827,2.36826 l 15.85708,0 c 1.31336,0 2.36826,-1.0549 2.36826,-2.36826 l 0,-11.32648 c 0,-1.31337 -1.0549,-2.36827 -2.36826,-2.36827 l -11.63539,0 0,-5.92066 c 0,-1.00084 0.39642,-1.79494 1.13908,-2.3747 0.74266,-0.57975 1.75729,-0.86879 3.04399,-0.8688 1.0708,1e-5 1.8779,0.24511 2.41332,0.72722 0.53539,0.48212 0.81732,1.20487 0.81732,2.1752 l 0,4.04149 2.26529,0 0,-4.09298 c -10e-6,-1.41582 -0.32279,-2.49152 -1.1777,-3.21775 -0.85493,-0.73231 -2.11742,-1.09402 -3.78407,-1.09403 z m -6.57065,13.91999 2.41332,0 2.70291,2.9732 0,1.29997 -1.27423,0 z m 8.73941,0 2.3747,0 -3.80981,4.27317 -1.27423,0 0,-1.30641 z m -4.88454,5.19988 1.26136,0 0,1.2871 -2.65143,2.98608 -2.43906,0 z m 2.1752,0 1.26779,0 3.82269,4.27318 -2.43262,0 -2.65786,-2.98608 z"
         style="font-size:89.68190002000000050px;font-style:normal;font-variant:normal;font-weight:normal;font-stretch:normal;line-height:125%;letter-spacing:0px;word-spacing:0px;fill:#000000;fill-opacity:1;stroke:none;display:inline;enable-background:new;font-family:Roboto Light;-inkscape-font-specification:Roboto Light;opacity:0.2" />
      <path
         style="font-size:89.68190002000000050px;font-style:normal;font-variant:normal;font-weight:normal;font-stretch:normal;line-height:125%;letter-spacing:0px;word-spacing:0px;fill:#000000;fill-opacity:1;stroke:none;display:inline;enable-background:new;font-family:Roboto Light;-inkscape-font-specification:Roboto Light;opacity:0.2"
         d="m 432.7147,59.561541 c -0.7147,7e-6 -1.3484,0.107366 -1.8982,0.323187 -0.5436,0.215834 -1.0352,0.542707 -1.4384,0.978669 l 0,-1.128882 -1.7479,0 0,7.342279 -1.2382,0 c -0.9289,0 -1.6751,0.746152 -1.6751,1.675114 l 0,8.011416 c 0,0.928965 0.7462,1.675115 1.6751,1.675115 l 11.216,0 c 0.929,0 1.6751,-0.74615 1.6751,-1.675115 l 0,-8.011416 c 0,-0.928962 -0.7461,-1.675114 -1.6751,-1.675114 l -8.2299,0 0,-4.187784 c 0,-0.70791 0.2804,-1.269589 0.8057,-1.679665 0.5253,-0.410065 1.243,-0.614507 2.1531,-0.614514 0.7574,7e-6 1.3283,0.173371 1.707,0.514371 0.3787,0.341014 0.5781,0.852228 0.5781,1.538555 l 0,2.858618 1.6022,0 0,-2.895034 c 0,-1.001433 -0.2283,-1.762295 -0.833,-2.27597 -0.6047,-0.517974 -1.4977,-0.773823 -2.6765,-0.77383 z m -4.6475,9.845847 1.7069,0 1.9119,2.102996 0,0.919492 -0.9013,0 z m 6.1815,0 1.6797,0 -2.6948,3.022488 -0.9013,0 0,-0.924044 z m -3.4549,3.677968 0.8922,0 0,0.910388 -1.8754,2.1121 -1.7252,0 z m 1.5385,0 0.8968,0 2.7038,3.022488 -1.7206,0 -1.88,-2.1121 z"
         id="path5859"
         inkscape:connector-curvature="0"
         sodipodi:nodetypes="ccccccsssssssscssccsccccccccccccccccccccccccccccc" />
      <path
         sodipodi:nodetypes="ccccccsssssssscssccsccccccccccccccccccccccccccccc"
         inkscape:connector-curvature="0"
         id="path5520"
         d="m 149.39687,85.44688 c -5.39683,5.5e-5 -10.18303,0.810799 -14.33437,2.440625 -4.10531,1.629914 -7.81816,4.098369 -10.8625,7.390634 l 0,-8.525009 -13.2,0 0,55.44687 -9.35,0 C 94.634713,142.2 89,147.83473 89,154.85 l 0,60.5 c 0,7.01529 5.634713,12.65 12.65,12.65 l 84.7,0 c 7.01529,0 12.65,-5.63471 12.65,-12.65 l 0,-60.5 c 0,-7.01527 -5.63471,-12.65 -12.65,-12.65 l -62.15,0 0,-31.62499 c 0,-5.34594 2.11748,-9.58759 6.08437,-12.684371 3.96683,-3.0967 9.38649,-4.64059 16.25938,-4.640634 5.71962,4.4e-5 10.03074,1.309244 12.89063,3.884384 2.85978,2.575241 4.36562,6.435791 4.36562,11.618741 l 0,21.5875 12.1,0 0,-21.8625 c -9e-5,-7.56255 -1.72418,-13.308371 -6.29063,-17.1875 -4.56658,-3.9116 -11.31013,-5.843695 -20.2125,-5.84375 z M 114.3,159.8 l 12.89062,0 14.4375,15.88125 0,6.94375 -6.80625,0 z m 46.68125,0 12.68437,0 -20.35,22.825 -6.80625,0 0,-6.97813 z m -26.09063,27.775 6.7375,0 0,6.875 -14.1625,15.95 -13.02812,0 z m 11.61875,0 6.77188,0 20.41875,22.825 -12.99375,0 -14.19688,-15.95 z"
         style="font-size:89.68190002px;font-style:normal;font-variant:normal;font-weight:normal;font-stretch:normal;line-height:125%;letter-spacing:0px;word-spacing:0px;opacity:0.2;fill:#000000;fill-opacity:1;stroke:none;font-family:Roboto Light;-inkscape-font-specification:Roboto Light" />
      <path
         style="font-size:89.68190002000000050px;font-style:normal;font-variant:normal;font-weight:normal;font-stretch:normal;line-height:125%;letter-spacing:0px;word-spacing:0px;fill:#ffffff;fill-opacity:1;stroke:none;font-family:Roboto Light;-inkscape-font-specification:Roboto Light"
         d="m 149.39687,84.44688 c -5.39683,5.5e-5 -10.18303,0.810799 -14.33437,2.440625 -4.10531,1.629914 -7.81816,4.098369 -10.8625,7.390634 l 0,-8.525009 -13.2,0 0,55.44687 -9.35,0 C 94.63471,141.2 89,146.83473 89,153.85 l 0,60.5 c 0,7.01529 5.63471,12.65 12.65,12.65 l 84.7,0 c 7.01529,0 12.65,-5.63471 12.65,-12.65 l 0,-60.5 c 0,-7.01527 -5.63471,-12.65 -12.65,-12.65 l -62.15,0 0,-31.62499 c 0,-5.34594 2.11748,-9.58759 6.08437,-12.684371 3.96683,-3.0967 9.38649,-4.64059 16.25938,-4.640634 5.71962,4.4e-5 10.03074,1.309244 12.89063,3.884384 2.85978,2.57524 4.36562,6.435791 4.36562,11.618741 l 0,21.5875 12.1,0 0,-21.8625 c -9e-5,-7.56255 -1.72418,-13.308371 -6.29063,-17.1875 -4.56658,-3.9116 -11.31013,-5.843695 -20.2125,-5.84375 z M 114.3,158.8 l 12.89062,0 14.4375,15.88125 0,6.94375 -6.80625,0 z m 46.68125,0 12.68437,0 -20.35,22.825 -6.80625,0 0,-6.97813 z m -26.09063,27.775 6.7375,0 0,6.875 -14.1625,15.95 -13.02812,0 z m 11.61875,0 6.77188,0 20.41875,22.825 -12.99375,0 -14.19688,-15.95 z"
         id="path4694"
         inkscape:connector-curvature="0"
         sodipodi:nodetypes="ccccccsssssssscssccsccccccccccccccccccccccccccccc" />
      <path
         style="font-size:89.68190002px;font-style:normal;font-variant:normal;font-weight:normal;font-stretch:normal;line-height:125%;letter-spacing:0px;word-spacing:0px;fill:#ffffff;fill-opacity:1;stroke:none;display:inline;enable-background:new;font-family:Roboto Light;-inkscape-font-specification:Roboto Light"
         d="m 321.45395,152.79764 c -1.45394,1e-5 -2.74338,0.21843 -3.86178,0.65752 -1.10599,0.43911 -2.10626,1.10412 -2.92642,1.99108 l 0,-2.29669 -3.55616,0 0,14.93774 -2.51895,0 c -1.88996,0 -3.408,1.51803 -3.408,3.40799 l 0,16.29909 c 0,1.88996 1.51803,3.40799 3.408,3.40799 l 22.81872,0 c 1.88996,0 3.408,-1.51803 3.408,-3.40799 l 0,-16.29909 c 0,-1.88996 -1.51803,-3.40799 -3.408,-3.40799 l -16.74361,0 0,-8.51997 c 0,-1.44023 0.57047,-2.58296 1.63918,-3.41725 1.06868,-0.83427 2.52877,-1.25021 4.38037,-1.25022 1.5409,1e-5 2.70235,0.35272 3.47281,1.04648 0.77045,0.69378 1.17613,1.73384 1.17613,3.13016 l 0,5.81581 3.25982,0 0,-5.8899 c -3e-5,-2.0374 -0.46451,-3.58536 -1.69474,-4.63042 -1.23026,-1.05381 -3.04702,-1.57433 -5.44537,-1.57434 z m -9.45533,20.0312 3.47282,0 3.88955,4.27851 0,1.87069 -1.83364,0 z m 12.57623,0 3.41725,0 -5.48242,6.1492 -1.83365,0 0,-1.87995 z m -7.02898,7.48277 1.81512,0 0,1.85217 -3.81546,4.29703 -3.50986,0 z m 3.13016,0 1.82439,0 5.50094,6.1492 -3.5006,0 -3.82473,-4.29703 z"
         id="path4694-1"
         inkscape:connector-curvature="0"
         sodipodi:nodetypes="ccccccsssssssscssccsccccccccccccccccccccccccccccc" />
      <path
         sodipodi:nodetypes="ccccccsssssssscssccsccccccccccccccccccccccccccccc"
         inkscape:connector-curvature="0"
         id="path5779"
         d="m 428.51751,105.16526 c -0.5175,0 -0.97645,0.0777 -1.37453,0.23403 -0.39366,0.15629 -0.74968,0.39299 -1.04161,0.70869 l 0,-0.81746 -1.26575,0 0,5.31682 -0.89658,0 c -0.6727,0 -1.21301,0.54031 -1.21301,1.21301 l 0,5.80137 c 0,0.6727 0.54031,1.21302 1.21301,1.21302 l 8.12192,0 c 0.6727,0 1.21301,-0.54032 1.21301,-1.21302 l 0,-5.80137 c 0,-0.6727 -0.54031,-1.21301 -1.21301,-1.21301 l -5.95959,0 0,-3.03253 c 0,-0.51263 0.20305,-0.91936 0.58344,-1.21631 0.38038,-0.29695 0.90007,-0.44499 1.55911,-0.445 0.54846,1e-5 0.96186,0.12555 1.23609,0.37248 0.27423,0.24694 0.41862,0.61713 0.41862,1.11412 l 0,2.07004 1.16028,0 0,-2.09641 c -1e-5,-0.72517 -0.16534,-1.27614 -0.60321,-1.64811 -0.4379,-0.37509 -1.08454,-0.56036 -1.93819,-0.56036 z m -3.36545,7.12975 1.23608,0 1.38442,1.52286 0,0.66584 -0.65265,0 z m 4.47628,0 1.21631,0 -1.95137,2.1887 -0.65265,0 0,-0.66914 z m -2.50184,2.66336 0.64606,0 0,0.65924 -1.35805,1.52945 -1.24927,0 z m 1.11413,0 0.64936,0 1.95796,2.18869 -1.24598,0 -1.36134,-1.52945 z"
         style="font-size:89.68190002px;font-style:normal;font-variant:normal;font-weight:normal;font-stretch:normal;line-height:125%;letter-spacing:0px;word-spacing:0px;fill:#ffffff;fill-opacity:1;stroke:none;display:inline;enable-background:new;font-family:Roboto Light;-inkscape-font-specification:Roboto Light" />
      <path
         style="font-size:89.68190002px;font-style:normal;font-variant:normal;font-weight:normal;font-stretch:normal;line-height:125%;letter-spacing:0px;word-spacing:0px;fill:#ffffff;fill-opacity:1;stroke:none;display:inline;enable-background:new;font-family:Roboto Light;-inkscape-font-specification:Roboto Light"
         d="m 424.3697,143.11804 c -0.3697,1e-5 -0.6975,0.0555 -0.9818,0.16717 -0.2812,0.11164 -0.5355,0.28071 -0.744,0.50621 l 0,-0.58391 -0.9042,0 0,3.79773 -0.6404,0 c -0.4805,0 -0.8664,0.38594 -0.8664,0.86644 l 0,4.14384 c 0,0.4805 0.3859,0.86644 0.8664,0.86644 l 5.8014,0 c 0.4805,0 0.8664,-0.38594 0.8664,-0.86644 l 0,-4.14384 c 0,-0.4805 -0.3859,-0.86644 -0.8664,-0.86644 l -4.2568,0 0,-2.16609 c 0,-0.36616 0.145,-0.65669 0.4167,-0.86879 0.2717,-0.21211 0.6429,-0.31785 1.1137,-0.31786 0.3917,1e-5 0.687,0.0897 0.8829,0.26606 0.1958,0.17638 0.299,0.44081 0.299,0.7958 l 0,1.4786 0.8288,0 0,-1.49743 c -10e-5,-0.51799 -0.1181,-0.91154 -0.4309,-1.17723 -0.3128,-0.26792 -0.7747,-0.40025 -1.3844,-0.40026 z m -2.4039,5.09268 0.8829,0 0.9889,1.08776 0,0.4756 -0.4662,0 z m 3.1973,0 0.8688,0 -1.3938,1.56336 -0.4662,0 0,-0.47796 z m -1.787,1.9024 0.4615,0 0,0.47089 -0.9701,1.09247 -0.8923,0 z m 0.7958,0 0.4638,0 1.3986,1.56336 -0.89,0 -0.9724,-1.09247 z"
         id="path5787"
         inkscape:connector-curvature="0"
         sodipodi:nodetypes="ccccccsssssssscssccsccccccccccccccccccccccccccccc" />
      <path
         sodipodi:nodetypes="ccccccsssssssscssccsccccccccccccccccccccccccccccc"
         inkscape:connector-curvature="0"
         id="path5803"
         d="m 338.14396,47.684655 c -2.14395,2e-5 -4.04531,0.322099 -5.69448,0.969561 -1.63088,0.647503 -3.10583,1.62812 -4.31524,2.936008 l 0,-3.386648 -5.24383,0 0,22.026839 -3.71439,0 c -2.78689,0 -5.02534,2.238454 -5.02534,5.025342 l 0,24.034247 c 0,2.786896 2.23845,5.025346 5.02534,5.025346 l 33.64796,0 c 2.78688,0 5.02534,-2.23845 5.02534,-5.025346 l 0,-24.034247 c 0,-2.786888 -2.23845,-5.025342 -5.02534,-5.025342 l -24.68974,0 0,-12.563352 c 0,-2.12373 0.84119,-3.808769 2.41709,-5.038996 1.57586,-1.230196 3.72888,-1.843522 6.4592,-1.843542 2.27217,2e-5 3.98482,0.520113 5.12094,1.543113 1.13608,1.023041 1.73429,2.556684 1.73429,4.615664 l 0,8.575856 4.80685,0 0,-8.685102 c -4e-5,-3.004301 -0.68495,-5.286887 -2.49902,-6.827911 -1.81412,-1.553923 -4.49307,-2.32147 -8.02962,-2.32149 z m -13.9426,29.537541 5.12095,0 5.73544,6.308989 0,2.758476 -2.70385,0 z m 18.54462,0 5.039,0 -8.08425,9.067465 -2.70385,0 0,-2.772134 z m -10.36477,11.033904 2.67654,0 0,2.731164 -5.6262,6.336301 -5.17556,0 z m 4.61567,0 2.6902,0 8.11155,9.067465 -5.1619,0 -5.63985,-6.336302 z"
         style="font-size:89.68190002000000050px;font-style:normal;font-variant:normal;font-weight:normal;font-stretch:normal;line-height:125%;letter-spacing:0px;word-spacing:0px;fill:#ffffff;fill-opacity:1;stroke:none;display:inline;enable-background:new;font-family:Roboto Light;-inkscape-font-specification:Roboto Light" />
      <path
         style="font-size:89.68190002px;font-style:normal;font-variant:normal;font-weight:normal;font-stretch:normal;line-height:125%;letter-spacing:0px;word-spacing:0px;fill:#ffffff;fill-opacity:1;stroke:none;display:inline;enable-background:new;font-family:Roboto Light;-inkscape-font-specification:Roboto Light"
         d="m 313.01037,230.65599 c -1.01037,1e-5 -1.90641,0.15179 -2.6836,0.45692 -0.76858,0.30514 -1.46367,0.76727 -2.03362,1.38363 l 0,-1.596 -2.47124,0 0,10.38046 -1.75045,0 c -1.31336,0 -2.36827,1.0549 -2.36827,2.36827 l 0,11.32648 c 0,1.31336 1.0549,2.36826 2.36827,2.36826 l 15.85708,0 c 1.31336,0 2.36826,-1.0549 2.36826,-2.36826 l 0,-11.32648 c 0,-1.31337 -1.0549,-2.36827 -2.36826,-2.36827 l -11.63539,0 0,-5.92066 c 0,-1.00084 0.39642,-1.79494 1.13908,-2.3747 0.74266,-0.57975 1.75729,-0.86879 3.04399,-0.8688 1.0708,1e-5 1.8779,0.24511 2.41332,0.72722 0.53539,0.48212 0.81732,1.20487 0.81732,2.1752 l 0,4.04149 2.26529,0 0,-4.09298 c -10e-6,-1.41582 -0.32279,-2.49152 -1.1777,-3.21775 -0.85493,-0.73231 -2.11742,-1.09402 -3.78407,-1.09403 z m -6.57065,13.91999 2.41332,0 2.70291,2.9732 0,1.29997 -1.27423,0 z m 8.73941,0 2.3747,0 -3.80981,4.27317 -1.27423,0 0,-1.30641 z m -4.88454,5.19988 1.26136,0 0,1.2871 -2.65143,2.98608 -2.43906,0 z m 2.1752,0 1.26779,0 3.82269,4.27318 -2.43262,0 -2.65786,-2.98608 z"
         id="path5809"
         inkscape:connector-curvature="0"
         sodipodi:nodetypes="ccccccsssssssscssccsccccccccccccccccccccccccccccc" />
      <path
         sodipodi:nodetypes="ccccccsssssssscssccsccccccccccccccccccccccccccccc"
         inkscape:connector-curvature="0"
         id="path5815"
         d="m 432.7147,58.561551 c -0.7147,7e-6 -1.3484,0.107366 -1.8982,0.323187 -0.5436,0.215834 -1.0352,0.542707 -1.4384,0.978669 l 0,-1.128882 -1.7479,0 0,7.342279 -1.2382,0 c -0.9289,0 -1.6751,0.746152 -1.6751,1.675114 l 0,8.011416 c 0,0.928965 0.7462,1.675115 1.6751,1.675115 l 11.216,0 c 0.929,0 1.6751,-0.74615 1.6751,-1.675115 l 0,-8.011416 c 0,-0.928962 -0.7461,-1.675114 -1.6751,-1.675114 l -8.2299,0 0,-4.187784 c 0,-0.70791 0.2804,-1.269589 0.8057,-1.679665 0.5253,-0.410065 1.243,-0.614507 2.1531,-0.614514 0.7574,7e-6 1.3283,0.173371 1.707,0.514371 0.3787,0.341014 0.5781,0.852228 0.5781,1.538555 l 0,2.858618 1.6022,0 0,-2.895034 c 0,-1.001433 -0.2283,-1.762295 -0.833,-2.27597 -0.6047,-0.517974 -1.4977,-0.773823 -2.6765,-0.77383 z m -4.6475,9.845847 1.7069,0 1.9119,2.102996 0,0.919492 -0.9013,0 z m 6.1815,0 1.6797,0 -2.6948,3.022488 -0.9013,0 0,-0.924044 z m -3.4549,3.677968 0.8922,0 0,0.910388 -1.8754,2.1121 -1.7252,0 z m 1.5385,0 0.8968,0 2.7038,3.022488 -1.7206,0 -1.88,-2.1121 z"
         style="font-size:89.68190002px;font-style:normal;font-variant:normal;font-weight:normal;font-stretch:normal;line-height:125%;letter-spacing:0px;word-spacing:0px;fill:#ffffff;fill-opacity:1;stroke:none;display:inline;enable-background:new;font-family:Roboto Light;-inkscape-font-specification:Roboto Light" />
    </g>
    <g
       inkscape:groupmode="layer"
       id="layer5"
       inkscape:label="Highlights"
       style="display:inline"
       sodipodi:insensitive="true">
      <path
         style="opacity:0.12999998;color:#bebebe;fill:#ffffff;fill-opacity:1;fill-rule:nonzero;stroke:none;stroke-width:0;marker:none;visibility:visible;display:inline;overflow:visible;enable-background:accumulate"
         d="M 84,47 C 56.836703,47 35,68.836703 35,96 l 0,1 C 35,69.836703 56.836703,48 84,48 l 120,0 c 27.1633,0 49,21.836703 49,49 l 0,-1 C 253,68.836703 231.1633,47 204,47 L 84,47 z"
         id="rect3894"
         inkscape:connector-curvature="0" />
      <path
         style="opacity:0.12999998;color:#bebebe;fill:#ffffff;fill-opacity:1;fill-rule:nonzero;stroke:none;stroke-width:0;marker:none;visibility:visible;display:inline;overflow:visible;enable-background:accumulate"
         d="m 419,141 c -1.1253,0 -2,0.8747 -2,2 l 0,1 c 0,-1.1253 0.8747,-2 2,-2 l 10,0 c 1.1253,0 2,0.8747 2,2 l 0,-1 c 0,-1.1253 -0.8747,-2 -2,-2 l -10,0 z"
         id="rect3896"
         inkscape:connector-curvature="0" />
      <path
         style="opacity:0.12999998;color:#bebebe;fill:#ffffff;fill-opacity:1;fill-rule:nonzero;stroke:none;stroke-width:0;marker:none;visibility:visible;display:inline;overflow:visible;enable-background:accumulate"
         d="m 422,102 c -2.2333,0 -4,1.7667 -4,4 l 0,1 c 0,-2.2333 1.7667,-4 4,-4 l 12,0 c 2.2333,0 4,1.7667 4,4 l 0,-1 c 0,-2.2333 -1.7667,-4 -4,-4 l -12,0 z"
         id="rect3898"
         inkscape:connector-curvature="0" />
      <path
         style="opacity:0.12999998;color:#bebebe;fill:#ffffff;fill-opacity:1;fill-rule:nonzero;stroke:none;stroke-width:0;marker:none;visibility:visible;display:inline;overflow:visible;enable-background:accumulate"
         d="m 424,54 c -3.3413,0 -6,2.658703 -6,6 l 0,1 c 0,-3.341297 2.6587,-6 6,-6 l 16,0 c 3.3413,0 6,2.658703 6,6 l 0,-1 c 0,-3.341297 -2.6587,-6 -6,-6 l -16,0 z"
         id="rect3900"
         inkscape:connector-curvature="0" />
      <path
         style="opacity:0.12999998;color:#bebebe;fill:#ffffff;fill-opacity:1;fill-rule:nonzero;stroke:none;stroke-width:0;marker:none;visibility:visible;display:inline;overflow:visible;enable-background:accumulate"
         d="m 300,224 c -4.4493,0 -8,3.5507 -8,8 l 0,1 c 0,-4.4493 3.5507,-8 8,-8 l 24,0 c 4.4493,0 8,3.5507 8,8 l 0,-1 c 0,-4.4493 -3.5507,-8 -8,-8 l -24,0 z"
         id="rect3902"
         inkscape:connector-curvature="0" />
      <path
         style="opacity:0.12999998;color:#bebebe;fill:#ffffff;fill-opacity:1;fill-rule:nonzero;stroke:none;stroke-width:0;marker:none;visibility:visible;display:inline;overflow:visible;enable-background:accumulate"
         d="m 310,33 c -9.4353,0 -17,7.564703 -17,17 l 0,1 c 0,-9.435297 7.5647,-17 17,-17 l 52,0 c 9.4353,0 17,7.564703 17,17 l 0,-1 c 0,-9.435297 -7.5647,-17 -17,-17 l -52,0 z"
         id="rect3904"
         inkscape:connector-curvature="0" />
      <path
         style="opacity:0.12999998;color:#bebebe;fill:#ffffff;fill-opacity:1;fill-rule:nonzero;stroke:none;stroke-width:0;marker:none;visibility:visible;display:inline;overflow:visible;enable-background:accumulate"
         d="m 302.5,143 c -6.3883,0 -11.5,5.1117 -11.5,11.5 l 0,1 c 0,-6.3883 5.1117,-11.5 11.5,-11.5 l 35,0 c 6.3883,0 11.5,5.1117 11.5,11.5 l 0,-1 c 0,-6.3883 -5.1117,-11.5 -11.5,-11.5 l -35,0 z"
         id="rect3906"
         inkscape:connector-curvature="0" />
      <path
         id="path4085"
         d="m 204,266 c 27.1633,0 49,-21.8367 49,-49 l 0,-1 c 0,27.1633 -21.8367,49 -49,49 L 84,265 C 56.8367,265 35,243.1633 35,216 l 0,1 c 0,27.1633 21.8367,49 49,49 l 120,0 z"
         style="opacity:0.41000001;color:#bebebe;fill:#000000;fill-opacity:1;fill-rule:nonzero;stroke:none;stroke-width:0;marker:none;visibility:visible;display:inline;overflow:visible;enable-background:accumulate"
         inkscape:connector-curvature="0" />
      <path
         id="path4087"
         d="m 429,156 c 1.1253,0 2,-0.8747 2,-2 l 0,-1 c 0,1.1253 -0.8747,2 -2,2 l -10,0 c -1.1253,0 -2,-0.8747 -2,-2 l 0,1 c 0,1.1253 0.8747,2 2,2 l 10,0 z"
         style="opacity:0.3;color:#bebebe;fill:#000000;fill-opacity:1;fill-rule:nonzero;stroke:none;stroke-width:0;marker:none;visibility:visible;display:inline;overflow:visible;enable-background:accumulate"
         inkscape:connector-curvature="0" />
      <path
         id="path4089"
         d="m 434,123 c 2.2333,0 4,-1.7667 4,-4 l 0,-1 c 0,2.2333 -1.7667,4 -4,4 l -12,0 c -2.2333,0 -4,-1.7667 -4,-4 l 0,1 c 0,2.2333 1.7667,4 4,4 l 12,0 z"
         style="opacity:0.3;color:#bebebe;fill:#000000;fill-opacity:1;fill-rule:nonzero;stroke:none;stroke-width:0;marker:none;visibility:visible;display:inline;overflow:visible;enable-background:accumulate"
         inkscape:connector-curvature="0" />
      <path
         id="path4091"
         d="m 440,83 c 3.3413,0 6,-2.6587 6,-6 l 0,-1 c 0,3.3413 -2.6587,6 -6,6 l -16,0 c -3.3413,0 -6,-2.6587 -6,-6 l 0,1 c 0,3.3413 2.6587,6 6,6 l 16,0 z"
         style="opacity:0.41000001;color:#bebebe;fill:#000000;fill-opacity:1;fill-rule:nonzero;stroke:none;stroke-width:0;marker:none;visibility:visible;display:inline;overflow:visible;enable-background:accumulate"
         inkscape:connector-curvature="0" />
      <path
         id="path4093"
         d="m 324,265 c 4.4493,0 8,-3.5507 8,-8 l 0,-1 c 0,4.4493 -3.5507,8 -8,8 l -24,0 c -4.4493,0 -8,-3.5507 -8,-8 l 0,1 c 0,4.4493 3.5507,8 8,8 l 24,0 z"
         style="opacity:0.41000001;color:#bebebe;fill:#000000;fill-opacity:1;fill-rule:nonzero;stroke:none;stroke-width:0;marker:none;visibility:visible;display:inline;overflow:visible;enable-background:accumulate"
         inkscape:connector-curvature="0" />
      <path
         id="path4095"
         d="m 362,120 c 9.4353,0 17,-7.5647 17,-17 l 0,-1 c 0,9.4353 -7.5647,17 -17,17 l -52,0 c -9.4353,0 -17,-7.5647 -17,-17 l 0,1 c 0,9.4353 7.5647,17 17,17 l 52,0 z"
         style="opacity:0.41000001;color:#bebebe;fill:#000000;fill-opacity:1;fill-rule:nonzero;stroke:none;stroke-width:0;marker:none;visibility:visible;display:inline;overflow:visible;enable-background:accumulate"
         inkscape:connector-curvature="0" />
      <path
         id="path4097"
         d="m 337.5,202 c 6.3883,0 11.5,-5.1117 11.5,-11.5 l 0,-1 c 0,6.3883 -5.1117,11.5 -11.5,11.5 l -35,0 c -6.3883,0 -11.5,-5.1117 -11.5,-11.5 l 0,1 c 0,6.3883 5.1117,11.5 11.5,11.5 l 35,0 z"
         style="opacity:0.41000001;color:#bebebe;fill:#000000;fill-opacity:1;fill-rule:nonzero;stroke:none;stroke-width:0;marker:none;visibility:visible;display:inline;overflow:visible;enable-background:accumulate"
         inkscape:connector-curvature="0" />
      <path
         inkscape:connector-curvature="0"
         id="path4280"
         d="M 84,265 C 56.836703,265 35,243.1633 35,216 l 0,-1 c 0,27.1633 21.836703,49 49,49 l 120,0 c 27.1633,0 49,-21.8367 49,-49 l 0,1 c 0,27.1633 -21.8367,49 -49,49 l -120,0 z"
         style="opacity:0.1;color:#bebebe;fill:#ffffff;fill-opacity:1;fill-rule:nonzero;stroke:none;stroke-width:0;marker:none;visibility:visible;display:inline;overflow:visible;enable-background:accumulate" />
      <path
         style="opacity:0.1;color:#bebebe;fill:#ffffff;fill-opacity:1;fill-rule:nonzero;stroke:none;stroke-width:0;marker:none;visibility:visible;display:inline;overflow:visible;enable-background:accumulate"
         d="m 300,264 c -4.4493,0 -8,-3.5507 -8,-8 l 0,-1 c 0,4.4493 3.5507,8 8,8 l 24,0 c 4.4493,0 8,-3.5507 8,-8 l 0,1 c 0,4.4493 -3.5507,8 -8,8 l -24,0 z"
         id="path4294"
         inkscape:connector-curvature="0" />
      <path
         style="opacity:0.1;color:#bebebe;fill:#ffffff;fill-opacity:1;fill-rule:nonzero;stroke:none;stroke-width:0;marker:none;visibility:visible;display:inline;overflow:visible;enable-background:accumulate"
         d="m 302.5,201 c -6.3883,0 -11.5,-5.1117 -11.5,-11.5 l 0,-1 c 0,6.3883 5.1117,11.5 11.5,11.5 l 35,0 c 6.3883,0 11.5,-5.1117 11.5,-11.5 l 0,1 c 0,6.3883 -5.1117,11.5 -11.5,11.5 l -35,0 z"
         id="path4296"
         inkscape:connector-curvature="0" />
      <path
         style="opacity:0.1;color:#bebebe;fill:#ffffff;fill-opacity:1;fill-rule:nonzero;stroke:none;stroke-width:0;marker:none;visibility:visible;display:inline;overflow:visible;enable-background:accumulate"
         d="m 310,119 c -9.4353,0 -17,-7.5647 -17,-17 l 0,-1 c 0,9.4353 7.5647,17 17,17 l 52,0 c 9.4353,0 17,-7.5647 17,-17 l 0,1 c 0,9.4353 -7.5647,17 -17,17 l -52,0 z"
         id="path4298"
         inkscape:connector-curvature="0" />
      <path
         style="opacity:0.1;color:#bebebe;fill:#ffffff;fill-opacity:1;fill-rule:nonzero;stroke:none;stroke-width:0;marker:none;visibility:visible;display:inline;overflow:visible;enable-background:accumulate"
         d="m 424,82 c -3.3413,0 -6,-2.658703 -6,-6 l 0,-1 c 0,3.341297 2.6587,6 6,6 l 16,0 c 3.3413,0 6,-2.658703 6,-6 l 0,1 c 0,3.341297 -2.6587,6 -6,6 l -16,0 z"
         id="path4300"
         inkscape:connector-curvature="0" />
      <path
         style="opacity:0.1;color:#bebebe;fill:#ffffff;fill-opacity:1;fill-rule:nonzero;stroke:none;stroke-width:0;marker:none;visibility:visible;display:inline;overflow:visible;enable-background:accumulate"
         d="m 422,122 c -2.2333,0 -4,-1.7667 -4,-4 l 0,-1 c 0,2.2333 1.7667,4 4,4 l 12,0 c 2.2333,0 4,-1.7667 4,-4 l 0,1 c 0,2.2333 -1.7667,4 -4,4 l -12,0 z"
         id="path4302"
         inkscape:connector-curvature="0" />
      <path
         style="opacity:0.1;color:#bebebe;fill:#ffffff;fill-opacity:1;fill-rule:nonzero;stroke:none;stroke-width:0;marker:none;visibility:visible;display:inline;overflow:visible;enable-background:accumulate"
         d="m 419,154.5 c -1.1253,0 -2,-0.8747 -2,-2 l 0,-1 c 0,1.1253 0.8747,2 2,2 l 10,0 c 1.1253,0 2,-0.8747 2,-2 l 0,1 c 0,1.1253 -0.8747,2 -2,2 l -10,0 z"
         id="path4304"
         inkscape:connector-curvature="0" />
    </g>
    <g
       inkscape:groupmode="layer"
       id="layer3"
       inkscape:label="Border"
       style="display:inline"
       sodipodi:insensitive="true">
      <path
         style="opacity:0.41000001;color:#bebebe;fill:#000000;fill-opacity:1;fill-rule:nonzero;stroke:none;stroke-width:0;marker:none;visibility:visible;display:inline;overflow:visible;enable-background:accumulate"
         d="m 422,101 c -2.77,0 -5,2.23 -5,5 l 0,12 c 0,2.77 2.23,5 5,5 l 12,0 c 2.77,0 5,-2.23 5,-5 l 0,-12 c 0,-2.77 -2.23,-5 -5,-5 l -12,0 z m 0,1 12,0 c 2.2333,0 4,1.7667 4,4 l 0,12 c 0,2.2333 -1.7667,4 -4,4 l -12,0 c -2.2333,0 -4,-1.7667 -4,-4 l 0,-12 c 0,-2.2333 1.7667,-4 4,-4 z"
         id="rect4099"
         inkscape:connector-curvature="0" />
      <path
         style="opacity:0.41000001;color:#bebebe;fill:#000000;fill-opacity:1;fill-rule:nonzero;stroke:none;stroke-width:0;marker:none;visibility:visible;display:inline;overflow:visible;enable-background:accumulate"
         d="m 424,53 c -3.878,0 -7,3.122 -7,7 l 0,16 c 0,3.878 3.122,7 7,7 l 16,0 c 3.878,0 7,-3.122 7,-7 l 0,-16 c 0,-3.878 -3.122,-7 -7,-7 l -16,0 z m 0,1 16,0 c 3.3413,0 6,2.658703 6,6 l 0,16 c 0,3.341297 -2.6587,6 -6,6 l -16,0 c -3.3413,0 -6,-2.658703 -6,-6 l 0,-16 c 0,-3.341297 2.6587,-6 6,-6 z"
         id="rect4151"
         inkscape:connector-curvature="0" />
      <path
         style="opacity:0.41000001;color:#bebebe;fill:#000000;fill-opacity:1;fill-rule:nonzero;stroke:none;stroke-width:0;marker:none;visibility:visible;display:inline;overflow:visible;enable-background:accumulate"
         d="m 419,140 c -1.662,0 -3,1.338 -3,3 l 0,10 c 0,1.662 1.338,3 3,3 l 10,0 c 1.662,0 3,-1.338 3,-3 l 0,-10 c 0,-1.662 -1.338,-3 -3,-3 l -10,0 z m 0,1 10,0 c 1.1253,0 2,0.8747 2,2 l 0,10 c 0,1.1253 -0.8747,2 -2,2 l -10,0 c -1.1253,0 -2,-0.8747 -2,-2 l 0,-10 c 0,-1.1253 0.8747,-2 2,-2 z"
         id="rect4095"
         inkscape:connector-curvature="0" />
      <path
         style="opacity:0.41000001;color:#bebebe;fill:#000000;fill-opacity:1;fill-rule:nonzero;stroke:none;stroke-width:0;marker:none;visibility:visible;display:inline;overflow:visible;enable-background:accumulate"
         d="m 300,223 c -4.986,0 -9,4.014 -9,9 l 0,24 c 0,4.986 4.014,9 9,9 l 24,0 c 4.986,0 9,-4.014 9,-9 l 0,-24 c 0,-4.986 -4.014,-9 -9,-9 l -24,0 z m 0,1 24,0 c 4.4493,0 8,3.5507 8,8 l 0,24 c 0,4.4493 -3.5507,8 -8,8 l -24,0 c -4.4493,0 -8,-3.5507 -8,-8 l 0,-24 c 0,-4.4493 3.5507,-8 8,-8 z"
         id="rect4783"
         inkscape:connector-curvature="0" />
      <path
         style="opacity:0.41000001;color:#bebebe;fill:#000000;fill-opacity:1;fill-rule:nonzero;stroke:none;stroke-width:0;marker:none;visibility:visible;display:inline;overflow:visible;enable-background:accumulate"
         d="m 302.5,142 c -6.925,0 -12.5,5.575 -12.5,12.5 l 0,35 c 0,6.925 5.575,12.5 12.5,12.5 l 35,0 c 6.925,0 12.5,-5.575 12.5,-12.5 l 0,-35 c 0,-6.925 -5.575,-12.5 -12.5,-12.5 l -35,0 z m 0,1 35,0 c 6.3883,0 11.5,5.1117 11.5,11.5 l 0,35 c 0,6.3883 -5.1117,11.5 -11.5,11.5 l -35,0 c -6.3883,0 -11.5,-5.1117 -11.5,-11.5 l 0,-35 c 0,-6.3883 5.1117,-11.5 11.5,-11.5 z"
         id="rect4515"
         inkscape:connector-curvature="0" />
      <path
         style="opacity:0.41000001;color:#bebebe;fill:#000000;fill-opacity:1;fill-rule:nonzero;stroke:none;stroke-width:0;marker:none;visibility:visible;display:inline;overflow:visible;enable-background:accumulate"
         d="m 310,32 c -9.972,0 -18,8.028 -18,18 l 0,52 c 0,9.972 8.028,18 18,18 l 52,0 c 9.972,0 18,-8.028 18,-18 l 0,-52 c 0,-9.972 -8.028,-18 -18,-18 l -52,0 z m 0,1 52,0 c 9.4353,0 17,7.564703 17,17 l 0,52 c 0,9.4353 -7.5647,17 -17,17 l -52,0 c -9.4353,0 -17,-7.5647 -17,-17 l 0,-52 c 0,-9.435297 7.5647,-17 17,-17 z"
         id="rect4511"
         inkscape:connector-curvature="0" />
      <path
         style="opacity:0.41000001;color:#bebebe;fill:#000000;fill-opacity:1;fill-rule:nonzero;stroke:none;stroke-width:0;marker:none;visibility:visible;display:inline;overflow:visible;enable-background:accumulate"
         d="M 84,46 C 56.3,46 34,68.3 34,96 l 0,120 c 0,27.7 22.3,50 50,50 l 120,0 c 27.7,0 50,-22.3 50,-50 L 254,96 C 254,68.3 231.7,46 204,46 L 84,46 z m 0,1 120,0 c 27.1633,0 49,21.836703 49,49 l 0,120 c 0,27.1633 -21.8367,49 -49,49 L 84,265 C 56.836703,265 35,243.1633 35,216 L 35,96 C 35,68.836703 56.836703,47 84,47 z"
         id="rect4040"
         inkscape:connector-curvature="0" />
    </g>
  </g>
</svg>
