<?xml version="1.0" encoding="UTF-8" standalone="no"?>
<!-- Created with Inkscape (http://www.inkscape.org/) -->

<svg
   xmlns:dc="http://purl.org/dc/elements/1.1/"
   xmlns:cc="http://creativecommons.org/ns#"
   xmlns:rdf="http://www.w3.org/1999/02/22-rdf-syntax-ns#"
   xmlns:svg="http://www.w3.org/2000/svg"
   xmlns="http://www.w3.org/2000/svg"
   xmlns:xlink="http://www.w3.org/1999/xlink"
   xmlns:sodipodi="http://sodipodi.sourceforge.net/DTD/sodipodi-0.dtd"
   xmlns:inkscape="http://www.inkscape.org/namespaces/inkscape"
   inkscape:export-ydpi="90.000000"
   inkscape:export-xdpi="90.000000"
   width="5.3333335in"
   height="3.3333335in"
   id="svg11300"
   sodipodi:version="0.32"
   inkscape:version="0.92.4 5da689c313, 2019-01-14"
   sodipodi:docname="starcraft2.svg"
   inkscape:output_extension="org.inkscape.output.svg.inkscape"
   version="1.0"
   style="display:inline;enable-background:new"
   inkscape:export-filename="/home/sam/moka-next-template.png">
  <sodipodi:namedview
     stroke="#ef2929"
     fill="#f57900"
     id="base"
     pagecolor="#777777"
     bordercolor="#666666"
     borderopacity="0.25490196"
     inkscape:pageopacity="0"
     inkscape:pageshadow="2"
     inkscape:zoom="1"
     inkscape:cx="161.792"
     inkscape:cy="268.87156"
     inkscape:current-layer="layer7"
     showgrid="false"
     inkscape:grid-bbox="true"
     inkscape:document-units="px"
     inkscape:showpageshadow="false"
     inkscape:window-width="2494"
     inkscape:window-height="1369"
     inkscape:window-x="66"
     inkscape:window-y="34"
     width="400px"
     height="300px"
     inkscape:snap-nodes="true"
     inkscape:snap-bbox="true"
     gridtolerance="10000"
     inkscape:object-nodes="true"
     inkscape:snap-grids="true"
     showguides="true"
     inkscape:guide-bbox="true"
     inkscape:window-maximized="1"
     inkscape:bbox-nodes="true"
     inkscape:bbox-paths="true"
     inkscape:snap-bbox-edge-midpoints="true"
     inkscape:snap-bbox-midpoints="true"
     units="px"
     inkscape:snap-global="false">
    <inkscape:grid
       spacingy="1px"
       spacingx="1px"
       id="grid5883"
       type="xygrid"
       enabled="true"
       visible="true"
       empspacing="4"
       snapvisiblegridlinesonly="true"
       dotted="false"
       color="#000000"
       opacity="0.1254902"
       empcolor="#203ef3"
       empopacity="0.36470588" />
    <inkscape:grid
       type="xygrid"
       id="grid11592"
       empspacing="8"
       visible="true"
       enabled="false"
       spacingx="0.5px"
       spacingy="0.5px"
       color="#ff0000"
       opacity="0.1254902"
       empcolor="#ff0000"
       empopacity="0.25098039"
       snapvisiblegridlinesonly="true"
       dotted="true" />
  </sodipodi:namedview>
  <defs
     id="defs3">
    <linearGradient
       id="linearGradient946">
      <stop
         style="stop-color:#164e88;stop-opacity:1"
         offset="0"
         id="stop942" />
      <stop
         style="stop-color:#05162e;stop-opacity:1"
         offset="1"
         id="stop944" />
    </linearGradient>
    <linearGradient
       id="linearGradient4725">
      <stop
         id="stop4727"
         offset="0"
         style="stop-color:#164e88;stop-opacity:1" />
      <stop
         id="stop4729"
         offset="1"
         style="stop-color:#122740;stop-opacity:1;" />
    </linearGradient>
    <linearGradient
       inkscape:collect="always"
       xlink:href="#linearGradient946"
       id="linearGradient5106"
       x1="144"
       y1="47"
       x2="144"
       y2="265"
       gradientUnits="userSpaceOnUse" />
    <linearGradient
       inkscape:collect="always"
       xlink:href="#linearGradient4725"
       id="linearGradient5108"
       x1="312"
       y1="224"
       x2="312"
       y2="264.5"
       gradientUnits="userSpaceOnUse" />
    <linearGradient
       inkscape:collect="always"
       xlink:href="#linearGradient4725"
       id="linearGradient5110"
       x1="320"
       y1="143"
       x2="320"
       y2="201"
       gradientUnits="userSpaceOnUse" />
    <linearGradient
       inkscape:collect="always"
       xlink:href="#linearGradient4725"
       id="linearGradient5112"
       x1="336"
       y1="33"
       x2="336"
       y2="119.5"
       gradientUnits="userSpaceOnUse" />
    <linearGradient
       inkscape:collect="always"
       xlink:href="#linearGradient4725"
       id="linearGradient5114"
       x1="432"
       y1="53.5"
       x2="432"
       y2="82.5"
       gradientUnits="userSpaceOnUse" />
    <linearGradient
       inkscape:collect="always"
       xlink:href="#linearGradient4725"
       id="linearGradient5116"
       x1="428"
       y1="101.5"
       x2="428"
       y2="122.5"
       gradientUnits="userSpaceOnUse" />
    <linearGradient
       inkscape:collect="always"
       xlink:href="#linearGradient4725"
       id="linearGradient5118"
       x1="424"
       y1="140.5"
       x2="424"
       y2="155.5"
       gradientUnits="userSpaceOnUse" />
  </defs>
  <metadata
     id="metadata4">
    <rdf:RDF>
      <cc:Work
         rdf:about="">
        <dc:format>image/svg+xml</dc:format>
        <dc:type
           rdf:resource="http://purl.org/dc/dcmitype/StillImage" />
        <dc:creator>
          <cc:Agent>
            <dc:title>Alfredo Hernández</dc:title>
          </cc:Agent>
        </dc:creator>
        <dc:source />
        <cc:license
           rdf:resource="" />
        <dc:title />
        <dc:subject>
          <rdf:Bag />
        </dc:subject>
        <dc:date />
        <dc:rights>
          <cc:Agent>
            <dc:title />
          </cc:Agent>
        </dc:rights>
        <dc:publisher>
          <cc:Agent>
            <dc:title />
          </cc:Agent>
        </dc:publisher>
        <dc:identifier />
        <dc:relation />
        <dc:language />
        <dc:coverage />
        <dc:description />
        <dc:contributor>
          <cc:Agent>
            <dc:title />
          </cc:Agent>
        </dc:contributor>
      </cc:Work>
      <cc:Work
         rdf:about="">
        <dc:format>image/svg+xml</dc:format>
        <dc:type
           rdf:resource="http://purl.org/dc/dcmitype/StillImage" />
      </cc:Work>
    </rdf:RDF>
  </metadata>
  <g
     style="display:inline"
     inkscape:groupmode="layer"
     inkscape:label="Icon"
     id="layer1">
    <g
       style="display:none"
       inkscape:label="Baseplate"
       id="layer7"
       inkscape:groupmode="layer">
      <text
         y="19.745117"
         xml:space="preserve"
         x="15.006836"
         style="font-style:normal;font-variant:normal;font-weight:normal;font-stretch:normal;font-size:18px;font-family:'DejaVu Sans';-inkscape-font-specification:'DejaVu Sans';display:inline;fill:#000000;fill-opacity:1;stroke:none;enable-background:new"
         inkscape:label="context"
         id="context"><tspan
           style="font-style:normal;font-variant:normal;font-weight:normal;font-stretch:normal;font-family:'DejaVu Sans';-inkscape-font-specification:'DejaVu Sans'"
           y="19.745117"
           x="15.006836"
           sodipodi:role="line"
           id="tspan3933">apps</tspan></text>
      <text
         y="19.745117"
         xml:space="preserve"
         x="122.48828"
         style="font-style:normal;font-variant:normal;font-weight:bold;font-stretch:normal;font-size:18px;line-height:125%;font-family:'DejaVu Sans';-inkscape-font-specification:'DejaVu Sans Bold';text-align:start;writing-mode:lr-tb;text-anchor:start;display:inline;fill:#000000;fill-opacity:1;stroke:none;enable-background:new"
         inkscape:label="icon-name"
         id="icon-name"><tspan
           style="font-style:normal;font-variant:normal;font-weight:bold;font-stretch:normal;font-size:18px;font-family:'DejaVu Sans';-inkscape-font-specification:'DejaVu Sans Bold'"
           y="19.745117"
           x="122.48828"
           sodipodi:role="line"
           id="tspan3937">starcraft2</tspan></text>
      <rect
         style="display:inline;overflow:visible;visibility:visible;fill:#eeeeec;fill-opacity:1;fill-rule:nonzero;stroke:none;stroke-width:2;marker:none;enable-background:accumulate"
         id="rect16x16"
         width="16"
         height="16"
         x="416"
         y="140"
         inkscape:label="16x16" />
      <rect
         style="display:inline;overflow:visible;visibility:visible;fill:#d4d4d4;fill-opacity:1;fill-rule:nonzero;stroke:none;stroke-width:2;marker:none;enable-background:accumulate"
         id="rect24x24"
         width="24"
         height="24"
         x="416"
         y="100"
         inkscape:label="24x24" />
      <rect
         style="display:inline;overflow:visible;visibility:visible;fill:#eeeeec;fill-opacity:1;fill-rule:nonzero;stroke:none;stroke-width:2;marker:none;enable-background:accumulate"
         id="rect32x32"
         width="32"
         height="32"
         x="416"
         y="52"
         inkscape:label="32x32" />
      <rect
         inkscape:label="22x22"
         y="101"
         x="417"
         height="22"
         width="22"
         id="rect22x22"
         style="display:inline;overflow:visible;visibility:visible;fill:#eeeeec;fill-opacity:1;fill-rule:nonzero;stroke:none;stroke-width:2;marker:none;enable-background:accumulate" />
      <rect
         inkscape:label="48x48"
         y="220"
         x="288"
         height="48"
         width="48"
         id="rect48x48"
         style="display:inline;overflow:visible;visibility:visible;fill:#eeeeec;fill-opacity:1;fill-rule:nonzero;stroke:none;stroke-width:2;marker:none;enable-background:accumulate" />
      <rect
         style="display:inline;overflow:visible;visibility:visible;fill:#eeeeec;fill-opacity:1;fill-rule:nonzero;stroke:none;stroke-width:2;marker:none;enable-background:accumulate"
         id="rect256x256"
         width="256"
         height="256"
         x="16"
         y="28"
         inkscape:label="256x256" />
      <rect
         style="display:inline;overflow:visible;visibility:visible;fill:#eeeeec;fill-opacity:1;fill-rule:nonzero;stroke:none;stroke-width:2;marker:none;enable-background:accumulate"
         id="rect64x64"
         width="64"
         height="64"
         x="288"
         y="140"
         inkscape:label="64x64" />
      <rect
         style="display:inline;overflow:visible;visibility:visible;fill:#eeeeec;fill-opacity:1;fill-rule:nonzero;stroke:none;stroke-width:2;marker:none;enable-background:accumulate"
         id="rect96x96"
         width="96"
         height="96"
         x="288"
         y="28"
         inkscape:label="96x96" />
    </g>
    <g
       inkscape:groupmode="layer"
       id="layer4"
       inkscape:label="Shadow"
       style="display:inline"
       sodipodi:insensitive="true">
      <rect
         ry="50"
         y="47"
         x="34"
         height="220"
         width="220"
         id="rect4114"
         style="opacity:0.1;color:#bebebe;fill:#000000;fill-opacity:1;fill-rule:nonzero;stroke:none;stroke-width:0;marker:none;visibility:visible;display:inline;overflow:visible;enable-background:accumulate" />
      <rect
         style="opacity:0.1;color:#bebebe;fill:#000000;fill-opacity:1;fill-rule:nonzero;stroke:none;stroke-width:0;marker:none;visibility:visible;display:inline;overflow:visible;enable-background:accumulate"
         id="rect4120"
         width="30"
         height="30"
         x="417"
         y="54"
         ry="7" />
      <rect
         transform="scale(1,-1)"
         ry="9"
         y="-266"
         x="291"
         height="42"
         width="42"
         id="rect4122"
         style="opacity:0.1;color:#bebebe;fill:#000000;fill-opacity:1;fill-rule:nonzero;stroke:none;stroke-width:0;marker:none;visibility:visible;display:inline;overflow:visible;enable-background:accumulate" />
      <rect
         style="opacity:0.1;color:#bebebe;fill:#000000;fill-opacity:1;fill-rule:nonzero;stroke:none;stroke-width:0;marker:none;visibility:visible;display:inline;overflow:visible;enable-background:accumulate"
         id="rect4124"
         width="88"
         height="88"
         x="292"
         y="33"
         ry="18" />
      <rect
         ry="12.5"
         y="143"
         x="290"
         height="60"
         width="60"
         id="rect4126"
         style="opacity:0.1;color:#bebebe;fill:#000000;fill-opacity:1;fill-rule:nonzero;stroke:none;stroke-width:0;marker:none;visibility:visible;display:inline;overflow:visible;enable-background:accumulate" />
      <path
         id="path4268"
         d="m 422,101 c -2.77,0 -5,2.23 -5,5 l 0,12 c 0,2.77 2.23,5 5,5 l 12,0 c 2.77,0 5,-2.23 5,-5 l 0,-12 c 0,-2.77 -2.23,-5 -5,-5 z"
         style="opacity:0.1;color:#bebebe;fill:#000000;fill-opacity:1;fill-rule:nonzero;stroke:none;stroke-width:0;marker:none;visibility:visible;display:inline;overflow:visible;enable-background:accumulate"
         inkscape:connector-curvature="0"
         sodipodi:nodetypes="sssssssss" />
      <path
         id="path4270"
         d="m 419,140 c -1.662,0 -3,1.338 -3,3 l 0,10 c 0,1.662 1.338,3 3,3 l 10,0 c 1.662,0 3,-1.338 3,-3 l 0,-10 c 0,-1.662 -1.338,-3 -3,-3 z"
         style="opacity:0.1;color:#bebebe;fill:#000000;fill-opacity:1;fill-rule:nonzero;stroke:none;stroke-width:0;marker:none;visibility:visible;display:inline;overflow:visible;enable-background:accumulate"
         inkscape:connector-curvature="0"
         sodipodi:nodetypes="sssssssss" />
    </g>
    <g
       inkscape:groupmode="layer"
       id="layer2"
       inkscape:label="Background"
       style="display:inline">
      <path
         style="color:#bebebe;fill:url(#linearGradient5106);fill-opacity:1.0;fill-rule:nonzero;stroke:none;stroke-width:2;marker:none;visibility:visible;display:inline;overflow:visible;enable-background:accumulate"
         d="M 84,46.5 C 56.568735,46.5 34.5,68.568732 34.5,96 l 0,120 c 0,27.43127 22.068735,49.5 49.5,49.5 l 120,0 c 27.43127,0 49.5,-22.06873 49.5,-49.5 l 0,-120 C 253.5,68.568732 231.43127,46.5 204,46.5 l -120,0 z"
         id="path4200"
         inkscape:connector-curvature="0" />
      <path
         style="color:#bebebe;fill:url(#linearGradient5118);fill-opacity:1;fill-rule:nonzero;stroke:none;stroke-width:2;marker:none;visibility:visible;display:inline;overflow:visible;enable-background:accumulate"
         d="m 419,140.5 c -1.3844,0 -2.5,1.1156 -2.5,2.5 l 0,10 c 0,1.3844 1.1156,2.5 2.5,2.5 l 10,0 c 1.3844,0 2.5,-1.1156 2.5,-2.5 l 0,-10 c 0,-1.3844 -1.1156,-2.5 -2.5,-2.5 l -10,0 z"
         id="path4202"
         inkscape:connector-curvature="0" />
      <path
         style="color:#bebebe;fill:url(#linearGradient5116);fill-opacity:1;fill-rule:nonzero;stroke:none;stroke-width:2;marker:none;visibility:visible;display:inline;overflow:visible;enable-background:accumulate"
         d="m 422,101.5 c -2.49699,0 -4.5,2.00301 -4.5,4.5 l 0,12 c 0,2.49699 2.00301,4.5 4.5,4.5 l 12,0 c 2.49699,0 4.5,-2.00301 4.5,-4.5 l 0,-12 c 0,-2.49699 -2.00301,-4.5 -4.5,-4.5 l -12,0 z"
         id="path4204"
         inkscape:connector-curvature="0" />
      <path
         style="color:#bebebe;fill:url(#linearGradient5114);fill-opacity:1;fill-rule:nonzero;stroke:none;stroke-width:2;marker:none;visibility:visible;display:inline;overflow:visible;enable-background:accumulate"
         d="m 424,53.5 c -3.60654,0 -6.5,2.893464 -6.5,6.5 l 0,16 c 0,3.606536 2.89346,6.5 6.5,6.5 l 16,0 c 3.60654,0 6.5,-2.893464 6.5,-6.5 l 0,-16 c 0,-3.606536 -2.89346,-6.5 -6.5,-6.5 l -16,0 z"
         id="path4206"
         inkscape:connector-curvature="0" />
      <path
         style="color:#bebebe;fill:url(#linearGradient5108);fill-opacity:1.0;fill-rule:nonzero;stroke:none;stroke-width:2;marker:none;visibility:visible;display:inline;overflow:visible;enable-background:accumulate"
         d="m 300,223.5 c -4.71531,0 -8.5,3.78469 -8.5,8.5 l 0,24 c 0,4.71531 3.78469,8.5 8.5,8.5 l 24,0 c 4.71531,0 8.5,-3.78469 8.5,-8.5 l 0,-24 c 0,-4.71531 -3.78469,-8.5 -8.5,-8.5 l -24,0 z"
         id="path4208"
         inkscape:connector-curvature="0" />
      <path
         style="color:#bebebe;fill:url(#linearGradient5112);fill-opacity:1;fill-rule:nonzero;stroke:none;stroke-width:2;marker:none;visibility:visible;display:inline;overflow:visible;enable-background:accumulate"
         d="m 310,32.5 c -9.70255,0 -17.5,7.797452 -17.5,17.5 l 0,52 c 0,9.70255 7.79745,17.5 17.5,17.5 l 52,0 c 9.70255,0 17.5,-7.79745 17.5,-17.5 l 0,-52 c 0,-9.702548 -7.79745,-17.5 -17.5,-17.5 l -52,0 z"
         id="path4210"
         inkscape:connector-curvature="0" />
      <path
         style="color:#bebebe;fill:url(#linearGradient5110);fill-opacity:1.0;fill-rule:nonzero;stroke:none;stroke-width:2;marker:none;visibility:visible;display:inline;overflow:visible;enable-background:accumulate"
         d="m 302.5,142.5 c -6.65502,0 -12,5.34498 -12,12 l 0,35 c 0,6.65502 5.34498,12 12,12 l 35,0 c 6.65502,0 12,-5.34498 12,-12 l 0,-35 c 0,-6.65502 -5.34498,-12 -12,-12 l -35,0 z"
         id="path4212"
         inkscape:connector-curvature="0" />
    </g>
    <g
       inkscape:groupmode="layer"
       id="layer6"
       inkscape:label="Symbols"
       style="display:inline">
      <path
         sodipodi:nodetypes="scsscscscssscsccccccssscssc"
         style="fill:#010406;fill-opacity:1;stroke-width:0.66798478;opacity:0.5"
         d="M 136.65321,161.21202 V 89.42401 l -8.51681,-2.650129 c -15.33135,-4.770595 -12.40312,-4.687611 -26.29742,-0.745255 -6.75328,1.916166 -12.52339,3.634796 -12.822472,3.819156 -0.299078,0.184374 1.804739,1.883691 4.675134,3.776278 6.262178,4.128926 10.127438,7.84582 11.914178,11.45686 1.27367,2.57413 1.3343,4.5602 1.65606,54.25101 l 0.33399,51.57904 3.67392,3.74868 c 6.06205,6.18544 22.53234,18.34037 24.85172,18.34037 0.29244,0 0.5317,-32.3046 0.5317,-71.788 z m 20.55439,68.8315 c 6.25526,-3.85663 14.91249,-10.6778 19.5247,-15.38382 l 3.67391,-3.74864 0.33401,-51.57909 0.33399,-51.57909 1.56168,-3.17115 c 1.76161,-3.57707 4.8949,-6.496303 12.00416,-11.18406 2.68513,-1.770539 4.63899,-3.362858 4.34191,-3.538504 -0.29709,-0.175647 -6.07504,-1.890423 -12.83988,-3.810617 -11.35908,-3.224258 -12.50851,-3.430732 -15.02966,-2.699788 -1.50147,0.43531 -6.56249,1.984087 -11.24673,3.441718 l -8.51681,2.650262 v 71.779649 c 0,39.47878 0.23926,71.77963 0.5317,71.77963 0.29245,0 2.68959,-1.33043 5.32702,-2.9565 z"
         id="path1063"
         inkscape:connector-curvature="0" />
      <path
         sodipodi:nodetypes="scsscscscssscsccccccssscssc"
         style="display:inline;fill:#010406;fill-opacity:1;stroke-width:0.2939133;enable-background:new;opacity:0.5"
         d="M 332.76741,78.413295 V 46.826573 l -3.7474,-1.166057 c -6.7458,-2.099062 -5.45737,-2.062549 -11.57087,-0.327912 -2.97144,0.843113 -5.51029,1.59931 -5.64188,1.680429 -0.1316,0.08112 0.79408,0.828824 2.05705,1.661562 2.75536,1.816727 4.45608,3.452158 5.24224,5.041016 0.56042,1.132617 0.5871,2.006488 0.72867,23.870445 l 0.14696,22.694784 1.61652,1.64942 c 2.6673,2.72159 9.91423,8.06976 10.93476,8.06976 0.12867,0 0.23395,-14.214029 0.23395,-31.586725 z m 9.04393,30.285865 c 2.75231,-1.69692 6.56149,-4.69823 8.59086,-6.76888 l 1.61653,-1.6494 0.14696,-22.694807 0.14696,-22.6948 0.68713,-1.395306 c 0.77511,-1.57391 2.15376,-2.858371 5.28183,-4.920984 1.18146,-0.779037 2.04116,-1.479657 1.91045,-1.556942 -0.13072,-0.07728 -2.67302,-0.831786 -5.64955,-1.676671 -4.998,-1.418674 -5.50375,-1.509522 -6.61305,-1.187907 -0.66065,0.191537 -2.8875,0.872999 -4.94856,1.514356 l -3.7474,1.166115 v 31.583044 c 0,17.370663 0.10527,31.583042 0.23395,31.583042 0.12868,0 1.18342,-0.58539 2.34389,-1.30086 z"
         id="path1065"
         inkscape:connector-curvature="0" />
      <path
         sodipodi:nodetypes="scsscscscssscsccccccssscssc"
         style="display:inline;fill:#010406;fill-opacity:1;stroke-width:0.19594219;enable-background:new;opacity:0.5"
         d="m 317.84491,173.9422 v -21.05781 l -2.49827,-0.77737 c -4.4972,-1.39938 -3.63825,-1.37503 -7.71391,-0.21861 -1.98096,0.56208 -3.67353,1.06621 -3.76125,1.12029 -0.0877,0.0541 0.52938,0.55255 1.37136,1.1077 1.83691,1.21116 2.97072,2.30144 3.49483,3.36068 0.37361,0.75508 0.3914,1.33766 0.48578,15.91363 l 0.098,15.12986 1.07768,1.09961 c 1.7782,1.81439 6.60949,5.37984 7.28984,5.37984 0.0858,0 0.15597,-9.47602 0.15597,-21.05782 z m 6.02928,20.19058 c 1.83488,-1.13128 4.37433,-3.13215 5.72724,-4.51259 l 1.07769,-1.0996 0.098,-15.12987 0.098,-15.12986 0.45808,-0.9302 c 0.51674,-1.04928 1.43584,-1.90558 3.52122,-3.28066 0.78764,-0.51936 1.36078,-0.98644 1.27364,-1.03796 -0.0872,-0.0515 -1.78202,-0.55453 -3.76637,-1.11778 -3.332,-0.94578 -3.66917,-1.00635 -4.4087,-0.79194 -0.44043,0.12769 -1.925,0.582 -3.29904,1.00957 l -2.49827,0.77741 v 21.05536 c 0,11.58044 0.0702,21.05536 0.15597,21.05536 0.0858,0 0.78895,-0.39026 1.56259,-0.86724 z"
         id="path1067"
         inkscape:connector-curvature="0" />
      <path
         sodipodi:nodetypes="scsscscscssscsccccccssscssc"
         style="display:inline;fill:#010406;fill-opacity:1;stroke-width:0.13359694;enable-background:new;opacity:0.5"
         d="m 310.53064,245.64242 v -14.3576 l -1.70336,-0.53003 c -3.06627,-0.95412 -2.48062,-0.93752 -5.25949,-0.14905 -1.35065,0.38324 -2.50468,0.72696 -2.56449,0.76383 -0.0598,0.0369 0.36095,0.37674 0.93502,0.75526 1.25244,0.82578 2.02549,1.56916 2.38284,2.29137 0.25474,0.51483 0.26686,0.91204 0.33121,10.8502 l 0.0668,10.31581 0.73479,0.74974 c 1.2124,1.23708 4.50646,3.66807 4.97034,3.66807 0.0585,0 0.10634,-6.46092 0.10634,-14.3576 z m 4.11088,13.7663 c 1.25105,-0.77133 2.98249,-2.13556 3.90493,-3.07676 l 0.73479,-0.74973 0.0668,-10.31582 0.0668,-10.31582 0.31233,-0.63423 c 0.35233,-0.71541 0.97898,-1.29926 2.40083,-2.23681 0.53703,-0.35411 0.9278,-0.67257 0.86839,-0.7077 -0.0594,-0.0351 -1.21501,-0.37809 -2.56798,-0.76212 -2.27181,-0.64485 -2.5017,-0.68615 -3.00593,-0.53996 -0.30029,0.0871 -1.3125,0.39682 -2.24934,0.68834 l -1.70337,0.53005 v 14.35593 c 0,7.89576 0.0478,14.35593 0.10634,14.35593 0.0585,0 0.53792,-0.26609 1.06541,-0.5913 z"
         id="path1069"
         inkscape:connector-curvature="0" />
      <path
         sodipodi:nodetypes="scsscscscssscsccccccssscssc"
         style="display:inline;fill:#010406;fill-opacity:1;stroke-width:0.0979711;enable-background:new;opacity:0.5"
         d="M 430.92247,69.471108 V 58.942201 l -1.24913,-0.388689 c -2.2486,-0.699688 -1.81913,-0.687514 -3.85696,-0.109303 -0.99048,0.281043 -1.83677,0.533104 -1.88063,0.560142 -0.0439,0.02706 0.2647,0.276276 0.68568,0.553857 0.91846,0.605572 1.48536,1.150718 1.74742,1.680338 0.18681,0.377542 0.19569,0.66883 0.24288,7.956814 l 0.049,7.564928 0.53885,0.549809 c 0.88909,0.907192 3.30473,2.689918 3.64491,2.689918 0.0429,0 0.078,-4.738008 0.078,-10.528907 z m 3.01464,10.095287 c 0.91744,-0.565642 2.18716,-1.566077 2.86362,-2.256291 l 0.53884,-0.549802 0.049,-7.564935 0.049,-7.564935 0.22904,-0.465102 c 0.25837,-0.524634 0.71792,-0.95279 1.76061,-1.640327 0.39382,-0.259681 0.68038,-0.493218 0.63682,-0.51898 -0.0436,-0.02574 -0.89101,-0.277266 -1.88319,-0.558888 -1.66599,-0.47289 -1.83458,-0.503177 -2.20435,-0.395971 -0.22021,0.06387 -0.9625,0.291002 -1.64951,0.504783 l -1.24914,0.388703 v 10.527683 c 0,5.790224 0.0351,10.527682 0.078,10.527682 0.0429,0 0.39448,-0.195133 0.7813,-0.43362 z"
         id="path1071"
         inkscape:connector-curvature="0" />
      <path
         sodipodi:nodetypes="scsscscscssscsccccccssscssc"
         style="display:inline;fill:#010406;fill-opacity:1;stroke-width:0.06234525;enable-background:new;opacity:0.5"
         d="m 427.31427,113.29981 v -6.70022 l -0.7949,-0.24734 c -1.43093,-0.44526 -1.15762,-0.43751 -2.45443,-0.0696 -0.6303,0.17884 -1.16885,0.33925 -1.19676,0.35645 -0.0279,0.0172 0.16844,0.17581 0.43634,0.35246 0.58447,0.38536 0.94523,0.73227 1.11199,1.0693 0.11888,0.24026 0.12454,0.42562 0.15457,5.06343 l 0.0312,4.81404 0.3429,0.34988 c 0.56579,0.57731 2.10302,1.71177 2.3195,1.71177 0.0273,0 0.0496,-3.0151 0.0496,-6.70021 z m 1.91841,6.42427 c 0.58383,-0.35995 1.39183,-0.99659 1.8223,-1.43582 l 0.34291,-0.34988 0.0312,-4.81405 0.0312,-4.81404 0.14576,-0.29598 c 0.16442,-0.33386 0.45685,-0.60632 1.12038,-1.04384 0.25062,-0.16525 0.43298,-0.31387 0.40525,-0.33026 -0.0277,-0.0164 -0.567,-0.17645 -1.19839,-0.35566 -1.06018,-0.30093 -1.16746,-0.3202 -1.40276,-0.25198 -0.14014,0.0406 -0.6125,0.18518 -1.0497,0.32122 l -0.7949,0.24736 v 6.69943 c 0,3.68469 0.0223,6.69944 0.0496,6.69944 0.0273,0 0.25103,-0.12418 0.49719,-0.27594 z"
         id="path1073"
         inkscape:connector-curvature="0" />
      <path
         sodipodi:nodetypes="scsscscscssscsccccccssscssc"
         style="display:inline;fill:#010406;fill-opacity:1;stroke-width:0.05343878;enable-background:new;opacity:0.5"
         d="m 423.41228,149.25697 v -5.74304 l -0.68135,-0.21201 c -1.2265,-0.38165 -0.99224,-0.37501 -2.10379,-0.0596 -0.54026,0.15329 -1.00187,0.29078 -1.0258,0.30553 -0.0239,0.0148 0.14438,0.1507 0.37401,0.3021 0.50098,0.33032 0.8102,0.62767 0.95314,0.91655 0.10189,0.20593 0.10674,0.36482 0.13248,4.34008 l 0.0267,4.12633 0.29392,0.29989 c 0.48496,0.49483 1.80258,1.46723 1.98813,1.46723 0.0234,0 0.0425,-2.58437 0.0425,-5.74304 z m 1.64435,5.50652 c 0.50042,-0.30853 1.193,-0.85422 1.56197,-1.2307 l 0.29392,-0.2999 0.0267,-4.12632 0.0267,-4.12633 0.12493,-0.25369 c 0.14093,-0.28617 0.39159,-0.51971 0.96033,-0.89473 0.21481,-0.14164 0.37112,-0.26903 0.34736,-0.28308 -0.0238,-0.014 -0.48601,-0.15123 -1.02719,-0.30485 -0.90873,-0.25794 -1.00068,-0.27446 -1.20238,-0.21598 -0.12011,0.0348 -0.525,0.15873 -0.89973,0.27534 l -0.68135,0.21202 v 5.74237 c 0,3.1583 0.0191,5.74237 0.0425,5.74237 0.0234,0 0.21516,-0.10644 0.42616,-0.23652 z"
         id="path1075"
         inkscape:connector-curvature="0" />
      <path
         inkscape:connector-curvature="0"
         id="path916"
         d="M 136.65321,160.212 V 88.423995 l -8.51681,-2.650129 c -15.33135,-4.770595 -12.40312,-4.687611 -26.29742,-0.745255 -6.75328,1.916166 -12.52339,3.634796 -12.822472,3.819156 -0.299078,0.184374 1.804739,1.883691 4.675134,3.776278 6.262178,4.128926 10.127438,7.845815 11.914178,11.456855 1.27367,2.57413 1.3343,4.5602 1.65606,54.25101 l 0.33399,51.57904 3.67392,3.74868 C 117.33184,219.84507 133.80213,232 136.12151,232 c 0.29244,0 0.5317,-32.3046 0.5317,-71.788 z m 20.55439,68.8315 c 6.25526,-3.85663 14.91249,-10.6778 19.5247,-15.38382 l 3.67391,-3.74864 0.33401,-51.57909 0.33399,-51.57909 1.56168,-3.17115 c 1.76161,-3.57707 4.8949,-6.496298 12.00416,-11.184055 2.68513,-1.770539 4.63899,-3.362858 4.34191,-3.538504 -0.29709,-0.175647 -6.07504,-1.890423 -12.83988,-3.810617 -11.35908,-3.224258 -12.50851,-3.430732 -15.02966,-2.699788 -1.50147,0.43531 -6.56249,1.984087 -11.24673,3.441718 l -8.51681,2.650262 v 71.779644 c 0,39.47878 0.23926,71.77963 0.5317,71.77963 0.29245,0 2.68959,-1.33043 5.32702,-2.9565 z"
         style="fill:#7ba8c4;fill-opacity:1;stroke-width:0.66798478"
         sodipodi:nodetypes="scsscscscssscsccccccssscssc" />
      <path
         inkscape:connector-curvature="0"
         id="path916-3"
         d="M 332.76741,77.41328 V 45.826558 l -3.7474,-1.166057 c -6.7458,-2.099062 -5.45737,-2.062549 -11.57087,-0.327912 -2.97144,0.843113 -5.51029,1.59931 -5.64188,1.680429 -0.1316,0.08112 0.79408,0.828824 2.05705,1.661562 2.75536,1.816727 4.45608,3.452158 5.24224,5.041016 0.56042,1.132617 0.5871,2.006488 0.72867,23.870445 l 0.14696,22.69478 1.61652,1.649419 c 2.6673,2.72159 9.91423,8.06976 10.93476,8.06976 0.12867,0 0.23395,-14.214024 0.23395,-31.58672 z m 9.04393,30.28586 c 2.75231,-1.69692 6.56149,-4.69823 8.59086,-6.76888 l 1.61653,-1.649399 0.14696,-22.694803 0.14696,-22.6948 0.68713,-1.395306 c 0.77511,-1.57391 2.15376,-2.858371 5.28183,-4.920984 1.18146,-0.779037 2.04116,-1.479657 1.91045,-1.556942 -0.13072,-0.07728 -2.67302,-0.831786 -5.64955,-1.676671 -4.998,-1.418674 -5.50375,-1.509522 -6.61305,-1.187907 -0.66065,0.191537 -2.8875,0.872999 -4.94856,1.514356 l -3.7474,1.166115 v 31.583044 c 0,17.370663 0.10527,31.583037 0.23395,31.583037 0.12868,0 1.18342,-0.58539 2.34389,-1.30086 z"
         style="display:inline;fill:#7ba8c4;fill-opacity:1;stroke-width:0.2939133;enable-background:new"
         sodipodi:nodetypes="scsscscscssscsccccccssscssc" />
      <path
         inkscape:connector-curvature="0"
         id="path916-3-6"
         d="m 317.84491,172.94218 v -21.05781 l -2.49827,-0.77737 c -4.4972,-1.39938 -3.63825,-1.37503 -7.71391,-0.21861 -1.98096,0.56208 -3.67353,1.06621 -3.76125,1.12029 -0.0877,0.0541 0.52938,0.55255 1.37136,1.1077 1.83691,1.21116 2.97072,2.30144 3.49483,3.36068 0.37361,0.75508 0.3914,1.33766 0.48578,15.91363 l 0.098,15.12986 1.07768,1.09961 c 1.7782,1.81439 6.60949,5.37984 7.28984,5.37984 0.0858,0 0.15597,-9.47602 0.15597,-21.05782 z m 6.02928,20.19058 c 1.83488,-1.13128 4.37433,-3.13215 5.72724,-4.51259 l 1.07769,-1.0996 0.098,-15.12987 0.098,-15.12986 0.45808,-0.9302 c 0.51674,-1.04928 1.43584,-1.90558 3.52122,-3.28066 0.78764,-0.51936 1.36078,-0.98644 1.27364,-1.03796 -0.0872,-0.0515 -1.78202,-0.55453 -3.76637,-1.11778 -3.332,-0.94578 -3.66917,-1.00635 -4.4087,-0.79194 -0.44043,0.12769 -1.925,0.582 -3.29904,1.00957 l -2.49827,0.77741 v 21.05536 c 0,11.58044 0.0702,21.05536 0.15597,21.05536 0.0858,0 0.78895,-0.39026 1.56259,-0.86724 z"
         style="display:inline;fill:#7ba8c4;fill-opacity:1;stroke-width:0.19594219;enable-background:new"
         sodipodi:nodetypes="scsscscscssscsccccccssscssc" />
      <path
         inkscape:connector-curvature="0"
         id="path916-3-7"
         d="m 310.53064,244.6424 v -14.3576 l -1.70336,-0.53003 c -3.06627,-0.95412 -2.48062,-0.93752 -5.25949,-0.14905 -1.35065,0.38324 -2.50468,0.72696 -2.56449,0.76383 -0.0598,0.0369 0.36095,0.37674 0.93502,0.75526 1.25244,0.82578 2.02549,1.56916 2.38284,2.29137 0.25474,0.51483 0.26686,0.91204 0.33121,10.8502 l 0.0668,10.31581 0.73479,0.74974 c 1.2124,1.23708 4.50646,3.66807 4.97034,3.66807 0.0585,0 0.10634,-6.46092 0.10634,-14.3576 z m 4.11088,13.7663 c 1.25105,-0.77133 2.98249,-2.13556 3.90493,-3.07676 l 0.73479,-0.74973 0.0668,-10.31582 0.0668,-10.31582 0.31233,-0.63423 c 0.35233,-0.71541 0.97898,-1.29926 2.40083,-2.23681 0.53703,-0.35411 0.9278,-0.67257 0.86839,-0.7077 -0.0594,-0.0351 -1.21501,-0.37809 -2.56798,-0.76212 -2.27181,-0.64485 -2.5017,-0.68615 -3.00593,-0.53996 -0.30029,0.0871 -1.3125,0.39682 -2.24934,0.68834 l -1.70337,0.53005 v 14.35593 c 0,7.89576 0.0478,14.35593 0.10634,14.35593 0.0585,0 0.53792,-0.26609 1.06541,-0.5913 z"
         style="display:inline;fill:#7ba8c4;fill-opacity:1;stroke-width:0.13359694;enable-background:new"
         sodipodi:nodetypes="scsscscscssscsccccccssscssc" />
      <path
         inkscape:connector-curvature="0"
         id="path916-3-7-5"
         d="M 430.92247,68.471093 V 57.942186 l -1.24913,-0.388689 c -2.2486,-0.699688 -1.81913,-0.687514 -3.85696,-0.109303 -0.99048,0.281043 -1.83677,0.533104 -1.88063,0.560142 -0.0439,0.02706 0.2647,0.276276 0.68568,0.553857 0.91846,0.605572 1.48536,1.150718 1.74742,1.680338 0.18681,0.377542 0.19569,0.66883 0.24288,7.956814 l 0.049,7.564928 0.53885,0.549809 C 428.08867,77.217274 430.50431,79 430.84449,79 c 0.0429,0 0.078,-4.738008 0.078,-10.528907 z m 3.01464,10.095287 c 0.91744,-0.565642 2.18716,-1.566077 2.86362,-2.256291 l 0.53884,-0.549802 0.049,-7.564935 0.049,-7.564935 0.22904,-0.465102 c 0.25837,-0.524634 0.71792,-0.95279 1.76061,-1.640327 0.39382,-0.259681 0.68038,-0.493218 0.63682,-0.51898 -0.0436,-0.02574 -0.89101,-0.277266 -1.88319,-0.558888 -1.66599,-0.47289 -1.83458,-0.503177 -2.20435,-0.395971 -0.22021,0.06387 -0.9625,0.291002 -1.64951,0.504783 l -1.24914,0.388703 v 10.527683 c 0,5.790224 0.0351,10.527682 0.078,10.527682 0.0429,0 0.39448,-0.195133 0.7813,-0.43362 z"
         style="display:inline;fill:#7ba8c4;fill-opacity:1;stroke-width:0.0979711;enable-background:new"
         sodipodi:nodetypes="scsscscscssscsccccccssscssc" />
      <path
         inkscape:connector-curvature="0"
         id="path916-3-7-3"
         d="m 427.31427,112.29979 v -6.70022 l -0.7949,-0.24734 c -1.43093,-0.44526 -1.15762,-0.43751 -2.45443,-0.0696 -0.6303,0.17884 -1.16885,0.33925 -1.19676,0.35645 -0.0279,0.0172 0.16844,0.17581 0.43634,0.35246 0.58447,0.38536 0.94523,0.73227 1.11199,1.0693 0.11888,0.24026 0.12454,0.42562 0.15457,5.06343 l 0.0312,4.81404 0.3429,0.34988 c 0.56579,0.57731 2.10302,1.71177 2.3195,1.71177 0.0273,0 0.0496,-3.0151 0.0496,-6.70021 z m 1.91841,6.42427 c 0.58383,-0.35995 1.39183,-0.99659 1.8223,-1.43582 l 0.34291,-0.34988 0.0312,-4.81405 0.0312,-4.81404 0.14576,-0.29598 c 0.16442,-0.33386 0.45685,-0.60632 1.12038,-1.04384 0.25062,-0.16525 0.43298,-0.31387 0.40525,-0.33026 -0.0277,-0.0164 -0.567,-0.17645 -1.19839,-0.35566 -1.06018,-0.30093 -1.16746,-0.3202 -1.40276,-0.25198 -0.14014,0.0406 -0.6125,0.18518 -1.0497,0.32122 l -0.7949,0.24736 v 6.69943 c 0,3.68469 0.0223,6.69944 0.0496,6.69944 0.0273,0 0.25103,-0.12418 0.49719,-0.27594 z"
         style="display:inline;fill:#7ba8c4;fill-opacity:1;stroke-width:0.06234525;enable-background:new"
         sodipodi:nodetypes="scsscscscssscsccccccssscssc" />
      <path
         inkscape:connector-curvature="0"
         id="path916-3-7-56"
         d="m 423.41228,148.25695 v -5.74304 l -0.68135,-0.21201 c -1.2265,-0.38165 -0.99224,-0.37501 -2.10379,-0.0596 -0.54026,0.15329 -1.00187,0.29078 -1.0258,0.30553 -0.0239,0.0148 0.14438,0.1507 0.37401,0.3021 0.50098,0.33032 0.8102,0.62767 0.95314,0.91655 0.10189,0.20593 0.10674,0.36482 0.13248,4.34008 l 0.0267,4.12633 0.29392,0.29989 c 0.48496,0.49483 1.80258,1.46723 1.98813,1.46723 0.0234,0 0.0425,-2.58437 0.0425,-5.74304 z m 1.64435,5.50652 c 0.50042,-0.30853 1.193,-0.85422 1.56197,-1.2307 l 0.29392,-0.2999 0.0267,-4.12632 0.0267,-4.12633 0.12493,-0.25369 c 0.14093,-0.28617 0.39159,-0.51971 0.96033,-0.89473 0.21481,-0.14164 0.37112,-0.26903 0.34736,-0.28308 -0.0238,-0.014 -0.48601,-0.15123 -1.02719,-0.30485 -0.90873,-0.25794 -1.00068,-0.27446 -1.20238,-0.21598 -0.12011,0.0348 -0.525,0.15873 -0.89973,0.27534 l -0.68135,0.21202 v 5.74237 c 0,3.1583 0.0191,5.74237 0.0425,5.74237 0.0234,0 0.21516,-0.10644 0.42616,-0.23652 z"
         style="display:inline;fill:#7ba8c4;fill-opacity:1;stroke-width:0.05343878;enable-background:new"
         sodipodi:nodetypes="scsscscscssscsccccccssscssc" />
      <path
         inkscape:connector-curvature="0"
         id="path5055"
         d="M 89.031251,118 C 80.66775,118 76.8125,123.64783 76.8125,128.31244 l 47.90625,0 L 130,133.06241 145.65625,118 89.031251,118 z M 164.75,118 c -2.27713,1.30622 -6.77266,3.8923 -10.03125,9.49994 l 43.34375,0 6.5625,4.99997 L 219,118 l -54.25,0 z m -12.5625,13.99991 c -3.06976,3.65047 -5.11166,17.27683 -3.9375,28.12483 0.94699,8.74938 5.04863,16.86778 11.21875,24.53109 5.16055,6.40942 15.55645,13.27367 27.09375,13.34367 11.53733,0.07 22,-7.2187 22,-7.2187 -26.45895,-2.60169 -34.66429,-12.71283 -37.53125,-21.62487 -2.90956,-9.04447 -0.72467,-31.36708 3.15625,-36.87477 0,0 -13.6259,-0.28125 -22,-0.28125 z m -72.3125,1.0625 45.3125,51.46842 -33.65625,0 L 86.25,179.78086 69,196.43701 c 22.105301,0 44.23033,-0.18592 65.84375,0 1.83061,0 7.91645,-1.71146 10.8125,-7.62495 2.89605,-5.91351 -0.92578,-12.74291 -1.65625,-13.46867 l -37.59375,-42.28098 -26.53125,0 z"
         style="opacity:0.2;fill:#000000;fill-opacity:1;stroke:none;display:inline;enable-background:new" />
      <path
         style="fill:#000000;fill-opacity:1;stroke:none;display:inline;enable-background:new;opacity:0.2"
         d="m 311.81375,59.4 c -3.67994,0 -5.37625,2.485045 -5.37625,4.537473 l 21.07875,0 2.32375,2.089987 6.88875,-6.62746 -24.915,0 z m 33.31625,0 c -1.00194,0.574736 -2.97997,1.712612 -4.41375,4.179973 l 19.07125,0 2.8875,2.199987 L 369,59.4 l -23.87,0 z m -5.5275,6.15996 c -1.35069,1.606207 -2.24913,7.601805 -1.7325,12.374925 0.41668,3.849727 2.2214,7.421823 4.93625,10.79368 2.27064,2.820145 6.84484,5.840415 11.92125,5.871215 5.07643,0.0308 9.68,-3.176228 9.68,-3.176228 -11.64194,-1.144744 -15.25229,-5.593646 -16.51375,-9.514943 -1.28021,-3.979567 -0.31885,-13.801515 1.38875,-16.224899 0,0 -5.9954,-0.12375 -9.68,-0.12375 z m -31.8175,0.4675 19.9375,22.646105 -14.80875,0 L 310.59,86.583578 303,93.91228 c 9.72633,0 19.46135,-0.0818 28.97125,0 0.80547,0 3.48324,-0.753038 4.7575,-3.354974 1.27426,-2.601944 -0.40734,-5.60688 -0.72875,-5.926215 l -16.54125,-18.603631 -11.67375,0 z"
         id="path5057"
         inkscape:connector-curvature="0" />
      <path
         inkscape:connector-curvature="0"
         id="path5059"
         d="m 301.00625,237 c -1.6727,0 -2.44375,1.12957 -2.44375,2.06249 l 9.58125,0 1.05625,0.95 3.13125,-3.01249 -11.325,0 z m 15.14375,0 c -0.45543,0.26125 -1.35453,0.77846 -2.00625,1.89999 l 8.66875,0 1.3125,1 L 327,237 l -10.85,0 z m -2.5125,2.79999 c -0.61395,0.73009 -1.02233,3.45536 -0.7875,5.62496 0.1894,1.74988 1.00973,3.37355 2.24375,4.90622 1.03211,1.28188 3.11129,2.65473 5.41875,2.66873 2.30747,0.014 4.4,-1.44374 4.4,-1.44374 -5.29179,-0.52034 -6.93286,-2.54256 -7.50625,-4.32497 -0.58191,-1.80889 -0.14493,-6.27342 0.63125,-7.37495 0,0 -2.72518,-0.0562 -4.4,-0.0562 z m -14.4625,0.2125 9.0625,10.29368 -6.73125,0 -1.05625,-0.95 -3.45,3.33123 c 4.42106,0 8.84607,-0.0372 13.16875,0 0.36612,0 1.58329,-0.34229 2.1625,-1.52499 0.57921,-1.1827 -0.18515,-2.54858 -0.33125,-2.69373 l -7.51875,-8.45619 -5.30625,0 z"
         style="fill:#000000;fill-opacity:1;stroke:none;display:inline;enable-background:new;opacity:0.2" />
      <path
         inkscape:connector-curvature="0"
         id="path5061"
         d="m 303.87583,162.26667 c -2.45329,0 -3.58416,1.6567 -3.58416,3.02498 l 14.0525,0 1.54916,1.39333 4.5925,-4.41831 -16.61,0 z m 22.21084,0 c -0.66796,0.38316 -1.98665,1.14174 -2.9425,2.78665 l 12.71416,0 1.925,1.46666 4.21667,-4.25331 -15.91333,0 z m -3.685,4.10664 c -0.90046,1.0708 -1.49942,5.06787 -1.155,8.24995 0.27778,2.56649 1.48093,4.94788 3.29083,7.19579 1.51376,1.8801 4.56323,3.89361 7.9475,3.91414 3.38429,0.0205 6.45333,-2.11748 6.45333,-2.11748 -7.76129,-0.76317 -10.16819,-3.7291 -11.00916,-6.3433 -0.85348,-2.65304 -0.21257,-9.20101 0.92583,-10.8166 0,0 -3.99693,-0.0825 -6.45333,-0.0825 z m -21.21167,0.31167 13.29167,15.0974 -9.8725,0 -1.54917,-1.39333 -5.06,4.88581 c 6.48422,0 12.97423,-0.0545 19.31417,0 0.53698,0 2.32216,-0.50203 3.17166,-2.23665 0.84951,-1.73463 -0.27156,-3.73792 -0.48583,-3.95081 l -11.0275,-12.40242 -7.7825,0 z"
         style="fill:#000000;fill-opacity:1;stroke:none;display:inline;enable-background:new;opacity:0.2" />
      <path
         inkscape:connector-curvature="0"
         id="path5063"
         d="m 423.93792,63.266682 c -1.22665,0 -1.79209,0.828349 -1.79209,1.512491 h 7.02625 l 0.77459,0.696663 2.29625,-2.209154 z m 11.10541,0 c -0.33398,0.191579 -0.99332,0.570871 -1.47125,1.393325 h 6.35709 l 0.9625,0.733329 L 443,63.266682 Z m -1.8425,2.05332 c -0.45023,0.535403 -0.74971,2.533935 -0.5775,4.124975 0.1389,1.283242 0.74047,2.473941 1.64542,3.597893 0.75688,0.940049 2.28161,1.946805 3.97375,1.957072 1.69214,0.01027 3.22667,-1.058743 3.22667,-1.058743 -3.88065,-0.381581 -5.0841,-1.864548 -5.50459,-3.171647 -0.42673,-1.326522 -0.10628,-4.600505 0.46292,-5.4083 0,0 -1.99847,-0.04125 -3.22667,-0.04125 z m -10.60583,0.155834 6.64583,7.548701 h -4.93625 L 423.53,72.327875 421,74.770777 c 3.24211,0 6.48712,-0.02727 9.65708,0 0.26849,0 1.16108,-0.251014 1.58584,-1.118326 0.42475,-0.867315 -0.13578,-1.86896 -0.24292,-1.975405 l -5.51375,-6.20121 z"
         style="display:inline;opacity:0.2;fill:#000000;fill-opacity:1;stroke:none;enable-background:new" />
      <path
         style="fill:#000000;fill-opacity:1;stroke:none;display:inline;enable-background:new;opacity:0.2"
         d="m 422.86959,109.26667 c -0.7806,0 -1.14043,0.52713 -1.14043,0.96249 l 4.47125,0 0.49293,0.44333 1.46125,-1.40582 -5.285,0 z m 7.06707,0 c -0.21253,0.12191 -0.63211,0.36328 -0.93625,0.88666 l 4.04543,0 0.6125,0.46666 1.34166,-1.35332 -5.06334,0 z m -1.1725,1.30665 c -0.28651,0.34071 -0.47708,1.61251 -0.3675,2.62499 0.0884,0.81661 0.47121,1.57432 1.04709,2.28957 0.48165,0.59821 1.45193,1.23887 2.52875,1.24541 1.07682,0.007 2.05334,-0.67375 2.05334,-0.67375 -2.46951,-0.24282 -3.23534,-1.18653 -3.50293,-2.01832 -0.27155,-0.84415 -0.0676,-2.92759 0.29459,-3.44165 0,0 -1.27175,-0.0263 -2.05334,-0.0263 z m -6.74916,0.0992 4.22916,4.80372 -3.14125,0 -0.49291,-0.44333 -1.61,1.55458 c 2.06316,0 4.12817,-0.0173 6.14541,0 0.17086,0 0.73887,-0.15974 1.00918,-0.71166 0.27029,-0.55193 -0.0864,-1.18934 -0.15459,-1.25708 l -3.50875,-3.94623 -2.47625,0 z"
         id="path5065"
         inkscape:connector-curvature="0" />
      <path
         inkscape:connector-curvature="0"
         id="path5067"
         d="m 419.60251,145.8 c -0.66909,0 -0.97752,0.45183 -0.97752,0.825 l 3.8325,0 0.42252,0.38 1.2525,-1.205 -4.53,0 z m 6.05748,0 c -0.18216,0.1045 -0.5418,0.31139 -0.8025,0.76 l 3.46752,0 0.525,0.4 1.14999,-1.16 -4.34001,0 z m -1.005,1.12 c -0.24558,0.29203 -0.40892,1.38214 -0.315,2.24998 0.0758,0.69995 0.4039,1.34942 0.89751,1.96249 0.41284,0.51275 1.24451,1.06189 2.1675,1.06749 0.92299,0.006 1.76001,-0.57749 1.76001,-0.57749 -2.11673,-0.20814 -2.77315,-1.01703 -3.00252,-1.72999 -0.23275,-0.72356 -0.0579,-2.50937 0.25251,-2.94998 0,0 -1.09007,-0.0225 -1.76001,-0.0225 z m -5.78499,0.085 3.62499,4.11747 -2.6925,0 -0.42249,-0.38 -1.38,1.33249 c 1.76842,0 3.53843,-0.0149 5.26749,0 0.14646,0 0.63332,-0.13691 0.86502,-0.60999 0.23167,-0.47308 -0.0741,-1.01943 -0.13251,-1.0775 l -3.0075,-3.38247 -2.1225,0 z"
         style="fill:#000000;fill-opacity:1;stroke:none;display:inline;enable-background:new;opacity:0.2" />
      <path
         style="display:inline;fill:#ffffff;fill-opacity:1;stroke:none;enable-background:new"
         d="M 89.031251,117 C 80.66775,117 76.8125,122.64783 76.8125,127.31244 h 47.90625 L 130,132.06241 145.65625,117 Z M 164.75,117 c -2.27713,1.30622 -6.77266,3.8923 -10.03125,9.49994 h 43.34375 l 6.5625,4.99997 L 219,117 Z m -12.5625,13.99991 c -3.06976,3.65047 -5.11166,17.27683 -3.9375,28.12483 0.94699,8.74938 5.04863,16.86778 11.21875,24.53109 5.16055,6.40942 15.55645,13.27367 27.09375,13.34367 11.53733,0.07 22,-7.2187 22,-7.2187 -26.45895,-2.60169 -34.66429,-12.71283 -37.53125,-21.62487 -2.90956,-9.04447 -0.72467,-31.36708 3.15625,-36.87477 0,0 -13.6259,-0.28125 -22,-0.28125 z m -72.3125,1.0625 45.3125,51.46842 H 91.53125 L 86.25,178.78086 69,195.43701 c 22.105301,0 44.23033,-0.18592 65.84375,0 1.83061,0 7.91645,-1.71146 10.8125,-7.62495 2.89605,-5.91351 -0.92578,-12.74291 -1.65625,-13.46867 l -37.59375,-42.28098 z"
         id="path3263-1-8"
         inkscape:connector-curvature="0" />
      <path
         inkscape:connector-curvature="0"
         id="path5043"
         d="m 311.81375,58.4 c -3.67994,0 -5.37625,2.485045 -5.37625,4.537473 l 21.07875,0 2.32375,2.089987 6.88875,-6.62746 -24.915,0 z m 33.31625,0 c -1.00194,0.574736 -2.97997,1.712612 -4.41375,4.179973 l 19.07125,0 2.8875,2.199987 L 369,58.4 l -23.87,0 z m -5.5275,6.15996 c -1.35069,1.606207 -2.24913,7.601805 -1.7325,12.374925 0.41668,3.849727 2.2214,7.421823 4.93625,10.79368 2.27064,2.820145 6.84484,5.840415 11.92125,5.871215 5.07643,0.0308 9.68,-3.176228 9.68,-3.176228 -11.64194,-1.144744 -15.25229,-5.593646 -16.51375,-9.514943 -1.28021,-3.979567 -0.31885,-13.801515 1.38875,-16.224899 0,0 -5.9954,-0.12375 -9.68,-0.12375 z m -31.8175,0.4675 19.9375,22.646105 -14.80875,0 L 310.59,85.583578 303,92.91228 c 9.72633,0 19.46135,-0.0818 28.97125,0 0.80547,0 3.48324,-0.753038 4.7575,-3.354974 1.27426,-2.601944 -0.40734,-5.60688 -0.72875,-5.926215 l -16.54125,-18.603631 -11.67375,0 z"
         style="fill:#ffffff;fill-opacity:1;stroke:none;display:inline;enable-background:new" />
      <path
         style="fill:#ffffff;fill-opacity:1;stroke:none;display:inline;enable-background:new"
         d="m 301.00625,236 c -1.6727,0 -2.44375,1.12957 -2.44375,2.06249 l 9.58125,0 1.05625,0.95 3.13125,-3.01249 -11.325,0 z m 15.14375,0 c -0.45543,0.26125 -1.35453,0.77846 -2.00625,1.89999 l 8.66875,0 1.3125,1 L 327,236 l -10.85,0 z m -2.5125,2.79999 c -0.61395,0.73009 -1.02233,3.45536 -0.7875,5.62496 0.1894,1.74988 1.00973,3.37355 2.24375,4.90622 1.03211,1.28188 3.11129,2.65473 5.41875,2.66873 2.30747,0.014 4.4,-1.44374 4.4,-1.44374 -5.29179,-0.52034 -6.93286,-2.54256 -7.50625,-4.32497 -0.58191,-1.80889 -0.14493,-6.27342 0.63125,-7.37495 0,0 -2.72518,-0.0562 -4.4,-0.0562 z m -14.4625,0.2125 9.0625,10.29368 -6.73125,0 -1.05625,-0.95 -3.45,3.33123 c 4.42106,0 8.84607,-0.0372 13.16875,0 0.36612,0 1.58329,-0.34229 2.1625,-1.52499 0.57921,-1.1827 -0.18515,-2.54858 -0.33125,-2.69373 l -7.51875,-8.45619 -5.30625,0 z"
         id="path5045"
         inkscape:connector-curvature="0" />
      <path
         style="fill:#ffffff;fill-opacity:1;stroke:none;display:inline;enable-background:new"
         d="m 303.87583,161.26667 c -2.45329,0 -3.58416,1.6567 -3.58416,3.02498 l 14.0525,0 1.54916,1.39333 4.5925,-4.41831 -16.61,0 z m 22.21084,0 c -0.66796,0.38316 -1.98665,1.14174 -2.9425,2.78665 l 12.71416,0 1.925,1.46666 4.21667,-4.25331 -15.91333,0 z m -3.685,4.10664 c -0.90046,1.0708 -1.49942,5.06787 -1.155,8.24995 0.27778,2.56649 1.48093,4.94788 3.29083,7.19579 1.51376,1.8801 4.56323,3.89361 7.9475,3.91414 3.38429,0.0205 6.45333,-2.11748 6.45333,-2.11748 -7.76129,-0.76317 -10.16819,-3.7291 -11.00916,-6.3433 -0.85348,-2.65304 -0.21257,-9.20101 0.92583,-10.8166 0,0 -3.99693,-0.0825 -6.45333,-0.0825 z m -21.21167,0.31167 13.29167,15.0974 -9.8725,0 -1.54917,-1.39333 -5.06,4.88581 c 6.48422,0 12.97423,-0.0545 19.31417,0 0.53698,0 2.32216,-0.50203 3.17166,-2.23665 0.84951,-1.73463 -0.27156,-3.73792 -0.48583,-3.95081 l -11.0275,-12.40242 -7.7825,0 z"
         id="path5047"
         inkscape:connector-curvature="0" />
      <path
         style="display:inline;fill:#ffffff;fill-opacity:1;stroke:none;enable-background:new"
         d="m 423.93792,62.266682 c -1.22665,0 -1.79209,0.828349 -1.79209,1.512491 h 7.02625 l 0.77459,0.696663 2.29625,-2.209154 z m 11.10541,0 c -0.33398,0.191579 -0.99332,0.570871 -1.47125,1.393325 h 6.35709 l 0.9625,0.733329 L 443,62.266682 Z m -1.8425,2.05332 c -0.45023,0.535403 -0.74971,2.533935 -0.5775,4.124975 0.1389,1.283242 0.74047,2.473941 1.64542,3.597893 0.75688,0.940049 2.28161,1.946805 3.97375,1.957072 1.69214,0.01027 3.22667,-1.058743 3.22667,-1.058743 -3.88065,-0.381581 -5.0841,-1.864548 -5.50459,-3.171647 -0.42673,-1.326522 -0.10628,-4.600505 0.46292,-5.4083 0,0 -1.99847,-0.04125 -3.22667,-0.04125 z m -10.60583,0.155834 6.64583,7.548701 h -4.93625 L 423.53,71.327875 421,73.770777 c 3.24211,0 6.48712,-0.02727 9.65708,0 0.26849,0 1.16108,-0.251014 1.58584,-1.118326 0.42475,-0.867315 -0.13578,-1.86896 -0.24292,-1.975405 l -5.51375,-6.20121 z"
         id="path5049"
         inkscape:connector-curvature="0" />
      <path
         inkscape:connector-curvature="0"
         id="path5051"
         d="m 422.86959,108.26667 c -0.7806,0 -1.14043,0.52713 -1.14043,0.96249 l 4.47125,0 0.49293,0.44333 1.46125,-1.40582 -5.285,0 z m 7.06707,0 c -0.21253,0.12191 -0.63211,0.36328 -0.93625,0.88666 l 4.04543,0 0.6125,0.46666 1.34166,-1.35332 -5.06334,0 z m -1.1725,1.30665 c -0.28651,0.34071 -0.47708,1.61251 -0.3675,2.62499 0.0884,0.81661 0.47121,1.57432 1.04709,2.28957 0.48165,0.59821 1.45193,1.23887 2.52875,1.24541 1.07682,0.007 2.05334,-0.67375 2.05334,-0.67375 -2.46951,-0.24282 -3.23534,-1.18653 -3.50293,-2.01832 -0.27155,-0.84415 -0.0676,-2.92759 0.29459,-3.44165 0,0 -1.27175,-0.0263 -2.05334,-0.0263 z m -6.74916,0.0992 4.22916,4.80372 -3.14125,0 -0.49291,-0.44333 -1.61,1.55458 c 2.06316,0 4.12817,-0.0173 6.14541,0 0.17086,0 0.73887,-0.15974 1.00918,-0.71166 0.27029,-0.55193 -0.0864,-1.18934 -0.15459,-1.25708 l -3.50875,-3.94623 -2.47625,0 z"
         style="fill:#ffffff;fill-opacity:1;stroke:none;display:inline;enable-background:new" />
      <path
         style="fill:#ffffff;fill-opacity:1;stroke:none;display:inline;enable-background:new"
         d="m 419.60251,144.8 c -0.66909,0 -0.97752,0.45183 -0.97752,0.825 l 3.8325,0 0.42252,0.38 1.2525,-1.205 -4.53,0 z m 6.05748,0 c -0.18216,0.1045 -0.5418,0.31139 -0.8025,0.76 l 3.46752,0 0.525,0.4 1.14999,-1.16 -4.34001,0 z m -1.005,1.12 c -0.24558,0.29203 -0.40892,1.38214 -0.315,2.24998 0.0758,0.69995 0.4039,1.34942 0.89751,1.96249 0.41284,0.51275 1.24451,1.06189 2.1675,1.06749 0.92299,0.006 1.76001,-0.57749 1.76001,-0.57749 -2.11673,-0.20814 -2.77315,-1.01703 -3.00252,-1.72999 -0.23275,-0.72356 -0.0579,-2.50937 0.25251,-2.94998 0,0 -1.09007,-0.0225 -1.76001,-0.0225 z m -5.78499,0.085 3.62499,4.11747 -2.6925,0 -0.42249,-0.38 -1.38,1.33249 c 1.76842,0 3.53843,-0.0149 5.26749,0 0.14646,0 0.63332,-0.13691 0.86502,-0.60999 0.23167,-0.47308 -0.0741,-1.01943 -0.13251,-1.0775 l -3.0075,-3.38247 -2.1225,0 z"
         id="path5053"
         inkscape:connector-curvature="0" />
    </g>
    <g
       inkscape:groupmode="layer"
       id="layer5"
       inkscape:label="Highlights"
       style="display:inline"
       sodipodi:insensitive="true">
      <path
         style="opacity:0.12999998;color:#bebebe;fill:#ffffff;fill-opacity:1;fill-rule:nonzero;stroke:none;stroke-width:0;marker:none;visibility:visible;display:inline;overflow:visible;enable-background:accumulate"
         d="M 84,47 C 56.836703,47 35,68.836703 35,96 l 0,1 C 35,69.836703 56.836703,48 84,48 l 120,0 c 27.1633,0 49,21.836703 49,49 l 0,-1 C 253,68.836703 231.1633,47 204,47 L 84,47 z"
         id="rect3894"
         inkscape:connector-curvature="0" />
      <path
         style="opacity:0.12999998;color:#bebebe;fill:#ffffff;fill-opacity:1;fill-rule:nonzero;stroke:none;stroke-width:0;marker:none;visibility:visible;display:inline;overflow:visible;enable-background:accumulate"
         d="m 419,141 c -1.1253,0 -2,0.8747 -2,2 l 0,1 c 0,-1.1253 0.8747,-2 2,-2 l 10,0 c 1.1253,0 2,0.8747 2,2 l 0,-1 c 0,-1.1253 -0.8747,-2 -2,-2 l -10,0 z"
         id="rect3896"
         inkscape:connector-curvature="0" />
      <path
         style="opacity:0.12999998;color:#bebebe;fill:#ffffff;fill-opacity:1;fill-rule:nonzero;stroke:none;stroke-width:0;marker:none;visibility:visible;display:inline;overflow:visible;enable-background:accumulate"
         d="m 422,102 c -2.2333,0 -4,1.7667 -4,4 l 0,1 c 0,-2.2333 1.7667,-4 4,-4 l 12,0 c 2.2333,0 4,1.7667 4,4 l 0,-1 c 0,-2.2333 -1.7667,-4 -4,-4 l -12,0 z"
         id="rect3898"
         inkscape:connector-curvature="0" />
      <path
         style="opacity:0.12999998;color:#bebebe;fill:#ffffff;fill-opacity:1;fill-rule:nonzero;stroke:none;stroke-width:0;marker:none;visibility:visible;display:inline;overflow:visible;enable-background:accumulate"
         d="m 424,54 c -3.3413,0 -6,2.658703 -6,6 l 0,1 c 0,-3.341297 2.6587,-6 6,-6 l 16,0 c 3.3413,0 6,2.658703 6,6 l 0,-1 c 0,-3.341297 -2.6587,-6 -6,-6 l -16,0 z"
         id="rect3900"
         inkscape:connector-curvature="0" />
      <path
         style="opacity:0.12999998;color:#bebebe;fill:#ffffff;fill-opacity:1;fill-rule:nonzero;stroke:none;stroke-width:0;marker:none;visibility:visible;display:inline;overflow:visible;enable-background:accumulate"
         d="m 300,224 c -4.4493,0 -8,3.5507 -8,8 l 0,1 c 0,-4.4493 3.5507,-8 8,-8 l 24,0 c 4.4493,0 8,3.5507 8,8 l 0,-1 c 0,-4.4493 -3.5507,-8 -8,-8 l -24,0 z"
         id="rect3902"
         inkscape:connector-curvature="0" />
      <path
         style="opacity:0.12999998;color:#bebebe;fill:#ffffff;fill-opacity:1;fill-rule:nonzero;stroke:none;stroke-width:0;marker:none;visibility:visible;display:inline;overflow:visible;enable-background:accumulate"
         d="m 310,33 c -9.4353,0 -17,7.564703 -17,17 l 0,1 c 0,-9.435297 7.5647,-17 17,-17 l 52,0 c 9.4353,0 17,7.564703 17,17 l 0,-1 c 0,-9.435297 -7.5647,-17 -17,-17 l -52,0 z"
         id="rect3904"
         inkscape:connector-curvature="0" />
      <path
         style="opacity:0.12999998;color:#bebebe;fill:#ffffff;fill-opacity:1;fill-rule:nonzero;stroke:none;stroke-width:0;marker:none;visibility:visible;display:inline;overflow:visible;enable-background:accumulate"
         d="m 302.5,143 c -6.3883,0 -11.5,5.1117 -11.5,11.5 l 0,1 c 0,-6.3883 5.1117,-11.5 11.5,-11.5 l 35,0 c 6.3883,0 11.5,5.1117 11.5,11.5 l 0,-1 c 0,-6.3883 -5.1117,-11.5 -11.5,-11.5 l -35,0 z"
         id="rect3906"
         inkscape:connector-curvature="0" />
      <path
         id="path4085"
         d="m 204,266 c 27.1633,0 49,-21.8367 49,-49 l 0,-1 c 0,27.1633 -21.8367,49 -49,49 L 84,265 C 56.8367,265 35,243.1633 35,216 l 0,1 c 0,27.1633 21.8367,49 49,49 l 120,0 z"
         style="opacity:0.41000001;color:#bebebe;fill:#000000;fill-opacity:1;fill-rule:nonzero;stroke:none;stroke-width:0;marker:none;visibility:visible;display:inline;overflow:visible;enable-background:accumulate"
         inkscape:connector-curvature="0" />
      <path
         id="path4087"
         d="m 429,156 c 1.1253,0 2,-0.8747 2,-2 l 0,-1 c 0,1.1253 -0.8747,2 -2,2 l -10,0 c -1.1253,0 -2,-0.8747 -2,-2 l 0,1 c 0,1.1253 0.8747,2 2,2 l 10,0 z"
         style="opacity:0.3;color:#bebebe;fill:#000000;fill-opacity:1;fill-rule:nonzero;stroke:none;stroke-width:0;marker:none;visibility:visible;display:inline;overflow:visible;enable-background:accumulate"
         inkscape:connector-curvature="0" />
      <path
         id="path4089"
         d="m 434,123 c 2.2333,0 4,-1.7667 4,-4 l 0,-1 c 0,2.2333 -1.7667,4 -4,4 l -12,0 c -2.2333,0 -4,-1.7667 -4,-4 l 0,1 c 0,2.2333 1.7667,4 4,4 l 12,0 z"
         style="opacity:0.3;color:#bebebe;fill:#000000;fill-opacity:1;fill-rule:nonzero;stroke:none;stroke-width:0;marker:none;visibility:visible;display:inline;overflow:visible;enable-background:accumulate"
         inkscape:connector-curvature="0" />
      <path
         id="path4091"
         d="m 440,83 c 3.3413,0 6,-2.6587 6,-6 l 0,-1 c 0,3.3413 -2.6587,6 -6,6 l -16,0 c -3.3413,0 -6,-2.6587 -6,-6 l 0,1 c 0,3.3413 2.6587,6 6,6 l 16,0 z"
         style="opacity:0.41000001;color:#bebebe;fill:#000000;fill-opacity:1;fill-rule:nonzero;stroke:none;stroke-width:0;marker:none;visibility:visible;display:inline;overflow:visible;enable-background:accumulate"
         inkscape:connector-curvature="0" />
      <path
         id="path4093"
         d="m 324,265 c 4.4493,0 8,-3.5507 8,-8 l 0,-1 c 0,4.4493 -3.5507,8 -8,8 l -24,0 c -4.4493,0 -8,-3.5507 -8,-8 l 0,1 c 0,4.4493 3.5507,8 8,8 l 24,0 z"
         style="opacity:0.41000001;color:#bebebe;fill:#000000;fill-opacity:1;fill-rule:nonzero;stroke:none;stroke-width:0;marker:none;visibility:visible;display:inline;overflow:visible;enable-background:accumulate"
         inkscape:connector-curvature="0" />
      <path
         id="path4095"
         d="m 362,120 c 9.4353,0 17,-7.5647 17,-17 l 0,-1 c 0,9.4353 -7.5647,17 -17,17 l -52,0 c -9.4353,0 -17,-7.5647 -17,-17 l 0,1 c 0,9.4353 7.5647,17 17,17 l 52,0 z"
         style="opacity:0.41000001;color:#bebebe;fill:#000000;fill-opacity:1;fill-rule:nonzero;stroke:none;stroke-width:0;marker:none;visibility:visible;display:inline;overflow:visible;enable-background:accumulate"
         inkscape:connector-curvature="0" />
      <path
         id="path4097"
         d="m 337.5,202 c 6.3883,0 11.5,-5.1117 11.5,-11.5 l 0,-1 c 0,6.3883 -5.1117,11.5 -11.5,11.5 l -35,0 c -6.3883,0 -11.5,-5.1117 -11.5,-11.5 l 0,1 c 0,6.3883 5.1117,11.5 11.5,11.5 l 35,0 z"
         style="opacity:0.41000001;color:#bebebe;fill:#000000;fill-opacity:1;fill-rule:nonzero;stroke:none;stroke-width:0;marker:none;visibility:visible;display:inline;overflow:visible;enable-background:accumulate"
         inkscape:connector-curvature="0" />
      <path
         inkscape:connector-curvature="0"
         id="path4280"
         d="M 84,265 C 56.836703,265 35,243.1633 35,216 l 0,-1 c 0,27.1633 21.836703,49 49,49 l 120,0 c 27.1633,0 49,-21.8367 49,-49 l 0,1 c 0,27.1633 -21.8367,49 -49,49 l -120,0 z"
         style="opacity:0.1;color:#bebebe;fill:#ffffff;fill-opacity:1;fill-rule:nonzero;stroke:none;stroke-width:0;marker:none;visibility:visible;display:inline;overflow:visible;enable-background:accumulate" />
      <path
         style="opacity:0.1;color:#bebebe;fill:#ffffff;fill-opacity:1;fill-rule:nonzero;stroke:none;stroke-width:0;marker:none;visibility:visible;display:inline;overflow:visible;enable-background:accumulate"
         d="m 300,264 c -4.4493,0 -8,-3.5507 -8,-8 l 0,-1 c 0,4.4493 3.5507,8 8,8 l 24,0 c 4.4493,0 8,-3.5507 8,-8 l 0,1 c 0,4.4493 -3.5507,8 -8,8 l -24,0 z"
         id="path4294"
         inkscape:connector-curvature="0" />
      <path
         style="opacity:0.1;color:#bebebe;fill:#ffffff;fill-opacity:1;fill-rule:nonzero;stroke:none;stroke-width:0;marker:none;visibility:visible;display:inline;overflow:visible;enable-background:accumulate"
         d="m 302.5,201 c -6.3883,0 -11.5,-5.1117 -11.5,-11.5 l 0,-1 c 0,6.3883 5.1117,11.5 11.5,11.5 l 35,0 c 6.3883,0 11.5,-5.1117 11.5,-11.5 l 0,1 c 0,6.3883 -5.1117,11.5 -11.5,11.5 l -35,0 z"
         id="path4296"
         inkscape:connector-curvature="0" />
      <path
         style="opacity:0.1;color:#bebebe;fill:#ffffff;fill-opacity:1;fill-rule:nonzero;stroke:none;stroke-width:0;marker:none;visibility:visible;display:inline;overflow:visible;enable-background:accumulate"
         d="m 310,119 c -9.4353,0 -17,-7.5647 -17,-17 l 0,-1 c 0,9.4353 7.5647,17 17,17 l 52,0 c 9.4353,0 17,-7.5647 17,-17 l 0,1 c 0,9.4353 -7.5647,17 -17,17 l -52,0 z"
         id="path4298"
         inkscape:connector-curvature="0" />
      <path
         style="opacity:0.1;color:#bebebe;fill:#ffffff;fill-opacity:1;fill-rule:nonzero;stroke:none;stroke-width:0;marker:none;visibility:visible;display:inline;overflow:visible;enable-background:accumulate"
         d="m 424,82 c -3.3413,0 -6,-2.658703 -6,-6 l 0,-1 c 0,3.341297 2.6587,6 6,6 l 16,0 c 3.3413,0 6,-2.658703 6,-6 l 0,1 c 0,3.341297 -2.6587,6 -6,6 l -16,0 z"
         id="path4300"
         inkscape:connector-curvature="0" />
      <path
         style="opacity:0.1;color:#bebebe;fill:#ffffff;fill-opacity:1;fill-rule:nonzero;stroke:none;stroke-width:0;marker:none;visibility:visible;display:inline;overflow:visible;enable-background:accumulate"
         d="m 422,122 c -2.2333,0 -4,-1.7667 -4,-4 l 0,-1 c 0,2.2333 1.7667,4 4,4 l 12,0 c 2.2333,0 4,-1.7667 4,-4 l 0,1 c 0,2.2333 -1.7667,4 -4,4 l -12,0 z"
         id="path4302"
         inkscape:connector-curvature="0" />
      <path
         style="opacity:0.1;color:#bebebe;fill:#ffffff;fill-opacity:1;fill-rule:nonzero;stroke:none;stroke-width:0;marker:none;visibility:visible;display:inline;overflow:visible;enable-background:accumulate"
         d="m 419,154.5 c -1.1253,0 -2,-0.8747 -2,-2 l 0,-1 c 0,1.1253 0.8747,2 2,2 l 10,0 c 1.1253,0 2,-0.8747 2,-2 l 0,1 c 0,1.1253 -0.8747,2 -2,2 l -10,0 z"
         id="path4304"
         inkscape:connector-curvature="0" />
    </g>
    <g
       inkscape:groupmode="layer"
       id="layer3"
       inkscape:label="Border"
       style="display:inline"
       sodipodi:insensitive="true">
      <path
         style="opacity:0.41000001;color:#bebebe;fill:#000000;fill-opacity:1;fill-rule:nonzero;stroke:none;stroke-width:0;marker:none;visibility:visible;display:inline;overflow:visible;enable-background:accumulate"
         d="m 422,101 c -2.77,0 -5,2.23 -5,5 l 0,12 c 0,2.77 2.23,5 5,5 l 12,0 c 2.77,0 5,-2.23 5,-5 l 0,-12 c 0,-2.77 -2.23,-5 -5,-5 l -12,0 z m 0,1 12,0 c 2.2333,0 4,1.7667 4,4 l 0,12 c 0,2.2333 -1.7667,4 -4,4 l -12,0 c -2.2333,0 -4,-1.7667 -4,-4 l 0,-12 c 0,-2.2333 1.7667,-4 4,-4 z"
         id="rect4099"
         inkscape:connector-curvature="0" />
      <path
         style="opacity:0.41000001;color:#bebebe;fill:#000000;fill-opacity:1;fill-rule:nonzero;stroke:none;stroke-width:0;marker:none;visibility:visible;display:inline;overflow:visible;enable-background:accumulate"
         d="m 424,53 c -3.878,0 -7,3.122 -7,7 l 0,16 c 0,3.878 3.122,7 7,7 l 16,0 c 3.878,0 7,-3.122 7,-7 l 0,-16 c 0,-3.878 -3.122,-7 -7,-7 l -16,0 z m 0,1 16,0 c 3.3413,0 6,2.658703 6,6 l 0,16 c 0,3.341297 -2.6587,6 -6,6 l -16,0 c -3.3413,0 -6,-2.658703 -6,-6 l 0,-16 c 0,-3.341297 2.6587,-6 6,-6 z"
         id="rect4151"
         inkscape:connector-curvature="0" />
      <path
         style="opacity:0.41000001;color:#bebebe;fill:#000000;fill-opacity:1;fill-rule:nonzero;stroke:none;stroke-width:0;marker:none;visibility:visible;display:inline;overflow:visible;enable-background:accumulate"
         d="m 419,140 c -1.662,0 -3,1.338 -3,3 l 0,10 c 0,1.662 1.338,3 3,3 l 10,0 c 1.662,0 3,-1.338 3,-3 l 0,-10 c 0,-1.662 -1.338,-3 -3,-3 l -10,0 z m 0,1 10,0 c 1.1253,0 2,0.8747 2,2 l 0,10 c 0,1.1253 -0.8747,2 -2,2 l -10,0 c -1.1253,0 -2,-0.8747 -2,-2 l 0,-10 c 0,-1.1253 0.8747,-2 2,-2 z"
         id="rect4095"
         inkscape:connector-curvature="0" />
      <path
         style="opacity:0.41000001;color:#bebebe;fill:#000000;fill-opacity:1;fill-rule:nonzero;stroke:none;stroke-width:0;marker:none;visibility:visible;display:inline;overflow:visible;enable-background:accumulate"
         d="m 300,223 c -4.986,0 -9,4.014 -9,9 l 0,24 c 0,4.986 4.014,9 9,9 l 24,0 c 4.986,0 9,-4.014 9,-9 l 0,-24 c 0,-4.986 -4.014,-9 -9,-9 l -24,0 z m 0,1 24,0 c 4.4493,0 8,3.5507 8,8 l 0,24 c 0,4.4493 -3.5507,8 -8,8 l -24,0 c -4.4493,0 -8,-3.5507 -8,-8 l 0,-24 c 0,-4.4493 3.5507,-8 8,-8 z"
         id="rect4783"
         inkscape:connector-curvature="0" />
      <path
         style="opacity:0.41000001;color:#bebebe;fill:#000000;fill-opacity:1;fill-rule:nonzero;stroke:none;stroke-width:0;marker:none;visibility:visible;display:inline;overflow:visible;enable-background:accumulate"
         d="m 302.5,142 c -6.925,0 -12.5,5.575 -12.5,12.5 l 0,35 c 0,6.925 5.575,12.5 12.5,12.5 l 35,0 c 6.925,0 12.5,-5.575 12.5,-12.5 l 0,-35 c 0,-6.925 -5.575,-12.5 -12.5,-12.5 l -35,0 z m 0,1 35,0 c 6.3883,0 11.5,5.1117 11.5,11.5 l 0,35 c 0,6.3883 -5.1117,11.5 -11.5,11.5 l -35,0 c -6.3883,0 -11.5,-5.1117 -11.5,-11.5 l 0,-35 c 0,-6.3883 5.1117,-11.5 11.5,-11.5 z"
         id="rect4515"
         inkscape:connector-curvature="0" />
      <path
         style="opacity:0.41000001;color:#bebebe;fill:#000000;fill-opacity:1;fill-rule:nonzero;stroke:none;stroke-width:0;marker:none;visibility:visible;display:inline;overflow:visible;enable-background:accumulate"
         d="m 310,32 c -9.972,0 -18,8.028 -18,18 l 0,52 c 0,9.972 8.028,18 18,18 l 52,0 c 9.972,0 18,-8.028 18,-18 l 0,-52 c 0,-9.972 -8.028,-18 -18,-18 l -52,0 z m 0,1 52,0 c 9.4353,0 17,7.564703 17,17 l 0,52 c 0,9.4353 -7.5647,17 -17,17 l -52,0 c -9.4353,0 -17,-7.5647 -17,-17 l 0,-52 c 0,-9.435297 7.5647,-17 17,-17 z"
         id="rect4511"
         inkscape:connector-curvature="0" />
      <path
         style="opacity:0.41000001;color:#bebebe;fill:#000000;fill-opacity:1;fill-rule:nonzero;stroke:none;stroke-width:0;marker:none;visibility:visible;display:inline;overflow:visible;enable-background:accumulate"
         d="M 84,46 C 56.3,46 34,68.3 34,96 l 0,120 c 0,27.7 22.3,50 50,50 l 120,0 c 27.7,0 50,-22.3 50,-50 L 254,96 C 254,68.3 231.7,46 204,46 L 84,46 z m 0,1 120,0 c 27.1633,0 49,21.836703 49,49 l 0,120 c 0,27.1633 -21.8367,49 -49,49 L 84,265 C 56.836703,265 35,243.1633 35,216 L 35,96 C 35,68.836703 56.836703,47 84,47 z"
         id="rect4040"
         inkscape:connector-curvature="0" />
    </g>
  </g>
</svg>
