<?xml version="1.0" encoding="UTF-8" standalone="no"?>
<!-- Created with Inkscape (http://www.inkscape.org/) -->

<svg
   xmlns:dc="http://purl.org/dc/elements/1.1/"
   xmlns:cc="http://creativecommons.org/ns#"
   xmlns:rdf="http://www.w3.org/1999/02/22-rdf-syntax-ns#"
   xmlns:svg="http://www.w3.org/2000/svg"
   xmlns="http://www.w3.org/2000/svg"
   xmlns:xlink="http://www.w3.org/1999/xlink"
   xmlns:sodipodi="http://sodipodi.sourceforge.net/DTD/sodipodi-0.dtd"
   xmlns:inkscape="http://www.inkscape.org/namespaces/inkscape"
   inkscape:export-ydpi="90.000000"
   inkscape:export-xdpi="90.000000"
   width="480"
   height="300"
   id="svg11300"
   sodipodi:version="0.32"
   inkscape:version="0.92.1 r"
   sodipodi:docname="urserver.svg"
   inkscape:output_extension="org.inkscape.output.svg.inkscape"
   version="1.0"
   style="display:inline;enable-background:new"
   inkscape:export-filename="/home/sam/moka-next-template.png">
  <sodipodi:namedview
     stroke="#ef2929"
     fill="#f57900"
     id="base"
     pagecolor="#777777"
     bordercolor="#666666"
     borderopacity="0.25490196"
     inkscape:pageopacity="0"
     inkscape:pageshadow="2"
     inkscape:zoom="1"
     inkscape:cx="103.64359"
     inkscape:cy="417.73591"
     inkscape:current-layer="layer7"
     showgrid="false"
     inkscape:grid-bbox="true"
     inkscape:document-units="px"
     inkscape:showpageshadow="false"
     inkscape:window-width="1364"
     inkscape:window-height="700"
     inkscape:window-x="0"
     inkscape:window-y="28"
     width="400px"
     height="300px"
     inkscape:snap-nodes="true"
     inkscape:snap-bbox="true"
     gridtolerance="10000"
     inkscape:object-nodes="true"
     inkscape:snap-grids="true"
     showguides="false"
     inkscape:guide-bbox="true"
     inkscape:window-maximized="1"
     inkscape:bbox-nodes="true"
     inkscape:bbox-paths="true"
     inkscape:snap-bbox-edge-midpoints="true"
     inkscape:snap-bbox-midpoints="true">
    <inkscape:grid
       spacingy="1"
       spacingx="1"
       id="grid5883"
       type="xygrid"
       enabled="true"
       visible="true"
       empspacing="4"
       snapvisiblegridlinesonly="true"
       dotted="false"
       color="#000000"
       opacity="0.1254902"
       empcolor="#203ef3"
       empopacity="0.36470588"
       originx="0"
       originy="0" />
    <inkscape:grid
       type="xygrid"
       id="grid11592"
       empspacing="8"
       visible="true"
       enabled="false"
       spacingx="0.5"
       spacingy="0.5"
       color="#ff0000"
       opacity="0.1254902"
       empcolor="#ff0000"
       empopacity="0.25098039"
       snapvisiblegridlinesonly="true"
       dotted="true"
       originx="0"
       originy="0" />
  </sodipodi:namedview>
  <defs
     id="defs3">
    <linearGradient
       inkscape:collect="always"
       xlink:href="#outerBackgroundGradient-0"
       id="linearGradient4254"
       x1="35"
       y1="156"
       x2="253"
       y2="156"
       gradientUnits="userSpaceOnUse"
       gradientTransform="rotate(-90,144,156)" />
    <linearGradient
       inkscape:collect="always"
       xlink:href="#outerBackgroundGradient-0"
       id="linearGradient4256"
       x1="417"
       y1="148"
       x2="431"
       y2="148"
       gradientUnits="userSpaceOnUse"
       gradientTransform="rotate(-90,424,148)" />
    <linearGradient
       inkscape:collect="always"
       xlink:href="#outerBackgroundGradient-0"
       id="linearGradient4260"
       x1="418"
       y1="68"
       x2="446"
       y2="68"
       gradientUnits="userSpaceOnUse"
       gradientTransform="rotate(-90,432,68)" />
    <linearGradient
       inkscape:collect="always"
       xlink:href="#outerBackgroundGradient-0"
       id="linearGradient4262"
       x1="292"
       y1="244"
       x2="332"
       y2="244"
       gradientUnits="userSpaceOnUse"
       gradientTransform="rotate(-90,312,244)" />
    <linearGradient
       inkscape:collect="always"
       xlink:href="#outerBackgroundGradient-0"
       id="linearGradient4264"
       x1="293"
       y1="76"
       x2="379"
       y2="76"
       gradientUnits="userSpaceOnUse"
       gradientTransform="rotate(-90,336,76)" />
    <linearGradient
       inkscape:collect="always"
       xlink:href="#outerBackgroundGradient-0"
       id="linearGradient4266"
       x1="291"
       y1="172"
       x2="349"
       y2="172"
       gradientUnits="userSpaceOnUse"
       gradientTransform="rotate(-90,320,172)" />
    <linearGradient
       inkscape:collect="always"
       xlink:href="#outerBackgroundGradient-0"
       id="linearGradient3870"
       gradientUnits="userSpaceOnUse"
       gradientTransform="rotate(-90,428,112)"
       x1="418"
       y1="112"
       x2="438"
       y2="112" />
    <linearGradient
       id="outerBackgroundGradient-0">
      <stop
         style="stop-color:#53a93f;stop-opacity:1"
         offset="0"
         id="stop3864-8-6-9" />
      <stop
         style="stop-color:#67c850;stop-opacity:1"
         offset="1"
         id="stop3866-9-1-2" />
    </linearGradient>
  </defs>
  <metadata
     id="metadata4">
    <rdf:RDF>
      <cc:Work
         rdf:about="">
        <dc:format>image/svg+xml</dc:format>
        <dc:type
           rdf:resource="http://purl.org/dc/dcmitype/StillImage" />
        <dc:creator>
          <cc:Agent>
            <dc:title>Alfredo Hernández</dc:title>
          </cc:Agent>
        </dc:creator>
        <dc:source />
        <cc:license
           rdf:resource="" />
        <dc:title />
        <dc:subject>
          <rdf:Bag />
        </dc:subject>
        <dc:date />
        <dc:rights>
          <cc:Agent>
            <dc:title />
          </cc:Agent>
        </dc:rights>
        <dc:publisher>
          <cc:Agent>
            <dc:title />
          </cc:Agent>
        </dc:publisher>
        <dc:identifier />
        <dc:relation />
        <dc:language />
        <dc:coverage />
        <dc:description />
        <dc:contributor>
          <cc:Agent>
            <dc:title />
          </cc:Agent>
        </dc:contributor>
      </cc:Work>
      <cc:Work
         rdf:about="">
        <dc:format>image/svg+xml</dc:format>
        <dc:type
           rdf:resource="http://purl.org/dc/dcmitype/StillImage" />
      </cc:Work>
    </rdf:RDF>
  </metadata>
  <g
     style="display:inline"
     inkscape:groupmode="layer"
     inkscape:label="Icon"
     id="layer1">
    <g
       style="display:none"
       inkscape:label="Baseplate"
       id="layer7"
       inkscape:groupmode="layer">
      <text
         y="19.745117"
         xml:space="preserve"
         x="15.006836"
         style="font-style:normal;font-variant:normal;font-weight:normal;font-stretch:normal;line-height:0%;font-family:'DejaVu Sans';-inkscape-font-specification:'DejaVu Sans';display:inline;fill:#000000;fill-opacity:1;stroke:none;enable-background:new"
         inkscape:label="context"
         id="context"><tspan
           style="font-style:normal;font-variant:normal;font-weight:normal;font-stretch:normal;font-size:18px;line-height:1.25;font-family:'DejaVu Sans';-inkscape-font-specification:'DejaVu Sans'"
           y="19.745117"
           x="15.006836"
           sodipodi:role="line"
           id="tspan3933">apps</tspan></text>
      <text
         y="19.745117"
         xml:space="preserve"
         x="122.48828"
         style="font-style:normal;font-variant:normal;font-weight:bold;font-stretch:normal;line-height:0%;font-family:'DejaVu Sans';-inkscape-font-specification:'DejaVu Sans Bold';text-align:start;writing-mode:lr-tb;text-anchor:start;display:inline;fill:#000000;fill-opacity:1;stroke:none;enable-background:new"
         inkscape:label="icon-name"
         id="icon-name"><tspan
           style="font-style:normal;font-variant:normal;font-weight:bold;font-stretch:normal;font-size:18px;line-height:1.25;font-family:'DejaVu Sans';-inkscape-font-specification:'DejaVu Sans Bold'"
           y="19.745117"
           x="122.48828"
           sodipodi:role="line"
           id="tspan3937">urserver</tspan></text>
      <rect
         style="display:inline;overflow:visible;visibility:visible;fill:#eeeeec;fill-opacity:1;fill-rule:nonzero;stroke:none;stroke-width:2;marker:none;enable-background:accumulate"
         id="rect16x16"
         width="16"
         height="16"
         x="416"
         y="140"
         inkscape:label="16x16" />
      <rect
         style="display:inline;overflow:visible;visibility:visible;fill:#d4d4d4;fill-opacity:1;fill-rule:nonzero;stroke:none;stroke-width:2;marker:none;enable-background:accumulate"
         id="rect24x24"
         width="24"
         height="24"
         x="416"
         y="100"
         inkscape:label="24x24" />
      <rect
         style="display:inline;overflow:visible;visibility:visible;fill:#eeeeec;fill-opacity:1;fill-rule:nonzero;stroke:none;stroke-width:2;marker:none;enable-background:accumulate"
         id="rect32x32"
         width="32"
         height="32"
         x="416"
         y="52"
         inkscape:label="32x32" />
      <rect
         inkscape:label="22x22"
         y="101"
         x="417"
         height="22"
         width="22"
         id="rect22x22"
         style="display:inline;overflow:visible;visibility:visible;fill:#eeeeec;fill-opacity:1;fill-rule:nonzero;stroke:none;stroke-width:2;marker:none;enable-background:accumulate" />
      <rect
         inkscape:label="48x48"
         y="220"
         x="288"
         height="48"
         width="48"
         id="rect48x48"
         style="display:inline;overflow:visible;visibility:visible;fill:#eeeeec;fill-opacity:1;fill-rule:nonzero;stroke:none;stroke-width:2;marker:none;enable-background:accumulate" />
      <rect
         style="display:inline;overflow:visible;visibility:visible;fill:#eeeeec;fill-opacity:1;fill-rule:nonzero;stroke:none;stroke-width:2;marker:none;enable-background:accumulate"
         id="rect256x256"
         width="256"
         height="256"
         x="16"
         y="28"
         inkscape:label="256x256" />
      <rect
         style="display:inline;overflow:visible;visibility:visible;fill:#eeeeec;fill-opacity:1;fill-rule:nonzero;stroke:none;stroke-width:2;marker:none;enable-background:accumulate"
         id="rect64x64"
         width="64"
         height="64"
         x="288"
         y="140"
         inkscape:label="64x64" />
      <rect
         style="display:inline;overflow:visible;visibility:visible;fill:#eeeeec;fill-opacity:1;fill-rule:nonzero;stroke:none;stroke-width:2;marker:none;enable-background:accumulate"
         id="rect96x96"
         width="96"
         height="96"
         x="288"
         y="28"
         inkscape:label="96x96" />
    </g>
    <g
       inkscape:groupmode="layer"
       id="layer4"
       inkscape:label="Shadow"
       style="display:inline"
       sodipodi:insensitive="true">
      <rect
         ry="50"
         y="47"
         x="34"
         height="220"
         width="220"
         id="rect4114"
         style="opacity:0.1;color:#bebebe;fill:#000000;fill-opacity:1;fill-rule:nonzero;stroke:none;stroke-width:0;marker:none;visibility:visible;display:inline;overflow:visible;enable-background:accumulate" />
      <rect
         style="opacity:0.1;color:#bebebe;fill:#000000;fill-opacity:1;fill-rule:nonzero;stroke:none;stroke-width:0;marker:none;visibility:visible;display:inline;overflow:visible;enable-background:accumulate"
         id="rect4120"
         width="30"
         height="30"
         x="417"
         y="54"
         ry="7" />
      <rect
         transform="scale(1,-1)"
         ry="9"
         y="-266"
         x="291"
         height="42"
         width="42"
         id="rect4122"
         style="opacity:0.1;color:#bebebe;fill:#000000;fill-opacity:1;fill-rule:nonzero;stroke:none;stroke-width:0;marker:none;visibility:visible;display:inline;overflow:visible;enable-background:accumulate" />
      <rect
         style="opacity:0.1;color:#bebebe;fill:#000000;fill-opacity:1;fill-rule:nonzero;stroke:none;stroke-width:0;marker:none;visibility:visible;display:inline;overflow:visible;enable-background:accumulate"
         id="rect4124"
         width="88"
         height="88"
         x="292"
         y="33"
         ry="18" />
      <rect
         ry="12.5"
         y="143"
         x="290"
         height="60"
         width="60"
         id="rect4126"
         style="opacity:0.1;color:#bebebe;fill:#000000;fill-opacity:1;fill-rule:nonzero;stroke:none;stroke-width:0;marker:none;visibility:visible;display:inline;overflow:visible;enable-background:accumulate" />
      <path
         id="path4268"
         d="m 422,101 c -2.77,0 -5,2.23 -5,5 l 0,12 c 0,2.77 2.23,5 5,5 l 12,0 c 2.77,0 5,-2.23 5,-5 l 0,-12 c 0,-2.77 -2.23,-5 -5,-5 z"
         style="opacity:0.1;color:#bebebe;fill:#000000;fill-opacity:1;fill-rule:nonzero;stroke:none;stroke-width:0;marker:none;visibility:visible;display:inline;overflow:visible;enable-background:accumulate"
         inkscape:connector-curvature="0"
         sodipodi:nodetypes="sssssssss" />
      <path
         id="path4270"
         d="m 419,140 c -1.662,0 -3,1.338 -3,3 l 0,10 c 0,1.662 1.338,3 3,3 l 10,0 c 1.662,0 3,-1.338 3,-3 l 0,-10 c 0,-1.662 -1.338,-3 -3,-3 z"
         style="opacity:0.1;color:#bebebe;fill:#000000;fill-opacity:1;fill-rule:nonzero;stroke:none;stroke-width:0;marker:none;visibility:visible;display:inline;overflow:visible;enable-background:accumulate"
         inkscape:connector-curvature="0"
         sodipodi:nodetypes="sssssssss" />
    </g>
    <g
       inkscape:groupmode="layer"
       id="layer2"
       inkscape:label="Background"
       style="display:inline">
      <path
         style="color:#bebebe;fill:url(#linearGradient4254);fill-opacity:1.0;fill-rule:nonzero;stroke:none;stroke-width:2;marker:none;visibility:visible;display:inline;overflow:visible;enable-background:accumulate"
         d="M 84 46.5 C 56.568735 46.5 34.5 68.568732 34.5 96 L 34.5 216 C 34.5 243.43127 56.568735 265.5 84 265.5 L 204 265.5 C 231.43127 265.5 253.5 243.43127 253.5 216 L 253.5 96 C 253.5 68.568732 231.43127 46.5 204 46.5 L 84 46.5 z "
         id="path4200" />
      <path
         style="color:#bebebe;fill:url(#linearGradient4256);fill-opacity:1.0;fill-rule:nonzero;stroke:none;stroke-width:2;marker:none;visibility:visible;display:inline;overflow:visible;enable-background:accumulate"
         d="M 419 140.5 C 417.6156 140.5 416.5 141.6156 416.5 143 L 416.5 153 C 416.5 154.3844 417.6156 155.5 419 155.5 L 429 155.5 C 430.3844 155.5 431.5 154.3844 431.5 153 L 431.5 143 C 431.5 141.6156 430.3844 140.5 429 140.5 L 419 140.5 z "
         id="path4202" />
      <path
         style="color:#bebebe;fill:url(#linearGradient3870);fill-opacity:1.0;fill-rule:nonzero;stroke:none;stroke-width:2;marker:none;visibility:visible;display:inline;overflow:visible;enable-background:accumulate"
         d="M 422 101.5 C 419.50301 101.5 417.5 103.50301 417.5 106 L 417.5 118 C 417.5 120.49699 419.50301 122.5 422 122.5 L 434 122.5 C 436.49699 122.5 438.5 120.49699 438.5 118 L 438.5 106 C 438.5 103.50301 436.49699 101.5 434 101.5 L 422 101.5 z "
         id="path4204" />
      <path
         style="color:#bebebe;fill:url(#linearGradient4260);fill-opacity:1.0;fill-rule:nonzero;stroke:none;stroke-width:2;marker:none;visibility:visible;display:inline;overflow:visible;enable-background:accumulate"
         d="M 424 53.5 C 420.39346 53.5 417.5 56.393464 417.5 60 L 417.5 76 C 417.5 79.606536 420.39346 82.5 424 82.5 L 440 82.5 C 443.60654 82.5 446.5 79.606536 446.5 76 L 446.5 60 C 446.5 56.393464 443.60654 53.5 440 53.5 L 424 53.5 z "
         id="path4206" />
      <path
         style="color:#bebebe;fill:url(#linearGradient4262);fill-opacity:1.0;fill-rule:nonzero;stroke:none;stroke-width:2;marker:none;visibility:visible;display:inline;overflow:visible;enable-background:accumulate"
         d="M 300 223.5 C 295.28469 223.5 291.5 227.28469 291.5 232 L 291.5 256 C 291.5 260.71531 295.28469 264.5 300 264.5 L 324 264.5 C 328.71531 264.5 332.5 260.71531 332.5 256 L 332.5 232 C 332.5 227.28469 328.71531 223.5 324 223.5 L 300 223.5 z "
         id="path4208" />
      <path
         style="color:#bebebe;fill:url(#linearGradient4264);fill-opacity:1.0;fill-rule:nonzero;stroke:none;stroke-width:2;marker:none;visibility:visible;display:inline;overflow:visible;enable-background:accumulate"
         d="M 310 32.5 C 300.29745 32.5 292.5 40.297452 292.5 50 L 292.5 102 C 292.5 111.70255 300.29745 119.5 310 119.5 L 362 119.5 C 371.70255 119.5 379.5 111.70255 379.5 102 L 379.5 50 C 379.5 40.297452 371.70255 32.5 362 32.5 L 310 32.5 z "
         id="path4210" />
      <path
         style="color:#bebebe;fill:url(#linearGradient4266);fill-opacity:1.0;fill-rule:nonzero;stroke:none;stroke-width:2;marker:none;visibility:visible;display:inline;overflow:visible;enable-background:accumulate"
         d="M 302.5 142.5 C 295.84498 142.5 290.5 147.84498 290.5 154.5 L 290.5 189.5 C 290.5 196.15502 295.84498 201.5 302.5 201.5 L 337.5 201.5 C 344.15502 201.5 349.5 196.15502 349.5 189.5 L 349.5 154.5 C 349.5 147.84498 344.15502 142.5 337.5 142.5 L 302.5 142.5 z "
         id="path4212" />
    </g>
    <g
       inkscape:groupmode="layer"
       id="layer6"
       inkscape:label="Symbols"
       style="display:inline">
      <g
         id="g4853"
         transform="translate(0,279)">
        <g
           id="g4340"
           style="display:inline;enable-background:new"
           transform="translate(1.2328101e-6,-279)">
          <path
             inkscape:connector-curvature="0"
             id="path4326"
             d="m 104.49177,221.89138 c -13.826768,-0.91835 -25.534438,-13.43213 -25.474018,-27.37147 -0.5918,-15.44462 13.70648,-29.29096 29.067348,-28.03778 15.83757,0.11659 29.00034,16.09785 26.23373,31.74404 -1.82358,14.2975 -15.66591,24.9741 -29.82706,23.66521 z m 44.87051,-9.31274 c 7.43108,-17.22365 3.40904,-38.80504 -10.40241,-51.62496 -13.00574,-12.98218 -33.83244,-16.55059 -50.579578,-9.26899 -0.12154,-6.56108 -0.003,-13.12464 0.006,-19.68678 21.962058,-6.42293 47.280668,-0.71866 63.527408,15.71868 17.23824,16.05024 23.82591,42.06624 17.1643,64.58385 -6.47936,0.65918 -13.16961,0.23621 -19.71612,0.2782 z m 39.1895,-0.15287 c 3.82749,-18.6058 1.7309,-38.51925 -6.94407,-55.50526 -12.47541,-25.51703 -38.69155,-43.48681 -66.8898,-45.92683 -8.77829,-0.97046 -17.634508,-0.11403 -26.263248,1.60893 -1.52691,-10.87218 8.48248,-21.502924 19.424668,-20.295983 32.91378,-0.06895 65.03722,17.369553 83.41705,44.723963 11.96466,17.95221 18.88016,39.92133 17.01061,61.59389 -2.16097,8.63328 -10.92994,14.94513 -19.75521,13.80129 z m 19.28223,-84.44412 c -9.4317,-14.35294 -21.93586,-26.66085 -36.40884,-35.855034 8.12781,0.199611 16.38923,-0.796168 24.39937,0.796759 8.68414,2.526456 13.98483,11.707695 13.07418,20.546425 0.0396,5.38226 -0.0287,10.7645 -0.0504,16.14671 -0.3381,-0.54492 -0.67621,-1.09004 -1.01432,-1.63486 z"
             style="display:inline;opacity:0.2;fill:#000000;fill-opacity:1;enable-background:new" />
          <path
             inkscape:connector-curvature="0"
             id="path4328"
             d="m 320.19671,103.95655 c -5.53071,-0.36734 -10.21378,-5.372855 -10.18961,-10.948596 -0.23672,-6.177848 5.48259,-11.716384 11.62694,-11.21511 6.33503,0.04663 11.60013,6.439142 10.49349,12.697614 -0.72943,5.719002 -6.26636,9.989652 -11.93082,9.466092 z m 17.9482,-3.7251 c 2.97243,-6.889461 1.36362,-15.522019 -4.16095,-20.649984 -5.20231,-5.192876 -13.53299,-6.62024 -20.23185,-3.707599 -0.0486,-2.624429 -9.9e-4,-5.249859 0.002,-7.874715 8.78483,-2.569168 18.91227,-0.28746 25.41097,6.287479 6.89529,6.42009 9.53036,16.826492 6.86572,25.833539 -2.59175,0.26367 -5.26785,0.0945 -7.88645,0.11128 z m 15.6758,-0.0611 c 1.53099,-7.442328 0.69236,-15.407704 -2.77763,-22.202112 -4.99016,-10.206811 -15.47662,-17.394721 -26.75592,-18.370727 -3.51131,-0.388183 -7.0538,-0.04562 -10.5053,0.64357 -0.61076,-4.348873 3.393,-8.601169 7.76987,-8.118392 13.16551,-0.02758 26.01489,6.94782 33.36682,17.889585 4.78586,7.180882 7.55206,15.96853 6.80424,24.637554 -0.86439,3.453316 -4.37197,5.978052 -7.90208,5.520522 z m 7.71289,-33.777654 c -3.77268,-5.741173 -8.77434,-10.664339 -14.56353,-14.342012 3.25112,0.07985 6.55569,-0.318466 9.75974,0.318704 3.47366,1.010582 5.59393,4.683076 5.22968,8.218569 0.0158,2.152906 -0.0114,4.305797 -0.0202,6.458682 -0.13524,-0.217969 -0.27047,-0.436014 -0.40573,-0.653943 z"
             style="display:inline;opacity:0.2;fill:#000000;fill-opacity:1;enable-background:new" />
          <path
             inkscape:connector-curvature="0"
             id="path4330"
             d="m 308.45144,191.96821 c -4.04167,-0.26844 -7.46391,-3.92632 -7.44625,-8.0009 -0.17299,-4.51458 4.00651,-8.56197 8.49661,-8.19565 4.62944,0.0341 8.47702,4.70552 7.66832,9.27902 -0.53305,4.17927 -4.57926,7.30013 -8.71868,6.91753 z m 13.11599,-2.72219 c 2.17217,-5.03461 0.9965,-11.34301 -3.04069,-15.09037 -3.80169,-3.7948 -9.88949,-4.83787 -14.78481,-2.7094 -0.0355,-1.91786 -7.3e-4,-3.83644 10e-4,-5.7546 6.41968,-1.87747 13.8205,-0.21007 18.56955,4.5947 5.03887,4.6916 6.9645,12.29628 5.01726,18.87835 -1.89397,0.19268 -3.84958,0.0691 -5.76317,0.0813 z m 11.4554,-0.0446 c 1.1188,-5.43862 0.50595,-11.25948 -2.02981,-16.22461 -3.64665,-7.45883 -11.30984,-12.71154 -19.5524,-13.42477 -2.56596,-0.28367 -5.1547,-0.0333 -7.67695,0.4703 -0.44633,-3.17802 2.4795,-6.28547 5.67798,-5.93267 9.62095,-0.0202 19.01088,5.07726 24.38344,13.07316 3.49736,5.24756 5.51882,11.66931 4.97233,18.00437 -0.63167,2.52357 -3.1949,4.36857 -5.77459,4.03423 z m 5.63634,-24.68367 c -2.75696,-4.19547 -6.41202,-7.79317 -10.64258,-10.4807 2.37582,0.0583 4.7907,-0.23272 7.13212,0.2329 2.53844,0.7385 4.08787,3.42225 3.82169,6.00587 0.0115,1.57328 -0.008,3.14655 -0.0148,4.71982 -0.0988,-0.15929 -0.19766,-0.31863 -0.2965,-0.47789 z"
             style="display:inline;opacity:0.2;fill:#000000;fill-opacity:1;enable-background:new" />
          <path
             inkscape:connector-curvature="0"
             id="path4332"
             d="m 304.09835,257.97828 c -2.76535,-0.18367 -5.10689,-2.68642 -5.0948,-5.47429 -0.11837,-3.08893 2.74129,-5.8582 5.81347,-5.60756 3.1675,0.0233 5.80006,3.21957 5.24674,6.34881 -0.36472,2.85949 -3.13318,4.99482 -5.96541,4.73304 z m 8.9741,-1.86255 c 1.48622,-3.44472 0.68181,-7.761 -2.08047,-10.32499 -2.60116,-2.59644 -6.7665,-3.31012 -10.11594,-1.8538 -0.0243,-1.31222 -4.8e-4,-2.62494 0.001,-3.93736 4.39242,-1.28459 9.45613,-0.14373 12.70548,3.14374 3.44765,3.21004 4.76519,8.41325 3.43286,12.91677 -1.29587,0.13183 -2.63392,0.0472 -3.94322,0.0556 z m 7.8379,-0.0306 c 0.7655,-3.72115 0.34618,-7.70384 -1.38882,-11.10104 -2.49507,-5.10341 -7.73831,-8.69736 -13.37796,-9.18537 -1.75565,-0.19409 -3.5269,-0.0228 -5.25264,0.32179 -0.30539,-2.17444 1.69649,-4.30059 3.88493,-4.0592 6.58276,-0.0138 13.00745,3.47391 16.68341,8.94479 2.39293,3.59045 3.77603,7.98427 3.40212,12.31878 -0.43219,1.72666 -2.18599,2.98902 -3.95104,2.76026 z m 3.85645,-16.88881 c -1.88635,-2.87059 -4.38718,-5.33217 -7.28177,-7.17102 1.62556,0.0399 3.27785,-0.15923 4.87987,0.15936 1.73683,0.50529 2.79697,2.34153 2.61484,4.10928 0.008,1.07645 -0.006,2.1529 -0.0101,3.22934 -0.0676,-0.10898 -0.13523,-0.218 -0.20286,-0.32696 z"
             style="display:inline;opacity:0.2;fill:#000000;fill-opacity:1;enable-background:new" />
          <path
             inkscape:connector-curvature="0"
             id="path4334"
             d="m 425.92181,79.98328 c -2.1272,-0.141285 -3.92838,-2.066481 -3.91908,-4.210996 -0.091,-2.376096 2.10869,-4.506302 4.4719,-4.313504 2.43655,0.01793 4.46159,2.476592 4.03596,4.883697 -0.28055,2.199616 -2.41014,3.842171 -4.58878,3.640803 z m 6.90316,-1.43273 c 1.14324,-2.649792 0.52446,-5.970006 -1.60037,-7.9423 -2.00089,-1.99726 -5.20499,-2.546247 -7.78148,-1.426 -0.0187,-1.009396 -3.8e-4,-2.019177 6.7e-4,-3.028737 3.37878,-0.988141 7.27395,-0.110561 9.77345,2.418261 2.65203,2.469266 3.66552,6.471728 2.64066,9.935976 -0.99683,0.101412 -2.02609,0.03634 -3.03325,0.0428 z m 6.02915,-0.02352 c 0.58884,-2.862431 0.26629,-5.926037 -1.06832,-8.539271 -1.91929,-3.925696 -5.95255,-6.690277 -10.29074,-7.065664 -1.3505,-0.149302 -2.713,-0.01755 -4.0405,0.247527 -0.23491,-1.672644 1.305,-3.308142 2.98841,-3.122459 5.06366,-0.01061 10.00573,2.672239 12.8334,6.880609 1.84071,2.761878 2.90464,6.141743 2.61701,9.475983 -0.33245,1.328199 -1.68153,2.299252 -3.03926,2.123277 z m 2.96649,-12.991403 c -1.45102,-2.208143 -3.37474,-4.101668 -5.60135,-5.516158 1.25043,0.03071 2.52142,-0.122487 3.75375,0.122578 1.33602,0.388686 2.1515,1.801184 2.01141,3.160988 0.006,0.828041 -0.005,1.656076 -0.008,2.484109 -0.052,-0.08383 -0.10403,-0.167697 -0.15606,-0.251517 z"
             style="display:inline;opacity:0.2;fill:#000000;fill-opacity:1;enable-background:new" />
          <path
             inkscape:connector-curvature="0"
             id="path4336"
             d="m 423.74527,119.98831 c -1.48904,-0.0989 -2.74987,-1.44654 -2.74336,-2.9477 -0.0637,-1.66327 1.47608,-3.15441 3.13033,-3.01945 1.70559,0.0125 3.12311,1.73361 2.82517,3.41859 -0.19638,1.53973 -1.6871,2.68952 -3.21214,2.54856 z m 4.83221,-1.00291 c 0.80027,-1.85486 0.36712,-4.17901 -1.12026,-5.55961 -1.40062,-1.39809 -3.6435,-1.78238 -5.44704,-0.9982 -0.0131,-0.70658 -2.6e-4,-1.41343 5.4e-4,-2.12012 2.36515,-0.6917 5.09177,-0.0774 6.84142,1.69278 1.85642,1.72849 2.56586,4.53021 1.84846,6.95519 -0.69778,0.071 -1.41827,0.0254 -2.12328,0.03 z m 4.2204,-0.0165 c 0.41219,-2.00371 0.18641,-4.14823 -0.74782,-5.97749 -1.3435,-2.74799 -4.16678,-4.6832 -7.20352,-4.94597 -0.94535,-0.10451 -1.8991,-0.0123 -2.82835,0.17327 -0.16443,-1.17085 0.9135,-2.3157 2.09189,-2.18572 3.54456,-0.007 7.00401,1.87057 8.98338,4.81643 1.2885,1.93331 2.03324,4.29922 1.83191,6.63318 -0.23272,0.92974 -1.17707,1.60948 -2.12749,1.4863 z m 2.07655,-9.09398 c -1.01572,-1.54571 -2.36232,-2.87117 -3.92095,-3.86132 0.8753,0.0215 1.76499,-0.0857 2.62762,0.0858 0.93522,0.27208 1.50606,1.26083 1.40799,2.21269 0.004,0.57963 -0.003,1.15925 -0.005,1.73888 -0.0364,-0.0587 -0.0728,-0.11739 -0.10924,-0.17606 z"
             style="display:inline;opacity:0.2;fill:#000000;fill-opacity:1;enable-background:new" />
          <path
             inkscape:connector-curvature="0"
             id="path4338"
             d="m 420.9609,153.99168 c -1.0636,-0.0706 -1.96419,-1.03324 -1.95954,-2.1055 -0.0455,-1.18805 1.05434,-2.25315 2.23595,-2.15675 1.21827,0.009 2.23079,1.23829 2.01798,2.44185 -0.14028,1.09981 -1.20507,1.92108 -2.29439,1.8204 z m 3.45158,-0.71637 c 0.57162,-1.32489 0.26223,-2.985 -0.80019,-3.97115 -1.00044,-0.99863 -2.6025,-1.27312 -3.89074,-0.713 -0.009,-0.5047 -1.9e-4,-1.00959 3.8e-4,-1.51437 1.6894,-0.49407 3.63698,-0.0553 4.88673,1.20913 1.32602,1.23464 1.83277,3.23587 1.32033,4.96799 -0.49841,0.0507 -1.01304,0.0182 -1.51662,0.0214 z m 3.01458,-0.0118 c 0.29442,-1.43121 0.13314,-2.96302 -0.53416,-4.26963 -0.95965,-1.96285 -2.97628,-3.34515 -5.14538,-3.53284 -0.67525,-0.0746 -1.3565,-0.009 -2.02025,0.12376 -0.11745,-0.83632 0.6525,-1.65407 1.49421,-1.56123 2.53183,-0.005 5.00287,1.33612 6.4167,3.44031 0.92036,1.38094 1.45232,3.07088 1.30851,4.738 -0.16623,0.6641 -0.84077,1.14962 -1.51963,1.06163 z m 1.48324,-6.4957 c -0.72551,-1.10407 -1.68737,-2.05084 -2.80068,-2.75808 0.62522,0.0153 1.26071,-0.0613 1.87688,0.0613 0.66801,0.19434 1.07575,0.90059 1.00571,1.58049 0.003,0.41402 -0.002,0.82804 -0.004,1.24206 -0.026,-0.0419 -0.052,-0.0838 -0.078,-0.12576 z"
             style="display:inline;opacity:0.2;fill:#000000;fill-opacity:1;enable-background:new" />
        </g>
        <path
           inkscape:connector-curvature="0"
           id="path4201"
           d="m 104.49177,-58.10861 c -13.826767,-0.91835 -25.534437,-13.43213 -25.474017,-27.37147 -0.5918,-15.44462 13.70648,-29.29096 29.067347,-28.03778 15.83757,0.11659 29.00034,16.09785 26.23373,31.74404 -1.82358,14.2975 -15.66591,24.9741 -29.82706,23.66521 z m 44.87051,-9.31274 c 7.43108,-17.22365 3.40904,-38.80504 -10.40241,-51.62496 -13.00574,-12.98218 -33.83244,-16.55059 -50.579577,-9.26899 -0.12154,-6.56108 -0.003,-13.12464 0.006,-19.68678 21.962057,-6.42293 47.280667,-0.71866 63.527407,15.71868 17.23824,16.05024 23.82591,42.06624 17.1643,64.58385 -6.47936,0.65918 -13.16961,0.23621 -19.71612,0.2782 z m 39.1895,-0.15287 c 3.82749,-18.6058 1.7309,-38.51925 -6.94407,-55.50526 -12.47541,-25.51703 -38.69155,-43.48681 -66.8898,-45.92683 -8.77829,-0.97046 -17.634507,-0.11403 -26.263247,1.60893 -1.52691,-10.87218 8.48248,-21.50292 19.424667,-20.29598 32.91378,-0.069 65.03722,17.36955 83.41705,44.72396 11.96466,17.95221 18.88016,39.92133 17.01061,61.59389 -2.16097,8.63328 -10.92994,14.94513 -19.75521,13.80129 z m 19.28223,-84.44412 c -9.4317,-14.35294 -21.93586,-26.66085 -36.40884,-35.85503 8.12781,0.19961 16.38923,-0.79617 24.39937,0.79676 8.68414,2.52645 13.98483,11.70769 13.07418,20.54642 0.0396,5.38226 -0.0287,10.7645 -0.0504,16.14671 -0.3381,-0.54492 -0.67621,-1.09004 -1.01432,-1.63486 z"
           style="display:inline;fill:#fefefe;fill-opacity:1;enable-background:new" />
        <path
           inkscape:connector-curvature="0"
           id="path4201-0"
           d="m 320.19671,-176.04344 c -5.53071,-0.36734 -10.21378,-5.37285 -10.18961,-10.94859 -0.23672,-6.17785 5.48259,-11.71639 11.62694,-11.21511 6.33503,0.0466 11.60013,6.43914 10.49349,12.69761 -0.72943,5.719 -6.26636,9.98965 -11.93082,9.46609 z m 17.9482,-3.7251 c 2.97243,-6.88946 1.36362,-15.52201 -4.16095,-20.64998 -5.20231,-5.19288 -13.53299,-6.62024 -20.23185,-3.7076 -0.0486,-2.62443 -9.9e-4,-5.24986 0.002,-7.87471 8.78483,-2.56917 18.91227,-0.28746 25.41097,6.28748 6.89529,6.42008 9.53036,16.82649 6.86572,25.83353 -2.59175,0.26367 -5.26785,0.0945 -7.88645,0.11128 z m 15.6758,-0.0611 c 1.53099,-7.44232 0.69236,-15.4077 -2.77763,-22.20211 -4.99016,-10.20681 -15.47662,-17.39472 -26.75592,-18.37072 -3.51131,-0.38819 -7.0538,-0.0456 -10.5053,0.64356 -0.61076,-4.34887 3.393,-8.60116 7.76987,-8.11839 13.16551,-0.0276 26.01489,6.94782 33.36682,17.88959 4.78586,7.18088 7.55206,15.96853 6.80424,24.63755 -0.86439,3.45332 -4.37197,5.97806 -7.90208,5.52052 z m 7.71289,-33.77765 c -3.77268,-5.74117 -8.77434,-10.66434 -14.56353,-14.34201 3.25112,0.0798 6.55569,-0.31847 9.75974,0.3187 3.47366,1.01058 5.59393,4.68308 5.22968,8.21857 0.0158,2.15291 -0.0114,4.3058 -0.0202,6.45868 -0.13524,-0.21797 -0.27047,-0.43601 -0.40573,-0.65394 z"
           style="display:inline;fill:#fefefe;fill-opacity:1;enable-background:new" />
        <path
           inkscape:connector-curvature="0"
           id="path4201-0-5"
           d="m 308.45144,-88.03178 c -4.04167,-0.26844 -7.46391,-3.92632 -7.44625,-8.0009 -0.17299,-4.51458 4.00651,-8.56197 8.49661,-8.19565 4.62944,0.0341 8.47702,4.70552 7.66832,9.27902 -0.53305,4.17927 -4.57926,7.30013 -8.71868,6.91753 z m 13.11599,-2.72219 c 2.17217,-5.03461 0.9965,-11.34301 -3.04069,-15.09037 -3.80169,-3.7948 -9.88949,-4.83787 -14.78481,-2.7094 -0.0355,-1.91786 -7.3e-4,-3.83644 10e-4,-5.7546 6.41968,-1.87747 13.8205,-0.21007 18.56955,4.5947 5.03887,4.6916 6.9645,12.29628 5.01726,18.87835 -1.89397,0.19268 -3.84958,0.0691 -5.76317,0.0813 z m 11.4554,-0.0446 c 1.1188,-5.43862 0.50595,-11.25948 -2.02981,-16.22461 -3.64665,-7.45883 -11.30984,-12.71154 -19.5524,-13.42477 -2.56596,-0.28367 -5.1547,-0.0333 -7.67695,0.4703 -0.44633,-3.17802 2.4795,-6.28547 5.67798,-5.93267 9.62095,-0.0202 19.01088,5.07726 24.38344,13.07316 3.49736,5.24756 5.51882,11.66931 4.97233,18.00437 -0.63167,2.52357 -3.1949,4.36857 -5.77459,4.03423 z m 5.63634,-24.68367 c -2.75696,-4.19547 -6.41202,-7.79317 -10.64258,-10.4807 2.37582,0.0583 4.7907,-0.23272 7.13212,0.2329 2.53844,0.7385 4.08787,3.42225 3.82169,6.00587 0.0115,1.57328 -0.008,3.14655 -0.0148,4.71982 -0.0988,-0.15929 -0.19766,-0.31863 -0.2965,-0.47789 z"
           style="display:inline;fill:#fefefe;fill-opacity:1;enable-background:new" />
        <path
           inkscape:connector-curvature="0"
           id="path4201-0-3"
           d="m 304.09835,-22.02171 c -2.76535,-0.18367 -5.10689,-2.68642 -5.0948,-5.47429 -0.11837,-3.08893 2.74129,-5.8582 5.81347,-5.60756 3.1675,0.0233 5.80006,3.21957 5.24674,6.34881 -0.36472,2.85949 -3.13318,4.99482 -5.96541,4.73304 z m 8.9741,-1.86255 c 1.48622,-3.44472 0.68181,-7.761 -2.08047,-10.32499 -2.60116,-2.59644 -6.7665,-3.31012 -10.11594,-1.8538 -0.0243,-1.31222 -4.8e-4,-2.62494 0.001,-3.93736 4.39242,-1.28459 9.45613,-0.14373 12.70548,3.14374 3.44765,3.21004 4.76519,8.41325 3.43286,12.91677 -1.29587,0.13183 -2.63392,0.0472 -3.94322,0.0556 z m 7.8379,-0.0306 c 0.7655,-3.72115 0.34618,-7.70384 -1.38882,-11.10104 -2.49507,-5.10341 -7.73831,-8.69736 -13.37796,-9.18537 -1.75565,-0.19409 -3.5269,-0.0228 -5.25264,0.32179 -0.30539,-2.17444 1.69649,-4.30059 3.88493,-4.0592 6.58276,-0.0138 13.00745,3.47391 16.68341,8.94479 2.39293,3.59045 3.77603,7.98427 3.40212,12.31878 -0.43219,1.72666 -2.18599,2.98902 -3.95104,2.76026 z m 3.85645,-16.88881 c -1.88635,-2.87059 -4.38718,-5.33217 -7.28177,-7.17102 1.62556,0.0399 3.27785,-0.15923 4.87987,0.15936 1.73683,0.50529 2.79697,2.34153 2.61484,4.10928 0.008,1.07645 -0.006,2.1529 -0.0101,3.22934 -0.0676,-0.10898 -0.13523,-0.218 -0.20286,-0.32696 z"
           style="display:inline;fill:#fefefe;fill-opacity:1;enable-background:new" />
        <path
           inkscape:connector-curvature="0"
           id="path4201-0-8"
           d="m 425.92181,-200.01671 c -2.1272,-0.14128 -3.92838,-2.06648 -3.91908,-4.21099 -0.091,-2.3761 2.10869,-4.5063 4.4719,-4.31351 2.43655,0.0179 4.46159,2.4766 4.03596,4.8837 -0.28055,2.19962 -2.41014,3.84217 -4.58878,3.6408 z m 6.90316,-1.43273 c 1.14324,-2.64979 0.52446,-5.97 -1.60037,-7.9423 -2.00089,-1.99726 -5.20499,-2.54624 -7.78148,-1.426 -0.0187,-1.00939 -3.8e-4,-2.01917 6.7e-4,-3.02873 3.37878,-0.98814 7.27395,-0.11056 9.77345,2.41826 2.65203,2.46926 3.66552,6.47173 2.64066,9.93597 -0.99683,0.10142 -2.02609,0.0363 -3.03325,0.0428 z m 6.02915,-0.0235 c 0.58884,-2.86243 0.26629,-5.92603 -1.06832,-8.53927 -1.91929,-3.92569 -5.95255,-6.69027 -10.29074,-7.06566 -1.3505,-0.1493 -2.713,-0.0175 -4.0405,0.24753 -0.23491,-1.67265 1.305,-3.30815 2.98841,-3.12246 5.06366,-0.0106 10.00573,2.67224 12.8334,6.88061 1.84071,2.76187 2.90464,6.14174 2.61701,9.47598 -0.33245,1.3282 -1.68153,2.29925 -3.03926,2.12328 z m 2.96649,-12.9914 c -1.45102,-2.20814 -3.37474,-4.10167 -5.60135,-5.51616 1.25043,0.0307 2.52142,-0.12248 3.75375,0.12258 1.33602,0.38869 2.1515,1.80118 2.01141,3.16099 0.006,0.82804 -0.005,1.65607 -0.008,2.48411 -0.052,-0.0838 -0.10403,-0.1677 -0.15606,-0.25152 z"
           style="display:inline;fill:#fefefe;fill-opacity:1;enable-background:new" />
        <path
           inkscape:connector-curvature="0"
           id="path4201-0-50"
           d="m 423.74527,-160.01168 c -1.48904,-0.0989 -2.74987,-1.44654 -2.74336,-2.9477 -0.0637,-1.66327 1.47608,-3.15441 3.13033,-3.01945 1.70559,0.0125 3.12311,1.73361 2.82517,3.41859 -0.19638,1.53973 -1.6871,2.68952 -3.21214,2.54856 z m 4.83221,-1.00291 c 0.80027,-1.85486 0.36712,-4.17901 -1.12026,-5.55961 -1.40062,-1.39809 -3.6435,-1.78238 -5.44704,-0.9982 -0.0131,-0.70658 -2.6e-4,-1.41343 5.4e-4,-2.12012 2.36515,-0.6917 5.09177,-0.0774 6.84142,1.69278 1.85642,1.72849 2.56586,4.53021 1.84846,6.95519 -0.69778,0.071 -1.41827,0.0254 -2.12328,0.03 z m 4.2204,-0.0165 c 0.41219,-2.00371 0.18641,-4.14823 -0.74782,-5.97749 -1.3435,-2.74799 -4.16678,-4.6832 -7.20352,-4.94597 -0.94535,-0.10451 -1.8991,-0.0123 -2.82835,0.17327 -0.16443,-1.17085 0.9135,-2.3157 2.09189,-2.18572 3.54456,-0.007 7.00401,1.87057 8.98338,4.81643 1.2885,1.93331 2.03324,4.29922 1.83191,6.63318 -0.23272,0.92974 -1.17707,1.60948 -2.12749,1.4863 z m 2.07655,-9.09398 c -1.01572,-1.54571 -2.36232,-2.87117 -3.92095,-3.86132 0.8753,0.0215 1.76499,-0.0857 2.62762,0.0858 0.93522,0.27208 1.50606,1.26083 1.40799,2.21269 0.004,0.57963 -0.003,1.15925 -0.005,1.73888 -0.0364,-0.0587 -0.0728,-0.11739 -0.10924,-0.17606 z"
           style="display:inline;fill:#fefefe;fill-opacity:1;enable-background:new" />
        <path
           inkscape:connector-curvature="0"
           id="path4201-0-57"
           d="m 420.9609,-126.00831 c -1.0636,-0.0706 -1.96419,-1.03324 -1.95954,-2.1055 -0.0455,-1.18805 1.05434,-2.25315 2.23595,-2.15675 1.21827,0.009 2.23079,1.23829 2.01798,2.44185 -0.14028,1.09981 -1.20507,1.92108 -2.29439,1.8204 z m 3.45158,-0.71637 c 0.57162,-1.32489 0.26223,-2.985 -0.80019,-3.97115 -1.00044,-0.99863 -2.6025,-1.27312 -3.89074,-0.713 -0.009,-0.5047 -1.9e-4,-1.00959 3.8e-4,-1.51437 1.6894,-0.49407 3.63698,-0.0553 4.88673,1.20913 1.32602,1.23464 1.83277,3.23587 1.32033,4.96799 -0.49841,0.0507 -1.01304,0.0182 -1.51662,0.0214 z m 3.01458,-0.0118 c 0.29442,-1.43121 0.13314,-2.96302 -0.53416,-4.26963 -0.95965,-1.96285 -2.97628,-3.34515 -5.14538,-3.53284 -0.67525,-0.0746 -1.3565,-0.009 -2.02025,0.12376 -0.11745,-0.83632 0.6525,-1.65407 1.49421,-1.56123 2.53183,-0.005 5.00287,1.33612 6.4167,3.44031 0.92036,1.38094 1.45232,3.07088 1.30851,4.738 -0.16623,0.6641 -0.84077,1.14962 -1.51963,1.06163 z m 1.48324,-6.4957 c -0.72551,-1.10407 -1.68737,-2.05084 -2.80068,-2.75808 0.62522,0.0153 1.26071,-0.0613 1.87688,0.0613 0.66801,0.19434 1.07575,0.90059 1.00571,1.58049 0.003,0.41402 -0.002,0.82804 -0.004,1.24206 -0.026,-0.0419 -0.052,-0.0838 -0.078,-0.12576 z"
           style="display:inline;fill:#fefefe;fill-opacity:1;enable-background:new" />
      </g>
    </g>
    <g
       inkscape:groupmode="layer"
       id="layer5"
       inkscape:label="Highlights"
       style="display:inline"
       sodipodi:insensitive="true">
      <path
         style="opacity:0.12999998;color:#bebebe;fill:#ffffff;fill-opacity:1;fill-rule:nonzero;stroke:none;stroke-width:0;marker:none;visibility:visible;display:inline;overflow:visible;enable-background:accumulate"
         d="M 84,47 C 56.836703,47 35,68.836703 35,96 l 0,1 C 35,69.836703 56.836703,48 84,48 l 120,0 c 27.1633,0 49,21.836703 49,49 l 0,-1 C 253,68.836703 231.1633,47 204,47 L 84,47 z"
         id="rect3894"
         inkscape:connector-curvature="0" />
      <path
         style="opacity:0.12999998;color:#bebebe;fill:#ffffff;fill-opacity:1;fill-rule:nonzero;stroke:none;stroke-width:0;marker:none;visibility:visible;display:inline;overflow:visible;enable-background:accumulate"
         d="m 419,141 c -1.1253,0 -2,0.8747 -2,2 l 0,1 c 0,-1.1253 0.8747,-2 2,-2 l 10,0 c 1.1253,0 2,0.8747 2,2 l 0,-1 c 0,-1.1253 -0.8747,-2 -2,-2 l -10,0 z"
         id="rect3896"
         inkscape:connector-curvature="0" />
      <path
         style="opacity:0.12999998;color:#bebebe;fill:#ffffff;fill-opacity:1;fill-rule:nonzero;stroke:none;stroke-width:0;marker:none;visibility:visible;display:inline;overflow:visible;enable-background:accumulate"
         d="m 422,102 c -2.2333,0 -4,1.7667 -4,4 l 0,1 c 0,-2.2333 1.7667,-4 4,-4 l 12,0 c 2.2333,0 4,1.7667 4,4 l 0,-1 c 0,-2.2333 -1.7667,-4 -4,-4 l -12,0 z"
         id="rect3898"
         inkscape:connector-curvature="0" />
      <path
         style="opacity:0.12999998;color:#bebebe;fill:#ffffff;fill-opacity:1;fill-rule:nonzero;stroke:none;stroke-width:0;marker:none;visibility:visible;display:inline;overflow:visible;enable-background:accumulate"
         d="m 424,54 c -3.3413,0 -6,2.658703 -6,6 l 0,1 c 0,-3.341297 2.6587,-6 6,-6 l 16,0 c 3.3413,0 6,2.658703 6,6 l 0,-1 c 0,-3.341297 -2.6587,-6 -6,-6 l -16,0 z"
         id="rect3900"
         inkscape:connector-curvature="0" />
      <path
         style="opacity:0.12999998;color:#bebebe;fill:#ffffff;fill-opacity:1;fill-rule:nonzero;stroke:none;stroke-width:0;marker:none;visibility:visible;display:inline;overflow:visible;enable-background:accumulate"
         d="m 300,224 c -4.4493,0 -8,3.5507 -8,8 l 0,1 c 0,-4.4493 3.5507,-8 8,-8 l 24,0 c 4.4493,0 8,3.5507 8,8 l 0,-1 c 0,-4.4493 -3.5507,-8 -8,-8 l -24,0 z"
         id="rect3902"
         inkscape:connector-curvature="0" />
      <path
         style="opacity:0.12999998;color:#bebebe;fill:#ffffff;fill-opacity:1;fill-rule:nonzero;stroke:none;stroke-width:0;marker:none;visibility:visible;display:inline;overflow:visible;enable-background:accumulate"
         d="m 310,33 c -9.4353,0 -17,7.564703 -17,17 l 0,1 c 0,-9.435297 7.5647,-17 17,-17 l 52,0 c 9.4353,0 17,7.564703 17,17 l 0,-1 c 0,-9.435297 -7.5647,-17 -17,-17 l -52,0 z"
         id="rect3904"
         inkscape:connector-curvature="0" />
      <path
         style="opacity:0.12999998;color:#bebebe;fill:#ffffff;fill-opacity:1;fill-rule:nonzero;stroke:none;stroke-width:0;marker:none;visibility:visible;display:inline;overflow:visible;enable-background:accumulate"
         d="m 302.5,143 c -6.3883,0 -11.5,5.1117 -11.5,11.5 l 0,1 c 0,-6.3883 5.1117,-11.5 11.5,-11.5 l 35,0 c 6.3883,0 11.5,5.1117 11.5,11.5 l 0,-1 c 0,-6.3883 -5.1117,-11.5 -11.5,-11.5 l -35,0 z"
         id="rect3906"
         inkscape:connector-curvature="0" />
      <path
         id="path4085"
         d="m 204,266 c 27.1633,0 49,-21.8367 49,-49 l 0,-1 c 0,27.1633 -21.8367,49 -49,49 L 84,265 C 56.8367,265 35,243.1633 35,216 l 0,1 c 0,27.1633 21.8367,49 49,49 l 120,0 z"
         style="opacity:0.41;color:#bebebe;fill:#000000;fill-opacity:1;fill-rule:nonzero;stroke:none;stroke-width:0;marker:none;visibility:visible;display:inline;overflow:visible;enable-background:accumulate"
         inkscape:connector-curvature="0" />
      <path
         id="path4087"
         d="m 429,156 c 1.1253,0 2,-0.8747 2,-2 l 0,-1 c 0,1.1253 -0.8747,2 -2,2 l -10,0 c -1.1253,0 -2,-0.8747 -2,-2 l 0,1 c 0,1.1253 0.8747,2 2,2 l 10,0 z"
         style="opacity:0.3;color:#bebebe;fill:#000000;fill-opacity:1;fill-rule:nonzero;stroke:none;stroke-width:0;marker:none;visibility:visible;display:inline;overflow:visible;enable-background:accumulate"
         inkscape:connector-curvature="0" />
      <path
         id="path4089"
         d="m 434,123 c 2.2333,0 4,-1.7667 4,-4 l 0,-1 c 0,2.2333 -1.7667,4 -4,4 l -12,0 c -2.2333,0 -4,-1.7667 -4,-4 l 0,1 c 0,2.2333 1.7667,4 4,4 l 12,0 z"
         style="opacity:0.3;color:#bebebe;fill:#000000;fill-opacity:1;fill-rule:nonzero;stroke:none;stroke-width:0;marker:none;visibility:visible;display:inline;overflow:visible;enable-background:accumulate"
         inkscape:connector-curvature="0" />
      <path
         id="path4091"
         d="m 440,83 c 3.3413,0 6,-2.6587 6,-6 l 0,-1 c 0,3.3413 -2.6587,6 -6,6 l -16,0 c -3.3413,0 -6,-2.6587 -6,-6 l 0,1 c 0,3.3413 2.6587,6 6,6 l 16,0 z"
         style="opacity:0.41;color:#bebebe;fill:#000000;fill-opacity:1;fill-rule:nonzero;stroke:none;stroke-width:0;marker:none;visibility:visible;display:inline;overflow:visible;enable-background:accumulate"
         inkscape:connector-curvature="0" />
      <path
         id="path4093"
         d="m 324,265 c 4.4493,0 8,-3.5507 8,-8 l 0,-1 c 0,4.4493 -3.5507,8 -8,8 l -24,0 c -4.4493,0 -8,-3.5507 -8,-8 l 0,1 c 0,4.4493 3.5507,8 8,8 l 24,0 z"
         style="opacity:0.41;color:#bebebe;fill:#000000;fill-opacity:1;fill-rule:nonzero;stroke:none;stroke-width:0;marker:none;visibility:visible;display:inline;overflow:visible;enable-background:accumulate"
         inkscape:connector-curvature="0" />
      <path
         id="path4095"
         d="m 362,120 c 9.4353,0 17,-7.5647 17,-17 l 0,-1 c 0,9.4353 -7.5647,17 -17,17 l -52,0 c -9.4353,0 -17,-7.5647 -17,-17 l 0,1 c 0,9.4353 7.5647,17 17,17 l 52,0 z"
         style="opacity:0.41;color:#bebebe;fill:#000000;fill-opacity:1;fill-rule:nonzero;stroke:none;stroke-width:0;marker:none;visibility:visible;display:inline;overflow:visible;enable-background:accumulate"
         inkscape:connector-curvature="0" />
      <path
         id="path4097"
         d="m 337.5,202 c 6.3883,0 11.5,-5.1117 11.5,-11.5 l 0,-1 c 0,6.3883 -5.1117,11.5 -11.5,11.5 l -35,0 c -6.3883,0 -11.5,-5.1117 -11.5,-11.5 l 0,1 c 0,6.3883 5.1117,11.5 11.5,11.5 l 35,0 z"
         style="opacity:0.41;color:#bebebe;fill:#000000;fill-opacity:1;fill-rule:nonzero;stroke:none;stroke-width:0;marker:none;visibility:visible;display:inline;overflow:visible;enable-background:accumulate"
         inkscape:connector-curvature="0" />
      <path
         inkscape:connector-curvature="0"
         id="path4280"
         d="M 84,265 C 56.836703,265 35,243.1633 35,216 l 0,-1 c 0,27.1633 21.836703,49 49,49 l 120,0 c 27.1633,0 49,-21.8367 49,-49 l 0,1 c 0,27.1633 -21.8367,49 -49,49 l -120,0 z"
         style="opacity:0.1;color:#bebebe;fill:#ffffff;fill-opacity:1;fill-rule:nonzero;stroke:none;stroke-width:0;marker:none;visibility:visible;display:inline;overflow:visible;enable-background:accumulate" />
      <path
         style="opacity:0.1;color:#bebebe;fill:#ffffff;fill-opacity:1;fill-rule:nonzero;stroke:none;stroke-width:0;marker:none;visibility:visible;display:inline;overflow:visible;enable-background:accumulate"
         d="m 300,264 c -4.4493,0 -8,-3.5507 -8,-8 l 0,-1 c 0,4.4493 3.5507,8 8,8 l 24,0 c 4.4493,0 8,-3.5507 8,-8 l 0,1 c 0,4.4493 -3.5507,8 -8,8 l -24,0 z"
         id="path4294"
         inkscape:connector-curvature="0" />
      <path
         style="opacity:0.1;color:#bebebe;fill:#ffffff;fill-opacity:1;fill-rule:nonzero;stroke:none;stroke-width:0;marker:none;visibility:visible;display:inline;overflow:visible;enable-background:accumulate"
         d="m 302.5,201 c -6.3883,0 -11.5,-5.1117 -11.5,-11.5 l 0,-1 c 0,6.3883 5.1117,11.5 11.5,11.5 l 35,0 c 6.3883,0 11.5,-5.1117 11.5,-11.5 l 0,1 c 0,6.3883 -5.1117,11.5 -11.5,11.5 l -35,0 z"
         id="path4296"
         inkscape:connector-curvature="0" />
      <path
         style="opacity:0.1;color:#bebebe;fill:#ffffff;fill-opacity:1;fill-rule:nonzero;stroke:none;stroke-width:0;marker:none;visibility:visible;display:inline;overflow:visible;enable-background:accumulate"
         d="m 310,119 c -9.4353,0 -17,-7.5647 -17,-17 l 0,-1 c 0,9.4353 7.5647,17 17,17 l 52,0 c 9.4353,0 17,-7.5647 17,-17 l 0,1 c 0,9.4353 -7.5647,17 -17,17 l -52,0 z"
         id="path4298"
         inkscape:connector-curvature="0" />
      <path
         style="opacity:0.1;color:#bebebe;fill:#ffffff;fill-opacity:1;fill-rule:nonzero;stroke:none;stroke-width:0;marker:none;visibility:visible;display:inline;overflow:visible;enable-background:accumulate"
         d="m 424,82 c -3.3413,0 -6,-2.658703 -6,-6 l 0,-1 c 0,3.341297 2.6587,6 6,6 l 16,0 c 3.3413,0 6,-2.658703 6,-6 l 0,1 c 0,3.341297 -2.6587,6 -6,6 l -16,0 z"
         id="path4300"
         inkscape:connector-curvature="0" />
      <path
         style="opacity:0.1;color:#bebebe;fill:#ffffff;fill-opacity:1;fill-rule:nonzero;stroke:none;stroke-width:0;marker:none;visibility:visible;display:inline;overflow:visible;enable-background:accumulate"
         d="m 422,122 c -2.2333,0 -4,-1.7667 -4,-4 l 0,-1 c 0,2.2333 1.7667,4 4,4 l 12,0 c 2.2333,0 4,-1.7667 4,-4 l 0,1 c 0,2.2333 -1.7667,4 -4,4 l -12,0 z"
         id="path4302"
         inkscape:connector-curvature="0" />
      <path
         style="opacity:0.1;color:#bebebe;fill:#ffffff;fill-opacity:1;fill-rule:nonzero;stroke:none;stroke-width:0;marker:none;visibility:visible;display:inline;overflow:visible;enable-background:accumulate"
         d="m 419,154.5 c -1.1253,0 -2,-0.8747 -2,-2 l 0,-1 c 0,1.1253 0.8747,2 2,2 l 10,0 c 1.1253,0 2,-0.8747 2,-2 l 0,1 c 0,1.1253 -0.8747,2 -2,2 l -10,0 z"
         id="path4304"
         inkscape:connector-curvature="0" />
    </g>
    <g
       inkscape:groupmode="layer"
       id="layer3"
       inkscape:label="Border"
       style="display:inline"
       sodipodi:insensitive="true">
      <path
         style="opacity:0.41;color:#bebebe;fill:#000000;fill-opacity:1;fill-rule:nonzero;stroke:none;stroke-width:0;marker:none;visibility:visible;display:inline;overflow:visible;enable-background:accumulate"
         d="m 422,101 c -2.77,0 -5,2.23 -5,5 l 0,12 c 0,2.77 2.23,5 5,5 l 12,0 c 2.77,0 5,-2.23 5,-5 l 0,-12 c 0,-2.77 -2.23,-5 -5,-5 l -12,0 z m 0,1 12,0 c 2.2333,0 4,1.7667 4,4 l 0,12 c 0,2.2333 -1.7667,4 -4,4 l -12,0 c -2.2333,0 -4,-1.7667 -4,-4 l 0,-12 c 0,-2.2333 1.7667,-4 4,-4 z"
         id="rect4099"
         inkscape:connector-curvature="0" />
      <path
         style="opacity:0.41;color:#bebebe;fill:#000000;fill-opacity:1;fill-rule:nonzero;stroke:none;stroke-width:0;marker:none;visibility:visible;display:inline;overflow:visible;enable-background:accumulate"
         d="m 424,53 c -3.878,0 -7,3.122 -7,7 l 0,16 c 0,3.878 3.122,7 7,7 l 16,0 c 3.878,0 7,-3.122 7,-7 l 0,-16 c 0,-3.878 -3.122,-7 -7,-7 l -16,0 z m 0,1 16,0 c 3.3413,0 6,2.658703 6,6 l 0,16 c 0,3.341297 -2.6587,6 -6,6 l -16,0 c -3.3413,0 -6,-2.658703 -6,-6 l 0,-16 c 0,-3.341297 2.6587,-6 6,-6 z"
         id="rect4151"
         inkscape:connector-curvature="0" />
      <path
         style="opacity:0.41;color:#bebebe;fill:#000000;fill-opacity:1;fill-rule:nonzero;stroke:none;stroke-width:0;marker:none;visibility:visible;display:inline;overflow:visible;enable-background:accumulate"
         d="m 419,140 c -1.662,0 -3,1.338 -3,3 l 0,10 c 0,1.662 1.338,3 3,3 l 10,0 c 1.662,0 3,-1.338 3,-3 l 0,-10 c 0,-1.662 -1.338,-3 -3,-3 l -10,0 z m 0,1 10,0 c 1.1253,0 2,0.8747 2,2 l 0,10 c 0,1.1253 -0.8747,2 -2,2 l -10,0 c -1.1253,0 -2,-0.8747 -2,-2 l 0,-10 c 0,-1.1253 0.8747,-2 2,-2 z"
         id="rect4095"
         inkscape:connector-curvature="0" />
      <path
         style="opacity:0.41;color:#bebebe;fill:#000000;fill-opacity:1;fill-rule:nonzero;stroke:none;stroke-width:0;marker:none;visibility:visible;display:inline;overflow:visible;enable-background:accumulate"
         d="m 300,223 c -4.986,0 -9,4.014 -9,9 l 0,24 c 0,4.986 4.014,9 9,9 l 24,0 c 4.986,0 9,-4.014 9,-9 l 0,-24 c 0,-4.986 -4.014,-9 -9,-9 l -24,0 z m 0,1 24,0 c 4.4493,0 8,3.5507 8,8 l 0,24 c 0,4.4493 -3.5507,8 -8,8 l -24,0 c -4.4493,0 -8,-3.5507 -8,-8 l 0,-24 c 0,-4.4493 3.5507,-8 8,-8 z"
         id="rect4783"
         inkscape:connector-curvature="0" />
      <path
         style="opacity:0.41;color:#bebebe;fill:#000000;fill-opacity:1;fill-rule:nonzero;stroke:none;stroke-width:0;marker:none;visibility:visible;display:inline;overflow:visible;enable-background:accumulate"
         d="m 302.5,142 c -6.925,0 -12.5,5.575 -12.5,12.5 l 0,35 c 0,6.925 5.575,12.5 12.5,12.5 l 35,0 c 6.925,0 12.5,-5.575 12.5,-12.5 l 0,-35 c 0,-6.925 -5.575,-12.5 -12.5,-12.5 l -35,0 z m 0,1 35,0 c 6.3883,0 11.5,5.1117 11.5,11.5 l 0,35 c 0,6.3883 -5.1117,11.5 -11.5,11.5 l -35,0 c -6.3883,0 -11.5,-5.1117 -11.5,-11.5 l 0,-35 c 0,-6.3883 5.1117,-11.5 11.5,-11.5 z"
         id="rect4515"
         inkscape:connector-curvature="0" />
      <path
         style="opacity:0.41;color:#bebebe;fill:#000000;fill-opacity:1;fill-rule:nonzero;stroke:none;stroke-width:0;marker:none;visibility:visible;display:inline;overflow:visible;enable-background:accumulate"
         d="m 310,32 c -9.972,0 -18,8.028 -18,18 l 0,52 c 0,9.972 8.028,18 18,18 l 52,0 c 9.972,0 18,-8.028 18,-18 l 0,-52 c 0,-9.972 -8.028,-18 -18,-18 l -52,0 z m 0,1 52,0 c 9.4353,0 17,7.564703 17,17 l 0,52 c 0,9.4353 -7.5647,17 -17,17 l -52,0 c -9.4353,0 -17,-7.5647 -17,-17 l 0,-52 c 0,-9.435297 7.5647,-17 17,-17 z"
         id="rect4511"
         inkscape:connector-curvature="0" />
      <path
         style="opacity:0.41;color:#bebebe;fill:#000000;fill-opacity:1;fill-rule:nonzero;stroke:none;stroke-width:0;marker:none;visibility:visible;display:inline;overflow:visible;enable-background:accumulate"
         d="M 84,46 C 56.3,46 34,68.3 34,96 l 0,120 c 0,27.7 22.3,50 50,50 l 120,0 c 27.7,0 50,-22.3 50,-50 L 254,96 C 254,68.3 231.7,46 204,46 L 84,46 z m 0,1 120,0 c 27.1633,0 49,21.836703 49,49 l 0,120 c 0,27.1633 -21.8367,49 -49,49 L 84,265 C 56.836703,265 35,243.1633 35,216 L 35,96 C 35,68.836703 56.836703,47 84,47 z"
         id="rect4040"
         inkscape:connector-curvature="0" />
    </g>
  </g>
</svg>
