<?xml version="1.0" encoding="UTF-8" standalone="no"?>
<!-- Created with Inkscape (http://www.inkscape.org/) -->

<svg
   inkscape:export-ydpi="90.000000"
   inkscape:export-xdpi="90.000000"
   width="480"
   height="300"
   id="svg11300"
   sodipodi:version="0.32"
   inkscape:version="1.3.2 (091e20ef0f, 2023-11-25, custom)"
   sodipodi:docname="us.zoom.Zoom.svg"
   inkscape:output_extension="org.inkscape.output.svg.inkscape"
   version="1.0"
   style="display:inline;enable-background:new"
   inkscape:export-filename="/home/sam/moka-next-template.png"
   xml:space="preserve"
   xmlns:inkscape="http://www.inkscape.org/namespaces/inkscape"
   xmlns:sodipodi="http://sodipodi.sourceforge.net/DTD/sodipodi-0.dtd"
   xmlns:xlink="http://www.w3.org/1999/xlink"
   xmlns="http://www.w3.org/2000/svg"
   xmlns:svg="http://www.w3.org/2000/svg"
   xmlns:rdf="http://www.w3.org/1999/02/22-rdf-syntax-ns#"
   xmlns:cc="http://creativecommons.org/ns#"
   xmlns:dc="http://purl.org/dc/elements/1.1/"><sodipodi:namedview
     stroke="#ef2929"
     fill="#f57900"
     id="base"
     pagecolor="#777777"
     bordercolor="#666666"
     borderopacity="0.25490196"
     inkscape:pageopacity="0"
     inkscape:pageshadow="2"
     inkscape:zoom="1"
     inkscape:cx="323"
     inkscape:cy="170"
     inkscape:current-layer="layer6"
     showgrid="false"
     inkscape:grid-bbox="true"
     inkscape:document-units="px"
     inkscape:showpageshadow="false"
     inkscape:window-width="2476"
     inkscape:window-height="1403"
     inkscape:window-x="0"
     inkscape:window-y="0"
     width="400px"
     height="300px"
     inkscape:snap-nodes="true"
     inkscape:snap-bbox="true"
     gridtolerance="10000"
     inkscape:object-nodes="true"
     inkscape:snap-grids="true"
     showguides="false"
     inkscape:guide-bbox="true"
     inkscape:window-maximized="1"
     inkscape:bbox-nodes="true"
     inkscape:bbox-paths="true"
     inkscape:snap-bbox-edge-midpoints="true"
     inkscape:snap-bbox-midpoints="true"
     inkscape:pagecheckerboard="0"
     inkscape:deskcolor="#d1d1d1"><inkscape:grid
       spacingy="1"
       spacingx="1"
       id="grid5883"
       type="xygrid"
       enabled="true"
       visible="false"
       empspacing="4"
       snapvisiblegridlinesonly="true"
       dotted="false"
       color="#000000"
       opacity="0.12549"
       empcolor="#203ef3"
       empopacity="0.36470588"
       originx="0"
       originy="0"
       units="px" /><inkscape:grid
       type="xygrid"
       id="grid11592"
       empspacing="8"
       visible="false"
       enabled="false"
       spacingx="0.5"
       spacingy="0.5"
       color="#ff0000"
       opacity="0.12549"
       empcolor="#ff0000"
       empopacity="0.25098039"
       snapvisiblegridlinesonly="true"
       dotted="true"
       originx="0"
       originy="0"
       units="px" /></sodipodi:namedview><defs
     id="defs3"><linearGradient
       inkscape:collect="always"
       xlink:href="#prefix___Linear1"
       id="linearGradient4254"
       x1="33"
       y1="156"
       x2="254"
       y2="156"
       gradientUnits="userSpaceOnUse"
       gradientTransform="rotate(-90,144,156)" /><linearGradient
       inkscape:collect="always"
       xlink:href="#prefix___Linear1"
       id="linearGradient4256"
       x1="417"
       y1="148"
       x2="431"
       y2="148"
       gradientUnits="userSpaceOnUse"
       gradientTransform="rotate(-90,424,148)" /><linearGradient
       inkscape:collect="always"
       xlink:href="#prefix___Linear1"
       id="linearGradient4260"
       x1="418"
       y1="68"
       x2="446"
       y2="68"
       gradientUnits="userSpaceOnUse"
       gradientTransform="rotate(-90,432,68)" /><linearGradient
       inkscape:collect="always"
       xlink:href="#prefix___Linear1"
       id="linearGradient4262"
       x1="292"
       y1="244"
       x2="332"
       y2="244"
       gradientUnits="userSpaceOnUse"
       gradientTransform="rotate(-90,312,244)" /><linearGradient
       inkscape:collect="always"
       xlink:href="#prefix___Linear1"
       id="linearGradient4264"
       x1="293"
       y1="76"
       x2="379"
       y2="76"
       gradientUnits="userSpaceOnUse"
       gradientTransform="rotate(-90,336,76)" /><linearGradient
       inkscape:collect="always"
       xlink:href="#prefix___Linear1"
       id="linearGradient4266"
       x1="291"
       y1="172"
       x2="349"
       y2="172"
       gradientUnits="userSpaceOnUse"
       gradientTransform="rotate(-90,320,172)" /><linearGradient
       inkscape:collect="always"
       xlink:href="#prefix___Linear1"
       id="linearGradient3870"
       gradientUnits="userSpaceOnUse"
       gradientTransform="rotate(-90,428,112)"
       x1="418"
       y1="112"
       x2="438"
       y2="112" /><linearGradient
       id="prefix___Linear1"
       x1="0"
       y1="0"
       x2="1"
       y2="0"
       gradientUnits="userSpaceOnUse"
       gradientTransform="matrix(52.6679,-91.223479,91.223479,52.6679,23.666346,95.611314)"><stop
         offset="0"
         stop-color="#0845bf"
         id="stop2" /><stop
         offset=".6"
         stop-color="#0b5cff"
         id="stop3" /><stop
         offset="1"
         stop-color="#4f90ee"
         id="stop4" /></linearGradient></defs><metadata
     id="metadata4"><rdf:RDF><cc:Work
         rdf:about=""><dc:format>image/svg+xml</dc:format><dc:type
           rdf:resource="http://purl.org/dc/dcmitype/StillImage" /><dc:creator><cc:Agent><dc:title>Alfredo Hernández</dc:title></cc:Agent></dc:creator><dc:source /><cc:license
           rdf:resource="" /><dc:title /><dc:subject><rdf:Bag /></dc:subject><dc:date /><dc:rights><cc:Agent><dc:title /></cc:Agent></dc:rights><dc:publisher><cc:Agent><dc:title /></cc:Agent></dc:publisher><dc:identifier /><dc:relation /><dc:language /><dc:coverage /><dc:description /><dc:contributor><cc:Agent><dc:title /></cc:Agent></dc:contributor></cc:Work><cc:Work
         rdf:about=""><dc:format>image/svg+xml</dc:format><dc:type
           rdf:resource="http://purl.org/dc/dcmitype/StillImage" /></cc:Work></rdf:RDF></metadata><g
     style="display:inline"
     inkscape:groupmode="layer"
     inkscape:label="Icon"
     id="layer1"><g
       style="display:none"
       inkscape:label="Baseplate"
       id="layer7"
       inkscape:groupmode="layer"><text
         y="19.745117"
         xml:space="preserve"
         x="15.006836"
         style="font-style:normal;font-variant:normal;font-weight:normal;font-stretch:normal;line-height:0%;font-family:'DejaVu Sans';-inkscape-font-specification:'DejaVu Sans';display:inline;fill:#000000;fill-opacity:1;stroke:none;enable-background:new"
         inkscape:label="context"
         id="context"><tspan
           style="font-style:normal;font-variant:normal;font-weight:normal;font-stretch:normal;font-size:18px;line-height:1.25;font-family:'DejaVu Sans';-inkscape-font-specification:'DejaVu Sans'"
           y="19.745117"
           x="15.006836"
           sodipodi:role="line"
           id="tspan3933">web</tspan></text><text
         y="19.745117"
         xml:space="preserve"
         x="122.48828"
         style="font-style:normal;font-variant:normal;font-weight:bold;font-stretch:normal;line-height:0%;font-family:'DejaVu Sans';-inkscape-font-specification:'DejaVu Sans Bold';text-align:start;writing-mode:lr-tb;text-anchor:start;display:inline;fill:#000000;fill-opacity:1;stroke:none;enable-background:new"
         inkscape:label="icon-name"
         id="icon-name"><tspan
           style="font-style:normal;font-variant:normal;font-weight:bold;font-stretch:normal;font-size:18px;line-height:1.25;font-family:'DejaVu Sans';-inkscape-font-specification:'DejaVu Sans Bold'"
           y="19.745117"
           x="122.48828"
           sodipodi:role="line"
           id="tspan3937">us.zoom.Zoom</tspan></text><rect
         style="display:inline;overflow:visible;visibility:visible;fill:#eeeeec;fill-opacity:1;fill-rule:nonzero;stroke:none;stroke-width:2;marker:none;enable-background:accumulate"
         id="rect16x16"
         width="16"
         height="16"
         x="416"
         y="140"
         inkscape:label="16x16" /><rect
         style="display:inline;overflow:visible;visibility:visible;fill:#d4d4d4;fill-opacity:1;fill-rule:nonzero;stroke:none;stroke-width:2;marker:none;enable-background:accumulate"
         id="rect24x24"
         width="24"
         height="24"
         x="416"
         y="100"
         inkscape:label="24x24" /><rect
         style="display:inline;overflow:visible;visibility:visible;fill:#eeeeec;fill-opacity:1;fill-rule:nonzero;stroke:none;stroke-width:2;marker:none;enable-background:accumulate"
         id="rect32x32"
         width="32"
         height="32"
         x="416"
         y="52"
         inkscape:label="32x32" /><rect
         inkscape:label="22x22"
         y="101"
         x="417"
         height="22"
         width="22"
         id="rect22x22"
         style="display:inline;overflow:visible;visibility:visible;fill:#eeeeec;fill-opacity:1;fill-rule:nonzero;stroke:none;stroke-width:2;marker:none;enable-background:accumulate" /><rect
         inkscape:label="48x48"
         y="220"
         x="288"
         height="48"
         width="48"
         id="rect48x48"
         style="display:inline;overflow:visible;visibility:visible;fill:#eeeeec;fill-opacity:1;fill-rule:nonzero;stroke:none;stroke-width:2;marker:none;enable-background:accumulate" /><rect
         style="display:inline;overflow:visible;visibility:visible;fill:#eeeeec;fill-opacity:1;fill-rule:nonzero;stroke:none;stroke-width:2;marker:none;enable-background:accumulate"
         id="rect256x256"
         width="256"
         height="256"
         x="16"
         y="28"
         inkscape:label="256x256" /><rect
         style="display:inline;overflow:visible;visibility:visible;fill:#eeeeec;fill-opacity:1;fill-rule:nonzero;stroke:none;stroke-width:2;marker:none;enable-background:accumulate"
         id="rect64x64"
         width="64"
         height="64"
         x="288"
         y="140"
         inkscape:label="64x64" /><rect
         style="display:inline;overflow:visible;visibility:visible;fill:#eeeeec;fill-opacity:1;fill-rule:nonzero;stroke:none;stroke-width:2;marker:none;enable-background:accumulate"
         id="rect96x96"
         width="96"
         height="96"
         x="288"
         y="28"
         inkscape:label="96x96" /></g><g
       inkscape:groupmode="layer"
       id="layer4"
       inkscape:label="Shadow"
       style="display:inline"
       sodipodi:insensitive="true"><rect
         ry="50"
         y="47"
         x="34"
         height="220"
         width="220"
         id="rect4114"
         style="opacity:0.1;color:#bebebe;fill:#000000;fill-opacity:1;fill-rule:nonzero;stroke:none;stroke-width:0;marker:none;visibility:visible;display:inline;overflow:visible;enable-background:accumulate" /><rect
         style="opacity:0.1;color:#bebebe;fill:#000000;fill-opacity:1;fill-rule:nonzero;stroke:none;stroke-width:0;marker:none;visibility:visible;display:inline;overflow:visible;enable-background:accumulate"
         id="rect4120"
         width="30"
         height="30"
         x="417"
         y="54"
         ry="7" /><rect
         transform="scale(1,-1)"
         ry="9"
         y="-266"
         x="291"
         height="42"
         width="42"
         id="rect4122"
         style="opacity:0.1;color:#bebebe;fill:#000000;fill-opacity:1;fill-rule:nonzero;stroke:none;stroke-width:0;marker:none;visibility:visible;display:inline;overflow:visible;enable-background:accumulate" /><rect
         style="opacity:0.1;color:#bebebe;fill:#000000;fill-opacity:1;fill-rule:nonzero;stroke:none;stroke-width:0;marker:none;visibility:visible;display:inline;overflow:visible;enable-background:accumulate"
         id="rect4124"
         width="88"
         height="88"
         x="292"
         y="33"
         ry="18" /><rect
         ry="12.5"
         y="143"
         x="290"
         height="60"
         width="60"
         id="rect4126"
         style="opacity:0.1;color:#bebebe;fill:#000000;fill-opacity:1;fill-rule:nonzero;stroke:none;stroke-width:0;marker:none;visibility:visible;display:inline;overflow:visible;enable-background:accumulate" /><path
         id="path4268"
         d="m 422,101 c -2.77,0 -5,2.23 -5,5 l 0,12 c 0,2.77 2.23,5 5,5 l 12,0 c 2.77,0 5,-2.23 5,-5 l 0,-12 c 0,-2.77 -2.23,-5 -5,-5 z"
         style="opacity:0.1;color:#bebebe;fill:#000000;fill-opacity:1;fill-rule:nonzero;stroke:none;stroke-width:0;marker:none;visibility:visible;display:inline;overflow:visible;enable-background:accumulate"
         inkscape:connector-curvature="0"
         sodipodi:nodetypes="sssssssss" /><path
         id="path4270"
         d="m 419,140 c -1.662,0 -3,1.338 -3,3 l 0,10 c 0,1.662 1.338,3 3,3 l 10,0 c 1.662,0 3,-1.338 3,-3 l 0,-10 c 0,-1.662 -1.338,-3 -3,-3 z"
         style="opacity:0.1;color:#bebebe;fill:#000000;fill-opacity:1;fill-rule:nonzero;stroke:none;stroke-width:0;marker:none;visibility:visible;display:inline;overflow:visible;enable-background:accumulate"
         inkscape:connector-curvature="0"
         sodipodi:nodetypes="sssssssss" /></g><g
       inkscape:groupmode="layer"
       id="layer2"
       inkscape:label="Background"
       style="display:inline"><path
         style="color:#bebebe;fill:url(#linearGradient4254);fill-opacity:1;fill-rule:nonzero;stroke:none;stroke-width:2;marker:none;visibility:visible;display:inline;overflow:visible;enable-background:accumulate"
         d="M 84 46.5 C 56.568735 46.5 34.5 68.568732 34.5 96 L 34.5 216 C 34.5 243.43127 56.568735 265.5 84 265.5 L 204 265.5 C 231.43127 265.5 253.5 243.43127 253.5 216 L 253.5 96 C 253.5 68.568732 231.43127 46.5 204 46.5 L 84 46.5 z "
         id="path4200" /><path
         style="color:#bebebe;fill:url(#linearGradient4256);fill-opacity:1.0;fill-rule:nonzero;stroke:none;stroke-width:2;marker:none;visibility:visible;display:inline;overflow:visible;enable-background:accumulate"
         d="M 419 140.5 C 417.6156 140.5 416.5 141.6156 416.5 143 L 416.5 153 C 416.5 154.3844 417.6156 155.5 419 155.5 L 429 155.5 C 430.3844 155.5 431.5 154.3844 431.5 153 L 431.5 143 C 431.5 141.6156 430.3844 140.5 429 140.5 L 419 140.5 z "
         id="path4202" /><path
         style="color:#bebebe;fill:url(#linearGradient3870);fill-opacity:1.0;fill-rule:nonzero;stroke:none;stroke-width:2;marker:none;visibility:visible;display:inline;overflow:visible;enable-background:accumulate"
         d="M 422 101.5 C 419.50301 101.5 417.5 103.50301 417.5 106 L 417.5 118 C 417.5 120.49699 419.50301 122.5 422 122.5 L 434 122.5 C 436.49699 122.5 438.5 120.49699 438.5 118 L 438.5 106 C 438.5 103.50301 436.49699 101.5 434 101.5 L 422 101.5 z "
         id="path4204" /><path
         style="color:#bebebe;fill:url(#linearGradient4260);fill-opacity:1.0;fill-rule:nonzero;stroke:none;stroke-width:2;marker:none;visibility:visible;display:inline;overflow:visible;enable-background:accumulate"
         d="M 424 53.5 C 420.39346 53.5 417.5 56.393464 417.5 60 L 417.5 76 C 417.5 79.606536 420.39346 82.5 424 82.5 L 440 82.5 C 443.60654 82.5 446.5 79.606536 446.5 76 L 446.5 60 C 446.5 56.393464 443.60654 53.5 440 53.5 L 424 53.5 z "
         id="path4206" /><path
         style="color:#bebebe;fill:url(#linearGradient4262);fill-opacity:1.0;fill-rule:nonzero;stroke:none;stroke-width:2;marker:none;visibility:visible;display:inline;overflow:visible;enable-background:accumulate"
         d="M 300 223.5 C 295.28469 223.5 291.5 227.28469 291.5 232 L 291.5 256 C 291.5 260.71531 295.28469 264.5 300 264.5 L 324 264.5 C 328.71531 264.5 332.5 260.71531 332.5 256 L 332.5 232 C 332.5 227.28469 328.71531 223.5 324 223.5 L 300 223.5 z "
         id="path4208" /><path
         style="color:#bebebe;fill:url(#linearGradient4264);fill-opacity:1.0;fill-rule:nonzero;stroke:none;stroke-width:2;marker:none;visibility:visible;display:inline;overflow:visible;enable-background:accumulate"
         d="M 310 32.5 C 300.29745 32.5 292.5 40.297452 292.5 50 L 292.5 102 C 292.5 111.70255 300.29745 119.5 310 119.5 L 362 119.5 C 371.70255 119.5 379.5 111.70255 379.5 102 L 379.5 50 C 379.5 40.297452 371.70255 32.5 362 32.5 L 310 32.5 z "
         id="path4210" /><path
         style="color:#bebebe;fill:url(#linearGradient4266);fill-opacity:1.0;fill-rule:nonzero;stroke:none;stroke-width:2;marker:none;visibility:visible;display:inline;overflow:visible;enable-background:accumulate"
         d="M 302.5 142.5 C 295.84498 142.5 290.5 147.84498 290.5 154.5 L 290.5 189.5 C 290.5 196.15502 295.84498 201.5 302.5 201.5 L 337.5 201.5 C 344.15502 201.5 349.5 196.15502 349.5 189.5 L 349.5 154.5 C 349.5 147.84498 344.15502 142.5 337.5 142.5 L 302.5 142.5 z "
         id="path4212" /></g><g
       inkscape:groupmode="layer"
       id="layer6"
       inkscape:label="Symbols"
       style="display:inline"><path
         d="M 98.62799,174.67014 H 70.81068 a 4.796271,4.796271 0 0 1 -4.442524,-2.96915 4.7940764,4.7940764 0 0 1 1.042819,-5.23911 l 19.2676,-19.2676 H 72.869539 c -3.794701,0 -6.869182,-3.07491 -6.869182,-6.86963 H 91.65304 c 1.953092,0 3.695954,1.16396 4.442952,2.96695 a 4.7975876,4.7975876 0 0 1 -1.040625,5.24132 l -19.270233,19.2676 h 15.973235 c 3.794711,0 6.869621,3.07491 6.869621,6.86962 z m 122.95712,-21.4656 c 0,-7.38533 -6.00851,-13.39603 -13.3934,-13.39603 -3.95183,0 -7.5069,1.72047 -9.96034,4.44998 -2.45562,-2.72995 -6.01069,-4.44998 -9.9599,-4.44998 -7.38795,0 -13.39646,6.00851 -13.39646,13.39603 v 21.4656 c 3.79515,0 6.86962,-3.07492 6.86962,-6.86962 v -14.59598 c 0,-3.59939 2.92701,-6.52641 6.5264,-6.52641 3.59765,0 6.52466,2.92702 6.52466,6.52641 v 14.59598 c 0,3.7947 3.07447,6.86962 6.86918,6.86962 v -21.4656 c 0,-3.59939 2.92701,-6.52641 6.5264,-6.52641 3.59765,0 6.52465,2.92702 6.52465,6.52641 v 14.59598 c 0,3.7947 3.07667,6.86962 6.86919,6.86962 z m -50.1436,4.29285 c 0,9.76986 -7.91902,17.68889 -17.68844,17.68889 -9.76986,0 -17.68888,-7.91947 -17.68888,-17.68889 0,-9.76985 7.91902,-17.68888 17.68888,-17.68888 9.76942,0 17.68844,7.91947 17.68844,17.68888 z m -6.86962,0 c 0,-5.97471 -4.84411,-10.81882 -10.81882,-10.81882 -5.97514,0 -10.81926,4.84411 -10.81926,10.81882 0,5.97472 4.84412,10.81883 10.81882,10.81883 5.97515,0 10.81926,-4.84411 10.81926,-10.81883 z m -31.2552,0 c 0,9.76986 -7.91902,17.68889 -17.68625,17.68889 -9.76985,0 -17.688879,-7.91947 -17.688879,-17.68889 0,-9.76985 7.919459,-17.68888 17.688879,-17.68888 9.76723,0 17.68625,7.91947 17.68625,17.68888 z m -6.86962,0 c 0,-5.97471 -4.84192,-10.81882 -10.81663,-10.81882 -5.9769,0 -10.81882,4.84411 -10.81882,10.81882 0,5.97472 4.84192,10.81883 10.81882,10.81883 5.97471,0 10.81663,-4.84411 10.81663,-10.81883 z"
         fill="#ffffff"
         id="path1"
         style="clip-rule:evenodd;display:inline;fill-rule:evenodd;stroke-width:0.438898;stroke-linejoin:round;stroke-miterlimit:2;enable-background:new;fill:#000000;fill-opacity:1;opacity:0.2" /><path
         d="m 320.22706,83.609904 h -9.27243 a 1.598757,1.598757 0 0 1 -1.48084,-0.989715 1.5980253,1.5980253 0 0 1 0.3476,-1.746373 l 6.42254,-6.422532 h -4.60302 c -1.2649,0 -2.28973,-1.024971 -2.28973,-2.289874 h 8.5509 c 0.65104,0 1.23199,0.387985 1.48098,0.988983 a 1.5991958,1.5991958 0 0 1 -0.34686,1.747104 l -6.42341,6.422532 h 5.32441 c 1.2649,0 2.28986,1.02497 2.28986,2.289875 z m 40.98571,-7.1552 c 0,-2.461775 -2.00283,-4.465342 -4.46447,-4.465342 -1.31728,0 -2.5023,0.57349 -3.3201,1.483327 -0.81855,-0.909983 -2.00358,-1.483327 -3.31998,-1.483327 -2.46264,0 -4.46548,2.002836 -4.46548,4.465342 v 7.1552 c 1.26504,0 2.28987,-1.024974 2.28987,-2.289875 v -4.865325 c 0,-1.199797 0.97567,-2.175469 2.17547,-2.175469 1.19922,0 2.17488,0.975672 2.17488,2.175469 v 4.865325 c 0,1.264901 1.02483,2.289875 2.28972,2.289875 v -7.1552 c 0,-1.199797 0.97568,-2.175469 2.17547,-2.175469 1.19922,0 2.17489,0.975672 2.17489,2.175469 v 4.865325 c 0,1.264901 1.02556,2.289875 2.28973,2.289875 z m -16.71453,1.430951 c 0,3.256619 -2.63968,5.896296 -5.89615,5.896296 -3.25661,0 -5.89629,-2.639824 -5.89629,-5.896296 0,-3.256616 2.63968,-5.896293 5.89629,-5.896293 3.25647,0 5.89615,2.639823 5.89615,5.896293 z m -2.28987,0 c 0,-1.991569 -1.61471,-3.606274 -3.60628,-3.606274 -1.99172,0 -3.60642,1.614705 -3.60642,3.606274 0,1.991571 1.6147,3.606276 3.60628,3.606276 1.99171,0 3.60642,-1.614705 3.60642,-3.606276 z m -10.41841,0 c 0,3.256619 -2.63967,5.896296 -5.89541,5.896296 -3.25662,0 -5.8963,-2.639824 -5.8963,-5.896296 0,-3.256616 2.63982,-5.896293 5.8963,-5.896293 3.25574,0 5.89541,2.639823 5.89541,5.896293 z m -2.28987,0 c 0,-1.991569 -1.61397,-3.606274 -3.60554,-3.606274 -1.99231,0 -3.60627,1.614705 -3.60627,3.606274 0,1.991571 1.61396,3.606276 3.60627,3.606276 1.99157,0 3.60554,-1.614705 3.60554,-3.606276 z"
         fill="#ffffff"
         id="path2"
         style="clip-rule:evenodd;display:inline;fill-rule:evenodd;stroke-width:0.146299;stroke-linejoin:round;stroke-miterlimit:2;enable-background:new;fill:#000000;fill-opacity:1;opacity:0.2" /><path
         d="m 308.32284,178.22066 h -6.77601 a 1.1683223,1.1683223 0 0 1 -1.08216,-0.72325 1.1677876,1.1677876 0 0 1 0.25403,-1.2762 l 4.69339,-4.69339 h -3.36374 c -0.92436,0 -1.67327,-0.74902 -1.67327,-1.67337 h 6.24874 c 0.47574,0 0.90029,0.28353 1.08225,0.72272 a 1.168643,1.168643 0 0 1 -0.25348,1.27673 l -4.69404,4.69339 h 3.89093 c 0.92434,0 1.67336,0.74901 1.67336,1.67337 z m 29.9511,-5.2288 c 0,-1.79899 -1.46362,-3.26314 -3.2625,-3.26314 -0.96264,0 -1.82861,0.4191 -2.42624,1.08397 -0.59817,-0.66498 -1.46415,-1.08397 -2.42613,-1.08397 -1.79962,0 -3.26324,1.46361 -3.26324,3.26314 v 5.2288 c 0.92446,0 1.67338,-0.74902 1.67338,-1.67337 v -3.55543 c 0,-0.87678 0.71297,-1.58977 1.58976,-1.58977 0.87634,0 1.58933,0.71299 1.58933,1.58977 v 3.55543 c 0,0.92435 0.74891,1.67337 1.67327,1.67337 v -5.2288 c 0,-0.87678 0.71299,-1.58977 1.58976,-1.58977 0.87635,0 1.58934,0.71299 1.58934,1.58977 v 3.55543 c 0,0.92435 0.74944,1.67337 1.67327,1.67337 z m -12.21447,1.04569 c 0,2.37984 -1.929,4.30883 -4.30873,4.30883 -2.37984,0 -4.30883,-1.92909 -4.30883,-4.30883 0,-2.37983 1.92899,-4.30883 4.30883,-4.30883 2.37973,0 4.30873,1.92911 4.30873,4.30883 z m -1.67338,0 c 0,-1.45538 -1.17997,-2.63535 -2.63535,-2.63535 -1.45548,0 -2.63545,1.17997 -2.63545,2.63535 0,1.45538 1.17997,2.63536 2.63535,2.63536 1.45548,0 2.63545,-1.17998 2.63545,-2.63536 z m -7.61344,0 c 0,2.37984 -1.92899,4.30883 -4.30819,4.30883 -2.37983,0 -4.30883,-1.92909 -4.30883,-4.30883 0,-2.37983 1.9291,-4.30883 4.30883,-4.30883 2.3792,0 4.30819,1.92911 4.30819,4.30883 z m -1.67336,0 c 0,-1.45538 -1.17945,-2.63535 -2.63483,-2.63535 -1.45591,0 -2.63535,1.17997 -2.63535,2.63535 0,1.45538 1.17944,2.63536 2.63535,2.63536 1.45538,0 2.63483,-1.17998 2.63483,-2.63536 z"
         fill="#ffffff"
         id="path3"
         style="clip-rule:evenodd;display:inline;fill-rule:evenodd;stroke-width:0.106911;stroke-linejoin:round;stroke-miterlimit:2;enable-background:new;fill:#000000;fill-opacity:1;opacity:0.2" /><path
         d="m 303.81831,248.34484 h -4.63622 a 0.79937842,0.79937842 0 0 1 -0.74041,-0.49486 0.79901259,0.79901259 0 0 1 0.17379,-0.87318 l 3.21127,-3.21126 h -2.3015 c -0.63246,0 -1.14487,-0.51249 -1.14487,-1.14494 h 4.27545 c 0.32551,0 0.616,0.19399 0.74049,0.49449 a 0.79959783,0.79959783 0 0 1 -0.17343,0.87356 l -3.21171,3.21126 h 2.6622 c 0.63246,0 1.14494,0.51249 1.14494,1.14493 z m 20.49285,-3.5776 c 0,-1.23089 -1.00141,-2.23267 -2.23223,-2.23267 -0.65864,0 -1.25115,0.28675 -1.66005,0.74167 -0.40928,-0.45499 -1.00179,-0.74167 -1.65999,-0.74167 -1.23132,0 -2.23274,1.00142 -2.23274,2.23267 v 3.5776 c 0.63252,0 1.14494,-0.51248 1.14494,-1.14493 v -2.43267 c 0,-0.59989 0.48784,-1.08773 1.08774,-1.08773 0.59961,0 1.08744,0.48784 1.08744,1.08773 v 2.43267 c 0,0.63245 0.51241,1.14493 1.14485,1.14493 v -3.5776 c 0,-0.5999 0.48784,-1.08773 1.08774,-1.08773 0.59961,0 1.08744,0.48783 1.08744,1.08773 v 2.43266 c 0,0.63245 0.51279,1.14493 1.14487,1.14493 z m -8.35726,0.71547 c 0,1.62831 -1.31984,2.94814 -2.94807,2.94814 -1.62832,0 -2.94815,-1.31991 -2.94815,-2.94814 0,-1.6283 1.31983,-2.94814 2.94815,-2.94814 1.62823,0 2.94807,1.31992 2.94807,2.94814 z m -1.14494,0 c 0,-0.99578 -0.80735,-1.80314 -1.80313,-1.80314 -0.99587,0 -1.80321,0.80736 -1.80321,1.80314 0,0.99579 0.80734,1.80314 1.80314,1.80314 0.99585,0 1.8032,-0.80735 1.8032,-1.80314 z m -5.2092,0 c 0,1.62831 -1.31984,2.94814 -2.94771,2.94814 -1.62831,0 -2.94815,-1.31991 -2.94815,-2.94814 0,-1.6283 1.31991,-2.94814 2.94815,-2.94814 1.62787,0 2.94771,1.31992 2.94771,2.94814 z m -1.14494,0 c 0,-0.99578 -0.80698,-1.80314 -1.80277,-1.80314 -0.99615,0 -1.80313,0.80736 -1.80313,1.80314 0,0.99579 0.80698,1.80314 1.80313,1.80314 0.99579,0 1.80277,-0.80735 1.80277,-1.80314 z"
         fill="#ffffff"
         id="path4"
         style="clip-rule:evenodd;display:inline;fill-rule:evenodd;stroke-width:0.0731494;stroke-linejoin:round;stroke-miterlimit:2;enable-background:new;fill:#000000;fill-opacity:1;opacity:0.2" /><path
         d="m 425.23626,72.469435 h -3.56632 a 0.61490639,0.61490639 0 0 1 -0.56955,-0.380662 0.61462499,0.61462499 0 0 1 0.13369,-0.671678 l 2.4702,-2.470197 h -1.77039 c -0.4865,0 -0.88066,-0.394226 -0.88066,-0.880728 h 3.2888 c 0.2504,0 0.47385,0.149225 0.56961,0.380377 a 0.61507517,0.61507517 0 0 1 -0.1334,0.67197 l -2.47054,2.470205 h 2.04784 c 0.4865,0 0.88072,0.394218 0.88072,0.880713 z m 15.76373,-2.752 C 440.99999,68.770599 440.22968,68 439.28289,68 c -0.50665,0 -0.96242,0.220574 -1.27696,0.57051 C 437.69109,68.22052 437.23532,68 436.72901,68 c -0.94716,0 -1.71749,0.770323 -1.71749,1.717435 v 2.752 c 0.48656,0 0.88072,-0.394218 0.88072,-0.880713 v -1.871287 c 0,-0.461453 0.37526,-0.836715 0.83672,-0.836715 0.46124,0 0.8365,0.375262 0.8365,0.836715 v 1.871287 c 0,0.486495 0.39416,0.880713 0.88065,0.880713 v -2.752 c 0,-0.461461 0.37527,-0.836715 0.83673,-0.836715 0.46124,0 0.83649,0.375254 0.83649,0.836715 v 1.871279 c 0,0.486495 0.39445,0.880714 0.88067,0.880714 z m -6.42867,0.550364 c 0,1.252543 -1.01526,2.267798 -2.26774,2.267798 -1.25255,0 -2.2678,-1.015315 -2.2678,-2.267798 0,-1.252545 1.01525,-2.267799 2.2678,-2.267799 1.25248,0 2.26774,1.015315 2.26774,2.267799 z m -0.88072,0 c 0,-0.765989 -0.62103,-1.387033 -1.38702,-1.387033 -0.76605,0 -1.38708,0.621044 -1.38708,1.387033 0,0.765988 0.62103,1.387031 1.38703,1.387031 0.76604,0 1.38707,-0.621043 1.38707,-1.387031 z m -4.00707,0 c 0,1.252543 -1.01526,2.267798 -2.26747,2.267798 -1.25254,0 -2.26781,-1.015315 -2.26781,-2.267798 0,-1.252545 1.01532,-2.267799 2.26781,-2.267799 1.25221,0 2.26747,1.015315 2.26747,2.267799 z m -0.88072,0 c 0,-0.765989 -0.62076,-1.387033 -1.38675,-1.387033 -0.76627,0 -1.38703,0.621044 -1.38703,1.387033 0,0.765988 0.62076,1.387031 1.38703,1.387031 0.76599,0 1.38675,-0.621043 1.38675,-1.387031 z"
         fill="#ffffff"
         id="path5"
         style="clip-rule:evenodd;display:inline;fill-rule:evenodd;stroke-width:0.0562687;stroke-linejoin:round;stroke-miterlimit:2;enable-background:new;fill:#000000;fill-opacity:1;opacity:0.2" /><path
         d="m 423.56304,115.56198 h -2.13979 a 0.36894384,0.36894384 0 0 1 -0.34173,-0.22839 0.36877499,0.36877499 0 0 1 0.0802,-0.40302 l 1.48212,-1.48212 h -1.06223 c -0.2919,0 -0.5284,-0.23653 -0.5284,-0.52843 h 1.97329 c 0.15023,0 0.2843,0.0896 0.34177,0.22822 a 0.3690451,0.3690451 0 0 1 -0.0801,0.40319 l -1.48231,1.48213 h 1.2287 c 0.2919,0 0.52843,0.23653 0.52843,0.52842 z m 9.45824,-1.6512 c 0,-0.5681 -0.46219,-1.03046 -1.03025,-1.03046 -0.30399,0 -0.57747,0.13235 -0.76619,0.34231 -0.1889,-0.21 -0.46236,-0.34231 -0.76615,-0.34231 -0.56829,0 -1.03049,0.4622 -1.03049,1.03046 v 1.6512 c 0.29193,0 0.52843,-0.23653 0.52843,-0.52842 v -1.12278 c 0,-0.27687 0.22516,-0.50203 0.50203,-0.50203 0.27674,0 0.5019,0.22516 0.5019,0.50203 v 1.12278 c 0,0.29189 0.2365,0.52842 0.52839,0.52842 v -1.6512 c 0,-0.27688 0.22516,-0.50203 0.50204,-0.50203 0.27675,0 0.5019,0.22515 0.5019,0.50203 v 1.12277 c 0,0.2919 0.23667,0.52843 0.5284,0.52843 z m -3.8572,0.33022 c 0,0.75153 -0.60915,1.36068 -1.36065,1.36068 -0.75152,0 -1.36068,-0.60919 -1.36068,-1.36068 0,-0.75153 0.60916,-1.36068 1.36068,-1.36068 0.7515,0 1.36065,0.60918 1.36065,1.36068 z m -0.52843,0 c 0,-0.45959 -0.37262,-0.83222 -0.83222,-0.83222 -0.45962,0 -0.83225,0.37263 -0.83225,0.83222 0,0.4596 0.37263,0.83222 0.83222,0.83222 0.45963,0 0.83225,-0.37262 0.83225,-0.83222 z m -2.40425,0 c 0,0.75153 -0.60915,1.36068 -1.36048,1.36068 -0.75152,0 -1.36068,-0.60919 -1.36068,-1.36068 0,-0.75153 0.60919,-1.36068 1.36068,-1.36068 0.75133,0 1.36048,0.60918 1.36048,1.36068 z m -0.52843,0 c 0,-0.45959 -0.37245,-0.83222 -0.83205,-0.83222 -0.45976,0 -0.83221,0.37263 -0.83221,0.83222 0,0.4596 0.37245,0.83222 0.83221,0.83222 0.4596,0 0.83205,-0.37262 0.83205,-0.83222 z"
         fill="#ffffff"
         id="path6"
         style="clip-rule:evenodd;display:inline;fill-rule:evenodd;stroke-width:0.0337613;stroke-linejoin:round;stroke-miterlimit:2;enable-background:new;fill:#000000;fill-opacity:1;opacity:0.2" /><path
         d="m 420.15271,151.0193 h -1.78316 a 0.3074532,0.3074532 0 0 1 -0.28477,-0.19034 0.3073125,0.3073125 0 0 1 0.0668,-0.33584 l 1.23511,-1.2351 h -0.8852 c -0.24325,0 -0.44033,-0.19711 -0.44033,-0.44036 h 1.64441 c 0.12519,0 0.23691,0.0746 0.2848,0.19019 a 0.30753759,0.30753759 0 0 1 -0.0667,0.33598 l -1.23527,1.23511 h 1.02392 c 0.24325,0 0.44036,0.1971 0.44036,0.44036 z m 7.88187,-1.37601 c 0,-0.47341 -0.38516,-0.85872 -0.85856,-0.85872 -0.25332,0 -0.4812,0.11029 -0.63847,0.28526 -0.15741,-0.175 -0.3853,-0.28526 -0.63846,-0.28526 -0.47359,0 -0.85875,0.38517 -0.85875,0.85872 v 1.37601 c 0.24328,0 0.44037,-0.19712 0.44037,-0.44036 v -0.93565 c 0,-0.23072 0.18763,-0.41836 0.41836,-0.41836 0.23062,0 0.41824,0.18764 0.41824,0.41836 v 0.93565 c 0,0.24324 0.19708,0.44036 0.44033,0.44036 v -1.37601 c 0,-0.23073 0.18763,-0.41836 0.41837,-0.41836 0.23061,0 0.41824,0.18763 0.41824,0.41836 v 0.93564 c 0,0.24325 0.19722,0.44036 0.44034,0.44036 z m -3.21433,0.27518 c 0,0.62628 -0.50764,1.13391 -1.13388,1.13391 -0.62627,0 -1.1339,-0.50767 -1.1339,-1.13391 0,-0.62627 0.50763,-1.1339 1.1339,-1.1339 0.62624,0 1.13388,0.50766 1.13388,1.1339 z m -0.44037,0 c 0,-0.38299 -0.31051,-0.69351 -0.69351,-0.69351 -0.38302,0 -0.69354,0.31052 -0.69354,0.69351 0,0.383 0.31052,0.69352 0.69352,0.69352 0.38302,0 0.69353,-0.31052 0.69353,-0.69352 z m -2.00354,0 c 0,0.62628 -0.50762,1.13391 -1.13372,1.13391 -0.62628,0 -1.13391,-0.50767 -1.13391,-1.13391 0,-0.62627 0.50766,-1.1339 1.13391,-1.1339 0.6261,0 1.13372,0.50766 1.13372,1.1339 z m -0.44035,0 c 0,-0.38299 -0.31038,-0.69351 -0.69337,-0.69351 -0.38314,0 -0.69351,0.31052 -0.69351,0.69351 0,0.383 0.31037,0.69352 0.69351,0.69352 0.38299,0 0.69337,-0.31052 0.69337,-0.69352 z"
         fill="#ffffff"
         id="path7"
         style="clip-rule:evenodd;display:inline;fill-rule:evenodd;stroke-width:0.0281344;stroke-linejoin:round;stroke-miterlimit:2;enable-background:new;fill:#000000;fill-opacity:1;opacity:0.2" /><path
         d="m 98.714998,172.95459 h -27.89149 a 4.809061,4.809061 0 0 1 -4.45437,-2.97706 4.8068606,4.8068606 0 0 1 1.0456,-5.25309 l 19.31898,-19.31898 h -13.84586 c -3.80482,0 -6.8875,-3.08311 -6.8875,-6.88794 h 25.72109 c 1.9583,0 3.70581,1.16706 4.4548,2.97486 a 4.8103812,4.8103812 0 0 1 -1.0434,5.25529 l -19.32162,19.31898 h 16.01583 c 3.80483,0 6.88794,3.08311 6.88794,6.88794 z M 222,151.43175 C 222,144.02673 215.97547,138 208.57089,138 c -3.96237,0 -7.52692,1.72506 -9.9869,4.46185 C 196.12182,139.72462 192.55727,138 188.59753,138 c -7.40765,0 -13.43219,6.02453 -13.43219,13.43175 v 21.52284 c 3.80527,0 6.88794,-3.08312 6.88794,-6.88794 v -14.6349 c 0,-3.60899 2.93482,-6.54381 6.54381,-6.54381 3.60724,0 6.54205,2.93482 6.54205,6.54381 v 14.6349 c 0,3.80482 3.08267,6.88794 6.8875,6.88794 v -21.52284 c 0,-3.60899 2.93482,-6.54381 6.54381,-6.54381 3.60724,0 6.54205,2.93482 6.54205,6.54381 v 14.6349 c 0,3.80482 3.08487,6.88794 6.8875,6.88794 z m -50.27731,4.3043 c 0,9.79591 -7.94014,17.73606 -17.73561,17.73606 -9.79591,0 -17.73605,-7.94059 -17.73605,-17.73606 0,-9.7959 7.94014,-17.73605 17.73605,-17.73605 9.79547,0 17.73561,7.94059 17.73561,17.73605 z m -6.88794,0 c 0,-5.99064 -4.85703,-10.84767 -10.84767,-10.84767 -5.99108,0 -10.84811,4.85703 -10.84811,10.84767 0,5.99065 4.85703,10.84768 10.84767,10.84768 5.99108,0 10.84811,-4.85703 10.84811,-10.84768 z m -31.33855,0 c 0,9.79591 -7.94014,17.73606 -17.73341,17.73606 -9.79591,0 -17.736052,-7.94059 -17.736052,-17.73606 0,-9.7959 7.940582,-17.73605 17.736052,-17.73605 9.79327,0 17.73341,7.94059 17.73341,17.73605 z m -6.88794,0 c 0,-5.99064 -4.85483,-10.84767 -10.84547,-10.84767 -5.99284,0 -10.84767,4.85703 -10.84767,10.84767 0,5.99065 4.85483,10.84768 10.84767,10.84768 5.99064,0 10.84547,-4.85703 10.84547,-10.84768 z"
         fill="#ffffff"
         id="path2-6"
         style="clip-rule:evenodd;display:inline;fill-rule:evenodd;stroke-width:0.440068;stroke-linejoin:round;stroke-miterlimit:2;enable-background:new" /><path
         d="m 320.905,81.65153 h -9.29716 a 1.6030203,1.6030203 0 0 1 -1.48479,-0.992354 1.6022867,1.6022867 0 0 1 0.34853,-1.75103 l 6.43967,-6.439659 h -4.6153 c -1.26827,0 -2.29583,-1.027704 -2.29583,-2.29598 h 8.5737 c 0.65277,0 1.23527,0.38902 1.48493,0.99162 a 1.6034603,1.6034603 0 0 1 -0.34779,1.751763 l -6.44054,6.439659 h 5.33861 c 1.26827,0 2.29597,1.027703 2.29597,2.295981 z M 362,74.47725 C 362,72.00891 359.99183,70 357.52363,70 c -1.32079,0 -2.50897,0.57502 -3.32896,1.487283 C 353.37394,70.574873 352.18575,70 350.86584,70 c -2.46921,0 -4.47739,2.008177 -4.47739,4.47725 v 7.17428 c 1.26842,0 2.29598,-1.027707 2.29598,-2.295981 V 74.47725 c 0,-1.202997 0.97827,-2.18127 2.18127,-2.18127 1.20242,0 2.18068,0.978273 2.18068,2.18127 v 4.878299 c 0,1.268274 1.02756,2.295981 2.29583,2.295981 v -7.17428 c 0,-1.202997 0.97828,-2.18127 2.18127,-2.18127 1.20242,0 2.18069,0.978273 2.18069,2.18127 v 4.878299 c 0,1.268274 1.02829,2.295981 2.29583,2.295981 z m -16.7591,1.434767 c 0,3.265303 -2.64672,5.912019 -5.91187,5.912019 -3.2653,0 -5.91202,-2.646863 -5.91202,-5.912019 0,-3.265301 2.64672,-5.912017 5.91202,-5.912017 3.26515,0 5.91187,2.646863 5.91187,5.912017 z m -2.29598,0 c 0,-1.99688 -1.61901,-3.615891 -3.61589,-3.615891 -1.99703,0 -3.61604,1.619011 -3.61604,3.615891 0,1.996882 1.61901,3.615892 3.6159,3.615892 1.99702,0 3.61603,-1.61901 3.61603,-3.615892 z m -10.44619,0 c 0,3.265303 -2.64671,5.912019 -5.91113,5.912019 -3.2653,0 -5.91202,-2.646863 -5.91202,-5.912019 0,-3.265301 2.64686,-5.912017 5.91202,-5.912017 3.26442,0 5.91113,2.646863 5.91113,5.912017 z m -2.29597,0 c 0,-1.99688 -1.61828,-3.615891 -3.61516,-3.615891 -1.99762,0 -3.61589,1.619011 -3.61589,3.615891 0,1.996882 1.61827,3.615892 3.61589,3.615892 1.99688,0 3.61516,-1.61901 3.61516,-3.615892 z"
         fill="#ffffff"
         id="path2-6-7"
         style="clip-rule:evenodd;display:inline;fill-rule:evenodd;stroke-width:0.146689;stroke-linejoin:round;stroke-miterlimit:2;enable-background:new" /><path
         d="m 308.96903,176.51458 h -6.79408 a 1.1714378,1.1714378 0 0 1 -1.08504,-0.72518 1.1709017,1.1709017 0 0 1 0.25471,-1.2796 l 4.7059,-4.70591 h -3.37271 c -0.92682,0 -1.67773,-0.75101 -1.67773,-1.67783 h 6.2654 c 0.47701,0 0.90269,0.28429 1.08514,0.72465 a 1.1717594,1.1717594 0 0 1 -0.25416,1.28013 l -4.70655,4.70591 h 3.9013 c 0.92681,0 1.67782,0.75101 1.67782,1.67783 z M 339,171.27184 C 339,169.46805 337.53248,168 335.7288,168 c -0.9652,0 -1.83348,0.42021 -2.43271,1.08686 C 332.69633,168.4201 331.82804,168 330.86349,168 c -1.80442,0 -3.27194,1.46751 -3.27194,3.27184 v 5.24274 c 0.92693,0 1.67784,-0.75102 1.67784,-1.67783 v -3.56491 c 0,-0.87912 0.71488,-1.59401 1.594,-1.59401 0.87868,0 1.59357,0.71489 1.59357,1.59401 v 3.56491 c 0,0.92681 0.75091,1.67783 1.67773,1.67783 v -5.24274 c 0,-0.87912 0.71489,-1.59401 1.594,-1.59401 0.87869,0 1.59358,0.71489 1.59358,1.59401 v 3.56491 c 0,0.92681 0.75144,1.67783 1.67773,1.67783 z m -12.24704,1.04848 c 0,2.38618 -1.93414,4.32032 -4.32022,4.32032 -2.38619,0 -4.32032,-1.93424 -4.32032,-4.32032 0,-2.38618 1.93413,-4.32032 4.32032,-4.32032 2.38608,0 4.32022,1.93425 4.32022,4.32032 z m -1.67784,0 c 0,-1.45926 -1.18312,-2.64238 -2.64238,-2.64238 -1.45936,0 -2.64248,1.18312 -2.64248,2.64238 0,1.45926 1.18312,2.64238 2.64238,2.64238 1.45936,0 2.64248,-1.18312 2.64248,-2.64238 z m -7.63374,0 c 0,2.38618 -1.93414,4.32032 -4.31968,4.32032 -2.38618,0 -4.32032,-1.93424 -4.32032,-4.32032 0,-2.38618 1.93424,-4.32032 4.32032,-4.32032 2.38554,0 4.31968,1.93425 4.31968,4.32032 z m -1.67783,0 c 0,-1.45926 -1.18259,-2.64238 -2.64185,-2.64238 -1.45979,0 -2.64238,1.18312 -2.64238,2.64238 0,1.45926 1.18259,2.64238 2.64238,2.64238 1.45926,0 2.64185,-1.18312 2.64185,-2.64238 z"
         fill="#ffffff"
         id="path2-6-5"
         style="clip-rule:evenodd;display:inline;fill-rule:evenodd;stroke-width:0.107196;stroke-linejoin:round;stroke-miterlimit:2;enable-background:new" /><path
         d="m 304.45249,246.82576 h -4.64858 a 0.80151009,0.80151009 0 0 1 -0.74239,-0.49618 0.80114329,0.80114329 0 0 1 0.17426,-0.87551 l 3.21983,-3.21982 h -2.30764 c -0.63414,0 -1.14792,-0.51386 -1.14792,-1.148 h 4.28685 c 0.32638,0 0.61764,0.19451 0.74247,0.49581 a 0.80173009,0.80173009 0 0 1 -0.1739,0.87589 l -3.22027,3.21983 h 2.6693 c 0.63414,0 1.14799,0.51385 1.14799,1.14798 z m 20.5475,-3.58714 c 0,-1.23417 -1.00408,-2.23862 -2.23818,-2.23862 -0.6604,0 -1.25449,0.28751 -1.66448,0.74364 C 320.68696,241.28744 320.09287,241 319.43291,241 c -1.2346,0 -2.23869,1.00409 -2.23869,2.23862 v 3.58714 c 0.63421,0 1.14799,-0.51385 1.14799,-1.14798 v -2.43916 c 0,-0.60149 0.48914,-1.09063 1.09064,-1.09063 0.60121,0 1.09034,0.48914 1.09034,1.09063 v 2.43916 c 0,0.63413 0.51378,1.14798 1.14791,1.14798 v -3.58714 c 0,-0.6015 0.48914,-1.09063 1.09064,-1.09063 0.60121,0 1.09034,0.48913 1.09034,1.09063 v 2.43915 c 0,0.63413 0.51415,1.14798 1.14792,1.14798 z m -8.37955,0.71738 c 0,1.63265 -1.32336,2.956 -2.95593,2.956 -1.63266,0 -2.95601,-1.32343 -2.95601,-2.956 0,-1.63265 1.32335,-2.956 2.95601,-2.956 1.63257,0 2.95593,1.32343 2.95593,2.956 z m -1.14799,0 c 0,-0.99844 -0.8095,-1.80795 -1.80794,-1.80795 -0.99852,0 -1.80802,0.80951 -1.80802,1.80795 0,0.99844 0.8095,1.80795 1.80795,1.80795 0.99851,0 1.80801,-0.80951 1.80801,-1.80795 z m -5.22309,0 c 0,1.63265 -1.32336,2.956 -2.95557,2.956 -1.63265,0 -2.95601,-1.32343 -2.95601,-2.956 0,-1.63265 1.32343,-2.956 2.95601,-2.956 1.63221,0 2.95557,1.32343 2.95557,2.956 z m -1.14799,0 c 0,-0.99844 -0.80914,-1.80795 -1.80758,-1.80795 -0.99881,0 -1.80794,0.80951 -1.80794,1.80795 0,0.99844 0.80913,1.80795 1.80794,1.80795 0.99844,0 1.80758,-0.80951 1.80758,-1.80795 z"
         fill="#ffffff"
         id="path2-6-3"
         style="clip-rule:evenodd;display:inline;fill-rule:evenodd;stroke-width:0.0733445;stroke-linejoin:round;stroke-miterlimit:2;enable-background:new" /><path
         d="m 426.19422,70.481353 h -3.57583 a 0.61654614,0.61654614 0 0 1 -0.57107,-0.381677 0.61626399,0.61626399 0 0 1 0.13405,-0.673469 l 2.47679,-2.476784 h -1.77511 c -0.4878,0 -0.88301,-0.395277 -0.88301,-0.883077 h 3.29757 c 0.25107,0 0.47511,0.149623 0.57113,0.381392 a 0.61671537,0.61671537 0 0 1 -0.13376,0.673762 l -2.47713,2.476792 h 2.0533 c 0.4878,0 0.88307,0.395269 0.88307,0.883061 z m 15.80577,-2.759338 C 441.99999,66.772654 441.22762,66 440.27831,66 c -0.508,0 -0.96499,0.221162 -1.28037,0.572031 C 438.68227,66.221108 438.22528,66 437.71762,66 c -0.94969,0 -1.72207,0.772377 -1.72207,1.722015 v 2.759338 c 0.48786,0 0.88307,-0.395269 0.88307,-0.883061 v -1.876277 c 0,-0.462684 0.37626,-0.838946 0.83895,-0.838946 0.46247,0 0.83873,0.376262 0.83873,0.838946 v 1.876277 c 0,0.487792 0.39521,0.883061 0.883,0.883061 v -2.759338 c 0,-0.462692 0.37627,-0.838946 0.83896,-0.838946 0.46247,0 0.83872,0.376254 0.83872,0.838946 v 1.876269 c 0,0.487792 0.3955,0.883062 0.88302,0.883062 z m -6.44581,0.551831 c 0,1.255884 -1.01797,2.273846 -2.27379,2.273846 -1.25589,0 -2.27385,-1.018023 -2.27385,-2.273846 0,-1.255885 1.01796,-2.273846 2.27385,-2.273846 1.25582,0 2.27379,1.018023 2.27379,2.273846 z m -0.88307,0 c 0,-0.768031 -0.62269,-1.390731 -1.39072,-1.390731 -0.76809,0 -1.39078,0.6227 -1.39078,1.390731 0,0.768031 0.62269,1.39073 1.39073,1.39073 0.76808,0 1.39077,-0.622699 1.39077,-1.39073 z m -4.01776,0 c 0,1.255884 -1.01797,2.273846 -2.27351,2.273846 -1.25589,0 -2.27386,-1.018023 -2.27386,-2.273846 0,-1.255885 1.01803,-2.273846 2.27386,-2.273846 1.25554,0 2.27351,1.018023 2.27351,2.273846 z m -0.88307,0 c 0,-0.768031 -0.62241,-1.390731 -1.39044,-1.390731 -0.76832,0 -1.39073,0.6227 -1.39073,1.390731 0,0.768031 0.62241,1.39073 1.39073,1.39073 0.76803,0 1.39044,-0.622699 1.39044,-1.39073 z"
         fill="#ffffff"
         id="path2-6-3-5"
         style="clip-rule:evenodd;display:inline;fill-rule:evenodd;stroke-width:0.0564188;stroke-linejoin:round;stroke-miterlimit:2;enable-background:new" /><path
         d="m 424.51654,113.68881 h -2.1455 a 0.36992769,0.36992769 0 0 1 -0.34264,-0.229 0.36975839,0.36975839 0 0 1 0.0804,-0.40409 l 1.48607,-1.48607 h -1.06506 c -0.29268,0 -0.52981,-0.23716 -0.52981,-0.52984 h 1.97855 c 0.15063,0 0.28506,0.0898 0.34268,0.22883 a 0.37002922,0.37002922 0 0 1 -0.0803,0.40426 l -1.48627,1.48608 h 1.23198 c 0.29268,0 0.52984,0.23716 0.52984,0.52983 z M 434,112.03321 C 434,111.46359 433.53658,111 432.967,111 c -0.3048,0 -0.579,0.1327 -0.76823,0.34322 C 432.00937,111.13266 431.73518,111 431.43058,111 c -0.56981,0 -1.03324,0.46343 -1.03324,1.03321 v 1.6556 c 0.29271,0 0.52984,-0.23716 0.52984,-0.52983 v -1.12577 c 0,-0.27761 0.22576,-0.50337 0.50337,-0.50337 0.27748,0 0.50324,0.22576 0.50324,0.50337 v 1.12577 c 0,0.29267 0.23713,0.52983 0.5298,0.52983 v -1.6556 c 0,-0.27762 0.22576,-0.50337 0.50337,-0.50337 0.27749,0 0.50324,0.22575 0.50324,0.50337 v 1.12576 c 0,0.29268 0.2373,0.52984 0.52981,0.52984 z m -3.86748,0.3311 c 0,0.75353 -0.61078,1.36431 -1.36428,1.36431 -0.75353,0 -1.36431,-0.61082 -1.36431,-1.36431 0,-0.75353 0.61078,-1.36431 1.36431,-1.36431 0.7535,0 1.36428,0.61081 1.36428,1.36431 z m -0.52984,0 c 0,-0.46082 -0.37362,-0.83444 -0.83444,-0.83444 -0.46085,0 -0.83447,0.37362 -0.83447,0.83444 0,0.46082 0.37362,0.83444 0.83444,0.83444 0.46085,0 0.83447,-0.37362 0.83447,-0.83444 z m -2.41066,0 c 0,0.75353 -0.61078,1.36431 -1.36411,1.36431 -0.75353,0 -1.36431,-0.61082 -1.36431,-1.36431 0,-0.75353 0.61081,-1.36431 1.36431,-1.36431 0.75333,0 1.36411,0.61081 1.36411,1.36431 z m -0.52984,0 c 0,-0.46082 -0.37345,-0.83444 -0.83427,-0.83444 -0.46099,0 -0.83443,0.37362 -0.83443,0.83444 0,0.46082 0.37344,0.83444 0.83443,0.83444 0.46082,0 0.83427,-0.37362 0.83427,-0.83444 z"
         fill="#ffffff"
         id="path2-6-3-6"
         style="clip-rule:evenodd;display:inline;fill-rule:evenodd;stroke-width:0.0338513;stroke-linejoin:round;stroke-miterlimit:2;enable-background:new" /><path
         d="m 421.09712,149.24068 h -1.78792 a 0.30827307,0.30827307 0 0 1 -0.28553,-0.19084 0.308132,0.308132 0 0 1 0.067,-0.33674 l 1.2384,-1.23839 h -0.88756 c -0.2439,0 -0.4415,-0.19764 -0.4415,-0.44154 h 1.64879 c 0.12553,0 0.23755,0.0748 0.28556,0.1907 a 0.30835769,0.30835769 0 0 1 -0.0669,0.33688 l -1.23857,1.2384 h 1.02665 c 0.2439,0 0.44154,0.19763 0.44154,0.44153 z M 429,147.86101 C 429,147.38633 428.61382,147 428.13916,147 c -0.254,0 -0.48249,0.11058 -0.64018,0.28602 C 427.34115,147.11055 427.11265,147 426.85882,147 c -0.47485,0 -0.86104,0.38619 -0.86104,0.86101 v 1.37967 c 0.24393,0 0.44154,-0.19764 0.44154,-0.44153 v -0.93814 c 0,-0.23134 0.18813,-0.41948 0.41948,-0.41948 0.23123,0 0.41936,0.18814 0.41936,0.41948 v 0.93814 c 0,0.24389 0.1976,0.44153 0.4415,0.44153 v -1.37967 c 0,-0.23135 0.18813,-0.41948 0.41948,-0.41948 0.23123,0 0.41936,0.18813 0.41936,0.41948 v 0.93813 c 0,0.2439 0.19775,0.44153 0.44151,0.44153 z m -3.2229,0.27591 c 0,0.62795 -0.50899,1.13693 -1.1369,1.13693 -0.62794,0 -1.13692,-0.50902 -1.13692,-1.13693 0,-0.62794 0.50898,-1.13692 1.13692,-1.13692 0.62791,0 1.1369,0.50901 1.1369,1.13692 z m -0.44154,0 c 0,-0.38401 -0.31134,-0.69536 -0.69536,-0.69536 -0.38404,0 -0.69539,0.31135 -0.69539,0.69536 0,0.38402 0.31135,0.69537 0.69537,0.69537 0.38404,0 0.69538,-0.31135 0.69538,-0.69537 z m -2.00888,0 c 0,0.62795 -0.50898,1.13693 -1.13675,1.13693 -0.62795,0 -1.13693,-0.50902 -1.13693,-1.13693 0,-0.62794 0.50901,-1.13692 1.13693,-1.13692 0.62777,0 1.13675,0.50901 1.13675,1.13692 z m -0.44153,0 c 0,-0.38401 -0.31121,-0.69536 -0.69522,-0.69536 -0.38416,0 -0.69536,0.31135 -0.69536,0.69536 0,0.38402 0.3112,0.69537 0.69536,0.69537 0.38401,0 0.69522,-0.31135 0.69522,-0.69537 z"
         fill="#ffffff"
         id="path2-6-3-2"
         style="clip-rule:evenodd;display:inline;fill-rule:evenodd;stroke-width:0.0282094;stroke-linejoin:round;stroke-miterlimit:2;enable-background:new" /></g><g
       inkscape:groupmode="layer"
       id="layer5"
       inkscape:label="Highlights"
       style="display:inline"
       sodipodi:insensitive="true"><path
         style="opacity:0.12999998;color:#bebebe;fill:#ffffff;fill-opacity:1;fill-rule:nonzero;stroke:none;stroke-width:0;marker:none;visibility:visible;display:inline;overflow:visible;enable-background:accumulate"
         d="M 84,47 C 56.836703,47 35,68.836703 35,96 l 0,1 C 35,69.836703 56.836703,48 84,48 l 120,0 c 27.1633,0 49,21.836703 49,49 l 0,-1 C 253,68.836703 231.1633,47 204,47 L 84,47 z"
         id="rect3894"
         inkscape:connector-curvature="0" /><path
         style="opacity:0.12999998;color:#bebebe;fill:#ffffff;fill-opacity:1;fill-rule:nonzero;stroke:none;stroke-width:0;marker:none;visibility:visible;display:inline;overflow:visible;enable-background:accumulate"
         d="m 419,141 c -1.1253,0 -2,0.8747 -2,2 l 0,1 c 0,-1.1253 0.8747,-2 2,-2 l 10,0 c 1.1253,0 2,0.8747 2,2 l 0,-1 c 0,-1.1253 -0.8747,-2 -2,-2 l -10,0 z"
         id="rect3896"
         inkscape:connector-curvature="0" /><path
         style="opacity:0.12999998;color:#bebebe;fill:#ffffff;fill-opacity:1;fill-rule:nonzero;stroke:none;stroke-width:0;marker:none;visibility:visible;display:inline;overflow:visible;enable-background:accumulate"
         d="m 422,102 c -2.2333,0 -4,1.7667 -4,4 l 0,1 c 0,-2.2333 1.7667,-4 4,-4 l 12,0 c 2.2333,0 4,1.7667 4,4 l 0,-1 c 0,-2.2333 -1.7667,-4 -4,-4 l -12,0 z"
         id="rect3898"
         inkscape:connector-curvature="0" /><path
         style="opacity:0.12999998;color:#bebebe;fill:#ffffff;fill-opacity:1;fill-rule:nonzero;stroke:none;stroke-width:0;marker:none;visibility:visible;display:inline;overflow:visible;enable-background:accumulate"
         d="m 424,54 c -3.3413,0 -6,2.658703 -6,6 l 0,1 c 0,-3.341297 2.6587,-6 6,-6 l 16,0 c 3.3413,0 6,2.658703 6,6 l 0,-1 c 0,-3.341297 -2.6587,-6 -6,-6 l -16,0 z"
         id="rect3900"
         inkscape:connector-curvature="0" /><path
         style="opacity:0.12999998;color:#bebebe;fill:#ffffff;fill-opacity:1;fill-rule:nonzero;stroke:none;stroke-width:0;marker:none;visibility:visible;display:inline;overflow:visible;enable-background:accumulate"
         d="m 300,224 c -4.4493,0 -8,3.5507 -8,8 l 0,1 c 0,-4.4493 3.5507,-8 8,-8 l 24,0 c 4.4493,0 8,3.5507 8,8 l 0,-1 c 0,-4.4493 -3.5507,-8 -8,-8 l -24,0 z"
         id="rect3902"
         inkscape:connector-curvature="0" /><path
         style="opacity:0.12999998;color:#bebebe;fill:#ffffff;fill-opacity:1;fill-rule:nonzero;stroke:none;stroke-width:0;marker:none;visibility:visible;display:inline;overflow:visible;enable-background:accumulate"
         d="m 310,33 c -9.4353,0 -17,7.564703 -17,17 l 0,1 c 0,-9.435297 7.5647,-17 17,-17 l 52,0 c 9.4353,0 17,7.564703 17,17 l 0,-1 c 0,-9.435297 -7.5647,-17 -17,-17 l -52,0 z"
         id="rect3904"
         inkscape:connector-curvature="0" /><path
         style="opacity:0.12999998;color:#bebebe;fill:#ffffff;fill-opacity:1;fill-rule:nonzero;stroke:none;stroke-width:0;marker:none;visibility:visible;display:inline;overflow:visible;enable-background:accumulate"
         d="m 302.5,143 c -6.3883,0 -11.5,5.1117 -11.5,11.5 l 0,1 c 0,-6.3883 5.1117,-11.5 11.5,-11.5 l 35,0 c 6.3883,0 11.5,5.1117 11.5,11.5 l 0,-1 c 0,-6.3883 -5.1117,-11.5 -11.5,-11.5 l -35,0 z"
         id="rect3906"
         inkscape:connector-curvature="0" /><path
         id="path4085"
         d="m 204,266 c 27.1633,0 49,-21.8367 49,-49 l 0,-1 c 0,27.1633 -21.8367,49 -49,49 L 84,265 C 56.8367,265 35,243.1633 35,216 l 0,1 c 0,27.1633 21.8367,49 49,49 l 120,0 z"
         style="opacity:0.41;color:#bebebe;fill:#000000;fill-opacity:1;fill-rule:nonzero;stroke:none;stroke-width:0;marker:none;visibility:visible;display:inline;overflow:visible;enable-background:accumulate"
         inkscape:connector-curvature="0" /><path
         id="path4087"
         d="m 429,156 c 1.1253,0 2,-0.8747 2,-2 l 0,-1 c 0,1.1253 -0.8747,2 -2,2 l -10,0 c -1.1253,0 -2,-0.8747 -2,-2 l 0,1 c 0,1.1253 0.8747,2 2,2 l 10,0 z"
         style="opacity:0.3;color:#bebebe;fill:#000000;fill-opacity:1;fill-rule:nonzero;stroke:none;stroke-width:0;marker:none;visibility:visible;display:inline;overflow:visible;enable-background:accumulate"
         inkscape:connector-curvature="0" /><path
         id="path4089"
         d="m 434,123 c 2.2333,0 4,-1.7667 4,-4 l 0,-1 c 0,2.2333 -1.7667,4 -4,4 l -12,0 c -2.2333,0 -4,-1.7667 -4,-4 l 0,1 c 0,2.2333 1.7667,4 4,4 l 12,0 z"
         style="opacity:0.3;color:#bebebe;fill:#000000;fill-opacity:1;fill-rule:nonzero;stroke:none;stroke-width:0;marker:none;visibility:visible;display:inline;overflow:visible;enable-background:accumulate"
         inkscape:connector-curvature="0" /><path
         id="path4091"
         d="m 440,83 c 3.3413,0 6,-2.6587 6,-6 l 0,-1 c 0,3.3413 -2.6587,6 -6,6 l -16,0 c -3.3413,0 -6,-2.6587 -6,-6 l 0,1 c 0,3.3413 2.6587,6 6,6 l 16,0 z"
         style="opacity:0.41;color:#bebebe;fill:#000000;fill-opacity:1;fill-rule:nonzero;stroke:none;stroke-width:0;marker:none;visibility:visible;display:inline;overflow:visible;enable-background:accumulate"
         inkscape:connector-curvature="0" /><path
         id="path4093"
         d="m 324,265 c 4.4493,0 8,-3.5507 8,-8 l 0,-1 c 0,4.4493 -3.5507,8 -8,8 l -24,0 c -4.4493,0 -8,-3.5507 -8,-8 l 0,1 c 0,4.4493 3.5507,8 8,8 l 24,0 z"
         style="opacity:0.41;color:#bebebe;fill:#000000;fill-opacity:1;fill-rule:nonzero;stroke:none;stroke-width:0;marker:none;visibility:visible;display:inline;overflow:visible;enable-background:accumulate"
         inkscape:connector-curvature="0" /><path
         id="path4095"
         d="m 362,120 c 9.4353,0 17,-7.5647 17,-17 l 0,-1 c 0,9.4353 -7.5647,17 -17,17 l -52,0 c -9.4353,0 -17,-7.5647 -17,-17 l 0,1 c 0,9.4353 7.5647,17 17,17 l 52,0 z"
         style="opacity:0.41;color:#bebebe;fill:#000000;fill-opacity:1;fill-rule:nonzero;stroke:none;stroke-width:0;marker:none;visibility:visible;display:inline;overflow:visible;enable-background:accumulate"
         inkscape:connector-curvature="0" /><path
         id="path4097"
         d="m 337.5,202 c 6.3883,0 11.5,-5.1117 11.5,-11.5 l 0,-1 c 0,6.3883 -5.1117,11.5 -11.5,11.5 l -35,0 c -6.3883,0 -11.5,-5.1117 -11.5,-11.5 l 0,1 c 0,6.3883 5.1117,11.5 11.5,11.5 l 35,0 z"
         style="opacity:0.41;color:#bebebe;fill:#000000;fill-opacity:1;fill-rule:nonzero;stroke:none;stroke-width:0;marker:none;visibility:visible;display:inline;overflow:visible;enable-background:accumulate"
         inkscape:connector-curvature="0" /><path
         inkscape:connector-curvature="0"
         id="path4280"
         d="M 84,265 C 56.836703,265 35,243.1633 35,216 l 0,-1 c 0,27.1633 21.836703,49 49,49 l 120,0 c 27.1633,0 49,-21.8367 49,-49 l 0,1 c 0,27.1633 -21.8367,49 -49,49 l -120,0 z"
         style="opacity:0.1;color:#bebebe;fill:#ffffff;fill-opacity:1;fill-rule:nonzero;stroke:none;stroke-width:0;marker:none;visibility:visible;display:inline;overflow:visible;enable-background:accumulate" /><path
         style="opacity:0.1;color:#bebebe;fill:#ffffff;fill-opacity:1;fill-rule:nonzero;stroke:none;stroke-width:0;marker:none;visibility:visible;display:inline;overflow:visible;enable-background:accumulate"
         d="m 300,264 c -4.4493,0 -8,-3.5507 -8,-8 l 0,-1 c 0,4.4493 3.5507,8 8,8 l 24,0 c 4.4493,0 8,-3.5507 8,-8 l 0,1 c 0,4.4493 -3.5507,8 -8,8 l -24,0 z"
         id="path4294"
         inkscape:connector-curvature="0" /><path
         style="opacity:0.1;color:#bebebe;fill:#ffffff;fill-opacity:1;fill-rule:nonzero;stroke:none;stroke-width:0;marker:none;visibility:visible;display:inline;overflow:visible;enable-background:accumulate"
         d="m 302.5,201 c -6.3883,0 -11.5,-5.1117 -11.5,-11.5 l 0,-1 c 0,6.3883 5.1117,11.5 11.5,11.5 l 35,0 c 6.3883,0 11.5,-5.1117 11.5,-11.5 l 0,1 c 0,6.3883 -5.1117,11.5 -11.5,11.5 l -35,0 z"
         id="path4296"
         inkscape:connector-curvature="0" /><path
         style="opacity:0.1;color:#bebebe;fill:#ffffff;fill-opacity:1;fill-rule:nonzero;stroke:none;stroke-width:0;marker:none;visibility:visible;display:inline;overflow:visible;enable-background:accumulate"
         d="m 310,119 c -9.4353,0 -17,-7.5647 -17,-17 l 0,-1 c 0,9.4353 7.5647,17 17,17 l 52,0 c 9.4353,0 17,-7.5647 17,-17 l 0,1 c 0,9.4353 -7.5647,17 -17,17 l -52,0 z"
         id="path4298"
         inkscape:connector-curvature="0" /><path
         style="opacity:0.1;color:#bebebe;fill:#ffffff;fill-opacity:1;fill-rule:nonzero;stroke:none;stroke-width:0;marker:none;visibility:visible;display:inline;overflow:visible;enable-background:accumulate"
         d="m 424,82 c -3.3413,0 -6,-2.658703 -6,-6 l 0,-1 c 0,3.341297 2.6587,6 6,6 l 16,0 c 3.3413,0 6,-2.658703 6,-6 l 0,1 c 0,3.341297 -2.6587,6 -6,6 l -16,0 z"
         id="path4300"
         inkscape:connector-curvature="0" /><path
         style="opacity:0.1;color:#bebebe;fill:#ffffff;fill-opacity:1;fill-rule:nonzero;stroke:none;stroke-width:0;marker:none;visibility:visible;display:inline;overflow:visible;enable-background:accumulate"
         d="m 422,122 c -2.2333,0 -4,-1.7667 -4,-4 l 0,-1 c 0,2.2333 1.7667,4 4,4 l 12,0 c 2.2333,0 4,-1.7667 4,-4 l 0,1 c 0,2.2333 -1.7667,4 -4,4 l -12,0 z"
         id="path4302"
         inkscape:connector-curvature="0" /><path
         style="opacity:0.1;color:#bebebe;fill:#ffffff;fill-opacity:1;fill-rule:nonzero;stroke:none;stroke-width:0;marker:none;visibility:visible;display:inline;overflow:visible;enable-background:accumulate"
         d="m 419,154.5 c -1.1253,0 -2,-0.8747 -2,-2 l 0,-1 c 0,1.1253 0.8747,2 2,2 l 10,0 c 1.1253,0 2,-0.8747 2,-2 l 0,1 c 0,1.1253 -0.8747,2 -2,2 l -10,0 z"
         id="path4304"
         inkscape:connector-curvature="0" /></g><g
       inkscape:groupmode="layer"
       id="layer3"
       inkscape:label="Border"
       style="display:inline"
       sodipodi:insensitive="true"><path
         style="opacity:0.41;color:#bebebe;fill:#000000;fill-opacity:1;fill-rule:nonzero;stroke:none;stroke-width:0;marker:none;visibility:visible;display:inline;overflow:visible;enable-background:accumulate"
         d="m 422,101 c -2.77,0 -5,2.23 -5,5 l 0,12 c 0,2.77 2.23,5 5,5 l 12,0 c 2.77,0 5,-2.23 5,-5 l 0,-12 c 0,-2.77 -2.23,-5 -5,-5 l -12,0 z m 0,1 12,0 c 2.2333,0 4,1.7667 4,4 l 0,12 c 0,2.2333 -1.7667,4 -4,4 l -12,0 c -2.2333,0 -4,-1.7667 -4,-4 l 0,-12 c 0,-2.2333 1.7667,-4 4,-4 z"
         id="rect4099"
         inkscape:connector-curvature="0" /><path
         style="opacity:0.41;color:#bebebe;fill:#000000;fill-opacity:1;fill-rule:nonzero;stroke:none;stroke-width:0;marker:none;visibility:visible;display:inline;overflow:visible;enable-background:accumulate"
         d="m 424,53 c -3.878,0 -7,3.122 -7,7 l 0,16 c 0,3.878 3.122,7 7,7 l 16,0 c 3.878,0 7,-3.122 7,-7 l 0,-16 c 0,-3.878 -3.122,-7 -7,-7 l -16,0 z m 0,1 16,0 c 3.3413,0 6,2.658703 6,6 l 0,16 c 0,3.341297 -2.6587,6 -6,6 l -16,0 c -3.3413,0 -6,-2.658703 -6,-6 l 0,-16 c 0,-3.341297 2.6587,-6 6,-6 z"
         id="rect4151"
         inkscape:connector-curvature="0" /><path
         style="opacity:0.41;color:#bebebe;fill:#000000;fill-opacity:1;fill-rule:nonzero;stroke:none;stroke-width:0;marker:none;visibility:visible;display:inline;overflow:visible;enable-background:accumulate"
         d="m 419,140 c -1.662,0 -3,1.338 -3,3 l 0,10 c 0,1.662 1.338,3 3,3 l 10,0 c 1.662,0 3,-1.338 3,-3 l 0,-10 c 0,-1.662 -1.338,-3 -3,-3 l -10,0 z m 0,1 10,0 c 1.1253,0 2,0.8747 2,2 l 0,10 c 0,1.1253 -0.8747,2 -2,2 l -10,0 c -1.1253,0 -2,-0.8747 -2,-2 l 0,-10 c 0,-1.1253 0.8747,-2 2,-2 z"
         id="rect4095"
         inkscape:connector-curvature="0" /><path
         style="opacity:0.41;color:#bebebe;fill:#000000;fill-opacity:1;fill-rule:nonzero;stroke:none;stroke-width:0;marker:none;visibility:visible;display:inline;overflow:visible;enable-background:accumulate"
         d="m 300,223 c -4.986,0 -9,4.014 -9,9 l 0,24 c 0,4.986 4.014,9 9,9 l 24,0 c 4.986,0 9,-4.014 9,-9 l 0,-24 c 0,-4.986 -4.014,-9 -9,-9 l -24,0 z m 0,1 24,0 c 4.4493,0 8,3.5507 8,8 l 0,24 c 0,4.4493 -3.5507,8 -8,8 l -24,0 c -4.4493,0 -8,-3.5507 -8,-8 l 0,-24 c 0,-4.4493 3.5507,-8 8,-8 z"
         id="rect4783"
         inkscape:connector-curvature="0" /><path
         style="opacity:0.41;color:#bebebe;fill:#000000;fill-opacity:1;fill-rule:nonzero;stroke:none;stroke-width:0;marker:none;visibility:visible;display:inline;overflow:visible;enable-background:accumulate"
         d="m 302.5,142 c -6.925,0 -12.5,5.575 -12.5,12.5 l 0,35 c 0,6.925 5.575,12.5 12.5,12.5 l 35,0 c 6.925,0 12.5,-5.575 12.5,-12.5 l 0,-35 c 0,-6.925 -5.575,-12.5 -12.5,-12.5 l -35,0 z m 0,1 35,0 c 6.3883,0 11.5,5.1117 11.5,11.5 l 0,35 c 0,6.3883 -5.1117,11.5 -11.5,11.5 l -35,0 c -6.3883,0 -11.5,-5.1117 -11.5,-11.5 l 0,-35 c 0,-6.3883 5.1117,-11.5 11.5,-11.5 z"
         id="rect4515"
         inkscape:connector-curvature="0" /><path
         style="opacity:0.41;color:#bebebe;fill:#000000;fill-opacity:1;fill-rule:nonzero;stroke:none;stroke-width:0;marker:none;visibility:visible;display:inline;overflow:visible;enable-background:accumulate"
         d="m 310,32 c -9.972,0 -18,8.028 -18,18 l 0,52 c 0,9.972 8.028,18 18,18 l 52,0 c 9.972,0 18,-8.028 18,-18 l 0,-52 c 0,-9.972 -8.028,-18 -18,-18 l -52,0 z m 0,1 52,0 c 9.4353,0 17,7.564703 17,17 l 0,52 c 0,9.4353 -7.5647,17 -17,17 l -52,0 c -9.4353,0 -17,-7.5647 -17,-17 l 0,-52 c 0,-9.435297 7.5647,-17 17,-17 z"
         id="rect4511"
         inkscape:connector-curvature="0" /><path
         style="opacity:0.41;color:#bebebe;fill:#000000;fill-opacity:1;fill-rule:nonzero;stroke:none;stroke-width:0;marker:none;visibility:visible;display:inline;overflow:visible;enable-background:accumulate"
         d="M 84,46 C 56.3,46 34,68.3 34,96 l 0,120 c 0,27.7 22.3,50 50,50 l 120,0 c 27.7,0 50,-22.3 50,-50 L 254,96 C 254,68.3 231.7,46 204,46 L 84,46 z m 0,1 120,0 c 27.1633,0 49,21.836703 49,49 l 0,120 c 0,27.1633 -21.8367,49 -49,49 L 84,265 C 56.836703,265 35,243.1633 35,216 L 35,96 C 35,68.836703 56.836703,47 84,47 z"
         id="rect4040"
         inkscape:connector-curvature="0" /></g></g><style
     id="style901"
     type="text/css">
	.st0{fill:#1A73E8;}
	.st1{opacity:0.2;fill:#FFFFFF;enable-background:new    ;}
	.st2{fill:#1A237E;fill-opacity:0.2;}
	.st3{fill:#185ABC;}
	.st4{fill:#F1F3F4;}
	.st5{fill:#FFFFFF;}
	.st6{fill:#BDC1C6;}
</style></svg>
