<?xml version="1.0" encoding="UTF-8" standalone="no"?>
<!-- Created with Inkscape (http://www.inkscape.org/) -->

<svg
   xmlns:dc="http://purl.org/dc/elements/1.1/"
   xmlns:cc="http://creativecommons.org/ns#"
   xmlns:rdf="http://www.w3.org/1999/02/22-rdf-syntax-ns#"
   xmlns:svg="http://www.w3.org/2000/svg"
   xmlns="http://www.w3.org/2000/svg"
   xmlns:xlink="http://www.w3.org/1999/xlink"
   xmlns:sodipodi="http://sodipodi.sourceforge.net/DTD/sodipodi-0.dtd"
   xmlns:inkscape="http://www.inkscape.org/namespaces/inkscape"
   inkscape:export-ydpi="90.000000"
   inkscape:export-xdpi="90.000000"
   width="480"
   height="300"
   id="svg11300"
   sodipodi:version="0.32"
   inkscape:version="0.48.4 r9939"
   sodipodi:docname="web-sharelatex-alt.svg"
   inkscape:output_extension="org.inkscape.output.svg.inkscape"
   version="1.0"
   style="display:inline;enable-background:new"
   inkscape:export-filename="/home/sam/moka-next-template.png">
  <sodipodi:namedview
     stroke="#ef2929"
     fill="#f57900"
     id="base"
     pagecolor="#000000"
     bordercolor="#666666"
     borderopacity="0.25490196"
     inkscape:pageopacity="0"
     inkscape:pageshadow="2"
     inkscape:zoom="1.4142136"
     inkscape:cx="300.07537"
     inkscape:cy="117.13294"
     inkscape:current-layer="layer7"
     showgrid="false"
     inkscape:grid-bbox="true"
     inkscape:document-units="px"
     inkscape:showpageshadow="false"
     inkscape:window-width="1920"
     inkscape:window-height="1024"
     inkscape:window-x="0"
     inkscape:window-y="28"
     width="400px"
     height="300px"
     inkscape:snap-nodes="true"
     inkscape:snap-bbox="true"
     gridtolerance="10000"
     inkscape:object-nodes="true"
     inkscape:snap-grids="true"
     showguides="true"
     inkscape:guide-bbox="true"
     inkscape:window-maximized="1"
     inkscape:bbox-nodes="true"
     inkscape:bbox-paths="true"
     inkscape:snap-bbox-edge-midpoints="true"
     inkscape:snap-bbox-midpoints="true">
    <inkscape:grid
       spacingy="1px"
       spacingx="1px"
       id="grid5883"
       type="xygrid"
       enabled="true"
       visible="true"
       empspacing="4"
       snapvisiblegridlinesonly="true"
       dotted="false"
       color="#000000"
       opacity="0.1254902"
       empcolor="#203ef3"
       empopacity="0.36470588" />
    <inkscape:grid
       type="xygrid"
       id="grid11592"
       empspacing="8"
       visible="true"
       enabled="false"
       spacingx="0.5px"
       spacingy="0.5px"
       color="#ff0000"
       opacity="0.1254902"
       empcolor="#ff0000"
       empopacity="0.25098039"
       snapvisiblegridlinesonly="true"
       dotted="true" />
  </sodipodi:namedview>
  <defs
     id="defs3">
    <linearGradient
       id="linearGradient4072">
      <stop
         style="stop-color:#80281f;stop-opacity:1;"
         offset="0"
         id="stop4074" />
      <stop
         style="stop-color:#a93529;stop-opacity:1;"
         offset="1"
         id="stop4076" />
    </linearGradient>
    <linearGradient
       inkscape:collect="always"
       xlink:href="#linearGradient4072"
       id="linearGradient7210"
       gradientUnits="userSpaceOnUse"
       gradientTransform="matrix(0,-1,1,0,276,572)"
       x1="417"
       y1="148"
       x2="431"
       y2="148" />
    <linearGradient
       inkscape:collect="always"
       xlink:href="#linearGradient4072"
       id="linearGradient7212"
       gradientUnits="userSpaceOnUse"
       gradientTransform="matrix(0,-1,1,0,316,540)"
       x1="418"
       y1="112"
       x2="438"
       y2="112" />
    <linearGradient
       inkscape:collect="always"
       xlink:href="#linearGradient4072"
       id="linearGradient7214"
       gradientUnits="userSpaceOnUse"
       gradientTransform="matrix(0,-1,1,0,364,500)"
       x1="418"
       y1="68"
       x2="446"
       y2="68" />
    <linearGradient
       inkscape:collect="always"
       xlink:href="#linearGradient4072"
       id="linearGradient7216"
       gradientUnits="userSpaceOnUse"
       gradientTransform="matrix(0,-1,1,0,68,556)"
       x1="292"
       y1="244"
       x2="332"
       y2="244" />
    <linearGradient
       inkscape:collect="always"
       xlink:href="#linearGradient4072"
       id="linearGradient7218"
       gradientUnits="userSpaceOnUse"
       gradientTransform="matrix(0,-1,1,0,260,412)"
       x1="293"
       y1="76"
       x2="379"
       y2="76" />
    <linearGradient
       inkscape:collect="always"
       xlink:href="#linearGradient4072"
       id="linearGradient7220"
       gradientUnits="userSpaceOnUse"
       gradientTransform="matrix(0,-1,1,0,148,492)"
       x1="291"
       y1="172"
       x2="349"
       y2="172" />
    <linearGradient
       inkscape:collect="always"
       xlink:href="#linearGradient4131"
       id="linearGradient3970"
       gradientUnits="userSpaceOnUse"
       gradientTransform="translate(0,-4)"
       x1="397"
       y1="133"
       x2="397"
       y2="43" />
    <linearGradient
       id="linearGradient4131">
      <stop
         style="stop-color:#8b2b28;stop-opacity:1;"
         offset="0"
         id="stop4133" />
      <stop
         style="stop-color:#cb2c31;stop-opacity:1;"
         offset="1"
         id="stop4135" />
    </linearGradient>
    <linearGradient
       inkscape:collect="always"
       xlink:href="#linearGradient4131"
       id="linearGradient3972"
       gradientUnits="userSpaceOnUse"
       gradientTransform="translate(0,-4)"
       x1="397"
       y1="133"
       x2="397"
       y2="43" />
    <linearGradient
       inkscape:collect="always"
       xlink:href="#linearGradient4131"
       id="linearGradient3994"
       gradientUnits="userSpaceOnUse"
       gradientTransform="translate(0,-4)"
       x1="397"
       y1="133"
       x2="397"
       y2="43" />
    <linearGradient
       inkscape:collect="always"
       xlink:href="#linearGradient4131"
       id="linearGradient3996"
       gradientUnits="userSpaceOnUse"
       gradientTransform="translate(0,-4)"
       x1="397"
       y1="133"
       x2="397"
       y2="43" />
    <linearGradient
       inkscape:collect="always"
       xlink:href="#linearGradient4131"
       id="linearGradient4018"
       gradientUnits="userSpaceOnUse"
       gradientTransform="translate(0,-4)"
       x1="397"
       y1="133"
       x2="397"
       y2="43" />
    <linearGradient
       inkscape:collect="always"
       xlink:href="#linearGradient4131"
       id="linearGradient4020"
       gradientUnits="userSpaceOnUse"
       gradientTransform="translate(0,-4)"
       x1="397"
       y1="133"
       x2="397"
       y2="43" />
    <linearGradient
       inkscape:collect="always"
       xlink:href="#linearGradient4131"
       id="linearGradient3946"
       gradientUnits="userSpaceOnUse"
       gradientTransform="translate(0,-4)"
       x1="397"
       y1="133"
       x2="397"
       y2="43" />
    <linearGradient
       inkscape:collect="always"
       xlink:href="#linearGradient4131"
       id="linearGradient3948"
       gradientUnits="userSpaceOnUse"
       gradientTransform="translate(0,-4)"
       x1="397"
       y1="133"
       x2="397"
       y2="43" />
    <linearGradient
       inkscape:collect="always"
       xlink:href="#linearGradient4131"
       id="linearGradient3922"
       gradientUnits="userSpaceOnUse"
       gradientTransform="translate(0,-4)"
       x1="397"
       y1="133"
       x2="397"
       y2="43" />
    <linearGradient
       inkscape:collect="always"
       xlink:href="#linearGradient4131"
       id="linearGradient3924"
       gradientUnits="userSpaceOnUse"
       gradientTransform="translate(0,-4)"
       x1="397"
       y1="133"
       x2="397"
       y2="43" />
    <linearGradient
       inkscape:collect="always"
       xlink:href="#linearGradient4131"
       id="linearGradient3898"
       gradientUnits="userSpaceOnUse"
       gradientTransform="translate(0,-4)"
       x1="397"
       y1="133"
       x2="397"
       y2="43" />
    <linearGradient
       inkscape:collect="always"
       xlink:href="#linearGradient4131"
       id="linearGradient3900"
       gradientUnits="userSpaceOnUse"
       gradientTransform="translate(0,-4)"
       x1="397"
       y1="133"
       x2="397"
       y2="43" />
    <linearGradient
       inkscape:collect="always"
       xlink:href="#linearGradient4131"
       id="linearGradient4449"
       gradientUnits="userSpaceOnUse"
       gradientTransform="translate(0,-4)"
       x1="397"
       y1="133"
       x2="397"
       y2="43" />
    <linearGradient
       inkscape:collect="always"
       xlink:href="#linearGradient4131"
       id="linearGradient4451"
       gradientUnits="userSpaceOnUse"
       gradientTransform="translate(0,-4)"
       x1="397"
       y1="133"
       x2="397"
       y2="43" />
    <linearGradient
       id="outerBackgroundGradient-6">
      <stop
         style="stop-color:#65b11b;stop-opacity:1"
         offset="0"
         id="stop3864-8-6-5" />
      <stop
         style="stop-color:#88da38;stop-opacity:1"
         offset="1"
         id="stop3866-9-1-3" />
    </linearGradient>
    <linearGradient
       y2="32"
       x2="272"
       y1="288"
       x1="272"
       gradientTransform="translate(0,-4)"
       gradientUnits="userSpaceOnUse"
       id="linearGradient7616"
       xlink:href="#outerBackgroundGradient-6"
       inkscape:collect="always" />
    <linearGradient
       inkscape:collect="always"
       xlink:href="#outerBackgroundGradient"
       id="linearGradient3876"
       gradientUnits="userSpaceOnUse"
       gradientTransform="translate(0,-4)"
       x1="272"
       y1="288"
       x2="272"
       y2="32" />
    <linearGradient
       id="outerBackgroundGradient">
      <stop
         style="stop-color:#3689e6;stop-opacity:1;"
         offset="0"
         id="stop3864-8-6" />
      <stop
         style="stop-color:#90dbec;stop-opacity:1;"
         offset="1"
         id="stop3866-9-1" />
    </linearGradient>
    <linearGradient
       inkscape:collect="always"
       xlink:href="#outerBackgroundGradient-9"
       id="linearGradient3876-4"
       gradientUnits="userSpaceOnUse"
       gradientTransform="translate(0,-4)"
       x1="272"
       y1="288"
       x2="272"
       y2="32" />
    <linearGradient
       id="outerBackgroundGradient-9">
      <stop
         style="stop-color:#0e52ab;stop-opacity:1;"
         offset="0"
         id="stop3864-8-6-4" />
      <stop
         style="stop-color:#1ec49c;stop-opacity:1;"
         offset="1"
         id="stop3866-9-1-9" />
    </linearGradient>
    <linearGradient
       inkscape:collect="always"
       xlink:href="#outerBackgroundGradient-8"
       id="linearGradient3876-8"
       gradientUnits="userSpaceOnUse"
       gradientTransform="translate(0,-4)"
       x1="272"
       y1="288"
       x2="272"
       y2="32" />
    <linearGradient
       id="outerBackgroundGradient-8">
      <stop
         style="stop-color:#805024;stop-opacity:1;"
         offset="0"
         id="stop3864-8-6-53" />
      <stop
         style="stop-color:#e19043;stop-opacity:1;"
         offset="1"
         id="stop3866-9-1-0" />
    </linearGradient>
    <linearGradient
       inkscape:collect="always"
       xlink:href="#outerBackgroundGradient-67"
       id="linearGradient3876-2"
       gradientUnits="userSpaceOnUse"
       gradientTransform="translate(0,-4)"
       x1="272"
       y1="288"
       x2="272"
       y2="32" />
    <linearGradient
       id="outerBackgroundGradient-67">
      <stop
         style="stop-color:#1d0100;stop-opacity:1;"
         offset="0"
         id="stop3864-8-6-6" />
      <stop
         style="stop-color:#4a2826;stop-opacity:1;"
         offset="1"
         id="stop3866-9-1-1" />
    </linearGradient>
    <linearGradient
       y2="32"
       x2="272"
       y1="288"
       x1="272"
       gradientTransform="translate(4.2105866e-7,-3.999999)"
       gradientUnits="userSpaceOnUse"
       id="linearGradient7855"
       xlink:href="#outerBackgroundGradient-67"
       inkscape:collect="always" />
    <linearGradient
       inkscape:collect="always"
       xlink:href="#linearGradient4072"
       id="linearGradient4078"
       x1="204"
       y1="266"
       x2="204"
       y2="47"
       gradientUnits="userSpaceOnUse" />
    <linearGradient
       inkscape:collect="always"
       xlink:href="#outerBackgroundGradient-6-9"
       id="linearGradient7077"
       gradientUnits="userSpaceOnUse"
       gradientTransform="translate(1.8146973e-6,-4)"
       x1="272"
       y1="288"
       x2="272"
       y2="32" />
    <linearGradient
       id="outerBackgroundGradient-6-9">
      <stop
         id="stop3864-8-6-06"
         offset="0"
         style="stop-color:#252525;stop-opacity:1;" />
      <stop
         id="stop3866-9-1-3-3"
         offset="1"
         style="stop-color:#4a4d42;stop-opacity:1;" />
    </linearGradient>
    <linearGradient
       y2="32"
       x2="272"
       y1="288"
       x1="272"
       gradientTransform="translate(0,-4)"
       gradientUnits="userSpaceOnUse"
       id="linearGradient3876-4-1"
       xlink:href="#outerBackgroundGradient-6-9"
       inkscape:collect="always" />
    <linearGradient
       id="outerBackgroundGradient-0">
      <stop
         id="stop3864-8-6-8"
         offset="0"
         style="stop-color:#80b60c;stop-opacity:1;" />
      <stop
         id="stop3866-9-1-1-1"
         offset="1"
         style="stop-color:#a8de33;stop-opacity:1;" />
    </linearGradient>
    <linearGradient
       y2="32"
       x2="272"
       y1="288"
       x1="272"
       gradientTransform="translate(0,-4)"
       gradientUnits="userSpaceOnUse"
       id="linearGradient3876-1"
       xlink:href="#outerBackgroundGradient-0"
       inkscape:collect="always" />
    <linearGradient
       id="outerBackgroundGradient-5">
      <stop
         id="stop3864-8-6-7"
         offset="0"
         style="stop-color:#930000;stop-opacity:1;" />
      <stop
         id="stop3866-9-1-7"
         offset="1"
         style="stop-color:#d11212;stop-opacity:1;" />
    </linearGradient>
    <linearGradient
       y2="32"
       x2="272"
       y1="288"
       x1="272"
       gradientTransform="translate(0,-4)"
       gradientUnits="userSpaceOnUse"
       id="linearGradient3876-9"
       xlink:href="#outerBackgroundGradient-5"
       inkscape:collect="always" />
    <clipPath
       id="clipPath3861"
       clipPathUnits="userSpaceOnUse">
      <path
         inkscape:connector-curvature="0"
         id="path3863"
         style="fill:url(#linearGradient3865);fill-opacity:1;stroke:none"
         d="m 144.00149,83.848805 c -44.164869,0 -80.381087,29.743555 -79.998488,66.334715 0.557476,53.87363 68.581098,73.25013 98.534728,64.26175 18.53624,6.07952 23.10984,13.75792 50.28704,13.70566 C 197.07593,217.78613 197.3926,211.46444 197.26483,200.26348 213.36689,188.13422 224,169.62117 224,150.18352 224,113.59036 188.16636,83.848806 144.00149,83.848805 z" />
    </clipPath>
    <linearGradient
       id="outerBackgroundGradient-8-7">
      <stop
         id="stop3864-8-6-0"
         offset="0"
         style="stop-color:#2e7da0;stop-opacity:1;" />
      <stop
         id="stop3866-9-1-4"
         offset="1"
         style="stop-color:#82cfeb;stop-opacity:1;" />
    </linearGradient>
    <linearGradient
       inkscape:collect="always"
       xlink:href="#outerBackgroundGradient-6-2"
       id="linearGradient7077-3"
       gradientUnits="userSpaceOnUse"
       gradientTransform="translate(1.8146973e-6,-4)"
       x1="272"
       y1="288"
       x2="272"
       y2="32" />
    <linearGradient
       id="outerBackgroundGradient-6-2">
      <stop
         id="stop3864-8-6-06-6"
         offset="0"
         style="stop-color:#252525;stop-opacity:1;" />
      <stop
         id="stop3866-9-1-3-1"
         offset="1"
         style="stop-color:#4a4d42;stop-opacity:1;" />
    </linearGradient>
    <linearGradient
       y2="32"
       x2="272"
       y1="288"
       x1="272"
       gradientTransform="translate(0,-4)"
       gradientUnits="userSpaceOnUse"
       id="linearGradient3876-4-2"
       xlink:href="#outerBackgroundGradient-6-2"
       inkscape:collect="always" />
    <linearGradient
       id="outerBackgroundGradient-0-4">
      <stop
         id="stop3864-8-6-8-1"
         offset="0"
         style="stop-color:#80b60c;stop-opacity:1;" />
      <stop
         id="stop3866-9-1-1-0"
         offset="1"
         style="stop-color:#a8de33;stop-opacity:1;" />
    </linearGradient>
    <linearGradient
       y2="32"
       x2="272"
       y1="288"
       x1="272"
       gradientTransform="translate(0,-4)"
       gradientUnits="userSpaceOnUse"
       id="linearGradient3876-1-1"
       xlink:href="#outerBackgroundGradient-0-4"
       inkscape:collect="always" />
    <linearGradient
       id="outerBackgroundGradient-61">
      <stop
         id="stop3864-8-6-061"
         offset="0"
         style="stop-color:#930000;stop-opacity:1;" />
      <stop
         id="stop3866-9-1-42"
         offset="1"
         style="stop-color:#d11212;stop-opacity:1;" />
    </linearGradient>
    <linearGradient
       y2="32"
       x2="272"
       y1="288"
       x1="272"
       gradientTransform="translate(0,-4)"
       gradientUnits="userSpaceOnUse"
       id="linearGradient3876-28"
       xlink:href="#outerBackgroundGradient-61"
       inkscape:collect="always" />
    <clipPath
       id="clipPath3861-3"
       clipPathUnits="userSpaceOnUse">
      <path
         inkscape:connector-curvature="0"
         id="path3863-6"
         style="fill:url(#linearGradient3865);fill-opacity:1;stroke:none"
         d="m 144.00149,83.848805 c -44.164869,0 -80.381087,29.743555 -79.998488,66.334715 0.557476,53.87363 68.581098,73.25013 98.534728,64.26175 18.53624,6.07952 23.10984,13.75792 50.28704,13.70566 C 197.07593,217.78613 197.3926,211.46444 197.26483,200.26348 213.36689,188.13422 224,169.62117 224,150.18352 224,113.59036 188.16636,83.848806 144.00149,83.848805 z" />
    </clipPath>
    <linearGradient
       id="outerBackgroundGradient-8-1">
      <stop
         id="stop3864-8-6-0-0"
         offset="0"
         style="stop-color:#2e7da0;stop-opacity:1;" />
      <stop
         id="stop3866-9-1-4-4"
         offset="1"
         style="stop-color:#82cfeb;stop-opacity:1;" />
    </linearGradient>
    <linearGradient
       gradientTransform="matrix(0,-1,1,0,316,540)"
       y2="112"
       x2="438"
       y1="112"
       x1="418"
       gradientUnits="userSpaceOnUse"
       id="linearGradient3870-4"
       xlink:href="#outerBackgroundGradient-6-2"
       inkscape:collect="always" />
    <linearGradient
       gradientTransform="matrix(0,-1,1,0,148,492)"
       gradientUnits="userSpaceOnUse"
       y2="172"
       x2="349"
       y1="172"
       x1="291"
       id="linearGradient4266-5"
       xlink:href="#outerBackgroundGradient-6-2"
       inkscape:collect="always" />
    <linearGradient
       gradientTransform="matrix(0,-1,1,0,260,412)"
       gradientUnits="userSpaceOnUse"
       y2="76"
       x2="379"
       y1="76"
       x1="293"
       id="linearGradient4264-8"
       xlink:href="#outerBackgroundGradient-6-2"
       inkscape:collect="always" />
    <linearGradient
       gradientTransform="matrix(0,-1,1,0,68,556)"
       gradientUnits="userSpaceOnUse"
       y2="244"
       x2="332"
       y1="244"
       x1="292"
       id="linearGradient4262-4"
       xlink:href="#outerBackgroundGradient-6-2"
       inkscape:collect="always" />
    <linearGradient
       gradientTransform="matrix(0,-1,1,0,364,500)"
       gradientUnits="userSpaceOnUse"
       y2="68"
       x2="446"
       y1="68"
       x1="418"
       id="linearGradient4260-4"
       xlink:href="#outerBackgroundGradient-6-2"
       inkscape:collect="always" />
    <linearGradient
       gradientTransform="matrix(0,-1,1,0,276,572)"
       gradientUnits="userSpaceOnUse"
       y2="148"
       x2="431"
       y1="148"
       x1="417"
       id="linearGradient4256-0"
       xlink:href="#outerBackgroundGradient-6-2"
       inkscape:collect="always" />
    <linearGradient
       gradientTransform="matrix(0,-1,1,0,-12,300)"
       gradientUnits="userSpaceOnUse"
       y2="156"
       x2="253"
       y1="156"
       x1="35"
       id="linearGradient4254-6"
       xlink:href="#outerBackgroundGradient-6-2"
       inkscape:collect="always" />
    <linearGradient
       inkscape:collect="always"
       xlink:href="#outerBackgroundGradient-6-2"
       id="linearGradient4530"
       gradientUnits="userSpaceOnUse"
       gradientTransform="matrix(0,-1,1,0,276,572)"
       x1="417"
       y1="148"
       x2="431"
       y2="148" />
    <linearGradient
       inkscape:collect="always"
       xlink:href="#outerBackgroundGradient-6-2"
       id="linearGradient4532"
       gradientUnits="userSpaceOnUse"
       gradientTransform="matrix(0,-1,1,0,316,540)"
       x1="418"
       y1="112"
       x2="438"
       y2="112" />
    <linearGradient
       inkscape:collect="always"
       xlink:href="#outerBackgroundGradient-6-2"
       id="linearGradient4534"
       gradientUnits="userSpaceOnUse"
       gradientTransform="matrix(0,-1,1,0,364,500)"
       x1="418"
       y1="68"
       x2="446"
       y2="68" />
    <linearGradient
       inkscape:collect="always"
       xlink:href="#outerBackgroundGradient-6-2"
       id="linearGradient4536"
       gradientUnits="userSpaceOnUse"
       gradientTransform="matrix(0,-1,1,0,68,556)"
       x1="292"
       y1="244"
       x2="332"
       y2="244" />
    <linearGradient
       inkscape:collect="always"
       xlink:href="#outerBackgroundGradient-6-2"
       id="linearGradient4538"
       gradientUnits="userSpaceOnUse"
       gradientTransform="matrix(0,-1,1,0,260,412)"
       x1="293"
       y1="76"
       x2="379"
       y2="76" />
    <linearGradient
       inkscape:collect="always"
       xlink:href="#outerBackgroundGradient-6-2"
       id="linearGradient4540"
       gradientUnits="userSpaceOnUse"
       gradientTransform="matrix(0,-1,1,0,148,492)"
       x1="291"
       y1="172"
       x2="349"
       y2="172" />
    <linearGradient
       inkscape:collect="always"
       xlink:href="#outerBackgroundGradient-6-2"
       id="linearGradient4659"
       gradientUnits="userSpaceOnUse"
       x1="291"
       y1="172"
       x2="349"
       y2="172" />
  </defs>
  <metadata
     id="metadata4">
    <rdf:RDF>
      <cc:Work
         rdf:about="">
        <dc:format>image/svg+xml</dc:format>
        <dc:type
           rdf:resource="http://purl.org/dc/dcmitype/StillImage" />
        <dc:creator>
          <cc:Agent>
            <dc:title>Sam Hewitt</dc:title>
          </cc:Agent>
        </dc:creator>
        <dc:source />
        <cc:license
           rdf:resource="" />
        <dc:title />
        <dc:subject>
          <rdf:Bag />
        </dc:subject>
        <dc:date />
        <dc:rights>
          <cc:Agent>
            <dc:title />
          </cc:Agent>
        </dc:rights>
        <dc:publisher>
          <cc:Agent>
            <dc:title />
          </cc:Agent>
        </dc:publisher>
        <dc:identifier />
        <dc:relation />
        <dc:language />
        <dc:coverage />
        <dc:description />
        <dc:contributor>
          <cc:Agent>
            <dc:title />
          </cc:Agent>
        </dc:contributor>
      </cc:Work>
      <cc:Work
         rdf:about="">
        <dc:format>image/svg+xml</dc:format>
        <dc:type
           rdf:resource="http://purl.org/dc/dcmitype/StillImage" />
      </cc:Work>
    </rdf:RDF>
  </metadata>
  <g
     style="display:inline"
     inkscape:groupmode="layer"
     inkscape:label="Icon"
     id="layer1">
    <g
       style="display:none"
       inkscape:label="Baseplate"
       id="layer7"
       inkscape:groupmode="layer">
      <text
         y="19.745117"
         xml:space="preserve"
         x="15.006836"
         style="font-size:18px;font-style:normal;font-variant:normal;font-weight:normal;font-stretch:normal;fill:#000000;fill-opacity:1;stroke:none;display:inline;enable-background:new;font-family:DejaVu Sans;-inkscape-font-specification:DejaVu Sans"
         inkscape:label="context"
         id="context"><tspan
           style="font-style:normal;font-variant:normal;font-weight:normal;font-stretch:normal;font-family:DejaVu Sans;-inkscape-font-specification:DejaVu Sans"
           y="19.745117"
           x="15.006836"
           sodipodi:role="line"
           id="tspan3933">apps</tspan></text>
      <text
         y="19.745117"
         xml:space="preserve"
         x="122.48828"
         style="font-size:18px;font-style:normal;font-variant:normal;font-weight:bold;font-stretch:normal;text-align:start;line-height:125%;writing-mode:lr-tb;text-anchor:start;fill:#000000;fill-opacity:1;stroke:none;display:inline;enable-background:new;font-family:DejaVu Sans;-inkscape-font-specification:DejaVu Sans Bold"
         sodipodi:linespacing="125%"
         inkscape:label="icon-name"
         id="icon-name"><tspan
           style="font-size:18px;font-style:normal;font-variant:normal;font-weight:bold;font-stretch:normal;font-family:DejaVu Sans;-inkscape-font-specification:DejaVu Sans Bold"
           y="19.745117"
           x="122.48828"
           sodipodi:role="line"
           id="tspan3937">web-sharelatex-alt</tspan></text>
      <rect
         style="fill:#eeeeec;fill-opacity:1;fill-rule:nonzero;stroke:none;stroke-width:2;marker:none;visibility:visible;display:inline;overflow:visible;enable-background:accumulate"
         id="rect16x16"
         width="16"
         height="16"
         x="416"
         y="140"
         inkscape:label="16x16" />
      <rect
         style="fill:#d4d4d4;fill-opacity:1;fill-rule:nonzero;stroke:none;stroke-width:2;marker:none;visibility:visible;display:inline;overflow:visible;enable-background:accumulate"
         id="rect24x24"
         width="24"
         height="24"
         x="416"
         y="100"
         inkscape:label="24x24" />
      <rect
         style="fill:#eeeeec;fill-opacity:1;fill-rule:nonzero;stroke:none;stroke-width:2;marker:none;visibility:visible;display:inline;overflow:visible;enable-background:accumulate"
         id="rect32x32"
         width="32"
         height="32"
         x="416"
         y="52"
         inkscape:label="32x32" />
      <rect
         inkscape:label="22x22"
         y="101"
         x="417"
         height="22"
         width="22"
         id="rect22x22"
         style="fill:#eeeeec;fill-opacity:1;fill-rule:nonzero;stroke:none;stroke-width:2;marker:none;visibility:visible;display:inline;overflow:visible;enable-background:accumulate" />
      <rect
         inkscape:label="48x48"
         y="220"
         x="288"
         height="48"
         width="48"
         id="rect48x48"
         style="fill:#eeeeec;fill-opacity:1;fill-rule:nonzero;stroke:none;stroke-width:2;marker:none;visibility:visible;display:inline;overflow:visible;enable-background:accumulate" />
      <rect
         style="fill:#eeeeec;fill-opacity:1;fill-rule:nonzero;stroke:none;stroke-width:2;marker:none;visibility:visible;display:inline;overflow:visible;enable-background:accumulate"
         id="rect256x256"
         width="256"
         height="256"
         x="16"
         y="28"
         inkscape:label="256x256" />
      <rect
         style="fill:#eeeeec;fill-opacity:1;fill-rule:nonzero;stroke:none;stroke-width:2;marker:none;visibility:visible;display:inline;overflow:visible;enable-background:accumulate"
         id="rect64x64"
         width="64"
         height="64"
         x="288"
         y="140"
         inkscape:label="64x64" />
      <rect
         style="fill:#eeeeec;fill-opacity:1;fill-rule:nonzero;stroke:none;stroke-width:2;marker:none;visibility:visible;display:inline;overflow:visible;enable-background:accumulate"
         id="rect96x96"
         width="96"
         height="96"
         x="288"
         y="28"
         inkscape:label="96x96" />
    </g>
    <g
       inkscape:groupmode="layer"
       id="layer4"
       inkscape:label="Shadow"
       style="display:inline"
       sodipodi:insensitive="true">
      <rect
         ry="50"
         y="47"
         x="34"
         height="220"
         width="220"
         id="rect4114"
         style="opacity:0.1;color:#bebebe;fill:#000000;fill-opacity:1;fill-rule:nonzero;stroke:none;stroke-width:0;marker:none;visibility:visible;display:inline;overflow:visible;enable-background:accumulate" />
      <rect
         style="opacity:0.1;color:#bebebe;fill:#000000;fill-opacity:1;fill-rule:nonzero;stroke:none;stroke-width:0;marker:none;visibility:visible;display:inline;overflow:visible;enable-background:accumulate"
         id="rect4120"
         width="30"
         height="30"
         x="417"
         y="54"
         ry="7" />
      <rect
         transform="scale(1,-1)"
         ry="9"
         y="-266"
         x="291"
         height="42"
         width="42"
         id="rect4122"
         style="opacity:0.1;color:#bebebe;fill:#000000;fill-opacity:1;fill-rule:nonzero;stroke:none;stroke-width:0;marker:none;visibility:visible;display:inline;overflow:visible;enable-background:accumulate" />
      <rect
         style="opacity:0.1;color:#bebebe;fill:#000000;fill-opacity:1;fill-rule:nonzero;stroke:none;stroke-width:0;marker:none;visibility:visible;display:inline;overflow:visible;enable-background:accumulate"
         id="rect4124"
         width="88"
         height="88"
         x="292"
         y="33"
         ry="18" />
      <rect
         ry="12.5"
         y="143"
         x="290"
         height="60"
         width="60"
         id="rect4126"
         style="opacity:0.1;color:#bebebe;fill:#000000;fill-opacity:1;fill-rule:nonzero;stroke:none;stroke-width:0;marker:none;visibility:visible;display:inline;overflow:visible;enable-background:accumulate" />
      <path
         id="path4268"
         d="m 422,101 c -2.77,0 -5,2.23 -5,5 l 0,12 c 0,2.77 2.23,5 5,5 l 12,0 c 2.77,0 5,-2.23 5,-5 l 0,-12 c 0,-2.77 -2.23,-5 -5,-5 z"
         style="opacity:0.1;color:#bebebe;fill:#000000;fill-opacity:1;fill-rule:nonzero;stroke:none;stroke-width:0;marker:none;visibility:visible;display:inline;overflow:visible;enable-background:accumulate"
         inkscape:connector-curvature="0"
         sodipodi:nodetypes="sssssssss" />
      <path
         id="path4270"
         d="m 419,140 c -1.662,0 -3,1.338 -3,3 l 0,10 c 0,1.662 1.338,3 3,3 l 10,0 c 1.662,0 3,-1.338 3,-3 l 0,-10 c 0,-1.662 -1.338,-3 -3,-3 z"
         style="opacity:0.1;color:#bebebe;fill:#000000;fill-opacity:1;fill-rule:nonzero;stroke:none;stroke-width:0;marker:none;visibility:visible;display:inline;overflow:visible;enable-background:accumulate"
         inkscape:connector-curvature="0"
         sodipodi:nodetypes="sssssssss" />
    </g>
    <g
       inkscape:groupmode="layer"
       id="layer2"
       inkscape:label="Background"
       style="display:inline">
      <path
         style="color:#bebebe;fill:url(#linearGradient4078);fill-opacity:1.0;fill-rule:nonzero;stroke:none;stroke-width:2;marker:none;visibility:visible;display:inline;overflow:visible;enable-background:accumulate"
         d="M 84 46.5 C 56.568735 46.5 34.5 68.568732 34.5 96 L 34.5 216 C 34.5 243.43127 56.568735 265.5 84 265.5 L 204 265.5 C 231.43127 265.5 253.5 243.43127 253.5 216 L 253.5 96 C 253.5 68.568732 231.43127 46.5 204 46.5 L 84 46.5 z "
         id="path4200" />
      <path
         style="color:#bebebe;fill:url(#linearGradient7210);fill-opacity:1.0;fill-rule:nonzero;stroke:none;stroke-width:2;marker:none;visibility:visible;display:inline;overflow:visible;enable-background:accumulate"
         d="M 419 140.5 C 417.6156 140.5 416.5 141.6156 416.5 143 L 416.5 153 C 416.5 154.3844 417.6156 155.5 419 155.5 L 429 155.5 C 430.3844 155.5 431.5 154.3844 431.5 153 L 431.5 143 C 431.5 141.6156 430.3844 140.5 429 140.5 L 419 140.5 z "
         id="path4202" />
      <path
         style="color:#bebebe;fill:url(#linearGradient7212);fill-opacity:1.0;fill-rule:nonzero;stroke:none;stroke-width:2;marker:none;visibility:visible;display:inline;overflow:visible;enable-background:accumulate"
         d="M 422 101.5 C 419.50301 101.5 417.5 103.50301 417.5 106 L 417.5 118 C 417.5 120.49699 419.50301 122.5 422 122.5 L 434 122.5 C 436.49699 122.5 438.5 120.49699 438.5 118 L 438.5 106 C 438.5 103.50301 436.49699 101.5 434 101.5 L 422 101.5 z "
         id="path4204" />
      <path
         style="color:#bebebe;fill:url(#linearGradient7214);fill-opacity:1.0;fill-rule:nonzero;stroke:none;stroke-width:2;marker:none;visibility:visible;display:inline;overflow:visible;enable-background:accumulate"
         d="M 424 53.5 C 420.39346 53.5 417.5 56.393464 417.5 60 L 417.5 76 C 417.5 79.606536 420.39346 82.5 424 82.5 L 440 82.5 C 443.60654 82.5 446.5 79.606536 446.5 76 L 446.5 60 C 446.5 56.393464 443.60654 53.5 440 53.5 L 424 53.5 z "
         id="path4206" />
      <path
         style="color:#bebebe;fill:url(#linearGradient7216);fill-opacity:1.0;fill-rule:nonzero;stroke:none;stroke-width:2;marker:none;visibility:visible;display:inline;overflow:visible;enable-background:accumulate"
         d="M 300 223.5 C 295.28469 223.5 291.5 227.28469 291.5 232 L 291.5 256 C 291.5 260.71531 295.28469 264.5 300 264.5 L 324 264.5 C 328.71531 264.5 332.5 260.71531 332.5 256 L 332.5 232 C 332.5 227.28469 328.71531 223.5 324 223.5 L 300 223.5 z "
         id="path4208" />
      <path
         style="color:#bebebe;fill:url(#linearGradient7218);fill-opacity:1.0;fill-rule:nonzero;stroke:none;stroke-width:2;marker:none;visibility:visible;display:inline;overflow:visible;enable-background:accumulate"
         d="M 310 32.5 C 300.29745 32.5 292.5 40.297452 292.5 50 L 292.5 102 C 292.5 111.70255 300.29745 119.5 310 119.5 L 362 119.5 C 371.70255 119.5 379.5 111.70255 379.5 102 L 379.5 50 C 379.5 40.297452 371.70255 32.5 362 32.5 L 310 32.5 z "
         id="path4210" />
      <path
         style="color:#bebebe;fill:url(#linearGradient7220);fill-opacity:1.0;fill-rule:nonzero;stroke:none;stroke-width:2;marker:none;visibility:visible;display:inline;overflow:visible;enable-background:accumulate"
         d="M 302.5 142.5 C 295.84498 142.5 290.5 147.84498 290.5 154.5 L 290.5 189.5 C 290.5 196.15502 295.84498 201.5 302.5 201.5 L 337.5 201.5 C 344.15502 201.5 349.5 196.15502 349.5 189.5 L 349.5 154.5 C 349.5 147.84498 344.15502 142.5 337.5 142.5 L 302.5 142.5 z "
         id="path4212" />
    </g>
    <g
       inkscape:groupmode="layer"
       id="layer6"
       inkscape:label="Symbols"
       style="display:inline">
      <g
         id="g3962-3-8"
         style="opacity:0.4;fill:#000000;fill-opacity:1;display:inline;enable-background:new"
         transform="matrix(0.90158731,0,0,0.90158731,13.975379,18.63508)">
        <path
           id="path3964-8-1"
           d="m 118.28232,106.14948 -61.013792,0 -1.783476,23.36865 1.898681,0 c 1.365339,-17.50196 2.867221,-20.5655 19.251343,-20.5655 1.898681,0 4.983504,0 5.832577,0 2.018149,0.31588 2.018149,1.60002 2.018149,4.03204 l 0,57.51501 c 0,3.8187 -0.320003,4.98351 -9.220336,4.98351 l -2.999489,0 0,2.55191 c 5.068838,-0.0986 10.351011,-0.20096 15.535049,-0.20096 5.166972,0 10.466212,0.1024 15.530784,0.20096 l 0,-2.55191 -2.94829,0 c -8.768108,0 -9.083801,-1.16481 -9.083801,-4.98351 l 0,-57.51501 c 0,-2.33384 0,-3.60105 1.902948,-4.03204 0.832006,0 3.899805,0 5.798443,0 16.16652,0 17.74947,3.04639 19.11481,20.5655 l 1.90295,0"
           style="fill:#000000;fill-opacity:1;stroke:none"
           inkscape:connector-curvature="0" />
        <path
           id="path3966-4-5"
           d="m 171.30032,174.35251 -1.89868,0 c -2.31682,15.66732 -3.68217,24.18365 -22.2679,24.18365 l -14.66465,0 c -4.21976,0 -4.4203,-0.53334 -4.4203,-4.16857 l 0,-29.53408 9.96701,0 c 9.96701,0 10.91848,3.65229 10.91848,12.56969 l 1.69815,0 0,-27.48607 -1.69815,0 c 0,8.76806 -0.95147,12.35209 -10.91848,12.35209 l -9.96701,0 0,-26.1846 c 0,-3.56696 0.20054,-4.1003 4.4203,-4.1003 l 14.44704,0 c 16.34999,0 18.25294,6.49823 19.73348,20.46723 l 1.90295,0 -2.53442,-23.36858 -53.50013,0 0,2.90135 c 7.48379,0 8.68273,0 8.68273,4.74871 l 0,57.02016 c 0,4.74926 -1.18187,4.74926 -8.68273,4.74926 l 0,2.55106 54.98494,0"
           style="fill:#000000;fill-opacity:1;stroke:none"
           inkscape:connector-curvature="0" />
        <path
           id="path3968-6-4"
           d="m 199.7848,138.05152 15.63318,-22.60065 c 1.56588,-2.21877 4.74883,-6.78418 13.41877,-6.89929 l 0,-2.55158 c -2.41922,0.20052 -6.43419,0.20052 -8.9686,0.20052 -3.48163,0 -7.8166,0 -10.44915,-0.20052 l 0,2.55158 c 3.38349,0.31563 4.2155,2.43205 4.2155,4.13442 0,1.26303 -0.51627,2.11641 -1.26721,3.16589 l -13.94784,20.23273 -15.63318,-22.88222 c -0.73387,-1.15209 -0.83627,-1.4849 -0.83627,-1.80055 0,-0.95156 1.152,-2.75209 4.6507,-2.85027 l 0,-2.55158 c -3.3835,0.20052 -8.55047,0.20052 -12.03209,0.20052 -2.73496,0 -8.01713,0 -10.56862,-0.20052 l 0,2.55158 c 5.80271,0 7.7014,0.21771 10.03528,3.49873 l 20.38202,29.93511 -18.38094,26.85068 c -4.5355,6.56644 -11.40062,6.68122 -13.41877,6.68122 l 0,2.55191 c 2.41496,-0.20053 6.43419,-0.20053 8.9686,-0.20053 2.85016,0 7.8166,0 10.44915,0.20053 l 0,-2.55191 c -3.26829,-0.31531 -4.2155,-2.43202 -4.2155,-4.13443 0,-1.36535 0.51627,-2.11628 1.04961,-2.86722 l 16.90039,-24.66566 18.38094,27.01661 c 0.83201,1.1695 0.83201,1.48481 0.83201,1.80054 0,0.83201 -0.94721,2.64962 -4.64644,2.86723 l 0,2.55148 c 3.38349,-0.20053 8.55046,-0.20053 12.03209,-0.20053 2.73495,0 8.01713,0 10.58141,0.20053 l 0,-2.55148 c -6.76698,0 -7.83366,-0.51628 -9.93287,-3.49827"
           style="fill:#000000;fill-opacity:1;stroke:none"
           inkscape:connector-curvature="0" />
      </g>
      <g
         transform="matrix(0.37190476,0,0,0.37190476,282.36485,19.95552)"
         style="opacity:0.4;fill:#000000;fill-opacity:1;display:inline;enable-background:new"
         id="g3970-0-4">
        <path
           inkscape:connector-curvature="0"
           style="fill:#000000;fill-opacity:1;stroke:none"
           d="m 118.28232,106.14948 -61.013792,0 -1.783476,23.36865 1.898681,0 c 1.365339,-17.50196 2.867221,-20.5655 19.251343,-20.5655 1.898681,0 4.983504,0 5.832577,0 2.018149,0.31588 2.018149,1.60002 2.018149,4.03204 l 0,57.51501 c 0,3.8187 -0.320003,4.98351 -9.220336,4.98351 l -2.999489,0 0,2.55191 c 5.068838,-0.0986 10.351011,-0.20096 15.535049,-0.20096 5.166972,0 10.466212,0.1024 15.530784,0.20096 l 0,-2.55191 -2.94829,0 c -8.768108,0 -9.083801,-1.16481 -9.083801,-4.98351 l 0,-57.51501 c 0,-2.33384 0,-3.60105 1.902948,-4.03204 0.832006,0 3.899805,0 5.798443,0 16.16652,0 17.74947,3.04639 19.11481,20.5655 l 1.90295,0"
           id="path3972-4-6" />
        <path
           inkscape:connector-curvature="0"
           style="fill:#000000;fill-opacity:1;stroke:none"
           d="m 171.30032,174.35251 -1.89868,0 c -2.31682,15.66732 -3.68217,24.18365 -22.2679,24.18365 l -14.66465,0 c -4.21976,0 -4.4203,-0.53334 -4.4203,-4.16857 l 0,-29.53408 9.96701,0 c 9.96701,0 10.91848,3.65229 10.91848,12.56969 l 1.69815,0 0,-27.48607 -1.69815,0 c 0,8.76806 -0.95147,12.35209 -10.91848,12.35209 l -9.96701,0 0,-26.1846 c 0,-3.56696 0.20054,-4.1003 4.4203,-4.1003 l 14.44704,0 c 16.34999,0 18.25294,6.49823 19.73348,20.46723 l 1.90295,0 -2.53442,-23.36858 -53.50013,0 0,2.90135 c 7.48379,0 8.68273,0 8.68273,4.74871 l 0,57.02016 c 0,4.74926 -1.18187,4.74926 -8.68273,4.74926 l 0,2.55106 54.98494,0"
           id="path3974-5-8" />
        <path
           inkscape:connector-curvature="0"
           style="fill:#000000;fill-opacity:1;stroke:none"
           d="m 199.7848,138.05152 15.63318,-22.60065 c 1.56588,-2.21877 4.74883,-6.78418 13.41877,-6.89929 l 0,-2.55158 c -2.41922,0.20052 -6.43419,0.20052 -8.9686,0.20052 -3.48163,0 -7.8166,0 -10.44915,-0.20052 l 0,2.55158 c 3.38349,0.31563 4.2155,2.43205 4.2155,4.13442 0,1.26303 -0.51627,2.11641 -1.26721,3.16589 l -13.94784,20.23273 -15.63318,-22.88222 c -0.73387,-1.15209 -0.83627,-1.4849 -0.83627,-1.80055 0,-0.95156 1.152,-2.75209 4.6507,-2.85027 l 0,-2.55158 c -3.3835,0.20052 -8.55047,0.20052 -12.03209,0.20052 -2.73496,0 -8.01713,0 -10.56862,-0.20052 l 0,2.55158 c 5.80271,0 7.7014,0.21771 10.03528,3.49873 l 20.38202,29.93511 -18.38094,26.85068 c -4.5355,6.56644 -11.40062,6.68122 -13.41877,6.68122 l 0,2.55191 c 2.41496,-0.20053 6.43419,-0.20053 8.9686,-0.20053 2.85016,0 7.8166,0 10.44915,0.20053 l 0,-2.55191 c -3.26829,-0.31531 -4.2155,-2.43202 -4.2155,-4.13443 0,-1.36535 0.51627,-2.11628 1.04961,-2.86722 l 16.90039,-24.66566 18.38094,27.01661 c 0.83201,1.1695 0.83201,1.48481 0.83201,1.80054 0,0.83201 -0.94721,2.64962 -4.64644,2.86723 l 0,2.55148 c 3.38349,-0.20053 8.55046,-0.20053 12.03209,-0.20053 2.73495,0 8.01713,0 10.58141,0.20053 l 0,-2.55148 c -6.76698,0 -7.83366,-0.51628 -9.93287,-3.49827"
           id="path3976-6-9" />
      </g>
      <g
         id="g3978-6-5"
         style="opacity:0.4;fill:#000000;fill-opacity:1;display:inline;enable-background:new"
         transform="matrix(0.24793651,0,0,0.24793651,284.24323,134.98796)">
        <path
           id="path3980-6-3"
           d="m 118.28232,106.14948 -61.013792,0 -1.783476,23.36865 1.898681,0 c 1.365339,-17.50196 2.867221,-20.5655 19.251343,-20.5655 1.898681,0 4.983504,0 5.832577,0 2.018149,0.31588 2.018149,1.60002 2.018149,4.03204 l 0,57.51501 c 0,3.8187 -0.320003,4.98351 -9.220336,4.98351 l -2.999489,0 0,2.55191 c 5.068838,-0.0986 10.351011,-0.20096 15.535049,-0.20096 5.166972,0 10.466212,0.1024 15.530784,0.20096 l 0,-2.55191 -2.94829,0 c -8.768108,0 -9.083801,-1.16481 -9.083801,-4.98351 l 0,-57.51501 c 0,-2.33384 0,-3.60105 1.902948,-4.03204 0.832006,0 3.899805,0 5.798443,0 16.16652,0 17.74947,3.04639 19.11481,20.5655 l 1.90295,0"
           style="fill:#000000;fill-opacity:1;stroke:none"
           inkscape:connector-curvature="0" />
        <path
           id="path3982-1-5"
           d="m 171.30032,174.35251 -1.89868,0 c -2.31682,15.66732 -3.68217,24.18365 -22.2679,24.18365 l -14.66465,0 c -4.21976,0 -4.4203,-0.53334 -4.4203,-4.16857 l 0,-29.53408 9.96701,0 c 9.96701,0 10.91848,3.65229 10.91848,12.56969 l 1.69815,0 0,-27.48607 -1.69815,0 c 0,8.76806 -0.95147,12.35209 -10.91848,12.35209 l -9.96701,0 0,-26.1846 c 0,-3.56696 0.20054,-4.1003 4.4203,-4.1003 l 14.44704,0 c 16.34999,0 18.25294,6.49823 19.73348,20.46723 l 1.90295,0 -2.53442,-23.36858 -53.50013,0 0,2.90135 c 7.48379,0 8.68273,0 8.68273,4.74871 l 0,57.02016 c 0,4.74926 -1.18187,4.74926 -8.68273,4.74926 l 0,2.55106 54.98494,0"
           style="fill:#000000;fill-opacity:1;stroke:none"
           inkscape:connector-curvature="0" />
        <path
           id="path3984-8-0"
           d="m 199.7848,138.05152 15.63318,-22.60065 c 1.56588,-2.21877 4.74883,-6.78418 13.41877,-6.89929 l 0,-2.55158 c -2.41922,0.20052 -6.43419,0.20052 -8.9686,0.20052 -3.48163,0 -7.8166,0 -10.44915,-0.20052 l 0,2.55158 c 3.38349,0.31563 4.2155,2.43205 4.2155,4.13442 0,1.26303 -0.51627,2.11641 -1.26721,3.16589 l -13.94784,20.23273 -15.63318,-22.88222 c -0.73387,-1.15209 -0.83627,-1.4849 -0.83627,-1.80055 0,-0.95156 1.152,-2.75209 4.6507,-2.85027 l 0,-2.55158 c -3.3835,0.20052 -8.55047,0.20052 -12.03209,0.20052 -2.73496,0 -8.01713,0 -10.56862,-0.20052 l 0,2.55158 c 5.80271,0 7.7014,0.21771 10.03528,3.49873 l 20.38202,29.93511 -18.38094,26.85068 c -4.5355,6.56644 -11.40062,6.68122 -13.41877,6.68122 l 0,2.55191 c 2.41496,-0.20053 6.43419,-0.20053 8.9686,-0.20053 2.85016,0 7.8166,0 10.44915,0.20053 l 0,-2.55191 c -3.26829,-0.31531 -4.2155,-2.43202 -4.2155,-4.13443 0,-1.36535 0.51627,-2.11628 1.04961,-2.86722 l 16.90039,-24.66566 18.38094,27.01661 c 0.83201,1.1695 0.83201,1.48481 0.83201,1.80054 0,0.83201 -0.94721,2.64962 -4.64644,2.86723 l 0,2.55148 c 3.38349,-0.20053 8.55046,-0.20053 12.03209,-0.20053 2.73495,0 8.01713,0 10.58141,0.20053 l 0,-2.55148 c -6.76698,0 -7.83366,-0.51628 -9.93287,-3.49827"
           style="fill:#000000;fill-opacity:1;stroke:none"
           inkscape:connector-curvature="0" />
      </g>
      <g
         transform="matrix(0.18031746,0,0,0.18031746,285.99508,217.3693)"
         style="opacity:0.4;fill:#000000;fill-opacity:1;display:inline;enable-background:new"
         id="g3986-2-0">
        <path
           inkscape:connector-curvature="0"
           style="fill:#000000;fill-opacity:1;stroke:none"
           d="m 118.28232,106.14948 -61.013792,0 -1.783476,23.36865 1.898681,0 c 1.365339,-17.50196 2.867221,-20.5655 19.251343,-20.5655 1.898681,0 4.983504,0 5.832577,0 2.018149,0.31588 2.018149,1.60002 2.018149,4.03204 l 0,57.51501 c 0,3.8187 -0.320003,4.98351 -9.220336,4.98351 l -2.999489,0 0,2.55191 c 5.068838,-0.0986 10.351011,-0.20096 15.535049,-0.20096 5.166972,0 10.466212,0.1024 15.530784,0.20096 l 0,-2.55191 -2.94829,0 c -8.768108,0 -9.083801,-1.16481 -9.083801,-4.98351 l 0,-57.51501 c 0,-2.33384 0,-3.60105 1.902948,-4.03204 0.832006,0 3.899805,0 5.798443,0 16.16652,0 17.74947,3.04639 19.11481,20.5655 l 1.90295,0"
           id="path3988-7-0" />
        <path
           inkscape:connector-curvature="0"
           style="fill:#000000;fill-opacity:1;stroke:none"
           d="m 171.30032,174.35251 -1.89868,0 c -2.31682,15.66732 -3.68217,24.18365 -22.2679,24.18365 l -14.66465,0 c -4.21976,0 -4.4203,-0.53334 -4.4203,-4.16857 l 0,-29.53408 9.96701,0 c 9.96701,0 10.91848,3.65229 10.91848,12.56969 l 1.69815,0 0,-27.48607 -1.69815,0 c 0,8.76806 -0.95147,12.35209 -10.91848,12.35209 l -9.96701,0 0,-26.1846 c 0,-3.56696 0.20054,-4.1003 4.4203,-4.1003 l 14.44704,0 c 16.34999,0 18.25294,6.49823 19.73348,20.46723 l 1.90295,0 -2.53442,-23.36858 -53.50013,0 0,2.90135 c 7.48379,0 8.68273,0 8.68273,4.74871 l 0,57.02016 c 0,4.74926 -1.18187,4.74926 -8.68273,4.74926 l 0,2.55106 54.98494,0"
           id="path3990-0-3" />
        <path
           inkscape:connector-curvature="0"
           style="fill:#000000;fill-opacity:1;stroke:none"
           d="m 199.7848,138.05152 15.63318,-22.60065 c 1.56588,-2.21877 4.74883,-6.78418 13.41877,-6.89929 l 0,-2.55158 c -2.41922,0.20052 -6.43419,0.20052 -8.9686,0.20052 -3.48163,0 -7.8166,0 -10.44915,-0.20052 l 0,2.55158 c 3.38349,0.31563 4.2155,2.43205 4.2155,4.13442 0,1.26303 -0.51627,2.11641 -1.26721,3.16589 l -13.94784,20.23273 -15.63318,-22.88222 c -0.73387,-1.15209 -0.83627,-1.4849 -0.83627,-1.80055 0,-0.95156 1.152,-2.75209 4.6507,-2.85027 l 0,-2.55158 c -3.3835,0.20052 -8.55047,0.20052 -12.03209,0.20052 -2.73496,0 -8.01713,0 -10.56862,-0.20052 l 0,2.55158 c 5.80271,0 7.7014,0.21771 10.03528,3.49873 l 20.38202,29.93511 -18.38094,26.85068 c -4.5355,6.56644 -11.40062,6.68122 -13.41877,6.68122 l 0,2.55191 c 2.41496,-0.20053 6.43419,-0.20053 8.9686,-0.20053 2.85016,0 7.8166,0 10.44915,0.20053 l 0,-2.55191 c -3.26829,-0.31531 -4.2155,-2.43202 -4.2155,-4.13443 0,-1.36535 0.51627,-2.11628 1.04961,-2.86722 l 16.90039,-24.66566 18.38094,27.01661 c 0.83201,1.1695 0.83201,1.48481 0.83201,1.80054 0,0.83201 -0.94721,2.64962 -4.64644,2.86723 l 0,2.55148 c 3.38349,-0.20053 8.55046,-0.20053 12.03209,-0.20053 2.73495,0 8.01713,0 10.58141,0.20053 l 0,-2.55148 c -6.76698,0 -7.83366,-0.51628 -9.93287,-3.49827"
           id="path3992-5-2" />
      </g>
      <g
         id="g3994-9-8"
         style="opacity:0.4;fill:#000000;fill-opacity:1;display:inline;enable-background:new"
         transform="matrix(0.12396825,0,0,0.12396825,414.12162,50.020406)">
        <path
           id="path3996-1-2"
           d="m 118.28232,106.14948 -61.013792,0 -1.783476,23.36865 1.898681,0 c 1.365339,-17.50196 2.867221,-20.5655 19.251343,-20.5655 1.898681,0 4.983504,0 5.832577,0 2.018149,0.31588 2.018149,1.60002 2.018149,4.03204 l 0,57.51501 c 0,3.8187 -0.320003,4.98351 -9.220336,4.98351 l -2.999489,0 0,2.55191 c 5.068838,-0.0986 10.351011,-0.20096 15.535049,-0.20096 5.166972,0 10.466212,0.1024 15.530784,0.20096 l 0,-2.55191 -2.94829,0 c -8.768108,0 -9.083801,-1.16481 -9.083801,-4.98351 l 0,-57.51501 c 0,-2.33384 0,-3.60105 1.902948,-4.03204 0.832006,0 3.899805,0 5.798443,0 16.16652,0 17.74947,3.04639 19.11481,20.5655 l 1.90295,0"
           style="fill:#000000;fill-opacity:1;stroke:none"
           inkscape:connector-curvature="0" />
        <path
           id="path3998-8-5"
           d="m 171.30032,174.35251 -1.89868,0 c -2.31682,15.66732 -3.68217,24.18365 -22.2679,24.18365 l -14.66465,0 c -4.21976,0 -4.4203,-0.53334 -4.4203,-4.16857 l 0,-29.53408 9.96701,0 c 9.96701,0 10.91848,3.65229 10.91848,12.56969 l 1.69815,0 0,-27.48607 -1.69815,0 c 0,8.76806 -0.95147,12.35209 -10.91848,12.35209 l -9.96701,0 0,-26.1846 c 0,-3.56696 0.20054,-4.1003 4.4203,-4.1003 l 14.44704,0 c 16.34999,0 18.25294,6.49823 19.73348,20.46723 l 1.90295,0 -2.53442,-23.36858 -53.50013,0 0,2.90135 c 7.48379,0 8.68273,0 8.68273,4.74871 l 0,57.02016 c 0,4.74926 -1.18187,4.74926 -8.68273,4.74926 l 0,2.55106 54.98494,0"
           style="fill:#000000;fill-opacity:1;stroke:none"
           inkscape:connector-curvature="0" />
        <path
           id="path4000-4-7"
           d="m 199.7848,138.05152 15.63318,-22.60065 c 1.56588,-2.21877 4.74883,-6.78418 13.41877,-6.89929 l 0,-2.55158 c -2.41922,0.20052 -6.43419,0.20052 -8.9686,0.20052 -3.48163,0 -7.8166,0 -10.44915,-0.20052 l 0,2.55158 c 3.38349,0.31563 4.2155,2.43205 4.2155,4.13442 0,1.26303 -0.51627,2.11641 -1.26721,3.16589 l -13.94784,20.23273 -15.63318,-22.88222 c -0.73387,-1.15209 -0.83627,-1.4849 -0.83627,-1.80055 0,-0.95156 1.152,-2.75209 4.6507,-2.85027 l 0,-2.55158 c -3.3835,0.20052 -8.55047,0.20052 -12.03209,0.20052 -2.73496,0 -8.01713,0 -10.56862,-0.20052 l 0,2.55158 c 5.80271,0 7.7014,0.21771 10.03528,3.49873 l 20.38202,29.93511 -18.38094,26.85068 c -4.5355,6.56644 -11.40062,6.68122 -13.41877,6.68122 l 0,2.55191 c 2.41496,-0.20053 6.43419,-0.20053 8.9686,-0.20053 2.85016,0 7.8166,0 10.44915,0.20053 l 0,-2.55191 c -3.26829,-0.31531 -4.2155,-2.43202 -4.2155,-4.13443 0,-1.36535 0.51627,-2.11628 1.04961,-2.86722 l 16.90039,-24.66566 18.38094,27.01661 c 0.83201,1.1695 0.83201,1.48481 0.83201,1.80054 0,0.83201 -0.94721,2.64962 -4.64644,2.86723 l 0,2.55148 c 3.38349,-0.20053 8.55046,-0.20053 12.03209,-0.20053 2.73495,0 8.01713,0 10.58141,0.20053 l 0,-2.55148 c -6.76698,0 -7.83366,-0.51628 -9.93287,-3.49827"
           style="fill:#000000;fill-opacity:1;stroke:none"
           inkscape:connector-curvature="0" />
      </g>
      <g
         transform="matrix(0.10142857,0,0,0.10142857,413.37223,97.480856)"
         style="opacity:0.4;fill:#000000;fill-opacity:1;display:inline;enable-background:new"
         id="g4002-2-9">
        <path
           inkscape:connector-curvature="0"
           style="fill:#000000;fill-opacity:1;stroke:none"
           d="m 118.28232,106.14948 -61.013792,0 -1.783476,23.36865 1.898681,0 c 1.365339,-17.50196 2.867221,-20.5655 19.251343,-20.5655 1.898681,0 4.983504,0 5.832577,0 2.018149,0.31588 2.018149,1.60002 2.018149,4.03204 l 0,57.51501 c 0,3.8187 -0.320003,4.98351 -9.220336,4.98351 l -2.999489,0 0,2.55191 c 5.068838,-0.0986 10.351011,-0.20096 15.535049,-0.20096 5.166972,0 10.466212,0.1024 15.530784,0.20096 l 0,-2.55191 -2.94829,0 c -8.768108,0 -9.083801,-1.16481 -9.083801,-4.98351 l 0,-57.51501 c 0,-2.33384 0,-3.60105 1.902948,-4.03204 0.832006,0 3.899805,0 5.798443,0 16.16652,0 17.74947,3.04639 19.11481,20.5655 l 1.90295,0"
           id="path4004-6-1" />
        <path
           inkscape:connector-curvature="0"
           style="fill:#000000;fill-opacity:1;stroke:none"
           d="m 171.30032,174.35251 -1.89868,0 c -2.31682,15.66732 -3.68217,24.18365 -22.2679,24.18365 l -14.66465,0 c -4.21976,0 -4.4203,-0.53334 -4.4203,-4.16857 l 0,-29.53408 9.96701,0 c 9.96701,0 10.91848,3.65229 10.91848,12.56969 l 1.69815,0 0,-27.48607 -1.69815,0 c 0,8.76806 -0.95147,12.35209 -10.91848,12.35209 l -9.96701,0 0,-26.1846 c 0,-3.56696 0.20054,-4.1003 4.4203,-4.1003 l 14.44704,0 c 16.34999,0 18.25294,6.49823 19.73348,20.46723 l 1.90295,0 -2.53442,-23.36858 -53.50013,0 0,2.90135 c 7.48379,0 8.68273,0 8.68273,4.74871 l 0,57.02016 c 0,4.74926 -1.18187,4.74926 -8.68273,4.74926 l 0,2.55106 54.98494,0"
           id="path4006-9-4" />
        <path
           inkscape:connector-curvature="0"
           style="fill:#000000;fill-opacity:1;stroke:none"
           d="m 199.7848,138.05152 15.63318,-22.60065 c 1.56588,-2.21877 4.74883,-6.78418 13.41877,-6.89929 l 0,-2.55158 c -2.41922,0.20052 -6.43419,0.20052 -8.9686,0.20052 -3.48163,0 -7.8166,0 -10.44915,-0.20052 l 0,2.55158 c 3.38349,0.31563 4.2155,2.43205 4.2155,4.13442 0,1.26303 -0.51627,2.11641 -1.26721,3.16589 l -13.94784,20.23273 -15.63318,-22.88222 c -0.73387,-1.15209 -0.83627,-1.4849 -0.83627,-1.80055 0,-0.95156 1.152,-2.75209 4.6507,-2.85027 l 0,-2.55158 c -3.3835,0.20052 -8.55047,0.20052 -12.03209,0.20052 -2.73496,0 -8.01713,0 -10.56862,-0.20052 l 0,2.55158 c 5.80271,0 7.7014,0.21771 10.03528,3.49873 l 20.38202,29.93511 -18.38094,26.85068 c -4.5355,6.56644 -11.40062,6.68122 -13.41877,6.68122 l 0,2.55191 c 2.41496,-0.20053 6.43419,-0.20053 8.9686,-0.20053 2.85016,0 7.8166,0 10.44915,0.20053 l 0,-2.55191 c -3.26829,-0.31531 -4.2155,-2.43202 -4.2155,-4.13443 0,-1.36535 0.51627,-2.11628 1.04961,-2.86722 l 16.90039,-24.66566 18.38094,27.01661 c 0.83201,1.1695 0.83201,1.48481 0.83201,1.80054 0,0.83201 -0.94721,2.64962 -4.64644,2.86723 l 0,2.55148 c 3.38349,-0.20053 8.55046,-0.20053 12.03209,-0.20053 2.73495,0 8.01713,0 10.58141,0.20053 l 0,-2.55148 c -6.76698,0 -7.83366,-0.51628 -9.93287,-3.49827"
           id="path4008-7-1" />
      </g>
      <g
         id="g4010-2-8"
         style="opacity:0.4;fill:#000000;fill-opacity:1;display:inline;enable-background:new"
         transform="matrix(0.06761905,0,0,0.06761905,414.24815,138.67152)">
        <path
           id="path4012-6-2"
           d="m 118.28232,106.14948 -61.013792,0 -1.783476,23.36865 1.898681,0 c 1.365339,-17.50196 2.867221,-20.5655 19.251343,-20.5655 1.898681,0 4.983504,0 5.832577,0 2.018149,0.31588 2.018149,1.60002 2.018149,4.03204 l 0,57.51501 c 0,3.8187 -0.320003,4.98351 -9.220336,4.98351 l -2.999489,0 0,2.55191 c 5.068838,-0.0986 10.351011,-0.20096 15.535049,-0.20096 5.166972,0 10.466212,0.1024 15.530784,0.20096 l 0,-2.55191 -2.94829,0 c -8.768108,0 -9.083801,-1.16481 -9.083801,-4.98351 l 0,-57.51501 c 0,-2.33384 0,-3.60105 1.902948,-4.03204 0.832006,0 3.899805,0 5.798443,0 16.16652,0 17.74947,3.04639 19.11481,20.5655 l 1.90295,0"
           style="fill:#000000;fill-opacity:1;stroke:none"
           inkscape:connector-curvature="0" />
        <path
           id="path4014-8-1"
           d="m 171.30032,174.35251 -1.89868,0 c -2.31682,15.66732 -3.68217,24.18365 -22.2679,24.18365 l -14.66465,0 c -4.21976,0 -4.4203,-0.53334 -4.4203,-4.16857 l 0,-29.53408 9.96701,0 c 9.96701,0 10.91848,3.65229 10.91848,12.56969 l 1.69815,0 0,-27.48607 -1.69815,0 c 0,8.76806 -0.95147,12.35209 -10.91848,12.35209 l -9.96701,0 0,-26.1846 c 0,-3.56696 0.20054,-4.1003 4.4203,-4.1003 l 14.44704,0 c 16.34999,0 18.25294,6.49823 19.73348,20.46723 l 1.90295,0 -2.53442,-23.36858 -53.50013,0 0,2.90135 c 7.48379,0 8.68273,0 8.68273,4.74871 l 0,57.02016 c 0,4.74926 -1.18187,4.74926 -8.68273,4.74926 l 0,2.55106 54.98494,0"
           style="fill:#000000;fill-opacity:1;stroke:none"
           inkscape:connector-curvature="0" />
        <path
           id="path4016-9-0"
           d="m 199.7848,138.05152 15.63318,-22.60065 c 1.56588,-2.21877 4.74883,-6.78418 13.41877,-6.89929 l 0,-2.55158 c -2.41922,0.20052 -6.43419,0.20052 -8.9686,0.20052 -3.48163,0 -7.8166,0 -10.44915,-0.20052 l 0,2.55158 c 3.38349,0.31563 4.2155,2.43205 4.2155,4.13442 0,1.26303 -0.51627,2.11641 -1.26721,3.16589 l -13.94784,20.23273 -15.63318,-22.88222 c -0.73387,-1.15209 -0.83627,-1.4849 -0.83627,-1.80055 0,-0.95156 1.152,-2.75209 4.6507,-2.85027 l 0,-2.55158 c -3.3835,0.20052 -8.55047,0.20052 -12.03209,0.20052 -2.73496,0 -8.01713,0 -10.56862,-0.20052 l 0,2.55158 c 5.80271,0 7.7014,0.21771 10.03528,3.49873 l 20.38202,29.93511 -18.38094,26.85068 c -4.5355,6.56644 -11.40062,6.68122 -13.41877,6.68122 l 0,2.55191 c 2.41496,-0.20053 6.43419,-0.20053 8.9686,-0.20053 2.85016,0 7.8166,0 10.44915,0.20053 l 0,-2.55191 c -3.26829,-0.31531 -4.2155,-2.43202 -4.2155,-4.13443 0,-1.36535 0.51627,-2.11628 1.04961,-2.86722 l 16.90039,-24.66566 18.38094,27.01661 c 0.83201,1.1695 0.83201,1.48481 0.83201,1.80054 0,0.83201 -0.94721,2.64962 -4.64644,2.86723 l 0,2.55148 c 3.38349,-0.20053 8.55046,-0.20053 12.03209,-0.20053 2.73495,0 8.01713,0 10.58141,0.20053 l 0,-2.55148 c -6.76698,0 -7.83366,-0.51628 -9.93287,-3.49827"
           style="fill:#000000;fill-opacity:1;stroke:none"
           inkscape:connector-curvature="0" />
      </g>
      <g
         transform="matrix(0.90158731,0,0,0.90158731,13.975379,17.63508)"
         style="fill:#f7f7f7;fill-opacity:1;display:inline;enable-background:new"
         id="g3906-2-8">
        <path
           inkscape:connector-curvature="0"
           style="fill:#f7f7f7;fill-opacity:1;stroke:none"
           d="m 118.28232,106.14948 -61.013792,0 -1.783476,23.36865 1.898681,0 c 1.365339,-17.50196 2.867221,-20.5655 19.251343,-20.5655 1.898681,0 4.983504,0 5.832577,0 2.018149,0.31588 2.018149,1.60002 2.018149,4.03204 l 0,57.51501 c 0,3.8187 -0.320003,4.98351 -9.220336,4.98351 l -2.999489,0 0,2.55191 c 5.068838,-0.0986 10.351011,-0.20096 15.535049,-0.20096 5.166972,0 10.466212,0.1024 15.530784,0.20096 l 0,-2.55191 -2.94829,0 c -8.768108,0 -9.083801,-1.16481 -9.083801,-4.98351 l 0,-57.51501 c 0,-2.33384 0,-3.60105 1.902948,-4.03204 0.832006,0 3.899805,0 5.798443,0 16.16652,0 17.74947,3.04639 19.11481,20.5655 l 1.90295,0"
           id="path3908-6-4" />
        <path
           inkscape:connector-curvature="0"
           style="fill:#f7f7f7;fill-opacity:1;stroke:none"
           d="m 171.30032,174.35251 -1.89868,0 c -2.31682,15.66732 -3.68217,24.18365 -22.2679,24.18365 l -14.66465,0 c -4.21976,0 -4.4203,-0.53334 -4.4203,-4.16857 l 0,-29.53408 9.96701,0 c 9.96701,0 10.91848,3.65229 10.91848,12.56969 l 1.69815,0 0,-27.48607 -1.69815,0 c 0,8.76806 -0.95147,12.35209 -10.91848,12.35209 l -9.96701,0 0,-26.1846 c 0,-3.56696 0.20054,-4.1003 4.4203,-4.1003 l 14.44704,0 c 16.34999,0 18.25294,6.49823 19.73348,20.46723 l 1.90295,0 -2.53442,-23.36858 -53.50013,0 0,2.90135 c 7.48379,0 8.68273,0 8.68273,4.74871 l 0,57.02016 c 0,4.74926 -1.18187,4.74926 -8.68273,4.74926 l 0,2.55106 54.98494,0"
           id="path3910-1-0" />
        <path
           inkscape:connector-curvature="0"
           style="fill:#f7f7f7;fill-opacity:1;stroke:none"
           d="m 199.7848,138.05152 15.63318,-22.60065 c 1.56588,-2.21877 4.74883,-6.78418 13.41877,-6.89929 l 0,-2.55158 c -2.41922,0.20052 -6.43419,0.20052 -8.9686,0.20052 -3.48163,0 -7.8166,0 -10.44915,-0.20052 l 0,2.55158 c 3.38349,0.31563 4.2155,2.43205 4.2155,4.13442 0,1.26303 -0.51627,2.11641 -1.26721,3.16589 l -13.94784,20.23273 -15.63318,-22.88222 c -0.73387,-1.15209 -0.83627,-1.4849 -0.83627,-1.80055 0,-0.95156 1.152,-2.75209 4.6507,-2.85027 l 0,-2.55158 c -3.3835,0.20052 -8.55047,0.20052 -12.03209,0.20052 -2.73496,0 -8.01713,0 -10.56862,-0.20052 l 0,2.55158 c 5.80271,0 7.7014,0.21771 10.03528,3.49873 l 20.38202,29.93511 -18.38094,26.85068 c -4.5355,6.56644 -11.40062,6.68122 -13.41877,6.68122 l 0,2.55191 c 2.41496,-0.20053 6.43419,-0.20053 8.9686,-0.20053 2.85016,0 7.8166,0 10.44915,0.20053 l 0,-2.55191 c -3.26829,-0.31531 -4.2155,-2.43202 -4.2155,-4.13443 0,-1.36535 0.51627,-2.11628 1.04961,-2.86722 l 16.90039,-24.66566 18.38094,27.01661 c 0.83201,1.1695 0.83201,1.48481 0.83201,1.80054 0,0.83201 -0.94721,2.64962 -4.64644,2.86723 l 0,2.55148 c 3.38349,-0.20053 8.55046,-0.20053 12.03209,-0.20053 2.73495,0 8.01713,0 10.58141,0.20053 l 0,-2.55148 c -6.76698,0 -7.83366,-0.51628 -9.93287,-3.49827"
           id="path3912-7-8" />
      </g>
      <g
         id="g3914-7-6"
         style="fill:#f7f7f7;fill-opacity:1;display:inline;enable-background:new"
         transform="matrix(0.37190476,0,0,0.37190476,282.36485,18.95552)">
        <path
           id="path3916-6-5"
           d="m 118.28232,106.14948 -61.013792,0 -1.783476,23.36865 1.898681,0 c 1.365339,-17.50196 2.867221,-20.5655 19.251343,-20.5655 1.898681,0 4.983504,0 5.832577,0 2.018149,0.31588 2.018149,1.60002 2.018149,4.03204 l 0,57.51501 c 0,3.8187 -0.320003,4.98351 -9.220336,4.98351 l -2.999489,0 0,2.55191 c 5.068838,-0.0986 10.351011,-0.20096 15.535049,-0.20096 5.166972,0 10.466212,0.1024 15.530784,0.20096 l 0,-2.55191 -2.94829,0 c -8.768108,0 -9.083801,-1.16481 -9.083801,-4.98351 l 0,-57.51501 c 0,-2.33384 0,-3.60105 1.902948,-4.03204 0.832006,0 3.899805,0 5.798443,0 16.16652,0 17.74947,3.04639 19.11481,20.5655 l 1.90295,0"
           style="fill:#f7f7f7;fill-opacity:1;stroke:none"
           inkscape:connector-curvature="0" />
        <path
           id="path3918-3-2"
           d="m 171.30032,174.35251 -1.89868,0 c -2.31682,15.66732 -3.68217,24.18365 -22.2679,24.18365 l -14.66465,0 c -4.21976,0 -4.4203,-0.53334 -4.4203,-4.16857 l 0,-29.53408 9.96701,0 c 9.96701,0 10.91848,3.65229 10.91848,12.56969 l 1.69815,0 0,-27.48607 -1.69815,0 c 0,8.76806 -0.95147,12.35209 -10.91848,12.35209 l -9.96701,0 0,-26.1846 c 0,-3.56696 0.20054,-4.1003 4.4203,-4.1003 l 14.44704,0 c 16.34999,0 18.25294,6.49823 19.73348,20.46723 l 1.90295,0 -2.53442,-23.36858 -53.50013,0 0,2.90135 c 7.48379,0 8.68273,0 8.68273,4.74871 l 0,57.02016 c 0,4.74926 -1.18187,4.74926 -8.68273,4.74926 l 0,2.55106 54.98494,0"
           style="fill:#f7f7f7;fill-opacity:1;stroke:none"
           inkscape:connector-curvature="0" />
        <path
           id="path3920-7-2"
           d="m 199.7848,138.05152 15.63318,-22.60065 c 1.56588,-2.21877 4.74883,-6.78418 13.41877,-6.89929 l 0,-2.55158 c -2.41922,0.20052 -6.43419,0.20052 -8.9686,0.20052 -3.48163,0 -7.8166,0 -10.44915,-0.20052 l 0,2.55158 c 3.38349,0.31563 4.2155,2.43205 4.2155,4.13442 0,1.26303 -0.51627,2.11641 -1.26721,3.16589 l -13.94784,20.23273 -15.63318,-22.88222 c -0.73387,-1.15209 -0.83627,-1.4849 -0.83627,-1.80055 0,-0.95156 1.152,-2.75209 4.6507,-2.85027 l 0,-2.55158 c -3.3835,0.20052 -8.55047,0.20052 -12.03209,0.20052 -2.73496,0 -8.01713,0 -10.56862,-0.20052 l 0,2.55158 c 5.80271,0 7.7014,0.21771 10.03528,3.49873 l 20.38202,29.93511 -18.38094,26.85068 c -4.5355,6.56644 -11.40062,6.68122 -13.41877,6.68122 l 0,2.55191 c 2.41496,-0.20053 6.43419,-0.20053 8.9686,-0.20053 2.85016,0 7.8166,0 10.44915,0.20053 l 0,-2.55191 c -3.26829,-0.31531 -4.2155,-2.43202 -4.2155,-4.13443 0,-1.36535 0.51627,-2.11628 1.04961,-2.86722 l 16.90039,-24.66566 18.38094,27.01661 c 0.83201,1.1695 0.83201,1.48481 0.83201,1.80054 0,0.83201 -0.94721,2.64962 -4.64644,2.86723 l 0,2.55148 c 3.38349,-0.20053 8.55046,-0.20053 12.03209,-0.20053 2.73495,0 8.01713,0 10.58141,0.20053 l 0,-2.55148 c -6.76698,0 -7.83366,-0.51628 -9.93287,-3.49827"
           style="fill:#f7f7f7;fill-opacity:1;stroke:none"
           inkscape:connector-curvature="0" />
      </g>
      <g
         transform="matrix(0.24793651,0,0,0.24793651,284.24323,133.98796)"
         style="fill:#f7f7f7;fill-opacity:1;display:inline;enable-background:new"
         id="g3922-2-1">
        <path
           inkscape:connector-curvature="0"
           style="fill:#f7f7f7;fill-opacity:1;stroke:none"
           d="m 118.28232,106.14948 -61.013792,0 -1.783476,23.36865 1.898681,0 c 1.365339,-17.50196 2.867221,-20.5655 19.251343,-20.5655 1.898681,0 4.983504,0 5.832577,0 2.018149,0.31588 2.018149,1.60002 2.018149,4.03204 l 0,57.51501 c 0,3.8187 -0.320003,4.98351 -9.220336,4.98351 l -2.999489,0 0,2.55191 c 5.068838,-0.0986 10.351011,-0.20096 15.535049,-0.20096 5.166972,0 10.466212,0.1024 15.530784,0.20096 l 0,-2.55191 -2.94829,0 c -8.768108,0 -9.083801,-1.16481 -9.083801,-4.98351 l 0,-57.51501 c 0,-2.33384 0,-3.60105 1.902948,-4.03204 0.832006,0 3.899805,0 5.798443,0 16.16652,0 17.74947,3.04639 19.11481,20.5655 l 1.90295,0"
           id="path3924-8-3" />
        <path
           inkscape:connector-curvature="0"
           style="fill:#f7f7f7;fill-opacity:1;stroke:none"
           d="m 171.30032,174.35251 -1.89868,0 c -2.31682,15.66732 -3.68217,24.18365 -22.2679,24.18365 l -14.66465,0 c -4.21976,0 -4.4203,-0.53334 -4.4203,-4.16857 l 0,-29.53408 9.96701,0 c 9.96701,0 10.91848,3.65229 10.91848,12.56969 l 1.69815,0 0,-27.48607 -1.69815,0 c 0,8.76806 -0.95147,12.35209 -10.91848,12.35209 l -9.96701,0 0,-26.1846 c 0,-3.56696 0.20054,-4.1003 4.4203,-4.1003 l 14.44704,0 c 16.34999,0 18.25294,6.49823 19.73348,20.46723 l 1.90295,0 -2.53442,-23.36858 -53.50013,0 0,2.90135 c 7.48379,0 8.68273,0 8.68273,4.74871 l 0,57.02016 c 0,4.74926 -1.18187,4.74926 -8.68273,4.74926 l 0,2.55106 54.98494,0"
           id="path3926-3-1" />
        <path
           inkscape:connector-curvature="0"
           style="fill:#f7f7f7;fill-opacity:1;stroke:none"
           d="m 199.7848,138.05152 15.63318,-22.60065 c 1.56588,-2.21877 4.74883,-6.78418 13.41877,-6.89929 l 0,-2.55158 c -2.41922,0.20052 -6.43419,0.20052 -8.9686,0.20052 -3.48163,0 -7.8166,0 -10.44915,-0.20052 l 0,2.55158 c 3.38349,0.31563 4.2155,2.43205 4.2155,4.13442 0,1.26303 -0.51627,2.11641 -1.26721,3.16589 l -13.94784,20.23273 -15.63318,-22.88222 c -0.73387,-1.15209 -0.83627,-1.4849 -0.83627,-1.80055 0,-0.95156 1.152,-2.75209 4.6507,-2.85027 l 0,-2.55158 c -3.3835,0.20052 -8.55047,0.20052 -12.03209,0.20052 -2.73496,0 -8.01713,0 -10.56862,-0.20052 l 0,2.55158 c 5.80271,0 7.7014,0.21771 10.03528,3.49873 l 20.38202,29.93511 -18.38094,26.85068 c -4.5355,6.56644 -11.40062,6.68122 -13.41877,6.68122 l 0,2.55191 c 2.41496,-0.20053 6.43419,-0.20053 8.9686,-0.20053 2.85016,0 7.8166,0 10.44915,0.20053 l 0,-2.55191 c -3.26829,-0.31531 -4.2155,-2.43202 -4.2155,-4.13443 0,-1.36535 0.51627,-2.11628 1.04961,-2.86722 l 16.90039,-24.66566 18.38094,27.01661 c 0.83201,1.1695 0.83201,1.48481 0.83201,1.80054 0,0.83201 -0.94721,2.64962 -4.64644,2.86723 l 0,2.55148 c 3.38349,-0.20053 8.55046,-0.20053 12.03209,-0.20053 2.73495,0 8.01713,0 10.58141,0.20053 l 0,-2.55148 c -6.76698,0 -7.83366,-0.51628 -9.93287,-3.49827"
           id="path3928-8-8" />
      </g>
      <g
         id="g3930-7-6"
         style="fill:#f7f7f7;fill-opacity:1;display:inline;enable-background:new"
         transform="matrix(0.18031746,0,0,0.18031746,285.99508,216.3693)">
        <path
           id="path3932-6-8"
           d="m 118.28232,106.14948 -61.013792,0 -1.783476,23.36865 1.898681,0 c 1.365339,-17.50196 2.867221,-20.5655 19.251343,-20.5655 1.898681,0 4.983504,0 5.832577,0 2.018149,0.31588 2.018149,1.60002 2.018149,4.03204 l 0,57.51501 c 0,3.8187 -0.320003,4.98351 -9.220336,4.98351 l -2.999489,0 0,2.55191 c 5.068838,-0.0986 10.351011,-0.20096 15.535049,-0.20096 5.166972,0 10.466212,0.1024 15.530784,0.20096 l 0,-2.55191 -2.94829,0 c -8.768108,0 -9.083801,-1.16481 -9.083801,-4.98351 l 0,-57.51501 c 0,-2.33384 0,-3.60105 1.902948,-4.03204 0.832006,0 3.899805,0 5.798443,0 16.16652,0 17.74947,3.04639 19.11481,20.5655 l 1.90295,0"
           style="fill:#f7f7f7;fill-opacity:1;stroke:none"
           inkscape:connector-curvature="0" />
        <path
           id="path3934-7-8"
           d="m 171.30032,174.35251 -1.89868,0 c -2.31682,15.66732 -3.68217,24.18365 -22.2679,24.18365 l -14.66465,0 c -4.21976,0 -4.4203,-0.53334 -4.4203,-4.16857 l 0,-29.53408 9.96701,0 c 9.96701,0 10.91848,3.65229 10.91848,12.56969 l 1.69815,0 0,-27.48607 -1.69815,0 c 0,8.76806 -0.95147,12.35209 -10.91848,12.35209 l -9.96701,0 0,-26.1846 c 0,-3.56696 0.20054,-4.1003 4.4203,-4.1003 l 14.44704,0 c 16.34999,0 18.25294,6.49823 19.73348,20.46723 l 1.90295,0 -2.53442,-23.36858 -53.50013,0 0,2.90135 c 7.48379,0 8.68273,0 8.68273,4.74871 l 0,57.02016 c 0,4.74926 -1.18187,4.74926 -8.68273,4.74926 l 0,2.55106 54.98494,0"
           style="fill:#f7f7f7;fill-opacity:1;stroke:none"
           inkscape:connector-curvature="0" />
        <path
           id="path3936-9-7"
           d="m 199.7848,138.05152 15.63318,-22.60065 c 1.56588,-2.21877 4.74883,-6.78418 13.41877,-6.89929 l 0,-2.55158 c -2.41922,0.20052 -6.43419,0.20052 -8.9686,0.20052 -3.48163,0 -7.8166,0 -10.44915,-0.20052 l 0,2.55158 c 3.38349,0.31563 4.2155,2.43205 4.2155,4.13442 0,1.26303 -0.51627,2.11641 -1.26721,3.16589 l -13.94784,20.23273 -15.63318,-22.88222 c -0.73387,-1.15209 -0.83627,-1.4849 -0.83627,-1.80055 0,-0.95156 1.152,-2.75209 4.6507,-2.85027 l 0,-2.55158 c -3.3835,0.20052 -8.55047,0.20052 -12.03209,0.20052 -2.73496,0 -8.01713,0 -10.56862,-0.20052 l 0,2.55158 c 5.80271,0 7.7014,0.21771 10.03528,3.49873 l 20.38202,29.93511 -18.38094,26.85068 c -4.5355,6.56644 -11.40062,6.68122 -13.41877,6.68122 l 0,2.55191 c 2.41496,-0.20053 6.43419,-0.20053 8.9686,-0.20053 2.85016,0 7.8166,0 10.44915,0.20053 l 0,-2.55191 c -3.26829,-0.31531 -4.2155,-2.43202 -4.2155,-4.13443 0,-1.36535 0.51627,-2.11628 1.04961,-2.86722 l 16.90039,-24.66566 18.38094,27.01661 c 0.83201,1.1695 0.83201,1.48481 0.83201,1.80054 0,0.83201 -0.94721,2.64962 -4.64644,2.86723 l 0,2.55148 c 3.38349,-0.20053 8.55046,-0.20053 12.03209,-0.20053 2.73495,0 8.01713,0 10.58141,0.20053 l 0,-2.55148 c -6.76698,0 -7.83366,-0.51628 -9.93287,-3.49827"
           style="fill:#f7f7f7;fill-opacity:1;stroke:none"
           inkscape:connector-curvature="0" />
      </g>
      <g
         transform="matrix(0.12396825,0,0,0.12396825,414.12162,49.020406)"
         style="fill:#f7f7f7;fill-opacity:1;display:inline;enable-background:new"
         id="g3938-5-8">
        <path
           inkscape:connector-curvature="0"
           style="fill:#f7f7f7;fill-opacity:1;stroke:none"
           d="m 118.28232,106.14948 -61.013792,0 -1.783476,23.36865 1.898681,0 c 1.365339,-17.50196 2.867221,-20.5655 19.251343,-20.5655 1.898681,0 4.983504,0 5.832577,0 2.018149,0.31588 2.018149,1.60002 2.018149,4.03204 l 0,57.51501 c 0,3.8187 -0.320003,4.98351 -9.220336,4.98351 l -2.999489,0 0,2.55191 c 5.068838,-0.0986 10.351011,-0.20096 15.535049,-0.20096 5.166972,0 10.466212,0.1024 15.530784,0.20096 l 0,-2.55191 -2.94829,0 c -8.768108,0 -9.083801,-1.16481 -9.083801,-4.98351 l 0,-57.51501 c 0,-2.33384 0,-3.60105 1.902948,-4.03204 0.832006,0 3.899805,0 5.798443,0 16.16652,0 17.74947,3.04639 19.11481,20.5655 l 1.90295,0"
           id="path3940-9-3" />
        <path
           inkscape:connector-curvature="0"
           style="fill:#f7f7f7;fill-opacity:1;stroke:none"
           d="m 171.30032,174.35251 -1.89868,0 c -2.31682,15.66732 -3.68217,24.18365 -22.2679,24.18365 l -14.66465,0 c -4.21976,0 -4.4203,-0.53334 -4.4203,-4.16857 l 0,-29.53408 9.96701,0 c 9.96701,0 10.91848,3.65229 10.91848,12.56969 l 1.69815,0 0,-27.48607 -1.69815,0 c 0,8.76806 -0.95147,12.35209 -10.91848,12.35209 l -9.96701,0 0,-26.1846 c 0,-3.56696 0.20054,-4.1003 4.4203,-4.1003 l 14.44704,0 c 16.34999,0 18.25294,6.49823 19.73348,20.46723 l 1.90295,0 -2.53442,-23.36858 -53.50013,0 0,2.90135 c 7.48379,0 8.68273,0 8.68273,4.74871 l 0,57.02016 c 0,4.74926 -1.18187,4.74926 -8.68273,4.74926 l 0,2.55106 54.98494,0"
           id="path3942-4-1" />
        <path
           inkscape:connector-curvature="0"
           style="fill:#f7f7f7;fill-opacity:1;stroke:none"
           d="m 199.7848,138.05152 15.63318,-22.60065 c 1.56588,-2.21877 4.74883,-6.78418 13.41877,-6.89929 l 0,-2.55158 c -2.41922,0.20052 -6.43419,0.20052 -8.9686,0.20052 -3.48163,0 -7.8166,0 -10.44915,-0.20052 l 0,2.55158 c 3.38349,0.31563 4.2155,2.43205 4.2155,4.13442 0,1.26303 -0.51627,2.11641 -1.26721,3.16589 l -13.94784,20.23273 -15.63318,-22.88222 c -0.73387,-1.15209 -0.83627,-1.4849 -0.83627,-1.80055 0,-0.95156 1.152,-2.75209 4.6507,-2.85027 l 0,-2.55158 c -3.3835,0.20052 -8.55047,0.20052 -12.03209,0.20052 -2.73496,0 -8.01713,0 -10.56862,-0.20052 l 0,2.55158 c 5.80271,0 7.7014,0.21771 10.03528,3.49873 l 20.38202,29.93511 -18.38094,26.85068 c -4.5355,6.56644 -11.40062,6.68122 -13.41877,6.68122 l 0,2.55191 c 2.41496,-0.20053 6.43419,-0.20053 8.9686,-0.20053 2.85016,0 7.8166,0 10.44915,0.20053 l 0,-2.55191 c -3.26829,-0.31531 -4.2155,-2.43202 -4.2155,-4.13443 0,-1.36535 0.51627,-2.11628 1.04961,-2.86722 l 16.90039,-24.66566 18.38094,27.01661 c 0.83201,1.1695 0.83201,1.48481 0.83201,1.80054 0,0.83201 -0.94721,2.64962 -4.64644,2.86723 l 0,2.55148 c 3.38349,-0.20053 8.55046,-0.20053 12.03209,-0.20053 2.73495,0 8.01713,0 10.58141,0.20053 l 0,-2.55148 c -6.76698,0 -7.83366,-0.51628 -9.93287,-3.49827"
           id="path3944-5-6" />
      </g>
      <g
         id="g3946-0-8"
         style="fill:#f7f7f7;fill-opacity:1;display:inline;enable-background:new"
         transform="matrix(0.10142857,0,0,0.10142857,413.37223,96.480846)">
        <path
           id="path3948-4-6"
           d="m 118.28232,106.14948 -61.013792,0 -1.783476,23.36865 1.898681,0 c 1.365339,-17.50196 2.867221,-20.5655 19.251343,-20.5655 1.898681,0 4.983504,0 5.832577,0 2.018149,0.31588 2.018149,1.60002 2.018149,4.03204 l 0,57.51501 c 0,3.8187 -0.320003,4.98351 -9.220336,4.98351 l -2.999489,0 0,2.55191 c 5.068838,-0.0986 10.351011,-0.20096 15.535049,-0.20096 5.166972,0 10.466212,0.1024 15.530784,0.20096 l 0,-2.55191 -2.94829,0 c -8.768108,0 -9.083801,-1.16481 -9.083801,-4.98351 l 0,-57.51501 c 0,-2.33384 0,-3.60105 1.902948,-4.03204 0.832006,0 3.899805,0 5.798443,0 16.16652,0 17.74947,3.04639 19.11481,20.5655 l 1.90295,0"
           style="fill:#f7f7f7;fill-opacity:1;stroke:none"
           inkscape:connector-curvature="0" />
        <path
           id="path3950-1-4"
           d="m 171.30032,174.35251 -1.89868,0 c -2.31682,15.66732 -3.68217,24.18365 -22.2679,24.18365 l -14.66465,0 c -4.21976,0 -4.4203,-0.53334 -4.4203,-4.16857 l 0,-29.53408 9.96701,0 c 9.96701,0 10.91848,3.65229 10.91848,12.56969 l 1.69815,0 0,-27.48607 -1.69815,0 c 0,8.76806 -0.95147,12.35209 -10.91848,12.35209 l -9.96701,0 0,-26.1846 c 0,-3.56696 0.20054,-4.1003 4.4203,-4.1003 l 14.44704,0 c 16.34999,0 18.25294,6.49823 19.73348,20.46723 l 1.90295,0 -2.53442,-23.36858 -53.50013,0 0,2.90135 c 7.48379,0 8.68273,0 8.68273,4.74871 l 0,57.02016 c 0,4.74926 -1.18187,4.74926 -8.68273,4.74926 l 0,2.55106 54.98494,0"
           style="fill:#f7f7f7;fill-opacity:1;stroke:none"
           inkscape:connector-curvature="0" />
        <path
           id="path3952-4-7"
           d="m 199.7848,138.05152 15.63318,-22.60065 c 1.56588,-2.21877 4.74883,-6.78418 13.41877,-6.89929 l 0,-2.55158 c -2.41922,0.20052 -6.43419,0.20052 -8.9686,0.20052 -3.48163,0 -7.8166,0 -10.44915,-0.20052 l 0,2.55158 c 3.38349,0.31563 4.2155,2.43205 4.2155,4.13442 0,1.26303 -0.51627,2.11641 -1.26721,3.16589 l -13.94784,20.23273 -15.63318,-22.88222 c -0.73387,-1.15209 -0.83627,-1.4849 -0.83627,-1.80055 0,-0.95156 1.152,-2.75209 4.6507,-2.85027 l 0,-2.55158 c -3.3835,0.20052 -8.55047,0.20052 -12.03209,0.20052 -2.73496,0 -8.01713,0 -10.56862,-0.20052 l 0,2.55158 c 5.80271,0 7.7014,0.21771 10.03528,3.49873 l 20.38202,29.93511 -18.38094,26.85068 c -4.5355,6.56644 -11.40062,6.68122 -13.41877,6.68122 l 0,2.55191 c 2.41496,-0.20053 6.43419,-0.20053 8.9686,-0.20053 2.85016,0 7.8166,0 10.44915,0.20053 l 0,-2.55191 c -3.26829,-0.31531 -4.2155,-2.43202 -4.2155,-4.13443 0,-1.36535 0.51627,-2.11628 1.04961,-2.86722 l 16.90039,-24.66566 18.38094,27.01661 c 0.83201,1.1695 0.83201,1.48481 0.83201,1.80054 0,0.83201 -0.94721,2.64962 -4.64644,2.86723 l 0,2.55148 c 3.38349,-0.20053 8.55046,-0.20053 12.03209,-0.20053 2.73495,0 8.01713,0 10.58141,0.20053 l 0,-2.55148 c -6.76698,0 -7.83366,-0.51628 -9.93287,-3.49827"
           style="fill:#f7f7f7;fill-opacity:1;stroke:none"
           inkscape:connector-curvature="0" />
      </g>
      <g
         transform="matrix(0.06761905,0,0,0.06761905,414.24815,137.67152)"
         style="fill:#f7f7f7;fill-opacity:1;display:inline;enable-background:new"
         id="g3954-3-9">
        <path
           inkscape:connector-curvature="0"
           style="fill:#f7f7f7;fill-opacity:1;stroke:none"
           d="m 118.28232,106.14948 -61.013792,0 -1.783476,23.36865 1.898681,0 c 1.365339,-17.50196 2.867221,-20.5655 19.251343,-20.5655 1.898681,0 4.983504,0 5.832577,0 2.018149,0.31588 2.018149,1.60002 2.018149,4.03204 l 0,57.51501 c 0,3.8187 -0.320003,4.98351 -9.220336,4.98351 l -2.999489,0 0,2.55191 c 5.068838,-0.0986 10.351011,-0.20096 15.535049,-0.20096 5.166972,0 10.466212,0.1024 15.530784,0.20096 l 0,-2.55191 -2.94829,0 c -8.768108,0 -9.083801,-1.16481 -9.083801,-4.98351 l 0,-57.51501 c 0,-2.33384 0,-3.60105 1.902948,-4.03204 0.832006,0 3.899805,0 5.798443,0 16.16652,0 17.74947,3.04639 19.11481,20.5655 l 1.90295,0"
           id="path3956-0-0" />
        <path
           inkscape:connector-curvature="0"
           style="fill:#f7f7f7;fill-opacity:1;stroke:none"
           d="m 171.30032,174.35251 -1.89868,0 c -2.31682,15.66732 -3.68217,24.18365 -22.2679,24.18365 l -14.66465,0 c -4.21976,0 -4.4203,-0.53334 -4.4203,-4.16857 l 0,-29.53408 9.96701,0 c 9.96701,0 10.91848,3.65229 10.91848,12.56969 l 1.69815,0 0,-27.48607 -1.69815,0 c 0,8.76806 -0.95147,12.35209 -10.91848,12.35209 l -9.96701,0 0,-26.1846 c 0,-3.56696 0.20054,-4.1003 4.4203,-4.1003 l 14.44704,0 c 16.34999,0 18.25294,6.49823 19.73348,20.46723 l 1.90295,0 -2.53442,-23.36858 -53.50013,0 0,2.90135 c 7.48379,0 8.68273,0 8.68273,4.74871 l 0,57.02016 c 0,4.74926 -1.18187,4.74926 -8.68273,4.74926 l 0,2.55106 54.98494,0"
           id="path3958-4-9" />
        <path
           inkscape:connector-curvature="0"
           style="fill:#f7f7f7;fill-opacity:1;stroke:none"
           d="m 199.7848,138.05152 15.63318,-22.60065 c 1.56588,-2.21877 4.74883,-6.78418 13.41877,-6.89929 l 0,-2.55158 c -2.41922,0.20052 -6.43419,0.20052 -8.9686,0.20052 -3.48163,0 -7.8166,0 -10.44915,-0.20052 l 0,2.55158 c 3.38349,0.31563 4.2155,2.43205 4.2155,4.13442 0,1.26303 -0.51627,2.11641 -1.26721,3.16589 l -13.94784,20.23273 -15.63318,-22.88222 c -0.73387,-1.15209 -0.83627,-1.4849 -0.83627,-1.80055 0,-0.95156 1.152,-2.75209 4.6507,-2.85027 l 0,-2.55158 c -3.3835,0.20052 -8.55047,0.20052 -12.03209,0.20052 -2.73496,0 -8.01713,0 -10.56862,-0.20052 l 0,2.55158 c 5.80271,0 7.7014,0.21771 10.03528,3.49873 l 20.38202,29.93511 -18.38094,26.85068 c -4.5355,6.56644 -11.40062,6.68122 -13.41877,6.68122 l 0,2.55191 c 2.41496,-0.20053 6.43419,-0.20053 8.9686,-0.20053 2.85016,0 7.8166,0 10.44915,0.20053 l 0,-2.55191 c -3.26829,-0.31531 -4.2155,-2.43202 -4.2155,-4.13443 0,-1.36535 0.51627,-2.11628 1.04961,-2.86722 l 16.90039,-24.66566 18.38094,27.01661 c 0.83201,1.1695 0.83201,1.48481 0.83201,1.80054 0,0.83201 -0.94721,2.64962 -4.64644,2.86723 l 0,2.55148 c 3.38349,-0.20053 8.55046,-0.20053 12.03209,-0.20053 2.73495,0 8.01713,0 10.58141,0.20053 l 0,-2.55148 c -6.76698,0 -7.83366,-0.51628 -9.93287,-3.49827"
           id="path3960-5-7" />
      </g>
    </g>
    <g
       inkscape:groupmode="layer"
       id="layer5"
       inkscape:label="Highlights"
       style="display:inline"
       sodipodi:insensitive="true">
      <path
         style="opacity:0.12999998;color:#bebebe;fill:#ffffff;fill-opacity:1;fill-rule:nonzero;stroke:none;stroke-width:0;marker:none;visibility:visible;display:inline;overflow:visible;enable-background:accumulate"
         d="M 84,47 C 56.836703,47 35,68.836703 35,96 l 0,1 C 35,69.836703 56.836703,48 84,48 l 120,0 c 27.1633,0 49,21.836703 49,49 l 0,-1 C 253,68.836703 231.1633,47 204,47 L 84,47 z"
         id="rect3894"
         inkscape:connector-curvature="0" />
      <path
         style="opacity:0.12999998;color:#bebebe;fill:#ffffff;fill-opacity:1;fill-rule:nonzero;stroke:none;stroke-width:0;marker:none;visibility:visible;display:inline;overflow:visible;enable-background:accumulate"
         d="m 419,141 c -1.1253,0 -2,0.8747 -2,2 l 0,1 c 0,-1.1253 0.8747,-2 2,-2 l 10,0 c 1.1253,0 2,0.8747 2,2 l 0,-1 c 0,-1.1253 -0.8747,-2 -2,-2 l -10,0 z"
         id="rect3896"
         inkscape:connector-curvature="0" />
      <path
         style="opacity:0.12999998;color:#bebebe;fill:#ffffff;fill-opacity:1;fill-rule:nonzero;stroke:none;stroke-width:0;marker:none;visibility:visible;display:inline;overflow:visible;enable-background:accumulate"
         d="m 422,102 c -2.2333,0 -4,1.7667 -4,4 l 0,1 c 0,-2.2333 1.7667,-4 4,-4 l 12,0 c 2.2333,0 4,1.7667 4,4 l 0,-1 c 0,-2.2333 -1.7667,-4 -4,-4 l -12,0 z"
         id="rect3898"
         inkscape:connector-curvature="0" />
      <path
         style="opacity:0.12999998;color:#bebebe;fill:#ffffff;fill-opacity:1;fill-rule:nonzero;stroke:none;stroke-width:0;marker:none;visibility:visible;display:inline;overflow:visible;enable-background:accumulate"
         d="m 424,54 c -3.3413,0 -6,2.658703 -6,6 l 0,1 c 0,-3.341297 2.6587,-6 6,-6 l 16,0 c 3.3413,0 6,2.658703 6,6 l 0,-1 c 0,-3.341297 -2.6587,-6 -6,-6 l -16,0 z"
         id="rect3900"
         inkscape:connector-curvature="0" />
      <path
         style="opacity:0.12999998;color:#bebebe;fill:#ffffff;fill-opacity:1;fill-rule:nonzero;stroke:none;stroke-width:0;marker:none;visibility:visible;display:inline;overflow:visible;enable-background:accumulate"
         d="m 300,224 c -4.4493,0 -8,3.5507 -8,8 l 0,1 c 0,-4.4493 3.5507,-8 8,-8 l 24,0 c 4.4493,0 8,3.5507 8,8 l 0,-1 c 0,-4.4493 -3.5507,-8 -8,-8 l -24,0 z"
         id="rect3902"
         inkscape:connector-curvature="0" />
      <path
         style="opacity:0.12999998;color:#bebebe;fill:#ffffff;fill-opacity:1;fill-rule:nonzero;stroke:none;stroke-width:0;marker:none;visibility:visible;display:inline;overflow:visible;enable-background:accumulate"
         d="m 310,33 c -9.4353,0 -17,7.564703 -17,17 l 0,1 c 0,-9.435297 7.5647,-17 17,-17 l 52,0 c 9.4353,0 17,7.564703 17,17 l 0,-1 c 0,-9.435297 -7.5647,-17 -17,-17 l -52,0 z"
         id="rect3904"
         inkscape:connector-curvature="0" />
      <path
         style="opacity:0.12999998;color:#bebebe;fill:#ffffff;fill-opacity:1;fill-rule:nonzero;stroke:none;stroke-width:0;marker:none;visibility:visible;display:inline;overflow:visible;enable-background:accumulate"
         d="m 302.5,143 c -6.3883,0 -11.5,5.1117 -11.5,11.5 l 0,1 c 0,-6.3883 5.1117,-11.5 11.5,-11.5 l 35,0 c 6.3883,0 11.5,5.1117 11.5,11.5 l 0,-1 c 0,-6.3883 -5.1117,-11.5 -11.5,-11.5 l -35,0 z"
         id="rect3906"
         inkscape:connector-curvature="0" />
      <path
         id="path4085"
         d="m 204,266 c 27.1633,0 49,-21.8367 49,-49 l 0,-1 c 0,27.1633 -21.8367,49 -49,49 L 84,265 C 56.8367,265 35,243.1633 35,216 l 0,1 c 0,27.1633 21.8367,49 49,49 l 120,0 z"
         style="opacity:0.5;color:#bebebe;fill:#000000;fill-opacity:1;fill-rule:nonzero;stroke:none;stroke-width:0;marker:none;visibility:visible;display:inline;overflow:visible;enable-background:accumulate"
         inkscape:connector-curvature="0" />
      <path
         id="path4087"
         d="m 429,156 c 1.1253,0 2,-0.8747 2,-2 l 0,-1 c 0,1.1253 -0.8747,2 -2,2 l -10,0 c -1.1253,0 -2,-0.8747 -2,-2 l 0,1 c 0,1.1253 0.8747,2 2,2 l 10,0 z"
         style="opacity:0.3;color:#bebebe;fill:#000000;fill-opacity:1;fill-rule:nonzero;stroke:none;stroke-width:0;marker:none;visibility:visible;display:inline;overflow:visible;enable-background:accumulate"
         inkscape:connector-curvature="0" />
      <path
         id="path4089"
         d="m 434,123 c 2.2333,0 4,-1.7667 4,-4 l 0,-1 c 0,2.2333 -1.7667,4 -4,4 l -12,0 c -2.2333,0 -4,-1.7667 -4,-4 l 0,1 c 0,2.2333 1.7667,4 4,4 l 12,0 z"
         style="opacity:0.3;color:#bebebe;fill:#000000;fill-opacity:1;fill-rule:nonzero;stroke:none;stroke-width:0;marker:none;visibility:visible;display:inline;overflow:visible;enable-background:accumulate"
         inkscape:connector-curvature="0" />
      <path
         id="path4091"
         d="m 440,83 c 3.3413,0 6,-2.6587 6,-6 l 0,-1 c 0,3.3413 -2.6587,6 -6,6 l -16,0 c -3.3413,0 -6,-2.6587 -6,-6 l 0,1 c 0,3.3413 2.6587,6 6,6 l 16,0 z"
         style="opacity:0.5;color:#bebebe;fill:#000000;fill-opacity:1;fill-rule:nonzero;stroke:none;stroke-width:0;marker:none;visibility:visible;display:inline;overflow:visible;enable-background:accumulate"
         inkscape:connector-curvature="0" />
      <path
         id="path4093"
         d="m 324,265 c 4.4493,0 8,-3.5507 8,-8 l 0,-1 c 0,4.4493 -3.5507,8 -8,8 l -24,0 c -4.4493,0 -8,-3.5507 -8,-8 l 0,1 c 0,4.4493 3.5507,8 8,8 l 24,0 z"
         style="opacity:0.5;color:#bebebe;fill:#000000;fill-opacity:1;fill-rule:nonzero;stroke:none;stroke-width:0;marker:none;visibility:visible;display:inline;overflow:visible;enable-background:accumulate"
         inkscape:connector-curvature="0" />
      <path
         id="path4095"
         d="m 362,120 c 9.4353,0 17,-7.5647 17,-17 l 0,-1 c 0,9.4353 -7.5647,17 -17,17 l -52,0 c -9.4353,0 -17,-7.5647 -17,-17 l 0,1 c 0,9.4353 7.5647,17 17,17 l 52,0 z"
         style="opacity:0.5;color:#bebebe;fill:#000000;fill-opacity:1;fill-rule:nonzero;stroke:none;stroke-width:0;marker:none;visibility:visible;display:inline;overflow:visible;enable-background:accumulate"
         inkscape:connector-curvature="0" />
      <path
         id="path4097"
         d="m 337.5,202 c 6.3883,0 11.5,-5.1117 11.5,-11.5 l 0,-1 c 0,6.3883 -5.1117,11.5 -11.5,11.5 l -35,0 c -6.3883,0 -11.5,-5.1117 -11.5,-11.5 l 0,1 c 0,6.3883 5.1117,11.5 11.5,11.5 l 35,0 z"
         style="opacity:0.5;color:#bebebe;fill:#000000;fill-opacity:1;fill-rule:nonzero;stroke:none;stroke-width:0;marker:none;visibility:visible;display:inline;overflow:visible;enable-background:accumulate"
         inkscape:connector-curvature="0" />
      <path
         inkscape:connector-curvature="0"
         id="path4280"
         d="M 84,265 C 56.836703,265 35,243.1633 35,216 l 0,-1 c 0,27.1633 21.836703,49 49,49 l 120,0 c 27.1633,0 49,-21.8367 49,-49 l 0,1 c 0,27.1633 -21.8367,49 -49,49 l -120,0 z"
         style="opacity:0.1;color:#bebebe;fill:#ffffff;fill-opacity:1;fill-rule:nonzero;stroke:none;stroke-width:0;marker:none;visibility:visible;display:inline;overflow:visible;enable-background:accumulate" />
      <path
         style="opacity:0.1;color:#bebebe;fill:#ffffff;fill-opacity:1;fill-rule:nonzero;stroke:none;stroke-width:0;marker:none;visibility:visible;display:inline;overflow:visible;enable-background:accumulate"
         d="m 300,264 c -4.4493,0 -8,-3.5507 -8,-8 l 0,-1 c 0,4.4493 3.5507,8 8,8 l 24,0 c 4.4493,0 8,-3.5507 8,-8 l 0,1 c 0,4.4493 -3.5507,8 -8,8 l -24,0 z"
         id="path4294"
         inkscape:connector-curvature="0" />
      <path
         style="opacity:0.1;color:#bebebe;fill:#ffffff;fill-opacity:1;fill-rule:nonzero;stroke:none;stroke-width:0;marker:none;visibility:visible;display:inline;overflow:visible;enable-background:accumulate"
         d="m 302.5,201 c -6.3883,0 -11.5,-5.1117 -11.5,-11.5 l 0,-1 c 0,6.3883 5.1117,11.5 11.5,11.5 l 35,0 c 6.3883,0 11.5,-5.1117 11.5,-11.5 l 0,1 c 0,6.3883 -5.1117,11.5 -11.5,11.5 l -35,0 z"
         id="path4296"
         inkscape:connector-curvature="0" />
      <path
         style="opacity:0.1;color:#bebebe;fill:#ffffff;fill-opacity:1;fill-rule:nonzero;stroke:none;stroke-width:0;marker:none;visibility:visible;display:inline;overflow:visible;enable-background:accumulate"
         d="m 310,119 c -9.4353,0 -17,-7.5647 -17,-17 l 0,-1 c 0,9.4353 7.5647,17 17,17 l 52,0 c 9.4353,0 17,-7.5647 17,-17 l 0,1 c 0,9.4353 -7.5647,17 -17,17 l -52,0 z"
         id="path4298"
         inkscape:connector-curvature="0" />
      <path
         style="opacity:0.1;color:#bebebe;fill:#ffffff;fill-opacity:1;fill-rule:nonzero;stroke:none;stroke-width:0;marker:none;visibility:visible;display:inline;overflow:visible;enable-background:accumulate"
         d="m 424,82 c -3.3413,0 -6,-2.658703 -6,-6 l 0,-1 c 0,3.341297 2.6587,6 6,6 l 16,0 c 3.3413,0 6,-2.658703 6,-6 l 0,1 c 0,3.341297 -2.6587,6 -6,6 l -16,0 z"
         id="path4300"
         inkscape:connector-curvature="0" />
      <path
         style="opacity:0.1;color:#bebebe;fill:#ffffff;fill-opacity:1;fill-rule:nonzero;stroke:none;stroke-width:0;marker:none;visibility:visible;display:inline;overflow:visible;enable-background:accumulate"
         d="m 422,122 c -2.2333,0 -4,-1.7667 -4,-4 l 0,-1 c 0,2.2333 1.7667,4 4,4 l 12,0 c 2.2333,0 4,-1.7667 4,-4 l 0,1 c 0,2.2333 -1.7667,4 -4,4 l -12,0 z"
         id="path4302"
         inkscape:connector-curvature="0" />
      <path
         style="opacity:0.1;color:#bebebe;fill:#ffffff;fill-opacity:1;fill-rule:nonzero;stroke:none;stroke-width:0;marker:none;visibility:visible;display:inline;overflow:visible;enable-background:accumulate"
         d="m 419,154.5 c -1.1253,0 -2,-0.8747 -2,-2 l 0,-1 c 0,1.1253 0.8747,2 2,2 l 10,0 c 1.1253,0 2,-0.8747 2,-2 l 0,1 c 0,1.1253 -0.8747,2 -2,2 l -10,0 z"
         id="path4304"
         inkscape:connector-curvature="0" />
    </g>
    <g
       inkscape:groupmode="layer"
       id="layer3"
       inkscape:label="Border"
       style="display:inline"
       sodipodi:insensitive="true">
      <path
         style="opacity:0.41000001;color:#bebebe;fill:#000000;fill-opacity:1;fill-rule:nonzero;stroke:none;stroke-width:0;marker:none;visibility:visible;display:inline;overflow:visible;enable-background:accumulate"
         d="m 422,101 c -2.77,0 -5,2.23 -5,5 l 0,12 c 0,2.77 2.23,5 5,5 l 12,0 c 2.77,0 5,-2.23 5,-5 l 0,-12 c 0,-2.77 -2.23,-5 -5,-5 l -12,0 z m 0,1 12,0 c 2.2333,0 4,1.7667 4,4 l 0,12 c 0,2.2333 -1.7667,4 -4,4 l -12,0 c -2.2333,0 -4,-1.7667 -4,-4 l 0,-12 c 0,-2.2333 1.7667,-4 4,-4 z"
         id="rect4099"
         inkscape:connector-curvature="0" />
      <path
         style="opacity:0.41000001;color:#bebebe;fill:#000000;fill-opacity:1;fill-rule:nonzero;stroke:none;stroke-width:0;marker:none;visibility:visible;display:inline;overflow:visible;enable-background:accumulate"
         d="m 424,53 c -3.878,0 -7,3.122 -7,7 l 0,16 c 0,3.878 3.122,7 7,7 l 16,0 c 3.878,0 7,-3.122 7,-7 l 0,-16 c 0,-3.878 -3.122,-7 -7,-7 l -16,0 z m 0,1 16,0 c 3.3413,0 6,2.658703 6,6 l 0,16 c 0,3.341297 -2.6587,6 -6,6 l -16,0 c -3.3413,0 -6,-2.658703 -6,-6 l 0,-16 c 0,-3.341297 2.6587,-6 6,-6 z"
         id="rect4151"
         inkscape:connector-curvature="0" />
      <path
         style="opacity:0.41000001;color:#bebebe;fill:#000000;fill-opacity:1;fill-rule:nonzero;stroke:none;stroke-width:0;marker:none;visibility:visible;display:inline;overflow:visible;enable-background:accumulate"
         d="m 419,140 c -1.662,0 -3,1.338 -3,3 l 0,10 c 0,1.662 1.338,3 3,3 l 10,0 c 1.662,0 3,-1.338 3,-3 l 0,-10 c 0,-1.662 -1.338,-3 -3,-3 l -10,0 z m 0,1 10,0 c 1.1253,0 2,0.8747 2,2 l 0,10 c 0,1.1253 -0.8747,2 -2,2 l -10,0 c -1.1253,0 -2,-0.8747 -2,-2 l 0,-10 c 0,-1.1253 0.8747,-2 2,-2 z"
         id="rect4095"
         inkscape:connector-curvature="0" />
      <path
         style="opacity:0.41000001;color:#bebebe;fill:#000000;fill-opacity:1;fill-rule:nonzero;stroke:none;stroke-width:0;marker:none;visibility:visible;display:inline;overflow:visible;enable-background:accumulate"
         d="m 300,223 c -4.986,0 -9,4.014 -9,9 l 0,24 c 0,4.986 4.014,9 9,9 l 24,0 c 4.986,0 9,-4.014 9,-9 l 0,-24 c 0,-4.986 -4.014,-9 -9,-9 l -24,0 z m 0,1 24,0 c 4.4493,0 8,3.5507 8,8 l 0,24 c 0,4.4493 -3.5507,8 -8,8 l -24,0 c -4.4493,0 -8,-3.5507 -8,-8 l 0,-24 c 0,-4.4493 3.5507,-8 8,-8 z"
         id="rect4783"
         inkscape:connector-curvature="0" />
      <path
         style="opacity:0.41000001;color:#bebebe;fill:#000000;fill-opacity:1;fill-rule:nonzero;stroke:none;stroke-width:0;marker:none;visibility:visible;display:inline;overflow:visible;enable-background:accumulate"
         d="m 302.5,142 c -6.925,0 -12.5,5.575 -12.5,12.5 l 0,35 c 0,6.925 5.575,12.5 12.5,12.5 l 35,0 c 6.925,0 12.5,-5.575 12.5,-12.5 l 0,-35 c 0,-6.925 -5.575,-12.5 -12.5,-12.5 l -35,0 z m 0,1 35,0 c 6.3883,0 11.5,5.1117 11.5,11.5 l 0,35 c 0,6.3883 -5.1117,11.5 -11.5,11.5 l -35,0 c -6.3883,0 -11.5,-5.1117 -11.5,-11.5 l 0,-35 c 0,-6.3883 5.1117,-11.5 11.5,-11.5 z"
         id="rect4515"
         inkscape:connector-curvature="0" />
      <path
         style="opacity:0.41000001;color:#bebebe;fill:#000000;fill-opacity:1;fill-rule:nonzero;stroke:none;stroke-width:0;marker:none;visibility:visible;display:inline;overflow:visible;enable-background:accumulate"
         d="m 310,32 c -9.972,0 -18,8.028 -18,18 l 0,52 c 0,9.972 8.028,18 18,18 l 52,0 c 9.972,0 18,-8.028 18,-18 l 0,-52 c 0,-9.972 -8.028,-18 -18,-18 l -52,0 z m 0,1 52,0 c 9.4353,0 17,7.564703 17,17 l 0,52 c 0,9.4353 -7.5647,17 -17,17 l -52,0 c -9.4353,0 -17,-7.5647 -17,-17 l 0,-52 c 0,-9.435297 7.5647,-17 17,-17 z"
         id="rect4511"
         inkscape:connector-curvature="0" />
      <path
         style="opacity:0.41000001;color:#bebebe;fill:#000000;fill-opacity:1;fill-rule:nonzero;stroke:none;stroke-width:0;marker:none;visibility:visible;display:inline;overflow:visible;enable-background:accumulate"
         d="M 84,46 C 56.3,46 34,68.3 34,96 l 0,120 c 0,27.7 22.3,50 50,50 l 120,0 c 27.7,0 50,-22.3 50,-50 L 254,96 C 254,68.3 231.7,46 204,46 L 84,46 z m 0,1 120,0 c 27.1633,0 49,21.836703 49,49 l 0,120 c 0,27.1633 -21.8367,49 -49,49 L 84,265 C 56.836703,265 35,243.1633 35,216 L 35,96 C 35,68.836703 56.836703,47 84,47 z"
         id="rect4040"
         inkscape:connector-curvature="0" />
    </g>
  </g>
</svg>
