<?xml version="1.0" encoding="UTF-8" standalone="no"?>
<!-- Created with Inkscape (http://www.inkscape.org/) -->

<svg
   xmlns:dc="http://purl.org/dc/elements/1.1/"
   xmlns:cc="http://creativecommons.org/ns#"
   xmlns:rdf="http://www.w3.org/1999/02/22-rdf-syntax-ns#"
   xmlns:svg="http://www.w3.org/2000/svg"
   xmlns="http://www.w3.org/2000/svg"
   xmlns:xlink="http://www.w3.org/1999/xlink"
   xmlns:sodipodi="http://sodipodi.sourceforge.net/DTD/sodipodi-0.dtd"
   xmlns:inkscape="http://www.inkscape.org/namespaces/inkscape"
   inkscape:export-ydpi="90.000000"
   inkscape:export-xdpi="90.000000"
   width="480"
   height="300"
   id="svg11300"
   sodipodi:version="0.32"
   inkscape:version="0.92.0 r"
   sodipodi:docname="weka.svg"
   inkscape:output_extension="org.inkscape.output.svg.inkscape"
   version="1.0"
   style="display:inline;enable-background:new"
   inkscape:export-filename="/home/sam/moka-next-template.png">
  <sodipodi:namedview
     stroke="#ef2929"
     fill="#f57900"
     id="base"
     pagecolor="#777777"
     bordercolor="#666666"
     borderopacity="0.25490196"
     inkscape:pageopacity="0"
     inkscape:pageshadow="2"
     inkscape:zoom="1"
     inkscape:cx="202.0964"
     inkscape:cy="145.16865"
     inkscape:current-layer="layer7"
     showgrid="false"
     inkscape:grid-bbox="true"
     inkscape:document-units="px"
     inkscape:showpageshadow="false"
     inkscape:window-width="1364"
     inkscape:window-height="700"
     inkscape:window-x="0"
     inkscape:window-y="28"
     width="400px"
     height="300px"
     inkscape:snap-nodes="true"
     inkscape:snap-bbox="true"
     gridtolerance="10000"
     inkscape:object-nodes="true"
     inkscape:snap-grids="true"
     showguides="true"
     inkscape:guide-bbox="true"
     inkscape:window-maximized="1"
     inkscape:bbox-nodes="true"
     inkscape:bbox-paths="true"
     inkscape:snap-bbox-edge-midpoints="true"
     inkscape:snap-bbox-midpoints="true">
    <inkscape:grid
       spacingy="1"
       spacingx="1"
       id="grid5883"
       type="xygrid"
       enabled="true"
       visible="true"
       empspacing="4"
       snapvisiblegridlinesonly="true"
       dotted="false"
       color="#000000"
       opacity="0.1254902"
       empcolor="#203ef3"
       empopacity="0.36470588"
       originx="0"
       originy="0" />
    <inkscape:grid
       type="xygrid"
       id="grid11592"
       empspacing="8"
       visible="true"
       enabled="false"
       spacingx="0.5"
       spacingy="0.5"
       color="#ff0000"
       opacity="0.1254902"
       empcolor="#ff0000"
       empopacity="0.25098039"
       snapvisiblegridlinesonly="true"
       dotted="true"
       originx="0"
       originy="0" />
  </sodipodi:namedview>
  <defs
     id="defs3">
    <linearGradient
       id="linearGradient5530">
      <stop
         style="stop-color:#2a1b58;stop-opacity:1"
         offset="0"
         id="stop5526" />
      <stop
         style="stop-color:#4a7ecb;stop-opacity:1"
         offset="1"
         id="stop5528" />
    </linearGradient>
    <linearGradient
       inkscape:collect="always"
       xlink:href="#linearGradient5530"
       id="linearGradient4254"
       x1="35"
       y1="156"
       x2="253"
       y2="156"
       gradientUnits="userSpaceOnUse"
       gradientTransform="rotate(-90,144,156)" />
    <linearGradient
       inkscape:collect="always"
       xlink:href="#linearGradient5530"
       id="linearGradient4256"
       x1="417"
       y1="148"
       x2="431"
       y2="148"
       gradientUnits="userSpaceOnUse"
       gradientTransform="rotate(-90,424,148)" />
    <linearGradient
       inkscape:collect="always"
       xlink:href="#linearGradient5530"
       id="linearGradient4260"
       x1="418"
       y1="68"
       x2="446"
       y2="68"
       gradientUnits="userSpaceOnUse"
       gradientTransform="rotate(-90,432,68)" />
    <linearGradient
       inkscape:collect="always"
       xlink:href="#linearGradient5530"
       id="linearGradient4262"
       x1="292"
       y1="244"
       x2="332"
       y2="244"
       gradientUnits="userSpaceOnUse"
       gradientTransform="rotate(-90,312,244)" />
    <linearGradient
       inkscape:collect="always"
       xlink:href="#linearGradient5530"
       id="linearGradient4264"
       x1="293"
       y1="76"
       x2="379"
       y2="76"
       gradientUnits="userSpaceOnUse"
       gradientTransform="rotate(-90,336,76)" />
    <linearGradient
       inkscape:collect="always"
       xlink:href="#linearGradient5530"
       id="linearGradient4266"
       x1="291"
       y1="172"
       x2="349"
       y2="172"
       gradientUnits="userSpaceOnUse"
       gradientTransform="rotate(-90,320,172)" />
    <linearGradient
       inkscape:collect="always"
       xlink:href="#linearGradient5530"
       id="linearGradient3870"
       gradientUnits="userSpaceOnUse"
       gradientTransform="rotate(-90,428,112)"
       x1="418"
       y1="112"
       x2="438"
       y2="112" />
  </defs>
  <metadata
     id="metadata4">
    <rdf:RDF>
      <cc:Work
         rdf:about="">
        <dc:format>image/svg+xml</dc:format>
        <dc:type
           rdf:resource="http://purl.org/dc/dcmitype/StillImage" />
        <dc:creator>
          <cc:Agent>
            <dc:title>Alfredo Hernández</dc:title>
          </cc:Agent>
        </dc:creator>
        <dc:source />
        <cc:license
           rdf:resource="" />
        <dc:title></dc:title>
        <dc:subject>
          <rdf:Bag />
        </dc:subject>
        <dc:date />
        <dc:rights>
          <cc:Agent>
            <dc:title />
          </cc:Agent>
        </dc:rights>
        <dc:publisher>
          <cc:Agent>
            <dc:title />
          </cc:Agent>
        </dc:publisher>
        <dc:identifier />
        <dc:relation />
        <dc:language />
        <dc:coverage />
        <dc:description />
        <dc:contributor>
          <cc:Agent>
            <dc:title />
          </cc:Agent>
        </dc:contributor>
      </cc:Work>
      <cc:Work
         rdf:about="">
        <dc:format>image/svg+xml</dc:format>
        <dc:type
           rdf:resource="http://purl.org/dc/dcmitype/StillImage" />
      </cc:Work>
    </rdf:RDF>
  </metadata>
  <g
     style="display:inline"
     inkscape:groupmode="layer"
     inkscape:label="Icon"
     id="layer1">
    <g
       style="display:none"
       inkscape:label="Baseplate"
       id="layer7"
       inkscape:groupmode="layer"
       sodipodi:insensitive="true">
      <text
         y="19.745117"
         xml:space="preserve"
         x="15.006836"
         style="font-style:normal;font-variant:normal;font-weight:normal;font-stretch:normal;font-size:18px;font-family:'DejaVu Sans';-inkscape-font-specification:'DejaVu Sans';display:inline;fill:#000000;fill-opacity:1;stroke:none;enable-background:new"
         inkscape:label="context"
         id="context"><tspan
           style="font-style:normal;font-variant:normal;font-weight:normal;font-stretch:normal;font-family:'DejaVu Sans';-inkscape-font-specification:'DejaVu Sans'"
           y="19.745117"
           x="15.006836"
           sodipodi:role="line"
           id="tspan3933">apps</tspan></text>
      <text
         y="19.745117"
         xml:space="preserve"
         x="122.48828"
         style="font-style:normal;font-variant:normal;font-weight:bold;font-stretch:normal;font-size:18px;line-height:125%;font-family:'DejaVu Sans';-inkscape-font-specification:'DejaVu Sans Bold';text-align:start;writing-mode:lr-tb;text-anchor:start;display:inline;fill:#000000;fill-opacity:1;stroke:none;enable-background:new"
         inkscape:label="icon-name"
         id="icon-name"><tspan
           style="font-style:normal;font-variant:normal;font-weight:bold;font-stretch:normal;font-size:18px;font-family:'DejaVu Sans';-inkscape-font-specification:'DejaVu Sans Bold'"
           y="19.745117"
           x="122.48828"
           sodipodi:role="line"
           id="tspan3937">weka</tspan></text>
      <rect
         style="display:inline;overflow:visible;visibility:visible;fill:#eeeeec;fill-opacity:1;fill-rule:nonzero;stroke:none;stroke-width:2;marker:none;enable-background:accumulate"
         id="rect16x16"
         width="16"
         height="16"
         x="416"
         y="140"
         inkscape:label="16x16" />
      <rect
         style="display:inline;overflow:visible;visibility:visible;fill:#d4d4d4;fill-opacity:1;fill-rule:nonzero;stroke:none;stroke-width:2;marker:none;enable-background:accumulate"
         id="rect24x24"
         width="24"
         height="24"
         x="416"
         y="100"
         inkscape:label="24x24" />
      <rect
         style="display:inline;overflow:visible;visibility:visible;fill:#eeeeec;fill-opacity:1;fill-rule:nonzero;stroke:none;stroke-width:2;marker:none;enable-background:accumulate"
         id="rect32x32"
         width="32"
         height="32"
         x="416"
         y="52"
         inkscape:label="32x32" />
      <rect
         inkscape:label="22x22"
         y="101"
         x="417"
         height="22"
         width="22"
         id="rect22x22"
         style="display:inline;overflow:visible;visibility:visible;fill:#eeeeec;fill-opacity:1;fill-rule:nonzero;stroke:none;stroke-width:2;marker:none;enable-background:accumulate" />
      <rect
         inkscape:label="48x48"
         y="220"
         x="288"
         height="48"
         width="48"
         id="rect48x48"
         style="display:inline;overflow:visible;visibility:visible;fill:#eeeeec;fill-opacity:1;fill-rule:nonzero;stroke:none;stroke-width:2;marker:none;enable-background:accumulate" />
      <rect
         style="display:inline;overflow:visible;visibility:visible;fill:#eeeeec;fill-opacity:1;fill-rule:nonzero;stroke:none;stroke-width:2;marker:none;enable-background:accumulate"
         id="rect256x256"
         width="256"
         height="256"
         x="16"
         y="28"
         inkscape:label="256x256" />
      <rect
         style="display:inline;overflow:visible;visibility:visible;fill:#eeeeec;fill-opacity:1;fill-rule:nonzero;stroke:none;stroke-width:2;marker:none;enable-background:accumulate"
         id="rect64x64"
         width="64"
         height="64"
         x="288"
         y="140"
         inkscape:label="64x64" />
      <rect
         style="display:inline;overflow:visible;visibility:visible;fill:#eeeeec;fill-opacity:1;fill-rule:nonzero;stroke:none;stroke-width:2;marker:none;enable-background:accumulate"
         id="rect96x96"
         width="96"
         height="96"
         x="288"
         y="28"
         inkscape:label="96x96" />
    </g>
    <g
       inkscape:groupmode="layer"
       id="layer4"
       inkscape:label="Shadow"
       style="display:inline"
       sodipodi:insensitive="true">
      <rect
         ry="50"
         y="47"
         x="34"
         height="220"
         width="220"
         id="rect4114"
         style="opacity:0.1;color:#bebebe;fill:#000000;fill-opacity:1;fill-rule:nonzero;stroke:none;stroke-width:0;marker:none;visibility:visible;display:inline;overflow:visible;enable-background:accumulate" />
      <rect
         style="opacity:0.1;color:#bebebe;fill:#000000;fill-opacity:1;fill-rule:nonzero;stroke:none;stroke-width:0;marker:none;visibility:visible;display:inline;overflow:visible;enable-background:accumulate"
         id="rect4120"
         width="30"
         height="30"
         x="417"
         y="54"
         ry="7" />
      <rect
         transform="scale(1,-1)"
         ry="9"
         y="-266"
         x="291"
         height="42"
         width="42"
         id="rect4122"
         style="opacity:0.1;color:#bebebe;fill:#000000;fill-opacity:1;fill-rule:nonzero;stroke:none;stroke-width:0;marker:none;visibility:visible;display:inline;overflow:visible;enable-background:accumulate" />
      <rect
         style="opacity:0.1;color:#bebebe;fill:#000000;fill-opacity:1;fill-rule:nonzero;stroke:none;stroke-width:0;marker:none;visibility:visible;display:inline;overflow:visible;enable-background:accumulate"
         id="rect4124"
         width="88"
         height="88"
         x="292"
         y="33"
         ry="18" />
      <rect
         ry="12.5"
         y="143"
         x="290"
         height="60"
         width="60"
         id="rect4126"
         style="opacity:0.1;color:#bebebe;fill:#000000;fill-opacity:1;fill-rule:nonzero;stroke:none;stroke-width:0;marker:none;visibility:visible;display:inline;overflow:visible;enable-background:accumulate" />
      <path
         id="path4268"
         d="m 422,101 c -2.77,0 -5,2.23 -5,5 l 0,12 c 0,2.77 2.23,5 5,5 l 12,0 c 2.77,0 5,-2.23 5,-5 l 0,-12 c 0,-2.77 -2.23,-5 -5,-5 z"
         style="opacity:0.1;color:#bebebe;fill:#000000;fill-opacity:1;fill-rule:nonzero;stroke:none;stroke-width:0;marker:none;visibility:visible;display:inline;overflow:visible;enable-background:accumulate"
         inkscape:connector-curvature="0"
         sodipodi:nodetypes="sssssssss" />
      <path
         id="path4270"
         d="m 419,140 c -1.662,0 -3,1.338 -3,3 l 0,10 c 0,1.662 1.338,3 3,3 l 10,0 c 1.662,0 3,-1.338 3,-3 l 0,-10 c 0,-1.662 -1.338,-3 -3,-3 z"
         style="opacity:0.1;color:#bebebe;fill:#000000;fill-opacity:1;fill-rule:nonzero;stroke:none;stroke-width:0;marker:none;visibility:visible;display:inline;overflow:visible;enable-background:accumulate"
         inkscape:connector-curvature="0"
         sodipodi:nodetypes="sssssssss" />
    </g>
    <g
       inkscape:groupmode="layer"
       id="layer2"
       inkscape:label="Background"
       style="display:inline">
      <path
         style="color:#bebebe;fill:url(#linearGradient4254);fill-opacity:1.0;fill-rule:nonzero;stroke:none;stroke-width:2;marker:none;visibility:visible;display:inline;overflow:visible;enable-background:accumulate"
         d="M 84 46.5 C 56.568735 46.5 34.5 68.568732 34.5 96 L 34.5 216 C 34.5 243.43127 56.568735 265.5 84 265.5 L 204 265.5 C 231.43127 265.5 253.5 243.43127 253.5 216 L 253.5 96 C 253.5 68.568732 231.43127 46.5 204 46.5 L 84 46.5 z "
         id="path4200" />
      <path
         style="color:#bebebe;fill:url(#linearGradient4256);fill-opacity:1.0;fill-rule:nonzero;stroke:none;stroke-width:2;marker:none;visibility:visible;display:inline;overflow:visible;enable-background:accumulate"
         d="M 419 140.5 C 417.6156 140.5 416.5 141.6156 416.5 143 L 416.5 153 C 416.5 154.3844 417.6156 155.5 419 155.5 L 429 155.5 C 430.3844 155.5 431.5 154.3844 431.5 153 L 431.5 143 C 431.5 141.6156 430.3844 140.5 429 140.5 L 419 140.5 z "
         id="path4202" />
      <path
         style="color:#bebebe;fill:url(#linearGradient3870);fill-opacity:1.0;fill-rule:nonzero;stroke:none;stroke-width:2;marker:none;visibility:visible;display:inline;overflow:visible;enable-background:accumulate"
         d="M 422 101.5 C 419.50301 101.5 417.5 103.50301 417.5 106 L 417.5 118 C 417.5 120.49699 419.50301 122.5 422 122.5 L 434 122.5 C 436.49699 122.5 438.5 120.49699 438.5 118 L 438.5 106 C 438.5 103.50301 436.49699 101.5 434 101.5 L 422 101.5 z "
         id="path4204" />
      <path
         style="color:#bebebe;fill:url(#linearGradient4260);fill-opacity:1.0;fill-rule:nonzero;stroke:none;stroke-width:2;marker:none;visibility:visible;display:inline;overflow:visible;enable-background:accumulate"
         d="M 424 53.5 C 420.39346 53.5 417.5 56.393464 417.5 60 L 417.5 76 C 417.5 79.606536 420.39346 82.5 424 82.5 L 440 82.5 C 443.60654 82.5 446.5 79.606536 446.5 76 L 446.5 60 C 446.5 56.393464 443.60654 53.5 440 53.5 L 424 53.5 z "
         id="path4206" />
      <path
         style="color:#bebebe;fill:url(#linearGradient4262);fill-opacity:1.0;fill-rule:nonzero;stroke:none;stroke-width:2;marker:none;visibility:visible;display:inline;overflow:visible;enable-background:accumulate"
         d="M 300 223.5 C 295.28469 223.5 291.5 227.28469 291.5 232 L 291.5 256 C 291.5 260.71531 295.28469 264.5 300 264.5 L 324 264.5 C 328.71531 264.5 332.5 260.71531 332.5 256 L 332.5 232 C 332.5 227.28469 328.71531 223.5 324 223.5 L 300 223.5 z "
         id="path4208" />
      <path
         style="color:#bebebe;fill:url(#linearGradient4264);fill-opacity:1.0;fill-rule:nonzero;stroke:none;stroke-width:2;marker:none;visibility:visible;display:inline;overflow:visible;enable-background:accumulate"
         d="M 310 32.5 C 300.29745 32.5 292.5 40.297452 292.5 50 L 292.5 102 C 292.5 111.70255 300.29745 119.5 310 119.5 L 362 119.5 C 371.70255 119.5 379.5 111.70255 379.5 102 L 379.5 50 C 379.5 40.297452 371.70255 32.5 362 32.5 L 310 32.5 z "
         id="path4210" />
      <path
         style="color:#bebebe;fill:url(#linearGradient4266);fill-opacity:1.0;fill-rule:nonzero;stroke:none;stroke-width:2;marker:none;visibility:visible;display:inline;overflow:visible;enable-background:accumulate"
         d="M 302.5 142.5 C 295.84498 142.5 290.5 147.84498 290.5 154.5 L 290.5 189.5 C 290.5 196.15502 295.84498 201.5 302.5 201.5 L 337.5 201.5 C 344.15502 201.5 349.5 196.15502 349.5 189.5 L 349.5 154.5 C 349.5 147.84498 344.15502 142.5 337.5 142.5 L 302.5 142.5 z "
         id="path4212" />
    </g>
    <g
       inkscape:groupmode="layer"
       id="layer6"
       inkscape:label="Symbols"
       style="display:inline">
      <path
         sodipodi:nodetypes="cscscccsccsscscccccsccsssccssccsccccscsssscssssssccccscc"
         style="opacity:0.2;fill:#000000;fill-opacity:1;stroke-width:0.69151282"
         d="m 160.46838,220.00675 c 0.91141,-0.66558 2.25509,-1.54212 2.98597,-1.94787 2.27539,-1.2632 2.84648,-2.77747 1.79115,-4.74936 -0.52212,-0.97559 -1.51909,-1.7738 -2.21548,-1.7738 -0.6964,0 -1.2686,-0.23339 -1.27157,-0.51864 -0.0138,-1.32263 -4.40095,-2.49972 -10.71305,-2.8743 l -6.91513,-0.41038 -1.16313,-2.4203 c -3.11585,-6.48359 -4.24187,-15.08955 -2.44293,-18.67084 0.47763,-0.95083 2.37529,-2.74012 4.21704,-3.9762 5.49122,-3.6854 9.93159,-2.87116 11.1587,2.04617 0.64577,2.58774 2.10728,3.73059 3.3994,2.65822 0.71113,-0.59018 1.37516,-0.61968 2.33894,-0.10388 1.85383,0.99215 2.20009,2.20497 2.20009,7.70606 0,4.23221 0.17244,4.85052 1.55591,5.57907 0.85574,0.45066 1.77905,1.16176 2.05177,1.58024 0.95945,1.47219 3.4421,-2.03836 3.82142,-5.40358 0.31105,-2.75964 0.0508,-3.70748 -1.8639,-6.78753 -2.90823,-4.67837 -5.69959,-12.15847 -5.16533,-13.84175 0.2697,-0.84978 3.47034,-2.81216 8.86611,-5.43604 10.08649,-4.90489 15.54335,-9.48336 20.19183,-16.94155 4.08123,-6.54806 5.23102,-10.36279 5.22117,-17.32257 -0.006,-4.43082 -0.38904,-6.59322 -1.78444,-10.08119 -0.97706,-2.44224 -1.77646,-5.06193 -1.77646,-5.82155 0,-1.58148 2.13197,-3.73168 5.2724,-5.31748 2.99975,-1.51475 10.90829,-2.67539 14.52968,-2.13232 1.65982,0.2489 4.41816,0.24256 6.12965,-0.0141 2.86986,-0.43036 3.11181,-0.62341 3.11181,-2.48287 0,-2.43066 -1.39769,-3.44728 -7.57305,-5.5083 -5.49097,-1.83261 -7.36962,-2.78851 -13.51809,-6.878305 -2.66233,-1.77091 -7.08142,-3.96878 -9.82022,-4.88417 -4.63972,-1.55073 -5.27695,-1.60443 -9.33542,-0.78673 -5.58457,1.12519 -10.24626,4.24183 -13.37696,8.943365 -3.86976,5.8114 -7.13165,9.04819 -9.89065,9.81452 -1.3888,0.38575 -4.98098,0.7031 -7.98264,0.70522 -7.07612,0.005 -15.80397,2.4965 -23.58599,6.73299 -6.32156,3.44145 -8.34335,4.33508 -9.80776,4.33508 -2.05288,0 -3.98338,1.08177 -7.52055,4.21417 -1.54359,1.36696 -4.81099,3.23404 -7.26088,4.14907 -3.6529,1.36436 -5.363705,2.59685 -9.508474,6.85005 -5.034953,5.16667 -7.449799,8.91984 -9.121061,14.17601 -2.086018,6.56061 -6.198611,12.47318 -15.414472,22.16102 -3.122623,3.28253 -5.833671,6.58377 -6.024549,7.33609 -0.683796,2.69503 0.0794,7.49883 1.191366,7.49883 1.342966,0 5.682596,-2.73139 12.450267,-7.83627 5.862943,-4.42244 7.597637,-5.28008 13.46197,-6.65557 6.167534,-1.44661 9.016503,-0.3596 20.037083,7.64503 4.22238,3.06687 4.59998,3.19641 10.60194,3.63697 5.25293,0.38559 6.65503,0.75699 8.98966,2.3813 2.40696,1.67462 2.82837,2.36952 3.24607,5.3527 0.26401,1.88553 0.69276,4.46996 0.95279,5.74318 0.27078,1.3259 0.10713,3.42283 -0.38303,4.90806 -0.82281,2.49314 -0.7582,2.72098 1.67622,5.91025 1.81024,2.37154 3.74874,3.89255 6.8002,5.33566 2.34748,1.11018 4.70916,2.38774 5.24817,2.83901 2.85119,2.38707 9.4827,3.13104 11.93644,1.33912 z"
         id="path5532"
         inkscape:connector-curvature="0" />
      <path
         sodipodi:nodetypes="cscscccsccsscscccccsccsssccssccsccccscsssscssssssccccscc"
         style="display:inline;opacity:0.2;fill:#000000;fill-opacity:1;stroke-width:0.27660507;enable-background:new"
         d="m 342.58735,103.60275 c 0.36457,-0.26623 0.90204,-0.61684 1.19439,-0.77914 0.91016,-0.50529 1.13859,-1.11099 0.71646,-1.89975 -0.20884,-0.39023 -0.60763,-0.70952 -0.88619,-0.70952 -0.27855,0 -0.50744,-0.0933 -0.50862,-0.20745 -0.006,-0.529057 -1.76039,-0.999887 -4.28523,-1.149728 l -2.76604,-0.16415 -0.46526,-0.968117 c -1.24633,-2.593435 -1.69674,-6.035818 -0.97717,-7.468334 0.19105,-0.380331 0.95012,-1.096048 1.68681,-1.59048 2.19649,-1.47416 3.97264,-1.148463 4.46348,0.818468 0.25831,1.035096 0.84292,1.492236 1.35977,1.063288 0.28445,-0.236072 0.55006,-0.247872 0.93557,-0.04155 0.74153,0.396861 0.88004,0.881989 0.88004,3.082424 0,1.692884 0.069,1.940208 0.62236,2.231628 0.3423,0.180264 0.71162,0.464703 0.82071,0.632096 0.38378,0.588876 1.37684,-0.815344 1.52857,-2.161432 0.12441,-1.103856 0.0203,-1.482992 -0.74557,-2.715011 -1.16329,-1.871347 -2.27983,-4.863386 -2.06613,-5.536698 0.10789,-0.339912 1.38814,-1.124864 3.54645,-2.174415 4.03459,-1.961956 6.21733,-3.793344 8.07673,-6.77662 1.63249,-2.619223 2.0924,-4.145114 2.08846,-6.929026 -0.003,-1.772328 -0.15561,-2.637287 -0.71377,-4.032475 -0.39082,-0.976896 -0.71059,-2.024772 -0.71059,-2.328619 0,-0.632592 0.85279,-1.492673 2.10897,-2.126992 1.19989,-0.605901 4.36331,-1.070157 5.81187,-0.852928 0.66393,0.09956 1.76726,0.09702 2.45185,-0.0057 C 367.90322,60.640374 368,60.563154 368,59.819371 c 0,-0.972264 -0.55907,-1.378912 -3.02922,-2.20332 -2.19639,-0.733044 -2.94784,-1.115404 -5.40724,-2.751321 -1.06493,-0.708364 -2.83257,-1.587512 -3.92808,-1.953668 -1.85589,-0.620291 -2.11079,-0.641772 -3.73417,-0.314692 -2.23383,0.450076 -4.0985,1.696732 -5.35079,3.577344 -1.5479,2.324561 -2.85265,3.619277 -3.95625,3.925809 -0.55553,0.1543 -1.99239,0.281239 -3.19306,0.282087 -2.83044,0.002 -6.32158,0.9986 -9.43439,2.693196 -2.52862,1.37658 -3.33734,1.734032 -3.92311,1.734032 -0.82114,0 -1.59334,0.432708 -3.00821,1.685668 -0.61744,0.546783 -1.9244,1.293615 -2.90435,1.659627 -1.46116,0.545744 -2.14549,1.038739 -3.8034,2.740019 -2.01398,2.066668 -2.97992,3.567936 -3.64842,5.670404 -0.83441,2.624242 -2.47945,4.989271 -6.16578,8.864406 -1.24905,1.313011 -2.33347,2.633506 -2.40983,2.934434 -0.27352,1.078012 0.0317,2.999532 0.47655,2.999532 0.53719,0 2.27304,-1.092557 4.9801,-3.134508 2.34518,-1.768975 3.03906,-2.112031 5.38479,-2.662227 2.46702,-0.578643 3.6066,-0.143839 8.01483,3.058011 1.68896,1.226747 1.84,1.278563 4.24078,1.454788 2.10117,0.154236 2.66202,0.302795 3.59586,0.952519 0.96279,0.669848 1.13135,0.947808 1.29843,2.14108 0.10561,0.754212 0.2771,1.787984 0.38112,2.297272 0.10831,0.530359 0.0429,1.369131 -0.15322,1.963223 -0.32912,0.997256 -0.30327,1.088396 0.6705,2.364097 0.72409,0.948617 1.49948,1.557017 2.72007,2.134257 0.939,0.44408 1.88367,0.9551 2.09928,1.13561 1.14047,0.95483 3.79307,1.25242 4.77456,0.53565 z"
         id="path5534"
         inkscape:connector-curvature="0" />
      <path
         sodipodi:nodetypes="cscscccsccsscscccccsccsssccssccsccccscsssscssssssccccscc"
         style="display:inline;opacity:0.2;fill:#000000;fill-opacity:1;stroke-width:0.20745379;enable-background:new"
         d="m 324.94051,192.70282 c 0.27343,-0.19967 0.67653,-0.46263 0.89579,-0.58435 0.68262,-0.37897 0.85395,-0.83324 0.53735,-1.42481 -0.15663,-0.29268 -0.45572,-0.53214 -0.66464,-0.53214 -0.20892,0 -0.38058,-0.07 -0.38147,-0.15559 -0.005,-0.3968 -1.32029,-0.74992 -3.21392,-0.8623 l -2.07453,-0.12311 -0.34895,-0.72609 c -0.93474,-1.94507 -1.27255,-4.52686 -0.73287,-5.60125 0.14328,-0.28524 0.71259,-0.82203 1.2651,-1.19286 1.64737,-1.10562 2.97948,-0.86135 3.34761,0.61385 0.19374,0.77632 0.63219,1.11918 1.01983,0.79747 0.21334,-0.17706 0.41255,-0.18591 0.70168,-0.0312 0.55615,0.29764 0.66003,0.66149 0.66003,2.31182 0,1.26966 0.0517,1.45515 0.46677,1.67371 0.25672,0.1352 0.53371,0.34853 0.61553,0.47408 0.28784,0.44166 1.03263,-0.61151 1.14643,-1.62107 0.0933,-0.8279 0.0152,-1.11225 -0.55918,-2.03626 -0.87247,-1.40351 -1.70987,-3.64754 -1.5496,-4.15253 0.0809,-0.25493 1.04111,-0.84364 2.65984,-1.63081 3.02594,-1.47146 4.663,-2.84501 6.05755,-5.08247 1.22436,-1.96441 1.5693,-3.10883 1.56634,-5.19676 -0.002,-1.32925 -0.11671,-1.97797 -0.53533,-3.02436 -0.29311,-0.73267 -0.53294,-1.51858 -0.53294,-1.74647 0,-0.47444 0.63959,-1.1195 1.58173,-1.59524 0.89992,-0.45442 3.27248,-0.80261 4.3589,-0.6397 0.49795,0.0747 1.32545,0.0728 1.83889,-0.005 0.86096,-0.1291 0.93355,-0.18702 0.93355,-0.74485 0,-0.7292 -0.41931,-1.03419 -2.27192,-1.65249 -1.64729,-0.54979 -2.21088,-0.83656 -4.05543,-2.06349 -0.7987,-0.53128 -2.12443,-1.19064 -2.94606,-1.46525 -1.39192,-0.46522 -1.58309,-0.48133 -2.80063,-0.23602 -1.67537,0.33755 -3.07387,1.27255 -4.01309,2.683 -1.16092,1.74342 -2.13948,2.71446 -2.96718,2.94436 -0.41665,0.11573 -1.4943,0.21093 -2.3948,0.21157 -2.12283,10e-4 -4.74118,0.74895 -7.07579,2.01989 -1.89647,1.03244 -2.50301,1.30052 -2.94233,1.30052 -0.61586,0 -1.19501,0.32454 -2.25616,1.26426 -0.46308,0.41008 -1.4433,0.97021 -2.17826,1.24472 -1.09587,0.4093 -1.60912,0.77905 -2.85255,2.05501 -1.51049,1.55001 -2.23494,2.67595 -2.73632,4.2528 -0.62581,1.96818 -1.85959,3.74196 -4.62433,6.64831 -0.93679,0.98476 -1.75011,1.97513 -1.80738,2.20082 -0.20514,0.80851 0.0238,2.24965 0.35742,2.24965 0.40289,0 1.70478,-0.81941 3.73507,-2.35087 1.75889,-1.32674 2.2793,-1.58403 4.03859,-1.99668 1.85027,-0.43398 2.70495,-0.10788 6.01113,2.29351 1.26672,0.92006 1.38,0.95892 3.18058,1.09109 1.57588,0.11568 1.99652,0.2271 2.6969,0.71439 0.72209,0.50238 0.84851,0.71085 0.97382,1.60581 0.0792,0.56566 0.20782,1.34099 0.28584,1.72295 0.0812,0.39777 0.0322,1.02685 -0.11492,1.47242 -0.24684,0.74794 -0.22745,0.8163 0.50288,1.77307 0.54307,0.71147 1.12461,1.16777 2.04005,1.6007 0.70425,0.33306 1.41275,0.71632 1.57446,0.85171 0.85535,0.71612 2.8448,0.93931 3.58092,0.40173 z"
         id="path5536"
         inkscape:connector-curvature="0" />
      <path
         sodipodi:nodetypes="cscscccsccsscscccccsccsssccssccsccccscsssscssssssccccscc"
         style="display:inline;opacity:0.2;fill:#000000;fill-opacity:1;stroke-width:0.13830252;enable-background:new"
         d="m 315.29367,257.80156 c 0.18229,-0.13311 0.45102,-0.30842 0.59719,-0.38957 0.45508,-0.25264 0.5693,-0.55549 0.35824,-0.94987 -0.10442,-0.19512 -0.30382,-0.35476 -0.4431,-0.35476 -0.13928,0 -0.25372,-0.0467 -0.25431,-0.10373 -0.003,-0.26453 -0.88019,-0.49994 -2.14261,-0.57486 l -1.38302,-0.0821 -0.23264,-0.48406 c -0.62316,-1.29671 -0.84836,-3.0179 -0.48858,-3.73416 0.0955,-0.19016 0.47506,-0.54802 0.8434,-0.79524 1.09825,-0.73708 1.98632,-0.57424 2.23174,0.40923 0.12916,0.51755 0.42146,0.74612 0.67989,0.53165 0.14223,-0.11804 0.27503,-0.12394 0.46779,-0.0208 0.37076,0.19842 0.44002,0.44099 0.44002,1.54121 0,0.84644 0.0345,0.9701 0.31118,1.11581 0.17114,0.0901 0.3558,0.23235 0.41035,0.31605 0.19189,0.29444 0.68842,-0.40767 0.76429,-1.08071 0.0622,-0.55194 0.0101,-0.7415 -0.37279,-1.35751 -0.58165,-0.93567 -1.13991,-2.43169 -1.03307,-2.76835 0.0539,-0.16996 0.69408,-0.56243 1.77323,-1.08721 2.01729,-0.98097 3.10867,-1.89667 4.03837,-3.38831 0.81624,-1.30961 1.0462,-2.07256 1.04422,-3.46451 -10e-4,-0.88617 -0.0778,-1.31865 -0.35688,-2.01624 -0.19541,-0.48845 -0.3553,-1.01239 -0.3553,-1.16431 0,-0.3163 0.4264,-0.74634 1.05449,-1.0635 0.59995,-0.30294 2.18165,-0.53507 2.90593,-0.42646 0.33197,0.0498 0.88364,0.0485 1.22593,-0.003 0.57397,-0.0861 0.62237,-0.12468 0.62237,-0.49656 0,-0.48614 -0.27954,-0.68946 -1.51462,-1.10166 -1.09819,-0.36653 -1.47392,-0.55771 -2.70362,-1.37566 -0.53246,-0.35419 -1.41628,-0.79376 -1.96404,-0.97684 -0.92794,-0.31014 -1.05539,-0.32088 -1.86708,-0.15734 -1.11692,0.22503 -2.04925,0.84836 -2.6754,1.78866 -0.77394,1.16228 -1.42632,1.80964 -1.97812,1.96291 -0.27776,0.0772 -0.9962,0.14062 -1.59653,0.14105 -1.41522,6.6e-4 -3.16079,0.4993 -4.71719,1.34659 -1.26432,0.68829 -1.66868,0.86701 -1.96156,0.86701 -0.41057,0 -0.79667,0.21636 -1.5041,0.84284 -0.30872,0.27339 -0.9622,0.64681 -1.45218,0.82982 -0.73058,0.27286 -1.07274,0.51936 -1.90169,1.37 -1.007,1.03334 -1.48996,1.78397 -1.82422,2.8352 -0.4172,1.31212 -1.23972,2.49464 -3.08288,4.43221 -0.62453,0.65651 -1.16674,1.31675 -1.20492,1.46721 -0.13676,0.53901 0.0159,1.49977 0.23828,1.49977 0.26859,0 1.13652,-0.54627 2.49004,-1.56725 1.1726,-0.88449 1.51954,-1.05602 2.6924,-1.33112 1.23351,-0.28932 1.8033,-0.0719 4.00741,1.52901 0.84448,0.61337 0.92,0.63928 2.12039,0.72739 1.05059,0.0771 1.33101,0.1514 1.79793,0.47626 0.4814,0.33492 0.56568,0.4739 0.64922,1.07054 0.0528,0.37711 0.13854,0.894 0.19056,1.14864 0.0541,0.26518 0.0215,0.68456 -0.0766,0.98161 -0.16456,0.49863 -0.15163,0.5442 0.33526,1.18205 0.36204,0.47431 0.74974,0.77851 1.36003,1.06713 0.4695,0.22204 0.94183,0.47755 1.04964,0.56781 0.57023,0.47741 1.89653,0.6262 2.38728,0.26782 z"
         id="path5538"
         inkscape:connector-curvature="0" />
      <path
         sodipodi:nodetypes="cscscccsccsscscccccsccsssccssccsccccscsssscssssssccccscc"
         style="display:inline;opacity:0.2;fill:#000000;fill-opacity:1;stroke-width:0.095083;enable-background:new"
         d="m 434.26439,77.863609 c 0.12533,-0.09151 0.31008,-0.212039 0.41057,-0.26783 0.31287,-0.17369 0.39139,-0.381899 0.24629,-0.653036 -0.0718,-0.134145 -0.20888,-0.243897 -0.30463,-0.243897 -0.0958,0 -0.17443,-0.03211 -0.17484,-0.07131 -0.002,-0.181865 -0.60513,-0.343709 -1.47304,-0.395217 l -0.95083,-0.05644 -0.15994,-0.332791 c -0.42842,-0.891488 -0.58325,-2.074807 -0.3359,-2.567235 0.0657,-0.130735 0.32661,-0.376764 0.57984,-0.546728 0.75505,-0.506743 1.36559,-0.39479 1.53432,0.281346 0.0888,0.355815 0.28975,0.512957 0.46743,0.365509 0.0978,-0.08115 0.18908,-0.08521 0.3216,-0.0143 0.2549,0.136414 0.30251,0.303181 0.30251,1.059582 0,0.581928 0.0237,0.666944 0.21394,0.76712 0.11766,0.06194 0.24461,0.15974 0.28212,0.217284 0.13192,0.202428 0.47329,-0.280273 0.52545,-0.742988 0.0428,-0.379459 0.007,-0.509781 -0.2563,-0.933288 -0.39988,-0.643274 -0.78369,-1.671788 -0.71023,-1.903241 0.0371,-0.116848 0.47718,-0.386671 1.21909,-0.747457 1.38689,-0.674417 2.13721,-1.303961 2.77638,-2.329464 0.56117,-0.900357 0.71927,-1.424885 0.7179,-2.381851 -6.8e-4,-0.609242 -0.0535,-0.906572 -0.24535,-1.386165 -0.13435,-0.33581 -0.24427,-0.696019 -0.24427,-0.800464 0,-0.217456 0.29315,-0.513108 0.72496,-0.731156 0.41247,-0.208271 1.49989,-0.367861 1.99783,-0.293191 0.22823,0.03424 0.6075,0.03334 0.84283,-0.0021 0.3946,-0.05919 0.42788,-0.08572 0.42788,-0.341385 0,-0.334221 -0.19219,-0.474004 -1.04131,-0.757391 -0.755,-0.25199 -1.01332,-0.383426 -1.85873,-0.945767 -0.36607,-0.243505 -0.9737,-0.54571 -1.35028,-0.671577 -0.63796,-0.213222 -0.72558,-0.220605 -1.28362,-0.108172 -0.76788,0.154709 -1.40886,0.583248 -1.83934,1.229704 -0.53208,0.799068 -0.98059,1.244128 -1.35996,1.349501 -0.19096,0.05307 -0.68488,0.09668 -1.09761,0.09697 -0.97296,4.54e-4 -2.17304,0.343269 -3.24307,0.925781 -0.86922,0.473199 -1.14722,0.596069 -1.34857,0.596069 -0.28227,0 -0.54771,0.148748 -1.03407,0.579453 -0.21225,0.187956 -0.66151,0.444682 -0.99837,0.570501 -0.50228,0.187592 -0.73751,0.357061 -1.30742,0.941876 -0.69231,0.710421 -1.02434,1.226479 -1.25415,1.9492 -0.28682,0.902083 -0.85231,1.715065 -2.11948,3.047145 -0.42936,0.451351 -0.80213,0.905266 -0.82838,1.008707 -0.094,0.370569 0.0109,1.031092 0.16382,1.031092 0.18465,0 0.78135,-0.375561 1.7119,-1.077484 0.80616,-0.608087 1.04468,-0.726014 1.85102,-0.915146 0.84804,-0.198907 1.23977,-0.04943 2.7551,1.051195 0.58058,0.421692 0.6325,0.439505 1.45777,0.500081 0.72228,0.05301 0.91507,0.104087 1.23607,0.327428 0.33097,0.230258 0.38891,0.325807 0.44634,0.735997 0.0363,0.259263 0.0953,0.614625 0.13101,0.78969 0.0372,0.182311 0.0148,0.470635 -0.0527,0.674857 -0.11313,0.342808 -0.10424,0.374138 0.23049,0.81266 0.24891,0.326088 0.51545,0.535225 0.93502,0.733652 0.32278,0.152652 0.64751,0.328315 0.72163,0.390369 0.39203,0.328219 1.30387,0.430513 1.64126,0.184126 z"
         id="path5540"
         inkscape:connector-curvature="0" />
      <path
         sodipodi:nodetypes="cscscccsccsscscccccsccsssccssccsccccscsssscssssssccccscc"
         style="display:inline;opacity:0.2;fill:#000000;fill-opacity:1;stroke-width:0.06915127;enable-background:new"
         d="m 429.64683,119.90033 c 0.0911,-0.0665 0.22551,-0.15421 0.2986,-0.19479 0.22754,-0.12632 0.28464,-0.27774 0.17912,-0.47494 -0.0522,-0.0975 -0.15192,-0.17738 -0.22155,-0.17738 -0.0697,0 -0.12686,-0.0233 -0.12716,-0.0519 -0.001,-0.13227 -0.44009,-0.24997 -1.0713,-0.28743 l -0.69151,-0.041 -0.11632,-0.24203 c -0.31158,-0.64835 -0.42418,-1.50895 -0.24429,-1.86708 0.0478,-0.0951 0.23753,-0.27401 0.4217,-0.39762 0.54913,-0.36854 0.99315,-0.28712 1.11587,0.20462 0.0646,0.25877 0.21072,0.37306 0.33995,0.26582 0.0711,-0.059 0.13751,-0.062 0.23389,-0.0104 0.18538,0.0992 0.22,0.2205 0.22,0.77061 0,0.42322 0.0172,0.48504 0.1556,0.5579 0.0856,0.045 0.1779,0.11618 0.20518,0.15802 0.0959,0.14722 0.34421,-0.20383 0.38214,-0.54035 0.0311,-0.27597 0.005,-0.37075 -0.1864,-0.67875 -0.29082,-0.46784 -0.56996,-1.21585 -0.51653,-1.38418 0.027,-0.085 0.34704,-0.28121 0.88661,-0.5436 1.00865,-0.49049 1.55434,-0.94834 2.01919,-1.69416 0.40812,-0.65481 0.5231,-1.03628 0.52211,-1.73226 -5e-4,-0.44308 -0.0389,-0.65932 -0.17844,-1.00812 -0.0977,-0.24422 -0.17765,-0.50619 -0.17765,-0.58215 0,-0.15815 0.2132,-0.37317 0.52724,-0.53175 0.29998,-0.15147 1.09083,-0.26754 1.45297,-0.21323 0.16598,0.0249 0.44182,0.0242 0.61297,-10e-4 0.28698,-0.043 0.31118,-0.0623 0.31118,-0.24828 0,-0.24307 -0.13977,-0.34473 -0.75731,-0.55083 -0.5491,-0.18326 -0.73696,-0.27885 -1.35181,-0.68782 -0.26623,-0.1771 -0.70814,-0.39688 -0.98202,-0.48843 -0.46397,-0.15506 -0.52769,-0.16044 -0.93354,-0.0787 -0.55846,0.11251 -1.02463,0.42417 -1.3377,0.89432 -0.38697,0.58114 -0.71316,0.90482 -0.98907,0.98146 -0.13888,0.0386 -0.49809,0.0703 -0.79826,0.0705 -0.7076,3.4e-4 -1.58039,0.24965 -2.35859,0.6733 -0.63216,0.34414 -0.83435,0.4335 -0.98078,0.4335 -0.20529,0 -0.39834,0.10818 -0.75205,0.42142 -0.15437,0.1367 -0.4811,0.32341 -0.72609,0.41492 -0.3653,0.13643 -0.53637,0.25968 -0.95085,0.68499 -0.5035,0.51667 -0.74498,0.89199 -0.91211,1.4176 -0.2086,0.65606 -0.61986,1.24733 -1.54144,2.21611 -0.31226,0.32826 -0.58337,0.65837 -0.60246,0.7336 -0.0684,0.26951 0.008,0.74989 0.11914,0.74989 0.13429,0 0.56826,-0.27314 1.24502,-0.78362 0.5863,-0.44225 0.75977,-0.52801 1.3462,-0.66556 0.61675,-0.14466 0.90165,-0.0359 2.00371,0.7645 0.42224,0.30668 0.46,0.31964 1.06019,0.3637 0.5253,0.0385 0.66551,0.0757 0.89896,0.23813 0.24071,0.16746 0.28285,0.23695 0.32461,0.53527 0.0264,0.18855 0.0693,0.447 0.0953,0.57432 0.0271,0.13259 0.0108,0.34228 -0.0383,0.4908 -0.0823,0.24932 -0.0758,0.2721 0.16763,0.59102 0.18102,0.23716 0.37487,0.38926 0.68001,0.53358 0.23475,0.11101 0.47092,0.23877 0.52482,0.28389 0.28512,0.23871 0.94827,0.31311 1.19365,0.13392 z"
         id="path5542"
         inkscape:connector-curvature="0" />
      <path
         sodipodi:nodetypes="cscscccsccsscscccccsccsssccssccsccccscsssscssssssccccscc"
         style="display:inline;opacity:0.2;fill:#000000;fill-opacity:1;stroke-width:0.05186346;enable-background:new"
         d="m 425.23511,153.92567 c 0.0684,-0.0499 0.16914,-0.11566 0.22395,-0.14609 0.17066,-0.0947 0.21349,-0.20831 0.13434,-0.35621 -0.0392,-0.0732 -0.11393,-0.13303 -0.16616,-0.13303 -0.0523,0 -0.0951,-0.0175 -0.0954,-0.0389 -10e-4,-0.0992 -0.33007,-0.18748 -0.80347,-0.21557 l -0.51864,-0.0308 -0.0872,-0.18152 c -0.23368,-0.48626 -0.31814,-1.13171 -0.18322,-1.40031 0.0358,-0.0713 0.17815,-0.20551 0.31628,-0.29822 0.41184,-0.2764 0.74487,-0.21534 0.8369,0.15347 0.0484,0.19408 0.15805,0.27979 0.25496,0.19937 0.0534,-0.0443 0.10314,-0.0465 0.17542,-0.008 0.13904,0.0744 0.16501,0.16537 0.16501,0.57795 0,0.31742 0.0129,0.36378 0.11669,0.41843 0.0642,0.0338 0.13342,0.0871 0.15388,0.11851 0.072,0.11042 0.25816,-0.15287 0.28661,-0.40526 0.0233,-0.20698 0.004,-0.27806 -0.1398,-0.50906 -0.21811,-0.35088 -0.42746,-0.91189 -0.38739,-1.03814 0.0202,-0.0637 0.26028,-0.21091 0.66495,-0.4077 0.75649,-0.36787 1.16575,-0.71125 1.51439,-1.27062 0.3061,-0.4911 0.39233,-0.77721 0.39158,-1.29919 -3.7e-4,-0.33231 -0.0292,-0.49449 -0.13382,-0.75609 -0.0733,-0.18317 -0.13324,-0.37965 -0.13324,-0.43662 0,-0.11861 0.1599,-0.27987 0.39543,-0.39881 0.22499,-0.1136 0.81812,-0.20065 1.08973,-0.15992 0.12449,0.0187 0.33136,0.0182 0.45972,-10e-4 0.21524,-0.0323 0.23339,-0.0468 0.23339,-0.18621 0,-0.18231 -0.10483,-0.25855 -0.56799,-0.41313 -0.41181,-0.13745 -0.55272,-0.20913 -1.01385,-0.51587 -0.19967,-0.13282 -0.53111,-0.29766 -0.73651,-0.36631 -0.34798,-0.1163 -0.39578,-0.12033 -0.70016,-0.059 -0.41884,0.0844 -0.76847,0.31813 -1.00328,0.67074 -0.29022,0.43586 -0.53486,0.67862 -0.74179,0.73609 -0.10416,0.029 -0.37357,0.0528 -0.5987,0.0529 -0.53071,2.5e-4 -1.18529,0.18724 -1.76895,0.50497 -0.47412,0.25811 -0.62575,0.32513 -0.73558,0.32513 -0.15397,0 -0.29875,0.0811 -0.56404,0.31607 -0.11577,0.10252 -0.36082,0.24255 -0.54457,0.31118 -0.27397,0.10233 -0.40227,0.19476 -0.71313,0.51375 -0.37763,0.3875 -0.55873,0.66899 -0.68409,1.0632 -0.15644,0.49204 -0.46489,0.93549 -1.15608,1.66208 -0.23419,0.24619 -0.43752,0.49378 -0.45184,0.5502 -0.0513,0.20213 0.006,0.56242 0.0894,0.56242 0.10072,0 0.42619,-0.20486 0.93376,-0.58772 0.43972,-0.33169 0.56983,-0.39601 1.00965,-0.49917 0.46257,-0.10849 0.67624,-0.0269 1.50278,0.57338 0.31668,0.23001 0.345,0.23973 0.79515,0.27277 0.39397,0.0289 0.49913,0.0568 0.67422,0.1786 0.18053,0.12559 0.21213,0.17771 0.24346,0.40145 0.0198,0.14142 0.052,0.33525 0.0715,0.43074 0.0203,0.0994 0.008,0.25671 -0.0288,0.3681 -0.0617,0.18699 -0.0569,0.20408 0.12572,0.44327 0.13577,0.17787 0.28116,0.29194 0.51001,0.40017 0.17607,0.0833 0.35319,0.17909 0.39362,0.21293 0.21383,0.17903 0.7112,0.23483 0.89523,0.10044 z"
         id="path5544"
         inkscape:connector-curvature="0" />
      <path
         inkscape:connector-curvature="0"
         id="path5424"
         d="m 160.46838,219.00675 c 0.91141,-0.66558 2.25509,-1.54212 2.98597,-1.94787 2.27539,-1.2632 2.84648,-2.77747 1.79115,-4.74936 -0.52212,-0.97559 -1.51909,-1.7738 -2.21548,-1.7738 -0.6964,0 -1.2686,-0.23339 -1.27157,-0.51864 -0.0138,-1.32263 -4.40095,-2.49972 -10.71305,-2.8743 l -6.91513,-0.41038 -1.16313,-2.4203 c -3.11585,-6.48359 -4.24187,-15.08955 -2.44293,-18.67084 0.47763,-0.95083 2.37529,-2.74012 4.21704,-3.9762 5.49122,-3.6854 9.93159,-2.87116 11.1587,2.04617 0.64577,2.58774 2.10728,3.73059 3.3994,2.65822 0.71113,-0.59018 1.37516,-0.61968 2.33894,-0.10388 1.85383,0.99215 2.20009,2.20497 2.20009,7.70606 0,4.23221 0.17244,4.85052 1.55591,5.57907 0.85574,0.45066 1.77905,1.16176 2.05177,1.58024 0.95945,1.47219 3.4421,-2.03836 3.82142,-5.40358 0.31105,-2.75964 0.0508,-3.70748 -1.8639,-6.78753 -2.90823,-4.67837 -5.69959,-12.15847 -5.16533,-13.84175 0.2697,-0.84978 3.47034,-2.81216 8.86611,-5.43604 10.08649,-4.90489 15.54335,-9.48336 20.19183,-16.94155 4.08123,-6.54806 5.23102,-10.36279 5.22117,-17.32257 -0.006,-4.43082 -0.38904,-6.59322 -1.78444,-10.08119 -0.97706,-2.44224 -1.77646,-5.06193 -1.77646,-5.82155 0,-1.58148 2.13197,-3.73168 5.2724,-5.31748 2.99975,-1.51475 10.90829,-2.67539 14.52968,-2.13232 1.65982,0.2489 4.41816,0.24256 6.12965,-0.0141 2.86986,-0.43036 3.11181,-0.62341 3.11181,-2.48287 0,-2.43066 -1.39769,-3.44728 -7.57305,-5.5083 -5.49097,-1.83261 -7.36962,-2.78851 -13.51809,-6.878308 -2.66233,-1.77091 -7.08142,-3.96878 -9.82022,-4.88417 -4.63972,-1.55073 -5.27695,-1.60443 -9.33542,-0.78673 -5.58457,1.12519 -10.24626,4.24183 -13.37696,8.943368 -3.86976,5.8114 -7.13165,9.04819 -9.89065,9.81452 -1.3888,0.38575 -4.98098,0.7031 -7.98264,0.70522 -7.07612,0.005 -15.80397,2.4965 -23.58599,6.73299 -6.32156,3.44145 -8.34335,4.33508 -9.80776,4.33508 -2.05288,0 -3.98338,1.08177 -7.52055,4.21417 -1.54359,1.36696 -4.81099,3.23404 -7.26088,4.14907 -3.6529,1.36436 -5.363705,2.59685 -9.508474,6.85005 -5.034953,5.16667 -7.449799,8.91984 -9.121061,14.17601 -2.086018,6.56061 -6.198611,12.47318 -15.414472,22.16102 -3.122623,3.28253 -5.833671,6.58377 -6.024549,7.33609 -0.683796,2.69503 0.0794,7.49883 1.191366,7.49883 1.342966,0 5.682596,-2.73139 12.450267,-7.83627 5.862943,-4.42244 7.597637,-5.28008 13.46197,-6.65557 6.167534,-1.44661 9.016503,-0.3596 20.037083,7.64503 4.22238,3.06687 4.59998,3.19641 10.60194,3.63697 5.25293,0.38559 6.65503,0.75699 8.98966,2.3813 2.40696,1.67462 2.82837,2.36952 3.24607,5.3527 0.26401,1.88553 0.69276,4.46996 0.95279,5.74318 0.27078,1.3259 0.10713,3.42283 -0.38303,4.90806 -0.82281,2.49314 -0.7582,2.72098 1.67622,5.91025 1.81024,2.37154 3.74874,3.89255 6.8002,5.33566 2.34748,1.11018 4.70916,2.38774 5.24817,2.83901 2.85119,2.38707 9.4827,3.13104 11.93644,1.33912 z"
         style="fill:#ffffff;fill-opacity:1;stroke-width:0.69151282"
         sodipodi:nodetypes="cscscccsccsscscccccsccsssccssccsccccscsssscssssssccccscc" />
      <path
         inkscape:connector-curvature="0"
         id="path5424-3"
         d="m 342.58735,102.60275 c 0.36457,-0.26623 0.90204,-0.61684 1.19439,-0.77914 0.91016,-0.50529 1.13859,-1.11099 0.71646,-1.899751 -0.20884,-0.39023 -0.60763,-0.70952 -0.88619,-0.70952 -0.27855,0 -0.50744,-0.0933 -0.50862,-0.20745 -0.006,-0.52906 -1.76039,-0.99989 -4.28523,-1.14973 l -2.76604,-0.16415 -0.46526,-0.968117 c -1.24633,-2.593435 -1.69674,-6.035818 -0.97717,-7.468334 0.19105,-0.380331 0.95012,-1.096048 1.68681,-1.59048 2.19649,-1.47416 3.97264,-1.148463 4.46348,0.818468 0.25831,1.035096 0.84292,1.492236 1.35977,1.063288 0.28445,-0.236072 0.55006,-0.247872 0.93557,-0.04155 0.74153,0.396861 0.88004,0.881989 0.88004,3.082424 0,1.692884 0.069,1.940208 0.62236,2.231628 0.3423,0.180264 0.71162,0.464703 0.82071,0.632096 0.38378,0.588876 1.37684,-0.815344 1.52857,-2.161432 0.12441,-1.103856 0.0203,-1.482992 -0.74557,-2.715011 -1.16329,-1.871347 -2.27983,-4.863386 -2.06613,-5.536698 0.10789,-0.339912 1.38814,-1.124864 3.54645,-2.174415 4.03459,-1.961956 6.21733,-3.793344 8.07673,-6.77662 1.63249,-2.619223 2.0924,-4.145114 2.08846,-6.929026 -0.003,-1.772328 -0.15561,-2.637287 -0.71377,-4.032475 -0.39082,-0.976896 -0.71059,-2.024772 -0.71059,-2.328619 0,-0.632592 0.85279,-1.492673 2.10897,-2.126992 1.19989,-0.605901 4.36331,-1.070157 5.81187,-0.852928 0.66393,0.09956 1.76726,0.09702 2.45185,-0.0057 C 367.90322,59.640371 368,59.563151 368,58.819368 c 0,-0.972264 -0.55907,-1.378912 -3.02922,-2.20332 -2.19639,-0.733044 -2.94784,-1.115404 -5.40724,-2.751321 -1.06493,-0.708364 -2.83257,-1.587512 -3.92808,-1.953668 -1.85589,-0.620291 -2.11079,-0.641772 -3.73417,-0.314692 -2.23383,0.450076 -4.0985,1.696732 -5.35079,3.577344 -1.5479,2.324561 -2.85265,3.619277 -3.95625,3.925809 -0.55553,0.1543 -1.99239,0.281239 -3.19306,0.282087 -2.83044,0.002 -6.32158,0.9986 -9.43439,2.693196 -2.52862,1.37658 -3.33734,1.734032 -3.92311,1.734032 -0.82114,0 -1.59334,0.432708 -3.00821,1.685668 -0.61744,0.546783 -1.9244,1.293615 -2.90435,1.659627 -1.46116,0.545744 -2.14549,1.038739 -3.8034,2.740019 -2.01398,2.066668 -2.97992,3.567936 -3.64842,5.670404 -0.83441,2.624242 -2.47945,4.989271 -6.16578,8.864406 -1.24905,1.313011 -2.33347,2.633506 -2.40983,2.934434 -0.27352,1.078012 0.0317,2.999532 0.47655,2.999532 0.53719,0 2.27304,-1.092557 4.9801,-3.134508 2.34518,-1.768975 3.03906,-2.112031 5.38479,-2.662227 2.46702,-0.578643 3.6066,-0.143839 8.01483,3.058011 1.68896,1.226747 1.84,1.278563 4.24078,1.454788 2.10117,0.154236 2.66202,0.302795 3.59586,0.952519 0.96279,0.669848 1.13135,0.947808 1.29843,2.14108 0.10561,0.754212 0.2771,1.787984 0.38112,2.297272 0.10831,0.530359 0.0429,1.369131 -0.15322,1.963223 -0.32912,0.997256 -0.30327,1.088396 0.6705,2.364096 0.72409,0.94862 1.49948,1.557021 2.72007,2.134261 0.939,0.44408 1.88367,0.9551 2.09928,1.13561 1.14047,0.95483 3.79307,1.25242 4.77456,0.53565 z"
         style="display:inline;fill:#ffffff;fill-opacity:1;stroke-width:0.27660507;enable-background:new"
         sodipodi:nodetypes="cscscccsccsscscccccsccsssccssccsccccscsssscssssssccccscc" />
      <path
         inkscape:connector-curvature="0"
         id="path5424-3-6"
         d="m 324.94051,191.70282 c 0.27343,-0.19967 0.67653,-0.46263 0.89579,-0.58435 0.68262,-0.37897 0.85395,-0.83324 0.53735,-1.42481 -0.15663,-0.29268 -0.45572,-0.53214 -0.66464,-0.53214 -0.20892,0 -0.38058,-0.07 -0.38147,-0.15559 -0.005,-0.3968 -1.32029,-0.74992 -3.21392,-0.8623 l -2.07453,-0.12311 -0.34895,-0.72609 c -0.93474,-1.94507 -1.27255,-4.52686 -0.73287,-5.60125 0.14328,-0.28524 0.71259,-0.82203 1.2651,-1.19286 1.64737,-1.10562 2.97948,-0.86135 3.34761,0.61385 0.19374,0.77632 0.63219,1.11918 1.01983,0.79747 0.21334,-0.17706 0.41255,-0.18591 0.70168,-0.0312 0.55615,0.29764 0.66003,0.66149 0.66003,2.31182 0,1.26966 0.0517,1.45515 0.46677,1.67371 0.25672,0.1352 0.53371,0.34853 0.61553,0.47408 0.28784,0.44166 1.03263,-0.61151 1.14643,-1.62107 0.0933,-0.8279 0.0152,-1.11225 -0.55918,-2.03626 -0.87247,-1.40351 -1.70987,-3.64754 -1.5496,-4.15253 0.0809,-0.25493 1.04111,-0.84364 2.65984,-1.63081 3.02594,-1.47146 4.663,-2.84501 6.05755,-5.08247 1.22436,-1.96441 1.5693,-3.10883 1.56634,-5.19676 -0.002,-1.32925 -0.11671,-1.97797 -0.53533,-3.02436 -0.29311,-0.73267 -0.53294,-1.51858 -0.53294,-1.74647 0,-0.47444 0.63959,-1.1195 1.58173,-1.59524 0.89992,-0.45442 3.27248,-0.80261 4.3589,-0.6397 0.49795,0.0747 1.32545,0.0728 1.83889,-0.005 0.86096,-0.1291 0.93355,-0.18702 0.93355,-0.74485 0,-0.7292 -0.41931,-1.03419 -2.27192,-1.65249 -1.64729,-0.54979 -2.21088,-0.83656 -4.05543,-2.06349 -0.7987,-0.53128 -2.12443,-1.19064 -2.94606,-1.46525 -1.39192,-0.46522 -1.58309,-0.48133 -2.80063,-0.23602 -1.67537,0.33755 -3.07387,1.27255 -4.01309,2.683 -1.16092,1.74342 -2.13948,2.71446 -2.96718,2.94436 -0.41665,0.11573 -1.4943,0.21093 -2.3948,0.21157 -2.12283,10e-4 -4.74118,0.74895 -7.07579,2.01989 -1.89647,1.03244 -2.50301,1.30052 -2.94233,1.30052 -0.61586,0 -1.19501,0.32454 -2.25616,1.26426 -0.46308,0.41008 -1.4433,0.97021 -2.17826,1.24472 -1.09587,0.4093 -1.60912,0.77905 -2.85255,2.05501 -1.51049,1.55001 -2.23494,2.67595 -2.73632,4.2528 -0.62581,1.96818 -1.85959,3.74196 -4.62433,6.64831 -0.93679,0.98476 -1.75011,1.97513 -1.80738,2.20082 -0.20514,0.80851 0.0238,2.24965 0.35742,2.24965 0.40289,0 1.70478,-0.81941 3.73507,-2.35087 1.75889,-1.32674 2.2793,-1.58403 4.03859,-1.99668 1.85027,-0.43398 2.70495,-0.10788 6.01113,2.29351 1.26672,0.92006 1.38,0.95892 3.18058,1.09109 1.57588,0.11568 1.99652,0.2271 2.6969,0.71439 0.72209,0.50238 0.84851,0.71085 0.97382,1.60581 0.0792,0.56566 0.20782,1.34099 0.28584,1.72295 0.0812,0.39777 0.0322,1.02685 -0.11492,1.47242 -0.24684,0.74794 -0.22745,0.8163 0.50288,1.77307 0.54307,0.71147 1.12461,1.16777 2.04005,1.6007 0.70425,0.33306 1.41275,0.71632 1.57446,0.85171 0.85535,0.71612 2.8448,0.93931 3.58092,0.40173 z"
         style="display:inline;fill:#ffffff;fill-opacity:1;stroke-width:0.20745379;enable-background:new"
         sodipodi:nodetypes="cscscccsccsscscccccsccsssccssccsccccscsssscssssssccccscc" />
      <path
         inkscape:connector-curvature="0"
         id="path5424-3-6-7"
         d="m 315.29367,256.80156 c 0.18229,-0.13311 0.45102,-0.30842 0.59719,-0.38957 0.45508,-0.25264 0.5693,-0.55549 0.35824,-0.94987 -0.10442,-0.19512 -0.30382,-0.35476 -0.4431,-0.35476 -0.13928,0 -0.25372,-0.0467 -0.25431,-0.10373 -0.003,-0.26453 -0.88019,-0.49994 -2.14261,-0.57486 l -1.38302,-0.0821 -0.23264,-0.48406 c -0.62316,-1.29671 -0.84836,-3.0179 -0.48858,-3.73416 0.0955,-0.19016 0.47506,-0.54802 0.8434,-0.79524 1.09825,-0.73708 1.98632,-0.57424 2.23174,0.40923 0.12916,0.51755 0.42146,0.74612 0.67989,0.53165 0.14223,-0.11804 0.27503,-0.12394 0.46779,-0.0208 0.37076,0.19842 0.44002,0.44099 0.44002,1.54121 0,0.84644 0.0345,0.9701 0.31118,1.11581 0.17114,0.0901 0.3558,0.23235 0.41035,0.31605 0.19189,0.29444 0.68842,-0.40767 0.76429,-1.08071 0.0622,-0.55194 0.0101,-0.7415 -0.37279,-1.35751 -0.58165,-0.93567 -1.13991,-2.43169 -1.03307,-2.76835 0.0539,-0.16996 0.69408,-0.56243 1.77323,-1.08721 2.01729,-0.98097 3.10867,-1.89667 4.03837,-3.38831 0.81624,-1.30961 1.0462,-2.07256 1.04422,-3.46451 -10e-4,-0.88617 -0.0778,-1.31865 -0.35688,-2.01624 -0.19541,-0.48845 -0.3553,-1.01239 -0.3553,-1.16431 0,-0.3163 0.4264,-0.74634 1.05449,-1.0635 0.59995,-0.30294 2.18165,-0.53507 2.90593,-0.42646 0.33197,0.0498 0.88364,0.0485 1.22593,-0.003 0.57397,-0.0861 0.62237,-0.12468 0.62237,-0.49656 0,-0.48614 -0.27954,-0.68946 -1.51462,-1.10166 -1.09819,-0.36653 -1.47392,-0.55771 -2.70362,-1.37566 -0.53246,-0.35419 -1.41628,-0.79376 -1.96404,-0.97684 -0.92794,-0.31014 -1.05539,-0.32088 -1.86708,-0.15734 -1.11692,0.22503 -2.04925,0.84836 -2.6754,1.78866 -0.77394,1.16228 -1.42632,1.80964 -1.97812,1.96291 -0.27776,0.0772 -0.9962,0.14062 -1.59653,0.14105 -1.41522,6.6e-4 -3.16079,0.4993 -4.71719,1.34659 -1.26432,0.68829 -1.66868,0.86701 -1.96156,0.86701 -0.41057,0 -0.79667,0.21636 -1.5041,0.84284 -0.30872,0.27339 -0.9622,0.64681 -1.45218,0.82982 -0.73058,0.27286 -1.07274,0.51936 -1.90169,1.37 -1.007,1.03334 -1.48996,1.78397 -1.82422,2.8352 -0.4172,1.31212 -1.23972,2.49464 -3.08288,4.43221 -0.62453,0.65651 -1.16674,1.31675 -1.20492,1.46721 -0.13676,0.53901 0.0159,1.49977 0.23828,1.49977 0.26859,0 1.13652,-0.54627 2.49004,-1.56725 1.1726,-0.88449 1.51954,-1.05602 2.6924,-1.33112 1.23351,-0.28932 1.8033,-0.0719 4.00741,1.52901 0.84448,0.61337 0.92,0.63928 2.12039,0.72739 1.05059,0.0771 1.33101,0.1514 1.79793,0.47626 0.4814,0.33492 0.56568,0.4739 0.64922,1.07054 0.0528,0.37711 0.13854,0.894 0.19056,1.14864 0.0541,0.26518 0.0215,0.68456 -0.0766,0.98161 -0.16456,0.49863 -0.15163,0.5442 0.33526,1.18205 0.36204,0.47431 0.74974,0.77851 1.36003,1.06713 0.4695,0.22204 0.94183,0.47755 1.04964,0.56781 0.57023,0.47741 1.89653,0.6262 2.38728,0.26782 z"
         style="display:inline;fill:#ffffff;fill-opacity:1;stroke-width:0.13830252;enable-background:new"
         sodipodi:nodetypes="cscscccsccsscscccccsccsssccssccsccccscsssscssssssccccscc" />
      <path
         inkscape:connector-curvature="0"
         id="path5424-3-6-7-5"
         d="m 434.26439,76.863606 c 0.12533,-0.09151 0.31008,-0.212039 0.41057,-0.26783 0.31287,-0.17369 0.39139,-0.381899 0.24629,-0.653036 -0.0718,-0.134145 -0.20888,-0.243897 -0.30463,-0.243897 -0.0958,0 -0.17443,-0.03211 -0.17484,-0.07131 -0.002,-0.181865 -0.60513,-0.343709 -1.47304,-0.395217 l -0.95083,-0.05644 -0.15994,-0.332791 c -0.42842,-0.891488 -0.58325,-2.074807 -0.3359,-2.567235 0.0657,-0.130735 0.32661,-0.376764 0.57984,-0.546728 0.75505,-0.506743 1.36559,-0.39479 1.53432,0.281346 0.0888,0.355815 0.28975,0.512957 0.46743,0.365509 0.0978,-0.08115 0.18908,-0.08521 0.3216,-0.0143 0.2549,0.136414 0.30251,0.303181 0.30251,1.059582 0,0.581928 0.0237,0.666944 0.21394,0.76712 0.11766,0.06194 0.24461,0.15974 0.28212,0.217284 0.13192,0.202428 0.47329,-0.280273 0.52545,-0.742988 0.0428,-0.379459 0.007,-0.509781 -0.2563,-0.933288 -0.39988,-0.643274 -0.78369,-1.671788 -0.71023,-1.903241 0.0371,-0.116848 0.47718,-0.386671 1.21909,-0.747457 1.38689,-0.674417 2.13721,-1.303961 2.77638,-2.329464 0.56117,-0.900357 0.71927,-1.424885 0.7179,-2.381851 -6.8e-4,-0.609242 -0.0535,-0.906572 -0.24535,-1.386165 -0.13435,-0.33581 -0.24427,-0.696019 -0.24427,-0.800464 0,-0.217456 0.29315,-0.513108 0.72496,-0.731156 0.41247,-0.208271 1.49989,-0.367861 1.99783,-0.293191 0.22823,0.03424 0.6075,0.03334 0.84283,-0.0021 0.3946,-0.05919 0.42788,-0.08572 0.42788,-0.341385 0,-0.334221 -0.19219,-0.474004 -1.04131,-0.757391 -0.755,-0.25199 -1.01332,-0.383426 -1.85873,-0.945767 -0.36607,-0.243505 -0.9737,-0.54571 -1.35028,-0.671577 -0.63796,-0.213222 -0.72558,-0.220605 -1.28362,-0.108172 -0.76788,0.154709 -1.40886,0.583248 -1.83934,1.229704 -0.53208,0.799068 -0.98059,1.244128 -1.35996,1.349501 -0.19096,0.05307 -0.68488,0.09668 -1.09761,0.09697 -0.97296,4.54e-4 -2.17304,0.343269 -3.24307,0.925781 -0.86922,0.473199 -1.14722,0.596069 -1.34857,0.596069 -0.28227,0 -0.54771,0.148748 -1.03407,0.579453 -0.21225,0.187956 -0.66151,0.444682 -0.99837,0.570501 -0.50228,0.187592 -0.73751,0.357061 -1.30742,0.941876 -0.69231,0.710421 -1.02434,1.226479 -1.25415,1.9492 -0.28682,0.902083 -0.85231,1.715065 -2.11948,3.047145 -0.42936,0.451351 -0.80213,0.905266 -0.82838,1.008707 -0.094,0.370569 0.0109,1.031092 0.16382,1.031092 0.18465,0 0.78135,-0.375561 1.7119,-1.077484 0.80616,-0.608087 1.04468,-0.726014 1.85102,-0.915146 0.84804,-0.198907 1.23977,-0.04943 2.7551,1.051195 0.58058,0.421692 0.6325,0.439505 1.45777,0.500081 0.72228,0.05301 0.91507,0.104087 1.23607,0.327428 0.33097,0.230258 0.38891,0.325807 0.44634,0.735997 0.0363,0.259263 0.0953,0.614625 0.13101,0.78969 0.0372,0.182311 0.0148,0.470635 -0.0527,0.674857 -0.11313,0.342808 -0.10424,0.374138 0.23049,0.81266 0.24891,0.326088 0.51545,0.535225 0.93502,0.733652 0.32278,0.152652 0.64751,0.328315 0.72163,0.390369 0.39203,0.328219 1.30387,0.430513 1.64126,0.184126 z"
         style="display:inline;fill:#ffffff;fill-opacity:1;stroke-width:0.095083;enable-background:new"
         sodipodi:nodetypes="cscscccsccsscscccccsccsssccssccsccccscsssscssssssccccscc" />
      <path
         inkscape:connector-curvature="0"
         id="path5424-3-6-7-5-3"
         d="m 429.64683,118.90033 c 0.0911,-0.0665 0.22551,-0.15421 0.2986,-0.19479 0.22754,-0.12632 0.28464,-0.27774 0.17912,-0.47494 -0.0522,-0.0975 -0.15192,-0.17738 -0.22155,-0.17738 -0.0697,0 -0.12686,-0.0233 -0.12716,-0.0519 -0.001,-0.13227 -0.44009,-0.24997 -1.0713,-0.28743 l -0.69151,-0.041 -0.11632,-0.24203 c -0.31158,-0.64835 -0.42418,-1.50895 -0.24429,-1.86708 0.0478,-0.0951 0.23753,-0.27401 0.4217,-0.39762 0.54913,-0.36854 0.99315,-0.28712 1.11587,0.20462 0.0646,0.25877 0.21072,0.37306 0.33995,0.26582 0.0711,-0.059 0.13751,-0.062 0.23389,-0.0104 0.18538,0.0992 0.22,0.2205 0.22,0.77061 0,0.42322 0.0172,0.48504 0.1556,0.5579 0.0856,0.045 0.1779,0.11618 0.20518,0.15802 0.0959,0.14722 0.34421,-0.20383 0.38214,-0.54035 0.0311,-0.27597 0.005,-0.37075 -0.1864,-0.67875 -0.29082,-0.46784 -0.56996,-1.21585 -0.51653,-1.38418 0.027,-0.085 0.34704,-0.28121 0.88661,-0.5436 1.00865,-0.49049 1.55434,-0.94834 2.01919,-1.69416 0.40812,-0.65481 0.5231,-1.03628 0.52211,-1.73226 -5e-4,-0.44308 -0.0389,-0.65932 -0.17844,-1.00812 -0.0977,-0.24422 -0.17765,-0.50619 -0.17765,-0.58215 0,-0.15815 0.2132,-0.37317 0.52724,-0.53175 0.29998,-0.15147 1.09083,-0.26754 1.45297,-0.21323 0.16598,0.0249 0.44182,0.0242 0.61297,-10e-4 0.28698,-0.043 0.31118,-0.0623 0.31118,-0.24828 0,-0.24307 -0.13977,-0.34473 -0.75731,-0.55083 -0.5491,-0.18326 -0.73696,-0.27885 -1.35181,-0.68782 -0.26623,-0.1771 -0.70814,-0.39688 -0.98202,-0.48843 -0.46397,-0.15506 -0.52769,-0.16044 -0.93354,-0.0787 -0.55846,0.11251 -1.02463,0.42417 -1.3377,0.89432 -0.38697,0.58114 -0.71316,0.90482 -0.98907,0.98146 -0.13888,0.0386 -0.49809,0.0703 -0.79826,0.0705 -0.7076,3.4e-4 -1.58039,0.24965 -2.35859,0.6733 -0.63216,0.34414 -0.83435,0.4335 -0.98078,0.4335 -0.20529,0 -0.39834,0.10818 -0.75205,0.42142 -0.15437,0.1367 -0.4811,0.32341 -0.72609,0.41492 -0.3653,0.13643 -0.53637,0.25968 -0.95085,0.68499 -0.5035,0.51667 -0.74498,0.89199 -0.91211,1.4176 -0.2086,0.65606 -0.61986,1.24733 -1.54144,2.21611 -0.31226,0.32826 -0.58337,0.65837 -0.60246,0.7336 -0.0684,0.26951 0.008,0.74989 0.11914,0.74989 0.13429,0 0.56826,-0.27314 1.24502,-0.78362 0.5863,-0.44225 0.75977,-0.52801 1.3462,-0.66556 0.61675,-0.14466 0.90165,-0.0359 2.00371,0.7645 0.42224,0.30668 0.46,0.31964 1.06019,0.3637 0.5253,0.0385 0.66551,0.0757 0.89896,0.23813 0.24071,0.16746 0.28285,0.23695 0.32461,0.53527 0.0264,0.18855 0.0693,0.447 0.0953,0.57432 0.0271,0.13259 0.0108,0.34228 -0.0383,0.4908 -0.0823,0.24932 -0.0758,0.2721 0.16763,0.59102 0.18102,0.23716 0.37487,0.38926 0.68001,0.53358 0.23475,0.11101 0.47092,0.23877 0.52482,0.28389 0.28512,0.23871 0.94827,0.31311 1.19365,0.13392 z"
         style="display:inline;fill:#ffffff;fill-opacity:1;stroke-width:0.06915127;enable-background:new"
         sodipodi:nodetypes="cscscccsccsscscccccsccsssccssccsccccscsssscssssssccccscc" />
      <path
         inkscape:connector-curvature="0"
         id="path5424-3-6-7-5-5"
         d="m 425.23511,152.92567 c 0.0684,-0.0499 0.16914,-0.11566 0.22395,-0.14609 0.17066,-0.0947 0.21349,-0.20831 0.13434,-0.35621 -0.0392,-0.0732 -0.11393,-0.13303 -0.16616,-0.13303 -0.0523,0 -0.0951,-0.0175 -0.0954,-0.0389 -10e-4,-0.0992 -0.33007,-0.18748 -0.80347,-0.21557 l -0.51864,-0.0308 -0.0872,-0.18152 c -0.23368,-0.48626 -0.31814,-1.13171 -0.18322,-1.40031 0.0358,-0.0713 0.17815,-0.20551 0.31628,-0.29822 0.41184,-0.2764 0.74487,-0.21534 0.8369,0.15347 0.0484,0.19408 0.15805,0.27979 0.25496,0.19937 0.0534,-0.0443 0.10314,-0.0465 0.17542,-0.008 0.13904,0.0744 0.16501,0.16537 0.16501,0.57795 0,0.31742 0.0129,0.36378 0.11669,0.41843 0.0642,0.0338 0.13342,0.0871 0.15388,0.11851 0.072,0.11042 0.25816,-0.15287 0.28661,-0.40526 0.0233,-0.20698 0.004,-0.27806 -0.1398,-0.50906 -0.21811,-0.35088 -0.42746,-0.91189 -0.38739,-1.03814 0.0202,-0.0637 0.26028,-0.21091 0.66495,-0.4077 0.75649,-0.36787 1.16575,-0.71125 1.51439,-1.27062 0.3061,-0.4911 0.39233,-0.77721 0.39158,-1.29919 -3.7e-4,-0.33231 -0.0292,-0.49449 -0.13382,-0.75609 -0.0733,-0.18317 -0.13324,-0.37965 -0.13324,-0.43662 0,-0.11861 0.1599,-0.27987 0.39543,-0.39881 0.22499,-0.1136 0.81812,-0.20065 1.08973,-0.15992 0.12449,0.0187 0.33136,0.0182 0.45972,-10e-4 0.21524,-0.0323 0.23339,-0.0468 0.23339,-0.18621 0,-0.18231 -0.10483,-0.25855 -0.56799,-0.41313 -0.41181,-0.13745 -0.55272,-0.20913 -1.01385,-0.51587 -0.19967,-0.13282 -0.53111,-0.29766 -0.73651,-0.36631 -0.34798,-0.1163 -0.39578,-0.12033 -0.70016,-0.059 -0.41884,0.0844 -0.76847,0.31813 -1.00328,0.67074 -0.29022,0.43586 -0.53486,0.67862 -0.74179,0.73609 -0.10416,0.029 -0.37357,0.0528 -0.5987,0.0529 -0.53071,2.5e-4 -1.18529,0.18724 -1.76895,0.50497 -0.47412,0.25811 -0.62575,0.32513 -0.73558,0.32513 -0.15397,0 -0.29875,0.0811 -0.56404,0.31607 -0.11577,0.10252 -0.36082,0.24255 -0.54457,0.31118 -0.27397,0.10233 -0.40227,0.19476 -0.71313,0.51375 -0.37763,0.3875 -0.55873,0.66899 -0.68409,1.0632 -0.15644,0.49204 -0.46489,0.93549 -1.15608,1.66208 -0.23419,0.24619 -0.43752,0.49378 -0.45184,0.5502 -0.0513,0.20213 0.006,0.56242 0.0894,0.56242 0.10072,0 0.42619,-0.20486 0.93376,-0.58772 0.43972,-0.33169 0.56983,-0.39601 1.00965,-0.49917 0.46257,-0.10849 0.67624,-0.0269 1.50278,0.57338 0.31668,0.23001 0.345,0.23973 0.79515,0.27277 0.39397,0.0289 0.49913,0.0568 0.67422,0.1786 0.18053,0.12559 0.21213,0.17771 0.24346,0.40145 0.0198,0.14142 0.052,0.33525 0.0715,0.43074 0.0203,0.0994 0.008,0.25671 -0.0288,0.3681 -0.0617,0.18699 -0.0569,0.20408 0.12572,0.44327 0.13577,0.17787 0.28116,0.29194 0.51001,0.40017 0.17607,0.0833 0.35319,0.17909 0.39362,0.21293 0.21383,0.17903 0.7112,0.23483 0.89523,0.10044 z"
         style="display:inline;fill:#ffffff;fill-opacity:1;stroke-width:0.05186346;enable-background:new"
         sodipodi:nodetypes="cscscccsccsscscccccsccsssccssccsccccscsssscssssssccccscc" />
    </g>
    <g
       inkscape:groupmode="layer"
       id="layer5"
       inkscape:label="Highlights"
       style="display:inline"
       sodipodi:insensitive="true">
      <path
         style="opacity:0.12999998;color:#bebebe;fill:#ffffff;fill-opacity:1;fill-rule:nonzero;stroke:none;stroke-width:0;marker:none;visibility:visible;display:inline;overflow:visible;enable-background:accumulate"
         d="M 84,47 C 56.836703,47 35,68.836703 35,96 l 0,1 C 35,69.836703 56.836703,48 84,48 l 120,0 c 27.1633,0 49,21.836703 49,49 l 0,-1 C 253,68.836703 231.1633,47 204,47 L 84,47 z"
         id="rect3894"
         inkscape:connector-curvature="0" />
      <path
         style="opacity:0.12999998;color:#bebebe;fill:#ffffff;fill-opacity:1;fill-rule:nonzero;stroke:none;stroke-width:0;marker:none;visibility:visible;display:inline;overflow:visible;enable-background:accumulate"
         d="m 419,141 c -1.1253,0 -2,0.8747 -2,2 l 0,1 c 0,-1.1253 0.8747,-2 2,-2 l 10,0 c 1.1253,0 2,0.8747 2,2 l 0,-1 c 0,-1.1253 -0.8747,-2 -2,-2 l -10,0 z"
         id="rect3896"
         inkscape:connector-curvature="0" />
      <path
         style="opacity:0.12999998;color:#bebebe;fill:#ffffff;fill-opacity:1;fill-rule:nonzero;stroke:none;stroke-width:0;marker:none;visibility:visible;display:inline;overflow:visible;enable-background:accumulate"
         d="m 422,102 c -2.2333,0 -4,1.7667 -4,4 l 0,1 c 0,-2.2333 1.7667,-4 4,-4 l 12,0 c 2.2333,0 4,1.7667 4,4 l 0,-1 c 0,-2.2333 -1.7667,-4 -4,-4 l -12,0 z"
         id="rect3898"
         inkscape:connector-curvature="0" />
      <path
         style="opacity:0.12999998;color:#bebebe;fill:#ffffff;fill-opacity:1;fill-rule:nonzero;stroke:none;stroke-width:0;marker:none;visibility:visible;display:inline;overflow:visible;enable-background:accumulate"
         d="m 424,54 c -3.3413,0 -6,2.658703 -6,6 l 0,1 c 0,-3.341297 2.6587,-6 6,-6 l 16,0 c 3.3413,0 6,2.658703 6,6 l 0,-1 c 0,-3.341297 -2.6587,-6 -6,-6 l -16,0 z"
         id="rect3900"
         inkscape:connector-curvature="0" />
      <path
         style="opacity:0.12999998;color:#bebebe;fill:#ffffff;fill-opacity:1;fill-rule:nonzero;stroke:none;stroke-width:0;marker:none;visibility:visible;display:inline;overflow:visible;enable-background:accumulate"
         d="m 300,224 c -4.4493,0 -8,3.5507 -8,8 l 0,1 c 0,-4.4493 3.5507,-8 8,-8 l 24,0 c 4.4493,0 8,3.5507 8,8 l 0,-1 c 0,-4.4493 -3.5507,-8 -8,-8 l -24,0 z"
         id="rect3902"
         inkscape:connector-curvature="0" />
      <path
         style="opacity:0.12999998;color:#bebebe;fill:#ffffff;fill-opacity:1;fill-rule:nonzero;stroke:none;stroke-width:0;marker:none;visibility:visible;display:inline;overflow:visible;enable-background:accumulate"
         d="m 310,33 c -9.4353,0 -17,7.564703 -17,17 l 0,1 c 0,-9.435297 7.5647,-17 17,-17 l 52,0 c 9.4353,0 17,7.564703 17,17 l 0,-1 c 0,-9.435297 -7.5647,-17 -17,-17 l -52,0 z"
         id="rect3904"
         inkscape:connector-curvature="0" />
      <path
         style="opacity:0.12999998;color:#bebebe;fill:#ffffff;fill-opacity:1;fill-rule:nonzero;stroke:none;stroke-width:0;marker:none;visibility:visible;display:inline;overflow:visible;enable-background:accumulate"
         d="m 302.5,143 c -6.3883,0 -11.5,5.1117 -11.5,11.5 l 0,1 c 0,-6.3883 5.1117,-11.5 11.5,-11.5 l 35,0 c 6.3883,0 11.5,5.1117 11.5,11.5 l 0,-1 c 0,-6.3883 -5.1117,-11.5 -11.5,-11.5 l -35,0 z"
         id="rect3906"
         inkscape:connector-curvature="0" />
      <path
         id="path4085"
         d="m 204,266 c 27.1633,0 49,-21.8367 49,-49 l 0,-1 c 0,27.1633 -21.8367,49 -49,49 L 84,265 C 56.8367,265 35,243.1633 35,216 l 0,1 c 0,27.1633 21.8367,49 49,49 l 120,0 z"
         style="opacity:0.5;color:#bebebe;fill:#000000;fill-opacity:1;fill-rule:nonzero;stroke:none;stroke-width:0;marker:none;visibility:visible;display:inline;overflow:visible;enable-background:accumulate"
         inkscape:connector-curvature="0" />
      <path
         id="path4087"
         d="m 429,156 c 1.1253,0 2,-0.8747 2,-2 l 0,-1 c 0,1.1253 -0.8747,2 -2,2 l -10,0 c -1.1253,0 -2,-0.8747 -2,-2 l 0,1 c 0,1.1253 0.8747,2 2,2 l 10,0 z"
         style="opacity:0.3;color:#bebebe;fill:#000000;fill-opacity:1;fill-rule:nonzero;stroke:none;stroke-width:0;marker:none;visibility:visible;display:inline;overflow:visible;enable-background:accumulate"
         inkscape:connector-curvature="0" />
      <path
         id="path4089"
         d="m 434,123 c 2.2333,0 4,-1.7667 4,-4 l 0,-1 c 0,2.2333 -1.7667,4 -4,4 l -12,0 c -2.2333,0 -4,-1.7667 -4,-4 l 0,1 c 0,2.2333 1.7667,4 4,4 l 12,0 z"
         style="opacity:0.3;color:#bebebe;fill:#000000;fill-opacity:1;fill-rule:nonzero;stroke:none;stroke-width:0;marker:none;visibility:visible;display:inline;overflow:visible;enable-background:accumulate"
         inkscape:connector-curvature="0" />
      <path
         id="path4091"
         d="m 440,83 c 3.3413,0 6,-2.6587 6,-6 l 0,-1 c 0,3.3413 -2.6587,6 -6,6 l -16,0 c -3.3413,0 -6,-2.6587 -6,-6 l 0,1 c 0,3.3413 2.6587,6 6,6 l 16,0 z"
         style="opacity:0.5;color:#bebebe;fill:#000000;fill-opacity:1;fill-rule:nonzero;stroke:none;stroke-width:0;marker:none;visibility:visible;display:inline;overflow:visible;enable-background:accumulate"
         inkscape:connector-curvature="0" />
      <path
         id="path4093"
         d="m 324,265 c 4.4493,0 8,-3.5507 8,-8 l 0,-1 c 0,4.4493 -3.5507,8 -8,8 l -24,0 c -4.4493,0 -8,-3.5507 -8,-8 l 0,1 c 0,4.4493 3.5507,8 8,8 l 24,0 z"
         style="opacity:0.5;color:#bebebe;fill:#000000;fill-opacity:1;fill-rule:nonzero;stroke:none;stroke-width:0;marker:none;visibility:visible;display:inline;overflow:visible;enable-background:accumulate"
         inkscape:connector-curvature="0" />
      <path
         id="path4095"
         d="m 362,120 c 9.4353,0 17,-7.5647 17,-17 l 0,-1 c 0,9.4353 -7.5647,17 -17,17 l -52,0 c -9.4353,0 -17,-7.5647 -17,-17 l 0,1 c 0,9.4353 7.5647,17 17,17 l 52,0 z"
         style="opacity:0.5;color:#bebebe;fill:#000000;fill-opacity:1;fill-rule:nonzero;stroke:none;stroke-width:0;marker:none;visibility:visible;display:inline;overflow:visible;enable-background:accumulate"
         inkscape:connector-curvature="0" />
      <path
         id="path4097"
         d="m 337.5,202 c 6.3883,0 11.5,-5.1117 11.5,-11.5 l 0,-1 c 0,6.3883 -5.1117,11.5 -11.5,11.5 l -35,0 c -6.3883,0 -11.5,-5.1117 -11.5,-11.5 l 0,1 c 0,6.3883 5.1117,11.5 11.5,11.5 l 35,0 z"
         style="opacity:0.5;color:#bebebe;fill:#000000;fill-opacity:1;fill-rule:nonzero;stroke:none;stroke-width:0;marker:none;visibility:visible;display:inline;overflow:visible;enable-background:accumulate"
         inkscape:connector-curvature="0" />
      <path
         inkscape:connector-curvature="0"
         id="path4280"
         d="M 84,265 C 56.836703,265 35,243.1633 35,216 l 0,-1 c 0,27.1633 21.836703,49 49,49 l 120,0 c 27.1633,0 49,-21.8367 49,-49 l 0,1 c 0,27.1633 -21.8367,49 -49,49 l -120,0 z"
         style="opacity:0.1;color:#bebebe;fill:#ffffff;fill-opacity:1;fill-rule:nonzero;stroke:none;stroke-width:0;marker:none;visibility:visible;display:inline;overflow:visible;enable-background:accumulate" />
      <path
         style="opacity:0.1;color:#bebebe;fill:#ffffff;fill-opacity:1;fill-rule:nonzero;stroke:none;stroke-width:0;marker:none;visibility:visible;display:inline;overflow:visible;enable-background:accumulate"
         d="m 300,264 c -4.4493,0 -8,-3.5507 -8,-8 l 0,-1 c 0,4.4493 3.5507,8 8,8 l 24,0 c 4.4493,0 8,-3.5507 8,-8 l 0,1 c 0,4.4493 -3.5507,8 -8,8 l -24,0 z"
         id="path4294"
         inkscape:connector-curvature="0" />
      <path
         style="opacity:0.1;color:#bebebe;fill:#ffffff;fill-opacity:1;fill-rule:nonzero;stroke:none;stroke-width:0;marker:none;visibility:visible;display:inline;overflow:visible;enable-background:accumulate"
         d="m 302.5,201 c -6.3883,0 -11.5,-5.1117 -11.5,-11.5 l 0,-1 c 0,6.3883 5.1117,11.5 11.5,11.5 l 35,0 c 6.3883,0 11.5,-5.1117 11.5,-11.5 l 0,1 c 0,6.3883 -5.1117,11.5 -11.5,11.5 l -35,0 z"
         id="path4296"
         inkscape:connector-curvature="0" />
      <path
         style="opacity:0.1;color:#bebebe;fill:#ffffff;fill-opacity:1;fill-rule:nonzero;stroke:none;stroke-width:0;marker:none;visibility:visible;display:inline;overflow:visible;enable-background:accumulate"
         d="m 310,119 c -9.4353,0 -17,-7.5647 -17,-17 l 0,-1 c 0,9.4353 7.5647,17 17,17 l 52,0 c 9.4353,0 17,-7.5647 17,-17 l 0,1 c 0,9.4353 -7.5647,17 -17,17 l -52,0 z"
         id="path4298"
         inkscape:connector-curvature="0" />
      <path
         style="opacity:0.1;color:#bebebe;fill:#ffffff;fill-opacity:1;fill-rule:nonzero;stroke:none;stroke-width:0;marker:none;visibility:visible;display:inline;overflow:visible;enable-background:accumulate"
         d="m 424,82 c -3.3413,0 -6,-2.658703 -6,-6 l 0,-1 c 0,3.341297 2.6587,6 6,6 l 16,0 c 3.3413,0 6,-2.658703 6,-6 l 0,1 c 0,3.341297 -2.6587,6 -6,6 l -16,0 z"
         id="path4300"
         inkscape:connector-curvature="0" />
      <path
         style="opacity:0.1;color:#bebebe;fill:#ffffff;fill-opacity:1;fill-rule:nonzero;stroke:none;stroke-width:0;marker:none;visibility:visible;display:inline;overflow:visible;enable-background:accumulate"
         d="m 422,122 c -2.2333,0 -4,-1.7667 -4,-4 l 0,-1 c 0,2.2333 1.7667,4 4,4 l 12,0 c 2.2333,0 4,-1.7667 4,-4 l 0,1 c 0,2.2333 -1.7667,4 -4,4 l -12,0 z"
         id="path4302"
         inkscape:connector-curvature="0" />
      <path
         style="opacity:0.1;color:#bebebe;fill:#ffffff;fill-opacity:1;fill-rule:nonzero;stroke:none;stroke-width:0;marker:none;visibility:visible;display:inline;overflow:visible;enable-background:accumulate"
         d="m 419,154.5 c -1.1253,0 -2,-0.8747 -2,-2 l 0,-1 c 0,1.1253 0.8747,2 2,2 l 10,0 c 1.1253,0 2,-0.8747 2,-2 l 0,1 c 0,1.1253 -0.8747,2 -2,2 l -10,0 z"
         id="path4304"
         inkscape:connector-curvature="0" />
    </g>
    <g
       inkscape:groupmode="layer"
       id="layer3"
       inkscape:label="Border"
       style="display:inline"
       sodipodi:insensitive="true">
      <path
         style="opacity:0.41000001;color:#bebebe;fill:#000000;fill-opacity:1;fill-rule:nonzero;stroke:none;stroke-width:0;marker:none;visibility:visible;display:inline;overflow:visible;enable-background:accumulate"
         d="m 422,101 c -2.77,0 -5,2.23 -5,5 l 0,12 c 0,2.77 2.23,5 5,5 l 12,0 c 2.77,0 5,-2.23 5,-5 l 0,-12 c 0,-2.77 -2.23,-5 -5,-5 l -12,0 z m 0,1 12,0 c 2.2333,0 4,1.7667 4,4 l 0,12 c 0,2.2333 -1.7667,4 -4,4 l -12,0 c -2.2333,0 -4,-1.7667 -4,-4 l 0,-12 c 0,-2.2333 1.7667,-4 4,-4 z"
         id="rect4099"
         inkscape:connector-curvature="0" />
      <path
         style="opacity:0.41000001;color:#bebebe;fill:#000000;fill-opacity:1;fill-rule:nonzero;stroke:none;stroke-width:0;marker:none;visibility:visible;display:inline;overflow:visible;enable-background:accumulate"
         d="m 424,53 c -3.878,0 -7,3.122 -7,7 l 0,16 c 0,3.878 3.122,7 7,7 l 16,0 c 3.878,0 7,-3.122 7,-7 l 0,-16 c 0,-3.878 -3.122,-7 -7,-7 l -16,0 z m 0,1 16,0 c 3.3413,0 6,2.658703 6,6 l 0,16 c 0,3.341297 -2.6587,6 -6,6 l -16,0 c -3.3413,0 -6,-2.658703 -6,-6 l 0,-16 c 0,-3.341297 2.6587,-6 6,-6 z"
         id="rect4151"
         inkscape:connector-curvature="0" />
      <path
         style="opacity:0.41000001;color:#bebebe;fill:#000000;fill-opacity:1;fill-rule:nonzero;stroke:none;stroke-width:0;marker:none;visibility:visible;display:inline;overflow:visible;enable-background:accumulate"
         d="m 419,140 c -1.662,0 -3,1.338 -3,3 l 0,10 c 0,1.662 1.338,3 3,3 l 10,0 c 1.662,0 3,-1.338 3,-3 l 0,-10 c 0,-1.662 -1.338,-3 -3,-3 l -10,0 z m 0,1 10,0 c 1.1253,0 2,0.8747 2,2 l 0,10 c 0,1.1253 -0.8747,2 -2,2 l -10,0 c -1.1253,0 -2,-0.8747 -2,-2 l 0,-10 c 0,-1.1253 0.8747,-2 2,-2 z"
         id="rect4095"
         inkscape:connector-curvature="0" />
      <path
         style="opacity:0.41000001;color:#bebebe;fill:#000000;fill-opacity:1;fill-rule:nonzero;stroke:none;stroke-width:0;marker:none;visibility:visible;display:inline;overflow:visible;enable-background:accumulate"
         d="m 300,223 c -4.986,0 -9,4.014 -9,9 l 0,24 c 0,4.986 4.014,9 9,9 l 24,0 c 4.986,0 9,-4.014 9,-9 l 0,-24 c 0,-4.986 -4.014,-9 -9,-9 l -24,0 z m 0,1 24,0 c 4.4493,0 8,3.5507 8,8 l 0,24 c 0,4.4493 -3.5507,8 -8,8 l -24,0 c -4.4493,0 -8,-3.5507 -8,-8 l 0,-24 c 0,-4.4493 3.5507,-8 8,-8 z"
         id="rect4783"
         inkscape:connector-curvature="0" />
      <path
         style="opacity:0.41000001;color:#bebebe;fill:#000000;fill-opacity:1;fill-rule:nonzero;stroke:none;stroke-width:0;marker:none;visibility:visible;display:inline;overflow:visible;enable-background:accumulate"
         d="m 302.5,142 c -6.925,0 -12.5,5.575 -12.5,12.5 l 0,35 c 0,6.925 5.575,12.5 12.5,12.5 l 35,0 c 6.925,0 12.5,-5.575 12.5,-12.5 l 0,-35 c 0,-6.925 -5.575,-12.5 -12.5,-12.5 l -35,0 z m 0,1 35,0 c 6.3883,0 11.5,5.1117 11.5,11.5 l 0,35 c 0,6.3883 -5.1117,11.5 -11.5,11.5 l -35,0 c -6.3883,0 -11.5,-5.1117 -11.5,-11.5 l 0,-35 c 0,-6.3883 5.1117,-11.5 11.5,-11.5 z"
         id="rect4515"
         inkscape:connector-curvature="0" />
      <path
         style="opacity:0.41000001;color:#bebebe;fill:#000000;fill-opacity:1;fill-rule:nonzero;stroke:none;stroke-width:0;marker:none;visibility:visible;display:inline;overflow:visible;enable-background:accumulate"
         d="m 310,32 c -9.972,0 -18,8.028 -18,18 l 0,52 c 0,9.972 8.028,18 18,18 l 52,0 c 9.972,0 18,-8.028 18,-18 l 0,-52 c 0,-9.972 -8.028,-18 -18,-18 l -52,0 z m 0,1 52,0 c 9.4353,0 17,7.564703 17,17 l 0,52 c 0,9.4353 -7.5647,17 -17,17 l -52,0 c -9.4353,0 -17,-7.5647 -17,-17 l 0,-52 c 0,-9.435297 7.5647,-17 17,-17 z"
         id="rect4511"
         inkscape:connector-curvature="0" />
      <path
         style="opacity:0.41000001;color:#bebebe;fill:#000000;fill-opacity:1;fill-rule:nonzero;stroke:none;stroke-width:0;marker:none;visibility:visible;display:inline;overflow:visible;enable-background:accumulate"
         d="M 84,46 C 56.3,46 34,68.3 34,96 l 0,120 c 0,27.7 22.3,50 50,50 l 120,0 c 27.7,0 50,-22.3 50,-50 L 254,96 C 254,68.3 231.7,46 204,46 L 84,46 z m 0,1 120,0 c 27.1633,0 49,21.836703 49,49 l 0,120 c 0,27.1633 -21.8367,49 -49,49 L 84,265 C 56.836703,265 35,243.1633 35,216 L 35,96 C 35,68.836703 56.836703,47 84,47 z"
         id="rect4040"
         inkscape:connector-curvature="0" />
    </g>
  </g>
</svg>
