<?xml version="1.0" encoding="UTF-8" standalone="no"?>
<!-- Created with Inkscape (http://www.inkscape.org/) -->

<svg
   xmlns:dc="http://purl.org/dc/elements/1.1/"
   xmlns:cc="http://creativecommons.org/ns#"
   xmlns:rdf="http://www.w3.org/1999/02/22-rdf-syntax-ns#"
   xmlns:svg="http://www.w3.org/2000/svg"
   xmlns="http://www.w3.org/2000/svg"
   xmlns:xlink="http://www.w3.org/1999/xlink"
   xmlns:sodipodi="http://sodipodi.sourceforge.net/DTD/sodipodi-0.dtd"
   xmlns:inkscape="http://www.inkscape.org/namespaces/inkscape"
   inkscape:export-ydpi="90.000000"
   inkscape:export-xdpi="90.000000"
   width="480"
   height="300"
   id="svg11300"
   sodipodi:version="0.32"
   inkscape:version="0.91 r13725"
   sodipodi:docname="wiican.svg"
   inkscape:output_extension="org.inkscape.output.svg.inkscape"
   version="1.0"
   style="display:inline;enable-background:new"
   inkscape:export-filename="/home/sam/moka-next-template.png">
  <sodipodi:namedview
     stroke="#ef2929"
     fill="#f57900"
     id="base"
     pagecolor="#777777"
     bordercolor="#666666"
     borderopacity="0.25490196"
     inkscape:pageopacity="0"
     inkscape:pageshadow="2"
     inkscape:zoom="1.4142136"
     inkscape:cx="74.540288"
     inkscape:cy="249.62334"
     inkscape:current-layer="layer7"
     showgrid="false"
     inkscape:grid-bbox="true"
     inkscape:document-units="px"
     inkscape:showpageshadow="false"
     inkscape:window-width="1364"
     inkscape:window-height="700"
     inkscape:window-x="0"
     inkscape:window-y="28"
     width="400px"
     height="300px"
     inkscape:snap-nodes="true"
     inkscape:snap-bbox="true"
     gridtolerance="10000"
     inkscape:object-nodes="true"
     inkscape:snap-grids="true"
     showguides="true"
     inkscape:guide-bbox="true"
     inkscape:window-maximized="1"
     inkscape:bbox-nodes="true"
     inkscape:bbox-paths="true"
     inkscape:snap-bbox-edge-midpoints="true"
     inkscape:snap-bbox-midpoints="true">
    <inkscape:grid
       spacingy="1px"
       spacingx="1px"
       id="grid5883"
       type="xygrid"
       enabled="true"
       visible="true"
       empspacing="4"
       snapvisiblegridlinesonly="true"
       dotted="false"
       color="#000000"
       opacity="0.1254902"
       empcolor="#203ef3"
       empopacity="0.36470588" />
    <inkscape:grid
       type="xygrid"
       id="grid11592"
       empspacing="8"
       visible="true"
       enabled="false"
       spacingx="0.5px"
       spacingy="0.5px"
       color="#ff0000"
       opacity="0.1254902"
       empcolor="#ff0000"
       empopacity="0.25098039"
       snapvisiblegridlinesonly="true"
       dotted="true" />
  </sodipodi:namedview>
  <defs
     id="defs3">
    <linearGradient
       id="linearGradient4121">
      <stop
         id="stop4123"
         offset="0"
         style="stop-color:#13b5ea;stop-opacity:1" />
      <stop
         id="stop4125"
         offset="1"
         style="stop-color:#45d3ff;stop-opacity:1;" />
    </linearGradient>
    <linearGradient
       inkscape:collect="always"
       xlink:href="#linearGradient4121"
       id="linearGradient4254"
       x1="35"
       y1="156"
       x2="253"
       y2="156"
       gradientUnits="userSpaceOnUse"
       gradientTransform="matrix(0,-1,1,0,-12,300)" />
    <linearGradient
       inkscape:collect="always"
       xlink:href="#linearGradient4121"
       id="linearGradient4256"
       x1="417"
       y1="148"
       x2="431"
       y2="148"
       gradientUnits="userSpaceOnUse"
       gradientTransform="matrix(0,-1,1,0,276,572)" />
    <linearGradient
       inkscape:collect="always"
       xlink:href="#linearGradient4121"
       id="linearGradient4260"
       x1="418"
       y1="68"
       x2="446"
       y2="68"
       gradientUnits="userSpaceOnUse"
       gradientTransform="matrix(0,-1,1,0,364,500)" />
    <linearGradient
       inkscape:collect="always"
       xlink:href="#linearGradient4121"
       id="linearGradient4262"
       x1="292"
       y1="244"
       x2="332"
       y2="244"
       gradientUnits="userSpaceOnUse"
       gradientTransform="matrix(0,-1,1,0,68,556)" />
    <linearGradient
       inkscape:collect="always"
       xlink:href="#linearGradient4121"
       id="linearGradient4264"
       x1="293"
       y1="76"
       x2="379"
       y2="76"
       gradientUnits="userSpaceOnUse"
       gradientTransform="matrix(0,-1,1,0,260,412)" />
    <linearGradient
       inkscape:collect="always"
       xlink:href="#linearGradient4121"
       id="linearGradient4266"
       x1="291"
       y1="172"
       x2="349"
       y2="172"
       gradientUnits="userSpaceOnUse"
       gradientTransform="matrix(0,-1,1,0,148,492)" />
    <linearGradient
       inkscape:collect="always"
       xlink:href="#linearGradient4121"
       id="linearGradient3870"
       gradientUnits="userSpaceOnUse"
       x1="418"
       y1="112"
       x2="438"
       y2="112"
       gradientTransform="matrix(0,-1,1,0,316,540)" />
  </defs>
  <metadata
     id="metadata4">
    <rdf:RDF>
      <cc:Work
         rdf:about="">
        <dc:format>image/svg+xml</dc:format>
        <dc:type
           rdf:resource="http://purl.org/dc/dcmitype/StillImage" />
        <dc:creator>
          <cc:Agent>
            <dc:title>Sam Hewitt</dc:title>
          </cc:Agent>
        </dc:creator>
        <dc:source />
        <cc:license
           rdf:resource="" />
        <dc:title></dc:title>
        <dc:subject>
          <rdf:Bag />
        </dc:subject>
        <dc:date />
        <dc:rights>
          <cc:Agent>
            <dc:title />
          </cc:Agent>
        </dc:rights>
        <dc:publisher>
          <cc:Agent>
            <dc:title />
          </cc:Agent>
        </dc:publisher>
        <dc:identifier />
        <dc:relation />
        <dc:language />
        <dc:coverage />
        <dc:description />
        <dc:contributor>
          <cc:Agent>
            <dc:title />
          </cc:Agent>
        </dc:contributor>
      </cc:Work>
      <cc:Work
         rdf:about="">
        <dc:format>image/svg+xml</dc:format>
        <dc:type
           rdf:resource="http://purl.org/dc/dcmitype/StillImage" />
      </cc:Work>
    </rdf:RDF>
  </metadata>
  <g
     style="display:inline"
     inkscape:groupmode="layer"
     inkscape:label="Icon"
     id="layer1">
    <g
       style="display:none"
       inkscape:label="Baseplate"
       id="layer7"
       inkscape:groupmode="layer"
       sodipodi:insensitive="true">
      <text
         y="19.745117"
         xml:space="preserve"
         x="15.006836"
         style="font-style:normal;font-variant:normal;font-weight:normal;font-stretch:normal;font-size:18px;font-family:'DejaVu Sans';-inkscape-font-specification:'DejaVu Sans';display:inline;fill:#000000;fill-opacity:1;stroke:none;enable-background:new"
         inkscape:label="context"
         id="context"><tspan
           style="font-style:normal;font-variant:normal;font-weight:normal;font-stretch:normal;font-family:'DejaVu Sans';-inkscape-font-specification:'DejaVu Sans'"
           y="19.745117"
           x="15.006836"
           sodipodi:role="line"
           id="tspan3933">apps</tspan></text>
      <text
         y="19.745117"
         xml:space="preserve"
         x="122.48828"
         style="font-style:normal;font-variant:normal;font-weight:bold;font-stretch:normal;font-size:18px;line-height:125%;font-family:'DejaVu Sans';-inkscape-font-specification:'DejaVu Sans Bold';text-align:start;writing-mode:lr-tb;text-anchor:start;display:inline;fill:#000000;fill-opacity:1;stroke:none;enable-background:new"
         sodipodi:linespacing="125%"
         inkscape:label="icon-name"
         id="icon-name"><tspan
           style="font-style:normal;font-variant:normal;font-weight:bold;font-stretch:normal;font-size:18px;font-family:'DejaVu Sans';-inkscape-font-specification:'DejaVu Sans Bold'"
           y="19.745117"
           x="122.48828"
           sodipodi:role="line"
           id="tspan3937">wiican</tspan></text>
      <rect
         style="display:inline;overflow:visible;visibility:visible;fill:#eeeeec;fill-opacity:1;fill-rule:nonzero;stroke:none;stroke-width:2;marker:none;enable-background:accumulate"
         id="rect16x16"
         width="16"
         height="16"
         x="416"
         y="140"
         inkscape:label="16x16" />
      <rect
         style="display:inline;overflow:visible;visibility:visible;fill:#d4d4d4;fill-opacity:1;fill-rule:nonzero;stroke:none;stroke-width:2;marker:none;enable-background:accumulate"
         id="rect24x24"
         width="24"
         height="24"
         x="416"
         y="100"
         inkscape:label="24x24" />
      <rect
         style="display:inline;overflow:visible;visibility:visible;fill:#eeeeec;fill-opacity:1;fill-rule:nonzero;stroke:none;stroke-width:2;marker:none;enable-background:accumulate"
         id="rect32x32"
         width="32"
         height="32"
         x="416"
         y="52"
         inkscape:label="32x32" />
      <rect
         inkscape:label="22x22"
         y="101"
         x="417"
         height="22"
         width="22"
         id="rect22x22"
         style="display:inline;overflow:visible;visibility:visible;fill:#eeeeec;fill-opacity:1;fill-rule:nonzero;stroke:none;stroke-width:2;marker:none;enable-background:accumulate" />
      <rect
         inkscape:label="48x48"
         y="220"
         x="288"
         height="48"
         width="48"
         id="rect48x48"
         style="display:inline;overflow:visible;visibility:visible;fill:#eeeeec;fill-opacity:1;fill-rule:nonzero;stroke:none;stroke-width:2;marker:none;enable-background:accumulate" />
      <rect
         style="display:inline;overflow:visible;visibility:visible;fill:#eeeeec;fill-opacity:1;fill-rule:nonzero;stroke:none;stroke-width:2;marker:none;enable-background:accumulate"
         id="rect256x256"
         width="256"
         height="256"
         x="16"
         y="28"
         inkscape:label="256x256" />
      <rect
         style="display:inline;overflow:visible;visibility:visible;fill:#eeeeec;fill-opacity:1;fill-rule:nonzero;stroke:none;stroke-width:2;marker:none;enable-background:accumulate"
         id="rect64x64"
         width="64"
         height="64"
         x="288"
         y="140"
         inkscape:label="64x64" />
      <rect
         style="display:inline;overflow:visible;visibility:visible;fill:#eeeeec;fill-opacity:1;fill-rule:nonzero;stroke:none;stroke-width:2;marker:none;enable-background:accumulate"
         id="rect96x96"
         width="96"
         height="96"
         x="288"
         y="28"
         inkscape:label="96x96" />
    </g>
    <g
       inkscape:groupmode="layer"
       id="layer4"
       inkscape:label="Shadow"
       style="display:inline"
       sodipodi:insensitive="true">
      <rect
         ry="50"
         y="47"
         x="34"
         height="220"
         width="220"
         id="rect4114"
         style="opacity:0.1;color:#bebebe;fill:#000000;fill-opacity:1;fill-rule:nonzero;stroke:none;stroke-width:0;marker:none;visibility:visible;display:inline;overflow:visible;enable-background:accumulate" />
      <rect
         style="opacity:0.1;color:#bebebe;fill:#000000;fill-opacity:1;fill-rule:nonzero;stroke:none;stroke-width:0;marker:none;visibility:visible;display:inline;overflow:visible;enable-background:accumulate"
         id="rect4120"
         width="30"
         height="30"
         x="417"
         y="54"
         ry="7" />
      <rect
         transform="scale(1,-1)"
         ry="9"
         y="-266"
         x="291"
         height="42"
         width="42"
         id="rect4122"
         style="opacity:0.1;color:#bebebe;fill:#000000;fill-opacity:1;fill-rule:nonzero;stroke:none;stroke-width:0;marker:none;visibility:visible;display:inline;overflow:visible;enable-background:accumulate" />
      <rect
         style="opacity:0.1;color:#bebebe;fill:#000000;fill-opacity:1;fill-rule:nonzero;stroke:none;stroke-width:0;marker:none;visibility:visible;display:inline;overflow:visible;enable-background:accumulate"
         id="rect4124"
         width="88"
         height="88"
         x="292"
         y="33"
         ry="18" />
      <rect
         ry="12.5"
         y="143"
         x="290"
         height="60"
         width="60"
         id="rect4126"
         style="opacity:0.1;color:#bebebe;fill:#000000;fill-opacity:1;fill-rule:nonzero;stroke:none;stroke-width:0;marker:none;visibility:visible;display:inline;overflow:visible;enable-background:accumulate" />
      <path
         id="path4268"
         d="m 422,101 c -2.77,0 -5,2.23 -5,5 l 0,12 c 0,2.77 2.23,5 5,5 l 12,0 c 2.77,0 5,-2.23 5,-5 l 0,-12 c 0,-2.77 -2.23,-5 -5,-5 z"
         style="opacity:0.1;color:#bebebe;fill:#000000;fill-opacity:1;fill-rule:nonzero;stroke:none;stroke-width:0;marker:none;visibility:visible;display:inline;overflow:visible;enable-background:accumulate"
         inkscape:connector-curvature="0"
         sodipodi:nodetypes="sssssssss" />
      <path
         id="path4270"
         d="m 419,140 c -1.662,0 -3,1.338 -3,3 l 0,10 c 0,1.662 1.338,3 3,3 l 10,0 c 1.662,0 3,-1.338 3,-3 l 0,-10 c 0,-1.662 -1.338,-3 -3,-3 z"
         style="opacity:0.1;color:#bebebe;fill:#000000;fill-opacity:1;fill-rule:nonzero;stroke:none;stroke-width:0;marker:none;visibility:visible;display:inline;overflow:visible;enable-background:accumulate"
         inkscape:connector-curvature="0"
         sodipodi:nodetypes="sssssssss" />
    </g>
    <g
       inkscape:groupmode="layer"
       id="layer2"
       inkscape:label="Background"
       style="display:inline">
      <path
         style="color:#bebebe;fill:url(#linearGradient4254);fill-opacity:1.0;fill-rule:nonzero;stroke:none;stroke-width:2;marker:none;visibility:visible;display:inline;overflow:visible;enable-background:accumulate"
         d="M 84 46.5 C 56.568735 46.5 34.5 68.568732 34.5 96 L 34.5 216 C 34.5 243.43127 56.568735 265.5 84 265.5 L 204 265.5 C 231.43127 265.5 253.5 243.43127 253.5 216 L 253.5 96 C 253.5 68.568732 231.43127 46.5 204 46.5 L 84 46.5 z "
         id="path4200" />
      <path
         style="color:#bebebe;fill:url(#linearGradient4256);fill-opacity:1.0;fill-rule:nonzero;stroke:none;stroke-width:2;marker:none;visibility:visible;display:inline;overflow:visible;enable-background:accumulate"
         d="M 419 140.5 C 417.6156 140.5 416.5 141.6156 416.5 143 L 416.5 153 C 416.5 154.3844 417.6156 155.5 419 155.5 L 429 155.5 C 430.3844 155.5 431.5 154.3844 431.5 153 L 431.5 143 C 431.5 141.6156 430.3844 140.5 429 140.5 L 419 140.5 z "
         id="path4202" />
      <path
         style="color:#bebebe;fill:url(#linearGradient3870);fill-opacity:1.0;fill-rule:nonzero;stroke:none;stroke-width:2;marker:none;visibility:visible;display:inline;overflow:visible;enable-background:accumulate"
         d="M 422 101.5 C 419.50301 101.5 417.5 103.50301 417.5 106 L 417.5 118 C 417.5 120.49699 419.50301 122.5 422 122.5 L 434 122.5 C 436.49699 122.5 438.5 120.49699 438.5 118 L 438.5 106 C 438.5 103.50301 436.49699 101.5 434 101.5 L 422 101.5 z "
         id="path4204" />
      <path
         style="color:#bebebe;fill:url(#linearGradient4260);fill-opacity:1.0;fill-rule:nonzero;stroke:none;stroke-width:2;marker:none;visibility:visible;display:inline;overflow:visible;enable-background:accumulate"
         d="M 424 53.5 C 420.39346 53.5 417.5 56.393464 417.5 60 L 417.5 76 C 417.5 79.606536 420.39346 82.5 424 82.5 L 440 82.5 C 443.60654 82.5 446.5 79.606536 446.5 76 L 446.5 60 C 446.5 56.393464 443.60654 53.5 440 53.5 L 424 53.5 z "
         id="path4206" />
      <path
         style="color:#bebebe;fill:url(#linearGradient4262);fill-opacity:1.0;fill-rule:nonzero;stroke:none;stroke-width:2;marker:none;visibility:visible;display:inline;overflow:visible;enable-background:accumulate"
         d="M 300 223.5 C 295.28469 223.5 291.5 227.28469 291.5 232 L 291.5 256 C 291.5 260.71531 295.28469 264.5 300 264.5 L 324 264.5 C 328.71531 264.5 332.5 260.71531 332.5 256 L 332.5 232 C 332.5 227.28469 328.71531 223.5 324 223.5 L 300 223.5 z "
         id="path4208" />
      <path
         style="color:#bebebe;fill:url(#linearGradient4264);fill-opacity:1.0;fill-rule:nonzero;stroke:none;stroke-width:2;marker:none;visibility:visible;display:inline;overflow:visible;enable-background:accumulate"
         d="M 310 32.5 C 300.29745 32.5 292.5 40.297452 292.5 50 L 292.5 102 C 292.5 111.70255 300.29745 119.5 310 119.5 L 362 119.5 C 371.70255 119.5 379.5 111.70255 379.5 102 L 379.5 50 C 379.5 40.297452 371.70255 32.5 362 32.5 L 310 32.5 z "
         id="path4210" />
      <path
         style="color:#bebebe;fill:url(#linearGradient4266);fill-opacity:1.0;fill-rule:nonzero;stroke:none;stroke-width:2;marker:none;visibility:visible;display:inline;overflow:visible;enable-background:accumulate"
         d="M 302.5 142.5 C 295.84498 142.5 290.5 147.84498 290.5 154.5 L 290.5 189.5 C 290.5 196.15502 295.84498 201.5 302.5 201.5 L 337.5 201.5 C 344.15502 201.5 349.5 196.15502 349.5 189.5 L 349.5 154.5 C 349.5 147.84498 344.15502 142.5 337.5 142.5 L 302.5 142.5 z "
         id="path4212" />
    </g>
    <g
       inkscape:groupmode="layer"
       id="layer6"
       inkscape:label="Symbols"
       style="display:inline">
      <path
         inkscape:connector-curvature="0"
         id="path5160"
         d="m 165.09793,85 c -3.9888,0 -7.19923,3.210419 -7.19923,7.199219 l 0,129.601561 c 0,3.9888 3.21043,7.19922 7.19923,7.19922 l 23.04101,0 c 3.9888,0 7.19922,-3.21042 7.19922,-7.19922 l 0,-129.601561 C 195.33816,88.210419 192.12774,85 188.13894,85 l -23.04101,0 z m 8.64062,16.10156 5.75977,0 0,5.75977 5.75977,0 0,5.75976 -5.75977,0 0,5.75977 -5.75977,0 0,-5.75977 -5.75976,0 0,-5.75976 5.75976,0 0,-5.75977 z m -66.28907,19.08789 c -0.80958,0.0299 -1.65469,0.12347 -2.53711,0.28711 -14.11871,2.6182 -12.93084,18.51252 -11.31055,27.25 1.6203,8.73747 14.23772,69.37738 28.73243,66.68946 14.49471,-2.68795 4.5285,-63.81918 2.9082,-72.55664 -1.51904,-8.19139 -5.64921,-22.11848 -17.79297,-21.66993 z m 69.16993,6.3711 a 6.12,6.12 0 0 1 6.11914,6.11914 6.12,6.12 0 0 1 -6.11914,6.12109 6.12,6.12 0 0 1 -6.12109,-6.12109 6.12,6.12 0 0 1 6.12109,-6.11914 z m -69.53907,5.59961 7.39453,1.57226 4.11719,6.33985 -1.57227,7.39453 -6.33789,4.11914 -7.39453,-1.57227 -4.11914,-6.33984 1.57227,-7.39453 6.33984,-4.11914 z m 1.71289,2.66015 a 7.0534932,7.0534932 0 0 0 -1.19922,0.11719 7.0534932,7.0534932 0 0 0 -5.64843,8.22266 7.0534932,7.0534932 0 0 0 8.2207,5.64843 7.0534932,7.0534932 0 0 0 5.65039,-8.22265 7.0534932,7.0534932 0 0 0 -7.02344,-5.76563 z m 67.82618,53.52149 a 4.32,4.32 0 0 1 4.31836,4.32031 4.32,4.32 0 0 1 -4.31836,4.32031 4.32,4.32 0 0 1 -4.32031,-4.32031 4.32,4.32 0 0 1 4.32031,-4.32031 z m 0,13.32422 a 4.32,4.32 0 0 1 4.31836,4.31836 4.32,4.32 0 0 1 -4.31836,4.32031 4.32,4.32 0 0 1 -4.32031,-4.32031 4.32,4.32 0 0 1 4.32031,-4.31836 z"
         style="color:#000000;display:inline;overflow:visible;visibility:visible;opacity:0.2;fill:#000000;fill-opacity:1;fill-rule:nonzero;stroke:none;stroke-width:0.40000001;stroke-linecap:butt;stroke-linejoin:bevel;stroke-miterlimit:4;stroke-dasharray:none;stroke-dashoffset:0;stroke-opacity:1;marker:none;enable-background:accumulate" />
      <path
         style="color:#000000;display:inline;overflow:visible;visibility:visible;opacity:1;fill:#ffffff;fill-opacity:1;fill-rule:nonzero;stroke:none;stroke-width:0.40000001;stroke-linecap:butt;stroke-linejoin:bevel;stroke-miterlimit:4;stroke-dasharray:none;stroke-dashoffset:0;stroke-opacity:1;marker:none;enable-background:accumulate"
         d="m 165.09793,84 c -3.9888,0 -7.19923,3.210419 -7.19923,7.199219 l 0,129.601561 c 0,3.9888 3.21043,7.19922 7.19923,7.19922 l 23.04101,0 c 3.9888,0 7.19922,-3.21042 7.19922,-7.19922 l 0,-129.601561 C 195.33816,87.210419 192.12774,84 188.13894,84 l -23.04101,0 z m 8.64062,16.10156 5.75977,0 0,5.75977 5.75977,0 0,5.75976 -5.75977,0 0,5.75977 -5.75977,0 0,-5.75977 -5.75976,0 0,-5.75976 5.75976,0 0,-5.75977 z m -66.28907,19.08789 c -0.80958,0.0299 -1.65469,0.12347 -2.53711,0.28711 -14.11871,2.6182 -12.93084,18.51252 -11.31055,27.25 1.6203,8.73747 14.23772,69.37738 28.73243,66.68946 14.49471,-2.68795 4.5285,-63.81918 2.9082,-72.55664 -1.51904,-8.19139 -5.64921,-22.11848 -17.79297,-21.66993 z m 69.16993,6.3711 a 6.12,6.12 0 0 1 6.11914,6.11914 6.12,6.12 0 0 1 -6.11914,6.12109 6.12,6.12 0 0 1 -6.12109,-6.12109 6.12,6.12 0 0 1 6.12109,-6.11914 z m -69.53907,5.59961 7.39453,1.57226 4.11719,6.33985 -1.57227,7.39453 -6.33789,4.11914 -7.39453,-1.57227 -4.11914,-6.33984 1.57227,-7.39453 6.33984,-4.11914 z m 1.71289,2.66015 a 7.0534932,7.0534932 0 0 0 -1.19922,0.11719 7.0534932,7.0534932 0 0 0 -5.64843,8.22266 7.0534932,7.0534932 0 0 0 8.2207,5.64843 7.0534932,7.0534932 0 0 0 5.65039,-8.22265 7.0534932,7.0534932 0 0 0 -7.02344,-5.76563 z m 67.82618,53.52149 a 4.32,4.32 0 0 1 4.31836,4.32031 4.32,4.32 0 0 1 -4.31836,4.32031 4.32,4.32 0 0 1 -4.32031,-4.32031 4.32,4.32 0 0 1 4.32031,-4.32031 z m 0,13.32422 a 4.32,4.32 0 0 1 4.31836,4.31836 4.32,4.32 0 0 1 -4.31836,4.32031 4.32,4.32 0 0 1 -4.32031,-4.32031 4.32,4.32 0 0 1 4.32031,-4.31836 z"
         id="rect5481-5"
         inkscape:connector-curvature="0" />
      <path
         sodipodi:nodetypes="sssssssssccsssc"
         inkscape:connector-curvature="0"
         id="path5162"
         d="m 434.63724,61 c -0.4986,0 -0.8999,0.401302 -0.8999,0.899902 l 0,16.200198 c 0,0.4986 0.4013,0.8999 0.8999,0.8999 l 2.88013,0 c 0.4986,0 0.8999,-0.4013 0.8999,-0.8999 l 0,-16.200198 c 0,-0.4986 -0.4013,-0.899902 -0.8999,-0.899902 z m -7.20606,4.398681 c -0.10119,0.0037 -0.20683,0.01543 -0.31713,0.03589 -1.76484,0.327275 -1.61636,2.314065 -1.41382,3.40625 0.20253,1.092184 1.77971,8.672173 3.59155,8.336183 1.81184,-0.335994 0.56606,-7.977398 0.36353,-9.06958 -0.18988,-1.023924 -0.70616,-2.76481 -2.22413,-2.708743 z"
         style="color:#000000;display:inline;overflow:visible;visibility:visible;opacity:0.2;fill:#000000;fill-opacity:1;fill-rule:nonzero;stroke:none;stroke-width:0.40000001;stroke-linecap:butt;stroke-linejoin:bevel;stroke-miterlimit:4;stroke-dasharray:none;stroke-dashoffset:0;stroke-opacity:1;marker:none;enable-background:accumulate" />
      <path
         style="color:#000000;display:inline;overflow:visible;visibility:visible;opacity:1;fill:#ffffff;fill-opacity:1;fill-rule:nonzero;stroke:none;stroke-width:0.40000001;stroke-linecap:butt;stroke-linejoin:bevel;stroke-miterlimit:4;stroke-dasharray:none;stroke-dashoffset:0;stroke-opacity:1;marker:none;enable-background:accumulate"
         d="m 434.63724,60 c -0.4986,0 -0.8999,0.401302 -0.8999,0.899902 l 0,16.200198 c 0,0.4986 0.4013,0.8999 0.8999,0.8999 l 2.88013,0 c 0.4986,0 0.8999,-0.4013 0.8999,-0.8999 l 0,-16.200198 c 0,-0.4986 -0.4013,-0.899902 -0.8999,-0.899902 z m -7.20606,4.398681 c -0.10119,0.0037 -0.20683,0.01543 -0.31713,0.03589 -1.76484,0.327275 -1.61636,2.314065 -1.41382,3.40625 0.20253,1.092184 1.77971,8.672173 3.59155,8.336183 1.81184,-0.335994 0.56606,-7.977398 0.36353,-9.06958 -0.18988,-1.023924 -0.70616,-2.76481 -2.22413,-2.708743 z"
         id="rect5481-5-3"
         inkscape:connector-curvature="0"
         sodipodi:nodetypes="sssssssssccsssc" />
      <path
         sodipodi:nodetypes="sssssssssccsssc"
         inkscape:connector-curvature="0"
         id="path5164"
         d="m 430.05119,106 c -0.3878,0 -0.69993,0.31212 -0.69993,0.69992 l 0,12.60016 c 0,0.3878 0.31213,0.69992 0.69993,0.69992 l 2.2401,0 c 0.3878,0 0.69992,-0.31212 0.69992,-0.69992 l 0,-12.60016 c 0,-0.3878 -0.31212,-0.69992 -0.69992,-0.69992 z m -5.60471,3.4212 c -0.0787,0.003 -0.16088,0.012 -0.24667,0.0279 -1.37265,0.25455 -1.25716,1.79983 -1.09963,2.64931 0.15753,0.84947 1.38422,6.74502 2.79343,6.48369 1.4092,-0.26133 0.44027,-6.20464 0.28274,-7.05411 -0.14769,-0.79639 -0.54923,-2.15041 -1.72987,-2.10679 z"
         style="color:#000000;display:inline;overflow:visible;visibility:visible;opacity:0.2;fill:#000000;fill-opacity:1;fill-rule:nonzero;stroke:none;stroke-width:0.40000001;stroke-linecap:butt;stroke-linejoin:bevel;stroke-miterlimit:4;stroke-dasharray:none;stroke-dashoffset:0;stroke-opacity:1;marker:none;enable-background:accumulate" />
      <path
         style="color:#000000;display:inline;overflow:visible;visibility:visible;opacity:1;fill:#ffffff;fill-opacity:1;fill-rule:nonzero;stroke:none;stroke-width:0.40000001;stroke-linecap:butt;stroke-linejoin:bevel;stroke-miterlimit:4;stroke-dasharray:none;stroke-dashoffset:0;stroke-opacity:1;marker:none;enable-background:accumulate"
         d="m 430.05119,105 c -0.3878,0 -0.69993,0.31212 -0.69993,0.69992 l 0,12.60016 c 0,0.3878 0.31213,0.69992 0.69993,0.69992 l 2.2401,0 c 0.3878,0 0.69992,-0.31212 0.69992,-0.69992 l 0,-12.60016 c 0,-0.3878 -0.31212,-0.69992 -0.69992,-0.69992 z m -5.60471,3.4212 c -0.0787,0.003 -0.16088,0.012 -0.24667,0.0279 -1.37265,0.25455 -1.25716,1.79983 -1.09963,2.64931 0.15753,0.84947 1.38422,6.74502 2.79343,6.48369 1.4092,-0.26133 0.44027,-6.20464 0.28274,-7.05411 -0.14769,-0.79639 -0.54923,-2.15041 -1.72987,-2.10679 z"
         id="rect5481-5-4"
         inkscape:connector-curvature="0"
         sodipodi:nodetypes="sssssssssccsssc" />
      <path
         sodipodi:nodetypes="sssssssssccssccc"
         inkscape:connector-curvature="0"
         id="path5166"
         d="m 425.31862,144.5 c -0.2493,0 -0.44996,0.20065 -0.44996,0.44995 l 0,8.1001 c 0,0.2493 0.20066,0.44995 0.44996,0.44995 l 1.44006,0 c 0.2493,0 0.44995,-0.20065 0.44995,-0.44995 l 0,-8.1001 c 0,-0.2493 -0.20065,-0.44995 -0.44995,-0.44995 z m -3.60303,2.19934 c -0.0506,0.002 -0.10342,0.008 -0.15857,0.0179 -0.88242,0.16364 -0.80818,1.15704 -0.70691,1.70313 0.10127,0.54609 0.88986,4.33609 1.79578,4.16809 0.90591,-0.168 0.28303,-3.9887 0.18176,-4.53479 -0.0949,-0.51196 -0.35308,-1.3824 -1.11206,-1.35437 z"
         style="color:#000000;display:inline;overflow:visible;visibility:visible;opacity:0.2;fill:#000000;fill-opacity:1;fill-rule:nonzero;stroke:none;stroke-width:0.40000001;stroke-linecap:butt;stroke-linejoin:bevel;stroke-miterlimit:4;stroke-dasharray:none;stroke-dashoffset:0;stroke-opacity:1;marker:none;enable-background:accumulate" />
      <path
         style="color:#000000;display:inline;overflow:visible;visibility:visible;opacity:1;fill:#ffffff;fill-opacity:1;fill-rule:nonzero;stroke:none;stroke-width:0.40000001;stroke-linecap:butt;stroke-linejoin:bevel;stroke-miterlimit:4;stroke-dasharray:none;stroke-dashoffset:0;stroke-opacity:1;marker:none;enable-background:accumulate"
         d="m 425.31862,143.5 c -0.2493,0 -0.44996,0.20065 -0.44996,0.44995 l 0,8.1001 c 0,0.2493 0.20066,0.44995 0.44996,0.44995 l 1.44006,0 c 0.2493,0 0.44995,-0.20065 0.44995,-0.44995 l 0,-8.1001 c 0,-0.2493 -0.20065,-0.44995 -0.44995,-0.44995 z m -3.60303,2.19934 c -0.0506,0.002 -0.10342,0.008 -0.15857,0.0179 -0.88242,0.16364 -0.80818,1.15704 -0.70691,1.70313 0.10127,0.54609 0.88986,4.33609 1.79578,4.16809 0.90591,-0.168 0.28303,-3.9887 0.18176,-4.53479 -0.0949,-0.51196 -0.35308,-1.3824 -1.11206,-1.35437 z"
         id="rect5481-5-6"
         inkscape:connector-curvature="0"
         sodipodi:nodetypes="sssssssssccssccc" />
      <path
         style="color:#000000;display:inline;overflow:visible;visibility:visible;opacity:0.2;fill:#000000;fill-opacity:1;fill-rule:nonzero;stroke:none;stroke-width:0.40000001;stroke-linecap:butt;stroke-linejoin:bevel;stroke-miterlimit:4;stroke-dasharray:none;stroke-dashoffset:0;stroke-opacity:1;marker:none;enable-background:accumulate"
         d="m 343.6187,51 c -1.4404,0 -2.59973,1.159318 -2.59973,2.599718 l 0,46.800562 c 0,1.4404 1.15933,2.59972 2.59973,2.59972 l 8.32036,0 c 1.4404,0 2.59972,-1.15932 2.59972,-2.59972 l 0,-46.800562 C 354.53878,52.159318 353.37946,51 351.93906,51 l -8.32036,0 z m 3.12022,5.814452 2.07992,0 0,2.079917 2.07991,0 0,2.079913 -2.07991,0 0,2.079917 -2.07992,0 0,-2.079917 -2.07991,0 0,-2.079913 2.07991,0 0,-2.079917 z m -23.93772,6.892849 c -0.29235,0.0108 -0.59753,0.04459 -0.91618,0.103679 -5.09842,0.945461 -4.66947,6.685077 -4.08436,9.840278 0.58511,3.155197 5.1414,25.052943 10.3756,24.082305 5.2342,-0.970649 1.63529,-23.045815 1.05018,-26.201009 -0.54854,-2.958002 -2.03999,-7.987229 -6.42524,-7.825253 z m 24.97803,2.300675 a 2.21,2.21 0 0 1 2.20969,2.20969 2.21,2.21 0 0 1 -2.20969,2.210393 2.21,2.21 0 0 1 -2.21039,-2.210393 2.21,2.21 0 0 1 2.21039,-2.20969 z m -25.11133,2.022082 2.67025,0.56776 1.48676,2.289391 -0.56776,2.670247 -2.28869,1.487467 -2.67024,-0.567764 -1.48747,-2.289387 0.56776,-2.670247 2.28939,-1.487467 z m 0.61854,0.960609 a 2.5470948,2.5470948 0 0 0 -0.43305,0.04232 2.5470948,2.5470948 0 0 0 -2.03971,2.969294 2.5470948,2.5470948 0 0 0 2.96859,2.039711 2.5470948,2.5470948 0 0 0 2.04042,-2.96929 2.5470948,2.5470948 0 0 0 -2.53625,-2.082034 z m 24.49279,19.327205 a 1.56,1.56 0 0 1 1.55941,1.560112 1.56,1.56 0 0 1 -1.55941,1.560112 1.56,1.56 0 0 1 -1.56011,-1.560112 1.56,1.56 0 0 1 1.56011,-1.560112 z m 0,4.811524 a 1.56,1.56 0 0 1 1.55941,1.559408 1.56,1.56 0 0 1 -1.55941,1.560112 1.56,1.56 0 0 1 -1.56011,-1.560112 1.56,1.56 0 0 1 1.56011,-1.559408 z"
         id="path5168"
         inkscape:connector-curvature="0" />
      <path
         inkscape:connector-curvature="0"
         id="path4821"
         d="m 343.6187,50 c -1.4404,0 -2.59973,1.159318 -2.59973,2.599718 l 0,46.800564 c 0,1.440398 1.15933,2.599718 2.59973,2.599718 l 8.32036,0 c 1.4404,0 2.59972,-1.15932 2.59972,-2.599718 l 0,-46.800564 C 354.53878,51.159318 353.37946,50 351.93906,50 l -8.32036,0 z m 3.12022,5.814452 2.07992,0 0,2.079917 2.07991,0 0,2.079913 -2.07991,0 0,2.079917 -2.07992,0 0,-2.079917 -2.07991,0 0,-2.079913 2.07991,0 0,-2.079917 z m -23.93772,6.892849 c -0.29235,0.0108 -0.59753,0.04459 -0.91618,0.103679 -5.09842,0.945461 -4.66947,6.685077 -4.08436,9.840278 0.58511,3.155197 5.1414,25.052943 10.3756,24.082305 5.2342,-0.970649 1.63529,-23.045815 1.05018,-26.201009 -0.54854,-2.958002 -2.03999,-7.987229 -6.42524,-7.825253 z m 24.97803,2.300675 a 2.21,2.21 0 0 1 2.20969,2.20969 2.21,2.21 0 0 1 -2.20969,2.210393 2.21,2.21 0 0 1 -2.21039,-2.210393 2.21,2.21 0 0 1 2.21039,-2.20969 z m -25.11133,2.022082 2.67025,0.56776 1.48676,2.289391 -0.56776,2.670247 -2.28869,1.487467 -2.67024,-0.567764 -1.48747,-2.289387 0.56776,-2.670247 2.28939,-1.487467 z m 0.61854,0.960609 a 2.5470948,2.5470948 0 0 0 -0.43305,0.04232 2.5470948,2.5470948 0 0 0 -2.03971,2.969294 2.5470948,2.5470948 0 0 0 2.96859,2.039711 2.5470948,2.5470948 0 0 0 2.04042,-2.96929 2.5470948,2.5470948 0 0 0 -2.53625,-2.082034 z m 24.49279,19.327205 a 1.56,1.56 0 0 1 1.55941,1.560112 1.56,1.56 0 0 1 -1.55941,1.560112 1.56,1.56 0 0 1 -1.56011,-1.560112 1.56,1.56 0 0 1 1.56011,-1.560112 z m 0,4.811524 a 1.56,1.56 0 0 1 1.55941,1.559408 1.56,1.56 0 0 1 -1.55941,1.560112 1.56,1.56 0 0 1 -1.56011,-1.560112 1.56,1.56 0 0 1 1.56011,-1.559408 z"
         style="color:#000000;display:inline;overflow:visible;visibility:visible;opacity:1;fill:#ffffff;fill-opacity:1;fill-rule:nonzero;stroke:none;stroke-width:0.40000001;stroke-linecap:butt;stroke-linejoin:bevel;stroke-miterlimit:4;stroke-dasharray:none;stroke-dashoffset:0;stroke-opacity:1;marker:none;enable-background:accumulate" />
      <path
         style="color:#000000;display:inline;overflow:visible;visibility:visible;opacity:0.2;fill:#000000;fill-opacity:1;fill-rule:nonzero;stroke:none;stroke-width:0.40000001;stroke-linecap:butt;stroke-linejoin:bevel;stroke-miterlimit:4;stroke-dasharray:none;stroke-dashoffset:0;stroke-opacity:1;marker:none;enable-background:accumulate"
         d="m 325.27448,156 c -0.9972,0 -1.7998,0.8026 -1.7998,1.7998 l 0,32.40039 c 0,0.9972 0.8026,1.79981 1.7998,1.79981 l 5.76026,0 c 0.9972,0 1.7998,-0.80261 1.7998,-1.79981 l 0,-32.40039 c 0,-0.9972 -0.8026,-1.7998 -1.7998,-1.7998 l -5.76026,0 z m 2.16016,4.02539 1.43994,0 0,1.43994 1.43994,0 0,1.43994 -1.43994,0 0,1.43995 -1.43994,0 0,-1.43995 -1.43994,0 0,-1.43994 1.43994,0 0,-1.43994 z m -16.57227,4.77197 c -0.2024,0.007 -0.41367,0.0309 -0.63428,0.0718 -3.52968,0.65455 -3.23271,4.62813 -2.82764,6.8125 0.40508,2.18437 3.55943,17.34434 7.18311,16.67236 3.62368,-0.67198 1.13213,-15.95479 0.72705,-18.13916 -0.37976,-2.04784 -1.4123,-5.52961 -4.44824,-5.41748 z m 17.29248,1.59278 a 1.53,1.53 0 0 1 1.52979,1.52978 1.53,1.53 0 0 1 -1.52979,1.53027 1.53,1.53 0 0 1 -1.53027,-1.53027 1.53,1.53 0 0 1 1.53027,-1.52978 z m -17.38477,1.3999 1.84864,0.39307 1.02929,1.58496 -0.39306,1.84863 -1.58448,1.02978 -1.84863,-0.39306 -1.02978,-1.58496 0.39306,-1.84863 1.58496,-1.02979 z m 0.42823,0.66504 a 1.7633733,1.7633733 0 0 0 -0.29981,0.0293 1.7633733,1.7633733 0 0 0 -1.41211,2.05566 1.7633733,1.7633733 0 0 0 2.05518,1.41211 1.7633733,1.7633733 0 0 0 1.4126,-2.05567 1.7633733,1.7633733 0 0 0 -1.75586,-1.4414 z m 16.95654,13.38037 a 1.08,1.08 0 0 1 1.07959,1.08008 1.08,1.08 0 0 1 -1.07959,1.08007 1.08,1.08 0 0 1 -1.08007,-1.08007 1.08,1.08 0 0 1 1.08007,-1.08008 z m 0,3.33105 a 1.08,1.08 0 0 1 1.07959,1.07959 1.08,1.08 0 0 1 -1.07959,1.08008 1.08,1.08 0 0 1 -1.08007,-1.08008 1.08,1.08 0 0 1 1.08007,-1.07959 z"
         id="path5170"
         inkscape:connector-curvature="0" />
      <path
         inkscape:connector-curvature="0"
         id="path4823"
         d="m 325.27448,155 c -0.9972,0 -1.7998,0.8026 -1.7998,1.7998 l 0,32.40039 c 0,0.9972 0.8026,1.79981 1.7998,1.79981 l 5.76026,0 c 0.9972,0 1.7998,-0.80261 1.7998,-1.79981 l 0,-32.40039 c 0,-0.9972 -0.8026,-1.7998 -1.7998,-1.7998 l -5.76026,0 z m 2.16016,4.02539 1.43994,0 0,1.43994 1.43994,0 0,1.43994 -1.43994,0 0,1.43995 -1.43994,0 0,-1.43995 -1.43994,0 0,-1.43994 1.43994,0 0,-1.43994 z m -16.57227,4.77197 c -0.2024,0.007 -0.41367,0.0309 -0.63428,0.0718 -3.52968,0.65455 -3.23271,4.62813 -2.82764,6.8125 0.40508,2.18437 3.55943,17.34434 7.18311,16.67236 3.62368,-0.67198 1.13213,-15.95479 0.72705,-18.13916 -0.37976,-2.04784 -1.4123,-5.52961 -4.44824,-5.41748 z m 17.29248,1.59278 a 1.53,1.53 0 0 1 1.52979,1.52978 1.53,1.53 0 0 1 -1.52979,1.53027 1.53,1.53 0 0 1 -1.53027,-1.53027 1.53,1.53 0 0 1 1.53027,-1.52978 z m -17.38477,1.3999 1.84864,0.39307 1.02929,1.58496 -0.39306,1.84863 -1.58448,1.02978 -1.84863,-0.39306 -1.02978,-1.58496 0.39306,-1.84863 1.58496,-1.02979 z m 0.42823,0.66504 a 1.7633733,1.7633733 0 0 0 -0.29981,0.0293 1.7633733,1.7633733 0 0 0 -1.41211,2.05566 1.7633733,1.7633733 0 0 0 2.05518,1.41211 1.7633733,1.7633733 0 0 0 1.4126,-2.05567 1.7633733,1.7633733 0 0 0 -1.75586,-1.4414 z m 16.95654,13.38037 a 1.08,1.08 0 0 1 1.07959,1.08008 1.08,1.08 0 0 1 -1.07959,1.08007 1.08,1.08 0 0 1 -1.08007,-1.08007 1.08,1.08 0 0 1 1.08007,-1.08008 z m 0,3.33105 a 1.08,1.08 0 0 1 1.07959,1.07959 1.08,1.08 0 0 1 -1.07959,1.08008 1.08,1.08 0 0 1 -1.08007,-1.08008 1.08,1.08 0 0 1 1.08007,-1.07959 z"
         style="color:#000000;display:inline;overflow:visible;visibility:visible;opacity:1;fill:#ffffff;fill-opacity:1;fill-rule:nonzero;stroke:none;stroke-width:0.40000001;stroke-linecap:butt;stroke-linejoin:bevel;stroke-miterlimit:4;stroke-dasharray:none;stroke-dashoffset:0;stroke-opacity:1;marker:none;enable-background:accumulate" />
      <path
         style="color:#000000;display:inline;overflow:visible;visibility:visible;opacity:0.2;fill:#000000;fill-opacity:1;fill-rule:nonzero;stroke:none;stroke-width:0.40000001;stroke-linecap:butt;stroke-linejoin:bevel;stroke-miterlimit:4;stroke-dasharray:none;stroke-dashoffset:0;stroke-opacity:1;marker:none;enable-background:accumulate"
         d="m 315.80935,232 c -0.7202,0 -1.29986,0.57966 -1.29986,1.29986 l 0,23.40028 c 0,0.7202 0.57966,1.29986 1.29986,1.29986 l 4.16018,0 c 0.7202,0 1.29986,-0.57966 1.29986,-1.29986 l 0,-23.40028 c 0,-0.7202 -0.57966,-1.29986 -1.29986,-1.29986 l -4.16018,0 z m 1.56011,2.90723 1.03996,0 0,1.03995 1.03996,0 0,1.03996 -1.03996,0 0,1.03996 -1.03996,0 0,-1.03996 -1.03996,0 0,-1.03996 1.03996,0 0,-1.03995 z m -11.96886,3.44642 c -0.14617,0.005 -0.29876,0.0223 -0.45809,0.0518 -2.54921,0.47273 -2.33473,3.34254 -2.04218,4.92014 0.29255,1.5776 2.5707,12.52647 5.1878,12.04115 2.6171,-0.48532 0.81764,-11.52291 0.52509,-13.1005 -0.27427,-1.479 -1.02,-3.99362 -3.21262,-3.91263 z m 12.48902,1.15034 a 1.105,1.105 0 0 1 1.10484,1.10484 1.105,1.105 0 0 1 -1.10484,1.1052 1.105,1.105 0 0 1 -1.1052,-1.1052 1.105,1.105 0 0 1 1.1052,-1.10484 z m -12.55567,1.01104 1.33512,0.28388 0.74338,1.1447 -0.28388,1.33512 -1.14434,0.74373 -1.33512,-0.28388 -0.74374,-1.14469 0.28389,-1.33513 1.14469,-0.74373 z m 0.30927,0.4803 a 1.2735474,1.2735474 0 0 0 -0.21652,0.0212 1.2735474,1.2735474 0 0 0 -1.01986,1.48465 1.2735474,1.2735474 0 0 0 1.48429,1.01986 1.2735474,1.2735474 0 0 0 1.02021,-1.48465 1.2735474,1.2735474 0 0 0 -1.26812,-1.04102 z m 12.2464,9.66361 a 0.78,0.78 0 0 1 0.7797,0.78005 0.78,0.78 0 0 1 -0.7797,0.78006 0.78,0.78 0 0 1 -0.78006,-0.78006 0.78,0.78 0 0 1 0.78006,-0.78005 z m 0,2.40576 a 0.78,0.78 0 0 1 0.7797,0.7797 0.78,0.78 0 0 1 -0.7797,0.78006 0.78,0.78 0 0 1 -0.78006,-0.78006 0.78,0.78 0 0 1 0.78006,-0.7797 z"
         id="path5172"
         inkscape:connector-curvature="0" />
      <path
         inkscape:connector-curvature="0"
         id="path4825"
         d="m 315.80935,231 c -0.7202,0 -1.29986,0.57966 -1.29986,1.29986 l 0,23.40028 c 0,0.7202 0.57966,1.29986 1.29986,1.29986 l 4.16018,0 c 0.7202,0 1.29986,-0.57966 1.29986,-1.29986 l 0,-23.40028 c 0,-0.7202 -0.57966,-1.29986 -1.29986,-1.29986 l -4.16018,0 z m 1.56011,2.90723 1.03996,0 0,1.03995 1.03996,0 0,1.03996 -1.03996,0 0,1.03996 -1.03996,0 0,-1.03996 -1.03996,0 0,-1.03996 1.03996,0 0,-1.03995 z m -11.96886,3.44642 c -0.14617,0.005 -0.29876,0.0223 -0.45809,0.0518 -2.54921,0.47273 -2.33473,3.34254 -2.04218,4.92014 0.29255,1.5776 2.5707,12.52647 5.1878,12.04115 2.6171,-0.48532 0.81764,-11.52291 0.52509,-13.1005 -0.27427,-1.479 -1.02,-3.99362 -3.21262,-3.91263 z m 12.48902,1.15034 a 1.105,1.105 0 0 1 1.10484,1.10484 1.105,1.105 0 0 1 -1.10484,1.1052 1.105,1.105 0 0 1 -1.1052,-1.1052 1.105,1.105 0 0 1 1.1052,-1.10484 z m -12.55567,1.01104 1.33512,0.28388 0.74338,1.1447 -0.28388,1.33512 -1.14434,0.74373 -1.33512,-0.28388 -0.74374,-1.14469 0.28389,-1.33513 1.14469,-0.74373 z m 0.30927,0.4803 a 1.2735474,1.2735474 0 0 0 -0.21652,0.0212 1.2735474,1.2735474 0 0 0 -1.01986,1.48465 1.2735474,1.2735474 0 0 0 1.48429,1.01986 1.2735474,1.2735474 0 0 0 1.02021,-1.48465 1.2735474,1.2735474 0 0 0 -1.26812,-1.04102 z m 12.2464,9.66361 a 0.78,0.78 0 0 1 0.7797,0.78005 0.78,0.78 0 0 1 -0.7797,0.78006 0.78,0.78 0 0 1 -0.78006,-0.78006 0.78,0.78 0 0 1 0.78006,-0.78005 z m 0,2.40576 a 0.78,0.78 0 0 1 0.7797,0.7797 0.78,0.78 0 0 1 -0.7797,0.78006 0.78,0.78 0 0 1 -0.78006,-0.78006 0.78,0.78 0 0 1 0.78006,-0.7797 z"
         style="color:#000000;display:inline;overflow:visible;visibility:visible;opacity:1;fill:#ffffff;fill-opacity:1;fill-rule:nonzero;stroke:none;stroke-width:0.40000001;stroke-linecap:butt;stroke-linejoin:bevel;stroke-miterlimit:4;stroke-dasharray:none;stroke-dashoffset:0;stroke-opacity:1;marker:none;enable-background:accumulate" />
    </g>
    <g
       inkscape:groupmode="layer"
       id="layer5"
       inkscape:label="Highlights"
       style="display:inline"
       sodipodi:insensitive="true">
      <path
         style="opacity:0.12999998;color:#bebebe;fill:#ffffff;fill-opacity:1;fill-rule:nonzero;stroke:none;stroke-width:0;marker:none;visibility:visible;display:inline;overflow:visible;enable-background:accumulate"
         d="M 84,47 C 56.836703,47 35,68.836703 35,96 l 0,1 C 35,69.836703 56.836703,48 84,48 l 120,0 c 27.1633,0 49,21.836703 49,49 l 0,-1 C 253,68.836703 231.1633,47 204,47 L 84,47 z"
         id="rect3894"
         inkscape:connector-curvature="0" />
      <path
         style="opacity:0.12999998;color:#bebebe;fill:#ffffff;fill-opacity:1;fill-rule:nonzero;stroke:none;stroke-width:0;marker:none;visibility:visible;display:inline;overflow:visible;enable-background:accumulate"
         d="m 419,141 c -1.1253,0 -2,0.8747 -2,2 l 0,1 c 0,-1.1253 0.8747,-2 2,-2 l 10,0 c 1.1253,0 2,0.8747 2,2 l 0,-1 c 0,-1.1253 -0.8747,-2 -2,-2 l -10,0 z"
         id="rect3896"
         inkscape:connector-curvature="0" />
      <path
         style="opacity:0.12999998;color:#bebebe;fill:#ffffff;fill-opacity:1;fill-rule:nonzero;stroke:none;stroke-width:0;marker:none;visibility:visible;display:inline;overflow:visible;enable-background:accumulate"
         d="m 422,102 c -2.2333,0 -4,1.7667 -4,4 l 0,1 c 0,-2.2333 1.7667,-4 4,-4 l 12,0 c 2.2333,0 4,1.7667 4,4 l 0,-1 c 0,-2.2333 -1.7667,-4 -4,-4 l -12,0 z"
         id="rect3898"
         inkscape:connector-curvature="0" />
      <path
         style="opacity:0.12999998;color:#bebebe;fill:#ffffff;fill-opacity:1;fill-rule:nonzero;stroke:none;stroke-width:0;marker:none;visibility:visible;display:inline;overflow:visible;enable-background:accumulate"
         d="m 424,54 c -3.3413,0 -6,2.658703 -6,6 l 0,1 c 0,-3.341297 2.6587,-6 6,-6 l 16,0 c 3.3413,0 6,2.658703 6,6 l 0,-1 c 0,-3.341297 -2.6587,-6 -6,-6 l -16,0 z"
         id="rect3900"
         inkscape:connector-curvature="0" />
      <path
         style="opacity:0.12999998;color:#bebebe;fill:#ffffff;fill-opacity:1;fill-rule:nonzero;stroke:none;stroke-width:0;marker:none;visibility:visible;display:inline;overflow:visible;enable-background:accumulate"
         d="m 300,224 c -4.4493,0 -8,3.5507 -8,8 l 0,1 c 0,-4.4493 3.5507,-8 8,-8 l 24,0 c 4.4493,0 8,3.5507 8,8 l 0,-1 c 0,-4.4493 -3.5507,-8 -8,-8 l -24,0 z"
         id="rect3902"
         inkscape:connector-curvature="0" />
      <path
         style="opacity:0.12999998;color:#bebebe;fill:#ffffff;fill-opacity:1;fill-rule:nonzero;stroke:none;stroke-width:0;marker:none;visibility:visible;display:inline;overflow:visible;enable-background:accumulate"
         d="m 310,33 c -9.4353,0 -17,7.564703 -17,17 l 0,1 c 0,-9.435297 7.5647,-17 17,-17 l 52,0 c 9.4353,0 17,7.564703 17,17 l 0,-1 c 0,-9.435297 -7.5647,-17 -17,-17 l -52,0 z"
         id="rect3904"
         inkscape:connector-curvature="0" />
      <path
         style="opacity:0.12999998;color:#bebebe;fill:#ffffff;fill-opacity:1;fill-rule:nonzero;stroke:none;stroke-width:0;marker:none;visibility:visible;display:inline;overflow:visible;enable-background:accumulate"
         d="m 302.5,143 c -6.3883,0 -11.5,5.1117 -11.5,11.5 l 0,1 c 0,-6.3883 5.1117,-11.5 11.5,-11.5 l 35,0 c 6.3883,0 11.5,5.1117 11.5,11.5 l 0,-1 c 0,-6.3883 -5.1117,-11.5 -11.5,-11.5 l -35,0 z"
         id="rect3906"
         inkscape:connector-curvature="0" />
      <path
         id="path4085"
         d="m 204,266 c 27.1633,0 49,-21.8367 49,-49 l 0,-1 c 0,27.1633 -21.8367,49 -49,49 L 84,265 C 56.8367,265 35,243.1633 35,216 l 0,1 c 0,27.1633 21.8367,49 49,49 l 120,0 z"
         style="opacity:0.5;color:#bebebe;fill:#000000;fill-opacity:1;fill-rule:nonzero;stroke:none;stroke-width:0;marker:none;visibility:visible;display:inline;overflow:visible;enable-background:accumulate"
         inkscape:connector-curvature="0" />
      <path
         id="path4087"
         d="m 429,156 c 1.1253,0 2,-0.8747 2,-2 l 0,-1 c 0,1.1253 -0.8747,2 -2,2 l -10,0 c -1.1253,0 -2,-0.8747 -2,-2 l 0,1 c 0,1.1253 0.8747,2 2,2 l 10,0 z"
         style="opacity:0.3;color:#bebebe;fill:#000000;fill-opacity:1;fill-rule:nonzero;stroke:none;stroke-width:0;marker:none;visibility:visible;display:inline;overflow:visible;enable-background:accumulate"
         inkscape:connector-curvature="0" />
      <path
         id="path4089"
         d="m 434,123 c 2.2333,0 4,-1.7667 4,-4 l 0,-1 c 0,2.2333 -1.7667,4 -4,4 l -12,0 c -2.2333,0 -4,-1.7667 -4,-4 l 0,1 c 0,2.2333 1.7667,4 4,4 l 12,0 z"
         style="opacity:0.3;color:#bebebe;fill:#000000;fill-opacity:1;fill-rule:nonzero;stroke:none;stroke-width:0;marker:none;visibility:visible;display:inline;overflow:visible;enable-background:accumulate"
         inkscape:connector-curvature="0" />
      <path
         id="path4091"
         d="m 440,83 c 3.3413,0 6,-2.6587 6,-6 l 0,-1 c 0,3.3413 -2.6587,6 -6,6 l -16,0 c -3.3413,0 -6,-2.6587 -6,-6 l 0,1 c 0,3.3413 2.6587,6 6,6 l 16,0 z"
         style="opacity:0.5;color:#bebebe;fill:#000000;fill-opacity:1;fill-rule:nonzero;stroke:none;stroke-width:0;marker:none;visibility:visible;display:inline;overflow:visible;enable-background:accumulate"
         inkscape:connector-curvature="0" />
      <path
         id="path4093"
         d="m 324,265 c 4.4493,0 8,-3.5507 8,-8 l 0,-1 c 0,4.4493 -3.5507,8 -8,8 l -24,0 c -4.4493,0 -8,-3.5507 -8,-8 l 0,1 c 0,4.4493 3.5507,8 8,8 l 24,0 z"
         style="opacity:0.5;color:#bebebe;fill:#000000;fill-opacity:1;fill-rule:nonzero;stroke:none;stroke-width:0;marker:none;visibility:visible;display:inline;overflow:visible;enable-background:accumulate"
         inkscape:connector-curvature="0" />
      <path
         id="path4095"
         d="m 362,120 c 9.4353,0 17,-7.5647 17,-17 l 0,-1 c 0,9.4353 -7.5647,17 -17,17 l -52,0 c -9.4353,0 -17,-7.5647 -17,-17 l 0,1 c 0,9.4353 7.5647,17 17,17 l 52,0 z"
         style="opacity:0.5;color:#bebebe;fill:#000000;fill-opacity:1;fill-rule:nonzero;stroke:none;stroke-width:0;marker:none;visibility:visible;display:inline;overflow:visible;enable-background:accumulate"
         inkscape:connector-curvature="0" />
      <path
         id="path4097"
         d="m 337.5,202 c 6.3883,0 11.5,-5.1117 11.5,-11.5 l 0,-1 c 0,6.3883 -5.1117,11.5 -11.5,11.5 l -35,0 c -6.3883,0 -11.5,-5.1117 -11.5,-11.5 l 0,1 c 0,6.3883 5.1117,11.5 11.5,11.5 l 35,0 z"
         style="opacity:0.5;color:#bebebe;fill:#000000;fill-opacity:1;fill-rule:nonzero;stroke:none;stroke-width:0;marker:none;visibility:visible;display:inline;overflow:visible;enable-background:accumulate"
         inkscape:connector-curvature="0" />
      <path
         inkscape:connector-curvature="0"
         id="path4280"
         d="M 84,265 C 56.836703,265 35,243.1633 35,216 l 0,-1 c 0,27.1633 21.836703,49 49,49 l 120,0 c 27.1633,0 49,-21.8367 49,-49 l 0,1 c 0,27.1633 -21.8367,49 -49,49 l -120,0 z"
         style="opacity:0.1;color:#bebebe;fill:#ffffff;fill-opacity:1;fill-rule:nonzero;stroke:none;stroke-width:0;marker:none;visibility:visible;display:inline;overflow:visible;enable-background:accumulate" />
      <path
         style="opacity:0.1;color:#bebebe;fill:#ffffff;fill-opacity:1;fill-rule:nonzero;stroke:none;stroke-width:0;marker:none;visibility:visible;display:inline;overflow:visible;enable-background:accumulate"
         d="m 300,264 c -4.4493,0 -8,-3.5507 -8,-8 l 0,-1 c 0,4.4493 3.5507,8 8,8 l 24,0 c 4.4493,0 8,-3.5507 8,-8 l 0,1 c 0,4.4493 -3.5507,8 -8,8 l -24,0 z"
         id="path4294"
         inkscape:connector-curvature="0" />
      <path
         style="opacity:0.1;color:#bebebe;fill:#ffffff;fill-opacity:1;fill-rule:nonzero;stroke:none;stroke-width:0;marker:none;visibility:visible;display:inline;overflow:visible;enable-background:accumulate"
         d="m 302.5,201 c -6.3883,0 -11.5,-5.1117 -11.5,-11.5 l 0,-1 c 0,6.3883 5.1117,11.5 11.5,11.5 l 35,0 c 6.3883,0 11.5,-5.1117 11.5,-11.5 l 0,1 c 0,6.3883 -5.1117,11.5 -11.5,11.5 l -35,0 z"
         id="path4296"
         inkscape:connector-curvature="0" />
      <path
         style="opacity:0.1;color:#bebebe;fill:#ffffff;fill-opacity:1;fill-rule:nonzero;stroke:none;stroke-width:0;marker:none;visibility:visible;display:inline;overflow:visible;enable-background:accumulate"
         d="m 310,119 c -9.4353,0 -17,-7.5647 -17,-17 l 0,-1 c 0,9.4353 7.5647,17 17,17 l 52,0 c 9.4353,0 17,-7.5647 17,-17 l 0,1 c 0,9.4353 -7.5647,17 -17,17 l -52,0 z"
         id="path4298"
         inkscape:connector-curvature="0" />
      <path
         style="opacity:0.1;color:#bebebe;fill:#ffffff;fill-opacity:1;fill-rule:nonzero;stroke:none;stroke-width:0;marker:none;visibility:visible;display:inline;overflow:visible;enable-background:accumulate"
         d="m 424,82 c -3.3413,0 -6,-2.658703 -6,-6 l 0,-1 c 0,3.341297 2.6587,6 6,6 l 16,0 c 3.3413,0 6,-2.658703 6,-6 l 0,1 c 0,3.341297 -2.6587,6 -6,6 l -16,0 z"
         id="path4300"
         inkscape:connector-curvature="0" />
      <path
         style="opacity:0.1;color:#bebebe;fill:#ffffff;fill-opacity:1;fill-rule:nonzero;stroke:none;stroke-width:0;marker:none;visibility:visible;display:inline;overflow:visible;enable-background:accumulate"
         d="m 422,122 c -2.2333,0 -4,-1.7667 -4,-4 l 0,-1 c 0,2.2333 1.7667,4 4,4 l 12,0 c 2.2333,0 4,-1.7667 4,-4 l 0,1 c 0,2.2333 -1.7667,4 -4,4 l -12,0 z"
         id="path4302"
         inkscape:connector-curvature="0" />
      <path
         style="opacity:0.1;color:#bebebe;fill:#ffffff;fill-opacity:1;fill-rule:nonzero;stroke:none;stroke-width:0;marker:none;visibility:visible;display:inline;overflow:visible;enable-background:accumulate"
         d="m 419,154.5 c -1.1253,0 -2,-0.8747 -2,-2 l 0,-1 c 0,1.1253 0.8747,2 2,2 l 10,0 c 1.1253,0 2,-0.8747 2,-2 l 0,1 c 0,1.1253 -0.8747,2 -2,2 l -10,0 z"
         id="path4304"
         inkscape:connector-curvature="0" />
    </g>
    <g
       inkscape:groupmode="layer"
       id="layer3"
       inkscape:label="Border"
       style="display:inline"
       sodipodi:insensitive="true">
      <path
         style="opacity:0.41000001;color:#bebebe;fill:#000000;fill-opacity:1;fill-rule:nonzero;stroke:none;stroke-width:0;marker:none;visibility:visible;display:inline;overflow:visible;enable-background:accumulate"
         d="m 422,101 c -2.77,0 -5,2.23 -5,5 l 0,12 c 0,2.77 2.23,5 5,5 l 12,0 c 2.77,0 5,-2.23 5,-5 l 0,-12 c 0,-2.77 -2.23,-5 -5,-5 l -12,0 z m 0,1 12,0 c 2.2333,0 4,1.7667 4,4 l 0,12 c 0,2.2333 -1.7667,4 -4,4 l -12,0 c -2.2333,0 -4,-1.7667 -4,-4 l 0,-12 c 0,-2.2333 1.7667,-4 4,-4 z"
         id="rect4099"
         inkscape:connector-curvature="0" />
      <path
         style="opacity:0.41000001;color:#bebebe;fill:#000000;fill-opacity:1;fill-rule:nonzero;stroke:none;stroke-width:0;marker:none;visibility:visible;display:inline;overflow:visible;enable-background:accumulate"
         d="m 424,53 c -3.878,0 -7,3.122 -7,7 l 0,16 c 0,3.878 3.122,7 7,7 l 16,0 c 3.878,0 7,-3.122 7,-7 l 0,-16 c 0,-3.878 -3.122,-7 -7,-7 l -16,0 z m 0,1 16,0 c 3.3413,0 6,2.658703 6,6 l 0,16 c 0,3.341297 -2.6587,6 -6,6 l -16,0 c -3.3413,0 -6,-2.658703 -6,-6 l 0,-16 c 0,-3.341297 2.6587,-6 6,-6 z"
         id="rect4151"
         inkscape:connector-curvature="0" />
      <path
         style="opacity:0.41000001;color:#bebebe;fill:#000000;fill-opacity:1;fill-rule:nonzero;stroke:none;stroke-width:0;marker:none;visibility:visible;display:inline;overflow:visible;enable-background:accumulate"
         d="m 419,140 c -1.662,0 -3,1.338 -3,3 l 0,10 c 0,1.662 1.338,3 3,3 l 10,0 c 1.662,0 3,-1.338 3,-3 l 0,-10 c 0,-1.662 -1.338,-3 -3,-3 l -10,0 z m 0,1 10,0 c 1.1253,0 2,0.8747 2,2 l 0,10 c 0,1.1253 -0.8747,2 -2,2 l -10,0 c -1.1253,0 -2,-0.8747 -2,-2 l 0,-10 c 0,-1.1253 0.8747,-2 2,-2 z"
         id="rect4095"
         inkscape:connector-curvature="0" />
      <path
         style="opacity:0.41000001;color:#bebebe;fill:#000000;fill-opacity:1;fill-rule:nonzero;stroke:none;stroke-width:0;marker:none;visibility:visible;display:inline;overflow:visible;enable-background:accumulate"
         d="m 300,223 c -4.986,0 -9,4.014 -9,9 l 0,24 c 0,4.986 4.014,9 9,9 l 24,0 c 4.986,0 9,-4.014 9,-9 l 0,-24 c 0,-4.986 -4.014,-9 -9,-9 l -24,0 z m 0,1 24,0 c 4.4493,0 8,3.5507 8,8 l 0,24 c 0,4.4493 -3.5507,8 -8,8 l -24,0 c -4.4493,0 -8,-3.5507 -8,-8 l 0,-24 c 0,-4.4493 3.5507,-8 8,-8 z"
         id="rect4783"
         inkscape:connector-curvature="0" />
      <path
         style="opacity:0.41000001;color:#bebebe;fill:#000000;fill-opacity:1;fill-rule:nonzero;stroke:none;stroke-width:0;marker:none;visibility:visible;display:inline;overflow:visible;enable-background:accumulate"
         d="m 302.5,142 c -6.925,0 -12.5,5.575 -12.5,12.5 l 0,35 c 0,6.925 5.575,12.5 12.5,12.5 l 35,0 c 6.925,0 12.5,-5.575 12.5,-12.5 l 0,-35 c 0,-6.925 -5.575,-12.5 -12.5,-12.5 l -35,0 z m 0,1 35,0 c 6.3883,0 11.5,5.1117 11.5,11.5 l 0,35 c 0,6.3883 -5.1117,11.5 -11.5,11.5 l -35,0 c -6.3883,0 -11.5,-5.1117 -11.5,-11.5 l 0,-35 c 0,-6.3883 5.1117,-11.5 11.5,-11.5 z"
         id="rect4515"
         inkscape:connector-curvature="0" />
      <path
         style="opacity:0.41000001;color:#bebebe;fill:#000000;fill-opacity:1;fill-rule:nonzero;stroke:none;stroke-width:0;marker:none;visibility:visible;display:inline;overflow:visible;enable-background:accumulate"
         d="m 310,32 c -9.972,0 -18,8.028 -18,18 l 0,52 c 0,9.972 8.028,18 18,18 l 52,0 c 9.972,0 18,-8.028 18,-18 l 0,-52 c 0,-9.972 -8.028,-18 -18,-18 l -52,0 z m 0,1 52,0 c 9.4353,0 17,7.564703 17,17 l 0,52 c 0,9.4353 -7.5647,17 -17,17 l -52,0 c -9.4353,0 -17,-7.5647 -17,-17 l 0,-52 c 0,-9.435297 7.5647,-17 17,-17 z"
         id="rect4511"
         inkscape:connector-curvature="0" />
      <path
         style="opacity:0.41000001;color:#bebebe;fill:#000000;fill-opacity:1;fill-rule:nonzero;stroke:none;stroke-width:0;marker:none;visibility:visible;display:inline;overflow:visible;enable-background:accumulate"
         d="M 84,46 C 56.3,46 34,68.3 34,96 l 0,120 c 0,27.7 22.3,50 50,50 l 120,0 c 27.7,0 50,-22.3 50,-50 L 254,96 C 254,68.3 231.7,46 204,46 L 84,46 z m 0,1 120,0 c 27.1633,0 49,21.836703 49,49 l 0,120 c 0,27.1633 -21.8367,49 -49,49 L 84,265 C 56.836703,265 35,243.1633 35,216 L 35,96 C 35,68.836703 56.836703,47 84,47 z"
         id="rect4040"
         inkscape:connector-curvature="0" />
    </g>
  </g>
</svg>
